#N canvas 827 239 527 327 12;
#X obj 250 316 midiout;
#X obj 79 90 midiin;
#X obj 79 133 print;
#X msg 324 269 250 \, 2;
#X msg 250 269 252 \, 2;
#X obj 250 144 tgl 65 0 empty empty empty 17 7 0 10 #191919 #e1e1e1 #e1e1e1 0 1;
#X obj 250 225 sel 0;
#X text 324 150 start/stop;
#X obj 465 151 bng 65 250 50 0 empty empty empty 17 7 0 10 #191919 #e1e1e1 #e1e1e1;
#X text 529 32 interrupt/reset;
#X obj 478 316 pgmout;
#X obj 559 150 bng 65 250 50 0 empty empty empty 17 7 0 10 #191919 #e1e1e1 #e1e1e1;
#X msg 571 279 4;
#X msg 478 279 1;
#X obj 465 232 t;
#X obj 559 231 t;
#X connect 1 0 2 0;
#X connect 1 1 2 0;
#X connect 3 0 0 0;
#X connect 4 0 0 0;
#X connect 5 0 6 0;
#X connect 6 0 4 0;
#X connect 6 1 3 0;
#X connect 8 0 14 0;
#X connect 11 0 15 0;
#X connect 12 0 10 0;
#X connect 13 0 10 0;
#X connect 14 0 3 0;
#X connect 14 1 13 0;
#X connect 15 0 3 0;
#X connect 15 1 12 0;
