#N canvas 1440 928 1920 976 12;
#X obj 52 654 midiout 3;
#X msg 51 618 240 0 32 107 127 66 2 2 64 106 33 247;
#X obj 51 582 loadbang;
#X text 120 576 required for init ml3_text;
#X obj 343 498 loadbang;
#X msg 343 556 clear;
#X obj 346 528 bng 20 250 50 0 empty empty empty 0 -10 0 12 #fcfcfc #000000 #000000;
#X text 57 499 caution: if ml3 gets unplugged after this occurs \, text input wont work thereafter until this is triggered again, f 31;
#X obj 599 570 loadmess red;
#X obj 587 546 loadmess 0;
#X obj 614 511 bng 20 250 50 0 empty empty empty 0 -10 0 12 #fcfcfc #000000 #000000;
#X obj 556 544 tgl 20 0 empty empty empty 0 -10 0 12 #fcfcfc #000000 #000000 0 1;
#X obj 552 443 r t.4n;
#X msg 526 503 1;
#X msg 565 512 0;
#X obj 563 473 del 50;
#X obj 263 36 ctlin, f 9;
#X floatatom 295 88 5 0 0 0 - - - 0;
#X floatatom 263 88 5 0 0 0 - - - 0;
#X obj 1011 517 sel 127;
#X obj 1011 590 tgl 20 0 empty empty empty 0 -10 0 12 #fcfcfc #000000 #000000 0 1;
#X msg 1006 548 1;
#X text 1027 450 shift;
#X obj 1057 555 b;
#X obj 1105 555 s ctl.update_text;
#X obj 1344 482 ctlin;
#X obj 1341 514 sel 33;
#X obj 1273 635 s ctl.update_text;
#X obj 1431 589 del 20000;
#X obj 1338 564 gate 1;
#X msg 1423 626 1;
#X obj 1406 555 t;
#X msg 1394 587 0;
#X obj 1337 600 bng 20 250 50 0 empty empty empty 0 -10 0 12 #fcfcfc #000000 #000000;
#X obj 1419 664 bng 20 250 50 0 empty empty empty 0 -10 0 12 #fcfcfc #000000 #000000;
#X obj 1411 506 loadmess 1;
#X obj 1416 476 bng 20 250 50 0 empty empty empty 0 -10 0 12 #fcfcfc #000000 #000000;
#X text 1308 449 refresh ml3 text display;
#X obj 1017 618 s ctl.shift_state;
#X obj 400 44 notein;
#X floatatom 390 91 5 0 0 0 - - - 0;
#X floatatom 423 91 5 0 0 0 - - - 0;
#X floatatom 457 94 5 0 0 0 - - - 0;
#X obj 839 663 print;
#X obj 817 590 pgm2bank;
#X obj 820 524 + 1;
#X obj 857 394 bng 20 250 50 0 empty empty empty 0 -10 0 12 #fcfcfc #000000 #000000;
#X obj 764 535 print;
#X obj 838 558 t b f;
#X obj 849 454 bng 20 250 50 0 empty empty empty 0 -10 0 12 #fcfcfc #000000 #000000;
#X obj 819 425 uzi 128;
#X obj 814 491 counter 0 0 127;
#X obj 825 625 zl group 128;
#X text 898 404 print bank labels;
#X obj 785 149 s ctl.do_cont;
#X obj 931 140 s ctl.do_stop;
#X obj 1076 140 s ctl.do_prime;
#X obj 1177 148 s ctl.do_reset;
#X obj 1076 91 bng 25 250 50 0 empty empty ctl\ prime 17 7 0 10 #e3dfd9 #5a5a5a #5a5a5a;
#X msg 872 108 127;
#X obj 871 73 bng 25 250 50 0 empty empty ctl\ cont 17 7 0 10 #e3dfd9 #5a5a5a #5a5a5a;
#X msg 1024 110 127;
#X obj 1023 75 bng 25 250 50 0 empty empty ctl\ stop 17 7 0 10 #e3dfd9 #5a5a5a #5a5a5a;
#X obj 1269 85 t b b;
#X msg 1269 113 127 \, 0;
#X obj 1269 42 bng 25 250 50 0 empty empty ctl\ reset 17 7 0 10 #e3dfd9 #5a5a5a #5a5a5a;
#X obj 1334 148 s ctl.do_hold;
#X msg 1436 114 127;
#X obj 1435 79 bng 25 250 50 0 empty empty hold 17 7 0 10 #e3dfd9 #5a5a5a #5a5a5a;
#X obj 1495 140 s ctl.do_seg;
#X obj 1495 105 nbx 4 18 -1e+37 1e+37 0 0 empty empty ctl\ seek\ seg 0 -8 0 10 #191919 #e1e1e1 #e1e1e1 0 256;
#X msg 1684 107 127;
#X obj 1683 72 bng 25 250 50 0 empty empty ctl\ shift 17 7 0 10 #e3dfd9 #5a5a5a #5a5a5a;
#X obj 1011 483 r ctl.do_shift;
#X obj 1593 140 s ctl.do_shift;
#X obj 1593 99 ctl.in 27 33;
#X obj 1334 99 ctl.in 108 33;
#X obj 1177 99 ctl.in 105 33;
#X obj 931 99 ctl.in 106 33;
#X obj 785 99 ctl.in 107 33;
#X obj 555 80 shell, f 7;
#X obj 555 142 print stdout;
#X obj 583 113 print result;
#X msg 555 48 aconnect -l;
#X obj 1363 427 r midich_ml3;
#X obj 934 42 r midich_ml3;
#X obj 40 269 ctl.in 64 33;
#X obj 92 243 r midich_ml3;
#X obj 41 298 nbx 4 18 -1e+37 1e+37 0 0 empty empty empty 0 -8 0 10 #191919 #e1e1e1 #e1e1e1 0 256;
#X obj 99 300 nbx 4 18 -1e+37 1e+37 0 0 empty empty empty 0 -8 0 10 #191919 #e1e1e1 #e1e1e1 0 256;
#X obj 327 90 nbx 4 18 -1e+37 1e+37 0 0 empty empty empty 0 -8 0 10 #191919 #e1e1e1 #e1e1e1 0 256;
#X obj 56 411 s ctl.pedal_on;
#X obj 42 327 > 0;
#X obj 41 368 sel 1 0;
#X obj 38 436 s ctl.pedal_off;
#X obj 249 267 stripnote;
#X obj 250 293 nbx 4 18 -1e+37 1e+37 0 0 empty empty empty 0 -8 0 10 #191919 #e1e1e1 #e1e1e1 0 256;
#X obj 250 319 sel 36 37 38 39 40 41 42 43, f 35;
#X obj 249 353 bng 25 250 50 0 empty empty empty 17 7 0 10 #191919 #e1e1e1 #e1e1e1;
#X obj 281 353 bng 25 250 50 0 empty empty empty 17 7 0 10 #191919 #e1e1e1 #e1e1e1;
#X obj 308 353 bng 25 250 50 0 empty empty empty 17 7 0 10 #191919 #e1e1e1 #e1e1e1;
#X obj 333 353 bng 25 250 50 0 empty empty empty 17 7 0 10 #191919 #e1e1e1 #e1e1e1;
#X obj 363 353 bng 25 250 50 0 empty empty empty 17 7 0 10 #191919 #e1e1e1 #e1e1e1;
#X obj 392 353 bng 25 250 50 0 empty empty empty 17 7 0 10 #191919 #e1e1e1 #e1e1e1;
#X obj 419 353 bng 25 250 50 0 empty empty empty 17 7 0 10 #191919 #e1e1e1 #e1e1e1;
#X obj 449 353 bng 25 250 50 0 empty empty empty 17 7 0 10 #191919 #e1e1e1 #e1e1e1;
#X obj 248 243 note.in 26;
#X obj 296 209 r midich_ml3_pads;
#X text 61 182 screen select;
#X obj 390 404 s ctl.yes;
#X obj 366 428 s ctl.no;
#X obj 59 30 em.ctl.notes;
#X text 1044 186 todo: these need to be renamed to be more generic in order to fit use in different screens;
#X obj 556 596 ml3/clr 1;
#X obj 343 590 ml3/clr 1;
#X obj 1090 521 s ctl.load_clrstore_1;
#X connect 1 0 0 0;
#X connect 2 0 1 0;
#X connect 4 0 6 0;
#X connect 5 0 114 0;
#X connect 6 0 5 0;
#X connect 8 0 113 2;
#X connect 9 0 113 1;
#X connect 10 0 8 0;
#X connect 10 0 9 0;
#X connect 11 0 113 0;
#X connect 12 0 13 0;
#X connect 12 0 15 0;
#X connect 12 0 10 0;
#X connect 13 0 11 0;
#X connect 14 0 11 0;
#X connect 15 0 14 0;
#X connect 15 0 10 0;
#X connect 16 0 18 0;
#X connect 16 1 17 0;
#X connect 16 2 90 0;
#X connect 19 0 21 0;
#X connect 19 0 24 0;
#X connect 19 1 20 0;
#X connect 19 1 23 0;
#X connect 20 0 38 0;
#X connect 21 0 20 0;
#X connect 25 2 26 0;
#X connect 26 0 29 1;
#X connect 28 0 30 0;
#X connect 29 0 31 0;
#X connect 29 0 27 0;
#X connect 29 0 33 0;
#X connect 30 0 29 0;
#X connect 30 0 34 0;
#X connect 31 0 32 0;
#X connect 31 1 28 0;
#X connect 32 0 29 0;
#X connect 35 0 29 0;
#X connect 36 0 35 0;
#X connect 39 0 40 0;
#X connect 39 1 41 0;
#X connect 39 2 42 0;
#X connect 44 0 52 0;
#X connect 45 0 48 0;
#X connect 46 0 50 0;
#X connect 48 0 44 0;
#X connect 48 1 44 1;
#X connect 49 0 51 2;
#X connect 50 0 51 0;
#X connect 51 0 45 0;
#X connect 51 0 47 0;
#X connect 52 0 43 0;
#X connect 58 0 56 0;
#X connect 59 0 54 0;
#X connect 60 0 59 0;
#X connect 61 0 55 0;
#X connect 62 0 61 0;
#X connect 63 0 64 0;
#X connect 63 1 64 0;
#X connect 64 0 57 0;
#X connect 65 0 63 0;
#X connect 67 0 66 0;
#X connect 68 0 67 0;
#X connect 70 0 69 0;
#X connect 71 0 74 0;
#X connect 72 0 71 0;
#X connect 73 0 19 0;
#X connect 73 0 115 0;
#X connect 75 0 74 0;
#X connect 76 0 66 0;
#X connect 77 0 57 0;
#X connect 78 0 55 0;
#X connect 79 0 54 0;
#X connect 80 0 81 0;
#X connect 80 1 82 0;
#X connect 83 0 80 0;
#X connect 84 0 26 1;
#X connect 85 0 75 2;
#X connect 85 0 76 2;
#X connect 85 0 77 2;
#X connect 85 0 78 2;
#X connect 85 0 79 2;
#X connect 86 0 88 0;
#X connect 86 1 89 0;
#X connect 87 0 86 2;
#X connect 88 0 92 0;
#X connect 92 0 93 0;
#X connect 93 0 94 0;
#X connect 93 1 91 0;
#X connect 95 0 96 0;
#X connect 96 0 97 0;
#X connect 97 0 98 0;
#X connect 97 1 99 0;
#X connect 97 2 100 0;
#X connect 97 3 101 0;
#X connect 97 4 102 0;
#X connect 97 5 103 0;
#X connect 97 6 104 0;
#X connect 97 7 105 0;
#X connect 102 0 110 0;
#X connect 103 0 109 0;
#X connect 106 0 95 0;
#X connect 106 1 95 1;
#X connect 107 0 106 1;
