#N canvas 827 239 527 327 12;
#X text 222 376 mnm auto ch via megacmd midi, f 12;
#X text 521 376 md chr ch via pisound midi, f 12;
#X text 476 135 pass through ml3 midi;
#X obj 312 285 r midich_mnm_notes;
#X obj 596 313 r midich_md_notes;
#X obj 359 135 r midich_ml3;
#X text 334 81 NOTE MANAGEMENT;
#X obj 359 179 + 8;
#X obj 433 179 + 9;
#X obj 510 348 noteout 26, f 15;
#X obj 225 239 note.in 9;
#X obj 222 285 unpack f f;
#X obj 510 258 note.in 10;
#X obj 510 294 unpack f f;
#X obj 222 347 noteout 57;
#X obj 510 567 r midich_mnm_notes;
#X obj 233 617 bendout 57;
#X obj 334 625 ctlout 57;
#X obj 425 625 ctlout 57;
#X obj 334 520 t f b;
#X msg 359 561 1;
#X obj 424 523 t f b;
#X msg 449 564 2;
#X obj 334 487 r ctl.s1;
#X obj 425 487 r ctl.s2;
#X obj 411 355 r pdctl.keys;
#X obj 612 273 s pdctl.keys_;
#X obj 371 326 r pdctl.notesch;
#X obj 371 391 gate 2;
#X obj 371 355 + 1;
#X obj 106 285 s pdctl.keys_;
#X obj 233 580 r ctl.bend;
#X connect 3 0 14 2;
#X connect 4 0 9 2;
#X connect 5 0 8 0;
#X connect 5 0 7 0;
#X connect 7 0 10 1;
#X connect 8 0 12 1;
#X connect 10 0 11 0;
#X connect 10 0 30 0;
#X connect 10 1 11 0;
#X connect 11 0 14 0;
#X connect 11 1 14 1;
#X connect 12 0 13 0;
#X connect 12 0 26 0;
#X connect 12 1 13 0;
#X connect 13 0 9 0;
#X connect 13 1 9 1;
#X connect 15 0 16 1;
#X connect 15 0 17 2;
#X connect 15 0 18 2;
#X connect 19 0 17 0;
#X connect 19 1 20 0;
#X connect 20 0 17 1;
#X connect 21 0 18 0;
#X connect 21 1 22 0;
#X connect 22 0 18 1;
#X connect 23 0 19 0;
#X connect 24 0 21 0;
#X connect 25 0 28 1;
#X connect 27 0 29 0;
#X connect 28 0 11 0;
#X connect 28 1 13 0;
#X connect 29 0 28 0;
#X connect 31 0 16 0;
