#N canvas 827 239 527 327 12;
#X obj 441 261 notein;
#X obj 456 608 noteout 57;
#X obj 586 261 ctlin;
#X obj 514 259 bendin;
#X obj 558 606 bendout 57;
#X text 324 338 mnm auto ch via megacmd midi, f 12;
#X text 348 390 md chr ch via pisound midi, f 12;
#X text 432 228 pass through ml3 midi;
#X obj 656 606 ctlout 57;
#X msg 590 332 0;
#X msg 608 332 1;
#X obj 579 298 bng 20 250 50 0 empty empty empty 0 -10 0 12 #fcfcfc #000000 #000000;
#X obj 400 566 gate 1;
#X obj 456 566 gate 1;
#X obj 544 568 gate 1;
#X obj 668 534 gate 1;
#X obj 720 532 gate 1;
#X obj 638 296 loadbang;
#X obj 574 370 change;
#X obj 705 294 sel 1;
#X obj 730 324 bng 20 250 50 0 empty empty empty 0 -10 0 12 #fcfcfc #000000 #000000;
#X msg 732 349 0;
#X msg 699 350 1;
#X obj 755 388 change;
#X obj 533 298 sel 34;
#X obj 482 298 sel 33;
#X obj 549 203 + 1;
#X obj 491 399 i;
#X obj 339 216 loadbang;
#X obj 533 399 i;
#X text 310 190 default midi ch;
#X obj 169 216 r midich_mnm_notes;
#X obj 169 248 r midich_md_notes;
#X obj 504 171 r midich_ml3;
#X msg 376 252 43;
#X msg 339 252 41;
#X text 329 122 NOTE MANAGEMENT;
#X connect 0 0 12 1;
#X connect 0 1 13 1;
#X connect 0 2 24 0;
#X connect 0 2 25 0;
#X connect 2 0 15 1;
#X connect 2 1 16 1;
#X connect 2 1 19 0;
#X connect 2 2 24 0;
#X connect 2 2 25 0;
#X connect 3 0 14 1;
#X connect 3 1 24 0;
#X connect 3 1 25 0;
#X connect 9 0 18 0;
#X connect 10 0 18 0;
#X connect 11 0 9 0;
#X connect 12 0 1 0;
#X connect 13 0 1 1;
#X connect 14 0 4 0;
#X connect 15 0 8 0;
#X connect 16 0 8 1;
#X connect 17 0 10 0;
#X connect 18 0 15 0;
#X connect 18 0 16 0;
#X connect 18 0 14 0;
#X connect 18 0 13 0;
#X connect 18 0 12 0;
#X connect 19 0 22 0;
#X connect 19 1 20 0;
#X connect 20 0 21 0;
#X connect 21 0 23 0;
#X connect 22 0 23 0;
#X connect 23 0 16 0;
#X connect 23 0 15 0;
#X connect 24 0 10 0;
#X connect 24 0 29 0;
#X connect 24 1 11 0;
#X connect 25 0 10 0;
#X connect 25 0 27 0;
#X connect 26 0 24 1;
#X connect 27 0 1 2;
#X connect 27 0 4 1;
#X connect 27 0 8 2;
#X connect 28 0 35 0;
#X connect 28 0 34 0;
#X connect 29 0 1 2;
#X connect 29 0 8 2;
#X connect 29 0 4 1;
#X connect 31 0 27 1;
#X connect 32 0 29 1;
#X connect 33 0 25 1;
#X connect 33 0 26 0;
#X connect 34 0 29 1;
#X connect 35 0 27 1;
