#N canvas 1440 28 1600 840 12;
#X obj 61 185 midiout 3;
#X msg 60 149 240 0 32 107 127 66 2 2 64 106 33 247;
#X obj 60 113 loadbang;
#X text 129 111 required for init ml3_text;
#X obj 390 53 loadbang;
#X obj 396 172 ml3/text;
#X obj 393 108 del 50;
#X obj 391 76 bng 20 250 50 0 empty empty empty 0 -10 0 12 #fcfcfc #000000 #000000;
#X msg 474 142 emsys;
#X msg 422 139 alpha;
#X obj 545 151 ml3/clr;
#X obj 541 55 loadbang;
#X msg 549 115 clear;
#X obj 542 86 bng 20 250 50 0 empty empty empty 0 -10 0 12 #fcfcfc #000000 #000000;
#X obj 514 250 ctlin 106 33;
#X obj 413 250 ctlin 107 33;
#X obj 514 280 sel 127;
#X obj 414 283 sel 127;
#X obj 516 312 bng 20 250 50 0 empty empty empty 0 -10 0 12 #fcfcfc #000000 #000000;
#X obj 413 315 bng 20 250 50 0 empty empty empty 0 -10 0 12 #fcfcfc #000000 #000000;
#X text 521 221 stop;
#X text 66 34 caution: if ml3 gets unplugged after this occurs \, text input wont work thereafter until this is triggered again, f 31;
#X obj 515 345 s t.stop;
#X obj 411 346 s t.cont;
#X text 418 221 cont;
#X obj 613 314 bng 20 250 50 0 empty empty empty 0 -10 0 12 #fcfcfc #000000 #000000;
#X obj 616 252 ctlin 105 33;
#X obj 615 285 sel 127;
#X obj 609 341 s t.prime;
#X text 614 223 prime (midi: 250);
#X obj 637 155 ml3/clr;
#X obj 680 129 loadmess red;
#X obj 668 105 loadmess 0;
#X obj 695 70 bng 20 250 50 0 empty empty empty 0 -10 0 12 #fcfcfc #000000 #000000;
#X obj 637 103 tgl 20 0 empty empty empty 0 -10 0 12 #fcfcfc #000000 #000000 0 1;
#X obj 634 56 r t.8n;
#X connect 1 0 0 0;
#X connect 2 0 1 0;
#X connect 4 0 7 0;
#X connect 6 0 5 0;
#X connect 7 0 8 0;
#X connect 7 0 9 0;
#X connect 7 0 6 0;
#X connect 8 0 5 2;
#X connect 9 0 5 1;
#X connect 11 0 13 0;
#X connect 12 0 10 0;
#X connect 13 0 12 0;
#X connect 14 0 16 0;
#X connect 15 0 17 0;
#X connect 16 0 18 0;
#X connect 17 0 19 0;
#X connect 18 0 22 0;
#X connect 19 0 23 0;
#X connect 25 0 28 0;
#X connect 26 0 27 0;
#X connect 27 0 25 0;
#X connect 31 0 30 2;
#X connect 32 0 30 1;
#X connect 33 0 31 0;
#X connect 33 0 32 0;
#X connect 34 0 30 0;
#X connect 35 0 34 0;
