#N canvas 827 239 527 327 12;
#X text 222 376 mnm auto ch via megacmd midi, f 12;
#X text 521 376 md chr ch via pisound midi, f 12;
#X text 476 135 pass through ml3 midi;
#X obj 312 285 r midich_mnm_notes;
#X obj 596 313 r midich_md_notes;
#X obj 359 135 r midich_ml3;
#X text 334 81 NOTE MANAGEMENT;
#X obj 359 179 + 8;
#X obj 433 179 + 9;
#X obj 510 348 noteout 26, f 15;
#X obj 225 239 note.in 9;
#X obj 222 285 unpack f f;
#X obj 510 258 note.in 10;
#X obj 510 294 unpack f f;
#X obj 222 347 noteout 57;
#X obj 1161 311 r midich_mnm_notes;
#X obj 762 273 bend.in -raw;
#X obj 762 311 scale 0 16383 -8192 8191;
#X obj 762 363 bendout 57;
#X obj 942 369 ctlout 57;
#X obj 1076 369 ctlout 57;
#X obj 942 238 t f b;
#X msg 967 279 1;
#X obj 1075 241 t f b;
#X msg 1100 282 2;
#X obj 942 178 r ctl.s1;
#X obj 1076 178 r ctl.s2;
#X connect 3 0 14 2;
#X connect 4 0 9 2;
#X connect 5 0 8 0;
#X connect 5 0 7 0;
#X connect 7 0 10 1;
#X connect 8 0 12 1;
#X connect 10 0 11 0;
#X connect 10 1 11 0;
#X connect 11 0 14 0;
#X connect 11 1 14 1;
#X connect 12 0 13 0;
#X connect 12 1 13 0;
#X connect 13 0 9 0;
#X connect 13 1 9 1;
#X connect 15 0 18 1;
#X connect 15 0 19 2;
#X connect 15 0 20 2;
#X connect 16 0 17 0;
#X connect 17 0 18 0;
#X connect 21 0 19 0;
#X connect 21 1 22 0;
#X connect 22 0 19 1;
#X connect 23 0 20 0;
#X connect 23 1 24 0;
#X connect 24 0 20 1;
#X connect 25 0 21 0;
#X connect 26 0 23 0;
