#N canvas 827 239 527 327 12;
#X text 270 376 mnm auto ch via megacmd midi, f 12;
#X text 521 376 md chr ch via pisound midi, f 12;
#X text 476 135 pass through ml3 midi;
#X obj 81 313 r midich_mnm_notes;
#X obj 596 313 r midich_md_notes;
#X obj 359 135 r midich_ml3;
#X text 334 81 NOTE MANAGEMENT;
#X obj 359 179 + 8;
#X obj 433 179 + 9;
#X obj 510 348 noteout 26, f 15;
#X obj 225 239 note.in 9;
#X obj 222 285 unpack f f;
#X floatatom 316 290 5 0 0 0 - - - 12;
#X obj 315 258 bend.in -raw;
#X obj 422 258 ctl.in 1;
#X obj 510 258 note.in 10;
#X obj 510 294 unpack f f;
#X obj 222 347 noteout 57;
#X obj 324 345 bendout 57;
#X obj 422 345 ctlout 57;
#X connect 3 0 17 2;
#X connect 3 0 18 1;
#X connect 3 0 19 2;
#X connect 4 0 9 2;
#X connect 5 0 8 0;
#X connect 5 0 7 0;
#X connect 7 0 10 1;
#X connect 8 0 15 1;
#X connect 10 0 11 0;
#X connect 10 1 11 0;
#X connect 11 0 17 0;
#X connect 11 1 17 1;
#X connect 12 0 18 0;
#X connect 13 0 12 0;
#X connect 14 0 19 0;
#X connect 14 1 19 1;
#X connect 15 0 16 0;
#X connect 15 1 16 0;
#X connect 16 0 9 0;
#X connect 16 1 9 1;
