#N canvas 827 239 527 327 12;
#X obj 32 99 s ctl.do_cont;
#X obj 35 193 s ctl.do_stop;
#X obj 35 286 s ctl.do_prime;
#X obj 35 375 s ctl.do_reset;
#X obj 128 232 bng 25 250 50 0 empty empty empty 17 7 0 10 #e3dfd9 #5a5a5a #5a5a5a;
#X obj 32 49 ctlin 107 33;
#X msg 119 58 127;
#X obj 118 23 bng 25 250 50 0 empty empty empty 17 7 0 10 #e3dfd9 #5a5a5a #5a5a5a;
#X msg 128 163 127;
#X obj 127 128 bng 25 250 50 0 empty empty empty 17 7 0 10 #e3dfd9 #5a5a5a #5a5a5a;
#X obj 35 152 ctlin 106 33;
#X obj 144 318 t b b;
#X msg 144 346 127 \, 0;
#X obj 144 286 bng 25 250 50 0 empty empty empty 17 7 0 10 #e3dfd9 #5a5a5a #5a5a5a;
#X obj 35 326 ctlin 105 33;
#X obj 35 417 ctlin 108 33;
#X obj 35 466 s ctl.do_hold;
#X msg 137 432 127;
#X obj 136 397 bng 25 250 50 0 empty empty empty 17 7 0 10 #e3dfd9 #5a5a5a #5a5a5a;
#X obj 35 540 s ctl.do_seg;
#X obj 137 506 nbx 4 18 -1e+37 1e+37 0 0 empty empty empty 0 -8 0 10 #191919 #e1e1e1 #e1e1e1 0 256;
#X connect 4 0 2 0;
#X connect 5 0 0 0;
#X connect 6 0 0 0;
#X connect 7 0 6 0;
#X connect 8 0 1 0;
#X connect 9 0 8 0;
#X connect 10 0 1 0;
#X connect 11 0 12 0;
#X connect 11 1 12 0;
#X connect 12 0 3 0;
#X connect 13 0 11 0;
#X connect 14 0 3 0;
#X connect 15 0 16 0;
#X connect 17 0 16 0;
#X connect 18 0 17 0;
#X connect 20 0 19 0;
