#N canvas 1440 928 1920 976 12;
#X obj 610 179 loadmess red;
#X obj 598 155 loadmess 0;
#X obj 625 120 bng 20 250 50 0 empty empty empty 0 -10 0 12 #fcfcfc #000000 #000000;
#X obj 567 153 tgl 20 0 empty empty empty 0 -10 0 12 #fcfcfc #000000 #000000 0 1;
#X obj 563 52 r t.4n;
#X msg 537 112 1;
#X msg 576 121 0;
#X obj 574 82 del 50;
#X obj 263 36 ctlin, f 9;
#X floatatom 295 88 5 0 0 0 - - - 0;
#X floatatom 263 88 5 0 0 0 - - - 0;
#X obj 476 338 s ctl.update_text;
#X obj 804 90 ctlin;
#X obj 801 122 sel 33;
#X obj 733 243 s ctl.update_text;
#X obj 891 197 del 20000;
#X obj 798 172 gate 1;
#X msg 883 234 1;
#X obj 866 163 t;
#X msg 854 195 0;
#X obj 797 208 bng 20 250 50 0 empty empty empty 0 -10 0 12 #fcfcfc #000000 #000000;
#X obj 879 272 bng 20 250 50 0 empty empty empty 0 -10 0 12 #fcfcfc #000000 #000000;
#X obj 871 114 loadmess 1;
#X obj 876 84 bng 20 250 50 0 empty empty empty 0 -10 0 12 #fcfcfc #000000 #000000;
#X text 768 48 refresh ml3 text display;
#X obj 400 44 notein;
#X floatatom 390 91 5 0 0 0 - - - 0;
#X floatatom 423 91 5 0 0 0 - - - 0;
#X floatatom 457 94 5 0 0 0 - - - 0;
#X obj 1053 448 ctl.in 27 33;
#X obj 945 446 ctl.in 108 33;
#X obj 839 447 ctl.in 105 33;
#X obj 726 451 ctl.in 106 33;
#X obj 614 452 ctl.in 107 33;
#X obj 823 35 r midich_ml3;
#X obj 666 398 r midich_ml3;
#X obj 327 90 nbx 4 18 -1e+37 1e+37 0 0 empty empty empty 0 -8 0 10 #191919 #e1e1e1 #e1e1e1 0 256;
#X obj 56 233 stripnote;
#X obj 57 259 nbx 4 18 -1e+37 1e+37 0 0 empty empty empty 0 -8 0 10 #191919 #e1e1e1 #e1e1e1 0 256;
#X obj 57 285 sel 36 37 38 39 40 41 42 43, f 35;
#X obj 56 319 bng 25 250 50 0 empty empty empty 17 7 0 10 #191919 #e1e1e1 #e1e1e1;
#X obj 88 319 bng 25 250 50 0 empty empty empty 17 7 0 10 #191919 #e1e1e1 #e1e1e1;
#X obj 115 319 bng 25 250 50 0 empty empty empty 17 7 0 10 #191919 #e1e1e1 #e1e1e1;
#X obj 140 319 bng 25 250 50 0 empty empty empty 17 7 0 10 #191919 #e1e1e1 #e1e1e1;
#X obj 170 319 bng 25 250 50 0 empty empty empty 17 7 0 10 #191919 #e1e1e1 #e1e1e1;
#X obj 199 319 bng 25 250 50 0 empty empty empty 17 7 0 10 #191919 #e1e1e1 #e1e1e1;
#X obj 226 319 bng 25 250 50 0 empty empty empty 17 7 0 10 #191919 #e1e1e1 #e1e1e1;
#X obj 256 319 bng 25 250 50 0 empty empty empty 17 7 0 10 #191919 #e1e1e1 #e1e1e1;
#X obj 55 209 note.in 26;
#X obj 109 160 r midich_ml3_pads;
#X text 35 338 screen select;
#X obj 197 370 s ctl.yes;
#X obj 173 394 s ctl.no;
#X obj 59 30 em.ctl.notes;
#X obj 567 205 ml3/clr 1;
#X obj 59 446 s scmgr.SeekScreenPrevious;
#X obj 92 420 s scmgr.SeekScreenNext;
#X text 146 209 universal controls;
#X obj 1504 341 s ctl.rec;
#X obj 1294 344 s ctl.loop;
#X obj 1569 340 s ctl.tap;
#X obj 1220 344 s ctl.prog;
#X obj 1152 342 s ctl.pad;
#X obj 1083 341 s ctl.arp;
#X obj 1436 341 s ctl.play;
#X obj 1365 341 s ctl.stop;
#X obj 1098 67 note.in 26;
#X obj 1151 30 r midich_ml3_pads;
#X obj 1096 97 route 36 37 38 39 40 41 42 43, f 82;
#X obj 1097 125 velex;
#X obj 1166 129 velex;
#X obj 1233 130 velex;
#X obj 1302 134 velex;
#X obj 1376 129 velex;
#X obj 1445 133 velex;
#X obj 1517 129 velex;
#X obj 1586 133 velex;
#X obj 827 1266 > 0;
#X text 915 1193 shift+tap;
#X obj 214 557 ctl.in 119 33;
#X floatatom 214 583 5 0 0 0 - - - 12;
#X obj 326 521 r midich_ml3;
#X obj 322 637 ctl.in 28 33;
#X obj 331 756 s ctl.enc;
#X obj 409 636 ctl.in 29 33;
#X obj 410 751 s ctl.shift.enc;
#X floatatom 415 726 5 0 0 0 - - - 12;
#X obj 328 687 spigot 1;
#X obj 214 647 == 0;
#X obj 217 616 > 0;
#X obj 122 557 ctl.in 118 33;
#X floatatom 123 583 5 0 0 0 - - - 12;
#X obj 192 689 s ctl.shift.enc_click;
#X obj 121 648 == 0;
#X obj 124 617 > 0;
#X obj 70 693 s ctl.enc_click;
#X obj 88 605 tgl 25 0 empty empty empty 17 7 0 10 #191919 #e1e1e1 #e1e1e1 0 1;
#X obj 185 608 tgl 25 0 empty empty empty 17 7 0 10 #191919 #e1e1e1 #e1e1e1 0 1;
#X floatatom 330 724 5 0 0 0 - - - 12;
#X text 214 510 encoder;
#X obj 414 688 spigot 1;
#X obj 247 752 spigot 0;
#X obj 146 751 spigot 0;
#X floatatom 249 791 5 0 0 0 - - - 12;
#X floatatom 149 789 5 0 0 0 - - - 12;
#X obj 249 822 s ctl.shift.click.enc;
#X obj 150 821 s ctl.click.enc;
#X obj 195 968 r ctl.enc_click;
#X obj 295 969 r ctl.shift.enc_click;
#X obj 193 937 r ctl.click.enc;
#X obj 291 937 r ctl.shift.click.enc;
#X obj 194 908 r ctl.enc;
#X obj 289 907 r ctl.shift.enc;
#X text 121 929 with click;
#X text 129 899 no click;
#X text 196 872 no shift;
#X text 290 870 with shift;
#X text 126 960 the click;
#X obj 620 493 s ctl.shift.play;
#X obj 1054 480 > 0;
#X obj 1054 546 s ctl.shift;
#X obj 1054 511 tgl 25 0 empty empty empty 17 7 0 10 #191919 #e1e1e1 #e1e1e1 0 1;
#X obj 477 310 sel 1;
#X obj 476 280 r ctl.shift;
#X obj 928 1232 r ctl.shift;
#X obj 827 1338 == 2;
#X obj 1148 445 ctl.in 109 33;
#X obj 1148 486 s ctl.shift.tap;
#X obj 824 1236 r ctl.shift.tap;
#X obj 828 1303 +, f 17;
#X obj 831 1371 tgl 25 0 empty empty empty 17 7 0 10 #191919 #e1e1e1 #e1e1e1 0 1;
#X obj 968 1302 sel 1;
#X obj 1017 1252 ctl.in;
#X obj 1045 1215 r midich_ml3;
#X obj 1032 1284 sel 109 27;
#X obj 1076 1316 bng 25 250 50 0 empty empty empty 17 7 0 10 #191919 #e1e1e1 #e1e1e1;
#X msg 1077 1350 0;
#X obj 949 486 s ctl.shift.rec;
#X obj 842 483 s ctl.shift.loop;
#X obj 726 492 s ctl.shift.stop;
#X obj 706 821 s ctl.stop.play;
#X obj 601 822 s ctl.stop.loop;
#X obj 830 1413 s ctl.shiftp;
#X obj 1190 1392 s ctl.shiftp.loop;
#X obj 1544 1392 s ctl.shiftp.stop;
#X obj 1305 1395 s ctl.shiftp.play;
#X obj 1430 1397 s ctl.shiftp.rec;
#X obj 1051 615 sel 127, f 8;
#X obj 707 752 onebang;
#X msg 1099 710 stop;
#X obj 1097 659 bng 25 250 50 0 empty empty empty 17 7 0 10 #191919 #e1e1e1 #e1e1e1;
#X obj 1056 702 bng 25 250 50 0 empty empty empty 17 7 0 10 #191919 #e1e1e1 #e1e1e1;
#X obj 707 653 bng 25 250 50 0 empty empty empty 17 7 0 10 #191919 #e1e1e1 #e1e1e1;
#X obj 708 618 sel 127;
#X obj 707 784 bng 25 250 50 0 empty empty empty 17 7 0 10 #191919 #e1e1e1 #e1e1e1;
#X obj 600 747 onebang;
#X obj 600 779 bng 25 250 50 0 empty empty empty 17 7 0 10 #191919 #e1e1e1 #e1e1e1;
#X obj 595 649 bng 25 250 50 0 empty empty empty 17 7 0 10 #191919 #e1e1e1 #e1e1e1;
#X obj 596 614 sel 127;
#X obj 1003 650 bng 25 250 50 0 empty empty empty 17 7 0 10 #191919 #e1e1e1 #e1e1e1;
#X obj 826 753 onebang;
#X obj 826 654 bng 25 250 50 0 empty empty empty 17 7 0 10 #191919 #e1e1e1 #e1e1e1;
#X obj 827 619 sel 127;
#X obj 826 785 bng 25 250 50 0 empty empty empty 17 7 0 10 #191919 #e1e1e1 #e1e1e1;
#X obj 825 822 s ctl.stop.rec;
#X obj 946 749 onebang;
#X obj 946 650 bng 25 250 50 0 empty empty empty 17 7 0 10 #191919 #e1e1e1 #e1e1e1;
#X obj 947 615 sel 127;
#X obj 946 781 bng 25 250 50 0 empty empty empty 17 7 0 10 #191919 #e1e1e1 #e1e1e1;
#X obj 945 818 s ctl.stop.tap;
#X obj 1697 615 sel 127, f 8;
#X obj 1318 751 onebang;
#X msg 1745 710 stop;
#X obj 1743 659 bng 25 250 50 0 empty empty empty 17 7 0 10 #191919 #e1e1e1 #e1e1e1;
#X obj 1702 702 bng 25 250 50 0 empty empty empty 17 7 0 10 #191919 #e1e1e1 #e1e1e1;
#X obj 1318 652 bng 25 250 50 0 empty empty empty 17 7 0 10 #191919 #e1e1e1 #e1e1e1;
#X obj 1319 617 sel 127;
#X obj 1318 783 bng 25 250 50 0 empty empty empty 17 7 0 10 #191919 #e1e1e1 #e1e1e1;
#X obj 1179 750 onebang;
#X obj 1179 782 bng 25 250 50 0 empty empty empty 17 7 0 10 #191919 #e1e1e1 #e1e1e1;
#X obj 1174 652 bng 25 250 50 0 empty empty empty 17 7 0 10 #191919 #e1e1e1 #e1e1e1;
#X obj 1175 617 sel 127;
#X obj 1649 650 bng 25 250 50 0 empty empty empty 17 7 0 10 #191919 #e1e1e1 #e1e1e1;
#X obj 1460 753 onebang;
#X obj 1460 654 bng 25 250 50 0 empty empty empty 17 7 0 10 #191919 #e1e1e1 #e1e1e1;
#X obj 1461 619 sel 127;
#X obj 1460 785 bng 25 250 50 0 empty empty empty 17 7 0 10 #191919 #e1e1e1 #e1e1e1;
#X obj 1592 749 onebang;
#X obj 1592 650 bng 25 250 50 0 empty empty empty 17 7 0 10 #191919 #e1e1e1 #e1e1e1;
#X obj 1593 615 sel 127;
#X obj 1592 781 bng 25 250 50 0 empty empty empty 17 7 0 10 #191919 #e1e1e1 #e1e1e1;
#X obj 1177 582 r ctl.shift.loop;
#X obj 1321 582 r ctl.shift.play;
#X obj 1463 584 r ctl.shift.rec;
#X obj 1595 580 r ctl.shift.tap;
#X obj 1694 584 r ctl.shift.stop;
#X obj 1180 825 s ctl.shift.stop.loop;
#X obj 1317 825 s ctl.shift.stop.play;
#X obj 1459 827 s ctl.shift.stop.rec;
#X obj 1591 828 s ctl.shift.stop.tap;
#X obj 1048 914 sel 127, f 8;
#X obj 704 1051 onebang;
#X msg 1096 1009 stop;
#X obj 1094 958 bng 25 250 50 0 empty empty empty 17 7 0 10 #191919 #e1e1e1 #e1e1e1;
#X obj 1053 1001 bng 25 250 50 0 empty empty empty 17 7 0 10 #191919 #e1e1e1 #e1e1e1;
#X obj 704 952 bng 25 250 50 0 empty empty empty 17 7 0 10 #191919 #e1e1e1 #e1e1e1;
#X obj 705 917 sel 127;
#X obj 704 1083 bng 25 250 50 0 empty empty empty 17 7 0 10 #191919 #e1e1e1 #e1e1e1;
#X obj 597 1046 onebang;
#X obj 597 1078 bng 25 250 50 0 empty empty empty 17 7 0 10 #191919 #e1e1e1 #e1e1e1;
#X obj 592 948 bng 25 250 50 0 empty empty empty 17 7 0 10 #191919 #e1e1e1 #e1e1e1;
#X obj 593 913 sel 127;
#X obj 1000 949 bng 25 250 50 0 empty empty empty 17 7 0 10 #191919 #e1e1e1 #e1e1e1;
#X obj 823 1052 onebang;
#X obj 823 953 bng 25 250 50 0 empty empty empty 17 7 0 10 #191919 #e1e1e1 #e1e1e1;
#X obj 824 918 sel 127;
#X obj 823 1084 bng 25 250 50 0 empty empty empty 17 7 0 10 #191919 #e1e1e1 #e1e1e1;
#X obj 943 1048 onebang;
#X obj 943 949 bng 25 250 50 0 empty empty empty 17 7 0 10 #191919 #e1e1e1 #e1e1e1;
#X obj 944 914 sel 127;
#X obj 943 1080 bng 25 250 50 0 empty empty empty 17 7 0 10 #191919 #e1e1e1 #e1e1e1;
#X obj 1699 914 sel 127, f 8;
#X obj 1320 1050 onebang;
#X msg 1747 1009 stop;
#X obj 1745 958 bng 25 250 50 0 empty empty empty 17 7 0 10 #191919 #e1e1e1 #e1e1e1;
#X obj 1704 1001 bng 25 250 50 0 empty empty empty 17 7 0 10 #191919 #e1e1e1 #e1e1e1;
#X obj 1320 951 bng 25 250 50 0 empty empty empty 17 7 0 10 #191919 #e1e1e1 #e1e1e1;
#X obj 1321 916 sel 127;
#X obj 1320 1082 bng 25 250 50 0 empty empty empty 17 7 0 10 #191919 #e1e1e1 #e1e1e1;
#X obj 1181 1049 onebang;
#X obj 1181 1081 bng 25 250 50 0 empty empty empty 17 7 0 10 #191919 #e1e1e1 #e1e1e1;
#X obj 1176 951 bng 25 250 50 0 empty empty empty 17 7 0 10 #191919 #e1e1e1 #e1e1e1;
#X obj 1177 916 sel 127;
#X obj 1651 949 bng 25 250 50 0 empty empty empty 17 7 0 10 #191919 #e1e1e1 #e1e1e1;
#X obj 1462 1052 onebang;
#X obj 1462 953 bng 25 250 50 0 empty empty empty 17 7 0 10 #191919 #e1e1e1 #e1e1e1;
#X obj 1463 918 sel 127;
#X obj 1462 1084 bng 25 250 50 0 empty empty empty 17 7 0 10 #191919 #e1e1e1 #e1e1e1;
#X obj 1594 1048 onebang;
#X obj 1594 949 bng 25 250 50 0 empty empty empty 17 7 0 10 #191919 #e1e1e1 #e1e1e1;
#X obj 1595 914 sel 127;
#X obj 1594 1080 bng 25 250 50 0 empty empty empty 17 7 0 10 #191919 #e1e1e1 #e1e1e1;
#X obj 1179 881 r ctl.shift.loop;
#X obj 1323 881 r ctl.shift.play;
#X obj 1465 883 r ctl.shift.rec;
#X obj 598 1121 s ctl.tap.loop;
#X obj 703 1120 s ctl.tap.play;
#X obj 822 1121 s ctl.tap.rec;
#X obj 942 1117 s ctl.tap.stop;
#X obj 1597 879 r ctl.shift.stop;
#X obj 1696 883 r ctl.shift.tap;
#X obj 1593 1127 s ctl.shift.tap.stop;
#X obj 1461 1126 s ctl.shift.tap.rec;
#X obj 1319 1124 s ctl.shift.tap.play;
#X obj 1182 1124 s ctl.shift.tap.loop;
#X obj 1312 1262 bng 25 250 50 0 empty empty empty 17 7 0 10 #191919 #e1e1e1 #e1e1e1;
#X obj 1313 1227 sel 127;
#X obj 1311 1357 bng 25 250 50 0 empty empty empty 17 7 0 10 #191919 #e1e1e1 #e1e1e1;
#X obj 1187 1356 bng 25 250 50 0 empty empty empty 17 7 0 10 #191919 #e1e1e1 #e1e1e1;
#X obj 1204 1261 bng 25 250 50 0 empty empty empty 17 7 0 10 #191919 #e1e1e1 #e1e1e1;
#X obj 1205 1226 sel 127;
#X obj 1426 1265 bng 25 250 50 0 empty empty empty 17 7 0 10 #191919 #e1e1e1 #e1e1e1;
#X obj 1427 1230 sel 127;
#X obj 1425 1360 bng 25 250 50 0 empty empty empty 17 7 0 10 #191919 #e1e1e1 #e1e1e1;
#X obj 1544 1261 bng 25 250 50 0 empty empty empty 17 7 0 10 #191919 #e1e1e1 #e1e1e1;
#X obj 1545 1226 sel 127;
#X obj 1543 1356 bng 25 250 50 0 empty empty empty 17 7 0 10 #191919 #e1e1e1 #e1e1e1;
#X obj 1207 1191 r ctl.shift.loop;
#X obj 1315 1192 r ctl.shift.play;
#X obj 1429 1195 r ctl.shift.rec;
#X obj 1547 1191 r ctl.shift.stop;
#X obj 1618 1235 r ctl.shiftp;
#X obj 1184 1318 gate 1;
#X obj 1621 1271 tgl 25 0 empty empty empty 17 7 0 10 #191919 #e1e1e1 #e1e1e1 0 1;
#X obj 1075 1377 pipe 50;
#X obj 1310 1321 gate 1;
#X obj 1414 1317 gate 1;
#X obj 1537 1322 gate 1;
#X obj 1305 175 spigot 1;
#X obj 1378 173 spigot 1;
#X obj 1446 172 spigot 1;
#X obj 1517 171 spigot 1;
#X obj 1584 173 spigot 1;
#X obj 1097 172 spigot 1;
#X obj 1167 172 spigot 1;
#X obj 1234 174 spigot 1;
#X obj 2510 142 r ctl.enable.tap;
#X obj 1696 139 r ctl.enable.arp;
#X obj 1811 138 r ctl.enable.pad;
#X obj 1924 139 r ctl.enable.prog;
#X obj 2044 141 r ctl.enable.loop;
#X obj 2165 141 r ctl.enable.stop;
#X obj 2280 142 r ctl.enable.play;
#X obj 2397 142 r ctl.enable.rec;
#X obj 1678 337 s ctl.enable.arp;
#X obj 1793 336 s ctl.enable.pad;
#X obj 1906 337 s ctl.enable.prog;
#X obj 2026 339 s ctl.enable.loop;
#X obj 2147 339 s ctl.enable.stop;
#X obj 2262 340 s ctl.enable.play;
#X obj 2379 340 s ctl.enable.rec;
#X obj 2492 340 s ctl.enable.tap;
#X msg 1401 236 0;
#X msg 1611 237 0;
#X obj 1050 392 s ctl.arp_mod;
#X obj 1133 369 s ctl.pad_mod;
#X obj 1199 399 s ctl.prog_mod;
#X obj 1275 371 s ctl.loop_mod;
#X obj 1342 402 s ctl.stop_mod;
#X obj 1417 368 s ctl.play_mod;
#X obj 1481 400 s ctl.rec_mod;
#X obj 1550 371 s ctl.tap_mod;
#X obj 598 579 r ctl.loop_mod;
#X obj 710 583 r ctl.play_mod;
#X obj 829 584 r ctl.rec_mod;
#X obj 949 580 r ctl.tap_mod;
#X obj 1048 584 r ctl.stop_mod;
#X obj 595 878 r ctl.loop_mod;
#X obj 707 882 r ctl.play_mod;
#X obj 826 883 r ctl.rec_mod;
#X obj 944 879 r ctl.stop_mod;
#X obj 1045 883 r ctl.tap_mod;
#X obj 1399 271 i;
#X msg 1425 236 1;
#X obj 1398 209 sel 127 0;
#X obj 1608 210 sel 127 0;
#X msg 1638 237 1;
#X obj 1613 270 i;
#X obj 977 160 s ctl.any_pad;
#X connect 0 0 54 2;
#X connect 1 0 54 1;
#X connect 2 0 0 0;
#X connect 2 0 1 0;
#X connect 3 0 54 0;
#X connect 4 0 5 0;
#X connect 4 0 7 0;
#X connect 4 0 2 0;
#X connect 5 0 3 0;
#X connect 6 0 3 0;
#X connect 7 0 6 0;
#X connect 7 0 2 0;
#X connect 8 0 10 0;
#X connect 8 1 9 0;
#X connect 8 2 36 0;
#X connect 12 2 13 0;
#X connect 13 0 16 1;
#X connect 15 0 17 0;
#X connect 16 0 18 0;
#X connect 16 0 14 0;
#X connect 16 0 20 0;
#X connect 17 0 16 0;
#X connect 17 0 21 0;
#X connect 18 0 19 0;
#X connect 18 1 15 0;
#X connect 19 0 16 0;
#X connect 22 0 16 0;
#X connect 23 0 22 0;
#X connect 25 0 26 0;
#X connect 25 1 27 0;
#X connect 25 2 28 0;
#X connect 29 0 119 0;
#X connect 30 0 137 0;
#X connect 31 0 138 0;
#X connect 32 0 139 0;
#X connect 33 0 118 0;
#X connect 34 0 13 1;
#X connect 35 0 29 2;
#X connect 35 0 30 2;
#X connect 35 0 31 2;
#X connect 35 0 32 2;
#X connect 35 0 33 2;
#X connect 35 0 126 2;
#X connect 37 0 38 0;
#X connect 38 0 39 0;
#X connect 39 0 40 0;
#X connect 39 1 41 0;
#X connect 39 2 42 0;
#X connect 39 3 43 0;
#X connect 39 4 44 0;
#X connect 39 5 45 0;
#X connect 39 6 46 0;
#X connect 39 7 47 0;
#X connect 40 0 55 0;
#X connect 41 0 56 0;
#X connect 44 0 52 0;
#X connect 45 0 51 0;
#X connect 48 0 37 0;
#X connect 48 1 37 1;
#X connect 49 0 48 1;
#X connect 66 0 68 0;
#X connect 67 0 66 1;
#X connect 68 0 69 0;
#X connect 68 1 70 0;
#X connect 68 2 71 0;
#X connect 68 3 72 0;
#X connect 68 4 73 0;
#X connect 68 5 74 0;
#X connect 68 6 75 0;
#X connect 68 7 76 0;
#X connect 69 0 283 0;
#X connect 69 0 304 0;
#X connect 69 0 328 0;
#X connect 70 0 284 0;
#X connect 70 0 305 0;
#X connect 70 0 328 0;
#X connect 71 0 285 0;
#X connect 71 0 306 0;
#X connect 71 0 328 0;
#X connect 72 0 278 0;
#X connect 72 0 307 0;
#X connect 72 0 328 0;
#X connect 73 0 279 0;
#X connect 73 0 308 0;
#X connect 73 0 328 0;
#X connect 74 0 280 0;
#X connect 74 0 309 0;
#X connect 74 0 328 0;
#X connect 75 0 281 0;
#X connect 75 0 310 0;
#X connect 75 0 328 0;
#X connect 76 0 282 0;
#X connect 76 0 311 0;
#X connect 76 0 328 0;
#X connect 77 0 129 0;
#X connect 79 0 80 0;
#X connect 80 0 89 0;
#X connect 80 0 92 0;
#X connect 80 0 97 0;
#X connect 81 0 79 2;
#X connect 81 0 82 2;
#X connect 81 0 84 2;
#X connect 82 0 87 0;
#X connect 82 0 102 0;
#X connect 84 0 100 0;
#X connect 84 0 101 0;
#X connect 86 0 85 0;
#X connect 87 0 98 0;
#X connect 88 0 87 1;
#X connect 88 0 100 1;
#X connect 89 0 88 0;
#X connect 89 0 101 1;
#X connect 90 0 91 0;
#X connect 91 0 94 0;
#X connect 91 0 95 0;
#X connect 91 0 96 0;
#X connect 93 0 87 1;
#X connect 93 0 100 1;
#X connect 94 0 93 0;
#X connect 94 0 102 1;
#X connect 98 0 83 0;
#X connect 100 0 86 0;
#X connect 101 0 103 0;
#X connect 102 0 104 0;
#X connect 103 0 105 0;
#X connect 104 0 106 0;
#X connect 119 0 121 0;
#X connect 121 0 120 0;
#X connect 122 0 11 0;
#X connect 123 0 122 0;
#X connect 124 0 129 1;
#X connect 124 0 131 0;
#X connect 125 0 130 0;
#X connect 126 0 127 0;
#X connect 128 0 77 0;
#X connect 129 0 125 0;
#X connect 130 0 142 0;
#X connect 131 1 130 0;
#X connect 132 1 134 0;
#X connect 133 0 132 2;
#X connect 134 2 135 0;
#X connect 135 0 136 0;
#X connect 136 0 274 0;
#X connect 147 0 151 0;
#X connect 147 1 150 0;
#X connect 148 0 154 0;
#X connect 149 0 148 0;
#X connect 149 0 155 0;
#X connect 149 0 160 0;
#X connect 149 0 165 0;
#X connect 150 0 149 0;
#X connect 151 0 148 1;
#X connect 151 0 155 1;
#X connect 151 0 160 1;
#X connect 151 0 165 1;
#X connect 152 0 148 0;
#X connect 153 0 152 0;
#X connect 153 1 159 0;
#X connect 154 0 140 0;
#X connect 155 0 156 0;
#X connect 156 0 141 0;
#X connect 157 0 155 0;
#X connect 158 0 157 0;
#X connect 158 1 159 0;
#X connect 159 0 149 0;
#X connect 160 0 163 0;
#X connect 161 0 160 0;
#X connect 162 0 161 0;
#X connect 162 1 159 0;
#X connect 163 0 164 0;
#X connect 165 0 168 0;
#X connect 166 0 165 0;
#X connect 167 0 166 0;
#X connect 167 1 159 0;
#X connect 168 0 169 0;
#X connect 170 0 174 0;
#X connect 170 1 173 0;
#X connect 171 0 177 0;
#X connect 172 0 171 0;
#X connect 172 0 178 0;
#X connect 172 0 183 0;
#X connect 172 0 187 0;
#X connect 173 0 172 0;
#X connect 174 0 171 1;
#X connect 174 0 178 1;
#X connect 174 0 183 1;
#X connect 174 0 187 1;
#X connect 175 0 171 0;
#X connect 176 0 175 0;
#X connect 176 1 182 0;
#X connect 177 0 197 0;
#X connect 178 0 179 0;
#X connect 179 0 196 0;
#X connect 180 0 178 0;
#X connect 181 0 180 0;
#X connect 181 1 182 0;
#X connect 182 0 172 0;
#X connect 183 0 186 0;
#X connect 184 0 183 0;
#X connect 185 0 184 0;
#X connect 185 1 182 0;
#X connect 186 0 198 0;
#X connect 187 0 190 0;
#X connect 188 0 187 0;
#X connect 189 0 188 0;
#X connect 189 1 182 0;
#X connect 190 0 199 0;
#X connect 191 0 181 0;
#X connect 192 0 176 0;
#X connect 193 0 185 0;
#X connect 194 0 189 0;
#X connect 195 0 170 0;
#X connect 200 0 204 0;
#X connect 200 1 203 0;
#X connect 201 0 207 0;
#X connect 202 0 201 0;
#X connect 202 0 208 0;
#X connect 202 0 213 0;
#X connect 202 0 217 0;
#X connect 203 0 202 0;
#X connect 204 0 201 1;
#X connect 204 0 208 1;
#X connect 204 0 213 1;
#X connect 204 0 217 1;
#X connect 205 0 201 0;
#X connect 206 0 205 0;
#X connect 206 1 212 0;
#X connect 207 0 246 0;
#X connect 208 0 209 0;
#X connect 209 0 245 0;
#X connect 210 0 208 0;
#X connect 211 0 210 0;
#X connect 211 1 212 0;
#X connect 212 0 202 0;
#X connect 213 0 216 0;
#X connect 214 0 213 0;
#X connect 215 0 214 0;
#X connect 215 1 212 0;
#X connect 216 0 247 0;
#X connect 217 0 220 0;
#X connect 218 0 217 0;
#X connect 219 0 218 0;
#X connect 219 1 212 0;
#X connect 220 0 248 0;
#X connect 221 0 225 0;
#X connect 221 1 224 0;
#X connect 222 0 228 0;
#X connect 223 0 222 0;
#X connect 223 0 229 0;
#X connect 223 0 234 0;
#X connect 223 0 238 0;
#X connect 224 0 223 0;
#X connect 225 0 222 1;
#X connect 225 0 229 1;
#X connect 225 0 234 1;
#X connect 225 0 238 1;
#X connect 226 0 222 0;
#X connect 227 0 226 0;
#X connect 227 1 233 0;
#X connect 228 0 253 0;
#X connect 229 0 230 0;
#X connect 230 0 254 0;
#X connect 231 0 229 0;
#X connect 232 0 231 0;
#X connect 232 1 233 0;
#X connect 233 0 223 0;
#X connect 234 0 237 0;
#X connect 235 0 234 0;
#X connect 236 0 235 0;
#X connect 236 1 233 0;
#X connect 237 0 252 0;
#X connect 238 0 241 0;
#X connect 239 0 238 0;
#X connect 240 0 239 0;
#X connect 240 1 233 0;
#X connect 241 0 251 0;
#X connect 242 0 232 0;
#X connect 243 0 227 0;
#X connect 244 0 236 0;
#X connect 249 0 240 0;
#X connect 250 0 221 0;
#X connect 255 0 275 1;
#X connect 256 0 255 0;
#X connect 257 0 145 0;
#X connect 258 0 143 0;
#X connect 259 0 272 1;
#X connect 260 0 259 0;
#X connect 261 0 276 1;
#X connect 262 0 261 0;
#X connect 263 0 146 0;
#X connect 264 0 277 1;
#X connect 265 0 264 0;
#X connect 266 0 144 0;
#X connect 267 0 260 0;
#X connect 268 0 256 0;
#X connect 269 0 262 0;
#X connect 270 0 265 0;
#X connect 271 0 273 0;
#X connect 272 0 258 0;
#X connect 273 0 272 0;
#X connect 273 0 275 0;
#X connect 273 0 277 0;
#X connect 273 0 276 0;
#X connect 274 0 130 0;
#X connect 275 0 257 0;
#X connect 276 0 263 0;
#X connect 277 0 266 0;
#X connect 278 0 59 0;
#X connect 279 0 65 0;
#X connect 279 0 324 0;
#X connect 280 0 64 0;
#X connect 281 0 58 0;
#X connect 282 0 60 0;
#X connect 282 0 325 0;
#X connect 283 0 63 0;
#X connect 284 0 62 0;
#X connect 285 0 61 0;
#X connect 286 0 282 1;
#X connect 287 0 283 1;
#X connect 288 0 284 1;
#X connect 289 0 285 1;
#X connect 290 0 278 1;
#X connect 291 0 279 1;
#X connect 292 0 280 1;
#X connect 293 0 281 1;
#X connect 302 0 322 0;
#X connect 303 0 327 0;
#X connect 312 0 158 0;
#X connect 313 0 153 0;
#X connect 314 0 162 0;
#X connect 315 0 167 0;
#X connect 316 0 147 0;
#X connect 317 0 211 0;
#X connect 318 0 206 0;
#X connect 319 0 215 0;
#X connect 320 0 219 0;
#X connect 321 0 200 0;
#X connect 322 0 301 0;
#X connect 322 0 294 0;
#X connect 322 0 295 0;
#X connect 322 0 296 0;
#X connect 322 0 297 0;
#X connect 322 0 299 0;
#X connect 322 0 300 0;
#X connect 323 0 322 0;
#X connect 324 0 302 0;
#X connect 324 1 323 0;
#X connect 325 0 303 0;
#X connect 325 1 326 0;
#X connect 326 0 327 0;
#X connect 327 0 300 0;
#X connect 327 0 294 0;
#X connect 327 0 295 0;
#X connect 327 0 296 0;
#X connect 327 0 297 0;
#X connect 327 0 298 0;
#X connect 327 0 299 0;
