#N canvas 1440 928 1920 976 12;
#X obj 777 180 loadmess red;
#X obj 765 156 loadmess 0;
#X obj 792 121 bng 20 250 50 0 empty empty empty 0 -10 0 12 #fcfcfc #000000 #000000;
#X obj 734 154 tgl 20 0 empty empty empty 0 -10 0 12 #fcfcfc #000000 #000000 0 1;
#X obj 730 53 r t.4n;
#X msg 704 113 1;
#X msg 743 122 0;
#X obj 741 83 del 50;
#X obj 430 37 ctlin, f 9;
#X floatatom 462 89 5 0 0 0 - - - 0;
#X floatatom 430 89 5 0 0 0 - - - 0;
#X obj 828 354 s ctl.update_text;
#X obj 971 91 ctlin;
#X obj 968 123 sel 33;
#X obj 900 244 s ctl.update_text;
#X obj 1058 198 del 20000;
#X obj 965 173 gate 1;
#X msg 1050 235 1;
#X obj 1033 164 t;
#X msg 1021 196 0;
#X obj 964 209 bng 20 250 50 0 empty empty empty 0 -10 0 12 #fcfcfc #000000 #000000;
#X obj 1046 273 bng 20 250 50 0 empty empty empty 0 -10 0 12 #fcfcfc #000000 #000000;
#X obj 1038 115 loadmess 1;
#X obj 1043 85 bng 20 250 50 0 empty empty empty 0 -10 0 12 #fcfcfc #000000 #000000;
#X text 931 52 refresh ml3 text display;
#X obj 567 45 notein;
#X floatatom 557 92 5 0 0 0 - - - 0;
#X floatatom 590 92 5 0 0 0 - - - 0;
#X floatatom 624 95 5 0 0 0 - - - 0;
#X obj 1220 449 ctl.in 27 33;
#X obj 1112 447 ctl.in 108 33;
#X obj 1006 448 ctl.in 105 33;
#X obj 893 452 ctl.in 106 33;
#X obj 781 453 ctl.in 107 33;
#X obj 990 36 r midich_ml3;
#X obj 833 399 r midich_ml3;
#X obj 494 91 nbx 4 18 -1e+37 1e+37 0 0 empty empty empty 0 -8 0 10 #191919 #e1e1e1 #e1e1e1 0 256;
#X obj 318 339 s ctl.yes;
#X obj 226 31 em.ctl.notes;
#X obj 734 206 ml3/clr 1;
#X obj 399 339 s scmgr.SeekScreenPrevious;
#X obj 478 313 s scmgr.SeekScreenNext;
#X obj 1671 342 s ctl.rec;
#X obj 1461 345 s ctl.loop;
#X obj 1736 341 s ctl.tap;
#X obj 1387 345 s ctl.prog;
#X obj 1319 343 s ctl.pad;
#X obj 1250 342 s ctl.arp;
#X obj 1603 342 s ctl.play;
#X obj 1532 342 s ctl.stop;
#X obj 1265 68 note.in 26;
#X obj 1318 31 r midich_ml3_pads;
#X obj 1263 98 route 36 37 38 39 40 41 42 43, f 82;
#X obj 1264 126 velex;
#X obj 1333 130 velex;
#X obj 1400 131 velex;
#X obj 1469 135 velex;
#X obj 1543 130 velex;
#X obj 1612 134 velex;
#X obj 1684 130 velex;
#X obj 1753 134 velex;
#X obj 994 1267 > 0;
#X text 1082 1192 shift+tap;
#X obj 214 553 ctl.in 119 33;
#X floatatom 214 579 5 0 0 0 - - - 12;
#X obj 326 517 r midich_ml3;
#X obj 322 633 ctl.in 28 33;
#X obj 331 752 s ctl.enc;
#X obj 409 632 ctl.in 29 33;
#X obj 410 747 s ctl.shift.enc;
#X floatatom 415 722 5 0 0 0 - - - 12;
#X obj 328 683 spigot 1;
#X obj 214 643 == 0;
#X obj 217 612 > 0;
#X obj 122 553 ctl.in 118 33;
#X floatatom 123 579 5 0 0 0 - - - 12;
#X obj 192 685 s ctl.shift.enc_click;
#X obj 121 644 == 0;
#X obj 124 613 > 0;
#X obj 70 689 s ctl.enc_click;
#X obj 88 601 tgl 25 0 empty empty empty 17 7 0 10 #191919 #e1e1e1 #e1e1e1 0 1;
#X obj 185 604 tgl 25 0 empty empty empty 17 7 0 10 #191919 #e1e1e1 #e1e1e1 0 1;
#X floatatom 330 720 5 0 0 0 - - - 12;
#X text 214 504 encoder;
#X obj 414 684 spigot 1;
#X obj 247 748 spigot 0;
#X obj 146 747 spigot 0;
#X floatatom 249 787 5 0 0 0 - - - 12;
#X floatatom 149 785 5 0 0 0 - - - 12;
#X obj 249 818 s ctl.shift.click.enc;
#X obj 150 817 s ctl.click.enc;
#X obj 195 964 r ctl.enc_click;
#X obj 295 965 r ctl.shift.enc_click;
#X obj 193 933 r ctl.click.enc;
#X obj 291 933 r ctl.shift.click.enc;
#X obj 194 904 r ctl.enc;
#X obj 289 903 r ctl.shift.enc;
#X text 121 923 with click;
#X text 129 893 no click;
#X text 196 866 no shift;
#X text 290 864 with shift;
#X text 126 954 the click;
#X obj 787 494 s ctl.shift.play;
#X obj 1221 481 > 0;
#X obj 1221 547 s ctl.shift;
#X obj 1221 512 tgl 25 0 empty empty empty 17 7 0 10 #191919 #e1e1e1 #e1e1e1 0 1;
#X obj 827 318 sel 1;
#X obj 826 288 r ctl.shift;
#X obj 1095 1233 r ctl.shift;
#X obj 994 1339 == 2;
#X obj 1315 446 ctl.in 109 33;
#X obj 1315 487 s ctl.shift.tap;
#X obj 991 1237 r ctl.shift.tap;
#X obj 995 1304 +, f 17;
#X obj 998 1372 tgl 25 0 empty empty empty 17 7 0 10 #191919 #e1e1e1 #e1e1e1 0 1;
#X obj 1135 1303 sel 1;
#X obj 1184 1253 ctl.in;
#X obj 1212 1216 r midich_ml3;
#X obj 1199 1285 sel 109 27;
#X obj 1243 1317 bng 25 250 50 0 empty empty empty 17 7 0 10 #191919 #e1e1e1 #e1e1e1;
#X msg 1244 1351 0;
#X obj 1116 487 s ctl.shift.rec;
#X obj 1009 484 s ctl.shift.loop;
#X obj 893 493 s ctl.shift.stop;
#X obj 1032 824 s ctl.stop.play;
#X obj 927 825 s ctl.stop.loop;
#X obj 999 1436 s ctl.shiftp;
#X obj 1357 1393 s ctl.shiftp.loop;
#X obj 1711 1393 s ctl.shiftp.stop;
#X obj 1472 1396 s ctl.shiftp.play;
#X obj 1597 1398 s ctl.shiftp.rec;
#X obj 1377 618 sel 127, f 8;
#X obj 1033 755 onebang;
#X msg 1425 713 stop;
#X obj 1423 662 bng 25 250 50 0 empty empty empty 17 7 0 10 #191919 #e1e1e1 #e1e1e1;
#X obj 1382 705 bng 25 250 50 0 empty empty empty 17 7 0 10 #191919 #e1e1e1 #e1e1e1;
#X obj 1033 656 bng 25 250 50 0 empty empty empty 17 7 0 10 #191919 #e1e1e1 #e1e1e1;
#X obj 1034 621 sel 127;
#X obj 1033 787 bng 25 250 50 0 empty empty empty 17 7 0 10 #191919 #e1e1e1 #e1e1e1;
#X obj 926 750 onebang;
#X obj 926 782 bng 25 250 50 0 empty empty empty 17 7 0 10 #191919 #e1e1e1 #e1e1e1;
#X obj 921 652 bng 25 250 50 0 empty empty empty 17 7 0 10 #191919 #e1e1e1 #e1e1e1;
#X obj 922 617 sel 127;
#X obj 1329 653 bng 25 250 50 0 empty empty empty 17 7 0 10 #191919 #e1e1e1 #e1e1e1;
#X obj 1152 756 onebang;
#X obj 1152 657 bng 25 250 50 0 empty empty empty 17 7 0 10 #191919 #e1e1e1 #e1e1e1;
#X obj 1153 622 sel 127;
#X obj 1152 788 bng 25 250 50 0 empty empty empty 17 7 0 10 #191919 #e1e1e1 #e1e1e1;
#X obj 1151 825 s ctl.stop.rec;
#X obj 1272 752 onebang;
#X obj 1272 653 bng 25 250 50 0 empty empty empty 17 7 0 10 #191919 #e1e1e1 #e1e1e1;
#X obj 1273 618 sel 127;
#X obj 1272 784 bng 25 250 50 0 empty empty empty 17 7 0 10 #191919 #e1e1e1 #e1e1e1;
#X obj 1271 821 s ctl.stop.tap;
#X obj 2023 618 sel 127, f 8;
#X obj 1644 754 onebang;
#X msg 2071 713 stop;
#X obj 2069 662 bng 25 250 50 0 empty empty empty 17 7 0 10 #191919 #e1e1e1 #e1e1e1;
#X obj 2028 705 bng 25 250 50 0 empty empty empty 17 7 0 10 #191919 #e1e1e1 #e1e1e1;
#X obj 1644 655 bng 25 250 50 0 empty empty empty 17 7 0 10 #191919 #e1e1e1 #e1e1e1;
#X obj 1645 620 sel 127;
#X obj 1644 786 bng 25 250 50 0 empty empty empty 17 7 0 10 #191919 #e1e1e1 #e1e1e1;
#X obj 1505 753 onebang;
#X obj 1505 785 bng 25 250 50 0 empty empty empty 17 7 0 10 #191919 #e1e1e1 #e1e1e1;
#X obj 1500 655 bng 25 250 50 0 empty empty empty 17 7 0 10 #191919 #e1e1e1 #e1e1e1;
#X obj 1501 620 sel 127;
#X obj 1975 653 bng 25 250 50 0 empty empty empty 17 7 0 10 #191919 #e1e1e1 #e1e1e1;
#X obj 1786 756 onebang;
#X obj 1786 657 bng 25 250 50 0 empty empty empty 17 7 0 10 #191919 #e1e1e1 #e1e1e1;
#X obj 1787 622 sel 127;
#X obj 1786 788 bng 25 250 50 0 empty empty empty 17 7 0 10 #191919 #e1e1e1 #e1e1e1;
#X obj 1918 752 onebang;
#X obj 1918 653 bng 25 250 50 0 empty empty empty 17 7 0 10 #191919 #e1e1e1 #e1e1e1;
#X obj 1919 618 sel 127;
#X obj 1918 784 bng 25 250 50 0 empty empty empty 17 7 0 10 #191919 #e1e1e1 #e1e1e1;
#X obj 1503 585 r ctl.shift.loop;
#X obj 1647 585 r ctl.shift.play;
#X obj 1789 587 r ctl.shift.rec;
#X obj 1921 583 r ctl.shift.tap;
#X obj 2020 587 r ctl.shift.stop;
#X obj 1506 828 s ctl.shift.stop.loop;
#X obj 1643 828 s ctl.shift.stop.play;
#X obj 1785 830 s ctl.shift.stop.rec;
#X obj 1917 831 s ctl.shift.stop.tap;
#X obj 1215 915 sel 127, f 8;
#X obj 871 1052 onebang;
#X msg 1263 1010 stop;
#X obj 1261 959 bng 25 250 50 0 empty empty empty 17 7 0 10 #191919 #e1e1e1 #e1e1e1;
#X obj 1220 1002 bng 25 250 50 0 empty empty empty 17 7 0 10 #191919 #e1e1e1 #e1e1e1;
#X obj 871 953 bng 25 250 50 0 empty empty empty 17 7 0 10 #191919 #e1e1e1 #e1e1e1;
#X obj 872 918 sel 127;
#X obj 871 1084 bng 25 250 50 0 empty empty empty 17 7 0 10 #191919 #e1e1e1 #e1e1e1;
#X obj 764 1047 onebang;
#X obj 764 1079 bng 25 250 50 0 empty empty empty 17 7 0 10 #191919 #e1e1e1 #e1e1e1;
#X obj 759 949 bng 25 250 50 0 empty empty empty 17 7 0 10 #191919 #e1e1e1 #e1e1e1;
#X obj 760 914 sel 127;
#X obj 1167 950 bng 25 250 50 0 empty empty empty 17 7 0 10 #191919 #e1e1e1 #e1e1e1;
#X obj 990 1053 onebang;
#X obj 990 954 bng 25 250 50 0 empty empty empty 17 7 0 10 #191919 #e1e1e1 #e1e1e1;
#X obj 991 919 sel 127;
#X obj 990 1085 bng 25 250 50 0 empty empty empty 17 7 0 10 #191919 #e1e1e1 #e1e1e1;
#X obj 1110 1049 onebang;
#X obj 1110 950 bng 25 250 50 0 empty empty empty 17 7 0 10 #191919 #e1e1e1 #e1e1e1;
#X obj 1111 915 sel 127;
#X obj 1110 1081 bng 25 250 50 0 empty empty empty 17 7 0 10 #191919 #e1e1e1 #e1e1e1;
#X obj 1866 915 sel 127, f 8;
#X obj 1487 1051 onebang;
#X msg 1914 1010 stop;
#X obj 1912 959 bng 25 250 50 0 empty empty empty 17 7 0 10 #191919 #e1e1e1 #e1e1e1;
#X obj 1871 1002 bng 25 250 50 0 empty empty empty 17 7 0 10 #191919 #e1e1e1 #e1e1e1;
#X obj 1487 952 bng 25 250 50 0 empty empty empty 17 7 0 10 #191919 #e1e1e1 #e1e1e1;
#X obj 1488 917 sel 127;
#X obj 1487 1083 bng 25 250 50 0 empty empty empty 17 7 0 10 #191919 #e1e1e1 #e1e1e1;
#X obj 1348 1050 onebang;
#X obj 1348 1082 bng 25 250 50 0 empty empty empty 17 7 0 10 #191919 #e1e1e1 #e1e1e1;
#X obj 1343 952 bng 25 250 50 0 empty empty empty 17 7 0 10 #191919 #e1e1e1 #e1e1e1;
#X obj 1344 917 sel 127;
#X obj 1818 950 bng 25 250 50 0 empty empty empty 17 7 0 10 #191919 #e1e1e1 #e1e1e1;
#X obj 1629 1053 onebang;
#X obj 1629 954 bng 25 250 50 0 empty empty empty 17 7 0 10 #191919 #e1e1e1 #e1e1e1;
#X obj 1630 919 sel 127;
#X obj 1629 1085 bng 25 250 50 0 empty empty empty 17 7 0 10 #191919 #e1e1e1 #e1e1e1;
#X obj 1761 1049 onebang;
#X obj 1761 950 bng 25 250 50 0 empty empty empty 17 7 0 10 #191919 #e1e1e1 #e1e1e1;
#X obj 1762 915 sel 127;
#X obj 1761 1081 bng 25 250 50 0 empty empty empty 17 7 0 10 #191919 #e1e1e1 #e1e1e1;
#X obj 1346 882 r ctl.shift.loop;
#X obj 1490 882 r ctl.shift.play;
#X obj 1632 884 r ctl.shift.rec;
#X obj 765 1122 s ctl.tap.loop;
#X obj 870 1121 s ctl.tap.play;
#X obj 989 1122 s ctl.tap.rec;
#X obj 1109 1118 s ctl.tap.stop;
#X obj 1764 880 r ctl.shift.stop;
#X obj 1863 884 r ctl.shift.tap;
#X obj 1760 1128 s ctl.shift.tap.stop;
#X obj 1628 1127 s ctl.shift.tap.rec;
#X obj 1486 1125 s ctl.shift.tap.play;
#X obj 1349 1125 s ctl.shift.tap.loop;
#X obj 1479 1263 bng 25 250 50 0 empty empty empty 17 7 0 10 #191919 #e1e1e1 #e1e1e1;
#X obj 1480 1228 sel 127;
#X obj 1478 1358 bng 25 250 50 0 empty empty empty 17 7 0 10 #191919 #e1e1e1 #e1e1e1;
#X obj 1354 1357 bng 25 250 50 0 empty empty empty 17 7 0 10 #191919 #e1e1e1 #e1e1e1;
#X obj 1371 1262 bng 25 250 50 0 empty empty empty 17 7 0 10 #191919 #e1e1e1 #e1e1e1;
#X obj 1372 1227 sel 127;
#X obj 1593 1266 bng 25 250 50 0 empty empty empty 17 7 0 10 #191919 #e1e1e1 #e1e1e1;
#X obj 1594 1231 sel 127;
#X obj 1592 1361 bng 25 250 50 0 empty empty empty 17 7 0 10 #191919 #e1e1e1 #e1e1e1;
#X obj 1711 1262 bng 25 250 50 0 empty empty empty 17 7 0 10 #191919 #e1e1e1 #e1e1e1;
#X obj 1712 1227 sel 127;
#X obj 1710 1357 bng 25 250 50 0 empty empty empty 17 7 0 10 #191919 #e1e1e1 #e1e1e1;
#X obj 1374 1192 r ctl.shift.loop;
#X obj 1482 1193 r ctl.shift.play;
#X obj 1596 1196 r ctl.shift.rec;
#X obj 1714 1192 r ctl.shift.stop;
#X obj 1785 1236 r ctl.shiftp;
#X obj 1351 1319 gate 1;
#X obj 1788 1272 tgl 25 0 empty empty empty 17 7 0 10 #191919 #e1e1e1 #e1e1e1 0 1;
#X obj 1242 1378 pipe 50;
#X obj 1477 1322 gate 1;
#X obj 1581 1318 gate 1;
#X obj 1704 1323 gate 1;
#X obj 1472 176 spigot 1;
#X obj 1545 174 spigot 1;
#X obj 1613 173 spigot 1;
#X obj 1684 172 spigot 1;
#X obj 1751 174 spigot 1;
#X obj 1264 173 spigot 1;
#X obj 1334 173 spigot 1;
#X obj 1401 175 spigot 1;
#X obj 2677 143 r ctl.enable.tap;
#X obj 1863 140 r ctl.enable.arp;
#X obj 1978 139 r ctl.enable.pad;
#X obj 2091 140 r ctl.enable.prog;
#X obj 2211 142 r ctl.enable.loop;
#X obj 2332 142 r ctl.enable.stop;
#X obj 2447 143 r ctl.enable.play;
#X obj 2564 143 r ctl.enable.rec;
#X obj 1845 338 s ctl.enable.arp;
#X obj 1960 337 s ctl.enable.pad;
#X obj 2073 338 s ctl.enable.prog;
#X obj 2193 340 s ctl.enable.loop;
#X obj 2314 340 s ctl.enable.stop;
#X obj 2429 341 s ctl.enable.play;
#X obj 2546 341 s ctl.enable.rec;
#X obj 2659 341 s ctl.enable.tap;
#X msg 1568 237 0;
#X msg 1778 238 0;
#X obj 1217 393 s ctl.arp_mod;
#X obj 1300 370 s ctl.pad_mod;
#X obj 1366 400 s ctl.prog_mod;
#X obj 1442 372 s ctl.loop_mod;
#X obj 1509 403 s ctl.stop_mod;
#X obj 1584 369 s ctl.play_mod;
#X obj 1648 401 s ctl.rec_mod;
#X obj 1717 372 s ctl.tap_mod;
#X obj 924 582 r ctl.loop_mod;
#X obj 1036 586 r ctl.play_mod;
#X obj 1155 587 r ctl.rec_mod;
#X obj 1275 583 r ctl.tap_mod;
#X obj 1374 587 r ctl.stop_mod;
#X obj 762 879 r ctl.loop_mod;
#X obj 874 883 r ctl.play_mod;
#X obj 993 884 r ctl.rec_mod;
#X obj 1111 880 r ctl.stop_mod;
#X obj 1212 884 r ctl.tap_mod;
#X obj 1566 272 i;
#X msg 1592 237 1;
#X obj 1565 210 sel 127 0;
#X obj 1775 211 sel 127 0;
#X msg 1805 238 1;
#X obj 1780 271 i;
#X obj 1144 161 s ctl.any_pad;
#X obj 2166 479 ctl.in 86 33;
#X obj 2251 479 ctl.in 87 33;
#X obj 2892 490 ctl.in 14 33;
#X obj 2975 489 ctl.in 15 33;
#X obj 2343 480 ctl.in 89 33;
#X obj 2431 481 ctl.in 90 33;
#X obj 3060 482 ctl.in 30 33;
#X obj 3151 480 ctl.in 31 33;
#X obj 2215 438 r midich_ml3;
#X obj 2164 674 s ctl.k1;
#X floatatom 2166 587 5 0 0 0 - - - 12;
#X floatatom 2251 587 5 0 0 0 - - - 12;
#X floatatom 2892 583 5 0 0 0 - - - 12;
#X floatatom 2982 583 5 0 0 0 - - - 12;
#X floatatom 2347 583 5 0 0 0 - - - 12;
#X floatatom 2435 583 5 0 0 0 - - - 12;
#X floatatom 3060 583 5 0 0 0 - - - 12;
#X floatatom 3151 583 5 0 0 0 - - - 12;
#X obj 2251 675 s ctl.k2;
#X obj 2892 685 s ctl.s1;
#X obj 2979 686 s ctl.s2;
#X obj 3061 684 s ctl.s3;
#X obj 3148 685 s ctl.s4;
#X obj 2346 682 s ctl.k3;
#X obj 2433 683 s ctl.k4;
#X floatatom 2534 583 5 0 0 0 - - - 12;
#X floatatom 2619 583 5 0 0 0 - - - 12;
#X floatatom 2711 583 5 0 0 0 - - - 12;
#X floatatom 2799 583 5 0 0 0 - - - 12;
#X obj 2532 681 s ctl.k5;
#X obj 2619 682 s ctl.k6;
#X obj 2714 689 s ctl.k7;
#X obj 2803 684 s ctl.k8;
#X obj 2534 486 ctl.in 110 33;
#X obj 2619 486 ctl.in 111 33;
#X obj 2711 487 ctl.in 116 33;
#X obj 2799 488 ctl.in 117 33;
#X obj 2235 714 s ctl.shift.k1;
#X obj 2319 715 s ctl.shift.k2;
#X obj 2414 722 s ctl.shift.k3;
#X obj 2501 723 s ctl.shift.k4;
#X obj 2600 721 s ctl.shift.k5;
#X obj 2687 722 s ctl.shift.k6;
#X obj 2782 729 s ctl.shift.k7;
#X obj 2871 724 s ctl.shift.k8;
#X obj 2960 725 s ctl.shift.s1;
#X obj 3047 726 s ctl.shift.s2;
#X obj 3129 724 s ctl.shift.s3;
#X obj 3216 725 s ctl.shift.s4;
#X obj 2166 618 router 2;
#X obj 2252 618 router 2;
#X obj 2347 619 router 2;
#X obj 2435 620 router 2;
#X obj 2534 621 router 2;
#X obj 2623 621 router 2;
#X obj 2717 622 router 2;
#X obj 2803 623 router 2;
#X obj 2895 623 router 2;
#X obj 2982 622 router 2;
#X obj 3061 622 router 2;
#X obj 3149 622 router 2;
#X obj 3236 593 r ctl.shift;
#X obj 999 1406 change;
#X floatatom 440 530 5 0 0 0 - - - 12;
#X obj 479 553 r pdctl.shift.enc;
#X floatatom 479 577 5 0 0 0 - - - 12;
#X obj 440 505 r pdctl.noshift.enc;
#X obj 2199 516 r pdctl.k1;
#X obj 2288 516 r pdctl.k2;
#X obj 2383 516 r pdctl.k3;
#X obj 2468 516 r pdctl.k4;
#X obj 2559 516 r pdctl.k5;
#X obj 2651 516 r pdctl.k6;
#X obj 2746 516 r pdctl.k7;
#X obj 2836 516 r pdctl.k8;
#X obj 2928 516 r pdctl.s1;
#X obj 3015 516 r pdctl.s2;
#X obj 3092 516 r pdctl.s3;
#X obj 3179 516 r pdctl.s4;
#X obj 1264 512 r pdctl.shift;
#X obj 811 750 onebang;
#X obj 811 782 bng 25 250 50 0 empty empty empty 17 7 0 10 #191919 #e1e1e1 #e1e1e1;
#X obj 806 652 bng 25 250 50 0 empty empty empty 17 7 0 10 #191919 #e1e1e1 #e1e1e1;
#X obj 807 617 sel 127;
#X obj 809 582 r ctl.prog_mod;
#X obj 812 825 s ctl.stop.prog;
#X obj 1565 68 r pdctl.stop;
#X obj 1654 69 r pdctl.play;
#X obj 1816 70 r pdctl.tap;
#X obj 1491 68 r pdctl.loop;
#X obj 1413 68 r pdctl.prog;
#X obj 1347 68 r pdctl.pad;
#X obj 1454 36 r pdctl.arp;
#X obj 1436 501 s ctl.mod;
#X obj 1436 470 ctl.in 1 0;
#X obj 1503 470 r pdctl.mod;
#X obj 1632 449 bend.in -raw;
#X obj 1632 492 scale 0 16383 -8192 8191;
#X obj 1737 449 r pdctl.bend;
#X obj 1632 531 s ctl.bend;
#X obj 318 196 r ctl.play;
#X obj 318 228 sel 127;
#X obj 246 235 sel 127;
#X obj 246 196 r ctl.stop;
#X obj 246 339 s ctl.no;
#X obj 399 196 r ctl.arp;
#X obj 475 196 r ctl.pad;
#X obj 1736 69 r pdctl.record;
#X obj 1369 853 s pdctl.disable_pad_mods;
#X obj 2052 965 r pdctl.disable_pad_mods;
#X obj 2052 1083 s pdctl.arp_;
#X obj 2132 1083 s pdctl.pad_;
#X obj 2216 1083 s pdctl.prog_;
#X obj 2311 1083 s pdctl.loop_;
#X obj 2052 1111 s pdctl.stop_;
#X obj 2141 1112 s pdctl.play_;
#X obj 2223 1112 s pdctl.record_;
#X obj 2322 1112 s pdctl.tap_;
#X obj 2052 1004 del 50;
#X msg 2052 1040 0;
#X obj 159 1164 s pdctl.shift.enc;
#X obj 126 1125 s pdctl.noshift.enc;
#X obj 126 1047 r pdctl.enc;
#X obj 126 1095 router 2;
#X obj 212 1047 r ctl.shift;
#X text 333 163 global ctl mappings;
#X msg 414 257 1;
#X obj 399 228 sel 127;
#X obj 475 228 sel 127;
#X msg 493 257 1;
#X obj 623 354 loadmess bang;
#X msg 567 394 cyan;
#X msg 623 394 5;
#X msg 496 394 4;
#X obj 516 273 tgl 25 0 empty empty empty 17 7 0 10 #211d14 #e1bf96 #e1ce9c 0 1;
#X obj 424 288 tgl 25 0 empty empty empty 17 7 0 10 #211d14 #e1bf96 #e1ce9c 0 1;
#X obj 653 320 bng 25 250 50 0 empty empty empty 17 7 0 10 #211d14 #e1bf96 #e1ce9c;
#X msg 276 273 1;
#X obj 296 297 tgl 25 0 empty empty empty 17 7 0 10 #211d14 #e1bf96 #e1ce9c 0 1;
#X msg 349 273 1;
#X obj 369 297 tgl 25 0 empty empty empty 17 7 0 10 #211d14 #e1bf96 #e1ce9c 0 1;
#X obj 268 372 s ctl.no.bool;
#X obj 361 372 s ctl.yes.bool;
#X msg 163 370 cyan;
#X msg -2 367 8;
#X msg 118 367 9;
#X obj 39 320 loadmess bang;
#X obj 39 289 bng 25 250 50 0 empty empty empty 17 7 0 10 #211d14 #e1bf96 #e1ce9c;
#X obj -53 273 spigot 0;
#X obj -19 199 r seg_manager.focus;
#X obj -19 242 == 0;
#X obj 75 268 spigot 0;
#X obj -53 164 r ctl.no.bool;
#X obj 75 164 r ctl.yes.bool;
#X obj -214 289 r ctl.tap;
#X obj -214 324 sel 127;
#X msg -211 350 1;
#X obj -188 366 tgl 25 0 empty empty empty 17 7 0 10 #211d14 #e1bf96 #e1ce9c 0 1;
#X msg -148 367 11;
#X obj -185 410 ml3/clr 0, f 17;
#X obj -53 410 ml3/clr 0, f 17;
#X obj 82 410 ml3/clr 0, f 17;
#X obj 455 429 ml3/clr 0, f 17;
#X obj 590 429 ml3/clr 0, f 17;
#X obj 2455 953 ml3/clr 0, f 17;
#X obj 2528 869 loadmess bang;
#X msg 2528 904 purple;
#X obj 2459 810 bng 25 250 50 0 empty empty empty 17 7 0 10 #211d14 #e1bf96 #e1ce9c;
#X obj 2639 869 r ctl.shift;
#X obj 2639 895 sel 0 1;
#X msg 2639 938 red;
#X obj 2528 839 bng 25 250 50 0 empty empty empty 17 7 0 10 #211d14 #e1bf96 #e1ce9c;
#X msg 2408 869 1;
#X obj 2371 915 t;
#X msg 2382 946 stop;
#X msg 2369 1006 0;
#X obj 2360 774 r ctl.bend;
#X obj 2287 774 r ctl.mod;
#X obj 2367 974 del 50;
#X msg 2493 904 2;
#X obj 544 1048 onebang;
#X obj 544 949 bng 25 250 50 0 empty empty empty 17 7 0 10 #191919 #e1e1e1 #e1e1e1;
#X obj 545 914 sel 127;
#X obj 544 1080 bng 25 250 50 0 empty empty empty 17 7 0 10 #191919 #e1e1e1 #e1e1e1;
#X obj 437 1043 onebang;
#X obj 437 1075 bng 25 250 50 0 empty empty empty 17 7 0 10 #191919 #e1e1e1 #e1e1e1;
#X obj 432 945 bng 25 250 50 0 empty empty empty 17 7 0 10 #191919 #e1e1e1 #e1e1e1;
#X obj 433 910 sel 127;
#X obj 438 1118 s ctl.tap.arp;
#X obj 543 1117 s ctl.tap.pad;
#X obj 435 875 r ctl.arp_mod;
#X obj 547 879 r ctl.pad_mod;
#X obj 498 155 r ctl.tap.arp;
#X obj 582 155 r ctl.tap.pad;
#X obj 653 1048 onebang;
#X obj 653 949 bng 25 250 50 0 empty empty empty 17 7 0 10 #191919 #e1e1e1 #e1e1e1;
#X obj 654 914 sel 127;
#X obj 653 1080 bng 25 250 50 0 empty empty empty 17 7 0 10 #191919 #e1e1e1 #e1e1e1;
#X obj 656 879 r ctl.prog_mod;
#X obj 652 1117 s ctl.tap.prog;
#X obj 594 206 t;
#X obj 582 235 del 50;
#X msg 640 244 1;
#X msg 584 259 0;
#X obj 615 272 tgl 25 0 empty empty empty 17 7 0 10 #211d14 #e1bf96 #e1ce9c 0 1;
#X obj 668 272 s scmgr.userselect;
#X obj 2557 784 r ctl.click.enc;
#X obj 2659 784 r ctl.enc;
#X obj 2735 790 r ctl.shift.click.enc;
#X obj 2871 790 r ctl.shift.enc;
#X obj 2735 839 t;
#X connect 0 0 39 2;
#X connect 1 0 39 1;
#X connect 2 0 0 0;
#X connect 2 0 1 0;
#X connect 3 0 39 0;
#X connect 4 0 5 0;
#X connect 4 0 7 0;
#X connect 4 0 2 0;
#X connect 5 0 3 0;
#X connect 6 0 3 0;
#X connect 7 0 6 0;
#X connect 7 0 2 0;
#X connect 8 0 10 0;
#X connect 8 1 9 0;
#X connect 8 2 36 0;
#X connect 12 2 13 0;
#X connect 13 0 16 1;
#X connect 15 0 17 0;
#X connect 16 0 18 0;
#X connect 16 0 14 0;
#X connect 16 0 20 0;
#X connect 17 0 16 0;
#X connect 17 0 21 0;
#X connect 18 0 19 0;
#X connect 18 1 15 0;
#X connect 19 0 16 0;
#X connect 22 0 16 0;
#X connect 23 0 22 0;
#X connect 25 0 26 0;
#X connect 25 1 27 0;
#X connect 25 2 28 0;
#X connect 29 0 103 0;
#X connect 30 0 121 0;
#X connect 31 0 122 0;
#X connect 32 0 123 0;
#X connect 33 0 102 0;
#X connect 34 0 13 1;
#X connect 35 0 29 2;
#X connect 35 0 30 2;
#X connect 35 0 31 2;
#X connect 35 0 32 2;
#X connect 35 0 33 2;
#X connect 35 0 110 2;
#X connect 50 0 52 0;
#X connect 51 0 50 1;
#X connect 52 0 53 0;
#X connect 52 1 54 0;
#X connect 52 2 55 0;
#X connect 52 3 56 0;
#X connect 52 4 57 0;
#X connect 52 5 58 0;
#X connect 52 6 59 0;
#X connect 52 7 60 0;
#X connect 53 0 267 0;
#X connect 53 0 288 0;
#X connect 53 0 312 0;
#X connect 54 0 268 0;
#X connect 54 0 289 0;
#X connect 54 0 312 0;
#X connect 55 0 269 0;
#X connect 55 0 290 0;
#X connect 55 0 312 0;
#X connect 56 0 262 0;
#X connect 56 0 291 0;
#X connect 56 0 312 0;
#X connect 57 0 263 0;
#X connect 57 0 292 0;
#X connect 57 0 312 0;
#X connect 58 0 264 0;
#X connect 58 0 293 0;
#X connect 58 0 312 0;
#X connect 59 0 265 0;
#X connect 59 0 294 0;
#X connect 59 0 312 0;
#X connect 60 0 266 0;
#X connect 60 0 295 0;
#X connect 60 0 312 0;
#X connect 61 0 113 0;
#X connect 63 0 64 0;
#X connect 64 0 73 0;
#X connect 64 0 76 0;
#X connect 64 0 81 0;
#X connect 65 0 63 2;
#X connect 65 0 66 2;
#X connect 65 0 68 2;
#X connect 66 0 71 0;
#X connect 66 0 86 0;
#X connect 68 0 84 0;
#X connect 68 0 85 0;
#X connect 70 0 69 0;
#X connect 71 0 82 0;
#X connect 72 0 71 1;
#X connect 72 0 84 1;
#X connect 73 0 72 0;
#X connect 73 0 85 1;
#X connect 74 0 75 0;
#X connect 75 0 78 0;
#X connect 75 0 79 0;
#X connect 75 0 80 0;
#X connect 77 0 71 1;
#X connect 77 0 84 1;
#X connect 78 0 77 0;
#X connect 78 0 86 1;
#X connect 82 0 67 0;
#X connect 84 0 70 0;
#X connect 85 0 87 0;
#X connect 86 0 88 0;
#X connect 87 0 89 0;
#X connect 88 0 90 0;
#X connect 103 0 105 0;
#X connect 105 0 104 0;
#X connect 106 0 11 0;
#X connect 107 0 106 0;
#X connect 108 0 113 1;
#X connect 108 0 115 0;
#X connect 109 0 114 0;
#X connect 110 0 111 0;
#X connect 112 0 61 0;
#X connect 113 0 109 0;
#X connect 114 0 375 0;
#X connect 115 1 114 0;
#X connect 116 1 118 0;
#X connect 117 0 116 2;
#X connect 118 2 119 0;
#X connect 119 0 120 0;
#X connect 120 0 258 0;
#X connect 131 0 135 0;
#X connect 131 1 134 0;
#X connect 132 0 138 0;
#X connect 133 0 132 0;
#X connect 133 0 139 0;
#X connect 133 0 144 0;
#X connect 133 0 149 0;
#X connect 133 0 393 0;
#X connect 134 0 133 0;
#X connect 135 0 132 1;
#X connect 135 0 139 1;
#X connect 135 0 144 1;
#X connect 135 0 149 1;
#X connect 135 0 393 1;
#X connect 136 0 132 0;
#X connect 137 0 136 0;
#X connect 137 1 143 0;
#X connect 138 0 124 0;
#X connect 138 0 421 0;
#X connect 139 0 140 0;
#X connect 140 0 125 0;
#X connect 140 0 421 0;
#X connect 141 0 139 0;
#X connect 142 0 141 0;
#X connect 142 1 143 0;
#X connect 143 0 133 0;
#X connect 144 0 147 0;
#X connect 145 0 144 0;
#X connect 146 0 145 0;
#X connect 146 1 143 0;
#X connect 147 0 148 0;
#X connect 147 0 421 0;
#X connect 149 0 152 0;
#X connect 150 0 149 0;
#X connect 151 0 150 0;
#X connect 151 1 143 0;
#X connect 152 0 153 0;
#X connect 152 0 421 0;
#X connect 154 0 158 0;
#X connect 154 1 157 0;
#X connect 155 0 161 0;
#X connect 156 0 155 0;
#X connect 156 0 162 0;
#X connect 156 0 167 0;
#X connect 156 0 171 0;
#X connect 157 0 156 0;
#X connect 158 0 155 1;
#X connect 158 0 162 1;
#X connect 158 0 167 1;
#X connect 158 0 171 1;
#X connect 159 0 155 0;
#X connect 160 0 159 0;
#X connect 160 1 166 0;
#X connect 161 0 181 0;
#X connect 161 0 421 0;
#X connect 162 0 163 0;
#X connect 163 0 180 0;
#X connect 163 0 421 0;
#X connect 164 0 162 0;
#X connect 165 0 164 0;
#X connect 165 1 166 0;
#X connect 166 0 156 0;
#X connect 167 0 170 0;
#X connect 168 0 167 0;
#X connect 169 0 168 0;
#X connect 169 1 166 0;
#X connect 170 0 182 0;
#X connect 170 0 421 0;
#X connect 171 0 174 0;
#X connect 172 0 171 0;
#X connect 173 0 172 0;
#X connect 173 1 166 0;
#X connect 174 0 183 0;
#X connect 174 0 421 0;
#X connect 175 0 165 0;
#X connect 176 0 160 0;
#X connect 177 0 169 0;
#X connect 178 0 173 0;
#X connect 179 0 154 0;
#X connect 184 0 188 0;
#X connect 184 1 187 0;
#X connect 185 0 191 0;
#X connect 186 0 201 0;
#X connect 186 0 197 0;
#X connect 186 0 192 0;
#X connect 186 0 185 0;
#X connect 186 0 493 0;
#X connect 186 0 497 0;
#X connect 186 0 507 0;
#X connect 187 0 186 0;
#X connect 188 0 201 1;
#X connect 188 0 197 1;
#X connect 188 0 192 1;
#X connect 188 0 185 1;
#X connect 188 0 493 1;
#X connect 188 0 497 1;
#X connect 188 0 507 1;
#X connect 189 0 185 0;
#X connect 190 0 189 0;
#X connect 190 1 196 0;
#X connect 191 0 230 0;
#X connect 191 0 421 0;
#X connect 192 0 193 0;
#X connect 193 0 229 0;
#X connect 193 0 421 0;
#X connect 194 0 192 0;
#X connect 195 0 194 0;
#X connect 195 1 196 0;
#X connect 196 0 186 0;
#X connect 197 0 200 0;
#X connect 198 0 197 0;
#X connect 199 0 198 0;
#X connect 199 1 196 0;
#X connect 200 0 231 0;
#X connect 200 0 421 0;
#X connect 201 0 204 0;
#X connect 202 0 201 0;
#X connect 203 0 202 0;
#X connect 203 1 196 0;
#X connect 204 0 232 0;
#X connect 204 0 421 0;
#X connect 205 0 209 0;
#X connect 205 1 208 0;
#X connect 206 0 212 0;
#X connect 207 0 206 0;
#X connect 207 0 213 0;
#X connect 207 0 218 0;
#X connect 207 0 222 0;
#X connect 208 0 207 0;
#X connect 209 0 206 1;
#X connect 209 0 213 1;
#X connect 209 0 218 1;
#X connect 209 0 222 1;
#X connect 210 0 206 0;
#X connect 211 0 210 0;
#X connect 211 1 217 0;
#X connect 212 0 237 0;
#X connect 212 0 421 0;
#X connect 213 0 214 0;
#X connect 214 0 238 0;
#X connect 214 0 421 0;
#X connect 215 0 213 0;
#X connect 216 0 215 0;
#X connect 216 1 217 0;
#X connect 217 0 207 0;
#X connect 218 0 221 0;
#X connect 219 0 218 0;
#X connect 220 0 219 0;
#X connect 220 1 217 0;
#X connect 221 0 236 0;
#X connect 221 0 421 0;
#X connect 222 0 225 0;
#X connect 223 0 222 0;
#X connect 224 0 223 0;
#X connect 224 1 217 0;
#X connect 225 0 235 0;
#X connect 225 0 421 0;
#X connect 226 0 216 0;
#X connect 227 0 211 0;
#X connect 228 0 220 0;
#X connect 233 0 224 0;
#X connect 234 0 205 0;
#X connect 239 0 259 1;
#X connect 240 0 239 0;
#X connect 241 0 129 0;
#X connect 241 0 421 0;
#X connect 242 0 127 0;
#X connect 242 0 421 0;
#X connect 243 0 256 1;
#X connect 244 0 243 0;
#X connect 245 0 260 1;
#X connect 246 0 245 0;
#X connect 247 0 130 0;
#X connect 247 0 421 0;
#X connect 248 0 261 1;
#X connect 249 0 248 0;
#X connect 250 0 128 0;
#X connect 250 0 421 0;
#X connect 251 0 244 0;
#X connect 252 0 240 0;
#X connect 253 0 246 0;
#X connect 254 0 249 0;
#X connect 255 0 257 0;
#X connect 256 0 242 0;
#X connect 257 0 256 0;
#X connect 257 0 259 0;
#X connect 257 0 261 0;
#X connect 257 0 260 0;
#X connect 258 0 114 0;
#X connect 259 0 241 0;
#X connect 260 0 247 0;
#X connect 261 0 250 0;
#X connect 262 0 43 0;
#X connect 263 0 49 0;
#X connect 263 0 308 0;
#X connect 264 0 48 0;
#X connect 265 0 42 0;
#X connect 266 0 44 0;
#X connect 266 0 309 0;
#X connect 267 0 47 0;
#X connect 268 0 46 0;
#X connect 269 0 45 0;
#X connect 270 0 266 1;
#X connect 271 0 267 1;
#X connect 272 0 268 1;
#X connect 273 0 269 1;
#X connect 274 0 262 1;
#X connect 275 0 263 1;
#X connect 276 0 264 1;
#X connect 277 0 265 1;
#X connect 286 0 306 0;
#X connect 287 0 311 0;
#X connect 296 0 142 0;
#X connect 297 0 137 0;
#X connect 298 0 146 0;
#X connect 299 0 151 0;
#X connect 300 0 131 0;
#X connect 301 0 195 0;
#X connect 302 0 190 0;
#X connect 303 0 199 0;
#X connect 304 0 203 0;
#X connect 305 0 184 0;
#X connect 306 0 285 0;
#X connect 306 0 278 0;
#X connect 306 0 279 0;
#X connect 306 0 280 0;
#X connect 306 0 281 0;
#X connect 306 0 283 0;
#X connect 306 0 284 0;
#X connect 307 0 306 0;
#X connect 308 0 286 0;
#X connect 308 1 307 0;
#X connect 309 0 287 0;
#X connect 309 1 310 0;
#X connect 310 0 311 0;
#X connect 311 0 284 0;
#X connect 311 0 278 0;
#X connect 311 0 279 0;
#X connect 311 0 280 0;
#X connect 311 0 281 0;
#X connect 311 0 282 0;
#X connect 311 0 283 0;
#X connect 321 0 349 2;
#X connect 321 0 348 2;
#X connect 321 0 347 2;
#X connect 321 0 346 2;
#X connect 321 0 313 2;
#X connect 321 0 314 2;
#X connect 321 0 315 2;
#X connect 321 0 316 2;
#X connect 321 0 317 2;
#X connect 321 0 319 2;
#X connect 321 0 318 2;
#X connect 321 0 320 2;
#X connect 323 0 362 0;
#X connect 323 0 480 0;
#X connect 324 0 363 0;
#X connect 324 0 480 0;
#X connect 325 0 370 0;
#X connect 325 0 480 0;
#X connect 326 0 371 0;
#X connect 326 0 480 0;
#X connect 327 0 364 0;
#X connect 327 0 480 0;
#X connect 328 0 365 0;
#X connect 328 0 480 0;
#X connect 329 0 372 0;
#X connect 329 0 480 0;
#X connect 330 0 373 0;
#X connect 330 0 480 0;
#X connect 338 0 366 0;
#X connect 338 0 480 0;
#X connect 339 0 367 0;
#X connect 339 0 480 0;
#X connect 340 0 368 0;
#X connect 340 0 480 0;
#X connect 341 0 369 0;
#X connect 341 0 480 0;
#X connect 362 0 322 0;
#X connect 362 1 350 0;
#X connect 363 0 331 0;
#X connect 363 1 351 0;
#X connect 364 0 336 0;
#X connect 364 1 352 0;
#X connect 365 0 337 0;
#X connect 365 1 353 0;
#X connect 366 0 342 0;
#X connect 366 1 354 0;
#X connect 367 0 343 0;
#X connect 367 1 355 0;
#X connect 368 0 344 0;
#X connect 368 1 356 0;
#X connect 369 0 345 0;
#X connect 369 1 357 0;
#X connect 370 0 332 0;
#X connect 370 1 358 0;
#X connect 371 0 333 0;
#X connect 371 1 359 0;
#X connect 372 0 334 0;
#X connect 372 1 360 0;
#X connect 373 0 335 0;
#X connect 373 1 361 0;
#X connect 374 0 362 1;
#X connect 374 0 373 1;
#X connect 374 0 372 1;
#X connect 374 0 371 1;
#X connect 374 0 370 1;
#X connect 374 0 368 1;
#X connect 374 0 369 1;
#X connect 374 0 367 1;
#X connect 374 0 366 1;
#X connect 374 0 365 1;
#X connect 374 0 364 1;
#X connect 374 0 363 1;
#X connect 375 0 126 0;
#X connect 376 0 71 0;
#X connect 377 0 378 0;
#X connect 378 0 84 0;
#X connect 379 0 376 0;
#X connect 392 0 104 0;
#X connect 393 0 394 0;
#X connect 394 0 398 0;
#X connect 394 0 421 0;
#X connect 395 0 393 0;
#X connect 396 0 395 0;
#X connect 397 0 396 0;
#X connect 399 0 57 0;
#X connect 400 0 58 0;
#X connect 401 0 60 0;
#X connect 402 0 56 0;
#X connect 403 0 55 0;
#X connect 404 0 54 0;
#X connect 405 0 53 0;
#X connect 407 0 406 0;
#X connect 408 0 406 0;
#X connect 409 0 410 0;
#X connect 410 0 412 0;
#X connect 411 0 410 0;
#X connect 413 0 414 0;
#X connect 414 0 37 0;
#X connect 414 0 452 0;
#X connect 414 1 453 0;
#X connect 415 0 417 0;
#X connect 415 0 450 0;
#X connect 415 1 451 0;
#X connect 416 0 415 0;
#X connect 418 0 440 0;
#X connect 419 0 441 0;
#X connect 420 0 59 0;
#X connect 422 0 431 0;
#X connect 431 0 432 0;
#X connect 432 0 424 0;
#X connect 432 0 425 0;
#X connect 432 0 426 0;
#X connect 432 0 428 0;
#X connect 432 0 429 0;
#X connect 432 0 430 0;
#X connect 432 0 427 0;
#X connect 432 0 423 0;
#X connect 435 0 436 0;
#X connect 436 0 434 0;
#X connect 436 1 433 0;
#X connect 437 0 436 1;
#X connect 439 0 448 0;
#X connect 440 0 439 0;
#X connect 440 0 40 0;
#X connect 440 1 448 0;
#X connect 441 0 442 0;
#X connect 441 0 41 0;
#X connect 441 1 447 0;
#X connect 442 0 447 0;
#X connect 443 0 444 0;
#X connect 443 0 446 0;
#X connect 443 0 445 0;
#X connect 444 0 476 2;
#X connect 444 0 475 2;
#X connect 445 0 476 1;
#X connect 446 0 475 1;
#X connect 447 0 476 0;
#X connect 448 0 475 0;
#X connect 449 0 443 0;
#X connect 450 0 451 0;
#X connect 451 0 454 0;
#X connect 452 0 453 0;
#X connect 453 0 455 0;
#X connect 456 0 473 2;
#X connect 456 0 474 2;
#X connect 456 0 472 2;
#X connect 457 0 473 1;
#X connect 458 0 474 1;
#X connect 459 0 457 0;
#X connect 459 0 458 0;
#X connect 459 0 456 0;
#X connect 459 0 471 0;
#X connect 460 0 459 0;
#X connect 461 0 473 0;
#X connect 462 0 463 0;
#X connect 463 0 461 1;
#X connect 463 0 464 1;
#X connect 464 0 474 0;
#X connect 465 0 461 0;
#X connect 466 0 464 0;
#X connect 467 0 468 0;
#X connect 468 0 469 0;
#X connect 468 1 470 0;
#X connect 469 0 470 0;
#X connect 470 0 472 0;
#X connect 471 0 472 1;
#X connect 478 0 479 0;
#X connect 478 0 492 0;
#X connect 479 0 477 2;
#X connect 480 0 485 0;
#X connect 481 0 482 0;
#X connect 482 0 479 0;
#X connect 482 1 483 0;
#X connect 483 0 477 2;
#X connect 484 0 478 0;
#X connect 485 0 477 0;
#X connect 485 0 486 0;
#X connect 486 0 491 0;
#X connect 486 1 487 0;
#X connect 487 0 491 0;
#X connect 488 0 477 0;
#X connect 491 0 488 0;
#X connect 492 0 477 1;
#X connect 493 0 496 0;
#X connect 494 0 493 0;
#X connect 495 0 494 0;
#X connect 495 1 196 0;
#X connect 496 0 421 0;
#X connect 496 0 502 0;
#X connect 497 0 498 0;
#X connect 498 0 421 0;
#X connect 498 0 501 0;
#X connect 499 0 497 0;
#X connect 500 0 499 0;
#X connect 500 1 196 0;
#X connect 503 0 500 0;
#X connect 504 0 495 0;
#X connect 505 0 513 0;
#X connect 506 0 513 0;
#X connect 507 0 510 0;
#X connect 508 0 507 0;
#X connect 509 0 508 0;
#X connect 509 1 196 0;
#X connect 510 0 512 0;
#X connect 510 0 421 0;
#X connect 511 0 509 0;
#X connect 513 0 514 0;
#X connect 513 1 515 0;
#X connect 514 0 516 0;
#X connect 515 0 517 0;
#X connect 515 0 518 0;
#X connect 516 0 517 0;
#X connect 517 0 447 0;
#X connect 517 0 448 0;
#X connect 521 0 523 0;
#X connect 522 0 523 0;
