#N canvas 1440 928 1920 976 12;
#X obj 261 893 midiout 3;
#X msg 260 857 240 0 32 107 127 66 2 2 64 106 33 247;
#X obj 260 821 loadbang;
#X text 329 816 required for init ml3_text;
#X obj 739 856 ml3/clr;
#X obj 739 764 loadbang;
#X msg 739 822 clear;
#X obj 742 794 bng 20 250 50 0 empty empty empty 0 -10 0 12 #fcfcfc #000000 #000000;
#X obj 521 1002 sel 127, f 8;
#X obj 416 1005 sel 127;
#X obj 518 1034 bng 20 250 50 0 empty empty empty 0 -10 0 12 #fcfcfc #000000 #000000;
#X obj 409 1040 bng 20 250 50 0 empty empty empty 0 -10 0 12 #fcfcfc #000000 #000000;
#X text 527 909 stop;
#X text 266 739 caution: if ml3 gets unplugged after this occurs \, text input wont work thereafter until this is triggered again, f 31;
#X obj 517 1067 s t.stop;
#X obj 412 1109 s t.cont;
#X text 420 912 cont;
#X obj 556 1146 bng 20 250 50 0 empty empty empty 0 -10 0 12 #fcfcfc #000000 #000000;
#X obj 541 1178 s t.prime;
#X text 583 1143 prime (midi: 250);
#X obj 1191 903 ml3/clr;
#X obj 1234 877 loadmess red;
#X obj 1222 853 loadmess 0;
#X obj 1249 818 bng 20 250 50 0 empty empty empty 0 -10 0 12 #fcfcfc #000000 #000000;
#X obj 1191 851 tgl 20 0 empty empty empty 0 -10 0 12 #fcfcfc #000000 #000000 0 1;
#X obj 1187 750 r t.4n;
#X msg 1161 810 1;
#X msg 1200 819 0;
#X obj 1198 780 del 50;
#X obj 869 831 ctlin, f 9;
#X obj 259 1026 r t.transport_status;
#X obj 547 1120 onebang;
#X msg 598 1070 stop;
#X obj 591 1038 b;
#X obj 991 1035 sel 127;
#X obj 1085 969 ctlin;
#X floatatom 901 883 5 0 0 0 - - - 0;
#X obj 1104 1023 sel 105;
#X obj 1129 1232 s t.stop;
#X obj 961 1156 s ctl.reload_mset;
#X obj 1100 1192 t;
#X obj 1099 1156 bng 20 250 50 0 empty empty empty 0 -10 0 12 #fcfcfc #000000 #000000;
#X obj 376 1257 onebang;
#X obj 414 1147 sel 1;
#X obj 437 1185 b;
#X msg 435 1217 stop;
#X floatatom 294 1109 5 0 0 0 - - - 0;
#X obj 304 1060 pipe 50;
#X obj 374 1333 s tin.toggle;
#X obj 371 1297 tgl 20 0 empty empty empty 0 -10 0 12 #fcfcfc #000000 #000000 0 1;
#X msg 287 1257 set \$1;
#X obj 282 1219 r tin.toggle;
#X text 439 1259 toggle tin - press cont btn when already playing, f 14;
#X text 1127 1158 reset;
#X obj 1100 1262 s s.reset;
#X obj 1146 1056 b;
#X obj 1450 835 sel 127;
#X text 1459 724 hold toggle (red btn), f 13;
#X obj 1453 876 tgl 20 0 empty empty empty 0 -10 0 12 #fcfcfc #000000 #000000 0 1;
#X msg 1374 860 set \$1;
#X obj 1368 822 r s.hold;
#X obj 1450 903 s s.hold;
#X obj 654 1689 ml3/clr;
#X obj 666 1493 r t.transport_status;
#X msg 691 1599 9;
#X obj 669 1558 t f b;
#X msg 728 1600 green;
#X floatatom 869 883 5 0 0 0 - - - 0;
#X obj 664 1526 change;
#X obj 567 1567 == 0;
#X obj 564 1603 t f b;
#X msg 626 1636 white;
#X msg 586 1644 8;
#X msg 551 1477 0;
#X obj 551 1444 onebang;
#X obj 483 1031 b;
#X obj 479 1453 onebang;
#X msg 480 1483 0;
#X obj 480 1117 onebang;
#X msg 472 1057 stop;
#X obj 755 1129 del 50;
#X obj 754 1167 del 50;
#X obj 751 1203 del 50;
#X obj 812 1132 del 50;
#X obj 811 1170 del 50;
#X obj 808 1206 del 50;
#X obj 780 1093 b;
#X obj 763 1241 tgl 20 0 empty empty empty 0 -10 0 12 #fcfcfc #000000 #000000 0 1;
#X msg 716 1157 0;
#X text 663 1186 rapid flash to show prime action, f 12;
#X obj 1561 783 r s.hold;
#X obj 1572 915 ml3/clr;
#X msg 1592 883 10;
#X msg 1630 885 blue;
#X obj 1575 846 t f b;
#X obj 1566 813 change;
#X obj 1499 867 b;
#X obj 688 1442 ml3/clr;
#X obj 689 1353 t f b;
#X obj 680 1320 change;
#X msg 706 1390 9;
#X msg 744 1392 yellow;
#X obj 806 1328 tgl 20 0 empty empty empty 0 -10 0 12 #fcfcfc #000000 #000000 0 1;
#X obj 804 1355 sel 0;
#X obj 675 1290 r tin.toggle;
#X obj 796 1301 gate 0;
#X msg 811 1394 1;
#X obj 654 1398 sel 0;
#X obj 887 1314 r tin.tinning;
#X obj 903 1438 ml3/clr;
#X msg 954 1394 yellow;
#X msg 918 1394 8;
#X msg 882 1392 1;
#X obj 941 1359 onebang;
#X obj 918 1282 r t.4n;
#X obj 904 1357 t;
#X obj 1213 1229 ml3/clr;
#X msg 1264 1187 red;
#X obj 833 1267 r t.16n;
#X msg 1228 1187 7;
#X msg 1160 1191 1;
#X msg 1191 1188 0;
#X obj 1243 1143 t;
#X obj 1177 1148 del 1000;
#X obj 1022 1086 b;
#X obj 954 1118 s ctl.load_clrstore;
#X obj 858 764 em.ctl.clrstore;
#X text 1112 3020 comment;
#X text 4871 1380 comment;
#X obj 1270 999 sel 127;
#X obj 1270 1072 tgl 20 0 empty empty empty 0 -10 0 12 #fcfcfc #000000 #000000 0 1;
#X msg 1265 1030 1;
#X text 1286 933 shift;
#X obj 1316 1037 b;
#X obj 1349 1003 s ctl.load_clrstore;
#X obj 1364 1037 s ctl.update_text;
#X obj 677 1026 onebang;
#X obj 715 989 r s.reset;
#X floatatom 1260 1318 5 0 0 0 - - - 0;
#X floatatom 1145 1360 5 0 0 0 - - - 0;
#X obj 1144 1390 > 64;
#X obj 1728 783 ctlin;
#X obj 1725 815 sel 33;
#X obj 1657 936 s ctl.update_text;
#X obj 1815 890 del 20000;
#X obj 1722 865 gate 1;
#X msg 1807 927 1;
#X obj 1790 856 t;
#X msg 1778 888 0;
#X obj 1721 901 bng 20 250 50 0 empty empty empty 0 -10 0 12 #fcfcfc #000000 #000000;
#X obj 1803 965 bng 20 250 50 0 empty empty empty 0 -10 0 12 #fcfcfc #000000 #000000;
#X obj 1795 807 loadmess 1;
#X obj 1800 777 bng 20 250 50 0 empty empty empty 0 -10 0 12 #fcfcfc #000000 #000000;
#X text 1692 751 refresh ml3 text display;
#X obj 1130 2044 s s.seek_seg;
#X obj 1259 1356 sel 127;
#X msg 1258 1388 1;
#X obj 1264 1429 tgl 20 0 empty empty empty 0 -10 0 12 #fcfcfc #000000 #000000 0 1;
#X obj 1140 1697 f;
#X obj 1121 1652 r s.current_seg_id;
#X obj 1137 1750 - 1;
#X obj 1176 1753 + 1;
#X obj 1178 1700 f;
#X obj 1149 1611 sel 0 1;
#X obj 1114 1620 bng 20 250 50 0 empty empty empty 0 -10 0 12 #fcfcfc #000000 #000000;
#X obj 1215 1620 bng 20 250 50 0 empty empty empty 0 -10 0 12 #fcfcfc #000000 #000000;
#X obj 1308 1408 sel 0;
#X obj 1149 1889 f;
#X floatatom 1135 1973 5 0 0 0 - - - 0;
#X msg 1340 1935 \$1;
#X obj 1214 1891 t b b f;
#X obj 988 2058 s ctl.update_text;
#X obj 1098 1976 b;
#X obj 1037 2013 del 50;
#X floatatom 1230 1772 5 0 127 0 - - - 0;
#X obj 1236 1739 r s.num_of_segs;
#X obj 1151 1797 min;
#X obj 1138 1828 max 1;
#X floatatom 1206 1845 5 0 0 0 - - - 0;
#X text 1256 1679 seek seg with leftmost knob (held down), f 15;
#X obj 1331 1459 s ctl.seek_knob_state;
#X obj 311 1665 notein;
#X obj 326 2012 noteout 57;
#X obj 456 1665 ctlin;
#X obj 384 1663 bendin;
#X obj 428 2010 bendout 57;
#X text 267 1743 mnm auto ch via megacmd midi, f 12;
#X text 266 1785 md chr ch via pisound midi, f 12;
#X text 302 1633 pass through ml3 midi;
#X obj 526 2010 ctlout 57;
#X msg 460 1736 0;
#X msg 478 1736 1;
#X obj 449 1702 bng 20 250 50 0 empty empty empty 0 -10 0 12 #fcfcfc #000000 #000000;
#X obj 270 1970 gate 1;
#X obj 326 1970 gate 1;
#X obj 414 1972 gate 1;
#X obj 538 1938 gate 1;
#X obj 590 1936 gate 1;
#X obj 508 1700 loadbang;
#X obj 444 1774 change;
#X obj 575 1698 sel 1;
#X obj 600 1728 bng 20 250 50 0 empty empty empty 0 -10 0 12 #fcfcfc #000000 #000000;
#X msg 602 1753 0;
#X msg 569 1754 1;
#X obj 625 1792 change;
#X obj 1144 1430 gate 2;
#X obj 1263 1461 + 1;
#X obj 1019 1483 sel 0 1;
#X obj 984 1492 bng 20 250 50 0 empty empty empty 0 -10 0 12 #fcfcfc #000000 #000000;
#X obj 1085 1492 bng 20 250 50 0 empty empty empty 0 -10 0 12 #fcfcfc #000000 #000000;
#X obj 957 1537 r t.tempo;
#X obj 965 1583 f;
#X obj 1010 1586 f;
#X obj 962 1622 - 1;
#X obj 1007 1621 + 1;
#X floatatom 989 1738 5 0 0 0 - - - 0;
#X obj 970 1774 s t.tempo;
#X obj 984 1704 max 30;
#X obj 980 1671 min 300;
#X obj 1276 1100 s ctl.shift_state;
#X obj 1195 1512 r ctl.shift_state;
#X obj 1160 1556 spigot;
#X obj 1269 1575 spigot;
#X floatatom 1344 1552 5 0 0 0 - - - 0;
#X floatatom 1092 1585 5 0 0 0 - - - 0;
#X floatatom 1128 1527 5 0 0 0 - - - 0;
#X obj 1385 1341 spigot;
#X obj 1388 1372 sel 0;
#X msg 1392 1400 0;
#X obj 1397 1230 loadmess 0;
#X obj 785 1776 s ctl.manual_tempo_change;
#X obj 1645 2222 r ctl.shift_state;
#X obj 1645 2252 tgl 20 0 empty empty empty 0 -10 0 12 #fcfcfc #000000 #000000 0 1;
#X obj 692 2276 spigot;
#X floatatom 678 2231 5 0 0 0 - - - 0;
#X obj 674 2501 i;
#X floatatom 686 2540 5 0 0 0 - - - 0;
#X obj 653 2677 s t.tempo;
#X obj 644 2648 s ctl.manual_tempo_change;
#X obj 713 2613 s s.write_seg_data;
#X msg 719 2582 bpm \$1;
#X obj 859 2285 spigot;
#X floatatom 845 2240 5 0 0 0 - - - 0;
#X obj 849 2362 i;
#X floatatom 850 2402 5 0 0 0 - - - 0;
#X obj 849 2484 s s.write_seg_data;
#X msg 849 2439 bpmr \$1;
#X obj 854 2329 scale 0 127 0 127;
#X obj 331 2274 spigot;
#X floatatom 317 2229 5 0 0 0 - - - 0;
#X obj 321 2351 i;
#X floatatom 318 2384 5 0 0 0 - - - 0;
#X obj 287 2532 s s.write_seg_data;
#X obj 498 2283 spigot;
#X floatatom 484 2238 5 0 0 0 - - - 0;
#X obj 488 2360 i;
#X floatatom 486 2388 5 0 0 0 - - - 0;
#X obj 474 2533 s s.write_seg_data;
#X msg 293 2501 md \$1;
#X msg 474 2488 mnm \$1;
#X obj 311 2457 pgm2bank;
#X obj 326 2318 scale 0 127 1 128;
#X obj 474 2456 pgm2bank;
#X obj 315 2419 t b f;
#X obj 479 2419 t b f;
#X obj 493 2327 scale 0 127 1 128;
#X obj 1043 2287 spigot;
#X floatatom 1029 2242 5 0 0 0 - - - 0;
#X obj 1037 2493 s s.write_seg_data;
#X obj 1218 2287 spigot;
#X floatatom 1204 2242 5 0 0 0 - - - 0;
#X obj 1208 2486 s s.write_seg_data;
#X obj 1042 2403 tgl 20 0 empty empty empty 0 -10 0 12 #fcfcfc #000000 #000000 0 1;
#X msg 1037 2449 tin \$1;
#X obj 1206 2406 tgl 20 0 empty empty empty 0 -10 0 12 #fcfcfc #000000 #000000 0 1;
#X msg 1208 2441 poly \$1;
#X obj 1040 2337 > 63;
#X obj 1215 2336 > 63;
#X obj 1383 2288 spigot;
#X floatatom 1369 2243 5 0 0 0 - - - 0;
#X obj 1377 2494 s s.write_seg_data;
#X obj 1558 2288 spigot;
#X floatatom 1544 2243 5 0 0 0 - - - 0;
#X obj 1548 2487 s s.write_seg_data;
#X msg 1377 2450 rep \$1;
#X msg 1548 2442 len \$1;
#X obj 1367 2360 i;
#X floatatom 1368 2400 5 0 0 0 - - - 0;
#X obj 1534 2369 i;
#X floatatom 1535 2409 5 0 0 0 - - - 0;
#X obj 1372 2327 scale 0 127 1 16;
#X obj 1466 2674 s t.stop;
#X obj 1482 2536 b;
#X obj 1539 2336 scale 0 127 6 64;
#X obj 1474 2628 del 100;
#X obj 1540 2630 onebang;
#X obj 1390 2582 t b b;
#X msg 1481 2589 stop;
#X obj 1278 2440 s s.poly;
#X obj 1006 839 notein;
#X floatatom 998 875 5 0 0 0 - - - 0;
#X floatatom 1048 875 5 0 0 0 - - - 0;
#X floatatom 1100 871 5 0 0 0 - - - 0;
#X obj 1932 1545 > 0;
#X obj 1892 1614 spigot;
#X obj 1926 1578 tgl 20 0 empty empty empty 0 -10 0 12 #fcfcfc #000000 #000000 0 1;
#X msg 1843 1555 copy;
#X obj 1843 1518 sel 127;
#X obj 1548 1521 sel 127;
#X obj 1751 1523 sel 127;
#X msg 1756 1559 paste;
#X msg 1656 1561 delete;
#X obj 1977 1606 s ctl.tap_func_status;
#X obj 604 912 r ctl.tap_func_status;
#X obj 639 943 == 0;
#X obj 523 969 spigot 1;
#X obj 419 975 spigot 1;
#X obj 991 1004 spigot 1;
#X obj 1100 996 spigot 1;
#X obj 1295 749 r ctl.tap_func_status;
#X obj 1330 780 == 0;
#X obj 1454 799 spigot 1;
#X floatatom 733 947 5 0 0 0 - - - 0;
#X obj 2039 1516 r ctl.shift_state;
#X obj 2040 1543 sel 1;
#X obj 2106 1560 tgl 20 0 empty empty empty 0 -10 0 12 #fcfcfc #000000 #000000 0 1;
#X obj 1656 1424 sel 127, f 8;
#X obj 1753 1337 ctlin;
#X obj 1814 1424 b;
#X obj 1768 1364 spigot 1;
#X obj 1656 1529 bng 20 250 50 0 empty empty empty 0 -10 0 12 #fcfcfc #000000 #000000;
#X obj 1772 1391 sel 106;
#X obj 1897 1724 bng 20 250 50 0 empty empty empty 0 -10 0 12 #fcfcfc #000000 #000000;
#X obj 1945 1723 bng 20 250 50 0 empty empty empty 0 -10 0 12 #fcfcfc #000000 #000000;
#X obj 1990 1725 bng 20 250 50 0 empty empty empty 0 -10 0 12 #fcfcfc #000000 #000000;
#X obj 2031 1725 bng 20 250 50 0 empty empty empty 0 -10 0 12 #fcfcfc #000000 #000000;
#X obj 1889 1648 tosymbol;
#X obj 1739 1773 s ctl.load_clrstore;
#X obj 1922 1920 ml3/clr;
#X msg 1946 1867 yellow;
#X msg 1897 1871 1;
#X msg 2012 1818 10;
#X obj 2083 1811 bng 20 250 50 0 empty empty empty 0 -10 0 12 #fcfcfc #000000 #000000;
#X obj 1859 1899 bng 20 250 50 0 empty empty empty 0 -10 0 12 #fcfcfc #000000 #000000;
#X msg 1871 1961 0;
#X obj 1861 1926 del 250;
#X msg 1973 1820 9;
#X msg 1938 1820 8;
#X msg 1903 1822 7;
#X obj 1788 1672 sel 0;
#X obj 1815 1630 spigot;
#X obj 2265 1644 text set seg_data_buffer;
#X obj 2183 1460 text define seg_data_buffer;
#X obj 2198 1760 text get seg_data_buffer;
#X obj 2265 1606 text get set;
#X obj 2414 1343 r s.current_seg_id;
#X floatatom 2415 1403 5 0 0 0 - - - 0;
#X obj 2266 1570 i;
#X obj 2214 1815 text insert set;
#X obj 2485 1660 i;
#X obj 2480 1692 + 1;
#X msg 2197 1723 0;
#X obj 2088 1918 s s.save;
#X obj 2007 1918 s s.reload;
#X obj 2082 1883 del 25;
#X obj 2413 1375 - 1;
#X obj 2009 1884 del 50;
#X obj 2494 1879 s s.seek_seg;
#X obj 2501 1846 i;
#X obj 2356 1878 s ctl.update_text;
#X obj 2427 1833 bng 20 250 50 0 empty empty empty 0 -10 0 12 #fcfcfc #000000 #000000;
#X obj 2497 1797 + 1;
#X obj 2469 1758 del 75;
#X obj 2428 1807 del 25;
#X obj 2198 1937 text delete set;
#X obj 2219 1881 i;
#X obj 1652 1467 counter 0 0 1;
#X obj 1653 1496 sel 1;
#X obj 1102 1093 counter 0 0 1;
#X obj 1103 1122 sel 1;
#X floatatom 1974 2109 5 0 0 0 - - - 0;
#X obj 1973 2139 > 64;
#X obj 1965 2271 f;
#X obj 1962 2324 - 1;
#X obj 2001 2327 + 1;
#X obj 2003 2274 f;
#X obj 1974 2185 sel 0 1;
#X obj 1939 2194 bng 20 250 50 0 empty empty empty 0 -10 0 12 #fcfcfc #000000 #000000;
#X obj 2040 2194 bng 20 250 50 0 empty empty empty 0 -10 0 12 #fcfcfc #000000 #000000;
#X obj 1869 2493 s ctl.update_text;
#X obj 1876 2452 del 50;
#X floatatom 2055 2346 5 0 127 0 - - - 0;
#X obj 1976 2371 min;
#X obj 1963 2402 max 1;
#X floatatom 2031 2419 5 0 0 0 - - - 0;
#X text 2092 2274 seek mset;
#X obj 2068 2229 r s.current_mset;
#X obj 2065 2309 r s.num_of_msets;
#X obj 1264 1276 spigot 1;
#X obj 1147 1328 spigot 1;
#X obj 1323 1209 == 0;
#X obj 1968 2076 spigot;
#X obj 1381 1635 spigot 1;
#X obj 2080 2041 r ctl.tap_func_status;
#X obj 1315 1177 r ctl.tap_func_status;
#X obj 2087 2087 tgl 20 0 empty empty empty 0 -10 0 12 #fcfcfc #000000 #000000 0 1;
#X obj 2327 2131 bng 20 250 50 0 empty empty empty 0 -10 0 12 #fcfcfc #000000 #000000;
#X floatatom 2365 2087 5 0 0 0 - - - 0;
#X msg 2324 2172 0;
#X obj 2338 2228 text get mset_list;
#X obj 2336 2281 zl nth 1;
#X obj 2336 2407 file splitname;
#X obj 2337 2318 tosymbol;
#X msg 2339 2438 \$2;
#X obj 2337 2361 file splitext;
#X obj 2363 2127 t b f;
#X obj 2189 2485 text set boot;
#X obj 1822 2530 s s.write_boot.set;
#X obj 2220 2379 file splitname;
#X obj 1820 2367 r ctl.shift_state;
#X obj 1818 2409 sel 0;
#X msg 2193 2421 \$2;
#X obj 2189 2446 tosymbol;
#X msg 1548 1558 insert;
#X obj 2227 1521 t b b b;
#X obj 3038 1772 text get set;
#X obj 2739 2074 zl filter;
#X obj 1993 1053 print;
#X obj 1971 980 pgm2bank;
#X obj 1974 914 + 1;
#X obj 2011 784 bng 20 250 50 0 empty empty empty 0 -10 0 12 #fcfcfc #000000 #000000;
#X obj 1918 925 print;
#X obj 1992 948 t b f;
#X obj 2003 844 bng 20 250 50 0 empty empty empty 0 -10 0 12 #fcfcfc #000000 #000000;
#X obj 1973 815 uzi 128;
#X obj 1968 881 counter 0 0 127;
#X obj 1979 1015 zl group 128;
#X text 2052 795 print bank labels;
#X obj 2870 2074 zl filter;
#X msg 2738 1906 A01 A02 A03 A04 A05 A06 A07 A08 A09 A10 A11 A12 A13 A14 A15 A16 B01 B02 B03 B04 B05 B06 B07 B08 B09 B10 B11 B12 B13 B14 B15 B16 C01 C02 C03 C04 C05 C06 C07 C08 C09 C10 C11 C12 C13 C14 C15 C16 D01 D02 D03 D04 D05 D06 D07 D08 D09 D10 D11 D12 D13 D14 D15 D16 E01 E02 E03 E04 E05 E06 E07 E08 E09 E10 E11 E12 E13 E14 E15 E16 F01 F02 F03 F04 F05 F06 F07 F08 F09 F10 F11 F12 F13 F14 F15 F16 G01 G02 G03 G04 G05 G06 G07 G08 G09 G10 G11 G12 G13 G14 G15 G16 H01 H02 H03 H04 H05 H06 H07 H08 H09 H10 H11 H12 H13 H14 H15 H16;
#X obj 2819 1779 bng 20 250 50 0 empty empty empty 0 -10 0 12 #fcfcfc #000000 #000000;
#X obj 2864 1871 list;
#X obj 2910 1877 list;
#X obj 3050 1499 text size set;
#X obj 3032 1593 uzi;
#X floatatom 3047 1531 5 0 0 0 - - - 0;
#X obj 3023 1629 counter 0 0;
#X obj 3076 1590 - 1;
#X obj 3034 1561 t f f;
#X floatatom 3018 1663 5 0 0 0 - - - 0;
#X obj 3028 1699 t f b;
#X msg 3099 1733 1;
#X obj 3044 1810 zl nth 1;
#X obj 3052 1853 zl group;
#X obj 3162 1775 text get set;
#X floatatom 3142 1666 5 0 0 0 - - - 0;
#X obj 3152 1702 t f b;
#X obj 3168 1813 zl nth 1;
#X obj 3176 1856 zl group;
#X msg 3212 1733 3;
#X msg 3266 1816 zlclear;
#X obj 3042 1464 bng 20 250 50 0 empty empty empty 0 -10 0 12 #fcfcfc #000000 #000000;
#X obj 2742 2110 zl nth 1;
#X obj 2867 2108 zl nth 1;
#X obj 2706 2233 symbol;
#X obj 2818 1807 t b b b b;
#X obj 2668 2122 t b b;
#X obj 2703 2361 s s.write_seg_data;
#X obj 2814 1747 del 500;
#X msg 2808 2268 mnm \$1;
#X msg 2709 2281 md \$1;
#X obj 2845 2316 print;
#X obj 3020 2069 print;
#X obj 2807 2226 symbol;
#X obj 2847 2166 tosymbol;
#X obj 2763 2161 tosymbol;
#X obj 1703 1056 r ctl.shift_state;
#X floatatom 1650 1056 5 0 0 0 - - - 12;
#X obj 1650 1087 spigot, f 8;
#X obj 1650 1118 > 8192;
#X obj 1596 1119 < 8000;
#X obj 1593 1146 sel 1;
#X obj 1650 1145 sel 1;
#X msg 1610 1178 0;
#X msg 1654 1179 1;
#X obj 1621 1213 i;
#X obj 1620 1244 t f b;
#X msg 1649 1269 clear;
#X obj 1576 1338 t b f;
#X floatatom 1596 1368 5 0 0 0 - - - 0;
#X obj 1618 1297 pipe 100;
#X obj 974 1228 s s.reload;
#X obj 983 1190 del 200;
#X obj 1294 1638 bng 20 250 50 0 empty empty empty 0 -10 0 12 #fcfcfc #000000 #000000;
#X obj 1163 1936 bng 20 250 50 0 empty empty empty 0 -10 0 12 #fcfcfc #000000 #000000;
#X obj 1097 1860 bng 20 250 50 0 empty empty empty 0 -10 0 12 #fcfcfc #000000 #000000;
#X obj 2553 1354 r s.num_of_segs;
#X floatatom 2553 1389 5 0 0 0 - - - 0;
#X obj 2523 1432 <;
#X obj 2524 1459 tgl 20 0 empty empty empty 0 -10 0 12 #fcfcfc #000000 #000000 0 1;
#X obj 2443 1538 i;
#X obj 2523 1494 sel 1 0;
#X obj 2536 1534 - 1;
#X obj 2517 1566 i;
#X floatatom 2468 1589 5 0 0 0 - - - 0;
#X obj 2486 1535 i;
#X obj 2445 1458 t b f f;
#X obj 1877 1301 s t.clock_toggle;
#X obj 1976 1098 r ctl.shift_state;
#X msg 1973 1199 1;
#X obj 1957 1236 pipe 500;
#X text 2003 1305 stop clock for a bit while loading pgm... fixes 'sysex error' on mcl loads for now, f 29;
#X obj 1862 1132 r s.seek_seg;
#X msg 1869 1230 0;
#X obj 1860 1165 bng 20 250 50 0 empty empty empty 0 -10 0 12 #fcfcfc #000000 #000000;
#X msg 2050 1199 clear;
#X obj 1975 1126 t f b;
#X obj 1974 1160 sel 0;
#X obj 687 2320 scale 1 127 30 300;
#X obj 677 2400 < 30;
#X obj 661 2433 sel 0 1;
#X msg 682 2465 0;
#X obj 685 2358 t f f;
#X obj 419 941 r ctl.do_cont;
#X obj 523 933 r ctl.do_stop;
#X obj 780 1026 r ctl.do_prime;
#X obj 991 969 r ctl.do_reset;
#X text 994 915 rest / reload mset - orange pad must be pressed 2 times, f 21;
#X obj 1454 765 r ctl.do_hold;
#X obj 1288 1845 r ctl.do_seg;
#X obj 538 673 s ctl.do_cont;
#X obj 684 664 s ctl.do_stop;
#X obj 829 664 s ctl.do_prime;
#X obj 930 672 s ctl.do_reset;
#X obj 829 615 bng 25 250 50 0 empty empty ctl\ prime 17 7 0 10 #e3dfd9 #5a5a5a #5a5a5a;
#X msg 625 632 127;
#X obj 624 597 bng 25 250 50 0 empty empty ctl\ cont 17 7 0 10 #e3dfd9 #5a5a5a #5a5a5a;
#X msg 777 634 127;
#X obj 776 599 bng 25 250 50 0 empty empty ctl\ stop 17 7 0 10 #e3dfd9 #5a5a5a #5a5a5a;
#X obj 1022 609 t b b;
#X msg 1022 637 127 \, 0;
#X obj 1022 566 bng 25 250 50 0 empty empty ctl\ reset 17 7 0 10 #e3dfd9 #5a5a5a #5a5a5a;
#X obj 1087 672 s ctl.do_hold;
#X msg 1189 638 127;
#X obj 1188 603 bng 25 250 50 0 empty empty hold 17 7 0 10 #e3dfd9 #5a5a5a #5a5a5a;
#X obj 1248 664 s ctl.do_seg;
#X obj 1248 629 nbx 4 18 -1e+37 1e+37 0 0 empty empty ctl\ seek\ seg 0 -8 0 10 #191919 #e1e1e1 #e1e1e1 0 256;
#X msg 1437 631 127;
#X obj 1436 596 bng 25 250 50 0 empty empty ctl\ shift 17 7 0 10 #e3dfd9 #5a5a5a #5a5a5a;
#X obj 1270 965 r ctl.do_shift;
#X obj 1346 664 s ctl.do_shift;
#X obj 1346 623 ctl.in 27 33;
#X obj 1087 623 ctl.in 108 33;
#X obj 930 623 ctl.in 105 33;
#X obj 684 623 ctl.in 106 33;
#X obj 538 623 ctl.in 107 33;
#X obj 1968 2041 ctl.in 29 33;
#X obj 1658 1391 ctl.in 106 33;
#X obj 1749 1484 ctl.in 107 33;
#X obj 1546 1481 ctl.in 105 33;
#X obj 1843 1483 ctl.in 108 33;
#X obj 1931 1511 ctl.in 109 33;
#X obj 291 2195 ctl.in 86 33;
#X obj 458 2204 ctl.in 87 33;
#X obj 652 2197 ctl.in 14 33;
#X obj 819 2206 ctl.in 15 33;
#X obj 1003 2208 ctl.in 89 33;
#X obj 1178 2208 ctl.in 90 33;
#X obj 1343 2209 ctl.in 30 33;
#X obj 1518 2209 ctl.in 31 33;
#X obj 1416 1289 ctl.in 118 33;
#X obj 1151 1298 ctl.in 29 33;
#X obj 1279 1243 ctl.in 119 33;
#X obj 403 1702 sel 34;
#X obj 352 1702 sel 33;
#X obj 419 1607 + 1;
#X floatatom 1716 1171 5 0 0 0 - - - 12;
#X obj 1650 1024 bend.in -raw 33;
#X obj 361 1803 i;
#X obj 707 1996 shell, f 7;
#X obj 707 2058 print stdout;
#X obj 735 2029 print result;
#X msg 707 1964 aconnect -l;
#X obj 209 1620 loadbang;
#X obj 403 1803 i;
#X text 180 1595 default midi ch;
#X obj 39 1620 r midich_mnm_notes;
#X obj 39 1652 r midich_md_notes;
#X obj 1699 985 r midich_ml3;
#X obj 1747 728 r midich_ml3;
#X obj 374 1575 r midich_ml3;
#X obj 341 2126 r midich_ml3;
#X obj 1715 1213 r midich_ml3;
#X obj 2020 2009 r midich_ml3;
#X obj 687 566 r midich_ml3;
#X msg 246 1656 43;
#X msg 209 1656 41;
#X obj 1257 1972 s ctl.desired_seek_seg;
#X obj 2339 2492 s ctl.desired_mset;
#X obj 2019 2505 del 100;
#X obj 1975 2590 s em.set.fullreload;
#X obj 780 947 s scmgr.goawaytemp_param;
#X obj 833 1854 t f b, f 8;
#X obj 833 1933 s scmgr.temp_param.val;
#X obj 864 1964 s scmgr.temp;
#X obj 233 1368 t f b, f 8;
#X obj 233 1430 s scmgr.temp_param.val;
#X obj 264 1461 s scmgr.temp;
#X msg 864 1890 temp_param manual bpm chg;
#X msg 264 1404 temp_param manual tin;
#X obj 1572 1941 tosymbol;
#X obj 1572 2007 s scmgr.temp;
#X obj 1572 1976 prepend temp_simple;
#X obj 1572 1907 list append segment;
#X msg 1572 1871 inserted;
#X msg 1644 1871 deleted;
#X msg 1712 1871 pasted;
#X msg 1774 1871 copied;
#X obj 1481 936 t f b, f 8;
#X obj 1481 998 s scmgr.temp_param.val;
#X obj 1512 1029 s scmgr.temp;
#X msg 1512 972 temp_param hold;
#X obj 993 1315 s scmgr.temp;
#X msg 993 1290 temp_simple reset set;
#X obj 1989 1387 ctl.in 119 33;
#X obj 1996 1439 sel 127;
#X msg 1997 1469 get_mset_duration;
#X obj 1901 1692 sel insert delete paste copy get_mset_duration;
#X obj 2108 1726 bng 20 250 50 0 empty empty empty 0 -10 0 12 #fcfcfc #000000 #000000;
#X obj 2027 1766 t;
#X obj 1980 1770 t;
#X obj 1931 1775 t;
#X obj 1887 1777 t;
#X obj 2085 1766 s s.get_duration;
#X obj 2085 2125 sel 0;
#X obj 2039 2465 t b f;
#X obj 1981 2542 onebang;
#X obj 40 269 ctl.in 64 33;
#X obj 92 243 r midich_ml3;
#X obj 41 298 nbx 4 18 -1e+37 1e+37 0 0 empty empty empty 0 -8 0 10 #191919 #e1e1e1 #e1e1e1 0 256;
#X obj 99 300 nbx 4 18 -1e+37 1e+37 0 0 empty empty empty 0 -8 0 10 #191919 #e1e1e1 #e1e1e1 0 256;
#X obj 931 857 nbx 4 18 -1e+37 1e+37 0 0 empty empty empty 0 -8 0 10 #191919 #e1e1e1 #e1e1e1 0 256;
#X obj 56 411 s ctl.pedal_on;
#X obj 42 327 > 0;
#X obj 41 368 sel 1 0;
#X obj 38 436 s ctl.pedal_off;
#X obj 249 267 stripnote;
#X obj 250 293 nbx 4 18 -1e+37 1e+37 0 0 empty empty empty 0 -8 0 10 #191919 #e1e1e1 #e1e1e1 0 256;
#X obj 250 319 sel 36 37 38 39 40 41 42 43, f 35;
#X obj 249 353 bng 25 250 50 0 empty empty empty 17 7 0 10 #191919 #e1e1e1 #e1e1e1;
#X obj 281 353 bng 25 250 50 0 empty empty empty 17 7 0 10 #191919 #e1e1e1 #e1e1e1;
#X obj 308 353 bng 25 250 50 0 empty empty empty 17 7 0 10 #191919 #e1e1e1 #e1e1e1;
#X obj 333 353 bng 25 250 50 0 empty empty empty 17 7 0 10 #191919 #e1e1e1 #e1e1e1;
#X obj 363 353 bng 25 250 50 0 empty empty empty 17 7 0 10 #191919 #e1e1e1 #e1e1e1;
#X obj 392 353 bng 25 250 50 0 empty empty empty 17 7 0 10 #191919 #e1e1e1 #e1e1e1;
#X obj 419 353 bng 25 250 50 0 empty empty empty 17 7 0 10 #191919 #e1e1e1 #e1e1e1;
#X obj 449 353 bng 25 250 50 0 empty empty empty 17 7 0 10 #191919 #e1e1e1 #e1e1e1;
#X obj 248 243 note.in 26;
#X obj 296 209 r midich_ml3_pads;
#X text 357 123 - better implementation of ctl \, working closely with screens -;
#X text 61 183 screen select;
#X obj 390 404 s ctl.yes;
#X obj 366 428 s ctl.no;
#X connect 1 0 0 0;
#X connect 2 0 1 0;
#X connect 5 0 7 0;
#X connect 6 0 4 0;
#X connect 7 0 6 0;
#X connect 8 0 10 0;
#X connect 8 0 31 1;
#X connect 8 0 78 0;
#X connect 8 1 33 0;
#X connect 9 0 11 0;
#X connect 9 0 31 0;
#X connect 9 0 78 1;
#X connect 9 1 75 0;
#X connect 10 0 14 0;
#X connect 11 0 15 0;
#X connect 11 0 42 0;
#X connect 11 0 136 0;
#X connect 17 0 18 0;
#X connect 17 0 74 1;
#X connect 17 0 86 0;
#X connect 21 0 20 2;
#X connect 22 0 20 1;
#X connect 23 0 21 0;
#X connect 23 0 22 0;
#X connect 24 0 20 0;
#X connect 25 0 26 0;
#X connect 25 0 28 0;
#X connect 25 0 23 0;
#X connect 26 0 24 0;
#X connect 27 0 24 0;
#X connect 28 0 27 0;
#X connect 28 0 23 0;
#X connect 29 0 67 0;
#X connect 29 1 36 0;
#X connect 29 2 641 0;
#X connect 30 0 47 0;
#X connect 31 0 17 0;
#X connect 32 0 31 0;
#X connect 33 0 32 0;
#X connect 33 0 74 0;
#X connect 34 0 378 0;
#X connect 34 1 124 0;
#X connect 35 1 318 0;
#X connect 37 1 55 0;
#X connect 40 0 39 0;
#X connect 40 0 492 0;
#X connect 40 0 623 0;
#X connect 40 1 38 0;
#X connect 40 1 54 0;
#X connect 41 0 40 0;
#X connect 41 0 122 0;
#X connect 42 0 49 0;
#X connect 43 0 42 1;
#X connect 43 1 44 0;
#X connect 44 0 45 0;
#X connect 45 0 42 0;
#X connect 47 0 46 0;
#X connect 47 0 43 0;
#X connect 49 0 48 0;
#X connect 49 0 605 0;
#X connect 50 0 49 0;
#X connect 51 0 50 0;
#X connect 55 0 378 2;
#X connect 56 0 58 0;
#X connect 56 1 96 0;
#X connect 58 0 61 0;
#X connect 58 0 618 0;
#X connect 59 0 58 0;
#X connect 60 0 59 0;
#X connect 63 0 68 0;
#X connect 64 0 62 1;
#X connect 65 0 62 0;
#X connect 65 1 64 0;
#X connect 65 1 66 0;
#X connect 66 0 62 2;
#X connect 68 0 65 0;
#X connect 68 0 69 0;
#X connect 69 0 70 0;
#X connect 70 0 62 0;
#X connect 70 1 72 0;
#X connect 70 1 71 0;
#X connect 71 0 62 2;
#X connect 72 0 62 1;
#X connect 73 0 70 0;
#X connect 74 0 73 0;
#X connect 75 0 79 0;
#X connect 75 0 76 0;
#X connect 76 0 77 0;
#X connect 77 0 65 0;
#X connect 78 0 76 1;
#X connect 79 0 78 0;
#X connect 80 0 83 0;
#X connect 80 0 88 0;
#X connect 81 0 84 0;
#X connect 81 0 87 0;
#X connect 82 0 85 0;
#X connect 82 0 87 0;
#X connect 83 0 81 0;
#X connect 83 0 87 0;
#X connect 84 0 82 0;
#X connect 84 0 87 0;
#X connect 85 0 87 0;
#X connect 86 0 80 0;
#X connect 87 0 65 0;
#X connect 88 0 87 0;
#X connect 90 0 95 0;
#X connect 92 0 91 1;
#X connect 93 0 91 2;
#X connect 94 0 91 0;
#X connect 94 1 93 0;
#X connect 94 1 92 0;
#X connect 95 0 94 0;
#X connect 96 0 95 0;
#X connect 98 0 107 0;
#X connect 98 1 101 0;
#X connect 98 1 100 0;
#X connect 99 0 98 0;
#X connect 99 0 105 0;
#X connect 100 0 97 1;
#X connect 101 0 97 2;
#X connect 102 0 103 0;
#X connect 103 0 106 0;
#X connect 103 1 65 0;
#X connect 104 0 99 0;
#X connect 105 0 102 0;
#X connect 106 0 98 0;
#X connect 107 0 68 0;
#X connect 107 1 97 0;
#X connect 108 0 113 1;
#X connect 108 0 115 0;
#X connect 110 0 109 2;
#X connect 111 0 109 1;
#X connect 112 0 109 0;
#X connect 113 0 68 0;
#X connect 114 0 113 0;
#X connect 115 0 112 0;
#X connect 115 1 111 0;
#X connect 115 1 110 0;
#X connect 117 0 116 2;
#X connect 118 0 105 1;
#X connect 119 0 116 1;
#X connect 120 0 116 0;
#X connect 121 0 116 0;
#X connect 122 0 120 0;
#X connect 122 0 123 0;
#X connect 122 1 119 0;
#X connect 122 1 117 0;
#X connect 123 0 121 0;
#X connect 124 0 125 0;
#X connect 129 0 131 0;
#X connect 129 0 135 0;
#X connect 129 1 130 0;
#X connect 129 1 133 0;
#X connect 130 0 219 0;
#X connect 131 0 130 0;
#X connect 136 0 17 0;
#X connect 137 0 136 1;
#X connect 138 0 155 0;
#X connect 139 0 140 0;
#X connect 140 0 205 1;
#X connect 141 2 142 0;
#X connect 142 0 145 1;
#X connect 144 0 146 0;
#X connect 145 0 147 0;
#X connect 145 0 143 0;
#X connect 145 0 149 0;
#X connect 146 0 145 0;
#X connect 146 0 150 0;
#X connect 147 0 148 0;
#X connect 147 1 144 0;
#X connect 148 0 145 0;
#X connect 151 0 145 0;
#X connect 152 0 151 0;
#X connect 155 0 156 0;
#X connect 155 1 157 0;
#X connect 155 1 166 0;
#X connect 156 0 157 0;
#X connect 157 0 180 0;
#X connect 157 0 206 0;
#X connect 157 0 226 1;
#X connect 158 0 160 0;
#X connect 159 0 158 1;
#X connect 159 0 162 1;
#X connect 160 0 176 0;
#X connect 161 0 176 0;
#X connect 162 0 161 0;
#X connect 163 0 158 0;
#X connect 163 0 164 0;
#X connect 163 1 162 0;
#X connect 163 1 165 0;
#X connect 166 0 222 0;
#X connect 167 0 172 0;
#X connect 167 0 168 0;
#X connect 167 0 494 0;
#X connect 168 0 154 0;
#X connect 169 0 597 0;
#X connect 170 2 169 0;
#X connect 172 0 173 0;
#X connect 173 0 171 0;
#X connect 174 0 176 1;
#X connect 175 0 174 0;
#X connect 176 0 177 0;
#X connect 177 0 178 0;
#X connect 178 0 170 0;
#X connect 178 0 167 1;
#X connect 178 0 162 1;
#X connect 178 0 158 1;
#X connect 181 0 193 1;
#X connect 181 1 194 1;
#X connect 181 2 573 0;
#X connect 181 2 574 0;
#X connect 183 0 196 1;
#X connect 183 1 197 1;
#X connect 183 1 200 0;
#X connect 183 2 573 0;
#X connect 183 2 574 0;
#X connect 184 0 195 1;
#X connect 184 1 573 0;
#X connect 184 1 574 0;
#X connect 190 0 199 0;
#X connect 191 0 199 0;
#X connect 192 0 190 0;
#X connect 193 0 182 0;
#X connect 194 0 182 1;
#X connect 195 0 185 0;
#X connect 196 0 189 0;
#X connect 197 0 189 1;
#X connect 198 0 191 0;
#X connect 199 0 196 0;
#X connect 199 0 197 0;
#X connect 199 0 195 0;
#X connect 199 0 194 0;
#X connect 199 0 193 0;
#X connect 200 0 203 0;
#X connect 200 1 201 0;
#X connect 201 0 202 0;
#X connect 202 0 204 0;
#X connect 203 0 204 0;
#X connect 204 0 197 0;
#X connect 204 0 196 0;
#X connect 205 0 207 0;
#X connect 205 1 221 0;
#X connect 205 1 225 0;
#X connect 206 0 205 0;
#X connect 207 0 208 0;
#X connect 207 0 211 0;
#X connect 207 1 209 0;
#X connect 207 1 212 0;
#X connect 210 0 211 1;
#X connect 210 0 212 1;
#X connect 211 0 213 0;
#X connect 212 0 214 0;
#X connect 213 0 218 0;
#X connect 214 0 218 0;
#X connect 215 0 216 0;
#X connect 215 0 230 0;
#X connect 215 0 602 0;
#X connect 217 0 215 0;
#X connect 218 0 217 0;
#X connect 220 0 221 1;
#X connect 220 0 222 1;
#X connect 220 0 223 0;
#X connect 221 0 163 0;
#X connect 221 0 224 0;
#X connect 222 0 167 0;
#X connect 222 0 402 0;
#X connect 222 0 493 0;
#X connect 226 0 227 0;
#X connect 227 0 228 0;
#X connect 227 0 167 0;
#X connect 227 0 402 0;
#X connect 228 0 138 0;
#X connect 229 0 138 0;
#X connect 229 0 227 0;
#X connect 231 0 232 0;
#X connect 232 0 233 1;
#X connect 232 0 241 1;
#X connect 232 0 253 1;
#X connect 232 0 248 1;
#X connect 232 0 266 1;
#X connect 232 0 269 1;
#X connect 232 0 278 1;
#X connect 232 0 281 1;
#X connect 233 0 518 0;
#X connect 234 0 233 0;
#X connect 235 0 236 0;
#X connect 236 0 237 0;
#X connect 236 0 238 0;
#X connect 236 0 240 0;
#X connect 240 0 239 0;
#X connect 241 0 247 0;
#X connect 242 0 241 0;
#X connect 243 0 244 0;
#X connect 244 0 246 0;
#X connect 246 0 245 0;
#X connect 247 0 243 0;
#X connect 248 0 261 0;
#X connect 249 0 248 0;
#X connect 250 0 251 0;
#X connect 251 0 263 0;
#X connect 253 0 265 0;
#X connect 254 0 253 0;
#X connect 255 0 256 0;
#X connect 256 0 264 0;
#X connect 258 0 252 0;
#X connect 259 0 257 0;
#X connect 260 0 258 0;
#X connect 261 0 250 0;
#X connect 262 0 259 0;
#X connect 263 0 260 0;
#X connect 263 1 260 1;
#X connect 264 0 262 0;
#X connect 264 1 262 1;
#X connect 265 0 255 0;
#X connect 266 0 276 0;
#X connect 267 0 266 0;
#X connect 269 0 277 0;
#X connect 270 0 269 0;
#X connect 272 0 273 0;
#X connect 273 0 268 0;
#X connect 274 0 275 0;
#X connect 274 0 298 0;
#X connect 275 0 271 0;
#X connect 276 0 272 0;
#X connect 277 0 274 0;
#X connect 278 0 290 0;
#X connect 279 0 278 0;
#X connect 281 0 293 0;
#X connect 282 0 281 0;
#X connect 284 0 280 0;
#X connect 284 0 292 0;
#X connect 285 0 283 0;
#X connect 285 0 292 0;
#X connect 286 0 287 0;
#X connect 287 0 284 0;
#X connect 288 0 289 0;
#X connect 289 0 285 0;
#X connect 290 0 286 0;
#X connect 292 0 295 0;
#X connect 292 0 296 0;
#X connect 293 0 288 0;
#X connect 294 0 291 0;
#X connect 294 0 295 1;
#X connect 295 0 291 0;
#X connect 296 0 294 0;
#X connect 296 1 297 0;
#X connect 297 0 294 0;
#X connect 299 0 300 0;
#X connect 299 1 301 0;
#X connect 299 2 302 0;
#X connect 303 0 305 0;
#X connect 304 0 336 0;
#X connect 305 0 304 1;
#X connect 305 0 312 0;
#X connect 305 0 350 1;
#X connect 306 0 304 0;
#X connect 307 0 306 0;
#X connect 307 1 350 0;
#X connect 308 0 423 0;
#X connect 308 1 350 0;
#X connect 309 0 310 0;
#X connect 309 1 350 0;
#X connect 310 0 304 0;
#X connect 311 0 304 0;
#X connect 313 0 314 0;
#X connect 314 0 315 1;
#X connect 314 0 316 1;
#X connect 314 0 317 1;
#X connect 314 0 318 1;
#X connect 314 0 322 0;
#X connect 314 0 601 0;
#X connect 315 0 8 0;
#X connect 316 0 9 0;
#X connect 317 0 34 0;
#X connect 318 0 37 0;
#X connect 319 0 320 0;
#X connect 320 0 321 1;
#X connect 321 0 56 0;
#X connect 323 0 324 0;
#X connect 323 0 325 0;
#X connect 324 1 305 0;
#X connect 326 0 376 0;
#X connect 326 1 350 0;
#X connect 327 1 329 0;
#X connect 328 0 376 2;
#X connect 329 0 331 0;
#X connect 330 0 311 0;
#X connect 331 1 328 0;
#X connect 332 0 337 0;
#X connect 332 0 372 0;
#X connect 332 0 424 0;
#X connect 332 0 632 0;
#X connect 333 0 337 0;
#X connect 333 0 375 0;
#X connect 333 0 631 0;
#X connect 334 0 337 0;
#X connect 334 0 361 0;
#X connect 334 0 372 0;
#X connect 334 0 630 0;
#X connect 335 0 337 0;
#X connect 335 0 357 0;
#X connect 335 0 629 0;
#X connect 336 0 627 0;
#X connect 339 0 338 2;
#X connect 340 0 343 0;
#X connect 340 0 338 0;
#X connect 341 0 338 1;
#X connect 342 0 340 0;
#X connect 342 0 339 0;
#X connect 342 0 364 0;
#X connect 342 0 366 0;
#X connect 343 0 345 0;
#X connect 344 0 338 0;
#X connect 345 0 344 0;
#X connect 346 0 338 1;
#X connect 347 0 338 1;
#X connect 348 0 338 1;
#X connect 349 0 337 0;
#X connect 350 0 349 0;
#X connect 353 0 358 0;
#X connect 354 0 351 0;
#X connect 355 0 365 0;
#X connect 356 0 506 0;
#X connect 357 0 354 0;
#X connect 359 0 360 0;
#X connect 360 0 358 1;
#X connect 360 0 371 0;
#X connect 361 0 353 0;
#X connect 364 0 362 0;
#X connect 365 0 356 0;
#X connect 366 0 363 0;
#X connect 368 0 367 0;
#X connect 370 0 369 0;
#X connect 371 0 368 1;
#X connect 372 0 368 0;
#X connect 372 0 373 0;
#X connect 373 0 370 0;
#X connect 375 0 374 0;
#X connect 376 0 377 0;
#X connect 377 0 330 0;
#X connect 378 0 379 0;
#X connect 379 0 41 0;
#X connect 380 0 381 0;
#X connect 381 0 386 0;
#X connect 382 0 383 0;
#X connect 383 0 392 0;
#X connect 384 0 392 0;
#X connect 385 0 384 0;
#X connect 386 0 382 0;
#X connect 386 0 387 0;
#X connect 386 1 385 0;
#X connect 386 1 388 0;
#X connect 390 0 389 0;
#X connect 390 0 417 0;
#X connect 391 0 392 1;
#X connect 392 0 393 0;
#X connect 393 0 394 0;
#X connect 394 0 385 1;
#X connect 394 0 382 1;
#X connect 394 0 635 0;
#X connect 396 0 382 1;
#X connect 396 0 385 1;
#X connect 397 0 391 0;
#X connect 398 0 138 0;
#X connect 399 0 139 0;
#X connect 400 0 398 1;
#X connect 400 0 399 1;
#X connect 400 0 402 1;
#X connect 401 0 380 0;
#X connect 402 0 167 0;
#X connect 403 0 401 1;
#X connect 403 0 405 0;
#X connect 404 0 400 0;
#X connect 405 0 634 0;
#X connect 406 0 408 0;
#X connect 407 0 415 0;
#X connect 408 0 409 0;
#X connect 409 0 410 0;
#X connect 410 0 412 0;
#X connect 411 0 413 0;
#X connect 412 0 414 0;
#X connect 412 0 418 0;
#X connect 413 0 598 0;
#X connect 414 0 411 0;
#X connect 415 0 406 0;
#X connect 415 1 410 1;
#X connect 418 0 421 0;
#X connect 419 0 420 0;
#X connect 420 0 390 0;
#X connect 421 0 422 0;
#X connect 422 0 416 0;
#X connect 423 0 304 0;
#X connect 424 0 468 0;
#X connect 424 1 361 0;
#X connect 424 2 357 0;
#X connect 425 0 452 0;
#X connect 426 0 462 0;
#X connect 428 0 436 0;
#X connect 429 0 432 0;
#X connect 430 0 434 0;
#X connect 432 0 428 0;
#X connect 432 1 428 1;
#X connect 433 0 435 2;
#X connect 434 0 435 0;
#X connect 435 0 429 0;
#X connect 435 0 431 0;
#X connect 436 0 427 0;
#X connect 438 0 463 0;
#X connect 439 0 426 0;
#X connect 439 0 438 0;
#X connect 440 0 465 0;
#X connect 441 0 426 1;
#X connect 442 0 438 1;
#X connect 443 0 445 0;
#X connect 444 0 446 0;
#X connect 445 0 448 0;
#X connect 446 0 449 0;
#X connect 446 0 455 0;
#X connect 447 0 446 4;
#X connect 448 0 444 0;
#X connect 448 1 447 0;
#X connect 448 1 453 1;
#X connect 448 1 458 1;
#X connect 449 0 450 0;
#X connect 450 0 425 0;
#X connect 450 1 451 0;
#X connect 451 0 425 1;
#X connect 452 0 453 0;
#X connect 453 0 441 1;
#X connect 454 0 457 0;
#X connect 455 0 456 0;
#X connect 456 0 454 0;
#X connect 456 1 459 0;
#X connect 457 0 458 0;
#X connect 458 0 442 1;
#X connect 459 0 454 1;
#X connect 460 0 458 0;
#X connect 460 0 453 0;
#X connect 461 0 443 0;
#X connect 462 0 472 0;
#X connect 462 0 475 0;
#X connect 463 0 472 0;
#X connect 463 0 474 0;
#X connect 464 0 470 0;
#X connect 465 0 466 0;
#X connect 465 1 439 0;
#X connect 465 2 442 0;
#X connect 465 2 441 0;
#X connect 465 3 461 0;
#X connect 466 0 464 0;
#X connect 466 1 473 0;
#X connect 468 0 440 0;
#X connect 469 0 467 0;
#X connect 469 0 471 0;
#X connect 470 0 467 0;
#X connect 470 0 471 0;
#X connect 473 0 469 0;
#X connect 474 0 473 1;
#X connect 475 0 464 1;
#X connect 476 0 478 1;
#X connect 477 0 478 0;
#X connect 478 0 479 0;
#X connect 478 0 480 0;
#X connect 479 0 482 0;
#X connect 480 0 481 0;
#X connect 481 0 483 0;
#X connect 482 0 484 0;
#X connect 483 0 485 0;
#X connect 484 0 485 0;
#X connect 485 0 486 0;
#X connect 485 0 576 0;
#X connect 486 0 490 0;
#X connect 486 1 487 0;
#X connect 487 0 490 0;
#X connect 488 0 167 0;
#X connect 488 1 489 0;
#X connect 489 0 163 0;
#X connect 490 0 488 0;
#X connect 492 0 491 0;
#X connect 495 0 167 0;
#X connect 496 0 497 0;
#X connect 497 0 498 1;
#X connect 498 0 499 0;
#X connect 499 0 501 0;
#X connect 500 0 359 0;
#X connect 500 0 375 1;
#X connect 500 0 357 1;
#X connect 500 0 504 0;
#X connect 501 0 505 0;
#X connect 501 1 503 0;
#X connect 502 0 503 1;
#X connect 503 0 500 1;
#X connect 505 0 500 1;
#X connect 506 0 500 0;
#X connect 506 1 498 0;
#X connect 506 2 502 0;
#X connect 506 2 505 1;
#X connect 508 0 516 0;
#X connect 509 0 510 0;
#X connect 510 0 507 0;
#X connect 512 0 514 0;
#X connect 513 0 507 0;
#X connect 514 0 513 0;
#X connect 515 0 510 0;
#X connect 516 0 517 0;
#X connect 516 1 515 0;
#X connect 517 0 509 0;
#X connect 518 0 522 0;
#X connect 519 0 520 0;
#X connect 520 0 235 0;
#X connect 520 1 521 0;
#X connect 521 0 235 0;
#X connect 522 0 519 0;
#X connect 522 1 235 1;
#X connect 523 0 316 0;
#X connect 524 0 315 0;
#X connect 525 0 17 0;
#X connect 526 0 317 0;
#X connect 528 0 321 0;
#X connect 529 0 167 0;
#X connect 534 0 532 0;
#X connect 535 0 530 0;
#X connect 536 0 535 0;
#X connect 537 0 531 0;
#X connect 538 0 537 0;
#X connect 539 0 540 0;
#X connect 539 1 540 0;
#X connect 540 0 533 0;
#X connect 541 0 539 0;
#X connect 543 0 542 0;
#X connect 544 0 543 0;
#X connect 546 0 545 0;
#X connect 547 0 550 0;
#X connect 548 0 547 0;
#X connect 549 0 129 0;
#X connect 549 0 134 0;
#X connect 551 0 550 0;
#X connect 552 0 542 0;
#X connect 553 0 533 0;
#X connect 554 0 531 0;
#X connect 555 0 530 0;
#X connect 556 0 401 0;
#X connect 557 0 326 0;
#X connect 558 0 309 0;
#X connect 559 0 308 0;
#X connect 560 0 307 0;
#X connect 561 0 303 0;
#X connect 562 0 249 0;
#X connect 563 0 254 0;
#X connect 564 0 234 0;
#X connect 565 0 242 0;
#X connect 566 0 267 0;
#X connect 567 0 270 0;
#X connect 568 0 279 0;
#X connect 569 0 282 0;
#X connect 570 0 226 0;
#X connect 571 0 399 0;
#X connect 572 0 398 0;
#X connect 573 0 191 0;
#X connect 573 0 584 0;
#X connect 573 1 192 0;
#X connect 574 0 191 0;
#X connect 574 0 578 0;
#X connect 575 0 573 1;
#X connect 577 0 477 0;
#X connect 578 0 182 2;
#X connect 578 0 185 1;
#X connect 578 0 189 2;
#X connect 579 0 580 0;
#X connect 579 1 581 0;
#X connect 582 0 579 0;
#X connect 583 0 596 0;
#X connect 583 0 595 0;
#X connect 584 0 182 2;
#X connect 584 0 189 2;
#X connect 584 0 185 1;
#X connect 586 0 578 1;
#X connect 587 0 584 1;
#X connect 588 0 577 1;
#X connect 589 0 142 1;
#X connect 590 0 574 1;
#X connect 590 0 575 0;
#X connect 591 0 569 2;
#X connect 591 0 567 2;
#X connect 591 0 568 2;
#X connect 591 0 566 2;
#X connect 591 0 565 2;
#X connect 591 0 564 2;
#X connect 591 0 563 2;
#X connect 591 0 562 2;
#X connect 592 0 557 2;
#X connect 592 0 558 2;
#X connect 592 0 559 2;
#X connect 592 0 560 2;
#X connect 592 0 561 2;
#X connect 592 0 570 2;
#X connect 592 0 571 2;
#X connect 592 0 572 2;
#X connect 592 0 624 2;
#X connect 593 0 556 2;
#X connect 594 0 551 2;
#X connect 594 0 552 2;
#X connect 594 0 553 2;
#X connect 594 0 554 2;
#X connect 594 0 555 2;
#X connect 595 0 584 1;
#X connect 596 0 578 1;
#X connect 599 0 636 1;
#X connect 602 0 603 0;
#X connect 602 1 608 0;
#X connect 605 0 606 0;
#X connect 605 1 609 0;
#X connect 608 0 604 0;
#X connect 609 0 607 0;
#X connect 610 0 612 0;
#X connect 612 0 611 0;
#X connect 613 0 610 0;
#X connect 614 0 613 0;
#X connect 615 0 613 0;
#X connect 616 0 613 0;
#X connect 617 0 613 0;
#X connect 618 0 619 0;
#X connect 618 1 621 0;
#X connect 621 0 620 0;
#X connect 623 0 622 0;
#X connect 624 0 625 0;
#X connect 625 0 626 0;
#X connect 626 0 304 0;
#X connect 627 0 332 0;
#X connect 627 1 333 0;
#X connect 627 2 334 0;
#X connect 627 3 335 0;
#X connect 627 4 628 0;
#X connect 628 0 633 0;
#X connect 629 0 342 0;
#X connect 629 0 617 0;
#X connect 629 1 341 0;
#X connect 630 0 342 0;
#X connect 630 0 616 0;
#X connect 630 1 346 0;
#X connect 631 0 342 0;
#X connect 631 0 615 0;
#X connect 631 1 347 0;
#X connect 632 0 342 0;
#X connect 632 0 614 0;
#X connect 632 1 348 0;
#X connect 634 0 636 0;
#X connect 635 0 599 0;
#X connect 635 1 407 0;
#X connect 636 0 600 0;
#X connect 637 0 639 0;
#X connect 637 1 640 0;
#X connect 638 0 637 2;
#X connect 639 0 643 0;
#X connect 643 0 644 0;
#X connect 644 0 645 0;
#X connect 644 1 642 0;
#X connect 646 0 647 0;
#X connect 647 0 648 0;
#X connect 648 0 649 0;
#X connect 648 1 650 0;
#X connect 648 2 651 0;
#X connect 648 3 652 0;
#X connect 648 4 653 0;
#X connect 648 5 654 0;
#X connect 648 6 655 0;
#X connect 648 7 656 0;
#X connect 653 0 662 0;
#X connect 654 0 661 0;
#X connect 657 0 646 0;
#X connect 657 1 646 1;
#X connect 658 0 657 1;
