#N canvas 1440 0 1600 836 emsys_debug 1;
#X obj 375 209 cnv 15 114 190 empty empty empty 20 12 0 14 #e3d9dc #5a5a5a 0;
#X obj 43 95 loadbang;
#X obj 570 38 notein;
#X msg 570 129 note: \$1 \, vel: \$2 \, ch: \$3;
#X obj 570 90 pack f f f;
#X obj 567 173 spigot;
#X obj 42 154 print sys;
#X msg 43 125 welcome;
#X obj 393 359 tgl 20 0 empty empty debug\ MIDI 0 -10 0 12 #000000 #dfdfdf #ba51a8 0 1;
#X obj 134 86 r to-mcl;
#X obj 134 117 print to-mcl;
#X obj 136 146 r from-mcl;
#X obj 136 177 print from-mcl;
#X obj 570 199 print from-midi;
#X msg 673 53 pgm \$1;
#X obj 269 154 spigot;
#X obj 393 281 tgl 20 0 empty empty debug\ rt\ MIDI 0 -10 0 12 #000000 #dfdfdf #ba51a8 0 1;
#X obj 256 60 midirealtimein;
#X obj 258 102 sel 248;
#X obj 423 68 sysexin;
#X obj 416 183 print from-sysex;
#X obj 674 21 pgmin;
#X obj 671 88 print from-midi;
#X obj 262 188 print from-midi_rt;
#X obj 422 139 spigot;
#X obj 393 318 tgl 20 0 empty empty debug\ sysex 0 -10 0 12 #000000 #dfdfdf #ba51a8 0 1;
#X obj 385 534 dac~, f 17;
#X obj 415 436 adc~ 3 4;
#X obj 393 237 tgl 25 0 empty empty monitor\ audio -6 -9 0 15 #191919 #00c5ff #ba51a8 0 1;
#X obj 474 498 xgate~ 1 250;
#X obj 385 499 xgate~ 1 250;
#X connect 1 0 7 0;
#X connect 2 0 4 0;
#X connect 2 1 4 1;
#X connect 2 2 4 2;
#X connect 3 0 5 0;
#X connect 4 0 3 0;
#X connect 5 0 13 0;
#X connect 7 0 6 0;
#X connect 8 0 5 1;
#X connect 9 0 10 0;
#X connect 11 0 12 0;
#X connect 14 0 22 0;
#X connect 15 0 23 0;
#X connect 16 0 15 1;
#X connect 17 0 18 0;
#X connect 18 1 15 0;
#X connect 19 0 24 0;
#X connect 21 0 14 0;
#X connect 24 0 20 0;
#X connect 25 0 24 1;
#X connect 27 0 30 0;
#X connect 27 1 29 0;
#X connect 28 0 29 0;
#X connect 28 0 30 0;
#X connect 29 0 26 1;
#X connect 30 0 26 0;
#X coords 0 0 1 1 88 171 2 388 217;
