#N canvas 1440 0 1600 836 12;
#X obj 374 209 cnv 15 136 61 empty empty debug 3 8 0 12 #191919 #ffffff 0;
#X obj 239 194 loadbang;
#X obj 554 299 notein;
#X msg 554 359 note: \$1 \, vel: \$2 \, ch: \$3;
#X obj 554 329 pack f f f;
#X obj 554 389 spigot, f 15;
#X obj 239 254 print sys;
#X msg 239 224 welcome;
#X obj 404 224 tgl 31 0 debug_midi_ui_out debug_midi_ui midi 5 14 0 12 #000000 #dfdfdf #ba51a8 0 1;
#X obj 554 419 print from-midi;
#X obj 584 524 spigot, f 8;
#X obj 434 224 tgl 31 0 debug_rt_ui_out debug_rt_ui rt 11 14 0 12 #000000 #dfdfdf #ba51a8 0 1;
#X obj 554 464 midirealtimein;
#X obj 554 494 sel 248;
#X obj 554 194 sysexin;
#X obj 554 254 print from-sysex;
#X obj 584 554 print from-midi_rt;
#X obj 554 224 spigot, f 11;
#X obj 464 224 tgl 31 0 debug_syx_ui_out debug_syx_ui syx 5 14 0 12 #000000 #dfdfdf #ba51a8 0 1;
#X obj 794 269 dac~, f 15;
#X obj 794 194 adc~ 3 4, f 15;
#X obj 374 224 tgl 31 0 debug_audio_ui_out debug_audio_ui audio 3 14 0 10 #191919 #00c5ff #ba51a8 0 1;
#X obj 884 239 xgate~ 1 250;
#X obj 794 239 xgate~ 1 250;
#X obj 989 239 loadmess 0;
#X obj 614 194 r debug_syx_ui_out;
#X obj 989 269 s debug_audio_ui;
#X obj 914 194 r debug_audio_ui_out;
#X obj 644 329 r debug_midi_ui_out;
#X obj 614 494 r debug_rt_ui_out;
#X connect 1 0 7 0;
#X connect 2 0 4 0;
#X connect 2 1 4 1;
#X connect 2 2 4 2;
#X connect 3 0 5 0;
#X connect 4 0 3 0;
#X connect 5 0 9 0;
#X connect 7 0 6 0;
#X connect 10 0 16 0;
#X connect 12 0 13 0;
#X connect 13 1 10 0;
#X connect 14 0 17 0;
#X connect 17 0 15 0;
#X connect 20 0 23 0;
#X connect 20 1 22 0;
#X connect 22 0 19 1;
#X connect 23 0 19 0;
#X connect 24 0 26 0;
#X connect 25 0 17 1;
#X connect 27 0 23 0;
#X connect 27 0 22 0;
#X connect 28 0 5 1;
#X connect 29 0 10 1;
#X coords 0 0 1 1 122 47 1 373 207;
