#N canvas 1440 0 1600 836 12;
#X obj 239 194 loadbang;
#X obj 239 254 print sys;
#X msg 239 224 welcome;
#X obj 239 374 dac~, f 15;
#X obj 239 299 adc~ 3 4, f 15;
#X obj 376 224 tgl 31 0 debug_audio_ui_out debug_audio_ui 音 3 16 0 25 #191919 #00c5ff #d35cbf 0 1;
#X obj 329 344 xgate~ 1 250;
#X obj 239 344 xgate~ 1 250;
#X obj 434 344 loadmess 0;
#X obj 434 374 s debug_audio_ui;
#X obj 359 299 r debug_audio_ui_out;
#X obj 411 224 tgl 31 0 internal_clock_toggle empty 内 3 16 0 25 #ffffff #42ffe7 #000000 0 1;
#X connect 0 0 2 0;
#X connect 2 0 1 0;
#X connect 4 0 7 0;
#X connect 4 1 6 0;
#X connect 6 0 3 1;
#X connect 7 0 3 0;
#X connect 8 0 9 0;
#X connect 10 0 7 0;
#X connect 10 0 6 0;
#X coords 0 0 1 1 122 55 1 373 207;
