#N canvas 2038 974 1024 344 12;
#X text 1269 2291 ., f 3;
#X obj 289 1 em.transport;
#X obj 1 128 em.tin;
#X obj 1 1 em.set;
#X text 524 13 concern: tins seem to still go through on mcl loads sometimes \, or just miss sending the stop signal... either way \, sometimes i hear 'doubled up' kicks in the patterns indicating the stop signal is not going through. not sure why this is happening.;
#X text 524 88 todo: make it so that the pi runs this patch automatically with all the prerequisites it needs to work out of the box;
#X obj -1 269 em.dev;
#X obj -151 29 loadmess 1;
#X obj -151 59 pipe 250;
#X text 524 133 bug: starting up on the pi \, the midi latency calibration gets really fucked up during the lag spike of connecting the midi devices \, causing mistimed tins;
#X text 524 193 todo: make midi_setup script not mind if one of the devices aren't connected - still connect what it can;
#X text 524 238 concern: stress test the midi devices messing up on the pi at boot to make sure that doesn't repeat later on;
#X obj 450 212 bng 31 250 50 0 shutdown empty shutdown -7 -6 0 10 #d82332 #e1e1e1 #e1e1e1;
#X obj -151 224 shell;
#X obj -151 164 r shutdown;
#X msg -151 194 sudo shutdown now;
#X text 3 208 1) wait for system to settle \; 2) verify latency calibration;
#X obj -151 89 dsp;
#X floatatom 404 224 5 0 0 2 cpu cpu_indicator - 0;
#X obj -151 119 s cpu_indicator;
#X connect 7 0 8 0;
#X connect 8 0 17 0;
#X connect 14 0 15 0;
#X connect 15 0 13 0;
#X connect 17 0 19 0;
#X coords 0 -1 1 1 494 252 2 0 0;
