#N canvas 0 32 1680 950 12;
#X text 1321 2326 ., f 3;
#X obj 530 233 em.transport;
#X obj 304 385 em.tin;
#X obj 659 233 em.debug;
#X obj 304 230 em.set;
#X text 829 292 todo: make the megaCMD MIDI device be picked up automatically, f 31;
#X text 829 344 todo: have the 'continue' transport function play nice with the beat counter, f 36;
#X coords 0 0 1 1 454 365 2 301 228;
