#N canvas 733 172 450 300 12;
#X obj 659 359 pdcontrol;
#X msg 659 329 dir;
#X obj 659 389 list fromsymbol;
#X obj 554 434 list prepend, f 17;
#X obj 554 389 list fromsymbol;
#X obj 554 359 tosymbol;
#X obj 554 464 list tosymbol;
#X obj 554 494 fromsymbol;
#X msg 554 329 /remote.sh \$1;
#X obj 554 284 t s b;
#X obj 554 254 tosymbol;
#X obj 554 224 inlet;
#X obj 569 599 outlet;
#X obj 554 524 shell, f 8;
#X obj 614 599 outlet;
#X obj 434 569 print em.remote;
#X obj 434 599 print em.remote_exit;
#X connect 0 0 2 0;
#X connect 1 0 0 0;
#X connect 2 0 3 1;
#X connect 3 0 6 0;
#X connect 4 0 3 0;
#X connect 5 0 4 0;
#X connect 6 0 7 0;
#X connect 7 0 13 0;
#X connect 8 0 5 0;
#X connect 9 0 8 0;
#X connect 9 1 1 0;
#X connect 10 0 9 0;
#X connect 11 0 10 0;
#X connect 13 0 12 0;
#X connect 13 0 15 0;
#X connect 13 1 14 0;
#X connect 13 1 16 0;
