#N canvas 1799 1070 1079 633 8;
#X obj -73 507 pgmout 15;
#X obj -117 413 f;
#X obj -466 209 text get set, f 21;
#X floatatom -466 179 5 0 129 0 - - - 12;
#X obj -436 284 list;
#X obj -466 314 list trim;
#X floatatom -496 419 5 0 0 0 md - - 12;
#X floatatom -421 419 5 0 0 0 mnm - - 12;
#X floatatom -346 389 5 0 0 2 rep - - 12;
#X floatatom -316 389 5 0 0 2 len - - 12;
#X floatatom -286 389 5 0 0 2 tin - - 12;
#X obj -376 254 sel 2;
#X obj -556 389 bng 25 250 50 0 empty empty empty 17 7 0 10 #191919 #e1e1e1 #e1e1e1;
#X obj -661 584 counter 0 0 3;
#X obj -886 794 sel 3, f 15;
#X obj -13 432 f;
#X obj -13 372 bng 25 250 50 0 empty empty pgmout\ bang 27 12 0 10 #191919 #e1e1e1 #be5000;
#X obj -461 39 bng 25 250 50 0 empty empty cont 0 -8 0 12 #191919 #e1e1e1 #9ead00;
#X obj -411 39 bng 25 250 50 0 empty empty reset 0 -8 0 12 #191919 #e1e1e1 #e10d00;
#X obj -466 119 counter;
#X obj -426 74 t;
#X obj -481 509 f;
#X obj -406 509 f;
#X obj -331 509 f;
#X obj -526 884 sel 0;
#X obj -526 854 change;
#X obj -586 974 s stop;
#X obj -526 914 onebang;
#X obj -466 254 list split 2;
#X obj -271 -61 onebang, f 15;
#X obj -721 614 sel 0;
#X obj -346 14 t b b;
#X msg -271 -121 stop;
#X msg -586 884 stop;
#X obj 674 597 text define set;
#X symbolatom 149 239 13 0 0 0 set set_name_ui set_name_ui_out 12;
#X obj 944 299 list fromsymbol;
#X obj 1064 314 list fromsymbol;
#X obj 1049 239 t, f 7;
#X obj 944 330 list append, f 20;
#X obj 944 389 list tosymbol;
#X msg 674 569 read \$1;
#X obj 749 631 bng 25 250 50 0 empty empty empty 17 7 0 10 #191919 #e1e1e1 #e1e1e1;
#X msg 1064 284 symbol .mset;
#X obj -256 -91 r load;
#X text -436 -197 note: only progress set when end of 'repeats' is cleared (onebang) \, then trigger change on load beat, f 30;
#X msg -586 809 set -1;
#X obj -586 749 < 1;
#X obj -586 779 sel 1;
#X obj -796 479 r beat1;
#X obj -406 539 s beat_len;
#X obj 1199 314 list fromsymbol;
#X obj 944 359 list prepend, f 21;
#X obj 419 119 pgm2bank;
#X obj 254 119 pgm2bank;
#X obj 254 149 s md_bank_label;
#X obj 419 149 s mnm_bank_label;
#X symbolatom 449 249 6 0 0 0 MD md_bank_label - 12;
#X symbolatom 451 271 6 0 0 0 MnM mnm_bank_label - 12;
#X obj -586 284 s current_seg;
#X obj 339 -51 r current_seg;
#X obj 219 239 bng 21 250 50 0 open_mset_btn empty 開 3 10 0 15 #696969 #000000 #fffbfb;
#X msg 809 374 set \$1;
#X obj 289 239 bng 31 250 50 0 resat reset ⟳ 5 14 0 35 #cb0006 #fff1e7 #e1dac6;
#X obj 132 311 hsl 226 14 0 2 0 0 set_rep set_rep_ui >rep 235 11 0 8 #1c1c1c #00c4ff #e1559a 0 1;
#X obj 594 734 t b f;
#X msg 594 794 range \$1 \$2;
#X obj 594 764 pack 0 127, f 16;
#X obj -886 704 f, f 12;
#X text -1036 703 fix: check that this is last seg a little after the seg starts \, in case the first check is too early before the rep info gets loaded, f 26;
#X obj -886 644 r beat1;
#X obj -886 674 del 50;
#X text -466 688 fix: if last seg's rep length is 1 \, make sure we end the set by setting [change] to -1 so it's guaranteed to detect the change, f 17;
#X obj -117 449 s md_pgmout;
#X obj -13 477 s mnm_pgmout;
#X obj 314 89 r md_pgmout;
#X obj 479 89 r mnm_pgmout;
#X obj 92 507 pgmout 14;
#X obj -436 389 bank2pgm;
#X obj -511 389 bank2pgm;
#X obj 629 314 symbol;
#X obj 629 374 shell;
#X obj 239 239 bng 21 250 50 0 edit_mset_btn empty 編 3 10 0 15 #696969 #000000 #fffbfb;
#X obj 629 344 prepend xdg-open;
#X obj -796 509 onebang, f 16;
#X obj -736 479 r downbeat;
#X obj -586 239 s current_seg_id;
#X obj -586 211 + 1;
#X obj 629 -96 r current_seg_id;
#X floatatom 149 259 5 0 0 0 seg seg_id_ui seg_id_ui_out 12;
#X obj 689 -31 text size set;
#X floatatom 179 259 5 0 0 1 (total) seg_total_ui - 12;
#X obj 329 239 tgl 31 0 seg_held seg_hold 止 4 16 0 24 #214b6e #e1e1e1 #00c4ff 0 1;
#X obj -346 -16 gate 1;
#X obj -346 -61 == 0;
#X obj -136 -91 loadmess 0;
#X obj -271 -151 t, f 15;
#X obj -841 554 gate 1, f 12;
#X obj -781 389 == 0;
#X obj -811 419 gate 0;
#X obj -826 314 tgl 25 0 empty empty empty 17 7 0 10 #191919 #e1e1e1 #e1e1e1 0 1;
#X obj -871 509 sel 0;
#X obj -871 479 == 0;
#X obj -826 269 loadmess 0;
#X text -976 283 make it so that holding will change the behaviour of reps such that if the last rep is reached \, stay at the last rep while hold is active, f 27;
#X obj -826 344 t b f f;
#X obj -591 19 - 1;
#X msg 569 -21 set \$1;
#X msg 534 794 set \$1;
#X obj -661 524 r set_rep;
#X msg -661 554 set \$1;
#X obj -211 -91 r rep_last;
#X obj -886 824 s rep_last;
#X obj -826 285 r seg_held;
#X obj -346 -91 r seg_held;
#X obj 92 477 change;
#X obj -73 477 change;
#X msg 1064 599 read boot.txt;
#X obj 1064 644 text define boot;
#X obj 959 614 text get boot;
#X obj 1064 464 loadbang;
#X msg 974 584 0;
#X obj 1064 494 bng 25 250 50 0 empty empty empty 17 7 0 10 #191919 #e1e1e1 #e1e1e1;
#X msg 1154 599 write boot.txt;
#X obj 1169 569 text set boot;
#X obj 1154 539 t b s, f 9;
#X obj 944 149 r set_name_ui_out;
#X obj 809 404 s set_name_ui;
#X obj -611 -106 r seg_id_ui_out;
#X obj 569 9 s seg_id_ui;
#X obj 689 -1 s seg_total_ui;
#X obj 289 9 s seg_info_ui;
#X obj -136 -61 s seg_hold;
#X obj 534 824 s set_rep_ui;
#X obj 1154 59 r open_mset_btn;
#X obj 629 284 r edit_mset_btn;
#X obj 809 644 s reset;
#X obj 689 -61 r resat;
#X obj 419 89 r resat;
#X obj -586 854 r resat;
#X obj -411 -31 r resat;
#X obj -271 -181 r resat;
#X obj 1049 209 r resat;
#X obj -376 284 s end_of_set;
#X obj -481 884 r end_of_set;
#X obj 254 89 r resat;
#X obj -481 539 s seg_reps;
#X obj 594 704 r seg_reps;
#X obj -586 689 r seg_reps;
#X obj -586 719 - 1;
#X obj -331 539 s seg_tin;
#X obj -841 734 r seg_reps;
#X obj -841 764 - 1;
#X obj -586 524 r seg_reps;
#X obj -586 554 - 1;
#X obj -661 629 s rep;
#X obj -526 824 r rep;
#X obj -826 674 r rep;
#X obj 534 739 r rep;
#X obj 674 509 r load_mset;
#X obj 944 419 s load_mset;
#X obj 1169 164 s load_mset;
#X obj 1154 194 s mset_path;
#X obj 644 254 r mset_path;
#X obj 1259 194 s mset_name;
#X obj 1154 509 r mset_name;
#X obj 839 299 r mset_name;
#X obj -676 209 sel 0;
#X obj -676 239 s start_of_set;
#X obj -736 464 r start_of_set;
#X obj 809 344 symbol;
#X obj 974 179 s mset_name;
#X obj 809 509 r mset_name;
#X obj -721 646 s rep0;
#X obj 419 74 r rep0;
#X obj 254 74 r rep0;
#X obj -526 464 r rep0;
#X obj 809 539 bng 25 250 50 0 empty empty empty 17 7 0 10 #191919 #e1e1e1 #e1e1e1;
#X obj 812 574 del 50;
#X obj -421 149 del 50;
#X obj 824 614 del 50;
#X obj 1154 119 openpanel;
#N canvas 733 172 450 300 path2file_noext 0;
#X obj 124 322 file split;
#X obj 124 377 list;
#X obj 157 405 zl len;
#X obj 124 432 zl nth;
#X obj 124 499 list fromsymbol;
#X obj 124 638 list tosymbol;
#X obj 123 465 tosymbol;
#X obj 124 528 zl rev;
#X obj 125 609 zl rev;
#X obj 124 565 zl slice 5;
#X obj 55 282 inlet;
#X obj 124 692 outlet;
#X connect 0 0 1 0;
#X connect 0 1 1 1;
#X connect 1 0 2 0;
#X connect 1 0 3 0;
#X connect 2 0 3 1;
#X connect 3 0 6 0;
#X connect 4 0 7 0;
#X connect 5 0 11 0;
#X connect 6 0 4 0;
#X connect 7 0 9 0;
#X connect 8 0 5 0;
#X connect 9 1 8 0;
#X connect 10 0 0 0;
#X restore 1259 164 pd path2file_noext;
#X obj 1154 89 get_sets_dir;
#X obj 1199 284 get_sets_dir;
#X obj 959 644 s mset_name;
#X obj 959 554 del 50;
#X obj 899 644 del 50;
#X obj 899 674 s set_name_ui;
#X obj 1034 419 s mset_path;
#X obj 674 539 symbol;
#X obj 259 239 bng 21 250 50 0 set_reloaded set_reload ⟳ 2 10 0 23 #696969 #fff1e7 #fdfff4;
#X obj 629 479 r set_reloaded;
#X obj 629 509 bng 25 250 50 0 empty empty empty 17 7 0 10 #191919 #e1e1e1 #e1e1e1;
#X msg -526 944 end reached;
#X obj -526 974 print sys;
#X obj 614 584 s reset;
#X obj 614 554 del 50;
#X obj -13 342 r pgmout_bang;
#X obj -346 179 s pgmout_bang;
#X obj -601 144 s pgmout_bang;
#X msg -691 -46 1;
#X obj -676 -76 r 4pulse;
#X msg -676 -46 0;
#X obj -691 -91 r stopped;
#X obj -691 -16 tgl 25 0 empty empty empty 17 7 0 10 #191919 #e1e1e1 #e1e1e1 0 1;
#X obj -701 109 s tin_toggle;
#X msg -716 74 0;
#X listbox 149 279 42 0 0 0 curr seg_info_ui - 10;
#X obj 289 -21 list;
#X obj 289 -51 r rep0;
#X obj 304 -106 r resat;
#X listbox 149 329 42 0 0 0 next next_seg_info_ui - 10;
#X obj -616 309 text get set, f 21;
#X obj -616 339 s next_seg;
#X obj 479 -51 r next_seg;
#X obj 429 -21 list;
#X obj 429 -51 r rep0;
#X obj 444 -101 r resat;
#X obj 429 9 s next_seg_info_ui;
#X obj 469 674 *;
#X obj 479 594 r beat_len;
#X obj 304 -76 del 50;
#X obj 444 -76 del 50;
#X obj 132 296 hsl 226 14 0 32 0 0 empty seg_progress_indicator_ui %seg 234 11 0 10 #000000 #00c4ff #e1e1e1 0 1;
#X obj 389 659 r started;
#X obj 274 544 r stopped;
#X obj 494 614 r seg_reps;
#X obj 469 644 buddy;
#X obj 199 519 r avg_beat_time;
#X msg 199 549 0 \, 1 \$1;
#X obj 214 764 scale 0 1 0 1;
#X obj 389 639 r rep0;
#X obj 536 765 + 1;
#X obj 219 834 s seg_progress_indicator_ui;
#X obj 414 724 i;
#X msg 274 574 stop;
#X floatatom 124 734 5 0 0 0 - - - 12;
#X obj 164 739 + 1;
#X obj 364 694 del 50;
#X obj 569 -51 i;
#X obj 574 -86 r rep0;
#X obj 589 -136 r resat;
#X obj 589 -111 del 50;
#X obj 124 704 +;
#X obj 269 669 *;
#X obj 339 759 r resat;
#X msg 344 787 0;
#X obj 219 599 line 0 100;
#X obj 269 709 i;
#X obj 309 639 r beat_len;
#X obj 114 599 r beat_counter;
#X msg 414 789 range 0 \$1;
#X obj 414 758 + 0;
#X obj 114 624 route range;
#X obj 269 619 r rep;
#X obj 119 654 sel 0;
#X msg 74 713 0;
#X obj 64 679 del 100;
#X obj -281 69 ==;
#X obj -281 99 sel 1;
#X obj -271 39 text size set;
#X obj -271 9 r resat;
#X obj -271 134 i;
#X obj -611 59 gate 2;
#X obj -691 14 + 1;
#X obj -606 114 del 100;
#X obj -601 89 b;
#X obj -596 -16 pipe 250;
#X msg -566 -46 clear;
#X obj -611 -76 t i b;
#X obj -781 109 s seg_hold;
#X obj -466 344 route md mnm rep len tin bpm poly, f 72;
#X floatatom -256 389 5 0 0 2 bpm - - 12;
#X floatatom -224 391 5 0 0 2 poly - - 12;
#X obj 287 1060 f;
#X obj -191 1013 midiout;
#X msg -192 983 240 0 32 60 3 0 113 32 \$1 247;
#X obj 367 245 tgl 25 0 poly_toggled poly_toggle poly 3 -8 0 10 #191919 #e1e1e1 #e1e1e1 0 1;
#X text -125 1005 mnm syx init: 240 \, 0 \, 32 \, 60 \, 3 \, 0 ... 247 \; poly mode command: 113 \, 32 \, 0 / 1;
#X obj -193 950 r poly_toggled;
#X obj -176 538 s poly_toggle;
#X obj -173 507 f;
#X obj -205 456 change;
#X obj 332 1181 line;
#X obj 310 937 r downbeat;
#X obj 368 1027 r avg_beat_time;
#X obj 355 1057 f;
#X msg 333 1151 \$1 \$2;
#X obj 314 1019 t;
#X obj 313 1099 pack f f;
#X obj 284 1241 print;
#X obj 336 1237 s tempo_ui;
#X obj 321 991 onebang;
#X obj 363 963 b;
#X obj 161 1005 r resat;
#X obj 176 1057 f;
#X obj -260 536 s seg_bpm;
#X obj 197 919 r seg_bpm;
#X obj 219 963 change;
#X connect 1 0 73 0;
#X connect 1 0 116 0;
#X connect 2 0 28 0;
#X connect 2 0 59 0;
#X connect 2 1 11 0;
#X connect 3 0 2 0;
#X connect 3 0 87 0;
#X connect 3 0 167 0;
#X connect 4 0 28 0;
#X connect 5 0 12 0;
#X connect 5 0 272 0;
#X connect 6 0 1 1;
#X connect 7 0 15 1;
#X connect 8 0 21 1;
#X connect 9 0 22 1;
#X connect 10 0 23 1;
#X connect 11 0 143 0;
#X connect 12 0 13 2;
#X connect 13 0 155 0;
#X connect 13 0 30 0;
#X connect 13 2 98 0;
#X connect 14 0 112 0;
#X connect 15 0 74 0;
#X connect 15 0 115 0;
#X connect 16 0 15 0;
#X connect 16 0 1 0;
#X connect 17 0 19 0;
#X connect 18 0 20 0;
#X connect 19 0 3 0;
#X connect 19 0 259 0;
#X connect 20 0 179 0;
#X connect 20 1 19 3;
#X connect 21 0 146 0;
#X connect 22 0 50 0;
#X connect 23 0 150 0;
#X connect 24 0 27 0;
#X connect 25 0 24 0;
#X connect 27 0 194 0;
#X connect 28 0 5 0;
#X connect 28 1 4 0;
#X connect 29 0 93 1;
#X connect 30 0 173 0;
#X connect 31 0 199 0;
#X connect 31 1 17 0;
#X connect 32 0 29 0;
#X connect 33 0 27 0;
#X connect 34 1 42 0;
#X connect 36 0 39 0;
#X connect 37 0 39 1;
#X connect 38 0 170 0;
#X connect 38 1 43 0;
#X connect 38 1 184 0;
#X connect 39 0 52 0;
#X connect 40 0 160 0;
#X connect 40 0 189 0;
#X connect 41 0 34 0;
#X connect 43 0 37 0;
#X connect 44 0 29 0;
#X connect 46 0 25 0;
#X connect 47 0 48 0;
#X connect 48 0 46 0;
#X connect 49 0 84 0;
#X connect 51 0 52 1;
#X connect 52 0 40 0;
#X connect 53 0 56 0;
#X connect 54 0 55 0;
#X connect 60 0 209 1;
#X connect 62 0 127 0;
#X connect 65 0 67 0;
#X connect 65 1 67 1;
#X connect 66 0 133 0;
#X connect 67 0 66 0;
#X connect 68 0 14 0;
#X connect 70 0 71 0;
#X connect 71 0 68 0;
#X connect 75 0 54 1;
#X connect 76 0 53 1;
#X connect 78 0 7 0;
#X connect 79 0 6 0;
#X connect 80 0 83 0;
#X connect 83 0 81 0;
#X connect 84 0 97 1;
#X connect 85 0 84 1;
#X connect 87 0 86 0;
#X connect 87 0 213 0;
#X connect 88 0 240 1;
#X connect 90 0 130 0;
#X connect 93 0 31 0;
#X connect 94 0 93 0;
#X connect 95 0 132 0;
#X connect 96 0 32 0;
#X connect 96 1 95 0;
#X connect 97 0 13 0;
#X connect 98 0 99 1;
#X connect 99 0 97 0;
#X connect 100 0 105 0;
#X connect 101 1 97 0;
#X connect 102 0 101 0;
#X connect 103 0 100 0;
#X connect 105 0 98 0;
#X connect 105 1 102 0;
#X connect 105 2 99 0;
#X connect 106 0 264 1;
#X connect 107 0 129 0;
#X connect 108 0 133 0;
#X connect 109 0 110 0;
#X connect 110 0 13 0;
#X connect 111 0 29 1;
#X connect 113 0 100 0;
#X connect 114 0 94 0;
#X connect 115 0 77 0;
#X connect 116 0 0 0;
#X connect 117 0 118 0;
#X connect 119 0 185 0;
#X connect 120 0 122 0;
#X connect 121 0 119 0;
#X connect 122 0 117 0;
#X connect 122 0 186 0;
#X connect 123 0 118 0;
#X connect 125 0 123 0;
#X connect 125 1 124 0;
#X connect 126 0 36 0;
#X connect 126 0 171 0;
#X connect 128 0 270 0;
#X connect 134 0 183 0;
#X connect 135 0 80 0;
#X connect 137 0 90 0;
#X connect 138 0 53 0;
#X connect 139 0 33 0;
#X connect 140 0 18 0;
#X connect 141 0 96 0;
#X connect 142 0 38 0;
#X connect 144 0 27 1;
#X connect 145 0 54 0;
#X connect 147 0 65 0;
#X connect 148 0 149 0;
#X connect 149 0 47 0;
#X connect 151 0 152 0;
#X connect 152 0 14 1;
#X connect 153 0 154 0;
#X connect 154 0 13 4;
#X connect 156 0 25 0;
#X connect 157 0 68 1;
#X connect 158 0 233 0;
#X connect 159 0 190 0;
#X connect 163 0 80 1;
#X connect 165 0 125 0;
#X connect 166 0 170 1;
#X connect 167 0 168 0;
#X connect 169 0 84 1;
#X connect 170 0 62 0;
#X connect 172 0 177 0;
#X connect 174 0 53 0;
#X connect 175 0 54 0;
#X connect 176 0 23 0;
#X connect 176 0 22 0;
#X connect 176 0 21 0;
#X connect 176 0 282 0;
#X connect 177 0 178 0;
#X connect 178 0 136 0;
#X connect 178 0 180 0;
#X connect 179 0 3 0;
#X connect 179 0 199 0;
#X connect 180 0 136 0;
#X connect 181 0 182 0;
#X connect 181 0 162 0;
#X connect 181 0 161 0;
#X connect 182 0 164 0;
#X connect 183 0 181 0;
#X connect 184 0 51 0;
#X connect 186 0 121 0;
#X connect 186 0 187 0;
#X connect 187 0 188 0;
#X connect 190 0 41 0;
#X connect 192 0 193 0;
#X connect 193 0 190 0;
#X connect 193 0 197 0;
#X connect 194 0 195 0;
#X connect 197 0 196 0;
#X connect 198 0 16 0;
#X connect 201 0 205 0;
#X connect 202 0 203 0;
#X connect 203 0 205 0;
#X connect 204 0 201 0;
#X connect 205 0 265 0;
#X connect 207 0 206 0;
#X connect 207 0 271 0;
#X connect 209 0 131 0;
#X connect 210 0 209 0;
#X connect 211 0 222 0;
#X connect 213 0 214 0;
#X connect 215 0 216 1;
#X connect 216 0 219 0;
#X connect 217 0 216 0;
#X connect 218 0 223 0;
#X connect 220 0 235 1;
#X connect 221 0 228 0;
#X connect 222 0 209 0;
#X connect 223 0 216 0;
#X connect 225 0 239 0;
#X connect 226 0 236 0;
#X connect 227 0 228 1;
#X connect 228 0 220 0;
#X connect 228 1 220 1;
#X connect 229 0 230 0;
#X connect 230 0 248 0;
#X connect 231 0 234 0;
#X connect 232 0 239 0;
#X connect 233 0 108 0;
#X connect 235 0 253 0;
#X connect 236 0 248 0;
#X connect 237 0 231 3;
#X connect 238 0 231 4;
#X connect 239 0 235 0;
#X connect 240 0 107 0;
#X connect 241 0 240 0;
#X connect 242 0 243 0;
#X connect 243 0 240 0;
#X connect 244 0 238 0;
#X connect 244 0 237 0;
#X connect 245 0 249 0;
#X connect 246 0 247 0;
#X connect 247 0 234 0;
#X connect 247 0 133 0;
#X connect 248 0 231 0;
#X connect 249 0 244 1;
#X connect 250 0 245 1;
#X connect 251 0 254 0;
#X connect 252 0 234 0;
#X connect 253 0 252 0;
#X connect 254 1 256 0;
#X connect 255 0 245 0;
#X connect 256 0 258 0;
#X connect 256 1 244 0;
#X connect 257 0 244 0;
#X connect 258 0 257 0;
#X connect 259 0 260 0;
#X connect 260 0 263 0;
#X connect 261 0 259 1;
#X connect 261 0 263 1;
#X connect 262 0 261 0;
#X connect 263 0 19 2;
#X connect 264 0 19 2;
#X connect 264 1 19 3;
#X connect 264 1 267 0;
#X connect 265 0 264 0;
#X connect 266 0 200 0;
#X connect 267 0 266 0;
#X connect 267 0 207 0;
#X connect 268 0 106 0;
#X connect 269 0 268 0;
#X connect 270 0 268 0;
#X connect 270 1 269 0;
#X connect 272 0 79 0;
#X connect 272 1 78 0;
#X connect 272 2 8 0;
#X connect 272 3 9 0;
#X connect 272 4 10 0;
#X connect 272 5 273 0;
#X connect 272 6 274 0;
#X connect 273 0 297 0;
#X connect 274 0 283 0;
#X connect 275 0 290 0;
#X connect 277 0 276 0;
#X connect 280 0 277 0;
#X connect 282 0 281 0;
#X connect 283 0 282 1;
#X connect 284 0 291 0;
#X connect 284 0 292 0;
#X connect 285 0 293 0;
#X connect 286 0 287 1;
#X connect 287 0 290 1;
#X connect 288 0 284 0;
#X connect 289 0 275 0;
#X connect 289 1 287 0;
#X connect 290 0 288 0;
#X connect 293 0 289 0;
#X connect 294 0 293 1;
#X connect 295 0 296 0;
#X connect 296 0 292 0;
#X connect 298 0 296 1;
#X connect 298 0 299 0;
#X connect 299 0 275 1;
#X connect 299 0 294 0;
#X coords 0 0 1 1 281 130 1 125 220;
