#N canvas 733 172 1167 736 8;
#X obj 134 224 cnv 15 196 136 empty empty set 3 8 0 12 #191919 #ffffff 0;
#X obj -136 524 pgmout 15;
#X obj -241 449 f;
#X obj -466 209 text get set, f 21;
#X floatatom -466 179 5 0 129 0 - - - 12;
#X obj -436 284 list;
#X obj -466 314 list trim;
#X obj -466 344 route md mnm rep len tin, f 48;
#X floatatom -496 419 5 0 0 0 md - - 12;
#X floatatom -421 419 5 0 0 0 mnm - - 12;
#X floatatom -346 389 5 0 0 2 rep - - 12;
#X floatatom -316 389 5 0 0 2 len - - 12;
#X floatatom -286 389 5 0 0 2 tin - - 12;
#X obj -376 254 sel 2;
#X obj -556 389 bng 25 250 50 0 empty empty empty 17 7 0 10 #191919 #e1e1e1 #e1e1e1;
#X obj -661 584 counter 0 0 3;
#X obj -886 794 sel 3, f 15;
#X obj -76 449 f;
#X obj -241 239 bng 25 250 50 0 empty empty pgmout\ bang 27 12 0 10 #191919 #e1e1e1 #be5000;
#X obj -466 44 bng 25 250 50 0 empty empty cont 0 -8 0 12 #191919 #e1e1e1 #9ead00;
#X obj -436 44 bng 25 250 50 0 empty empty reset 0 -8 0 12 #191919 #e1e1e1 #e10d00;
#X obj -466 119 counter;
#X obj -436 89 t;
#X obj -481 509 f;
#X obj -406 509 f;
#X obj -331 509 f;
#X obj -526 884 sel 0;
#X obj -526 854 change;
#X obj -526 944 s stop;
#X obj -526 914 onebang;
#X obj -466 254 list split 2;
#X obj -271 -61 onebang, f 15;
#X obj -766 807 sel 0;
#X obj -346 14 t b b;
#X msg -271 -121 stop;
#X msg -586 884 stop;
#X obj 479 597 text define set;
#X symbolatom 134 254 17 0 0 2 name set_name_ui set_name_ui_out 12;
#X obj 899 569 list fromsymbol;
#X obj 1019 584 list fromsymbol;
#X obj 1004 509 t, f 7;
#X obj 899 600 list append, f 20;
#X obj 899 668 list tosymbol;
#X msg 479 569 read \$1;
#X obj 554 631 bng 25 250 50 0 empty empty empty 17 7 0 10 #191919 #e1e1e1 #e1e1e1;
#X msg 1019 554 symbol .mset;
#X obj -256 -91 r load;
#X text -436 -197 note: only progress set when end of 'repeats' is cleared (onebang) \, then trigger change on load beat, f 30;
#X msg -586 809 set -1;
#X obj -586 749 < 1;
#X obj -586 779 sel 1;
#X obj -766 839 s seg_start;
#X obj -526 464 r seg_start;
#X obj -796 479 r beat1;
#X obj -406 539 s beat_len;
#X msg 1019 629 symbol sets/;
#X obj 1019 659 list fromsymbol;
#X obj 899 632 list prepend, f 21;
#X obj 419 119 pgm2bank;
#X obj 254 119 pgm2bank;
#X obj 254 149 s md_bank_label;
#X obj 419 149 s mnm_bank_label;
#X symbolatom 164 284 6 0 0 0 MD md_bank_label - 12;
#X symbolatom 164 299 6 0 0 0 MnM mnm_bank_label - 12;
#X obj -586 284 s current_seg;
#X obj 284 -76 r current_seg;
#X msg 284 -21 set \$1;
#X symbolatom 134 329 36 0 0 0 - seg_info_ui - 10;
#X obj 284 -47 tosymbol;
#X obj 284 239 bng 31 250 50 0 open_mset_btn empty 開 4 16 0 28 #696969 #000000 #fffbfb;
#X msg 689 659 set \$1;
#N canvas 733 172 450 300 open_mset 0;
#X obj 55 101 pdcontrol;
#X msg 52 64 dir;
#X obj 55 282 openpanel;
#X obj 55 219 list append;
#X obj 55 137 t anything b;
#X obj 55 249 list tosymbol;
#X obj 170 205 list fromsymbol;
#X msg 170 174 symbol /sets;
#X obj 55 174 list fromsymbol;
#X obj 124 322 file split;
#X obj 124 377 list;
#X obj 80 339 bng 25 250 50 0 empty empty empty 17 7 0 10 #e3dfd9 #5a5a5a #5a5a5a;
#X obj 157 405 zl len;
#X obj 124 432 zl nth;
#X obj 124 499 list fromsymbol;
#X obj 124 638 list tosymbol;
#X obj 123 465 tosymbol;
#X obj 124 528 zl rev;
#X obj 125 609 zl rev;
#X obj 124 565 zl slice 5;
#X obj 55 25 inlet;
#X obj 55 405 outlet;
#X obj 124 692 outlet;
#X connect 0 0 4 0;
#X connect 1 0 0 0;
#X connect 2 0 9 0;
#X connect 2 0 21 0;
#X connect 3 0 5 0;
#X connect 4 0 8 0;
#X connect 4 1 7 0;
#X connect 5 0 2 0;
#X connect 6 0 3 1;
#X connect 7 0 6 0;
#X connect 8 0 3 0;
#X connect 9 0 10 0;
#X connect 9 1 10 1;
#X connect 10 0 12 0;
#X connect 10 0 13 0;
#X connect 11 0 10 0;
#X connect 12 0 13 1;
#X connect 13 0 16 0;
#X connect 14 0 17 0;
#X connect 15 0 22 0;
#X connect 16 0 14 0;
#X connect 17 0 19 0;
#X connect 18 0 15 0;
#X connect 19 1 18 0;
#X connect 20 0 1 0;
#X restore 689 284 pd open_mset;
#X f 21;
#X obj 284 299 bng 31 250 50 0 resat reset ⟳ 2 14 0 35 #cb0006 #fff1e7 #e1dac6;
#X obj 464 374 del 500;
#X obj 464 344 bng 25 250 50 0 empty empty empty 17 7 0 10 #191919 #e1e1e1 #e1e1e1;
#X obj 137 314 hsl 86 16 0 2 0 0 set_rep set_rep_ui empty -2 -8 0 10 #000000 #ffffff #e1e1e1 0 1;
#X obj 164 -46 t b f;
#X msg 164 14 range \$1 \$2;
#X obj 164 -16 pack 0 127, f 16;
#X obj -886 704 f, f 12;
#X text -1036 703 fix: check that this is last seg a little after the seg starts \, in case the first check is too early before the rep info gets loaded, f 26;
#X obj -886 644 r beat1;
#X obj -886 674 del 50;
#X text -466 688 fix: if last seg's rep length is 1 \, make sure we end the set by setting [change] to -1 so it's guaranteed to detect the change, f 17;
#X obj -241 494 s md_pgmout;
#X obj -76 494 s mnm_pgmout;
#X obj 314 89 r md_pgmout;
#X obj 479 89 r mnm_pgmout;
#X obj 29 524 pgmout 14;
#X obj -436 389 bank2pgm;
#X obj -511 389 bank2pgm;
#X obj 554 374 symbol;
#X obj 554 434 shell;
#X obj 284 269 bng 31 250 50 0 edit_mset_btn empty 編 4 16 0 28 #696969 #000000 #fffbfb;
#X obj 554 404 prepend xdg-open;
#X obj -796 509 onebang, f 16;
#X obj -736 479 r downbeat;
#X obj -586 239 s current_seg_id;
#X obj -586 211 + 1;
#X obj 404 -76 r current_seg_id;
#X floatatom 224 254 5 0 0 2 seg seg_id_ui seg_id_ui_out 12;
#X obj 524 -31 text size set;
#X floatatom 254 254 5 0 0 2 total seg_total_ui - 12;
#X obj 194 284 tgl 31 0 seg_held seg_hold 止 5 16 0 24 #214b6e #e1e1e1 #00c4ff 0 1;
#X obj -346 -16 gate 1;
#X obj -346 -61 == 0;
#X obj -136 -91 loadmess 0;
#X obj -271 -151 t, f 15;
#X obj -841 554 gate 1, f 12;
#X obj -781 389 == 0;
#X obj -811 419 gate 0;
#X obj -826 314 tgl 25 0 empty empty empty 17 7 0 10 #191919 #e1e1e1 #e1e1e1 0 1;
#X obj -871 509 sel 0;
#X obj -871 479 == 0;
#X obj -826 269 loadmess 0;
#X text -976 283 make it so that holding will change the behaviour of reps such that if the last rep is reached \, stay at the last rep while hold is active, f 27;
#X obj -826 344 t b f f;
#X obj -586 59 - 1;
#X msg -586 89 set \$1;
#X msg 404 -47 set \$1;
#X msg 104 14 set \$1;
#X obj -661 524 r set_rep;
#X msg -661 554 set \$1;
#X text 74 -182 todo: decide what to do about the end of an mset... should it stop \, or should it loop forever until manually stopped?;
#X obj -211 -91 r rep_last;
#X obj -886 824 s rep_last;
#X obj -826 285 r seg_held;
#X obj -346 -91 r seg_held;
#X obj 29 494 change;
#X obj -136 494 change;
#X msg 689 509 read boot.txt;
#X obj 689 554 text define boot;
#X obj 629 584 text get boot;
#X obj 689 434 loadbang;
#X msg 629 554 0;
#X obj 629 614 t b s;
#X obj 689 464 bng 25 250 50 0 empty empty empty 17 7 0 10 #191919 #e1e1e1 #e1e1e1;
#X obj 614 509 del 100;
#X obj -436 149 del 500;
#X obj 629 659 del 500;
#X obj 629 689 del 500;
#X text 389 -182 bug: edit button doesn't work when mset not loaded via open button;
#X msg 779 509 write boot.txt;
#X obj 794 479 text set boot;
#X obj 779 449 t b s, f 9;
#X obj 479 404 del 500;
#X obj 899 419 r set_name_ui_out;
#X obj 689 689 s set_name_ui;
#X obj -586 29 r seg_id_ui_out;
#X obj 404 -16 s seg_id_ui;
#X obj 524 -1 s seg_total_ui;
#X obj 284 9 s seg_info_ui;
#X obj -136 -61 s seg_hold;
#X obj 104 44 s set_rep_ui;
#X obj 689 254 r open_mset_btn;
#X obj 554 344 r edit_mset_btn;
#X obj 464 434 s reset;
#X obj 524 -61 r resat;
#X obj 419 89 r resat;
#X obj -586 854 r resat;
#X obj -436 -1 r resat;
#X obj -271 -181 r resat;
#X obj 1004 479 r resat;
#X obj 599 719 s reset;
#X obj -376 284 s end_of_set;
#X obj -481 884 r end_of_set;
#X obj 254 89 r resat;
#X obj 254 74 r seg_start;
#X obj 419 74 r seg_start;
#X obj -481 539 s seg_reps;
#X obj 164 -76 r seg_reps;
#X obj -586 689 r seg_reps;
#X obj -586 719 - 1;
#X obj -331 539 s seg_tin;
#X obj -841 734 r seg_reps;
#X obj -841 764 - 1;
#X obj -586 524 r seg_reps;
#X obj -586 554 - 1;
#X obj -661 629 s rep;
#X obj -526 824 r rep;
#X obj -826 674 r rep;
#X obj -766 779 r rep;
#X obj 104 -16 r rep;
#X obj 479 539 r load_mset;
#X obj 899 704 s load_mset;
#X obj 704 314 s load_mset;
#X obj 689 344 s mset_path;
#X obj 569 314 r mset_path;
#X obj 464 314 r mset_path;
#X obj 779 329 s mset_name;
#X obj 779 419 r mset_name;
#X obj 689 614 r mset_name;
#X obj 266 448;
#X obj -676 209 sel 0;
#X obj -676 239 s start_of_set;
#X obj -736 464 r start_of_set;
#X connect 2 0 84 0;
#X connect 2 0 129 0;
#X connect 3 0 30 0;
#X connect 3 0 64 0;
#X connect 3 1 13 0;
#X connect 4 0 3 0;
#X connect 4 0 98 0;
#X connect 4 0 193 0;
#X connect 5 0 30 0;
#X connect 6 0 7 0;
#X connect 6 0 14 0;
#X connect 7 0 90 0;
#X connect 7 1 89 0;
#X connect 7 2 10 0;
#X connect 7 3 11 0;
#X connect 7 4 12 0;
#X connect 8 0 2 1;
#X connect 9 0 17 1;
#X connect 10 0 23 1;
#X connect 11 0 24 1;
#X connect 12 0 25 1;
#X connect 13 0 164 0;
#X connect 14 0 15 2;
#X connect 15 0 178 0;
#X connect 15 2 109 0;
#X connect 16 0 125 0;
#X connect 17 0 85 0;
#X connect 17 0 128 0;
#X connect 18 0 17 0;
#X connect 18 0 2 0;
#X connect 19 0 21 0;
#X connect 20 0 22 0;
#X connect 21 0 4 0;
#X connect 22 0 138 0;
#X connect 22 1 21 3;
#X connect 23 0 169 0;
#X connect 24 0 54 0;
#X connect 25 0 173 0;
#X connect 26 0 29 0;
#X connect 27 0 26 0;
#X connect 29 0 28 0;
#X connect 30 0 6 0;
#X connect 30 1 5 0;
#X connect 31 0 104 1;
#X connect 32 0 51 0;
#X connect 33 0 18 0;
#X connect 33 1 19 0;
#X connect 34 0 31 0;
#X connect 35 0 29 0;
#X connect 36 1 44 0;
#X connect 38 0 41 0;
#X connect 39 0 41 1;
#X connect 40 0 147 0;
#X connect 40 1 45 0;
#X connect 40 1 55 0;
#X connect 41 0 57 0;
#X connect 42 0 184 0;
#X connect 43 0 36 0;
#X connect 45 0 39 0;
#X connect 46 0 31 0;
#X connect 48 0 27 0;
#X connect 49 0 50 0;
#X connect 50 0 48 0;
#X connect 52 0 25 0;
#X connect 52 0 24 0;
#X connect 52 0 23 0;
#X connect 53 0 95 0;
#X connect 55 0 56 0;
#X connect 56 0 57 1;
#X connect 57 0 42 0;
#X connect 58 0 61 0;
#X connect 59 0 60 0;
#X connect 65 0 68 0;
#X connect 66 0 151 0;
#X connect 68 0 66 0;
#X connect 70 0 147 0;
#X connect 71 0 185 0;
#X connect 71 0 186 0;
#X connect 71 1 189 0;
#X connect 73 0 145 0;
#X connect 73 0 156 0;
#X connect 74 0 73 0;
#X connect 76 0 78 0;
#X connect 76 1 78 1;
#X connect 77 0 153 0;
#X connect 78 0 77 0;
#X connect 79 0 16 0;
#X connect 81 0 82 0;
#X connect 82 0 79 0;
#X connect 86 0 59 1;
#X connect 87 0 58 1;
#X connect 89 0 9 0;
#X connect 90 0 8 0;
#X connect 91 0 94 0;
#X connect 94 0 92 0;
#X connect 95 0 108 1;
#X connect 96 0 95 1;
#X connect 98 0 97 0;
#X connect 99 0 119 0;
#X connect 101 0 150 0;
#X connect 104 0 33 0;
#X connect 105 0 104 0;
#X connect 106 0 152 0;
#X connect 107 0 34 0;
#X connect 107 1 106 0;
#X connect 108 0 15 0;
#X connect 109 0 110 1;
#X connect 110 0 108 0;
#X connect 111 0 116 0;
#X connect 112 1 108 0;
#X connect 113 0 112 0;
#X connect 114 0 111 0;
#X connect 116 0 109 0;
#X connect 116 1 113 0;
#X connect 116 2 110 0;
#X connect 117 0 118 0;
#X connect 118 0 21 0;
#X connect 119 0 149 0;
#X connect 120 0 153 0;
#X connect 121 0 122 0;
#X connect 122 0 15 0;
#X connect 124 0 31 1;
#X connect 126 0 111 0;
#X connect 127 0 105 0;
#X connect 128 0 88 0;
#X connect 129 0 1 0;
#X connect 130 0 131 0;
#X connect 132 0 135 0;
#X connect 133 0 136 0;
#X connect 134 0 132 0;
#X connect 135 0 139 0;
#X connect 135 0 163 0;
#X connect 135 1 70 0;
#X connect 136 0 130 0;
#X connect 136 0 137 0;
#X connect 137 0 134 0;
#X connect 138 0 18 0;
#X connect 138 0 4 0;
#X connect 139 0 140 0;
#X connect 139 0 163 0;
#X connect 140 0 163 0;
#X connect 142 0 131 0;
#X connect 144 0 142 0;
#X connect 144 1 143 0;
#X connect 145 0 156 0;
#X connect 146 0 144 0;
#X connect 146 0 38 0;
#X connect 148 0 117 0;
#X connect 154 0 71 0;
#X connect 155 0 91 0;
#X connect 157 0 101 0;
#X connect 158 0 58 0;
#X connect 159 0 35 0;
#X connect 160 0 20 0;
#X connect 161 0 107 0;
#X connect 162 0 40 0;
#X connect 165 0 29 1;
#X connect 166 0 59 0;
#X connect 167 0 59 0;
#X connect 168 0 58 0;
#X connect 170 0 76 0;
#X connect 171 0 172 0;
#X connect 172 0 49 0;
#X connect 174 0 175 0;
#X connect 175 0 16 1;
#X connect 176 0 177 0;
#X connect 177 0 15 4;
#X connect 179 0 27 0;
#X connect 180 0 79 1;
#X connect 181 0 32 0;
#X connect 182 0 120 0;
#X connect 183 0 43 0;
#X connect 187 0 91 1;
#X connect 188 0 74 0;
#X connect 190 0 144 0;
#X connect 191 0 70 0;
#X connect 193 0 194 0;
#X connect 195 0 95 1;
#X coords 0 0 1 1 182 121 2 134 224;
