#N canvas 2042 978 1063 538 12;
#X obj 226 51 r s.seg_bpm_target;
#X obj 224 87 change;
#X obj 244 256 pack f f f;
#X msg 245 291 \$3 \, \$1 \$2;
#X obj 240 339 line 120 50;
#X obj 242 375 s t.tempo;
#X obj 415 259 r s.reset;
#X obj 346 261 r t.stop;
#X msg 380 299 stop;
#X obj 314 121 r s.seg_bpm_rtime;
#X obj 311 155 * 1000;
#X obj 436 157 f;
#X obj 455 121 r t.tempo;
#X obj 222 120 t f b;
#X text 473 146 tempo ramping... should work. when ramp data comes in \, it captures the current tempo into [f] \, which gets used as the starting position for [line], f 28;
#X obj 142 125 r t.beat1;
#X obj 175 168 onebang;
#X obj 234 217 f;
#X text 82 161 wait until beat1 to begin ramp, f 11;
#X obj 669 64 r s.seg_bpm_rtime;
#X connect 0 0 1 0;
#X connect 1 0 13 0;
#X connect 2 0 3 0;
#X connect 3 0 4 0;
#X connect 4 0 5 0;
#X connect 6 0 8 0;
#X connect 7 0 8 0;
#X connect 8 0 4 0;
#X connect 9 0 10 0;
#X connect 10 0 2 1;
#X connect 11 0 2 2;
#X connect 12 0 11 1;
#X connect 13 0 17 1;
#X connect 13 1 11 0;
#X connect 13 1 16 1;
#X connect 15 0 16 0;
#X connect 16 0 17 0;
#X connect 17 0 2 0;
