#N canvas 1440 928 1920 980 12;
#X obj 156 369 t b s;
#X obj 96 445 del 50;
#X obj 115 482 del 50;
#X obj 94 520 s s.reset;
#X obj 225 354 r ctl.reload_mset;
#X obj 161 547 symbol;
#X msg 100 895 read \$1;
#X obj 96 969 text define set;
#X obj 273 426 r s.reload;
#X msg 166 911 write \$1;
#X obj 176 871 symbol;
#X obj 183 831 r s.save;
#X obj 851 351 file glob;
#X obj 837 563 text set mset_list;
#X obj 899 424 del 250;
#X obj 898 392 bng 20 250 50 0 empty empty empty 0 -10 0 12 #fcfcfc #000000 #000000;
#X obj 839 458 zl group 1e+07, f 19;
#X obj 837 513 list;
#X obj 826 399 zl nth 1;
#X obj 982 559 s s.num_of_msets;
#X obj 888 510 zl len;
#X obj 967 614 text define mset_list;
#X obj 103 834 symbol;
#X obj 120 694 list fromsymbol;
#X obj 117 782 list tosymbol;
#X obj 123 655 tosymbol;
#X obj 126 743 zl join, f 17;
#X msg 123 628 sets/;
#X obj 247 158 bng 25 250 50 0 empty empty empty 17 7 0 10 #191919 #e1e1e1 #e1e1e1;
#X obj 247 130 r em.set.fullreload;
#X obj 582 880 s scmgr.temp;
#X obj 54 162 sel 1;
#X obj 148 157 loadbang;
#X obj 54 188 onebang;
#X obj 54 130 r scmgr.current_screen;
#X obj 130 244 bng 25 250 50 0 empty empty empty 17 7 0 10 #191919 #e1e1e1 #e1e1e1;
#X obj 582 796 once;
#X obj 607 700 r em.set.fullreload;
#X obj 608 731 bng 25 250 50 0 empty empty empty 17 7 0 10 #191919 #e1e1e1 #e1e1e1;
#X obj 599 769 loadmess bang;
#X obj 783 617 s scmgr.GetMsetList;
#X obj 779 584 del 100;
#X obj 781 545 bng 25 250 50 0 empty empty empty 17 7 0 10 #191919 #e1e1e1 #e1e1e1;
#X obj 346 661 s scmgr.CurrentlyLoadedMsetName;
#X obj 400 166 text define mset_temp;
#X obj 400 131 r em.set.mset_temp;
#X obj 961 183 r em.set.repopulate_mset_list;
#X obj 963 216 bng 25 250 50 0 empty empty empty 17 7 0 10 #191919 #e1e1e1 #e1e1e1;
#X obj 232 663 list fromsymbol;
#X obj 273 758 list tosymbol;
#X obj 273 737 zl ecils 5;
#X obj 276 799 s scmgr.CurrentlyLoadedMsetName_NoExt;
#X text 356 736 strip .mset ext;
#X msg 854 311 symbol ~/repos/emsys/sets/*.mset;
#X msg 960 136 1;
#X msg 997 137 2;
#X obj 900 181 f;
#X obj 932 263 gate 2 1;
#X obj 828 92 r env_prod_defaults_set;
#X obj 996 91 r env_dev_defaults_set;
#X obj 908 215 t b f;
#X obj 1038 265 s mset_manager.RepopAndReload;
#X obj 229 969 print;
#X msg 1090 311 symbol ~/repos/emsys_dev/sets/*.mset;
#X obj 147 337 tosymbol;
#X obj 132 294 return boot.GetParamFromConf mset;
#X obj 249 195 del 1000;
#X obj 227 390 bng 25 250 50 0 empty empty empty 17 7 0 10 #191919 #e1e1e1 #e1e1e1;
#X msg 582 850 temp_simple loading \$1;
#X text 345 361 load mset file from boot.conf \, and load .mset file into [text define set], f 24;
#X obj 160 581 t b s;
#X text 69 60 todo: this patch needs a lot of cleaning up since the new implementation of bootparams, f 43;
#X text 1071 355 todo: these need to be fetched dynamically from bootparams;
#X connect 0 0 1 0;
#X connect 0 1 5 0;
#X connect 1 0 2 0;
#X connect 1 0 3 0;
#X connect 2 0 3 0;
#X connect 4 0 67 0;
#X connect 5 0 70 0;
#X connect 6 0 7 0;
#X connect 8 0 5 0;
#X connect 9 0 7 0;
#X connect 9 0 62 0;
#X connect 10 0 9 0;
#X connect 11 0 10 0;
#X connect 12 0 15 0;
#X connect 12 0 18 0;
#X connect 14 0 16 0;
#X connect 15 0 14 0;
#X connect 16 0 17 0;
#X connect 16 0 20 0;
#X connect 17 0 13 0;
#X connect 17 0 42 0;
#X connect 18 0 16 0;
#X connect 20 0 19 0;
#X connect 22 0 10 1;
#X connect 22 0 6 0;
#X connect 23 0 26 0;
#X connect 24 0 22 0;
#X connect 25 0 23 0;
#X connect 26 0 24 0;
#X connect 27 0 25 0;
#X connect 28 0 66 0;
#X connect 29 0 28 0;
#X connect 31 0 33 0;
#X connect 32 0 33 1;
#X connect 33 0 35 0;
#X connect 34 0 31 0;
#X connect 35 0 57 1;
#X connect 35 0 65 0;
#X connect 36 0 68 0;
#X connect 37 0 38 0;
#X connect 38 0 39 0;
#X connect 39 0 36 1;
#X connect 41 0 40 0;
#X connect 42 0 41 0;
#X connect 45 0 44 0;
#X connect 46 0 47 0;
#X connect 47 0 57 1;
#X connect 48 0 50 0;
#X connect 48 0 26 1;
#X connect 49 0 51 0;
#X connect 49 0 36 0;
#X connect 50 0 49 0;
#X connect 53 0 12 0;
#X connect 54 0 56 0;
#X connect 55 0 56 0;
#X connect 56 0 60 0;
#X connect 57 0 53 0;
#X connect 57 1 63 0;
#X connect 58 0 54 0;
#X connect 59 0 55 0;
#X connect 60 0 61 0;
#X connect 60 1 57 0;
#X connect 63 0 12 0;
#X connect 64 0 0 0;
#X connect 65 0 64 0;
#X connect 66 0 35 0;
#X connect 67 0 2 0;
#X connect 67 0 5 0;
#X connect 68 0 30 0;
#X connect 70 0 27 0;
#X connect 70 1 48 0;
#X connect 70 1 43 0;
