#N canvas 1440 928 1920 976 12;
#X obj 428 910 ml3/text;
#X obj 672 411 pack f f;
#X obj 696 332 r s.current_seg_id;
#X obj 326 737 bng 20 250 50 0 empty empty empty 0 -10 0 12 #fcfcfc #000000 #000000;
#X obj 413 299 r s.current_rep;
#X obj 816 301 r s.num_of_segs;
#X obj 423 376 + 1;
#X obj 247 396 r t.beat1;
#X obj 275 303 r s.reset;
#X msg 344 389 0;
#X obj 258 270 r s.first_rep;
#X obj 434 507 zl join;
#X obj 462 470 t b a;
#X obj 319 617 r ctl.update_text;
#X obj 316 640 bng 20 250 50 0 empty empty empty 0 -10 0 12 #fcfcfc #000000 #000000;
#X obj 561 847 list;
#X obj 497 854 list;
#X obj 335 486 t, f 6;
#X obj 1440 137 r s.seg_tin_lookahead;
#X obj 1183 132 r s.seg_bpm_target_lookahead;
#X obj 1218 162 r s.seg_bpm_rtime_lookahead;
#X obj 1458 162 r s.seg_poly_lookahead;
#X obj 1250 387 zl join;
#X obj 1267 355 t b a;
#X obj 1187 235 buddy;
#X obj 1163 188 sel 0;
#X obj 1183 269 pack f f;
#X obj 1434 230 pack f f;
#X obj 1442 202 buddy;
#X msg 669 444 \$1/\$2:;
#X obj 324 685 r t.count;
#X obj 366 879 del 25;
#X obj 245 680 r s.reset;
#X msg 679 174 1, f 2;
#X text 298 105 displaying segment data on ml3 oled display;
#X obj 225 433 r t.stop;
#X obj 172 218 r s.seek_seg;
#X obj 173 257 bng 20 250 50 0 empty empty empty 0 -10 0 12 #fcfcfc #000000 #000000;
#X floatatom 371 229 5 0 0 0 - - - 0;
#X obj 176 297 t b b b;
#X obj 228 351 del 10;
#X obj 339 441 del 20;
#X obj 441 851 gate 1;
#X obj 441 757 loadmess 1;
#X obj 142 739 r ctl.seek_knob_state;
#X obj 160 770 == 0;
#X obj 159 803 tgl 20 0 empty empty empty 0 -10 0 12 #fcfcfc #000000 #000000 0 1;
#X obj 365 847 gate 1;
#X obj 209 188 r s.reload;
#X floatatom 785 402 5 0 0 0 - - - 0;
#X msg 1189 310 \$1@\$2s;
#X msg 1438 268 t\$1p\$2;
#X obj 705 141 r t.count;
#X obj 721 175 + 1;
#X msg 707 212 \$1;
#X obj 434 403 pack f f f f;
#X obj 652 263 t b b f;
#X obj 648 130 once;
#X obj 680 372 i;
#X obj 365 275 i;
#X obj 445 266 i;
#X obj 351 194 r s.seg_reps;
#X obj 419 226 r s.loop_len;
#X msg 410 438 \$1/\$2: \$4/\$3;
#X obj 695 31 r s.reset;
#X obj 702 63 r t.prime;
#X obj 462 149 r s.seg_reps_lookahead;
#X obj 493 338 i;
#X obj 493 179 r s.loop_len_lookahead;
#X obj 543 342 i;
#X obj 152 341 del 50;
#X obj 325 915 bng 20 250 50 0 empty empty empty 0 -10 0 12 #fcfcfc #000000 #000000;
#X floatatom 544 231 5 0 0 0 - - - 0;
#X floatatom 554 212 5 0 0 0 - - - 0;
#X floatatom 565 439 5 0 0 0 - - - 0;
#X obj 140 184 r s.reset;
#X obj 349 337 t b b;
#X obj 1125 463 zl join;
#X obj 1050 110 r s.reset;
#X obj 1052 140 bng 20 250 50 0 empty empty empty 0 -10 0 12 #fcfcfc #000000 #000000;
#X obj 968 297 pack s s;
#X obj 965 259 buddy;
#X msg 977 333 \$1/\$2;
#X obj 1133 109 r t.beat1;
#X obj 1133 425 t b a;
#X obj 843 139 r s.seg_mnm_bank_lookahead;
#X obj 856 112 r s.seg_md_bank_lookahead;
#X obj 907 173 tosymbol;
#X obj 836 174 tosymbol;
#X obj 933 214 symbol;
#X obj 845 219 symbol;
#X obj 877 270 print;
#X obj 1104 70 r s.seek_seg;
#X obj 1042 187 del 20;
#X connect 1 0 29 0;
#X connect 2 0 49 0;
#X connect 2 0 58 1;
#X connect 3 0 47 1;
#X connect 4 0 6 0;
#X connect 5 0 1 1;
#X connect 6 0 55 0;
#X connect 7 0 41 0;
#X connect 8 0 9 0;
#X connect 8 0 41 0;
#X connect 9 0 6 0;
#X connect 10 0 9 0;
#X connect 11 0 16 1;
#X connect 12 0 11 0;
#X connect 12 1 11 1;
#X connect 13 0 14 0;
#X connect 14 0 42 1;
#X connect 15 0 0 1;
#X connect 16 0 0 2;
#X connect 17 0 15 0;
#X connect 17 0 16 0;
#X connect 17 1 58 0;
#X connect 18 0 28 0;
#X connect 19 0 25 0;
#X connect 20 0 24 1;
#X connect 21 0 28 1;
#X connect 22 0 84 0;
#X connect 23 0 22 0;
#X connect 23 1 22 1;
#X connect 24 0 26 0;
#X connect 24 1 26 1;
#X connect 25 1 24 0;
#X connect 26 0 50 0;
#X connect 27 0 51 0;
#X connect 28 0 27 0;
#X connect 28 1 27 1;
#X connect 29 0 11 0;
#X connect 30 0 3 0;
#X connect 31 0 0 0;
#X connect 31 0 71 0;
#X connect 32 0 3 0;
#X connect 33 0 54 0;
#X connect 35 0 41 0;
#X connect 36 0 37 0;
#X connect 37 0 39 0;
#X connect 38 0 59 0;
#X connect 39 0 70 0;
#X connect 39 1 41 0;
#X connect 39 2 40 0;
#X connect 40 0 76 0;
#X connect 41 0 17 0;
#X connect 42 0 0 0;
#X connect 42 0 71 0;
#X connect 43 0 42 0;
#X connect 43 0 47 0;
#X connect 44 0 45 0;
#X connect 45 0 46 0;
#X connect 46 0 42 0;
#X connect 46 0 47 0;
#X connect 47 0 31 0;
#X connect 47 0 57 0;
#X connect 48 0 37 0;
#X connect 50 0 22 0;
#X connect 51 0 23 0;
#X connect 52 0 53 0;
#X connect 53 0 54 0;
#X connect 54 0 56 0;
#X connect 55 0 63 0;
#X connect 56 0 16 0;
#X connect 56 1 55 0;
#X connect 56 2 55 3;
#X connect 57 0 33 0;
#X connect 58 0 1 0;
#X connect 59 0 55 1;
#X connect 60 0 55 2;
#X connect 61 0 38 0;
#X connect 62 0 60 0;
#X connect 63 0 12 0;
#X connect 64 0 57 1;
#X connect 65 0 57 1;
#X connect 66 0 67 1;
#X connect 66 0 73 0;
#X connect 67 0 55 1;
#X connect 68 0 69 1;
#X connect 68 0 72 0;
#X connect 69 0 55 2;
#X connect 69 0 74 0;
#X connect 75 0 37 0;
#X connect 76 0 9 0;
#X connect 76 1 69 0;
#X connect 76 1 67 0;
#X connect 77 0 15 1;
#X connect 78 0 79 0;
#X connect 79 0 93 0;
#X connect 80 0 82 0;
#X connect 81 0 80 0;
#X connect 81 1 80 1;
#X connect 82 0 77 0;
#X connect 83 0 79 0;
#X connect 84 0 77 0;
#X connect 84 1 77 1;
#X connect 85 0 87 0;
#X connect 86 0 88 0;
#X connect 87 0 89 1;
#X connect 88 0 90 1;
#X connect 89 0 81 1;
#X connect 90 0 81 0;
#X connect 90 0 91 0;
#X connect 92 0 79 0;
#X connect 93 0 89 0;
#X connect 93 0 90 0;
