#N canvas 827 239 527 327 12;
#X obj 175 262 ml3/text, f 48;
#X obj 175 215 ml3/screen_manager, f 48;
#X obj 253 176 nbx 4 18 -1e+37 1e+37 0 0 empty empty empty 0 -8 0 10 #333333 #e4e4e4 #e4e4e4 0 256;
#X obj 331 176 nbx 4 18 -1e+37 1e+37 0 0 empty empty empty 0 -8 0 10 #333333 #e4e4e4 #e4e4e4 0 256;
#X obj 409 176 nbx 4 18 -1e+37 1e+37 0 0 empty empty empty 0 -8 0 10 #333333 #e4e4e4 #e4e4e4 0 256;
#X obj 488 176 nbx 4 18 -1e+37 1e+37 0 0 empty empty empty 0 -8 0 10 #333333 #e4e4e4 #e4e4e4 0 256;
#X msg 90 90 init;
#X msg 124 90 default;
#X msg 188 90 temp_simple test;
#X msg 306 90 temp_param param;
#X text 280 148 val;
#X text 318 148 param;
#X text 430 147 val;
#X text 471 147 param;
#X text 292 129 bottom;
#X text 450 129 top;
#X connect 1 0 0 0;
#X connect 1 1 0 1;
#X connect 2 0 1 1;
#X connect 3 0 1 2;
#X connect 4 0 1 3;
#X connect 5 0 1 4;
#X connect 6 0 1 0;
#X connect 7 0 1 0;
#X connect 8 0 1 0;
#X connect 9 0 1 0;
