#N canvas 827 239 527 327 12;
#X obj 111 232 ml3/text;
#X obj 111 185 ml3/screen_manager;
#X obj 138 139 nbx 4 18 -1e+37 1e+37 0 0 empty empty empty 0 -8 0 10 #333333 #e4e4e4 #e4e4e4 0 256;
#X obj 189 128 nbx 4 18 -1e+37 1e+37 0 0 empty empty empty 0 -8 0 10 #333333 #e4e4e4 #e4e4e4 0 256;
#X obj 245 139 nbx 4 18 -1e+37 1e+37 0 0 empty empty empty 0 -8 0 10 #333333 #e4e4e4 #e4e4e4 0 256;
#X obj 302 143 nbx 4 18 -1e+37 1e+37 0 0 empty empty empty 0 -8 0 10 #333333 #e4e4e4 #e4e4e4 0 256;
#X msg 111 50 init;
#X msg 111 78 default;
#X msg 111 107 temp test;
#X connect 1 0 0 0;
#X connect 1 1 0 1;
#X connect 2 0 1 1;
#X connect 3 0 1 2;
#X connect 4 0 1 3;
#X connect 5 0 1 4;
#X connect 6 0 1 0;
#X connect 7 0 1 0;
#X connect 8 0 1 0;
