#N canvas 1440 928 1920 976 12;
#X obj 190 424 text define boot;
#X msg 293 227 0;
#X obj 285 259 text get boot;
#X obj 319 314 t b s;
#X obj 342 358 text set boot;
#X obj 320 392 del 50;
#X obj 339 429 del 50;
#X obj 318 467 s s.reset;
#X obj 435 312 r ctl.reload_mset;
#X obj 466 352 bng 20 250 50 0 empty empty empty 0 -10 0 12 #fcfcfc #000000 #000000;
#X obj 410 423 symbol;
#X msg 388 769 read \$1;
#X obj 435 819 text define set;
#X text 392 220 load mset file from boot.txt \, and load .mset file into [text define set], f 24;
#X msg 211 386 read boot.set;
#X msg 169 354 write boot.set;
#X obj 567 354 symbol;
#X obj 567 385 s s.mset_name;
#X obj 619 304 r s.get_mset_name;
#X obj 674 384 s s.rec_mset_name;
#X obj 481 376 r s.reload;
#X msg 454 785 write \$1;
#X obj 464 745 symbol;
#X obj 471 705 r s.save;
#X obj 32 291 r s.write_boot.set;
#X obj 33 328 bng 20 250 50 0 empty empty empty 0 -10 0 12 #fcfcfc #000000 #000000;
#X obj 934 280 file glob;
#X obj 920 492 text set mset_list;
#X obj 982 353 del 250;
#X obj 981 321 bng 20 250 50 0 empty empty empty 0 -10 0 12 #fcfcfc #000000 #000000;
#X obj 922 387 zl group 1e+07, f 19;
#X obj 920 442 list;
#X obj 909 328 zl nth 1;
#X obj 1065 488 s s.num_of_msets;
#X obj 971 439 zl len;
#X obj 901 154 text define mset_list;
#X obj 391 708 symbol;
#X obj 413 577 list fromsymbol;
#X obj 413 648 list tosymbol;
#X obj 493 546 list fromsymbol;
#X obj 411 529 tosymbol;
#X obj 493 509 tosymbol;
#X obj 414 617 zl join;
#X obj 448 455 t b l;
#X msg 411 502 sets/;
#X obj 208 53 bng 25 250 50 0 empty empty empty 17 7 0 10 #191919 #e1e1e1 #e1e1e1;
#X obj 208 25 r em.set.fullreload;
#X obj 613 613 s scmgr.temp;
#X msg 613 583 temp_simple > \$1;
#X obj 32 57 sel 1;
#X obj 126 52 loadbang;
#X obj 32 83 onebang;
#X obj 32 25 r scmgr.current_screen;
#X obj 293 189 bng 25 250 50 0 empty empty empty 17 7 0 10 #191919 #e1e1e1 #e1e1e1;
#X obj 83 243 bng 20 250 50 0 empty empty empty 0 -10 0 12 #fcfcfc #000000 #000000;
#X obj 82 206 r s.read_boot.set;
#X obj 32 132 r scmgr.startup-100ms;
#X obj 613 529 once;
#X obj 679 442 r em.set.fullreload;
#X obj 639 442 bng 25 250 50 0 empty empty empty 17 7 0 10 #191919 #e1e1e1 #e1e1e1;
#X obj 630 480 loadmess bang;
#X obj 293 163 del 850;
#X obj 208 304 del 750;
#X msg 933 239 symbol ~/repos/emsys/sets/*.mset;
#X connect 1 0 2 0;
#X connect 2 0 3 0;
#X connect 3 0 15 0;
#X connect 3 0 5 0;
#X connect 3 1 4 0;
#X connect 3 1 10 0;
#X connect 3 1 16 0;
#X connect 5 0 6 0;
#X connect 5 0 7 0;
#X connect 6 0 7 0;
#X connect 8 0 9 0;
#X connect 9 0 6 0;
#X connect 9 0 10 0;
#X connect 10 0 43 0;
#X connect 11 0 12 0;
#X connect 14 0 0 0;
#X connect 15 0 0 0;
#X connect 16 0 17 0;
#X connect 16 0 19 0;
#X connect 18 0 16 0;
#X connect 20 0 10 0;
#X connect 21 0 12 0;
#X connect 22 0 21 0;
#X connect 23 0 22 0;
#X connect 24 0 25 0;
#X connect 25 0 15 0;
#X connect 26 0 29 0;
#X connect 26 0 32 0;
#X connect 28 0 30 0;
#X connect 29 0 28 0;
#X connect 30 0 31 0;
#X connect 30 0 34 0;
#X connect 31 0 27 0;
#X connect 32 0 30 0;
#X connect 34 0 33 0;
#X connect 36 0 22 1;
#X connect 36 0 11 0;
#X connect 37 0 42 0;
#X connect 38 0 36 0;
#X connect 39 0 42 1;
#X connect 40 0 37 0;
#X connect 41 0 39 0;
#X connect 41 0 57 0;
#X connect 42 0 38 0;
#X connect 43 0 44 0;
#X connect 43 1 41 0;
#X connect 44 0 40 0;
#X connect 45 0 61 0;
#X connect 45 0 62 0;
#X connect 46 0 45 0;
#X connect 48 0 47 0;
#X connect 49 0 51 0;
#X connect 50 0 51 1;
#X connect 51 0 53 0;
#X connect 52 0 49 0;
#X connect 53 0 63 0;
#X connect 53 0 1 0;
#X connect 54 0 14 0;
#X connect 55 0 54 0;
#X connect 56 0 14 0;
#X connect 57 0 48 0;
#X connect 58 0 59 0;
#X connect 59 0 60 0;
#X connect 60 0 57 1;
#X connect 61 0 53 0;
#X connect 62 0 14 0;
#X connect 63 0 26 0;
