#N canvas 1440 928 1920 976 12;
#X obj 218 385 ml3/text;
#X obj 388 191 pack f f;
#X obj 395 148 r s.current_seg_id;
#X obj 139 408 bng 20 250 50 0 empty empty empty 0 -10 0 12 #fcfcfc #000000 #000000;
#X obj 281 121 r s.current_rep;
#X obj 489 95 r s.num_of_segs;
#X obj 290 157 + 1;
#X obj 114 177 r t.beat1;
#X obj 153 129 r s.reset;
#X obj 206 222 del 25;
#X msg 211 170 0;
#X obj 168 95 r s.first_rep;
#X obj 315 88 r s.seg_reps_lookahead;
#X obj 301 288 zl join;
#X obj 329 251 t b a;
#X obj 90 302 r ctl.update_text;
#X obj 95 340 bng 20 250 50 0 empty empty empty 0 -10 0 12 #fcfcfc #000000 #000000;
#X obj 516 352 list;
#X obj 267 347 list;
#X obj 225 303 t, f 6;
#X obj 350 56 r s.loop_len_lookahead;
#X obj 571 135 r s.seg_tin_lookahead;
#X obj 771 145 r s.seg_bpm_target_lookahead;
#X obj 806 175 r s.seg_bpm_rtime_lookahead;
#X obj 589 160 r s.seg_poly_lookahead;
#X obj 670 371 zl join;
#X obj 687 339 t b a;
#X obj 775 248 buddy;
#X msg 753 339 \$1@\$2s -;
#X obj 301 184 pack f f f;
#X obj 870 327 print;
#X obj 756 210 sel 0;
#X obj 811 215 sel 0;
#X obj 771 282 pack f f;
#X obj 565 228 pack f f;
#X obj 573 200 buddy;
#X msg 385 224 \$1/\$2:;
#X msg 569 266 t\$1p\$2;
#X obj 467 235 r t.count;
#X obj 487 452 zl join;
#X obj 550 407 t b a;
#X msg 499 301 - \$1;
#X obj 110 380 r t.count;
#X obj 483 269 + 1;
#X obj 46 453 sel 0;
#X obj 43 507 bng 20 250 50 0 empty empty empty 0 -10 0 12 #fcfcfc #000000 #000000;
#X obj 155 452 del 25;
#X obj 29 380 r s.reset;
#X msg 302 500 1;
#X msg 277 219 \$1/\$2 - \$3b;
#X text 234 16 displaying segment data on ml3 oled display;
#X connect 1 0 36 0;
#X connect 2 0 1 0;
#X connect 3 0 46 0;
#X connect 3 0 48 0;
#X connect 4 0 6 0;
#X connect 5 0 1 1;
#X connect 6 0 29 0;
#X connect 7 0 9 0;
#X connect 8 0 9 0;
#X connect 8 0 10 0;
#X connect 9 0 19 0;
#X connect 10 0 6 0;
#X connect 11 0 10 0;
#X connect 12 0 29 1;
#X connect 13 0 18 1;
#X connect 14 0 13 0;
#X connect 14 1 13 1;
#X connect 15 0 16 0;
#X connect 15 0 0 0;
#X connect 17 0 39 0;
#X connect 18 0 0 2;
#X connect 19 1 17 0;
#X connect 19 1 18 0;
#X connect 20 0 29 2;
#X connect 21 0 35 0;
#X connect 22 0 31 0;
#X connect 23 0 32 0;
#X connect 24 0 35 1;
#X connect 25 0 17 1;
#X connect 26 0 25 0;
#X connect 26 1 25 1;
#X connect 27 0 33 0;
#X connect 27 1 33 1;
#X connect 28 0 25 0;
#X connect 29 0 49 0;
#X connect 31 1 27 0;
#X connect 32 1 27 1;
#X connect 33 0 28 0;
#X connect 33 0 30 0;
#X connect 34 0 37 0;
#X connect 35 0 34 0;
#X connect 35 1 34 1;
#X connect 36 0 13 0;
#X connect 37 0 26 0;
#X connect 38 0 43 0;
#X connect 39 0 0 1;
#X connect 40 0 39 0;
#X connect 40 1 39 1;
#X connect 41 0 40 0;
#X connect 42 0 3 0;
#X connect 42 0 44 0;
#X connect 43 0 41 0;
#X connect 44 0 45 0;
#X connect 46 0 0 0;
#X connect 47 0 3 0;
#X connect 48 0 41 0;
#X connect 49 0 14 0;
