#N canvas 827 239 527 327 12;
#X obj 79 281 text get set;
#X obj 79 69 bng 25 250 50 0 empty empty empty 17 7 0 10 #191919 #e1e1e1 #e1e1e1;
#X obj 79 403 route rep len bpm, f 22;
#X floatatom 79 496 5 0 0 0 - - - 12;
#X floatatom 123 496 5 0 0 0 - - - 12;
#X floatatom 167 496 5 0 0 0 - - - 12;
#X obj 79 367 list trim;
#X obj 79 324 list split 2;
#X obj 150 324 list;
#X obj 79 535 *, f 9;
#X obj 167 535 / 60;
#X obj 79 576 /, f 16;
#X obj 167 447 sel 0;
#X obj 79 108 text size set;
#X obj 79 206 uzi;
#X floatatom 79 144 5 0 0 0 - - - 0;
#X obj 79 243 counter 0 0;
#X obj 142 206 - 1;
#X obj 79 613 +;
#X obj 79 652 i;
#X msg 126 613 0;
#X obj 79 174 t f f b, f 17;
#X obj 79 721 / 60;
#X obj 79 758 i;
#X floatatom 79 796 5 0 0 0 - - - 12;
#X obj 136 721 % 60;
#X obj 136 758 i;
#X floatatom 136 796 5 0 0 0 - - - 12;
#X obj 79 686 t f f;
#X text 174 793 s;
#X text 115 793 m;
#X obj 47 840 s s.duration_minutes;
#X obj 230 809 s s.duration_seconds;
#X obj 198 700 s s.duration_fullseconds;
#X obj 79 34 r s.get_duration;
#X obj 374 83 r s.duration_minutes;
#X obj 520 83 r s.duration_seconds;
#X obj 527 215 list append s;
#X obj 527 188 tosymbol;
#X obj 381 188 tosymbol;
#X obj 527 241 rm_char 32;
#X obj 381 241 rm_char 32;
#X obj 381 215 list append m;
#X obj 381 438 tosymbol;
#X obj 352 504 symbol;
#X obj 381 469 t b s;
#X msg 431 476 stop;
#X obj 352 596 s s.duration_total;
#X obj 381 373 prepend duration:;
#X obj 423 512 del 100;
#X obj 381 284 pak s s;
#X obj 463 139 buddy;
#X connect 0 0 7 0;
#X connect 1 0 13 0;
#X connect 2 0 3 0;
#X connect 2 1 4 0;
#X connect 2 2 12 0;
#X connect 3 0 9 0;
#X connect 4 0 9 1;
#X connect 5 0 10 0;
#X connect 6 0 2 0;
#X connect 7 0 6 0;
#X connect 7 1 8 0;
#X connect 8 0 7 0;
#X connect 9 0 11 0;
#X connect 10 0 11 1;
#X connect 11 0 18 0;
#X connect 12 0 5 0;
#X connect 12 1 5 0;
#X connect 13 0 15 0;
#X connect 14 0 16 0;
#X connect 15 0 21 0;
#X connect 16 0 0 0;
#X connect 17 0 16 4;
#X connect 18 0 19 0;
#X connect 19 0 18 1;
#X connect 19 0 28 0;
#X connect 19 0 33 0;
#X connect 20 0 19 0;
#X connect 21 0 14 0;
#X connect 21 1 17 0;
#X connect 21 2 20 0;
#X connect 22 0 23 0;
#X connect 23 0 24 0;
#X connect 23 0 31 0;
#X connect 25 0 26 0;
#X connect 26 0 27 0;
#X connect 26 0 32 0;
#X connect 28 0 22 0;
#X connect 28 1 25 0;
#X connect 34 0 1 0;
#X connect 35 0 51 0;
#X connect 36 0 51 1;
#X connect 37 0 40 0;
#X connect 38 0 37 0;
#X connect 39 0 42 0;
#X connect 40 0 50 1;
#X connect 41 0 50 0;
#X connect 42 0 41 0;
#X connect 43 0 45 0;
#X connect 44 0 47 0;
#X connect 45 0 46 0;
#X connect 45 0 49 0;
#X connect 45 1 44 1;
#X connect 46 0 49 0;
#X connect 48 0 43 0;
#X connect 49 0 44 0;
#X connect 50 0 48 0;
#X connect 51 0 39 0;
#X connect 51 1 38 0;
