#N canvas 1440 928 1920 980 12;
#X obj 156 369 t b s;
#X obj 96 445 del 50;
#X obj 115 482 del 50;
#X obj 94 520 s s.reset;
#X obj 225 354 r ctl.reload_mset;
#X obj 161 547 symbol;
#X msg 100 895 read \$1;
#X obj 96 969 text define set;
#X obj 273 426 r s.reload;
#X msg 166 911 write \$1;
#X obj 176 871 symbol;
#X obj 183 831 r s.save;
#X obj 851 351 file glob;
#X obj 837 563 text set mset_list;
#X obj 899 424 del 250;
#X obj 898 392 bng 20 250 50 0 empty empty empty 0 -10 0 12 #fcfcfc #000000 #000000;
#X obj 839 458 zl group 1e+07, f 19;
#X obj 837 513 list;
#X obj 826 399 zl nth 1;
#X obj 982 559 s s.num_of_msets;
#X obj 888 510 zl len;
#X obj 966 624 text define mset_list;
#X obj 103 834 symbol;
#X obj 120 694 list fromsymbol;
#X obj 117 782 list tosymbol;
#X obj 123 655 tosymbol;
#X obj 126 743 zl join, f 17;
#X msg 123 628 sets/;
#X obj 250 123 bng 25 250 50 0 empty empty empty 17 7 0 10 #191919 #e1e1e1 #e1e1e1;
#X obj 250 95 r em.set.fullreload;
#X obj 57 127 sel 1;
#X obj 151 122 loadbang;
#X obj 57 153 onebang;
#X obj 57 95 r scmgr.current_screen;
#X obj 133 209 bng 25 250 50 0 empty empty empty 17 7 0 10 #191919 #e1e1e1 #e1e1e1;
#X obj 783 617 s scmgr.GetMsetList;
#X obj 779 584 del 100;
#X obj 781 545 bng 25 250 50 0 empty empty empty 17 7 0 10 #191919 #e1e1e1 #e1e1e1;
#X obj 345 508 s scmgr.CurrentlyLoadedMsetName;
#X obj 403 131 text define mset_temp;
#X obj 403 96 r em.set.mset_temp;
#X obj 847 62 r em.set.repopulate_mset_list;
#X obj 849 95 bng 25 250 50 0 empty empty empty 17 7 0 10 #191919 #e1e1e1 #e1e1e1;
#X obj 232 663 list fromsymbol;
#X obj 305 585 list tosymbol;
#X obj 308 626 s scmgr.CurrentlyLoadedMsetName_NoExt;
#X text 372 550 strip .mset ext;
#X obj 229 969 print;
#X obj 204 320 tosymbol;
#X obj 207 269 return boot.GetParamFromConf mset;
#X obj 252 160 del 1000;
#X obj 227 390 bng 25 250 50 0 empty empty empty 17 7 0 10 #191919 #e1e1e1 #e1e1e1;
#X text 345 360 load mset file from boot.conf \, and load .mset file into [text define set], f 24;
#X obj 160 581 t b s;
#X text 72 24 todo: this patch needs a lot of cleaning up since the new implementation of bootparams, f 43;
#X obj 915 139 return boot.GetParamFromConf path;
#X obj 852 250 append_chars sets/*.mset;
#X msg 966 588 click;
#X symbolatom 853 284 37 0 0 0 - - - 16;
#X obj 916 168 route path;
#X obj 134 247 t;
#X obj 140 340 symbol;
#X obj 841 141 t;
#X obj 208 295 route mset;
#X obj 847 212 symbol;
#X obj 916 197 tosymbol;
#X obj 254 503 fromsymbol;
#X obj 300 550 zl ecils 5;
#X connect 0 0 1 0;
#X connect 0 1 5 0;
#X connect 0 1 38 0;
#X connect 0 1 66 0;
#X connect 1 0 2 0;
#X connect 1 0 3 0;
#X connect 2 0 3 0;
#X connect 4 0 51 0;
#X connect 5 0 53 0;
#X connect 6 0 7 0;
#X connect 8 0 5 0;
#X connect 9 0 7 0;
#X connect 9 0 47 0;
#X connect 10 0 9 0;
#X connect 11 0 10 0;
#X connect 12 0 15 0;
#X connect 12 0 18 0;
#X connect 14 0 16 0;
#X connect 15 0 14 0;
#X connect 16 0 17 0;
#X connect 16 0 20 0;
#X connect 17 0 13 0;
#X connect 17 0 37 0;
#X connect 18 0 16 0;
#X connect 20 0 19 0;
#X connect 22 0 10 1;
#X connect 22 0 6 0;
#X connect 23 0 26 0;
#X connect 24 0 22 0;
#X connect 25 0 23 0;
#X connect 26 0 24 0;
#X connect 27 0 25 0;
#X connect 28 0 50 0;
#X connect 29 0 28 0;
#X connect 30 0 32 0;
#X connect 31 0 32 1;
#X connect 32 0 34 0;
#X connect 33 0 30 0;
#X connect 34 0 60 0;
#X connect 34 0 62 0;
#X connect 36 0 35 0;
#X connect 37 0 36 0;
#X connect 40 0 39 0;
#X connect 41 0 42 0;
#X connect 42 0 62 0;
#X connect 43 0 26 1;
#X connect 44 0 45 0;
#X connect 48 0 61 1;
#X connect 49 0 63 0;
#X connect 50 0 34 0;
#X connect 51 0 2 0;
#X connect 51 0 5 0;
#X connect 53 0 27 0;
#X connect 53 1 43 0;
#X connect 55 0 59 0;
#X connect 56 0 58 0;
#X connect 57 0 21 0;
#X connect 58 0 12 0;
#X connect 59 0 65 0;
#X connect 60 0 61 0;
#X connect 60 1 49 0;
#X connect 61 0 0 0;
#X connect 62 0 64 0;
#X connect 62 1 55 0;
#X connect 63 0 48 0;
#X connect 64 0 56 0;
#X connect 65 0 64 1;
#X connect 66 0 67 0;
#X connect 67 0 44 0;
