#N canvas 827 239 527 327 12;
#X obj 306 513 ml3/text, f 24;
#X obj 306 466 ml3/screen_manager, f 24;
#X msg 318 269 temp_param param;
#X obj 137 275 loadbang;
#X obj 137 302 del 500;
#X obj 199 302 del 2000;
#X obj 140 364 b;
#X obj 100 293 bng 25 250 50 0 empty empty empty 17 7 0 10 #191919 #e1e1e1 #e1e1e1;
#X obj 306 392 hradio 21 1 0 5 empty empty empty 0 -11 0 12 #fcfcfc #000000 #000000 0;
#X obj 306 435 nbx 4 18 -1e+37 1e+37 0 0 empty empty empty 0 -8 0 10 #191919 #e1e1e1 #e1e1e1 0 256;
#X text 348 345 select screen;
#X msg 137 332 0;
#X msg 199 332 1;
#X msg 290 240 temp_simple message;
#X floatatom 306 357 5 0 0 0 - - - 12;
#X msg 306 567 set \$1;
#X msg 453 567 set \$1;
#X symbolatom 453 630 23 0 0 0 - - - 24;
#X symbolatom 453 665 23 0 0 0 - - - 24;
#X obj 217 567 loadbang;
#X msg 217 595 set ...;
#X obj 508 491 hradio 21 1 0 4 empty empty empty 0 -11 0 12 #fcfcfc #000000 #000000 0;
#X text 508 455 select ml3 mode;
#X text 146 444 select ml3 emote;
#X obj 146 479 hradio 21 1 0 6 empty empty empty 0 -11 0 12 #fcfcfc #000000 #000000 0;
#X obj 146 503 hradio 21 1 0 6 empty empty empty 0 -11 0 12 #fcfcfc #000000 #000000 0;
#X obj 116 544 pak 0 0;
#X obj 116 573 t b l;
#X obj 508 523 t b f;
#X obj 513 354 tgl 25 0 empty empty autohide 17 7 0 10 #191919 #e1e1e1 #e1e1e1 0 1;
#X obj 453 319 knob 25 0 127 0 0 empty empty #191919 #696969 #E1E1E1 1 0 0 0 1 270 0 0 0;
#X obj 513 384 t b f;
#X obj 475 384 t b f;
#X obj 571 364 hradio 21 1 0 3 empty empty param\ type 0 -11 0 12 #fcfcfc #000000 #ffffff 0;
#X obj 571 396 t b f;
#X obj 648 364 nbx 4 18 -1e+37 1e+37 0 0 empty empty scroil\ mode\ length 0 -8 0 10 #191919 #e1e1e1 #e1e1e1 0 256;
#X obj 648 395 t b f;
#X floatatom 473 354 5 0 0 0 - - - 12;
#X msg 605 491 set \$1;
#X msg 571 319 set \$1;
#X msg 648 319 set \$1;
#X msg 513 319 set \$1;
#X msg 473 293 set \$1;
#X msg 55 445 set \$1;
#X obj 55 420 unpack f f;
#X msg 103 445 set \$1;
#X msg 243 392 set \$1;
#X obj 871 315 s lnmgr1a.param;
#X obj 871 284 list prepend 0;
#X obj 973 284 list prepend 1;
#X obj 1169 -602 r s.seg_bpm_target_lookahead;
#X obj 1283 178 r s.seg_bpm_rtime_lookahead;
#X obj 1397 202 r s.seg_tin_lookahead;
#X obj 1069 284 list prepend 2;
#X obj 1144 131 r s.seg_mnm_bank_lookahead;
#X obj 951 131 r s.seg_md_bank_lookahead;
#X obj 1167 284 list prepend 3;
#X obj 1267 284 list prepend 4;
#X obj 769 161 r s.reset;
#X obj 836 161 r t.beat1;
#X obj 836 202 bng 25 250 50 0 empty empty empty 17 7 0 10 #191919 #e1e1e1 #e1e1e1;
#X obj 879 526 s lnmgr1b.param;
#X obj 1339 410 r t.count;
#X obj 1339 444 + 1;
#X obj 1288 384 r s.seg_reps_lookahead;
#X obj 1482 384 r s.loop_len_lookahead;
#X obj 1248 410 r s.seg_reps;
#X obj 820 379 r s.reset;
#X obj 887 379 r t.beat1;
#X obj 887 405 bng 25 250 50 0 empty empty empty 17 7 0 10 #191919 #e1e1e1 #e1e1e1;
#X obj 1442 410 r s.loop_len;
#X obj 1082 377 r s.current_rep;
#X obj 1082 410 + 1;
#X obj 1123 410 r s.first_rep;
#X obj 820 350 r s.reload;
#X obj 769 131 r s.reload;
#X obj 959 410 r s.current_seg_id;
#X obj 997 444 r s.num_of_segs;
#X obj 879 474 list prepend 0;
#X obj 997 474 list prepend 1;
#X obj 879 585 r ctl.desired_seek_seg;
#X msg 910 658 temp_param seek segment;
#X obj 879 622 t f b, f 8;
#X obj 879 701 s scmgr.temp_param.val;
#X obj 1771 161 r ctl.update_text;
#X obj 1616 161 r ctl.seek_knob_state;
#X obj 1616 189 == 0;
#X obj 1771 189 bng 25 250 50 0 empty empty empty 17 7 0 10 #191919 #e1e1e1 #e1e1e1;
#X obj 1616 220 tgl 25 0 empty empty empty 17 7 0 10 #191919 #e1e1e1 #e1e1e1 0 1;
#X obj 1616 253 gate 1, f 25;
#X obj 1616 281 del 25;
#X obj 910 732 s scmgr.temp;
#X obj 1117 701 s scmgr.temp_param.val;
#X obj 1148 732 s scmgr.temp;
#X obj 1115 530 r ctl.desired_mset;
#X obj 1119 584 tosymbol;
#X obj 1117 622 t s b, f 8;
#X obj 1339 550 r s.duration_total;
#X obj 1339 584 tosymbol;
#X obj 951 178 tosymbol;
#X obj 1096 189 tosymbol;
#X obj 871 248 store_in_symbol 1;
#X obj 991 248 store_in_symbol 1;
#X obj 1099 248 store_in_symbol 1;
#X obj 1203 248 store_in_symbol 1;
#X obj 1317 248 store_in_symbol 1;
#X obj 879 444 store_in_symbol 1;
#X obj 1208 444 store_in_symbol 1;
#X obj 1402 444 store_in_symbol 1;
#X msg 1642 448 1;
#X obj 1639 389 once;
#X obj 1639 418 bng 26 250 50 0 empty empty empty 17 7 0 10 #191919 #e1e1e1 #e1e1e1;
#X obj 1655 361 r t.prime;
#X obj 1721 361 r s.reset;
#X text 1600 111 - quirks to get things to display correctly & at the right times -;
#X msg 1141 444 1;
#X obj 1639 326 r t.count;
#X obj 278 167 r scmgr.current_screen;
#X obj 1106 474 list prepend 3;
#X obj 1208 474 list prepend 4;
#X obj 1304 474 list prepend 5;
#X obj 1402 474 list prepend 6;
#X obj 46 391 s scmgr.InitScreenFinished;
#X obj 45 358 bng 25 250 50 0 empty empty empty 17 7 0 10 #191919 #e1e1e1 #e1e1e1;
#X obj 1191 22 sel 0;
#X obj 1239 22 i;
#X obj 1261 -197 text get set;
#X obj 1316 -566 r s.current_seg_id;
#X obj 1319 -532 - 1;
#X obj 1309 -452 i;
#X obj 1240 64 contain_char 40 41;
#X obj 1169 -568 t f b;
#X obj 1267 -113 route bpm;
#X obj 1266 -143 list trim;
#X obj 1264 -172 list split 2;
#X obj 1338 -171 list;
#X text 1390 -501 if bpm=0 \, find last bpm value and display that instead. this is display only \, because we want to allow tempo changing during performance for as long as it's not enforced, f 16;
#X obj 1277 -298 spigot 1;
#X floatatom 1260 -230 5 0 0 0 - - - 12;
#X obj 1278 -268 counter 1 0 999, f 21;
#X obj 1307 -232 sel 0;
#X obj 1277 -344 bng 25 250 50 0 empty empty empty 17 7 0 10 #191919 #e1e1e1 #e1e1e1;
#X msg 1318 -336 1;
#X floatatom 1307 -422 5 0 0 0 - - - 12;
#X obj 1218 -88 sel 0;
#X msg 1426 -185 0;
#X obj 1285 -55 t f b;
#X obj 1308 -395 t b b f;
#X obj 93 111 bng 25 250 50 0 empty empty empty 17 7 0 10 #191919 #e1e1e1 #e1e1e1;
#X obj 139 107 bng 25 250 50 0 empty empty empty 17 7 0 10 #191919 #e1e1e1 #e1e1e1;
#X obj 233 209 counter 0 1 4;
#X obj 148 148 t;
#X obj 95 151 t;
#X msg 112 196 1;
#X msg 161 190 0;
#X obj 246 271 i;
#X obj 79 32 r scmgr.SeekScreenPrevious;
#X obj 144 59 r scmgr.SeekScreenNext;
#X msg 1142 662 temp_param loading mset...;
#X obj 1342 763 s scmgr.static;
#X obj 1339 658 prepend b;
#X msg 1364 722 a mset duration;
#X floatatom 1321 -496 5 0 0 0 - - - 12;
#X obj 1411 -30 buddy;
#X text 1460 -95 [buddy] ensures [spigot] is deactivated if needed \, before triggering the counter again, f 15;
#X connect 0 0 15 0;
#X connect 0 1 16 0;
#X connect 1 0 0 0;
#X connect 1 1 0 1;
#X connect 1 2 44 0;
#X connect 1 2 0 2;
#X connect 1 3 42 0;
#X connect 1 3 0 3;
#X connect 1 4 41 0;
#X connect 1 4 0 4;
#X connect 1 5 39 0;
#X connect 1 5 0 5;
#X connect 1 6 40 0;
#X connect 1 6 0 6;
#X connect 1 7 38 0;
#X connect 1 7 0 7;
#X connect 2 0 1 1;
#X connect 3 0 4 0;
#X connect 4 0 11 0;
#X connect 5 0 12 0;
#X connect 6 0 5 0;
#X connect 7 0 11 0;
#X connect 8 0 9 0;
#X connect 9 0 1 0;
#X connect 11 0 6 0;
#X connect 11 0 8 0;
#X connect 12 0 8 0;
#X connect 12 0 123 0;
#X connect 13 0 1 1;
#X connect 14 0 8 0;
#X connect 15 0 18 0;
#X connect 16 0 17 0;
#X connect 17 0 0 1;
#X connect 18 0 0 0;
#X connect 19 0 20 0;
#X connect 20 0 17 0;
#X connect 20 0 18 0;
#X connect 21 0 28 0;
#X connect 24 0 26 0;
#X connect 25 0 26 1;
#X connect 26 0 27 0;
#X connect 27 0 1 0;
#X connect 27 1 0 2;
#X connect 28 0 1 0;
#X connect 28 1 0 7;
#X connect 29 0 31 0;
#X connect 30 0 37 0;
#X connect 31 0 1 0;
#X connect 31 1 0 4;
#X connect 32 0 1 0;
#X connect 32 1 0 3;
#X connect 33 0 34 0;
#X connect 34 0 1 0;
#X connect 34 1 0 5;
#X connect 35 0 36 0;
#X connect 36 0 1 0;
#X connect 36 1 0 6;
#X connect 37 0 32 0;
#X connect 38 0 21 0;
#X connect 39 0 33 0;
#X connect 40 0 35 0;
#X connect 41 0 29 0;
#X connect 42 0 30 0;
#X connect 42 0 37 0;
#X connect 43 0 24 0;
#X connect 44 0 43 0;
#X connect 44 1 45 0;
#X connect 45 0 25 0;
#X connect 46 0 8 0;
#X connect 46 0 9 0;
#X connect 48 0 47 0;
#X connect 49 0 47 0;
#X connect 50 0 131 0;
#X connect 51 0 104 2;
#X connect 52 0 105 2;
#X connect 53 0 47 0;
#X connect 54 0 100 0;
#X connect 55 0 99 0;
#X connect 56 0 47 0;
#X connect 57 0 47 0;
#X connect 58 0 60 0;
#X connect 59 0 60 0;
#X connect 60 0 101 0;
#X connect 60 0 102 0;
#X connect 60 0 103 0;
#X connect 60 0 104 0;
#X connect 60 0 105 0;
#X connect 62 0 63 0;
#X connect 63 0 120 0;
#X connect 64 0 107 2;
#X connect 65 0 108 2;
#X connect 66 0 107 1;
#X connect 67 0 69 0;
#X connect 68 0 69 0;
#X connect 69 0 115 0;
#X connect 69 0 106 0;
#X connect 69 0 107 0;
#X connect 69 0 108 0;
#X connect 70 0 108 1;
#X connect 71 0 72 0;
#X connect 72 0 118 0;
#X connect 73 0 115 0;
#X connect 74 0 69 0;
#X connect 75 0 60 0;
#X connect 76 0 106 2;
#X connect 77 0 79 0;
#X connect 78 0 61 0;
#X connect 79 0 61 0;
#X connect 80 0 82 0;
#X connect 81 0 91 0;
#X connect 82 0 83 0;
#X connect 82 1 81 0;
#X connect 84 0 87 0;
#X connect 85 0 86 0;
#X connect 86 0 88 0;
#X connect 87 0 89 1;
#X connect 88 0 89 0;
#X connect 89 0 90 0;
#X connect 90 0 69 0;
#X connect 90 0 60 0;
#X connect 94 0 95 0;
#X connect 95 0 96 0;
#X connect 96 0 92 0;
#X connect 96 1 158 0;
#X connect 97 0 98 0;
#X connect 98 0 160 0;
#X connect 99 0 101 2;
#X connect 100 0 102 2;
#X connect 101 0 48 0;
#X connect 102 0 49 0;
#X connect 103 0 53 0;
#X connect 104 0 56 0;
#X connect 105 0 57 0;
#X connect 106 0 78 0;
#X connect 107 0 119 0;
#X connect 108 0 121 0;
#X connect 109 0 120 0;
#X connect 110 0 111 0;
#X connect 111 0 109 0;
#X connect 112 0 110 1;
#X connect 113 0 110 1;
#X connect 113 0 111 0;
#X connect 115 0 118 0;
#X connect 116 0 110 0;
#X connect 117 0 155 1;
#X connect 118 0 61 0;
#X connect 119 0 61 0;
#X connect 120 0 61 0;
#X connect 121 0 61 0;
#X connect 123 0 122 0;
#X connect 124 0 125 0;
#X connect 124 1 103 2;
#X connect 125 0 130 0;
#X connect 126 0 134 0;
#X connect 127 0 128 0;
#X connect 128 0 162 0;
#X connect 129 0 143 0;
#X connect 130 0 103 2;
#X connect 131 0 124 0;
#X connect 131 1 129 0;
#X connect 132 0 144 0;
#X connect 133 0 132 0;
#X connect 134 0 133 0;
#X connect 134 1 135 0;
#X connect 135 0 134 0;
#X connect 137 0 139 0;
#X connect 138 0 126 0;
#X connect 139 0 138 0;
#X connect 139 0 140 0;
#X connect 140 0 145 0;
#X connect 141 0 137 0;
#X connect 142 0 137 1;
#X connect 143 0 147 0;
#X connect 144 0 163 0;
#X connect 144 1 146 0;
#X connect 145 0 163 1;
#X connect 146 0 125 1;
#X connect 146 1 145 0;
#X connect 147 0 141 0;
#X connect 147 1 142 0;
#X connect 147 1 139 4;
#X connect 147 2 139 3;
#X connect 147 2 139 4;
#X connect 148 0 152 0;
#X connect 149 0 151 0;
#X connect 150 0 155 0;
#X connect 151 0 150 0;
#X connect 151 1 154 0;
#X connect 152 0 150 0;
#X connect 152 1 153 0;
#X connect 153 0 150 1;
#X connect 154 0 150 1;
#X connect 155 0 14 0;
#X connect 156 0 148 0;
#X connect 157 0 149 0;
#X connect 158 0 93 0;
#X connect 160 0 159 0;
#X connect 160 0 161 0;
#X connect 161 0 159 0;
#X connect 162 0 129 1;
#X connect 163 0 141 0;
#X connect 163 1 137 1;
