#N canvas 1746 980 1514 689 12;
#N canvas 0 50 450 250 (subpatch) 0;
#X array mnm_seq 8 float 3;
#A 0 35 41 36 39 43 47 38 44;
#X coords 0 64 8 0 1471 550 1 0 0;
#X restore 37 111 graph;
#X floatatom 2312 852 5 0 0 0 - - - 0;
#X obj 2221 1077 array get mnm_seq;
#X floatatom 2223 1013 5 0 63 0 - - - 0;
#X obj 1528 962 uzi 64;
#X obj 1527 1014 t f b;
#X obj 1514 648 bng 20 250 50 0 empty empty reset\ notes 0 -10 0 12 #fcfcfc #000000 #000000;
#X obj 1529 1078 array set mnm_seq;
#X msg 1558 1047 -1;
#X obj 2222 1111 i;
#X msg 2239 1419 127;
#X obj 2482 836 counter 255;
#X floatatom 2483 872 5 0 0 0 - - - 0;
#X obj 2486 757 tgl 20 0 empty empty empty 0 -10 0 12 #fcfcfc #000000 #000000 0 1;
#X obj 2216 1602 noteout;
#X msg 2429 1513 49;
#X msg 2465 1515 50;
#X msg 2500 1518 51;
#X text 482 1802 comment;
#X obj 1894 1124 array get mnm_seq;
#X obj 1890 1281 array set mnm_seq;
#X obj 1521 499 tgl 20 0 empty empty integerise 0 -10 0 12 #fcfcfc #000000 #000000 0 1;
#X obj 1895 1087 bng 20 50 50 0 empty empty empty 0 -10 0 12 #fcfcfc #000000 #000000;
#X obj 1888 1150 iter;
#X obj 1891 1222 i;
#X obj 1897 1188 + 0.5;
#X msg 2536 1518 52;
#X msg 2570 1520 53;
#X msg 2609 1523 54;
#X msg 2387 1513 57;
#X msg 2648 1524 27;
#X obj 1935 942 loadmess 1;
#X obj 2221 1256 spigot;
#X obj 2243 1224 > 0;
#X obj 1892 1249 zl group 64;
#X obj 2224 987 mod 64;
#X obj 2259 951 + 1;
#N canvas 0 50 450 250 (subpatch) 0;
#X array mnm_chance 8 float 3;
#A 0 84 85 88 82 75 71 70 81;
#X coords 0 100 8 0 1471 165 1 0 0;
#X restore 36 706 graph;
#X obj 2378 1227 random 100;
#X obj 2283 1453 spigot;
#X obj 2382 1075 array get mnm_chance;
#X obj 1505 1121 uzi 64;
#X obj 1504 1173 t f b;
#X obj 1516 705 bng 20 250 50 0 empty empty reset\ chance 0 -10 0 12 #fcfcfc #000000 #000000;
#X obj 1506 1237 array set mnm_chance;
#X msg 1535 1206 100;
#X obj 1505 1145 counter 0 0 64;
#X obj 1528 987 counter 0 0 64;
#X text 1939 1078 snap to int in array ui, f 12;
#X text 2510 759 test;
#X obj 2395 1259 <;
#X floatatom 2384 1110 5 0 0 0 - - - 0;
#X obj 2033 1147 iter;
#X obj 2036 1219 i;
#X obj 2042 1185 + 0.5;
#X obj 2037 1246 zl group 64;
#X obj 2035 1278 array set mnm_chance;
#X obj 2039 1121 array get mnm_chance;
#X obj 2346 1514 bng 20 50 50 0 empty empty empty 0 -10 0 12 #fcfcfc #000000 #000000;
#X obj 2221 1153 sel 0;
#X obj 2212 1536 f;
#X obj 2241 1557 f;
#X obj 2330 988 mod 64;
#X obj 2383 1193 t b f;
#X obj 2345 1391 i;
#X obj 2320 954 + 2;
#X obj 2358 1026 pipe 10;
#X msg 2267 1419 0;
#X obj 2219 1352 t b b b b f b;
#X floatatom 1699 846 5 0 0 0 - - - 0;
#X text 1692 826 loop length;
#X obj 1648 895 array size mnm_seq;
#X obj 1651 928 array size mnm_chance;
#X obj 1523 386 bng 20 250 50 0 empty empty Save 0 -10 0 12 #fcfcfc #000000 #000000;
#X msg 2336 401 clear;
#X obj 1550 595 until;
#X obj 1558 636 f;
#X msg 1621 596 0;
#X obj 1609 639 + 1;
#X obj 1577 514 t b b f;
#X obj 2268 363 f;
#X obj 2267 395 t f b b;
#X obj 2286 462 array get mnm_seq;
#X obj 1561 804 array set mnm_seq;
#X floatatom 1558 333 5 0 0 0 $ - - 0;
#X obj 1577 448 f;
#X obj 1523 333 bng 20 50 50 0 empty empty Load 0 -10 0 12 #fcfcfc #000000 #000000;
#X msg 2575 410 clear;
#X obj 2503 362 f;
#X obj 2502 394 t f b b;
#X obj 2506 482 array get mnm_chance;
#X obj 2341 431 s \$0-buffer_pitch;
#X obj 2588 443 s \$0-buffer_chance;
#X obj 2490 612 text define \$0-buffer_chance;
#X obj 2251 585 text define \$0-buffer_pitch;
#X obj 1904 553 until;
#X obj 1905 596 f;
#X msg 1975 554 0;
#X obj 1963 597 + 1;
#X obj 1931 472 t b b f;
#X obj 1932 441 f;
#X obj 1576 705 text get \$0-buffer_pitch;
#X obj 1930 664 text get \$0-buffer_chance;
#X obj 2007 591 s \$0-buffer_chance;
#X obj 1674 628 s \$0-buffer_pitch;
#X obj 1554 553 text size \$0-buffer_pitch;
#X obj 1908 511 text size \$0-buffer_chance;
#X obj 2505 509 text set \$0-buffer_chance 1e+06;
#X obj 2285 489 text set \$0-buffer_pitch 1e+06;
#X obj 1962 727 array set mnm_chance;
#X obj 1881 988 metro 250;
#X msg 2017 960 1;
#X msg 2054 960 0;
#X obj 2022 990 i;
#X obj 1873 1020 spigot 1;
#X obj 2020 932 del 500;
#X text 3094 267 comment;
#X obj 2569 339 s s.get_mset_name;
#X obj 2568 306 bng 20 250 50 0 empty empty empty 0 -10 0 12 #fcfcfc #000000 #000000;
#X obj 2085 461 r s.rec_mset_name;
#X obj 2564 261 loadbang;
#X obj 2117 509 pack f s;
#X obj 1740 503 r s.rec_mset_name;
#X obj 1772 551 pack f s;
#X obj 2210 431 r s.rec_mset_name;
#X obj 2236 519 pack f s;
#X obj 2459 443 r s.rec_mset_name;
#X obj 2485 539 pack f s;
#X msg 1663 594 read \$2.\$1_pitch.seq;
#X msg 2017 552 read \$2.\$1_chance.seq;
#X msg 2251 550 write \$2.\$1_pitch.seq;
#X msg 2490 576 write \$2.\$1_chance.seq;
#X floatatom 2378 934 5 0 0 0 - - - 0;
#X msg 261 993 \; mnm_seq xticks 0 1 4;
#X msg 262 1043 \; mnm_chance xticks 0 1 4;
#X msg 620 1003 \; mnm_seq yticks -1 1 12;
#X msg 624 1052 \; mnm_chance yticks 0 5 10;
#X msg 835 1057 \; mnm_chance ylabel -0.1 0 20 40 60 80 100;
#X msg 823 1008 \; mnm_seq ylabel -0.1;
#X obj 2221 1289 + 24;
#X floatatom 2220 1322 5 0 0 0 - - - 0;
#X obj 579 935 loadmess b;
#X obj 576 905 bng 20 250 50 0 empty empty empty 0 -10 0 12 #fcfcfc #000000 #000000;
#X obj 2197 1490 spigot;
#X msg 453 991 \; mnm_seq width 9;
#X msg 449 1034 \; mnm_chance width 9;
#X obj 1776 679 zl len;
#X floatatom 1776 724 5 0 0 0 - - - 0;
#X obj 1745 764 array size mnm_seq;
#X obj 2099 767 array size mnm_chance;
#X obj 38 97 hsl 1470 775 0 1 0 0 empty empty empty -2 -10 0 12 #202020 #dfdfdf #dfdfdf 0 1;
#X obj 2447 1022 scale 0 63 0 1;
#X obj 2477 983 - 0;
#X msg 2104 1191 zlclear;
#X obj 1594 748 t l l;
#X obj 1968 699 t l l;
#X obj 2134 690 zl len;
#X floatatom 2134 735 5 0 0 0 - - - 0;
#X obj 1740 804 change;
#X obj 1535 289 t b f;
#X obj 2413 1427 r s.seg_midiseq_dest;
#X obj 1548 229 r s.seg_midiseq_id;
#X obj 2416 1458 sel mnm0 mnm1 mnm2 mnm3 mnm4 mnm5 mnm6 md0;
#X obj 2708 1492 print s.seg_midiseq_dest;
#X obj 2563 663 r t.tempo;
#X obj 2569 697 expr 60000 / $f1;
#X obj 2572 731 / 16;
#X floatatom 2555 759 5 0 0 0 - - - 0;
#X obj 2481 794 metro 31;
#X obj 2594 897 r t.prime;
#X obj 2609 863 r tin.tinning;
#X obj 2593 937 bng 20 250 50 0 empty empty empty 0 -10 0 12 #fcfcfc #000000 #000000;
#X obj 2307 822 r t.count16_db;
#X msg 2584 975 0;
#X obj 2474 1184 print chance;
#X obj 2496 1118 > 0;
#X obj 2460 1145 spigot;
#X obj 2286 1222 print pitch;
#X obj 2292 1178 spigot;
#X obj 2584 1020 del 10;
#X msg 2586 1051 1;
#X obj 2671 958 r t.beat1;
#X obj 1540 261 change;
#X obj 2283 1565 change;
#X connect 1 0 36 0;
#X connect 1 0 65 0;
#X connect 2 0 9 0;
#X connect 3 0 2 0;
#X connect 3 0 151 0;
#X connect 4 0 47 0;
#X connect 5 0 7 1;
#X connect 5 1 8 0;
#X connect 6 0 4 0;
#X connect 8 0 7 0;
#X connect 9 0 59 0;
#X connect 10 0 61 0;
#X connect 11 0 12 0;
#X connect 12 0 36 0;
#X connect 12 0 65 0;
#X connect 13 0 168 0;
#X connect 15 0 183 0;
#X connect 16 0 183 0;
#X connect 17 0 183 0;
#X connect 19 0 23 0;
#X connect 21 0 110 0;
#X connect 22 0 19 0;
#X connect 22 0 57 0;
#X connect 23 0 25 0;
#X connect 24 0 34 0;
#X connect 25 0 24 0;
#X connect 26 0 183 0;
#X connect 27 0 183 0;
#X connect 28 0 183 0;
#X connect 29 0 183 0;
#X connect 30 0 183 0;
#X connect 31 0 114 1;
#X connect 32 0 139 0;
#X connect 33 0 32 1;
#X connect 34 0 20 0;
#X connect 35 0 3 0;
#X connect 36 0 35 0;
#X connect 38 0 50 0;
#X connect 39 0 60 1;
#X connect 39 0 58 0;
#X connect 40 0 51 0;
#X connect 41 0 46 0;
#X connect 42 0 44 1;
#X connect 42 1 45 0;
#X connect 43 0 41 0;
#X connect 45 0 44 0;
#X connect 46 0 42 0;
#X connect 47 0 5 0;
#X connect 50 0 64 1;
#X connect 51 0 63 0;
#X connect 51 0 175 0;
#X connect 51 0 176 0;
#X connect 52 0 54 0;
#X connect 53 0 55 0;
#X connect 54 0 53 0;
#X connect 55 0 56 0;
#X connect 57 0 52 0;
#X connect 59 1 33 0;
#X connect 59 1 32 0;
#X connect 59 1 178 0;
#X connect 60 0 14 0;
#X connect 61 0 14 1;
#X connect 62 0 66 0;
#X connect 63 0 38 0;
#X connect 63 1 50 1;
#X connect 64 0 39 1;
#X connect 64 0 143 1;
#X connect 65 0 62 0;
#X connect 66 0 40 0;
#X connect 67 0 61 0;
#X connect 68 0 143 0;
#X connect 68 1 10 0;
#X connect 68 2 143 0;
#X connect 68 3 67 0;
#X connect 68 4 39 0;
#X connect 68 5 64 0;
#X connect 69 0 34 1;
#X connect 69 0 55 1;
#X connect 69 0 46 4;
#X connect 69 0 47 4;
#X connect 69 0 41 1;
#X connect 69 0 4 1;
#X connect 69 0 71 0;
#X connect 69 0 72 0;
#X connect 69 0 132 0;
#X connect 69 0 152 0;
#X connect 73 0 80 0;
#X connect 73 0 88 0;
#X connect 74 0 91 0;
#X connect 75 0 76 0;
#X connect 76 0 78 0;
#X connect 76 0 101 0;
#X connect 77 0 76 1;
#X connect 78 0 76 1;
#X connect 79 0 105 0;
#X connect 79 1 77 0;
#X connect 79 2 123 0;
#X connect 80 0 81 0;
#X connect 81 0 125 0;
#X connect 81 1 82 0;
#X connect 81 2 74 0;
#X connect 82 0 108 0;
#X connect 84 0 80 1;
#X connect 84 0 88 1;
#X connect 84 0 100 1;
#X connect 84 0 85 1;
#X connect 85 0 79 0;
#X connect 86 0 85 0;
#X connect 86 0 100 0;
#X connect 86 0 112 0;
#X connect 86 0 115 0;
#X connect 86 0 153 0;
#X connect 87 0 92 0;
#X connect 88 0 89 0;
#X connect 89 0 127 0;
#X connect 89 1 90 0;
#X connect 89 2 87 0;
#X connect 90 0 107 0;
#X connect 95 0 96 0;
#X connect 96 0 98 0;
#X connect 96 0 102 0;
#X connect 97 0 96 1;
#X connect 98 0 96 1;
#X connect 99 0 106 0;
#X connect 99 1 97 0;
#X connect 99 2 121 0;
#X connect 100 0 99 0;
#X connect 101 0 154 0;
#X connect 102 0 155 0;
#X connect 105 0 75 0;
#X connect 106 0 95 0;
#X connect 110 0 114 0;
#X connect 111 0 113 0;
#X connect 112 0 113 0;
#X connect 113 0 114 1;
#X connect 114 0 22 0;
#X connect 115 0 111 0;
#X connect 118 0 117 0;
#X connect 119 0 121 1;
#X connect 120 0 118 0;
#X connect 121 0 129 0;
#X connect 122 0 123 1;
#X connect 123 0 128 0;
#X connect 124 0 125 1;
#X connect 125 0 130 0;
#X connect 126 0 127 1;
#X connect 127 0 131 0;
#X connect 128 0 104 0;
#X connect 129 0 103 0;
#X connect 130 0 94 0;
#X connect 131 0 93 0;
#X connect 132 0 62 1;
#X connect 132 0 35 1;
#X connect 139 0 140 0;
#X connect 140 0 68 0;
#X connect 141 0 133 0;
#X connect 141 0 144 0;
#X connect 141 0 145 0;
#X connect 141 0 134 0;
#X connect 141 0 135 0;
#X connect 141 0 136 0;
#X connect 141 0 138 0;
#X connect 141 0 137 0;
#X connect 142 0 141 0;
#X connect 143 0 60 0;
#X connect 146 0 147 0;
#X connect 147 0 148 0;
#X connect 147 0 158 0;
#X connect 151 0 150 0;
#X connect 152 0 151 2;
#X connect 153 0 55 0;
#X connect 153 0 34 0;
#X connect 154 0 83 0;
#X connect 154 1 146 0;
#X connect 155 0 109 0;
#X connect 155 1 156 0;
#X connect 156 0 157 0;
#X connect 157 0 149 0;
#X connect 157 0 158 0;
#X connect 158 0 69 0;
#X connect 159 0 86 0;
#X connect 159 1 84 0;
#X connect 160 0 162 0;
#X connect 161 0 182 0;
#X connect 162 0 29 0;
#X connect 162 1 15 0;
#X connect 162 2 16 0;
#X connect 162 3 17 0;
#X connect 162 4 26 0;
#X connect 162 5 27 0;
#X connect 162 6 28 0;
#X connect 162 7 30 0;
#X connect 162 8 163 0;
#X connect 164 0 165 0;
#X connect 165 0 166 0;
#X connect 166 0 167 0;
#X connect 167 0 168 1;
#X connect 168 0 11 0;
#X connect 169 0 171 0;
#X connect 170 0 171 0;
#X connect 171 0 173 0;
#X connect 172 0 1 0;
#X connect 173 0 40 0;
#X connect 173 0 2 0;
#X connect 173 0 179 0;
#X connect 175 0 176 1;
#X connect 175 0 178 1;
#X connect 176 0 174 0;
#X connect 178 0 177 0;
#X connect 179 0 180 0;
#X connect 180 0 40 0;
#X connect 181 0 179 0;
#X connect 182 0 159 0;
#X connect 183 0 14 2;
