#N canvas 827 239 527 327 12;
#X obj 271 325 ml3/text, f 24;
#X obj 271 278 ml3/screen_manager, f 24;
#X msg 444 233 temp_param param;
#X obj 102 87 loadbang;
#X obj 102 114 del 500;
#X obj 164 114 del 2000;
#X obj 105 176 b;
#X obj 65 105 bng 25 250 50 0 empty empty empty 17 7 0 10 #191919 #e1e1e1 #e1e1e1;
#X obj 271 202 hradio 21 1 0 5 empty empty empty 0 -11 0 12 #fcfcfc #000000 #000000 0;
#X obj 271 247 nbx 4 18 -1e+37 1e+37 0 0 empty empty empty 0 -8 0 10 #191919 #e1e1e1 #e1e1e1 0 256;
#X text 313 168 select screen;
#X msg 102 144 0;
#X msg 164 144 1;
#X msg 416 204 temp_simple message;
#X floatatom 271 169 5 0 0 0 - - - 12;
#X connect 1 0 0 0;
#X connect 1 1 0 1;
#X connect 2 0 1 1;
#X connect 3 0 4 0;
#X connect 4 0 11 0;
#X connect 5 0 12 0;
#X connect 6 0 5 0;
#X connect 7 0 11 0;
#X connect 8 0 9 0;
#X connect 9 0 1 0;
#X connect 11 0 6 0;
#X connect 11 0 8 0;
#X connect 12 0 8 0;
#X connect 13 0 1 1;
#X connect 14 0 8 0;
