#N canvas 2292 928 1068 976 12;
#X obj 347 538 ml3/text;
#X obj 507 303 pack f f;
#X obj 514 260 r s.current_seg_id;
#X obj 263 530 bng 20 250 50 0 empty empty empty 0 -10 0 12 #fcfcfc #000000 #000000;
#X obj 400 233 r s.current_rep;
#X obj 608 207 r s.num_of_segs;
#X obj 409 269 + 1;
#X obj 233 289 r t.beat1;
#X obj 272 241 r s.reset;
#X msg 330 282 0;
#X obj 287 207 r s.first_rep;
#X obj 420 400 zl join;
#X obj 448 363 t b a;
#X obj 209 414 r ctl.update_text;
#X obj 206 437 bng 20 250 50 0 empty empty empty 0 -10 0 12 #fcfcfc #000000 #000000;
#X obj 635 464 list;
#X obj 386 459 list;
#X obj 344 415 t, f 6;
#X obj 468 189 r s.loop_len_lookahead;
#X obj 690 247 r s.seg_tin_lookahead;
#X obj 890 257 r s.seg_bpm_target_lookahead;
#X obj 925 287 r s.seg_bpm_rtime_lookahead;
#X obj 708 272 r s.seg_poly_lookahead;
#X obj 789 483 zl join;
#X obj 806 451 t b a;
#X obj 894 360 buddy;
#X msg 872 451 \$1@\$2s -;
#X obj 420 296 pack f f f;
#X obj 870 313 sel 0;
#X obj 890 394 pack f f;
#X obj 684 340 pack f f;
#X obj 692 312 buddy;
#X msg 504 336 \$1/\$2:;
#X msg 688 378 t\$1p\$2;
#X obj 586 347 r t.count;
#X obj 606 564 zl join;
#X obj 669 519 t b a;
#X msg 618 413 - \$1;
#X obj 204 488 r t.count;
#X obj 602 381 + 1;
#X obj 165 565 sel 0;
#X obj 162 619 bng 20 250 50 0 empty empty empty 0 -10 0 12 #fcfcfc #000000 #000000;
#X obj 265 597 del 25;
#X obj 123 497 r s.reset;
#X msg 421 612 1;
#X msg 396 331 \$1/\$2 - \$3b;
#X text 174 30 displaying segment data on ml3 oled display;
#X obj 211 326 r t.stop;
#X obj 159 136 r s.seek_seg;
#X obj 160 175 bng 20 250 50 0 empty empty empty 0 -10 0 12 #fcfcfc #000000 #000000;
#X obj 159 295 del 50;
#X obj 400 157 r s.seg_reps_lookahead;
#X floatatom 420 192 5 0 0 0 - - - 0;
#X obj 163 215 t b b b;
#X obj 214 244 del 10;
#X obj 325 334 del 20;
#X obj 315 486 gate 1;
#X obj 228 377 loadmess 1;
#X obj 40 382 r ctl.seek_knob_state;
#X obj 58 413 == 0;
#X obj 57 446 tgl 20 0 empty empty empty 0 -10 0 12 #fcfcfc #000000 #000000 0 1;
#X obj 264 565 gate 1;
#X connect 1 0 32 0;
#X connect 2 0 1 0;
#X connect 3 0 61 1;
#X connect 4 0 6 0;
#X connect 5 0 1 1;
#X connect 6 0 27 0;
#X connect 7 0 55 0;
#X connect 8 0 9 0;
#X connect 8 0 55 0;
#X connect 9 0 6 0;
#X connect 10 0 9 0;
#X connect 11 0 16 1;
#X connect 12 0 11 0;
#X connect 12 1 11 1;
#X connect 13 0 14 0;
#X connect 14 0 56 1;
#X connect 15 0 35 0;
#X connect 16 0 0 2;
#X connect 17 1 15 0;
#X connect 17 1 16 0;
#X connect 18 0 27 2;
#X connect 19 0 31 0;
#X connect 20 0 28 0;
#X connect 21 0 25 1;
#X connect 22 0 31 1;
#X connect 23 0 15 1;
#X connect 24 0 23 0;
#X connect 24 1 23 1;
#X connect 25 0 29 0;
#X connect 25 1 29 1;
#X connect 26 0 23 0;
#X connect 27 0 45 0;
#X connect 28 1 25 0;
#X connect 29 0 26 0;
#X connect 30 0 33 0;
#X connect 31 0 30 0;
#X connect 31 1 30 1;
#X connect 32 0 11 0;
#X connect 33 0 24 0;
#X connect 34 0 39 0;
#X connect 35 0 0 1;
#X connect 36 0 35 0;
#X connect 36 1 35 1;
#X connect 37 0 36 0;
#X connect 38 0 3 0;
#X connect 38 0 40 0;
#X connect 39 0 37 0;
#X connect 40 0 41 0;
#X connect 42 0 0 0;
#X connect 43 0 3 0;
#X connect 44 0 37 0;
#X connect 45 0 12 0;
#X connect 47 0 55 0;
#X connect 48 0 49 0;
#X connect 49 0 53 0;
#X connect 51 0 52 0;
#X connect 52 0 27 1;
#X connect 53 0 50 0;
#X connect 53 1 55 0;
#X connect 53 2 54 0;
#X connect 54 0 9 0;
#X connect 55 0 17 0;
#X connect 56 0 0 0;
#X connect 57 0 56 0;
#X connect 57 0 61 0;
#X connect 58 0 59 0;
#X connect 59 0 60 0;
#X connect 60 0 56 0;
#X connect 60 0 61 0;
#X connect 61 0 44 0;
#X connect 61 0 42 0;
