#N canvas 827 239 527 327 12;
#X obj 271 325 ml3/text, f 24;
#X obj 271 278 ml3/screen_manager, f 24;
#X msg 283 81 temp_param param;
#X obj 102 87 loadbang;
#X obj 102 114 del 500;
#X obj 164 114 del 2000;
#X obj 105 176 b;
#X obj 65 105 bng 25 250 50 0 empty empty empty 17 7 0 10 #191919 #e1e1e1 #e1e1e1;
#X obj 271 204 hradio 21 1 0 5 empty empty empty 0 -11 0 12 #fcfcfc #000000 #000000 0;
#X obj 271 247 nbx 4 18 -1e+37 1e+37 0 0 empty empty empty 0 -8 0 10 #191919 #e1e1e1 #e1e1e1 0 256;
#X text 313 167 select screen;
#X msg 102 144 0;
#X msg 164 144 1;
#X msg 255 52 temp_simple message;
#X floatatom 271 169 5 0 0 0 - - - 12;
#X msg 271 379 set \$1;
#X msg 418 379 set \$1;
#X symbolatom 418 442 23 0 0 0 - - - 24;
#X symbolatom 418 477 23 0 0 0 - - - 24;
#X obj 182 379 loadbang;
#X msg 182 407 set ...;
#X obj 473 303 hradio 21 1 0 4 empty empty empty 0 -11 0 12 #fcfcfc #000000 #000000 0;
#X text 473 277 select ml3 mode;
#X text 111 266 select ml3 emote;
#X obj 111 291 hradio 21 1 0 6 empty empty empty 0 -11 0 12 #fcfcfc #000000 #000000 0;
#X obj 111 315 hradio 21 1 0 6 empty empty empty 0 -11 0 12 #fcfcfc #000000 #000000 0;
#X obj 81 356 pak 0 0;
#X obj 81 385 t b l;
#X obj 473 335 t b f;
#X obj 478 166 tgl 25 0 empty empty autohide 17 7 0 10 #191919 #e1e1e1 #e1e1e1 0 1;
#X obj 418 131 knob 25 0 127 0 0 empty empty #191919 #696969 #E1E1E1 1 0 0 0 1 270 0 0 0;
#X obj 478 196 t b f;
#X obj 440 196 t b f;
#X obj 536 176 hradio 21 1 0 3 empty empty param\ type 0 -11 0 12 #fcfcfc #000000 #ffffff 0;
#X obj 536 208 t b f;
#X obj 613 176 nbx 4 18 -1e+37 1e+37 0 0 empty empty scroil\ mode\ length 0 -8 0 10 #191919 #e1e1e1 #e1e1e1 0 256;
#X obj 613 207 t b f;
#X floatatom 438 166 5 0 0 0 - - - 12;
#X msg 570 303 set \$1;
#X msg 536 131 set \$1;
#X msg 613 131 set \$1;
#X msg 478 131 set \$1;
#X msg 438 105 set \$1;
#X msg 20 257 set \$1;
#X obj 20 232 unpack f f;
#X msg 68 257 set \$1;
#X msg 208 204 set \$1;
#X obj 783 207 s lnmgr1a.param;
#X msg 784 163 0 50;
#X msg 834 163 0 25;
#X connect 0 0 15 0;
#X connect 0 1 16 0;
#X connect 1 0 0 0;
#X connect 1 1 0 1;
#X connect 1 2 44 0;
#X connect 1 2 0 2;
#X connect 1 3 42 0;
#X connect 1 3 0 3;
#X connect 1 4 41 0;
#X connect 1 4 0 4;
#X connect 1 5 39 0;
#X connect 1 5 0 5;
#X connect 1 6 40 0;
#X connect 1 6 0 6;
#X connect 1 7 38 0;
#X connect 1 7 0 7;
#X connect 2 0 1 1;
#X connect 3 0 4 0;
#X connect 4 0 11 0;
#X connect 5 0 12 0;
#X connect 6 0 5 0;
#X connect 7 0 11 0;
#X connect 8 0 9 0;
#X connect 9 0 1 0;
#X connect 11 0 6 0;
#X connect 11 0 8 0;
#X connect 12 0 8 0;
#X connect 13 0 1 1;
#X connect 14 0 8 0;
#X connect 15 0 18 0;
#X connect 16 0 17 0;
#X connect 17 0 0 1;
#X connect 18 0 0 0;
#X connect 19 0 20 0;
#X connect 20 0 17 0;
#X connect 20 0 18 0;
#X connect 21 0 28 0;
#X connect 24 0 26 0;
#X connect 25 0 26 1;
#X connect 26 0 27 0;
#X connect 27 0 1 0;
#X connect 27 1 0 2;
#X connect 28 0 1 0;
#X connect 28 1 0 7;
#X connect 29 0 31 0;
#X connect 30 0 37 0;
#X connect 31 0 1 0;
#X connect 31 1 0 4;
#X connect 32 0 1 0;
#X connect 32 1 0 3;
#X connect 33 0 34 0;
#X connect 34 0 1 0;
#X connect 34 1 0 5;
#X connect 35 0 36 0;
#X connect 36 0 1 0;
#X connect 36 1 0 6;
#X connect 37 0 32 0;
#X connect 38 0 21 0;
#X connect 39 0 33 0;
#X connect 40 0 35 0;
#X connect 41 0 29 0;
#X connect 42 0 30 0;
#X connect 42 0 37 0;
#X connect 43 0 24 0;
#X connect 44 0 43 0;
#X connect 44 1 45 0;
#X connect 45 0 25 0;
#X connect 46 0 8 0;
#X connect 46 0 9 0;
#X connect 48 0 47 0;
#X connect 49 0 47 0;
