#N canvas 1440 928 1920 976 12;
#X obj 201 138 r t.interrupt;
#X obj 202 180 onebang;
#X obj 305 140 r t.load;
#X msg 200 245 252;
#X msg 156 245 250;
#X obj 187 295 f;
#X obj 146 203 bng 20 250 50 0 empty empty empty 0 -10 0 12 #fcfcfc #000000 #000000;
#X obj 120 165 r t.beat1;
#X obj 185 344 gate 0;
#X obj 66 296 r tin.toggle;
#X obj 148 398 gate 1;
#X obj 307 341 tgl 20 0 empty empty empty 0 -10 0 12 #fcfcfc #000000 #000000 0 1;
#X msg 293 306 0;
#X msg 333 296 1;
#X obj 342 244 r s.first_rep;
#X obj 285 204 r s.md_pgm_change;
#X obj 288 243 change;
#X obj 292 278 bng 20 250 50 0 empty empty empty 0 -10 0 12 #fcfcfc #000000 #000000;
#X obj 231 435 sel 250;
#X msg 305 532 0;
#X obj 367 671 s tin.toggle;
#X obj 529 331 r s.last_rep;
#X obj 427 359 r ctl.tin;
#X obj 432 392 bng 20 250 50 0 empty empty empty 0 -10 0 12 #fcfcfc #000000 #000000;
#X msg 435 424 stop;
#X obj 392 468 onebang;
#X obj 371 424 sel 250;
#X obj 513 428 onebang;
#X obj 564 361 r s.seg_tin;
#X obj 559 393 sel 1;
#X obj 314 466 r t.stop;
#X obj 614 537 gate 1;
#X obj 563 500 == 0;
#X obj 561 464 r s.hold;
#X msg 177 536 0;
#X obj 175 489 r s.reset;
#X obj 179 565 s s.hold;
#X msg 647 501 1;
#X obj 521 539 r s.seg_tin;
#X obj 558 584 gate 0;
#X obj 463 590 r ctl.tin;
#X text 623 565 activate tin for the last rep \, ONLY if hold is off & we receive tin=1 from segment data [r s.seg_tin]. or just activate tin from ctl manually., f 26;
#X text 357 487 once 250 is sent \, turn off tin again \, only if tin=1 \, it's the last rep \, and we haven't touched the manual tin ctl, f 22;
#X text 442 164 don't let transport messages through to md/mnm if pgm change is occurring. turn back on at the start of next segment. this is because of a bug that overwhelms MCL if you do transport & pgm at the same time., f 31;
#X text 176 67 tin: send stop signal to md/mnm just before next rep to fix desync or interrupt mismatching scale length patterns, f 32;
#X obj 65 492 s tin.tinning;
#X msg 94 370 250;
#X msg 47 358 252;
#X obj 808 291 d tin.toggle;
#X obj 820 250 r tin.toggle;
#X obj 921 248 r ctl.tin;
#X obj 916 290 d ctl.tin;
#X obj 815 366 r s.seg_tin;
#X obj 817 403 d s.seg_tin;
#X obj 920 371 r s.last_rep;
#X obj 918 403 d s.last_rep;
#X obj 904 462 r tin.tinning;
#X obj 906 497 d tin.tinning;
#X obj 876 560 r s.md_pgm_change;
#X obj 1013 559 r s.mnm_pgm_change;
#X obj 879 607 d s.md_pgm_change;
#X obj 1015 605 d s.mnm_pgm_change;
#X obj 1059 359 r t.interrupt;
#X obj 1057 396 d t.interrupt;
#X obj 1178 375 r t.beat1;
#X obj 1176 405 d t.beat1;
#X obj 1071 469 r s.first_rep;
#X obj 1072 502 d s.first_rep;
#X obj 1195 473 r t.stop;
#X obj 1192 500 d t.stop;
#X obj 1279 462 r s.reset;
#X obj 1283 501 d s.reset;
#X obj 1223 536 r s.hold;
#X obj 1226 575 d s.hold;
#X obj 78 523 s tin.pretin;
#X obj 41 447 sel 250 252;
#X obj 798 462 r t.load;
#X obj 793 495 d t.load;
#X obj 877 652 r tin.pretin;
#X obj 878 691 d tin.pretin;
#X obj 1114 710 d ============;
#X msg 1114 674 =============;
#X obj 1034 255 tgl 20 0 empty empty empty 0 -10 0 12 #fcfcfc #000000 #000000 0 1;
#X obj 877 221 tgl 20 0 empty empty empty 0 -10 0 12 #fcfcfc #000000 #000000 0 1;
#X obj 1090 306 tgl 20 0 empty empty empty 0 -10 0 12 #fcfcfc #000000 #000000 0 1;
#X obj 1262 342 tgl 20 0 empty empty empty 0 -10 0 12 #fcfcfc #000000 #000000 0 1;
#X obj 991 341 tgl 20 0 empty empty empty 0 -10 0 12 #fcfcfc #000000 #000000 0 1;
#X obj 873 338 tgl 20 0 empty empty empty 0 -10 0 12 #fcfcfc #000000 #000000 0 1;
#X obj 862 432 tgl 20 0 empty empty empty 0 -10 0 12 #fcfcfc #000000 #000000 0 1;
#X obj 964 433 tgl 20 0 empty empty empty 0 -10 0 12 #fcfcfc #000000 #000000 0 1;
#X obj 1145 441 tgl 20 0 empty empty empty 0 -10 0 12 #fcfcfc #000000 #000000 0 1;
#X obj 1217 445 tgl 20 0 empty empty empty 0 -10 0 12 #fcfcfc #000000 #000000 0 1;
#X obj 1313 435 tgl 20 0 empty empty empty 0 -10 0 12 #fcfcfc #000000 #000000 0 1;
#X obj 1295 534 tgl 20 0 empty empty empty 0 -10 0 12 #fcfcfc #000000 #000000 0 1;
#X obj 1151 559 tgl 20 0 empty empty empty 0 -10 0 12 #fcfcfc #000000 #000000 0 1;
#X obj 999 530 tgl 20 0 empty empty empty 0 -10 0 12 #fcfcfc #000000 #000000 0 1;
#X obj 981 659 tgl 20 0 empty empty empty 0 -10 0 12 #fcfcfc #000000 #000000 0 1;
#X obj 1224 670 tgl 20 0 empty empty empty 0 -10 0 12 #fcfcfc #000000 #000000 0 1;
#X obj 208 398 r midich_ctl;
#X obj 138 447 midiout 2;
#X connect 0 0 1 0;
#X connect 1 0 3 0;
#X connect 2 0 1 1;
#X connect 3 0 5 0;
#X connect 4 0 5 0;
#X connect 5 0 8 1;
#X connect 6 0 4 0;
#X connect 7 0 6 0;
#X connect 8 0 10 1;
#X connect 8 0 26 0;
#X connect 9 0 8 0;
#X connect 10 0 18 0;
#X connect 10 0 75 0;
#X connect 10 0 99 0;
#X connect 11 0 10 0;
#X connect 12 0 11 0;
#X connect 13 0 11 0;
#X connect 14 0 13 0;
#X connect 15 0 16 0;
#X connect 16 0 17 0;
#X connect 17 0 12 0;
#X connect 18 0 19 0;
#X connect 19 0 20 0;
#X connect 21 0 27 0;
#X connect 21 0 37 0;
#X connect 22 0 23 0;
#X connect 23 0 24 0;
#X connect 24 0 25 0;
#X connect 25 0 19 0;
#X connect 26 0 25 0;
#X connect 27 0 25 1;
#X connect 28 0 29 0;
#X connect 29 0 27 1;
#X connect 30 0 19 0;
#X connect 31 0 39 1;
#X connect 32 0 31 0;
#X connect 33 0 32 0;
#X connect 34 0 36 0;
#X connect 35 0 34 0;
#X connect 35 0 19 0;
#X connect 37 0 31 1;
#X connect 38 0 39 0;
#X connect 39 0 20 0;
#X connect 40 0 20 0;
#X connect 46 0 99 0;
#X connect 47 0 99 0;
#X connect 49 0 48 0;
#X connect 50 0 51 0;
#X connect 52 0 53 0;
#X connect 54 0 55 0;
#X connect 56 0 57 0;
#X connect 58 0 60 0;
#X connect 59 0 61 0;
#X connect 62 0 63 0;
#X connect 64 0 65 0;
#X connect 66 0 67 0;
#X connect 68 0 69 0;
#X connect 70 0 71 0;
#X connect 72 0 73 0;
#X connect 75 0 45 0;
#X connect 75 1 74 0;
#X connect 76 0 77 0;
#X connect 78 0 79 0;
#X connect 81 0 80 0;
#X connect 82 0 51 1;
#X connect 83 0 48 1;
#X connect 84 0 63 1;
#X connect 85 0 65 1;
#X connect 86 0 55 1;
#X connect 87 0 53 1;
#X connect 88 0 77 1;
#X connect 89 0 57 1;
#X connect 90 0 67 1;
#X connect 91 0 69 1;
#X connect 92 0 71 1;
#X connect 93 0 73 1;
#X connect 94 0 61 1;
#X connect 95 0 60 1;
#X connect 96 0 79 1;
#X connect 97 0 80 1;
#X connect 98 0 99 1;
