#N canvas 827 239 527 327 12;
#X obj 271 312 ml3/text, f 48;
#X obj 271 265 ml3/screen_manager, f 48;
#X obj 349 226 nbx 4 18 -1e+37 1e+37 0 0 empty empty empty 0 -8 0 10 #333333 #e4e4e4 #e4e4e4 0 256;
#X obj 427 226 nbx 4 18 -1e+37 1e+37 0 0 empty empty empty 0 -8 0 10 #333333 #e4e4e4 #e4e4e4 0 256;
#X obj 505 226 nbx 4 18 -1e+37 1e+37 0 0 empty empty empty 0 -8 0 10 #333333 #e4e4e4 #e4e4e4 0 256;
#X obj 584 226 nbx 4 18 -1e+37 1e+37 0 0 empty empty empty 0 -8 0 10 #333333 #e4e4e4 #e4e4e4 0 256;
#X msg 164 144 default;
#X msg 271 140 temp_simple test;
#X msg 388 140 temp_param param;
#X text 376 198 val;
#X text 414 198 param;
#X text 526 197 val;
#X text 567 197 param;
#X text 388 179 bottom;
#X text 546 179 top;
#X msg 102 144 init;
#X obj 102 87 loadbang;
#X obj 102 114 del 500;
#X obj 164 114 del 2000;
#X obj 105 176 b;
#X obj 65 105 bng 25 250 50 0 empty empty empty 17 7 0 10 #191919 #e1e1e1 #e1e1e1;
#X connect 1 0 0 0;
#X connect 1 1 0 1;
#X connect 2 0 1 1;
#X connect 3 0 1 2;
#X connect 4 0 1 3;
#X connect 5 0 1 4;
#X connect 6 0 1 0;
#X connect 7 0 1 0;
#X connect 8 0 1 0;
#X connect 15 0 1 0;
#X connect 15 0 19 0;
#X connect 16 0 17 0;
#X connect 17 0 15 0;
#X connect 18 0 6 0;
#X connect 19 0 18 0;
#X connect 20 0 15 0;
