#N canvas 1440 28 1600 840 12;
#X obj 177 83 loadbang;
#X obj 117 379 text define boot;
#X obj 220 145 del 50;
#X msg 220 182 0;
#X obj 212 214 text get boot;
#X obj 246 269 t b s;
#X obj 269 313 text set boot;
#X obj 247 347 del 50;
#X obj 266 384 del 50;
#X obj 245 422 s s.reset;
#X obj 362 267 r ctl.reload_mset;
#X obj 393 307 bng 20 250 50 0 empty empty empty 0 -10 0 12 #fcfcfc #000000 #000000;
#X obj 337 365 symbol;
#X msg 336 400 read \$1;
#X obj 337 441 text define set;
#X text 319 175 load mset file from boot.txt \, and load .mset file into [text define set], f 24;
#X msg 138 341 read boot.set;
#X msg 96 309 write boot.set;
#X connect 0 0 2 0;
#X connect 0 0 16 0;
#X connect 2 0 3 0;
#X connect 3 0 4 0;
#X connect 4 0 5 0;
#X connect 5 0 17 0;
#X connect 5 0 7 0;
#X connect 5 1 6 0;
#X connect 5 1 12 0;
#X connect 7 0 8 0;
#X connect 7 0 9 0;
#X connect 8 0 9 0;
#X connect 10 0 11 0;
#X connect 11 0 8 0;
#X connect 11 0 12 0;
#X connect 12 0 13 0;
#X connect 13 0 14 0;
#X connect 16 0 1 0;
#X connect 17 0 1 0;
