#N canvas 827 239 527 327 12;
#X obj 79 281 text get set;
#X obj 79 69 bng 25 250 50 0 empty empty empty 17 7 0 10 #191919 #e1e1e1 #e1e1e1;
#X obj 79 403 route rep len bpm, f 22;
#X floatatom 79 496 5 0 0 0 - - - 12;
#X floatatom 123 496 5 0 0 0 - - - 12;
#X floatatom 167 496 5 0 0 0 - - - 12;
#X obj 79 367 list trim;
#X obj 79 324 list split 2;
#X obj 150 324 list;
#X obj 79 535 *, f 9;
#X obj 167 535 / 60;
#X obj 79 576 /, f 16;
#X obj 167 447 sel 0;
#X obj 79 108 text size set;
#X obj 79 206 uzi;
#X floatatom 79 144 5 0 0 0 - - - 0;
#X obj 79 243 counter 0 0;
#X obj 142 206 - 1;
#X obj 79 613 +;
#X obj 79 652 i;
#X msg 126 613 0;
#X obj 79 174 t f f b, f 17;
#X obj 79 721 / 60;
#X obj 79 758 i;
#X floatatom 79 796 5 0 0 0 - - - 12;
#X obj 136 721 % 60;
#X obj 136 758 i;
#X floatatom 136 796 5 0 0 0 - - - 12;
#X obj 79 686 t f f;
#X text 174 795 s;
#X text 115 795 m;
#X obj 42 843 s s.duration_minutes;
#X obj 230 809 s s.duration_seconds;
#X obj 198 700 s s.duration_fullseconds;
#X obj 134 48 r s.get_duration;
#X connect 0 0 7 0;
#X connect 1 0 13 0;
#X connect 2 0 3 0;
#X connect 2 1 4 0;
#X connect 2 2 12 0;
#X connect 3 0 9 0;
#X connect 4 0 9 1;
#X connect 5 0 10 0;
#X connect 6 0 2 0;
#X connect 7 0 6 0;
#X connect 7 1 8 0;
#X connect 8 0 7 0;
#X connect 9 0 11 0;
#X connect 10 0 11 1;
#X connect 11 0 18 0;
#X connect 12 0 5 0;
#X connect 12 1 5 0;
#X connect 13 0 15 0;
#X connect 14 0 16 0;
#X connect 15 0 21 0;
#X connect 16 0 0 0;
#X connect 17 0 16 4;
#X connect 18 0 19 0;
#X connect 19 0 18 1;
#X connect 19 0 28 0;
#X connect 19 0 33 0;
#X connect 20 0 19 0;
#X connect 21 0 14 0;
#X connect 21 1 17 0;
#X connect 21 2 20 0;
#X connect 22 0 23 0;
#X connect 23 0 24 0;
#X connect 23 0 31 0;
#X connect 25 0 26 0;
#X connect 26 0 27 0;
#X connect 26 0 32 0;
#X connect 28 0 22 0;
#X connect 28 1 25 0;
#X connect 34 0 1 0;
