#N canvas 733 172 450 300 8;
#X obj 278 521 midiout;
#X msg 254 450 250;
#X msg 305 450 251;
#X obj 255 285 bng 38 300 280 0 empty empty ◄ 6 19 0 22 #fcffec #0a8f00 #000000;
#X obj 296 285 bng 38 300 250 0 empty empty ► 9 19 0 22 #c7ff7c #000000 #000000;
#X obj 337 285 bng 38 250 250 0 empty empty ⏸ 0 18 0 42 #ffdb00 #000000 #000000;
#X obj 278 183 stripnote;
#X obj 278 222 sel 41 40;
#X obj 278 153 notein;
#X msg 278 489 \$1;
#X obj 207 523 s to-mcl;
#X msg 363 450 252;
#X obj 364 222 r stop;
#X obj 222 222 r start;
#X obj 337 74 keyup;
#X obj 337 125 s start;
#X obj 362 157 s stop;
#X obj 337 98 sel 112 108;
#X obj 392 479 s stop_press;
#X obj 181 485 s start_press;
#X obj 358 511 s cont_press;
#X obj 354 190 r cont;
#X obj 580 358 counter 0 0 5;
#X obj 718 236 midirealtimein;
#X obj 580 388 sel 0;
#X obj 779 360 bng 25 250 50 0 empty empty >stop 17 7 0 10 #191919 #e1e1e1 #e1e1e1;
#X obj 734 360 bng 25 250 50 0 empty empty >cont 17 7 0 10 #191919 #e1e1e1 #e1e1e1;
#X obj 688 360 bng 25 250 50 0 empty empty >start 17 7 0 10 #191919 #e1e1e1 #e1e1e1;
#X obj 656 294 gate 0, f 12;
#X obj 656 255 tgl 25 0 empty empty clock\ in 17 7 0 10 #191919 #e1e1e1 #e1e1e1 0 1;
#X obj 580 419 counter 0 0 3;
#X obj 580 448 sel 0;
#X obj 257 357 bng 52 50 25 0 empty empty 1/4 7 26 0 24 #f77d17 #5061ff #000000;
#X msg 614 210 1;
#X msg 702 205 0;
#X obj 580 328 sel 248;
#X obj 688 328 sel 250 251 252, f 23;
#X obj 533 165 t, f 8;
#X obj 316 357 bng 52 300 200 0 empty empty load 4 26 0 22 #00063f #deff00 #ffffff;
#X obj 1047 269 nbx 4 18 6 64 0 0 empty empty pattern\ beat\ len 0 -8 0 10 #191919 #e1e1e1 #e1e1e1 0 256;
#X obj 1047 294 - 1;
#X obj 990 328 counter 0 0 15;
#X obj 1087 294 - 3;
#X obj 990 385 sel 13;
#X obj 1058 385 sel 1;
#X obj 938 385 sel 0;
#X obj 688 397 s mcl_start;
#X obj 734 424 s mcl_cont;
#X obj 780 397 s mcl_stop;
#X obj 533 127 r mcl_start;
#X obj 961 279 r mcl_start;
#X obj 580 486 s mcl_4pulse;
#X obj 961 229 r mcl_4pulse;
#X obj 961 255 r mcl_stop;
#X obj 701 174 r mcl_stop;
#X obj 612 174 r mcl_cont;
#X obj 1000 425 s load;
#X obj 938 428 s beat1;
#X obj 1059 231 r beat_len;
#X obj 1058 411 s downbeat;
#X obj 1122 374 s beat_counter;
#X obj 404 279 r mcl_4pulse;
#X obj 445 303 r load;
#X obj 260 330 hsl 108 17 -0.21 16 0 0 empty empty empty -2 -8 0 10 #000000 #ffffff #e1e1e1 0 1;
#X obj 62 282 t b f;
#X msg 43 343 range \$1 \$2;
#X obj 43 312 pack 0 127, f 16;
#X obj 62 251 r beat_len;
#X obj 137 343 r beat_counter;
#X obj 872 429 s beat2;
#X obj 872 398 sel 1;
#X connect 1 0 9 0;
#X connect 2 0 9 0;
#X connect 3 0 1 0;
#X connect 3 0 19 0;
#X connect 4 0 2 0;
#X connect 4 0 20 0;
#X connect 5 0 11 0;
#X connect 5 0 18 0;
#X connect 6 0 7 0;
#X connect 7 0 3 0;
#X connect 7 1 5 0;
#X connect 8 0 6 0;
#X connect 8 1 6 1;
#X connect 9 0 0 0;
#X connect 9 0 10 0;
#X connect 11 0 9 0;
#X connect 12 0 5 0;
#X connect 13 0 3 0;
#X connect 14 0 17 0;
#X connect 17 0 15 0;
#X connect 17 1 16 0;
#X connect 21 0 4 0;
#X connect 22 0 24 0;
#X connect 23 0 28 1;
#X connect 23 0 36 0;
#X connect 24 0 30 0;
#X connect 25 0 48 0;
#X connect 26 0 47 0;
#X connect 27 0 46 0;
#X connect 28 0 35 0;
#X connect 29 0 28 0;
#X connect 30 0 31 0;
#X connect 31 0 51 0;
#X connect 33 0 29 0;
#X connect 34 0 29 0;
#X connect 35 0 22 0;
#X connect 36 0 27 0;
#X connect 36 1 26 0;
#X connect 36 2 25 0;
#X connect 37 0 33 0;
#X connect 37 1 22 2;
#X connect 37 1 30 2;
#X connect 39 0 40 0;
#X connect 39 0 42 0;
#X connect 40 0 41 4;
#X connect 41 0 43 0;
#X connect 41 0 45 0;
#X connect 41 0 60 0;
#X connect 41 0 70 0;
#X connect 41 2 44 0;
#X connect 42 0 43 1;
#X connect 43 0 56 0;
#X connect 44 0 59 0;
#X connect 45 0 57 0;
#X connect 49 0 37 0;
#X connect 50 0 41 2;
#X connect 52 0 41 0;
#X connect 53 0 41 2;
#X connect 54 0 34 0;
#X connect 55 0 33 0;
#X connect 58 0 39 0;
#X connect 61 0 32 0;
#X connect 62 0 38 0;
#X connect 64 0 66 0;
#X connect 64 1 66 1;
#X connect 65 0 63 0;
#X connect 66 0 65 0;
#X connect 67 0 64 0;
#X connect 68 0 63 0;
#X connect 70 0 69 0;
#X coords 0 0 1 1 124 147 1 254 266;
