#N canvas 1583 1092 820 624 8;
#X obj 59 464 midiout;
#X msg -1 404 250;
#X msg 134 404 251;
#X obj 239 284 bng 46 300 280 0 started start < 10 20 0 46 #696969 #438f00 #16ff00;
#X obj 329 284 bng 46 300 250 0 continued cont > 10 20 0 46 #696969 #000000 #a7ff00;
#X obj 284 284 bng 46 250 250 0 stopped stop P 15 23 0 30 #696969 #000000 #ffe300;
#X msg -1 434 \$1;
#X obj -1 464 s to-mcl;
#X msg 59 404 252;
#X obj 569 359 counter 0 0 5;
#X obj 689 254 midirealtimein;
#X obj 569 389 sel 0;
#X obj 779 314 bng 25 250 50 0 mcl_stop empty >stop 0 33 0 10 #191919 #e1e1e1 #9c8500;
#X obj 734 314 bng 25 250 50 0 mcl_cont empty >cont 0 33 0 10 #191919 #e1e1e1 #639100;
#X obj 689 314 bng 25 250 50 0 mcl_start empty >start 0 33 0 10 #191919 #e1e1e1 #369d3a;
#X obj 629 284 gate 0, f 9;
#X obj 629 239 tgl 25 0 empty empty clock\ in -43 12 0 11 #191919 #e1e1e1 #8e7200 0 1;
#X obj 569 509 sel 0;
#X obj 239 331 bng 31 50 25 0 empty 4pulse 1/4 5 16 0 11 #f77d17 #5061ff #000000;
#X msg 614 209 1;
#X msg 644 209 0;
#X obj 569 329 sel 248;
#X obj 689 284 sel 250 251 252, f 23;
#X obj 554 179 t, f 8;
#X obj 269 331 bng 31 300 200 0 loaded load L 7 16 0 25 #7fa2ff #ff1300 #00063f;
#X obj 974 164 nbx 4 18 6 64 0 0 empty empty pattern\ beat\ len -11 -9 0 10 #191919 #e1e1e1 #008ee1 0 256;
#X obj 974 194 - 1;
#X obj 854 224 counter 0 0 15, f 30;
#X obj 1019 194 - 3;
#X obj 989 299 sel 13;
#X obj 1049 299 sel 1;
#X obj 554 149 r mcl_start;
#X obj 884 194 r mcl_start;
#X obj 644 149 r mcl_stop;
#X obj 614 179 r mcl_cont;
#X obj 989 329 s load;
#X obj 869 329 s beat1;
#X obj 974 119 r beat_len;
#X obj 1049 329 s downbeat;
#X obj 839 269 s beat_counter;
#X obj 243 364 hsl 175 16 0 16 0 0 empty beat_counter empty -2 -8 0 10 #000000 #ffffff #e1e1e1 0 1;
#X obj -1 224 t b f, f 9;
#X msg -1 284 range \$1 \$2;
#X obj -1 254 pack 0 127, f 15;
#X obj -1 194 r beat_len;
#X obj 929 329 s beat2;
#X obj 239 614 s start;
#X obj 389 614 s cont;
#X obj 314 614 s stop;
#X obj 164 614 s reset;
#X obj -1 584 sel 36 37 38 39 40 41 42 43, f 129;
#X obj -1 524 notein, f 20;
#X obj -1 554 stripnote, f 12;
#X obj 539 614 s manual_tin;
#X obj 74 614 s seg_hold;
#X obj 374 284 knob 46 30 300 0 120 tempo_ui_out tempo_ui #692e62 #696969 #e1e1e1 1 0 0 0 1 270 0 0 30;
#X obj 884 884 midiout;
#N canvas 2929 1407 460 501 midi_throttle 0;
#X obj 91 128 change;
#X obj 91 352 f, f 11;
#X obj 91 396 change;
#X obj 91 299 onebang, f 25;
#X obj 189 223 counter 0 0 1;
#X obj 189 255 sel 1;
#X obj 91 160 t b f;
#X obj 167 122 loadbang;
#X msg 167 151 1;
#X obj 163 180 metro 100;
#X obj 91 51 inlet;
#X obj 91 434 outlet;
#X text 336 232 prevents overwhelming hardware with MIDI messages, f 15;
#X connect 0 0 6 0;
#X connect 1 0 2 0;
#X connect 2 0 11 0;
#X connect 3 0 1 0;
#X connect 4 0 5 0;
#X connect 5 0 3 1;
#X connect 6 0 3 0;
#X connect 6 1 1 1;
#X connect 7 0 8 0;
#X connect 8 0 9 0;
#X connect 9 0 1 0;
#X connect 9 0 4 0;
#X connect 10 0 0 0;
#X restore 884 824 pd midi_throttle;
#X msg 1004 854 tempo \$1;
#X obj 1004 884 s to-mcl;
#X msg 734 869 set \$1;
#X obj 734 749 /;
#X obj 734 689 t b f;
#X msg 734 719 60000;
#X obj 734 539 midirealtimein;
#X obj 734 569 sel 248;
#X obj 734 629 sel 0;
#X msg 809 719 1;
#X msg 884 734 0;
#X obj 809 749 pipe 500;
#X msg 839 719 clear;
#X obj 734 809 spigot, f 9;
#X obj 809 689 t, f 15;
#N canvas 2504 1527 425 312 tempo2sysex 0;
#X obj 65 111 expr round($f1 * 24);
#X obj 65 145 expr ($f1 >> 7) & 0x7F;
#X obj 241 147 expr $f1 & 0x7F;
#X text 129 234 sysex IN to MD requires MCL: USB FWD: 1, f 22;
#X obj 66 181 pack f f;
#X obj 62 72 inlet;
#X obj 67 245 outlet;
#X text 272 80 stores bpm in 14 bit MIDI value, f 17;
#X msg 65 212 240 0 32 60 3 0 97 \$1 \$2 247;
#X connect 0 0 1 0;
#X connect 0 0 2 0;
#X connect 1 0 4 0;
#X connect 2 0 4 1;
#X connect 4 0 8 0;
#X connect 5 0 0 0;
#X connect 8 0 6 0;
#X restore 884 854 pd tempo2sysex;
#X obj 734 659 realtime;
#X obj 794 869 loadbang;
#X obj 734 839 int;
#X obj 734 599 counter 0 0 11;
#X obj 734 779 / 2;
#X obj 674 869 s tempo;
#X floatatom 394 332 4 0 0 3 bpm tempo_indicator - 10;
#X obj 869 299 sel 0 1;
#X obj 569 539 s 4pulse;
#X obj -1 314 s beat_counter;
#X obj -1 374 r started;
#X obj 59 374 r stopped;
#X obj 134 374 r continued;
#X obj 734 899 s tempo_ui;
#X obj 884 794 r tempo_ui_out;
#X obj 839 524 r tempo_ui_out;
#X obj 913 693 s tempo_indicator;
#X obj 914 554 r tempo_ui;
#X obj 914 614 avg;
#X msg 1004 584 clear;
#X obj 1004 554 b;
#X obj 914 584 route set;
#X obj 914 644 int;
#X obj 1049 494 r mcl_start;
#X obj 1049 479 r mcl_stop;
#X obj 1049 509 r beat1;
#X obj 1049 524 r tempo_change_detection;
#X obj 854 164 r 4pulse;
#X obj 569 419 counter 0 0 1;
#X obj 569 449 sel 0;
#X obj 494 479 s 8pulse;
#X obj 569 479 counter 0 0 1;
#X obj 494 419 s 16pulse;
#X obj 1364 194 r 16pulse;
#X obj 1484 224 - 1;
#X obj 1394 224 r mcl_start;
#X obj 1484 194 * 4;
#X obj 1364 254 counter 0 0 63, f 30;
#X obj 1289 224 - 1;
#X obj 1199 224 r mcl_start;
#X obj 1169 194 r 8pulse;
#X obj 1289 194 * 2;
#X floatatom 1364 284 5 0 0 0 - - - 12;
#X floatatom 1169 284 5 0 0 0 - - - 12;
#X obj 1169 254 counter 0 0 31, f 30;
#X obj 1259 299 sel 1;
#X obj 1259 329 s tinbeat;
#X msg 824 -16 248;
#X obj 824 -46 midi.clock 120;
#X obj 794 14 gate 0;
#X obj 824 -76 r tempo_ui_out;
#X obj 884 -1 r started;
#X obj 944 -1 r stopped;
#X obj 1019 -1 r continued;
#X obj 869 29 gate 0;
#X obj 929 29 gate 0;
#X obj 1004 29 gate 0;
#X obj 869 59 s mcl_start;
#X obj 944 59 s mcl_stop;
#X obj 1019 59 s mcl_cont;
#X obj 794 -106 r internal_clock_toggle;
#X obj 599 -151 midirealtimein;
#X obj 599 -121 sel 248;
#X msg 599 -1 1;
#X obj 644 -31 del 250;
#X msg 644 -1 0;
#X msg 644 -61 stop;
#X obj 599 29 change;
#X obj 599 -91 t, f 12;
#X obj 361 331 tgl 31 0 empty clock_active C 7 16 0 25 #583463 #64ff70 #cb60e1 0 1;
#X obj 599 59 s clock_active;
#X connect 1 0 6 0;
#X connect 2 0 6 0;
#X connect 6 0 0 0;
#X connect 6 0 7 0;
#X connect 8 0 6 0;
#X connect 9 0 11 0;
#X connect 10 0 15 1;
#X connect 10 0 22 0;
#X connect 11 0 102 0;
#X connect 11 0 106 0;
#X connect 15 0 21 0;
#X connect 16 0 15 0;
#X connect 17 0 82 0;
#X connect 19 0 16 0;
#X connect 20 0 16 0;
#X connect 21 0 9 0;
#X connect 22 0 14 0;
#X connect 22 1 13 0;
#X connect 22 2 12 0;
#X connect 23 0 19 0;
#X connect 23 1 9 2;
#X connect 23 1 105 2;
#X connect 23 1 102 2;
#X connect 25 0 26 0;
#X connect 25 0 28 0;
#X connect 25 0 110 0;
#X connect 25 0 115 0;
#X connect 26 0 27 4;
#X connect 27 0 29 0;
#X connect 27 0 39 0;
#X connect 27 0 81 0;
#X connect 27 2 30 0;
#X connect 28 0 29 1;
#X connect 29 0 35 0;
#X connect 30 0 38 0;
#X connect 31 0 23 0;
#X connect 32 0 27 2;
#X connect 33 0 20 0;
#X connect 34 0 19 0;
#X connect 37 0 25 0;
#X connect 41 0 43 0;
#X connect 41 1 43 1;
#X connect 42 0 83 0;
#X connect 43 0 42 0;
#X connect 44 0 41 0;
#X connect 50 1 54 0;
#X connect 50 3 46 0;
#X connect 50 4 48 0;
#X connect 50 5 47 0;
#X connect 50 7 53 0;
#X connect 51 0 52 0;
#X connect 51 1 52 1;
#X connect 52 0 50 0;
#X connect 57 0 58 0;
#X connect 57 0 73 0;
#X connect 58 0 59 0;
#X connect 60 0 87 0;
#X connect 61 0 78 0;
#X connect 62 0 63 0;
#X connect 62 1 61 1;
#X connect 63 0 61 0;
#X connect 64 0 65 0;
#X connect 65 0 77 0;
#X connect 66 0 74 1;
#X connect 66 0 74 0;
#X connect 67 0 69 0;
#X connect 68 0 71 1;
#X connect 69 0 71 1;
#X connect 70 0 69 0;
#X connect 71 0 76 0;
#X connect 72 0 67 0;
#X connect 72 1 68 0;
#X connect 72 1 70 0;
#X connect 73 0 56 0;
#X connect 74 0 62 0;
#X connect 75 0 87 0;
#X connect 76 0 60 0;
#X connect 76 0 79 0;
#X connect 77 0 66 0;
#X connect 78 0 71 0;
#X connect 81 0 36 0;
#X connect 81 1 45 0;
#X connect 84 0 1 0;
#X connect 85 0 8 0;
#X connect 86 0 2 0;
#X connect 88 0 57 0;
#X connect 89 0 72 0;
#X connect 89 0 90 0;
#X connect 89 0 94 0;
#X connect 91 0 95 0;
#X connect 92 0 96 0;
#X connect 93 0 92 0;
#X connect 94 0 93 0;
#X connect 95 0 92 0;
#X connect 96 0 90 0;
#X connect 97 0 94 0;
#X connect 98 0 94 0;
#X connect 99 0 94 0;
#X connect 100 0 94 0;
#X connect 101 0 27 0;
#X connect 102 0 103 0;
#X connect 103 0 105 0;
#X connect 103 0 104 0;
#X connect 105 0 17 0;
#X connect 107 0 111 0;
#X connect 108 0 111 4;
#X connect 109 0 111 2;
#X connect 110 0 108 0;
#X connect 111 0 116 0;
#X connect 112 0 118 4;
#X connect 113 0 118 2;
#X connect 114 0 118 0;
#X connect 115 0 112 0;
#X connect 118 0 117 0;
#X connect 118 2 119 0;
#X connect 119 0 120 0;
#X connect 121 0 123 1;
#X connect 122 0 121 0;
#X connect 123 0 15 1;
#X connect 123 0 136 0;
#X connect 124 0 122 0;
#X connect 125 0 128 1;
#X connect 126 0 129 1;
#X connect 127 0 130 1;
#X connect 128 0 131 0;
#X connect 129 0 132 0;
#X connect 130 0 133 0;
#X connect 134 0 123 0;
#X connect 134 0 128 0;
#X connect 134 0 129 0;
#X connect 134 0 130 0;
#X connect 135 0 136 0;
#X connect 136 0 142 0;
#X connect 137 0 141 0;
#X connect 138 0 139 0;
#X connect 139 0 141 0;
#X connect 140 0 138 0;
#X connect 141 0 144 0;
#X connect 142 0 137 0;
#X connect 142 0 138 0;
#X connect 142 1 140 0;
#X coords 0 0 1 1 190 120 1 235 265;
