#N canvas 1646 1002 1277 628 12;
#X obj 228 197 midirealtimein;
#X obj 344 448 counter 0 0 15;
#X obj 326 511 s t.count;
#X obj 484 490 sel 13;
#X obj 482 525 s t.load;
#X obj 555 484 sel 1;
#X obj 557 521 s t.downbeat;
#X obj 414 489 sel 0 1;
#X obj 400 524 s t.beat1;
#X obj 419 553 s t.beat2;
#X obj 495 349 r t.length;
#X floatatom 495 378 5 6 64 0 - - - 0;
#X obj 495 415 - 1;
#X obj 192 273 sel 248;
#X obj 193 312 counter 0 0 5;
#X obj 193 342 sel 0;
#X obj 193 462 sel 0;
#X obj 193 372 counter 0 0 1;
#X obj 193 402 sel 0;
#X obj 193 432 counter 0 0 1;
#X obj 535 412 - 3;
#X obj 133 498 s t.4n;
#X obj 339 390 r t.4n;
#X obj 192 235 gate 0;
#X obj 129 378 s t.16n;
#X obj 129 438 s t.8n;
#X obj 340 229 r t.prime;
#X obj 340 261 t;
#X msg 146 198 1;
#X msg 184 200 0;
#X obj 148 161 r t.cont;
#X obj 222 160 r t.stop;
#X obj 676 454 r t.8n;
#X obj 675 495 counter 0 0 31;
#X obj 803 435 r t.16n;
#X obj 804 473 counter 0 0 63;
#X obj 732 406 * 2;
#X obj 882 386 * 4;
#X obj 735 448 - 1;
#X obj 881 423 - 1;
#X obj 732 530 sel 1;
#X obj 732 566 s t.interrupt;
#X obj 646 562 s t.count8;
#X obj 809 537 s t.count16;
#X msg 1029 227 250;
#X msg 954 228 252;
#X msg 878 228 251;
#X msg 880 267 \$1;
#X obj 659 423 r t.prime;
#X obj 805 403 r t.prime;
#X obj 388 418 r t.prime;
#X obj 1026 191 r t.prime;
#X obj 953 190 r t.stop;
#X obj 875 190 r t.cont;
#X obj 877 299 midiout 2;
#X obj 285 229 bng 20 250 50 0 empty empty empty 0 -10 0 12 #fcfcfc #000000 #000000;
#X floatatom 327 480 5 0 0 0 - - - 0;
#X floatatom 660 530 5 0 0 0 - - - 0;
#X floatatom 812 505 5 0 0 0 - - - 0;
#X floatatom 651 203 5 30 300 2 tempo - - 0;
#X obj 677 242 loadbang;
#X msg 677 282 1;
#X obj 643 325 ctlout;
#X msg 701 282 1;
#X obj 651 242 scale 30 300 0 127;
#X obj 651 163 loadmess 120;
#X obj 752 164 r t.tempo;
#X obj 34 275 s t.transport_status;
#X connect 0 0 23 1;
#X connect 0 0 55 0;
#X connect 1 0 3 0;
#X connect 1 0 7 0;
#X connect 1 0 56 0;
#X connect 1 2 5 0;
#X connect 3 0 4 0;
#X connect 5 0 6 0;
#X connect 7 0 8 0;
#X connect 7 1 9 0;
#X connect 10 0 11 0;
#X connect 11 0 12 0;
#X connect 11 0 20 0;
#X connect 11 0 36 0;
#X connect 11 0 37 0;
#X connect 12 0 1 4;
#X connect 13 0 14 0;
#X connect 14 0 15 0;
#X connect 15 0 17 0;
#X connect 15 0 24 0;
#X connect 16 0 21 0;
#X connect 17 0 18 0;
#X connect 18 0 19 0;
#X connect 18 0 25 0;
#X connect 19 0 16 0;
#X connect 20 0 3 1;
#X connect 22 0 1 0;
#X connect 23 0 13 0;
#X connect 26 0 27 0;
#X connect 27 0 28 0;
#X connect 27 1 14 2;
#X connect 27 1 17 2;
#X connect 27 1 19 2;
#X connect 28 0 23 0;
#X connect 28 0 67 0;
#X connect 29 0 23 0;
#X connect 29 0 67 0;
#X connect 30 0 28 0;
#X connect 31 0 29 0;
#X connect 32 0 33 0;
#X connect 33 0 57 0;
#X connect 33 2 40 0;
#X connect 34 0 35 0;
#X connect 35 0 58 0;
#X connect 36 0 38 0;
#X connect 37 0 39 0;
#X connect 38 0 33 4;
#X connect 39 0 35 4;
#X connect 40 0 41 0;
#X connect 44 0 47 0;
#X connect 45 0 47 0;
#X connect 46 0 47 0;
#X connect 47 0 54 0;
#X connect 48 0 33 2;
#X connect 49 0 35 2;
#X connect 50 0 1 2;
#X connect 51 0 44 0;
#X connect 52 0 45 0;
#X connect 53 0 46 0;
#X connect 56 0 2 0;
#X connect 57 0 42 0;
#X connect 58 0 43 0;
#X connect 59 0 64 0;
#X connect 60 0 61 0;
#X connect 60 0 63 0;
#X connect 61 0 62 1;
#X connect 63 0 62 2;
#X connect 64 0 62 0;
#X connect 65 0 59 0;
#X connect 66 0 59 0;
