#N canvas 733 172 450 300 8;
#X obj 58 399 realtime;
#X floatatom 385 255 9 0 0 2 Latency - - 10;
#X obj 71 345 onebang;
#X obj 54 313 bng 25 250 50 0 empty empty empty 17 7 0 10 #191919 #ffffff #ffffff;
#X obj 826 303 realtime;
#X obj 827 272 t, f 9;
#X obj 622 543 del;
#X obj 395 296 bng 33 75 50 0 empty empty Beat\ 1? -1 -10 0 10 #ff8bd9 #000000 #e110d1;
#X obj 826 377 avg;
#X floatatom 348 382 16 0 0 2 Avg\ beat\ time - - 12;
#X msg 760 377 clear;
#X msg 622 599 250;
#X obj 573 744 midiout;
#X floatatom 348 348 16 0 0 2 Rolling\ beat\ time - - 12;
#X obj 748 218 sel 0;
#X obj 722 252 gate 1;
#X obj 717 218 tgl 25 0 empty empty empty 17 7 0 10 #191919 #e1e1e1 #e1e1e1 0 1;
#X obj 724 277 t;
#X msg 771 314 0;
#X obj 724 310 bng 25 250 50 0 empty empty empty 17 7 0 10 #191919 #e1e1e1 #e1e1e1;
#X msg 719 186 1;
#X obj 716 108 loadbang;
#X obj 671 473 bng 25 250 50 0 empty empty downbeat 17 7 0 10 #191919 #e1e1e1 #e1e1e1;
#X obj 58 436 avg;
#X msg 131 394 clear;
#X obj 354 251 tgl 22 0 empty empty Calibrate -6 -7 0 8 #7e0a0e #fffded #b20020 0 1;
#X msg 151 249 0;
#X obj 149 189 sel 1;
#X obj 248 272 metro 500;
#X obj 149 219 delay 5000;
#X obj 60 476 / 2;
#X obj 629 466 -;
#X obj 658 508 onebang, f 14;
#X msg 658 599 252;
#X obj 622 633 f;
#X obj 594 675 gate 0, f 10;
#X obj 350 296 tgl 31 0 empty empty Interrupt -5 -9 0 11 #000000 #e1e1e1 #e19d00 0 1;
#X msg 319 560 1;
#X msg 511 812 0;
#X obj 271 658 gate 0;
#X obj 573 708 gate 1;
#X obj 743 473 r load;
#X obj 248 296 s stop;
#X obj 54 265 r stop_press;
#X obj 54 291 r start_press;
#X obj 70 238 r mcl_start;
#X obj 716 131 r mcl_start;
#X obj 632 334 r mcl_start;
#X obj 717 154 r mcl_stop;
#X obj 633 312 r mcl_stop;
#X obj 71 213 r mcl_stop;
#X text 802 93 bug: if tempo is changed during avg beat time calculation then transport interrupt will likely fail to be on time, f 19;
#X obj 636 355 r beat1;
#X obj 671 433 r downbeat;
#X obj 827 236 r beat_counter;
#X obj 826 425 s avg_beat_time;
#X obj 170 352 r avg_beat_time;
#X obj 864 334 s rolling_beat_time;
#X obj 195 327 r rolling_beat_time;
#X obj 60 508 s midi_latency;
#X obj 381 159 r midi_latency;
#X obj 622 570 bng 25 250 50 0 empty empty empty 17 7 0 10 #191919 #e1e1e1 #e1e1e1;
#X text 908 114 potential fix: make it so that any tempo changes that occur from Pd make transport interrupts use the rolling beat time instead of the avg beat time \, with a cool off period. for tempo changes that occur from external source \, perhaps we can detect the degree of tempo change and do the same thing.;
#X obj 743 550 r md_pgmout;
#X obj 743 569 change;
#X obj 741 596 bng 25 250 50 0 empty empty empty 17 7 0 10 #191919 #e1e1e1 #e1e1e1;
#X obj 774 596 r seg_start;
#X obj 743 667 tgl 25 0 empty empty empty 17 7 0 10 #191919 #e1e1e1 #e1e1e1 0 1;
#X msg 776 629 1;
#X msg 743 631 0;
#X text 840 543 fix: prevent interrupts being sent when MCL is being told to load a new track group (via pgm), f 18;
#X obj 509 744 sel 250;
#X msg 802 708 color #C69825;
#X obj 295 589 gate 1;
#X obj 218 511 r seg_hold;
#X obj 218 541 == 0;
#X obj 295 511 loadmess 1;
#X text 348 559 only activate tin on seg_last if the current seg is tin=1 \, and also \, if seg_hold is not on, f 26;
#X msg 826 682 color #000000;
#X text 373 -74 todo: some kind of way to indicate whether a tin will go through on the current segment;
#X obj 300 189 r tin_toggle;
#X obj 271 688 s tin_toggle;
#X obj 827 742 s tin_toggle;
#X obj 509 842 s tin_toggle;
#X text 430 804 successful interrupt \, so turn off tin, f 19;
#X obj 296 436 s tin_toggled;
#X obj 527 633 r tin_toggled;
#X obj 640 406 r midi_latency;
#X obj 538 782 s tin_success;
#X obj 452 255 r tin_success;
#X text 911 707 indicate if tin is permitted \, depending on imminent mcl load, f 28;
#X obj 229 619 r seg_tin?;
#X obj 335 658 r manual_tin;
#X obj 659 891 onebang, f 17;
#X obj 800 812 r seg_tin?;
#X obj 800 829 sel 1;
#X obj 659 856 sel 250;
#X msg 677 822 stop;
#X obj 677 782 r manual_tin;
#X obj 681 802 b;
#X text 832 841 give up on tin ONLY IF the tin was set by seg data. honour manual tins., f 24;
#X obj 722 863 onebang, f 20;
#X obj 722 811 r rep_last;
#X obj 316 535 r rep_last;
#X connect 0 0 23 0;
#X connect 2 0 0 1;
#X connect 3 0 2 1;
#X connect 3 0 0 0;
#X connect 4 0 57 0;
#X connect 4 0 8 0;
#X connect 5 0 4 0;
#X connect 5 1 4 1;
#X connect 6 0 61 0;
#X connect 8 0 31 0;
#X connect 8 0 55 0;
#X connect 10 0 8 0;
#X connect 11 0 34 0;
#X connect 14 1 15 1;
#X connect 15 0 17 0;
#X connect 16 0 15 0;
#X connect 17 0 19 0;
#X connect 17 1 18 0;
#X connect 18 0 16 0;
#X connect 19 0 10 0;
#X connect 20 0 16 0;
#X connect 21 0 20 0;
#X connect 22 0 32 0;
#X connect 23 0 30 0;
#X connect 24 0 23 0;
#X connect 25 0 28 0;
#X connect 25 0 27 0;
#X connect 26 0 25 0;
#X connect 27 0 29 0;
#X connect 27 0 24 0 32.................F....79+++uA....u++++qK....;
#X connect 28 0 42 0;
#X connect 29 0 26 0;
#X connect 30 0 59 0;
#X connect 31 0 6 1;
#X connect 32 0 6 0;
#X connect 32 0 33 0;
#X connect 33 0 34 0;
#X connect 34 0 35 1;
#X connect 35 0 40 1;
#X connect 35 0 96 0;
#X connect 36 0 85 0;
#X connect 37 0 73 1;
#X connect 38 0 83 0;
#X connect 39 0 81 0;
#X connect 40 0 12 0;
#X connect 40 0 71 0;
#X connect 41 0 32 1;
#X connect 43 0 3 0;
#X connect 44 0 3 0;
#X connect 45 0 2 0;
#X connect 46 0 20 0;
#X connect 47 0 10 0;
#X connect 48 0 20 0;
#X connect 49 0 10 0;
#X connect 50 0 2 0;
#X connect 52 0 10 0;
#X connect 53 0 22 0;
#X connect 54 0 5 0;
#X connect 54 0 14 0;
#X connect 56 0 9 0;
#X connect 58 0 13 0;
#X connect 60 0 1 0;
#X connect 61 0 11 0;
#X connect 63 0 64 0;
#X connect 64 0 65 0;
#X connect 65 0 69 0;
#X connect 65 0 78 0;
#X connect 66 0 68 0;
#X connect 66 0 72 0;
#X connect 67 0 40 0;
#X connect 68 0 67 0;
#X connect 69 0 67 0;
#X connect 71 0 38 0;
#X connect 71 0 88 0;
#X connect 72 0 82 0;
#X connect 73 0 39 1;
#X connect 74 0 75 0;
#X connect 75 0 73 0;
#X connect 76 0 73 0;
#X connect 78 0 82 0;
#X connect 80 0 36 0;
#X connect 86 0 35 0;
#X connect 87 0 31 1;
#X connect 89 0 7 0;
#X connect 91 0 39 0;
#X connect 92 0 81 0;
#X connect 93 0 38 0;
#X connect 94 0 95 0;
#X connect 95 0 101 1;
#X connect 96 0 93 0;
#X connect 97 0 93 0;
#X connect 98 0 99 0;
#X connect 99 0 97 0;
#X connect 101 0 93 1;
#X connect 102 0 101 0;
#X connect 103 0 37 0;
#X coords 0 0 1 1 105 186 1 339 223;
