#N canvas 733 172 450 300 8;
#X obj 344 254 cnv 15 136 76 empty empty interrupt 3 8 0 12 #191919 #ffffff 0;
#X obj 119 104 realtime;
#X floatatom 419 254 6 0 0 0 - midi_latency - 10;
#X obj 149 74 onebang;
#X obj 119 29 bng 25 250 50 0 empty empty empty 17 7 0 10 #191919 #ffffff #ffffff;
#X obj 764 -16 realtime, f 12;
#X obj 764 -46 t, f 12;
#X obj 539 509 del;
#X obj 644 269 avg;
#X floatatom 389 299 8 0 0 1 avg avg_beat_time - 12;
#X msg 644 224 clear;
#X msg 539 569 250;
#X obj 359 704 midiout;
#X floatatom 389 284 8 0 0 1 rolling rolling_beat_time - 12;
#X obj 674 74 sel 0;
#X obj 644 104 gate 1, f 15;
#X obj 644 74 tgl 25 0 empty empty empty 17 7 0 10 #191919 #e1e1e1 #e1e1e1 0 1;
#X obj 644 134 t, f 9;
#X msg 614 179 0;
#X obj 644 179 bng 25 250 50 0 empty empty empty 17 7 0 10 #191919 #e1e1e1 #e1e1e1;
#X msg 569 29 1;
#X obj 569 -31 loadbang;
#X obj 119 134 avg;
#X msg 239 104 clear;
#X obj 449 254 tgl 16 0 calibrating calibrate ~ 5 7 0 11 #7e0a0e #fffded #fff7fb 0 1;
#X msg 269 29 0;
#X obj 269 -31 sel 1;
#X obj 359 -31 metro 500;
#X obj 269 -1 delay 5000;
#X obj 119 164 / 2;
#X obj 554 389 -, f 12;
#X obj 584 479 onebang, f 14;
#X msg 584 569 252;
#X obj 539 599 f;
#X obj 449 629 gate 0, f 10;
#X obj 344 269 tgl 46 0 tin_toggled tin_toggle 断 5 24 0 41 #c69825 #e1e1e1 #ff00e7 0 1;
#X msg 224 419 1;
#X msg 541 854 0;
#X obj 119 494 gate 0;
#X obj 359 674 gate 1;
#X obj 629 449 r load;
#X obj 359 -1 s stop;
#X obj 164 29 r mcl_start;
#X obj 599 -1 r mcl_start;
#X obj 524 194 r mcl_start;
#X obj 584 -16 r mcl_stop;
#X obj 524 179 r mcl_stop;
#X obj 149 14 r mcl_stop;
#X obj 524 209 r beat1;
#X obj 764 -76 r beat_counter;
#X obj 644 314 s avg_beat_time;
#X obj 794 14 s rolling_beat_time;
#X obj 119 194 s midi_latency;
#X obj 539 539 bng 25 250 50 0 empty empty empty 17 7 0 10 #191919 #e1e1e1 #e1e1e1;
#X obj 659 509 r md_pgmout;
#X obj 659 539 change;
#X obj 659 569 bng 25 250 50 0 empty empty empty 17 7 0 10 #191919 #e1e1e1 #e1e1e1;
#X obj 659 644 tgl 25 0 empty empty empty 17 7 0 10 #191919 #e1e1e1 #e1e1e1 0 1;
#X msg 704 614 1;
#X msg 659 614 0;
#X msg 779 674 color #C69825;
#X obj 194 449 gate 1;
#X obj 119 389 == 0;
#X obj 194 359 loadmess 1;
#X msg 794 644 color #000000;
#X obj 119 539 s tin_toggle;
#X obj 794 704 s tin_toggle;
#X obj 539 884 s tin_toggle;
#X obj 449 599 r tin_toggled;
#X obj 599 359 r midi_latency;
#X obj 194 494 r manual_tin;
#X obj 569 809 onebang, f 17;
#X obj 704 749 sel 1;
#X obj 569 779 sel 250;
#X msg 584 749 stop;
#X obj 584 689 r manual_tin;
#X obj 584 719 b;
#X obj 629 779 onebang, f 20;
#X obj 629 749 r rep_last;
#X obj 224 389 r rep_last;
#X obj 119 359 r seg_held;
#X obj 119 299 s tin_toggle;
#X msg 119 269 0;
#X obj 209 299 s seg_hold;
#X obj 764 84 abs;
#X obj 764 59 -;
#X floatatom 764 119 11 0 0 0 - - - 16;
#X obj 764 149 > 10, f 7;
#X obj 764 174 sel 1, f 7;
#X msg 209 269 0;
#X obj 119 239 r stopped;
#X obj 134 -16 r started;
#X obj 119 -31 r stopped;
#X obj 764 209 s tempo_change_detection;
#X obj 269 59 s calibrate;
#X obj 269 -61 r calibrating;
#X obj 389 749 t;
#X obj 359 794 del 50;
#X msg 359 824 color #FC69825;
#X msg 359 854 color #FF00E4;
#X obj 209 239 r resat;
#X obj 704 719 r seg_tin;
#X obj 119 449 r seg_tin;
#X obj 644 29 route range;
#X obj 704 569 r rep0;
#X obj 584 419 r tinbeat;
#X obj 554 449 / 2;
#X obj 389 269 bng 16 40 40 0 empty tin_stop_indicator empty 17 7 0 10 #191919 #e1e1e1 #e1e1e1;
#X obj 434 749 s tin_stop_indicator, f 24;
#X obj 419 704 sel 250 252;
#X text 884 73 todo: upgrade the beat time calculation with 8pulse for tighter accuracy / compatibility with tempo changes. although \, this is definitely acceptable as it is too.;
#X connect 1 0 22 0;
#X connect 3 0 1 1;
#X connect 4 0 3 1;
#X connect 4 0 1 0;
#X connect 5 0 51 0;
#X connect 5 0 85 1;
#X connect 5 0 8 0;
#X connect 6 0 5 0;
#X connect 6 1 5 1;
#X connect 7 0 53 0;
#X connect 8 0 30 0;
#X connect 8 0 50 0;
#X connect 8 0 85 0 64.................E....zB...PA....s....H2++++R....x8+++uD....F++++3A...fw+++Od....b7+++C;
#X connect 10 0 8 0;
#X connect 11 0 33 0;
#X connect 14 1 15 1;
#X connect 15 0 17 0;
#X connect 16 0 15 0;
#X connect 17 0 19 0;
#X connect 17 1 18 0;
#X connect 18 0 16 0 48.......................A.........P....T3+++OH....E9+++CB...Pg++++;
#X connect 19 0 10 0;
#X connect 20 0 16 0;
#X connect 21 0 20 0;
#X connect 22 0 29 0;
#X connect 23 0 22 0;
#X connect 25 0 94 0;
#X connect 26 0 28 0;
#X connect 26 0 23 0 32.................F....L9+++uA....i++++SG....;
#X connect 27 0 41 0;
#X connect 28 0 25 0;
#X connect 29 0 52 0;
#X connect 30 0 106 0;
#X connect 31 0 7 0;
#X connect 31 0 32 0;
#X connect 32 0 33 0;
#X connect 33 0 34 1;
#X connect 34 0 39 1;
#X connect 34 0 73 0;
#X connect 36 0 61 1;
#X connect 37 0 67 0;
#X connect 38 0 65 0;
#X connect 39 0 12 0;
#X connect 39 0 109 0;
#X connect 40 0 31 1;
#X connect 42 0 3 0;
#X connect 43 0 20 0;
#X connect 44 0 10 0;
#X connect 45 0 20 0;
#X connect 46 0 10 0;
#X connect 47 0 3 0;
#X connect 48 0 10 0;
#X connect 49 0 6 0;
#X connect 49 0 103 0;
#X connect 53 0 11 0;
#X connect 54 0 55 0;
#X connect 55 0 56 0;
#X connect 56 0 59 0;
#X connect 56 0 64 0;
#X connect 57 0 39 0;
#X connect 58 0 57 0;
#X connect 59 0 57 0;
#X connect 60 0 66 0;
#X connect 61 0 38 1;
#X connect 62 0 61 0;
#X connect 63 0 61 0;
#X connect 64 0 66 0;
#X connect 68 0 34 0;
#X connect 69 0 30 1;
#X connect 70 0 65 0;
#X connect 71 0 37 0;
#X connect 72 0 77 1;
#X connect 73 0 71 0;
#X connect 74 0 71 0;
#X connect 75 0 76 0;
#X connect 76 0 74 0;
#X connect 77 0 71 1;
#X connect 78 0 77 0;
#X connect 79 0 36 0;
#X connect 80 0 62 0;
#X connect 82 0 81 0;
#X connect 84 0 86 0;
#X connect 85 0 84 0;
#X connect 86 0 87 0;
#X connect 87 0 88 0;
#X connect 88 0 10 0;
#X connect 88 0 93 0;
#X connect 89 0 83 0;
#X connect 90 0 82 0;
#X connect 91 0 4 0;
#X connect 92 0 4 0;
#X connect 95 0 26 0;
#X connect 95 0 27 0;
#X connect 96 0 97 0;
#X connect 96 0 99 0;
#X connect 96 1 37 0;
#X connect 97 0 98 0;
#X connect 98 0 67 0;
#X connect 99 0 67 0;
#X connect 100 0 82 0;
#X connect 100 0 89 0;
#X connect 101 0 72 0;
#X connect 102 0 38 0;
#X connect 103 1 14 0;
#X connect 104 0 58 0;
#X connect 104 0 60 0;
#X connect 105 0 31 0;
#X connect 106 0 7 1;
#X connect 109 0 96 0;
#X connect 109 1 108 0;
#X coords 0 0 1 1 119 60 1 346 255;
