#N canvas 1500 1005 1277 768 12;
#X obj 31 204 midirealtimein;
#X obj 356 635 counter 0 0 15;
#X obj 338 698 s t.count;
#X obj 496 677 sel 13;
#X obj 494 712 s t.load;
#X obj 567 671 sel 1;
#X obj 569 708 s t.downbeat;
#X obj 426 676 sel 0 1;
#X obj 412 711 s t.beat1;
#X obj 431 740 s t.beat2;
#X obj 519 535 r t.length;
#X floatatom 519 564 5 6 64 0 - - - 0;
#X obj 519 601 - 1;
#X obj 204 460 sel 248;
#X obj 205 499 counter 0 0 5;
#X obj 205 529 sel 0;
#X obj 205 649 sel 0;
#X obj 205 559 counter 0 0 1;
#X obj 205 589 sel 0;
#X obj 205 619 counter 0 0 1;
#X obj 559 598 - 3;
#X obj 145 685 s t.4n;
#X obj 351 577 r t.4n;
#X obj 204 422 gate 0, f 17;
#X obj 141 565 s t.16n;
#X obj 141 625 s t.8n;
#X obj 352 416 r t.prime;
#X obj 352 448 t;
#X msg 117 387 1;
#X msg 155 389 0;
#X obj 96 350 r t.cont;
#X obj 153 350 r t.stop;
#X obj 688 641 r t.8n;
#X obj 687 682 counter 0 0 31;
#X obj 815 622 r t.16n;
#X obj 816 660 counter 0 0 63;
#X obj 744 593 * 2;
#X obj 905 591 * 4;
#X obj 747 635 - 1;
#X obj 903 624 - 1;
#X obj 744 717 sel 1;
#X obj 744 753 s t.interrupt;
#X obj 658 749 s t.count8;
#X obj 821 724 s t.count16;
#X msg 1041 414 250;
#X msg 966 415 252;
#X msg 890 415 251;
#X msg 892 454 \$1;
#X obj 1038 378 r t.prime;
#X obj 965 377 r t.stop;
#X obj 887 377 r t.cont;
#X obj 889 486 midiout 2;
#X floatatom 339 667 5 0 0 0 - - - 0;
#X floatatom 672 717 5 0 0 0 - - - 0;
#X floatatom 824 692 5 0 0 0 - - - 0;
#X floatatom 663 390 5 30 300 2 tempo - - 0;
#X obj 725 390 loadbang;
#X obj 655 512 ctlout;
#X msg 728 469 1;
#X obj 663 422 scale 30 300 0 127;
#X obj 663 350 loadmess 120;
#X obj 764 351 r t.tempo;
#X obj 46 462 s t.transport_status;
#X obj 783 593 r t.beat1;
#X obj 59 530 sel 1;
#X obj 958 660 counter 0 0 63;
#X obj 1047 591 * 4;
#X obj 1045 624 - 1;
#X floatatom 966 692 5 0 0 0 - - - 0;
#X obj 58 567 s t.16n_db;
#X obj 962 728 s t.count16_db;
#X obj 957 622 r t.16n_db;
#X text 936 792 lags slightly behind to compensate for midi latency, f 21;
#X obj 520 231 r t.clock_toggle;
#X obj 520 296 sel 0 1;
#X msg 517 327 0;
#X msg 557 326 127;
#X obj 485 469 ctlout;
#X obj 522 360 t f b;
#X obj 648 232 loadmess 0;
#X obj 648 261 s t.clock_toggle;
#X obj 353 233 r t.transport_status;
#X obj 352 295 sel 0;
#X obj 348 330 s t.clock_toggle;
#X obj 756 460 r midich_clock;
#X obj 740 496 i;
#X obj 567 360 r midich_clock;
#X obj 567 390 i;
#X obj 978 454 r midich_ctl;
#X obj 1298 291 r t.tempo;
#X floatatom 1297 324 5 0 0 0 - - - 12;
#X obj 1296 476 polling_rate 100;
#X floatatom 1295 507 5 0 0 0 - - - 12;
#X obj 1526 635 r midich_thru;
#X obj 1295 543 change;
#X obj 1343 359 r cc_tempo_tog;
#X obj 1300 417 spigot 0;
#X obj 95 861 dac~;
#X obj 94 770 r t.4n;
#X obj 155 770 loadmess 0;
#X obj 96 827 clickz 350;
#X msg 689 469 40;
#X msg 507 433 41;
#X text 549 454 cc 40 & 41 are em_clock bpm & transport toggle, f 15;
#X obj 1296 774 ctlout 42 61;
#X text 1414 394 ch13 (pd61) is for studio use (via MegaCMD USB \, forwarded to PORT 2 OUT \, then through MnM MIDI THRU \, which connects to a MIDI Interface \, then to a DAW where this CC must be listened to), f 32;
#X obj 1166 675 s cc_tempo_out;
#X obj 1385 774 ctlout 43 61;
#X obj 1471 774 ctlout 44 61;
#X text 1341 807 cc 42-44 spans 1-300 bpm;
#X obj 1222 444 r t.stop;
#X msg 1222 504 set -1;
#X obj 1222 470 bng 25 250 50 0 empty empty empty 17 7 0 10 #211d14 #e1bf96 #e1ce9c;
#X obj 1295 576 - 1;
#X obj 1296 642 moses 256;
#X obj 1471 704 - 256;
#X obj 1296 679 moses 128;
#X obj 1385 704 - 128;
#X obj 1296 742 max 0;
#X obj 1471 742 min 127;
#X obj 1375 524 r t.prime;
#X obj 1375 557 bng 25 250 50 0 empty empty empty 17 7 0 10 #211d14 #e1bf96 #e1ce9c;
#X obj 1438 524 r t.cont;
#X obj 1497 524 r t.4n;
#X obj 1295 606 i 120;
#X text 1315 248 tempo cc for DAW integration;
#X obj 1689 772 ctlout 45 61;
#X obj 1782 772 ctlout 46 61;
#X obj 1878 772 ctlout 47 61;
#X obj 1673 679 r s.seg_id.now;
#X obj 1782 679 r s.md_pgm.now;
#X obj 1898 679 r s.mnm_pgm.now;
#X floatatom 1689 724 5 0 0 0 - - - 12;
#X floatatom 1782 724 5 0 0 0 - - - 12;
#X floatatom 1878 724 5 0 0 0 - - - 12;
#X obj 198 234 midi.clock;
#X msg 244 204 external;
#X obj 129 65 tgl 25 0 empty empty use\ internal\ pd\ clock 17 7 0 10 #211d14 #e1bf96 #e1ce9c 0 1;
#X obj 215 163 sel 0 1;
#X obj 31 245 bng 25 250 50 0 empty empty empty 17 7 0 10 #211d14 #e1bf96 #e1ce9c;
#X obj 401 448 bng 25 250 50 0 empty empty empty 17 7 0 10 #211d14 #e1bf96 #e1ce9c;
#X obj 353 261 tgl 25 0 empty empty empty 17 7 0 10 #211d14 #e1bf96 #e1ce9c 0 1;
#X obj 155 795 tgl 25 0 empty empty empty 17 7 0 10 #211d14 #e1bf96 #e1ce9c 0 1;
#X obj 94 795 bng 25 250 50 0 empty empty empty 17 7 0 10 #211d14 #e1bf96 #e1ce9c;
#X obj 520 261 tgl 25 0 empty empty empty 17 7 0 10 #211d14 #e1bf96 #e1ce9c 0 1;
#X obj 663 308 bng 25 250 50 0 empty empty empty 17 7 0 10 #211d14 #e1bf96 #e1ce9c;
#X obj 485 564 bng 25 250 50 0 empty empty empty 17 7 0 10 #211d14 #e1bf96 #e1ce9c;
#X msg 237 277 248;
#X obj 198 271 bng 25 250 50 0 empty empty empty 17 7 0 10 #211d14 #e1bf96 #e1ce9c;
#X obj 221 350 selector 2;
#X obj 129 38 r t.toggle_pd_clock;
#X obj 37 38 loadmess 0;
#X text 33 183 external clock;
#X obj 215 100 s t.pd_clock_enabled;
#X obj 285 136 r t.tempo;
#X floatatom 285 164 5 0 0 0 - - - 12;
#X obj 198 204 i 120;
#X connect 0 0 149 0;
#X connect 0 0 139 0;
#X connect 1 0 3 0;
#X connect 1 0 7 0;
#X connect 1 0 52 0;
#X connect 1 2 5 0;
#X connect 3 0 4 0;
#X connect 5 0 6 0;
#X connect 7 0 8 0;
#X connect 7 1 9 0;
#X connect 10 0 11 0;
#X connect 10 0 146 0;
#X connect 11 0 12 0;
#X connect 11 0 20 0;
#X connect 11 0 36 0;
#X connect 11 0 37 0;
#X connect 11 0 66 0;
#X connect 12 0 1 4;
#X connect 13 0 14 0;
#X connect 14 0 15 0;
#X connect 14 2 64 0;
#X connect 15 0 17 0;
#X connect 15 0 24 0;
#X connect 16 0 21 0;
#X connect 17 0 18 0;
#X connect 18 0 19 0;
#X connect 18 0 25 0;
#X connect 19 0 16 0;
#X connect 20 0 3 1;
#X connect 22 0 1 0;
#X connect 23 0 13 0;
#X connect 26 0 27 0;
#X connect 26 0 140 0;
#X connect 27 0 28 0;
#X connect 27 1 14 2;
#X connect 27 1 17 2;
#X connect 27 1 19 2;
#X connect 27 1 1 2;
#X connect 28 0 62 0;
#X connect 28 0 23 0;
#X connect 29 0 62 0;
#X connect 29 0 23 0;
#X connect 30 0 28 0;
#X connect 31 0 29 0;
#X connect 32 0 33 0;
#X connect 33 0 53 0;
#X connect 33 2 40 0;
#X connect 34 0 35 0;
#X connect 35 0 54 0;
#X connect 36 0 38 0;
#X connect 37 0 39 0;
#X connect 38 0 33 4;
#X connect 39 0 35 4;
#X connect 40 0 41 0;
#X connect 44 0 47 0;
#X connect 45 0 47 0;
#X connect 46 0 47 0;
#X connect 47 0 51 0;
#X connect 48 0 44 0;
#X connect 49 0 45 0;
#X connect 50 0 46 0;
#X connect 52 0 2 0;
#X connect 53 0 42 0;
#X connect 54 0 43 0;
#X connect 55 0 59 0;
#X connect 56 0 101 0;
#X connect 56 0 58 0;
#X connect 56 0 102 0;
#X connect 58 0 57 2;
#X connect 59 0 57 0;
#X connect 60 0 55 0;
#X connect 61 0 55 0;
#X connect 63 0 33 2;
#X connect 63 0 35 2;
#X connect 63 0 65 2;
#X connect 64 0 69 0;
#X connect 65 0 68 0;
#X connect 66 0 67 0;
#X connect 67 0 65 4;
#X connect 68 0 70 0;
#X connect 71 0 65 0;
#X connect 73 0 144 0;
#X connect 74 0 75 0;
#X connect 74 1 76 0;
#X connect 75 0 78 0;
#X connect 76 0 78 0;
#X connect 78 0 77 0;
#X connect 78 1 102 0;
#X connect 79 0 80 0;
#X connect 81 0 141 0;
#X connect 82 1 83 0;
#X connect 84 0 85 0;
#X connect 85 0 57 2;
#X connect 86 0 87 0;
#X connect 87 0 77 2;
#X connect 88 0 51 1;
#X connect 89 0 90 0;
#X connect 90 0 96 0;
#X connect 91 0 92 0;
#X connect 92 0 94 0;
#X connect 93 0 108 2;
#X connect 93 0 107 2;
#X connect 93 0 104 2;
#X connect 94 0 113 0;
#X connect 95 0 96 1;
#X connect 96 0 91 0;
#X connect 98 0 143 0;
#X connect 99 0 142 0;
#X connect 100 0 97 0;
#X connect 100 0 97 1;
#X connect 101 0 57 1;
#X connect 102 0 77 1;
#X connect 102 0 77 2;
#X connect 110 0 112 0;
#X connect 111 0 94 0;
#X connect 112 0 111 0;
#X connect 113 0 124 0;
#X connect 114 0 116 0;
#X connect 114 1 115 0;
#X connect 115 0 119 0;
#X connect 116 0 118 0;
#X connect 116 1 117 0;
#X connect 117 0 107 0;
#X connect 118 0 104 0;
#X connect 119 0 108 0;
#X connect 120 0 121 0;
#X connect 121 0 124 0;
#X connect 122 0 121 0;
#X connect 123 0 121 0;
#X connect 124 0 114 0;
#X connect 124 0 106 0;
#X connect 129 0 132 0;
#X connect 130 0 133 0;
#X connect 131 0 134 0;
#X connect 132 0 126 0;
#X connect 133 0 127 0;
#X connect 134 0 128 0;
#X connect 135 0 148 0;
#X connect 135 0 147 0;
#X connect 136 0 135 0;
#X connect 137 0 149 2;
#X connect 137 0 138 0;
#X connect 137 0 153 0;
#X connect 138 0 136 0;
#X connect 138 1 156 0;
#X connect 141 0 82 0;
#X connect 142 0 100 1;
#X connect 143 0 100 0;
#X connect 144 0 74 0;
#X connect 145 0 60 0;
#X connect 147 0 149 1;
#X connect 149 0 23 1;
#X connect 150 0 137 0;
#X connect 151 0 137 0;
#X connect 154 0 155 0;
#X connect 155 0 156 0;
#X connect 156 0 135 0;
