#N canvas 733 172 450 300 8;
#X obj 136 461 realtime;
#X floatatom 136 532 14 0 0 2 latency\ to\ and\ back - - 12;
#X obj 149 411 onebang;
#X obj 132 375 bng 25 250 50 0 empty empty empty 17 7 0 10 #191919 #ffffff #ffffff;
#X obj 760 298 realtime;
#X obj 761 267 t, f 9;
#X obj 556 538 del;
#X obj 556 574 bng 25 250 50 0 empty empty predicted\ beat\ 1 17 7 0 10 #191919 #e1e1e1 #e1e1e1;
#X obj 760 372 avg;
#X floatatom 354 325 14 0 0 2 Avg\ beat\ time - - 16;
#X msg 694 372 clear;
#X msg 556 615 250;
#X obj 485 769 midiout;
#X floatatom 355 370 14 0 0 2 Rolling\ beat\ time - - 16;
#X obj 682 213 sel 0;
#X obj 656 247 gate 1;
#X obj 651 213 tgl 25 0 empty empty empty 17 7 0 10 #191919 #e1e1e1 #e1e1e1 0 1;
#X obj 658 272 t;
#X msg 705 309 0;
#X obj 658 305 bng 25 250 50 0 empty empty empty 17 7 0 10 #191919 #e1e1e1 #e1e1e1;
#X msg 653 181 1;
#X obj 563 186 loadbang;
#X obj 605 468 bng 25 250 50 0 empty empty downbeat 17 7 0 10 #191919 #e1e1e1 #e1e1e1;
#X obj 136 498 avg;
#X msg 209 460 clear;
#X obj 317 124 loadbang;
#X obj 354 269 tgl 31 0 empty empty Calibrate -16 -9 0 15 #7e0a0e #fffded #e1e1e1 0 1;
#X msg 392 216 0;
#X obj 252 373 sel 1;
#X msg 319 149 1;
#X obj 252 303 metro 500;
#X obj 252 403 delay 5000;
#X obj 136 568 / 2;
#X obj 558 424 -;
#X obj 592 503 onebang, f 14;
#X msg 614 616 252;
#X obj 531 662 f;
#X obj 485 697 gate 0, f 10;
#X obj 412 269 tgl 31 0 empty empty Interrupt -12 -9 0 14 #c69825 #e1e1e1 #e1e1e1 0 1;
#X msg 446 98 1;
#X msg 428 199 0;
#X obj 412 132 gate 0;
#X obj 372 769 print interrupt;
#X msg 372 725 gate=\$1;
#X obj 441 733 gate 1;
#X obj 467 269 tgl 31 0 empty empty On/Off -8 -9 0 13 #191919 #e1e1e1 #e1e1e1 0 1;
#X obj 470 194 loadbang;
#X obj 667 468 r load;
#X obj 252 334 s stop;
#X obj 132 309 r stop_press;
#X obj 132 333 r start_press;
#X obj 148 280 r mcl_start;
#X obj 563 209 r mcl_start;
#X obj 566 329 r mcl_start;
#X obj 564 232 r mcl_stop;
#X obj 567 307 r mcl_stop;
#X obj 149 255 r mcl_stop;
#X text 646 596 bug: sending an interrupt to both MCL & MnM with stop signal included it is more guaranteed to do a clean interrupt \, but NOT whole MCL is loading a new row, f 19;
#X msg 471 223 0;
#X text 555 721 bug: (untested) disabled for now as i dont have mnm with me for further tests, f 12;
#X text 736 88 bug: if tempo is changed during avg beat time calculation then transport interrupt will likely fail to be on time, f 19;
#X obj 444 67 r seg_last;
#X obj 427 159 r seg_start;
#X obj 570 350 r beat1;
#X obj 392 98 r tin?;
#X obj 605 428 r downbeat;
#X obj 761 231 r beat_counter;
#X obj 798 406 s avg_beat_time;
#X obj 184 209 r avg_beat_time;
#X obj 798 329 s rolling_beat_time;
#X obj 209 184 r rolling_beat_time;
#X obj 335 213 spigot;
#X connect 0 0 23 0;
#X connect 1 0 32 0;
#X connect 2 0 0 1;
#X connect 3 0 2 1;
#X connect 3 0 0 0;
#X connect 4 0 69 0;
#X connect 4 0 8 0;
#X connect 5 0 4 0;
#X connect 5 1 4 1;
#X connect 6 0 7 0;
#X connect 7 0 11 0;
#X connect 8 0 33 0;
#X connect 8 0 67 0;
#X connect 10 0 8 0;
#X connect 11 0 36 0;
#X connect 14 1 15 1;
#X connect 15 0 17 0;
#X connect 16 0 15 0;
#X connect 17 0 19 0;
#X connect 17 1 18 0;
#X connect 18 0 16 0;
#X connect 19 0 10 0;
#X connect 20 0 16 0;
#X connect 21 0 20 0;
#X connect 22 0 34 0;
#X connect 23 0 1 0;
#X connect 24 0 23 0;
#X connect 25 0 29 0;
#X connect 26 0 30 0;
#X connect 26 0 28 0;
#X connect 27 0 26 0;
#X connect 28 0 24 0;
#X connect 28 0 31 0;
#X connect 29 0 71 1;
#X connect 30 0 48 0;
#X connect 31 0 27 0;
#X connect 32 0 33 1;
#X connect 33 0 6 1;
#X connect 34 0 6 0;
#X connect 34 0 35 0;
#X connect 35 0 36 0;
#X connect 36 0 37 1;
#X connect 37 0 44 1;
#X connect 38 0 37 0;
#X connect 39 0 41 1;
#X connect 40 0 38 0;
#X connect 41 0 38 0;
#X connect 41 0 43 0;
#X connect 43 0 42 0;
#X connect 44 0 12 0;
#X connect 44 0 42 0;
#X connect 45 0 44 0;
#X connect 45 0 71 0;
#X connect 46 0 58 0;
#X connect 47 0 34 1;
#X connect 49 0 3 0;
#X connect 50 0 3 0;
#X connect 51 0 2 0;
#X connect 52 0 20 0;
#X connect 53 0 10 0;
#X connect 54 0 20 0;
#X connect 55 0 10 0;
#X connect 56 0 2 0;
#X connect 58 0 45 0;
#X connect 61 0 39 0;
#X connect 62 0 40 0;
#X connect 63 0 10 0;
#X connect 64 0 41 0;
#X connect 65 0 22 0;
#X connect 66 0 5 0;
#X connect 66 0 14 0;
#X connect 68 0 9 0;
#X connect 70 0 13 0;
#X connect 71 0 26 0;
#X coords 0 0 1 1 166 150 2 339 249;
