#N canvas 1500 1005 1277 768 12;
#X obj 228 197 midirealtimein;
#X obj 344 448 counter 0 0 15;
#X obj 326 511 s t.count;
#X obj 484 490 sel 13;
#X obj 482 525 s t.load;
#X obj 555 484 sel 1;
#X obj 557 521 s t.downbeat;
#X obj 414 489 sel 0 1;
#X obj 400 524 s t.beat1;
#X obj 419 553 s t.beat2;
#X obj 507 348 r t.length;
#X floatatom 507 377 5 6 64 0 - - - 0;
#X obj 507 414 - 1;
#X obj 192 273 sel 248;
#X obj 193 312 counter 0 0 5;
#X obj 193 342 sel 0;
#X obj 193 462 sel 0;
#X obj 193 372 counter 0 0 1;
#X obj 193 402 sel 0;
#X obj 193 432 counter 0 0 1;
#X obj 547 411 - 3;
#X obj 133 498 s t.4n;
#X obj 339 390 r t.4n;
#X obj 192 235 gate 0;
#X obj 129 378 s t.16n;
#X obj 129 438 s t.8n;
#X obj 340 229 r t.prime;
#X obj 340 261 t;
#X msg 146 198 1;
#X msg 184 200 0;
#X obj 148 161 r t.cont;
#X obj 222 160 r t.stop;
#X obj 676 454 r t.8n;
#X obj 675 495 counter 0 0 31;
#X obj 803 435 r t.16n;
#X obj 804 473 counter 0 0 63;
#X obj 732 406 * 2;
#X obj 893 404 * 4;
#X obj 735 448 - 1;
#X obj 891 437 - 1;
#X obj 732 530 sel 1;
#X obj 732 566 s t.interrupt;
#X obj 646 562 s t.count8;
#X obj 809 537 s t.count16;
#X msg 1029 227 250;
#X msg 954 228 252;
#X msg 878 228 251;
#X msg 880 267 \$1;
#X obj 1026 191 r t.prime;
#X obj 953 190 r t.stop;
#X obj 875 190 r t.cont;
#X obj 877 299 midiout 2;
#X obj 285 229 bng 20 250 50 0 empty empty empty 0 -10 0 12 #fcfcfc #000000 #000000;
#X floatatom 327 480 5 0 0 0 - - - 0;
#X floatatom 660 530 5 0 0 0 - - - 0;
#X floatatom 812 505 5 0 0 0 - - - 0;
#X floatatom 651 203 5 30 300 2 tempo - - 0;
#X obj 713 203 loadbang;
#X obj 643 325 ctlout;
#X msg 716 282 1;
#X obj 651 235 scale 30 300 0 127;
#X obj 651 163 loadmess 120;
#X obj 752 164 r t.tempo;
#X obj 34 275 s t.transport_status;
#X obj 478 376 bng 20 250 50 0 empty empty empty 0 -10 0 12 #fcfcfc #000000 #000000;
#X obj 381 264 bng 20 250 50 0 empty empty empty 0 -10 0 12 #fcfcfc #000000 #000000;
#X obj 771 406 r t.beat1;
#X obj 47 343 sel 1;
#X obj 946 473 counter 0 0 63;
#X obj 1035 404 * 4;
#X obj 1033 437 - 1;
#X floatatom 954 505 5 0 0 0 - - - 0;
#X obj 46 380 s t.16n_db;
#X obj 950 541 s t.count16_db;
#X obj 945 435 r t.16n_db;
#X text 924 605 lags slightly behind to compensate for midi latency, f 21;
#X obj 508 44 r t.clock_toggle;
#X obj 508 77 tgl 20 0 empty empty empty 0 -10 0 12 #fcfcfc #000000 #000000 0 1;
#X obj 508 109 sel 0 1;
#X msg 505 140 0;
#X msg 545 139 127;
#X obj 473 282 ctlout;
#X obj 510 173 t f b;
#X obj 636 45 loadmess 0;
#X obj 636 74 s t.clock_toggle;
#X obj 341 46 r t.transport_status;
#X obj 339 74 tgl 20 0 empty empty empty 0 -10 0 12 #fcfcfc #000000 #000000 0 1;
#X obj 340 108 sel 0;
#X obj 336 143 s t.clock_toggle;
#X obj 651 122 bng 25 250 50 0 empty empty empty 17 7 0 10 #e3dfd9 #5a5a5a #5a5a5a;
#X obj 744 273 r midich_clock;
#X obj 728 309 i;
#X obj 555 173 r midich_clock;
#X obj 555 203 i;
#X obj 966 267 r midich_ctl;
#X obj 1186 172 r t.tempo;
#X floatatom 1185 205 5 0 0 0 - - - 12;
#X obj 1184 357 polling_rate 100;
#X floatatom 1183 388 5 0 0 0 - - - 12;
#X obj 1248 391 r midich_thru;
#X text 1302 275 ch13 (pd62) is for studio use (via MegaCMD USB \, forwarded to PORT 2 OUT \, then through MnM MIDI THRU \, which connects to a MIDI Interface \, then to a DAW where this CC must be listened to), f 32;
#X obj 1195 501 ctlout 1 62;
#X obj 1187 423 change;
#X obj 1189 460 scale 30 300 0 127;
#X obj 1231 240 r cc_tempo_tog;
#X obj 1188 298 spigot 0;
#X obj 60 134 dac~;
#X obj 59 68 bng 20 250 50 0 empty empty empty 0 -10 0 12 #fcfcfc #000000 #000000;
#X obj 59 43 r t.4n;
#X obj 117 68 tgl 20 0 empty empty test\ click 25 10 0 12 #fcfcfc #000000 #000000 0 1;
#X obj 120 43 loadmess 0;
#X obj 61 100 clickz 350;
#X msg 677 282 40;
#X msg 495 246 41;
#X text 537 267 cc 40 & 41 are em_clock bpm & transport toggle, f 15;
#X connect 0 0 23 1;
#X connect 0 0 52 0;
#X connect 1 0 3 0;
#X connect 1 0 7 0;
#X connect 1 0 53 0;
#X connect 1 2 5 0;
#X connect 3 0 4 0;
#X connect 5 0 6 0;
#X connect 7 0 8 0;
#X connect 7 1 9 0;
#X connect 10 0 11 0;
#X connect 10 0 64 0;
#X connect 11 0 12 0;
#X connect 11 0 20 0;
#X connect 11 0 36 0;
#X connect 11 0 37 0;
#X connect 11 0 69 0;
#X connect 12 0 1 4;
#X connect 13 0 14 0;
#X connect 14 0 15 0;
#X connect 14 2 67 0;
#X connect 15 0 17 0;
#X connect 15 0 24 0;
#X connect 16 0 21 0;
#X connect 17 0 18 0;
#X connect 18 0 19 0;
#X connect 18 0 25 0;
#X connect 19 0 16 0;
#X connect 20 0 3 1;
#X connect 22 0 1 0;
#X connect 23 0 13 0;
#X connect 26 0 27 0;
#X connect 26 0 65 0;
#X connect 27 0 28 0;
#X connect 27 1 14 2;
#X connect 27 1 17 2;
#X connect 27 1 19 2;
#X connect 27 1 1 2;
#X connect 28 0 23 0;
#X connect 28 0 63 0;
#X connect 29 0 23 0;
#X connect 29 0 63 0;
#X connect 30 0 28 0;
#X connect 31 0 29 0;
#X connect 32 0 33 0;
#X connect 33 0 54 0;
#X connect 33 2 40 0;
#X connect 34 0 35 0;
#X connect 35 0 55 0;
#X connect 36 0 38 0;
#X connect 37 0 39 0;
#X connect 38 0 33 4;
#X connect 39 0 35 4;
#X connect 40 0 41 0;
#X connect 44 0 47 0;
#X connect 45 0 47 0;
#X connect 46 0 47 0;
#X connect 47 0 51 0;
#X connect 48 0 44 0;
#X connect 49 0 45 0;
#X connect 50 0 46 0;
#X connect 53 0 2 0;
#X connect 54 0 42 0;
#X connect 55 0 43 0;
#X connect 56 0 60 0;
#X connect 57 0 112 0;
#X connect 57 0 59 0;
#X connect 57 0 113 0;
#X connect 59 0 58 2;
#X connect 60 0 58 0;
#X connect 61 0 56 0;
#X connect 62 0 56 0;
#X connect 66 0 33 2;
#X connect 66 0 35 2;
#X connect 66 0 68 2;
#X connect 67 0 72 0;
#X connect 68 0 71 0;
#X connect 69 0 70 0;
#X connect 70 0 68 4;
#X connect 71 0 73 0;
#X connect 74 0 68 0;
#X connect 76 0 77 0;
#X connect 77 0 78 0;
#X connect 78 0 79 0;
#X connect 78 1 80 0;
#X connect 79 0 82 0;
#X connect 80 0 82 0;
#X connect 82 0 81 0;
#X connect 82 1 113 0;
#X connect 83 0 84 0;
#X connect 85 0 86 0;
#X connect 86 0 87 0;
#X connect 87 1 88 0;
#X connect 89 0 61 0;
#X connect 90 0 91 0;
#X connect 91 0 58 2;
#X connect 92 0 93 0;
#X connect 93 0 81 2;
#X connect 94 0 51 1;
#X connect 95 0 96 0;
#X connect 96 0 105 0;
#X connect 97 0 98 0;
#X connect 98 0 102 0;
#X connect 99 0 101 2;
#X connect 102 0 103 0;
#X connect 103 0 101 0;
#X connect 104 0 105 1;
#X connect 105 0 97 0;
#X connect 107 0 111 0;
#X connect 108 0 107 0;
#X connect 109 0 111 1;
#X connect 110 0 109 0;
#X connect 111 0 106 0;
#X connect 111 0 106 1;
#X connect 112 0 58 1;
#X connect 113 0 81 1;
#X connect 113 0 81 2;
