#N canvas 733 172 450 300 get_sets_dir 0;
#X obj 59 106 pdcontrol;
#X msg 56 69 dir;
#X obj 59 224 list append;
#X obj 59 142 t anything b;
#X obj 59 254 list tosymbol;
#X obj 174 210 list fromsymbol;
#X obj 59 179 list fromsymbol;
#X obj 55 25 inlet;
#X obj 55 282 outlet;
#X msg 174 179 symbol /sets/;
#X connect 0 0 3 0;
#X connect 1 0 0 0;
#X connect 2 0 4 0;
#X connect 3 0 6 0;
#X connect 3 1 9 0;
#X connect 4 0 8 0;
#X connect 5 0 2 1;
#X connect 6 0 2 0;
#X connect 7 0 1 0;
#X connect 9 0 5 0;
