#N canvas 404 116 686 608 12;
#X obj 312 40 midirealtimein;
#X obj 213 163 sel 248;
#X obj 281 380 bng 20 50 50 0 empty empty empty 0 -10 0 12 #fcfcfc #000000 #000000;
#X obj 288 335 sel 0;
#X obj 181 538 dac~;
#X obj 185 503 *~ 0;
#X obj 263 469 line;
#X obj 255 222 counter 0 0 5;
#X obj 256 295 counter 0 0 3;
#X obj 262 259 sel 0;
#X msg 421 316 250;
#X obj 421 363 midiout;
#X obj 278 78 gate 0;
#X obj 273 49 tgl 20 0 empty empty empty 0 -10 0 12 #fcfcfc #000000 #000000 0 1;
#X obj 339 74 bng 20 250 50 0 empty empty empty 0 -10 0 12 #fcfcfc #000000 #000000;
#X msg 379 317 252;
#X obj 333 116 sel 0;
#X obj 393 185 bng 20 250 50 0 empty empty empty 0 -10 0 12 #fcfcfc #000000 #000000;
#X obj 187 448 *~ 0.1;
#X obj 163 71 t;
#X obj 163 47 bng 20 250 50 0 empty empty empty 0 -10 0 12 #fcfcfc #000000 #000000;
#X obj 163 98 del 100;
#X msg 280 429 1 \, 0 25;
#X obj 425 244 del 98;
#X obj 358 259 del 98;
#X obj 185 410 saw~ 450;
#X obj 329 156 bng 20 250 50 0 empty empty empty 0 -10 0 12 #fcfcfc #000000 #000000;
#X obj 118 200 r pd;
#X obj 116 253 print pd;
#X connect 0 0 12 1;
#X connect 0 0 14 0;
#X connect 1 0 7 0;
#X connect 2 0 22 0;
#X connect 3 0 2 0;
#X connect 5 0 4 0;
#X connect 5 0 4 1;
#X connect 6 0 5 1;
#X connect 7 0 9 0;
#X connect 8 0 3 0;
#X connect 9 0 8 0;
#X connect 10 0 11 0;
#X connect 12 0 1 0;
#X connect 13 0 12 0;
#X connect 13 0 16 0;
#X connect 15 0 11 0;
#X connect 16 0 26 0;
#X connect 16 1 17 0;
#X connect 17 0 23 0;
#X connect 17 0 7 2;
#X connect 17 0 8 2;
#X connect 18 0 5 0;
#X connect 19 0 21 0;
#X connect 19 1 13 0;
#X connect 20 0 19 0;
#X connect 21 0 13 0;
#X connect 22 0 6 0;
#X connect 23 0 10 0;
#X connect 24 0 15 0;
#X connect 25 0 18 0;
#X connect 26 0 7 2;
#X connect 26 0 8 2;
#X connect 26 0 24 0;
