#N canvas 1944 28 483 286 12;
#X msg 552 72 \; pd dsp 1;
#X obj 552 32 loadbang;
#X obj 230 191 em.set.bpm;
#X obj 355 125 em.set.load;
#X obj 225 101 em.set;
#X obj 226 129 em.ctl;
#X obj 226 71 em.transport;
#X obj 228 160 em.set.tin;
#X obj 228 254 em.set.duration;
#X obj 361 98 serv/em.midisetup;
#X obj 54 169 ml3/global_settings;
#X obj 56 135 ml3/mset_manager;
#X obj 54 76 ml3/seg_manager;
#X obj 56 106 ml3/mtrack_manager;
#X text 58 49 screens;
#X obj 230 222 em.set.ui;
#X obj 641 95 s emsys.version;
#X obj 640 33 loadbang;
#X text 227 39 core;
#X text 377 46 setup;
#X obj 370 71 serv/em.bootparams;
#X obj 647 208 midiout 3;
#X msg 646 172 240 0 32 107 127 66 2 2 64 106 33 247;
#X obj 646 136 loadbang;
#X text 715 130 required for init ml3_text;
#X text 431 47 <---;
#X msg 640 66 0.4;
#X connect 1 0 0 0;
#X connect 17 0 26 0;
#X connect 22 0 21 0;
#X connect 23 0 22 0;
#X connect 26 0 16 0;
