#N canvas 1440 900 1920 978 12;
#X obj 81 325 midiout;
#X msg 57 254 250;
#X obj 199 816 knob 75 30 300 0 120 empty empty #191919 #696969 #e1e1e1 1 0 0 0 1 270 0 0 30;
#X msg 108 254 251;
#X obj 57 206 bng 38 250 50 0 empty empty start> 17 7 0 10 #00ff28 #000000 #e1e1e1;
#X obj 110 219 bng 25 250 50 0 empty empty cont> 17 7 0 10 #191919 #e1e1e1 #e1e1e1;
#X obj 166 206 bng 38 250 50 0 empty empty stop> 17 7 0 10 #ff0035 #000000 #e1e1e1;
#X floatatom 200 916 11 0 0 0 tempo - - 16;
#X obj 314 247 counter 0 0 5;
#X obj 499 89 midirealtimein;
#X obj 314 282 sel 0;
#X obj 314 315 bng 25 250 50 0 empty empty >tick 17 7 0 10 #191919 #e1e1e1 #e1e1e1;
#X obj 587 225 bng 25 250 50 0 empty empty >stop 17 7 0 10 #191919 #e1e1e1 #e1e1e1;
#X obj 535 225 bng 25 250 50 0 empty empty >cont 17 7 0 10 #191919 #e1e1e1 #e1e1e1;
#X obj 474 226 bng 25 250 50 0 empty empty >start 17 7 0 10 #191919 #e1e1e1 #e1e1e1;
#X obj 200 1025 midiout;
#X obj 437 147 gate 0, f 12;
#X obj 437 108 tgl 25 0 empty empty clock\ in 17 7 0 10 #191919 #e1e1e1 #e1e1e1 0 1;
#X obj 211 315 counter 0 0 3;
#X obj 211 344 sel 0;
#X obj 211 373 bng 52 50 25 0 empty empty 1/4\ note\ pulse 17 7 0 10 #191919 #6a75e1 #e1e1e1;
#N canvas 2929 1407 460 501 midi_throttle 0;
#X obj 91 128 change;
#X obj 91 352 f, f 11;
#X obj 91 396 change;
#X obj 91 299 onebang, f 25;
#X obj 189 223 counter 0 0 1;
#X obj 189 255 sel 1;
#X obj 91 160 t b f;
#X obj 167 122 loadbang;
#X msg 167 151 1;
#X obj 163 180 metro 100;
#X obj 91 51 inlet;
#X obj 91 434 outlet;
#X text 336 232 prevents overwhelming hardware with MIDI messages, f 15;
#X connect 0 0 6 0;
#X connect 1 0 2 0;
#X connect 2 0 11 0;
#X connect 3 0 1 0;
#X connect 4 0 5 0;
#X connect 5 0 3 1;
#X connect 6 0 3 0;
#X connect 6 1 1 1;
#X connect 7 0 8 0;
#X connect 8 0 9 0;
#X connect 9 0 1 0;
#X connect 9 0 4 0;
#X connect 10 0 0 0;
#X restore 199 957 pd midi_throttle;
#X msg 516 292 set 0;
#X msg 452 286 1;
#X msg 561 265 0;
#X obj 311 208 sel 248;
#X obj 469 181 sel 250 251 252;
#X obj 80 133 stripnote;
#X obj 80 172 sel 41 40;
#X text 42 77 from minilab (play/stop pads);
#X obj 80 103 notein;
#X obj 485 261 t, f 8;
#X text 959 1646 ., f 3;
#X msg 117 993 tempo \$1;
#X msg 81 293 \$1;
#X obj 10 327 s to-mcl;
#X obj 122 1025 s to-mcl;
#X msg 42 1012 set \$1;
#X obj 54 953 /;
#X obj 55 890 t b f;
#X msg 33 922 60000;
#X obj 59 715 midirealtimein;
#X obj 59 749 sel 248;
#X obj 59 813 sel 0;
#X obj 59 783 counter 0 0 23;
#X msg 321 941 1;
#X msg 407 943 0;
#X obj 319 976 pipe 500;
#X msg 355 942 clear;
#X obj 43 983 spigot;
#X obj 322 907 t;
#X msg 906 605 \$1;
#X obj 901 639 pgmout 15;
#X obj 975 642 s to-mcl;
#X msg 974 613 pgm \$1;
#X obj 875 499 hradio 24 1 0 16 empty empty Pattern 0 -10 0 12 #202020 #dfdfdf #dfdfdf 0;
#X floatatom 919 566 5 0 0 0 PGM - - 0;
#X obj 920 535 + 1;
#X obj 940 438 * 16;
#X obj 942 467 + 1;
#X obj 936 404 hradio 24 1 0 8 empty empty Bank 0 -10 0 12 #202020 #dfdfdf #dfdfdf 0;
#X floatatom 956 232 5 1 128 0 PGM - - 0;
#X obj 981 298 / 16;
#X obj 956 261 - 1;
#X obj 982 328 int;
#X msg 978 357 set \$1;
#X obj 914 327 % 16;
#X msg 913 354 set \$1;
#X obj 872 639 bng 20 250 50 0 empty empty empty 0 -10 0 12 #fcfcfc #000000 #000000;
#X symbolatom 1155 433 8 0 0 0 current - - 24;
#N canvas 2720 940 370 480 banknpat 0;
#X obj 47 164 + 1;
#X obj 89 62 + 1;
#X obj 46 190 sel 1 2 3 4 5 6 7 8;
#X obj 89 93 split 9;
#X obj 86 159 tosymbol;
#X msg 130 315 set \$1;
#X msg 88 125 0\$1;
#X msg 47 235 A;
#X msg 80 232 B;
#X msg 113 233 C;
#X msg 149 235 D;
#X msg 186 234 E;
#X msg 222 234 F;
#X msg 256 233 G;
#X msg 288 235 H;
#X obj 126 406 makefilename not-set-yet;
#X obj 127 283 makefilename %%s%s;
#X obj 57 284 tosymbol;
#X obj 45 28 inlet;
#X obj 90 30 inlet;
#X obj 128 443 outlet;
#X obj 129 358 buddy;
#X connect 0 0 2 0;
#X connect 1 0 3 0;
#X connect 2 0 7 0;
#X connect 2 1 8 0;
#X connect 2 2 9 0;
#X connect 2 3 10 0;
#X connect 2 4 11 0;
#X connect 2 5 12 0;
#X connect 2 6 13 0;
#X connect 2 7 14 0;
#X connect 3 0 6 0;
#X connect 3 1 4 0;
#X connect 4 0 16 0;
#X connect 5 0 21 1;
#X connect 6 0 4 0;
#X connect 7 0 17 0;
#X connect 8 0 17 0;
#X connect 9 0 17 0;
#X connect 10 0 17 0;
#X connect 11 0 17 0;
#X connect 12 0 17 0;
#X connect 13 0 17 0;
#X connect 14 0 17 0;
#X connect 15 0 20 0;
#X connect 16 0 5 0;
#X connect 17 0 21 0;
#X connect 18 0 0 0;
#X connect 19 0 1 0;
#X connect 21 0 15 0;
#X connect 21 1 15 0;
#X restore 1150 398 pd banknpat;
#N canvas 1440 0 1600 836 emsys_debug 0;
#X obj 43 95 loadbang;
#X obj 570 38 notein;
#X msg 570 129 note: \$1 \, vel: \$2 \, ch: \$3;
#X obj 570 90 pack f f f;
#X obj 567 173 spigot;
#X obj 42 154 print sys;
#X msg 43 125 welcome;
#X obj 631 167 tgl 20 0 empty empty debug\ MIDI 0 -10 0 12 #000000 #dfdfdf #dfdfdf 0 1;
#X obj 134 86 r to-mcl;
#X obj 134 117 print to-mcl;
#X obj 136 146 r from-mcl;
#X obj 136 177 print from-mcl;
#X obj 570 199 print from-midi;
#X msg 673 53 pgm \$1;
#X obj 269 154 spigot;
#X obj 321 126 tgl 20 0 empty empty debug\ rt\ MIDI 0 -10 0 12 #000000 #dfdfdf #dfdfdf 0 1;
#X obj 256 60 midirealtimein;
#X obj 258 102 sel 248;
#X obj 423 68 sysexin;
#X obj 416 183 print from-sysex;
#X obj 674 21 pgmin;
#X obj 671 88 print from-midi;
#X obj 262 188 print from-midi_rt;
#X obj 422 139 spigot;
#X obj 474 111 tgl 20 0 empty empty debug\ sysex 0 -10 0 12 #000000 #dfdfdf #dfdfdf 0 1;
#X connect 0 0 6 0;
#X connect 1 0 3 0;
#X connect 1 1 3 1;
#X connect 1 2 3 2;
#X connect 2 0 4 0;
#X connect 3 0 2 0;
#X connect 4 0 12 0;
#X connect 6 0 5 0;
#X connect 7 0 4 1;
#X connect 8 0 9 0;
#X connect 10 0 11 0;
#X connect 13 0 21 0;
#X connect 14 0 22 0;
#X connect 15 0 14 1;
#X connect 16 0 17 0;
#X connect 17 1 14 0;
#X connect 18 0 23 0;
#X connect 20 0 13 0;
#X connect 23 0 19 0;
#X connect 24 0 23 1;
#X restore 40 30 pd emsys_debug;
#N canvas 2504 1527 425 312 tempo2sysex 0;
#X obj 65 111 expr round($f1 * 24);
#X obj 65 145 expr ($f1 >> 7) & 0x7F;
#X obj 241 147 expr $f1 & 0x7F;
#X text 129 234 sysex IN to MD requires MCL: USB FWD: 1, f 22;
#X msg 65 212 240 0 32 60 2 0 97 \$1 \$2 247;
#X obj 66 181 pack f f;
#X obj 62 72 inlet;
#X obj 67 245 outlet;
#X text 272 80 stores bpm in 14 bit MIDI value, f 12;
#X connect 0 0 1 0;
#X connect 0 0 2 0;
#X connect 1 0 5 0;
#X connect 2 0 5 1;
#X connect 4 0 7 0;
#X connect 5 0 4 0;
#X connect 6 0 0 0;
#X restore 201 992 pd tempo2sysex;
#X obj 509 780 midiout;
#X msg 510 748 250;
#X obj 560 557 bng 20 250 50 0 empty empty interrupt 0 -10 0 10 #202020 #dfdfdf #dfdfdf;
#X obj 60 853 realtime;
#X obj 471 472 realtime;
#X floatatom 510 519 8 0 0 0 latency - - 0;
#X obj 509 588 del;
#X floatatom 238 482 7 0 1 2 vol - - 10;
#N canvas 1636 1069 1004 656 metronome 0;
#X obj 350 485 dac~;
#X obj 403 380 line;
#X obj 328 421 *~ 0;
#X obj 314 329 tgl 20 0 empty empty metronome 0 -10 0 12 #000000 #ffffff #bbbbbb 0 1;
#X obj 350 450 *~ 0;
#X obj 323 391 saw~ 500;
#X obj 465 372 counter 0 0 3;
#X obj 465 402 sel 0;
#X obj 514 431 t b;
#X msg 516 459 500;
#X msg 465 431 1000;
#X msg 369 350 \$1 \, 0 50;
#X obj 369 325 inlet;
#X obj 479 301 inlet;
#X obj 311 276 inlet;
#X connect 1 0 2 1;
#X connect 2 0 4 0;
#X connect 3 0 4 1;
#X connect 4 0 0 0;
#X connect 4 0 0 1;
#X connect 5 0 2 0;
#X connect 6 0 7 0;
#X connect 7 0 10 0;
#X connect 7 1 8 0;
#X connect 8 0 9 0;
#X connect 9 0 5 0;
#X connect 10 0 5 0;
#X connect 11 0 1 0;
#X connect 12 0 11 0;
#X connect 13 0 6 0;
#X connect 14 0 3 0;
#X restore 196 518 pd metronome;
#X obj 484 422 onebang;
#X obj 525 351 bng 25 250 50 0 empty empty empty 17 7 0 10 #191919 #ffffff #ffffff;
#X text 547 426 measure only when start signal is sent locally first, f 12;
#X obj 507 630 bng 20 250 50 0 empty empty lag\ comp 0 -10 0 10 #202020 #dfdfdf #dfdfdf;
#X obj 199 482 tgl 25 0 empty empty metronome -16 -7 0 10 #191919 #ffffff #ffffff 0 1;
#X obj 512 548 * 2;
#X text 332 676 this is the pattern interrupt message... it should only go to the MnM because sending it to MCL / MD seems to mess with loading track groups, f 22;
#X obj 500 677 tgl 20 0 empty empty pgm\ interrupt\ ON -30 -10 0 8 #202020 #dfdfdf #dfdfdf 0 1;
#X obj 507 711 gate 0;
#X obj 202 785 loadbang;
#X text 1029 190 for some reason Pd vanilla wants this to be set to 48 \, even though it is actually receiving on ch16 from MCL, f 18;
#X msg 166 254 252;
#X obj 955 202 pgmin 16;
#X obj 940 172 pgmin 48;
#X obj 754 1042 pgmout 15;
#X msg 786 982 10;
#X msg 756 982 5;
#X msg 822 982 17;
#X obj 800 878 counter 0 0 3;
#X obj 800 921 sel 0;
#X text 638 861 exploring the case for Pd PGM out to MCL & MnM \, with no PGM out from MCL (no port 2 MIDI interface required), f 22;
#X connect 1 0 34 0;
#X connect 2 0 7 0;
#X connect 2 0 50 0;
#X connect 3 0 34 0;
#X connect 4 0 1 0;
#X connect 4 0 83 0;
#X connect 5 0 3 0;
#X connect 6 0 93 0;
#X connect 6 0 83 0;
#X connect 7 0 21 0;
#X connect 8 0 10 0;
#X connect 9 0 16 1;
#X connect 9 0 26 0;
#X connect 10 0 11 0;
#X connect 10 0 18 0;
#X connect 12 0 24 0;
#X connect 12 0 82 0;
#X connect 13 0 23 0;
#X connect 14 0 31 0;
#X connect 14 0 82 0;
#X connect 16 0 25 0;
#X connect 17 0 16 0;
#X connect 18 0 19 0;
#X connect 19 0 20 0;
#X connect 20 0 81 2;
#X connect 20 0 80 0;
#X connect 21 0 33 0;
#X connect 21 0 72 0;
#X connect 22 0 8 0;
#X connect 22 0 18 0;
#X connect 22 0 81 2;
#X connect 23 0 17 0 48......................n++++O.....5++++uy+++O8++++67+++S+++++N++++;
#X connect 24 0 17 0;
#X connect 25 0 8 0;
#X connect 26 0 14 0;
#X connect 26 1 13 0;
#X connect 26 2 12 0;
#X connect 27 0 28 0;
#X connect 28 0 4 0;
#X connect 28 1 6 0;
#X connect 30 0 27 0;
#X connect 30 1 27 1;
#X connect 31 0 23 0;
#X connect 31 1 22 0;
#X connect 33 0 36 0;
#X connect 34 0 0 0;
#X connect 34 0 35 0;
#X connect 37 0 2 0;
#X connect 37 0 7 0;
#X connect 38 0 49 0;
#X connect 39 0 40 0;
#X connect 39 1 38 1;
#X connect 40 0 38 0;
#X connect 41 0 42 0;
#X connect 42 0 44 0;
#X connect 43 0 76 1;
#X connect 43 0 76 0;
#X connect 44 0 43 0;
#X connect 45 0 47 0;
#X connect 46 0 49 1;
#X connect 47 0 49 1;
#X connect 48 0 47 0;
#X connect 49 0 37 0;
#X connect 50 0 45 0;
#X connect 50 1 46 0;
#X connect 50 1 48 0;
#X connect 51 0 52 0;
#X connect 51 0 54 0;
#X connect 51 0 68 0;
#X connect 54 0 53 0;
#X connect 55 0 57 0;
#X connect 56 0 51 0;
#X connect 57 0 56 0;
#X connect 58 0 59 0;
#X connect 59 0 57 1;
#X connect 60 0 58 0;
#X connect 61 0 63 0;
#X connect 62 0 64 0;
#X connect 63 0 62 0;
#X connect 63 0 66 0;
#X connect 64 0 65 0;
#X connect 64 0 70 0;
#X connect 65 0 60 0;
#X connect 66 0 67 0;
#X connect 66 0 70 1;
#X connect 67 0 55 0;
#X connect 70 0 69 0;
#X connect 72 0 15 0;
#X connect 74 0 73 0;
#X connect 74 0 83 0 48......................f..........H.....l++++C....f4++++.....X9+++;
#X connect 75 0 79 0;
#X connect 76 0 39 0;
#X connect 77 0 78 0;
#X connect 78 0 87 0;
#X connect 79 0 85 0;
#X connect 80 0 81 1;
#X connect 82 0 77 1;
#X connect 83 0 82 1;
#X connect 83 0 77 0;
#X connect 85 0 80 0;
#X connect 85 0 90 1;
#X connect 86 0 81 0;
#X connect 87 0 79 1;
#X connect 89 0 90 0;
#X connect 90 0 74 0;
#X connect 91 0 2 0;
#X connect 93 0 34 0;
#X connect 94 0 61 0;
#X connect 94 0 75 0;
#X connect 97 0 96 0;
#X connect 98 0 96 0;
#X connect 99 0 96 0;
#X connect 100 0 101 0;
