#N canvas 1944 28 550 405 12;
#X msg 532 536 \; pd dsp 1;
#X obj 532 496 loadbang;
#X obj 222 612 em.set.bpm, f 12;
#X obj 347 546 em.set.load;
#X obj 217 522 em.set, f 9;
#X obj 218 550 em.ctl, f 8;
#X obj 218 492 em.transport, f 13;
#X obj 220 581 em.set.tin, f 11;
#X obj 220 675 em.set.duration;
#X obj 353 519 serv/em.midisetup;
#X obj 46 590 ml3/global_settings;
#X obj 48 556 ml3/mset_manager, f 19;
#X obj 46 497 ml3/seg_manager, f 17;
#X obj 48 527 ml3/mtrack_manager, f 20;
#X text 50 470 screens;
#X obj 222 643 em.set.ui, f 10;
#X obj 621 559 s emsys.version;
#X obj 620 497 loadbang, f 10;
#X text 219 460 core;
#X text 369 467 setup;
#X obj 362 492 serv/em.bootparams;
#X msg 626 673 240 0 32 107 127 66 2 2 64 106 33 247;
#X text 733 636 required for init ml3_text;
#X text 726 467 <---;
#X msg 620 530 0.5a, f 8;
#X symbolatom 36 23 22 0 0 0 - ui.top_line - 36;
#X symbolatom 36 68 22 0 0 0 - ui.bottom_line - 36;
#X obj 27 193 knob 50 0 1000 0 500 empty empty #111d14 #5D513E #4d4b46 1 0 0 0 0 0 0 0 0 empty 2 0 18 -15 0 1 0 0 0;
#X obj 90 129 knob 50 0 127 0 36.068 pdctl.k1 pdctl.k1_ #211D14 #5D513E #E1BF96 0 0 0 0 1 270 0 0 0 empty 2 0 6 -15 0 1 0 0 0;
#X obj 212 129 knob 50 0 127 0 98.62 pdctl.k3 pdctl.k3_ #211D14 #5D513E #E1BF96 0 0 0 0 1 270 0 0 0 empty 2 0 6 -15 0 1 0 0 0;
#X obj 151 129 knob 50 0 127 0 96.52 pdctl.k2 pdctl.k2_ #211D14 #5D513E #E1BF96 0 0 0 0 1 270 0 0 0 empty 2 0 6 -15 0 1 0 0 0;
#X obj 272 129 knob 50 0 127 0 16.256 pdctl.k4 pdctl.k4_ #211D14 #5D513E #E1BF96 0 0 0 0 1 270 0 0 0 empty 2 0 6 -15 0 1 0 0 0;
#X obj 90 193 knob 50 0 127 0 64 pdctl.k5 pdctl.k5_ #211D14 #5D513E #E1BF96 0 0 0 0 1 270 0 0 0 empty 2 0 6 -15 0 1 0 0 0;
#X obj 212 193 knob 50 0 127 0 34 pdctl.k7 pdctl.k7_ #211D14 #5D513E #E1BF96 0 0 0 0 1 270 0 0 0 empty 2 0 6 -15 0 1 0 0 0;
#X obj 151 193 knob 50 0 127 0 33.02 pdctl.k6 pdctl.k6_ #211D14 #5D513E #E1BF96 0 0 0 0 1 270 0 0 0 empty 2 0 6 -15 0 1 0 0 0;
#X obj 272 193 knob 50 0 127 0 82 pdctl.k8 pdctl.k8_ #211D14 #5D513E #E1BF96 0 0 0 0 1 270 0 0 0 empty 2 0 6 -15 0 1 0 0 0;
#X obj 336 131 vsl 41 109 0 127 0 0 pdctl.s1 pdctl.s1_ s1 0 -9 0 10 #211d14 #e1bf96 #e1ce9c 0 1;
#X obj 386 131 vsl 41 109 0 127 0 0 pdctl.s2 pdctl.s2_ s2 0 -9 0 10 #211d14 #e1bf96 #e1ce9c 0 1;
#X obj 435 131 vsl 41 109 0 127 0 0 pdctl.s3 pdctl.s3_ s3 0 -9 0 10 #211d14 #e1bf96 #e1ce9c 0 1;
#X obj 485 131 vsl 41 109 0 127 0 0 pdctl.s4 pdctl.s4_ s4 0 -9 0 10 #211d14 #e1bf96 #e1ce9c 0 1;
#X text 480 3 emsys;
#X text 592 467 inits;
#X obj 50 264 button 50 50 0 0 0 225 191 150 0;
#X obj 27 129 button 50 29 0 0 0 225 191 150 0;
#X obj 75 314 tgl 25 0 pdctl.arp pdctl.arp_ empty 17 7 0 10 #211d14 #e1bf96 #e1ce9c 0 1;
#X obj 106 264 button 50 50 0 0 0 225 191 150 0;
#X obj 131 314 tgl 25 0 pdctl.pad pdctl.pad_ empty 17 7 0 10 #211d14 #e1bf96 #e1ce9c 0 1;
#X obj 164 264 button 50 50 0 0 0 225 191 150 0;
#X obj 189 314 tgl 25 0 pdctl.prog pdctl.prog_ empty 17 7 0 10 #211d14 #e1bf96 #e1ce9c 0 1;
#X obj 220 264 button 50 50 0 0 0 225 191 150 0;
#X obj 245 314 tgl 25 0 pdctl.loop pdctl.loop_ empty 17 7 0 10 #211d14 #e1bf96 #e1ce9c 0 1;
#X obj 278 264 button 50 50 255 0 0 225 191 150 0;
#X obj 303 314 tgl 25 0 pdctl.stop pdctl.stop_ empty 17 7 0 10 #211d14 #e1bf96 #e1ce9c 0 1;
#X obj 334 264 button 50 50 0 0 0 225 191 150 0;
#X obj 359 314 tgl 25 0 pdctl.play pdctl.play_ empty 17 7 0 10 #211d14 #e1bf96 #e1ce9c 0 1;
#X obj 392 264 button 50 50 0 0 0 225 191 150 0;
#X obj 417 314 tgl 25 0 pdctl.record pdctl.record_ empty 17 7 0 10 #211d14 #e1bf96 #e1ce9c 0 1;
#X obj 448 264 button 50 50 0 0 0 225 191 150 0;
#X obj 95 348 keyboard 18 50 3 3 0 0 pdctl.keys pdctl.keys_;
#X obj 52 160 tgl 25 0 pdctl.shift pdctl.shift_ empty 17 7 0 10 #211d14 #e1bf96 #e1ce9c 0 1;
#X obj 473 314 tgl 25 0 pdctl.tap pdctl.tap_ empty 17 7 0 10 #211d14 #e1bf96 #e1ce9c 0 1;
#X text 61 246 <--;
#X text 117 246 -->;
#X text 171 246 Prog;
#X text 235 246 ⟲;
#X text 293 246 □;
#X text 349 246 ⏵;
#X text 407 246 ⏺;
#X text 458 244 Tap;
#X text 35 112 Shift;
#N canvas 733 172 450 300 ascdesc 0;
#X obj 131 45 i;
#X obj 131 230 < 0;
#X obj 131 191 -;
#X obj 131 123 change;
#X obj 185 230 outlet;
#X obj 131 13 inlet;
#X obj 131 364 outlet;
#X obj 130 265 sel 0 1;
#X msg 130 309 67;
#X msg 168 309 62;
#X obj 131 77 t b f;
#X obj 131 155 t f f;
#X msg 185 191 set 500;
#X connect 0 0 10 0;
#X connect 1 0 7 0;
#X connect 2 0 1 0;
#X connect 3 0 11 0;
#X connect 5 0 0 0;
#X connect 7 0 8 0;
#X connect 7 1 9 0;
#X connect 8 0 6 0;
#X connect 9 0 6 0;
#X connect 10 0 12 0;
#X connect 10 1 3 0;
#X connect 11 0 2 1;
#X connect 11 1 2 0;
#X connect 12 0 4 0;
#X restore -93 166 pd ascdesc;
#X floatatom -93 191 5 0 0 0 - - pdctl.enc 12;
#X obj 481 359 hradio 21 1 0 2 pdctl.notesch pdctl.notesch_ midi\ ch 6 -5 0 8 #181818 #dcdcdc #ffffff 0;
#X obj 31 351 vsl 25 44 0 16383 0 0 pdctl.bend pdctl.bend_ bend 0 -9 0 10 #211d14 #e1bf96 #e1ce9c 0 1;
#X obj -112 409 s pdctl.bend_;
#X obj 62 351 vsl 25 44 0 127 0 0 pdctl.mod pdctl.mod_ mod 0 -9 0 10 #211d14 #e1bf96 #e1ce9c 0 1;
#X obj 13 363 bng 18 250 50 0 empty empty > 9 9 0 19 #211d14 #e1bf96 #e1ce9c;
#X obj -112 383 loadmess 8192;
#X obj 52 314 change, f 3;
#X obj 110 313 change, f 3;
#X obj 165 314 change, f 3;
#X obj 222 318 change, f 3;
#X obj 277 317 change, f 3;
#X obj 336 316 change, f 3;
#X obj 394 318 change, f 3;
#X obj 448 319 change, f 3;
#X obj 633 182 r pdctl.tap__;
#X obj 633 199 r pdctl.record__;
#X obj 640 218 r pdctl.play__;
#X obj 640 238 r pdctl.stop__;
#X obj -209 166 r pdctl.arp__;
#X obj -209 183 r pdctl.pad__;
#X obj -202 202 r pdctl.prog__;
#X obj -202 222 r pdctl.loop__;
#X obj -282 90 r pdctl.shift__;
#X text 477 380 #9;
#X text 499 380 #10;
#X msg 542 703 clear, f 6;
#X obj 542 749 ml3/clr 0, f 10;
#X obj 626 612 r ml3.init;
#X obj 626 637 loadmess bang;
#X obj 542 643 del 100;
#X obj 675 710 r midich_ctl;
#X text 48 847 Port 1 = em_clock;
#X text 48 871 Port 2 = DIN MIDI;
#X text 48 893 Port 3 = MiniLab 3;
#X text 48 916 Port 4 = MegaCMD USB;
#X text 48 753 Pure Data port settings:;
#X text 48 783 These are set automatically by em_midisetup.py. If em_midisetup cannot run on this device (e.g. a dev environment using plugdata) \, the ports must be connected manually.;
#X text 48 989 Procedure for managing patterns on the fly: \; - Copy the current MnM pattern \; - Peek the next available MD bank with Insert \; - Save the current MCL row (X+Y) to the upcoming bank \; - Perform the insert \, after which playback will flow into the new bank pair \; - As soon as the MnM pattern loads \, overwrite the pattern \, and save the current kit into an unused kit slot;
#X obj 626 749 midiout 3;
#X connect 1 0 0 0;
#X connect 17 0 24 0;
#X connect 21 0 110 0;
#X connect 24 0 16 0;
#X connect 27 0 70 0;
#X connect 42 0 78 0;
#X connect 43 0 59 0;
#X connect 44 0 42 0;
#X connect 45 0 79 0;
#X connect 46 0 45 0;
#X connect 47 0 80 0;
#X connect 48 0 47 0;
#X connect 49 0 81 0;
#X connect 50 0 49 0;
#X connect 51 0 82 0;
#X connect 52 0 51 0;
#X connect 53 0 83 0;
#X connect 54 0 53 0;
#X connect 55 0 84 0;
#X connect 56 0 55 0;
#X connect 57 0 85 0;
#X connect 59 0 43 0;
#X connect 60 0 57 0;
#X connect 70 0 71 0;
#X connect 70 1 27 0;
#X connect 76 0 77 0;
#X connect 77 0 74 0;
#X connect 78 0 44 0;
#X connect 79 0 46 0;
#X connect 80 0 48 0;
#X connect 81 0 50 0;
#X connect 82 0 52 0;
#X connect 83 0 54 0;
#X connect 84 0 56 0;
#X connect 85 0 60 0;
#X connect 86 0 57 0;
#X connect 87 0 55 0;
#X connect 88 0 53 0;
#X connect 89 0 51 0;
#X connect 90 0 42 0;
#X connect 91 0 45 0;
#X connect 92 0 47 0;
#X connect 93 0 49 0;
#X connect 94 0 43 0;
#X connect 97 0 98 0;
#X connect 99 0 100 0;
#X connect 100 0 21 0;
#X connect 100 0 97 0;
#X connect 100 0 101 0;
#X connect 101 0 21 0;
#X connect 101 0 97 0;
#X connect 102 0 110 1;
#X coords 0 0 1 1 536 413 0;
