#N canvas 0 32 1680 950 12;
#X obj 95 371 midiout;
#X msg 71 300 250;
#X obj 246 830 knob 75 30 300 0 120 empty empty #191919 #696969 #e1e1e1 1 0 0 0 1 270 0 0 30;
#X msg 122 300 251;
#X obj 71 252 bng 38 250 50 0 empty empty start> 17 7 0 10 #00ff28 #000000 #e1e1e1;
#X obj 124 265 bng 25 250 50 0 empty empty cont> 17 7 0 10 #191919 #e1e1e1 #e1e1e1;
#X obj 180 252 bng 38 250 50 0 empty empty stop> 17 7 0 10 #ff0035 #000000 #e1e1e1;
#X floatatom 246 937 11 0 0 0 tempo - - 16;
#X obj 437 293 counter 0 0 5;
#X obj 622 135 midirealtimein;
#X obj 437 328 sel 0;
#X obj 710 271 bng 25 250 50 0 empty empty >stop 17 7 0 10 #191919 #e1e1e1 #e1e1e1;
#X obj 658 271 bng 25 250 50 0 empty empty >cont 17 7 0 10 #191919 #e1e1e1 #e1e1e1;
#X obj 597 272 bng 25 250 50 0 empty empty >start 17 7 0 10 #191919 #e1e1e1 #e1e1e1;
#X obj 246 1046 midiout;
#X obj 560 193 gate 0, f 12;
#X obj 560 154 tgl 25 0 empty empty clock\ in 17 7 0 10 #191919 #e1e1e1 #e1e1e1 0 1;
#X obj 334 361 counter 0 0 3;
#X obj 334 390 sel 0;
#X obj 334 419 bng 52 50 25 0 empty empty 1/4\ note\ pulse 17 7 0 10 #191919 #6a75e1 #e1e1e1;
#N canvas 2929 1407 460 501 midi_throttle 0;
#X obj 91 128 change;
#X obj 91 352 f, f 11;
#X obj 91 396 change;
#X obj 91 299 onebang, f 25;
#X obj 189 223 counter 0 0 1;
#X obj 189 255 sel 1;
#X obj 91 160 t b f;
#X obj 167 122 loadbang;
#X msg 167 151 1;
#X obj 163 180 metro 100;
#X obj 91 51 inlet;
#X obj 91 434 outlet;
#X text 336 232 prevents overwhelming hardware with MIDI messages, f 15;
#X connect 0 0 6 0;
#X connect 1 0 2 0;
#X connect 2 0 11 0;
#X connect 3 0 1 0;
#X connect 4 0 5 0;
#X connect 5 0 3 1;
#X connect 6 0 3 0;
#X connect 6 1 1 1;
#X connect 7 0 8 0;
#X connect 8 0 9 0;
#X connect 9 0 1 0;
#X connect 9 0 4 0;
#X connect 10 0 0 0;
#X restore 245 978 pd midi_throttle;
#X msg 386 117 set 0;
#X msg 518 109 1;
#X msg 561 109 0;
#X obj 434 254 sel 248;
#X obj 592 227 sel 250 251 252;
#X obj 94 179 stripnote;
#X obj 94 218 sel 41 40;
#X text 56 123 from minilab (play/stop pads);
#X obj 94 149 notein;
#X obj 437 58 t, f 8;
#X text 1097 2083 ., f 3;
#X msg 163 1014 tempo \$1;
#X msg 95 339 \$1;
#X obj 24 373 s to-mcl;
#X obj 168 1046 s to-mcl;
#X msg 86 1106 set \$1;
#X obj 100 1000 /;
#X obj 101 937 t b f;
#X msg 79 969 60000;
#X obj 105 762 midirealtimein;
#X obj 105 796 sel 248;
#X obj 105 860 sel 0;
#X obj 105 830 counter 0 0 23;
#X msg 367 962 1;
#X msg 453 964 0;
#X obj 365 997 pipe 500;
#X msg 401 963 clear;
#X obj 86 1037 spigot;
#X obj 368 928 t;
#X msg 1170 884 \$1;
#X obj 1165 918 pgmout 15;
#X obj 1239 921 s to-mcl;
#X msg 1238 892 pgm \$1;
#X obj 1139 778 hradio 24 1 0 16 empty empty Pattern 0 -10 0 12 #202020 #dfdfdf #dfdfdf 0;
#X floatatom 1183 845 5 0 0 0 PGM - - 0;
#X obj 1184 814 + 1;
#X obj 1204 717 * 16;
#X obj 1206 746 + 1;
#X obj 1200 683 hradio 24 1 0 8 empty empty Bank 0 -10 0 12 #202020 #dfdfdf #dfdfdf 0;
#X floatatom 1220 511 5 1 128 0 PGM - - 0;
#X obj 1245 577 / 16;
#X obj 1220 540 - 1;
#X obj 1246 607 int;
#X msg 1242 636 set \$1;
#X obj 1178 606 % 16;
#X msg 1177 633 set \$1;
#X obj 1136 918 bng 20 250 50 0 empty empty empty 0 -10 0 12 #fcfcfc #000000 #000000;
#X symbolatom 1419 712 8 0 0 0 current - - 24;
#N canvas 2720 940 370 480 banknpat 0;
#X obj 47 164 + 1;
#X obj 89 62 + 1;
#X obj 46 190 sel 1 2 3 4 5 6 7 8;
#X obj 89 93 split 9;
#X obj 86 159 tosymbol;
#X msg 130 315 set \$1;
#X msg 88 125 0\$1;
#X msg 47 235 A;
#X msg 80 232 B;
#X msg 113 233 C;
#X msg 149 235 D;
#X msg 186 234 E;
#X msg 222 234 F;
#X msg 256 233 G;
#X msg 288 235 H;
#X obj 126 406 makefilename not-set-yet;
#X obj 127 283 makefilename %%s%s;
#X obj 57 284 tosymbol;
#X obj 45 28 inlet;
#X obj 90 30 inlet;
#X obj 128 443 outlet;
#X obj 129 358 buddy;
#X connect 0 0 2 0;
#X connect 1 0 3 0;
#X connect 2 0 7 0;
#X connect 2 1 8 0;
#X connect 2 2 9 0;
#X connect 2 3 10 0;
#X connect 2 4 11 0;
#X connect 2 5 12 0;
#X connect 2 6 13 0;
#X connect 2 7 14 0;
#X connect 3 0 6 0;
#X connect 3 1 4 0;
#X connect 4 0 16 0;
#X connect 5 0 21 1;
#X connect 6 0 4 0;
#X connect 7 0 17 0;
#X connect 8 0 17 0;
#X connect 9 0 17 0;
#X connect 10 0 17 0;
#X connect 11 0 17 0;
#X connect 12 0 17 0;
#X connect 13 0 17 0;
#X connect 14 0 17 0;
#X connect 15 0 20 0;
#X connect 16 0 5 0;
#X connect 17 0 21 0;
#X connect 18 0 0 0;
#X connect 19 0 1 0;
#X connect 21 0 15 0;
#X connect 21 1 15 0;
#X restore 1414 677 pd banknpat;
#N canvas 1440 0 1600 836 emsys_debug 0;
#X obj 43 95 loadbang;
#X obj 570 38 notein;
#X msg 570 129 note: \$1 \, vel: \$2 \, ch: \$3;
#X obj 570 90 pack f f f;
#X obj 567 173 spigot;
#X obj 42 154 print sys;
#X msg 43 125 welcome;
#X obj 631 167 tgl 20 0 empty empty debug\ MIDI 0 -10 0 12 #000000 #dfdfdf #dfdfdf 0 1;
#X obj 134 86 r to-mcl;
#X obj 134 117 print to-mcl;
#X obj 136 146 r from-mcl;
#X obj 136 177 print from-mcl;
#X obj 570 199 print from-midi;
#X msg 673 53 pgm \$1;
#X obj 269 154 spigot;
#X obj 321 126 tgl 20 0 empty empty debug\ rt\ MIDI 0 -10 0 12 #000000 #dfdfdf #dfdfdf 0 1;
#X obj 256 60 midirealtimein;
#X obj 258 102 sel 248;
#X obj 423 68 sysexin;
#X obj 416 183 print from-sysex;
#X obj 674 21 pgmin;
#X obj 671 88 print from-midi;
#X obj 262 188 print from-midi_rt;
#X obj 422 139 spigot;
#X obj 474 111 tgl 20 0 empty empty debug\ sysex 0 -10 0 12 #000000 #dfdfdf #dfdfdf 0 1;
#X connect 0 0 6 0;
#X connect 1 0 3 0;
#X connect 1 1 3 1;
#X connect 1 2 3 2;
#X connect 2 0 4 0;
#X connect 3 0 2 0;
#X connect 4 0 12 0;
#X connect 6 0 5 0;
#X connect 7 0 4 1;
#X connect 8 0 9 0;
#X connect 10 0 11 0;
#X connect 13 0 21 0;
#X connect 14 0 22 0;
#X connect 15 0 14 1;
#X connect 16 0 17 0;
#X connect 17 1 14 0;
#X connect 18 0 23 0;
#X connect 20 0 13 0;
#X connect 23 0 19 0;
#X connect 24 0 23 1;
#X restore 54 76 pd emsys_debug;
#N canvas 2504 1527 425 312 tempo2sysex 0;
#X obj 65 111 expr round($f1 * 24);
#X obj 65 145 expr ($f1 >> 7) & 0x7F;
#X obj 241 147 expr $f1 & 0x7F;
#X text 129 234 sysex IN to MD requires MCL: USB FWD: 1, f 22;
#X msg 65 212 240 0 32 60 2 0 97 \$1 \$2 247;
#X obj 66 181 pack f f;
#X obj 62 72 inlet;
#X obj 67 245 outlet;
#X text 272 80 stores bpm in 14 bit MIDI value, f 12;
#X connect 0 0 1 0;
#X connect 0 0 2 0;
#X connect 1 0 5 0;
#X connect 2 0 5 1;
#X connect 4 0 7 0;
#X connect 5 0 4 0;
#X connect 6 0 0 0;
#X restore 247 1013 pd tempo2sysex;
#X obj 106 900 realtime;
#X obj 41 563 realtime;
#X floatatom 41 644 8 0 0 2 latency\ to\ and\ back - - 0;
#X floatatom 361 528 7 0 1 2 vol - - 10;
#N canvas 1636 1069 1004 656 metronome 0;
#X obj 350 485 dac~;
#X obj 403 380 line;
#X obj 328 421 *~ 0;
#X obj 314 329 tgl 20 0 empty empty metronome 0 -10 0 12 #000000 #ffffff #bbbbbb 0 1;
#X obj 350 450 *~ 0;
#X obj 323 391 saw~ 500;
#X obj 465 372 counter 0 0 3;
#X obj 465 402 sel 0;
#X obj 514 431 t b;
#X msg 516 459 500;
#X msg 465 431 1000;
#X msg 369 350 \$1 \, 0 50;
#X obj 369 325 inlet;
#X obj 479 301 inlet;
#X obj 311 276 inlet;
#X connect 1 0 2 1;
#X connect 2 0 4 0;
#X connect 3 0 4 1;
#X connect 4 0 0 0;
#X connect 4 0 0 1;
#X connect 5 0 2 0;
#X connect 6 0 7 0;
#X connect 7 0 10 0;
#X connect 7 1 8 0;
#X connect 8 0 9 0;
#X connect 9 0 5 0;
#X connect 10 0 5 0;
#X connect 11 0 1 0;
#X connect 12 0 11 0;
#X connect 13 0 6 0;
#X connect 14 0 3 0;
#X restore 319 564 pd metronome;
#X obj 54 513 onebang;
#X obj 37 477 bng 25 250 50 0 empty empty empty 17 7 0 10 #191919 #ffffff #ffffff;
#X obj 322 528 tgl 25 0 empty empty metronome -16 -7 0 10 #191919 #ffffff #ffffff 0 1;
#X obj 249 799 loadbang;
#X text 1293 469 for some reason Pd vanilla wants this to be set to 48 \, even though it is actually receiving on ch16 from MCL, f 18;
#X msg 180 300 252;
#X obj 1219 481 pgmin 16;
#X obj 1204 451 pgmin 48;
#X obj 974 633 pgmout 15;
#X text 1044 278 exploring the case for Pd PGM out to MCL & MnM \, with no PGM out from MCL (no port 2 MIDI interface required), f 22;
#X obj 972 329 bng 52 300 200 0 empty empty load\ beat 17 7 0 10 #00063f #deff00 #e1e1e1;
#X floatatom 972 432 5 0 0 0 - - - 12;
#X floatatom 781 745 7 0 1 2 vol - - 10;
#N canvas 1636 1069 1004 656 metronome 0;
#X obj 350 485 dac~;
#X obj 403 380 line;
#X obj 328 421 *~ 0;
#X obj 314 329 tgl 20 0 empty empty metronome 0 -10 0 12 #000000 #ffffff #bbbbbb 0 1;
#X obj 350 450 *~ 0;
#X obj 465 372 counter 0 0 3;
#X obj 465 402 sel 0;
#X obj 514 431 t b;
#X msg 516 459 500;
#X msg 465 431 1000;
#X obj 369 325 inlet;
#X obj 479 301 inlet;
#X obj 311 276 inlet;
#X msg 369 350 \$1 \, 0 50;
#X obj 323 391 saw~ 900;
#X connect 1 0 2 1;
#X connect 2 0 4 0;
#X connect 3 0 4 1;
#X connect 4 0 0 0;
#X connect 4 0 0 1;
#X connect 5 0 6 0;
#X connect 6 0 9 0;
#X connect 6 1 7 0;
#X connect 7 0 8 0;
#X connect 8 0 14 0;
#X connect 9 0 14 0;
#X connect 10 0 13 0;
#X connect 11 0 5 0;
#X connect 12 0 3 0;
#X connect 13 0 1 0;
#X connect 14 0 2 0;
#X restore 739 781 pd metronome;
#X obj 742 745 tgl 25 0 empty empty metronome -16 -7 0 10 #191919 #ffffff #ffffff 0 1;
#X obj 851 370 realtime;
#X obj 852 339 t, f 9;
#X obj 853 644 del;
#X obj 853 680 bng 25 250 50 0 empty empty predicted\ beat\ 1 17 7 0 10 #191919 #e1e1e1 #e1e1e1;
#X obj 851 444 avg;
#X floatatom 851 487 11 0 0 0 avg\ beat\ time - - 16;
#X msg 794 381 clear;
#X obj 1029 193 nbx 4 18 2 64 0 0 empty empty pattern\ beat\ len 0 -8 0 10 #191919 #e1e1e1 #e1e1e1 0 256;
#X obj 1029 218 - 1;
#X text 1095 123 for unusual time sigs and different tempo patterns \, there ought to be a setting in the txt table which describes the number of beats a pattern lasts for \, in order to determine the correct location of the downbeat \, and then assign that to the max val of this counter & the sel, f 29;
#X msg 853 721 250;
#X text 782 643 mnm transport interrupt signal, f 10;
#X obj 851 781 midiout;
#X floatatom 853 407 12 0 0 0 rolling\ beat\ time - - 16;
#X obj 851 90 sel 0;
#X obj 825 124 gate 1;
#X obj 820 90 tgl 25 0 empty empty empty 17 7 0 10 #191919 #e1e1e1 #e1e1e1 0 1;
#X obj 827 149 t;
#X msg 874 182 0;
#X obj 827 182 bng 25 250 50 0 empty empty empty 17 7 0 10 #191919 #e1e1e1 #e1e1e1;
#X msg 822 58 1;
#X obj 820 31 loadbang;
#X obj 86 1071 int;
#X text 894 43 only bang once on step 2 \, reset on full stop, f 8;
#X obj 972 252 counter 0 0 15;
#X obj 1069 218 - 3;
#X obj 972 294 sel 13;
#X obj 902 545 sel 1;
#X obj 902 574 bng 25 250 50 0 empty empty downbeat 17 7 0 10 #191919 #e1e1e1 #e1e1e1;
#X obj 972 460 sel 0 1 2 3;
#X obj 972 397 rand.u 4;
#X obj 41 600 avg;
#X msg 105 564 clear;
#X obj 176 374 loadbang;
#X obj 178 426 tgl 25 0 empty empty calibrate\ midi\ latency 17 7 0 10 #7e0a0e #fffded #e1e1e1 0 1;
#X msg 134 514 0;
#X obj 133 457 sel 1;
#X msg 178 399 1;
#X obj 178 456 metro 500;
#X obj 133 487 delay 5000;
#X obj 41 670 / 2;
#X obj 855 530 -;
#X obj 922 312 sel 0;
#X obj 889 609 onebang;
#X text 974 662 comment;
#X symbolatom 972 513 5 0 0 0 - - - 16;
#X symbolatom 1019 514 5 0 0 0 - - - 16;
#X symbolatom 1074 515 5 0 0 0 - - - 16;
#X obj 972 579 f;
#X msg 911 722 252;
#X text 943 702 sending an interrupt to both MCL & MnM with stop signal included it is more guaranteed to do a clean interrupt, f 19;
#X obj 659 1036 text define -k set;
#A set md 32 mnm 36 rep 4 len 32 tin 0 \; md 33 mnm 36 rep 8 len 32 tin 0 \; md 34 mnm 36 rep 8 len 32 tin 1 \;;
#X msg 632 1000 read test.txt;
#X msg 632 942 click;
#X msg 632 971 write test.txt;
#X obj 804 1000 text get set;
#X floatatom 804 969 5 0 129 0 - - - 12;
#X obj 804 1034 list split 2;
#X obj 826 1069 list;
#X obj 804 937 bng 25 250 50 0 empty empty empty 17 7 0 10 #191919 #e1e1e1 #e1e1e1;
#X obj 805 1101 list trim;
#X obj 804 1143 route md mnm rep len tin;
#X floatatom 804 1182 5 0 0 0 md\ pgm - - 12;
#X floatatom 831 1210 5 0 0 0 mnm\ pgm - - 12;
#X floatatom 858 1239 5 0 0 0 repeats - - 12;
#X floatatom 886 1269 5 0 0 0 beat\ length - - 12;
#X floatatom 913 1295 5 0 0 0 mnm\ TIn - - 12;
#X obj 882 1036 sel 2;
#X obj 882 1065 bng 25 250 50 0 empty empty end 24 12 0 14 #191919 #e1e1e1 #e1e1e1;
#X obj 772 1143 bng 25 250 50 0 empty empty empty 17 7 0 10 #191919 #e1e1e1 #e1e1e1;
#X connect 1 0 33 0;
#X connect 2 0 49 0;
#X connect 2 0 7 0;
#X connect 3 0 33 0;
#X connect 4 0 1 0;
#X connect 4 0 78 0;
#X connect 5 0 3 0;
#X connect 6 0 82 0;
#X connect 6 0 78 0;
#X connect 7 0 20 0;
#X connect 8 0 10 0;
#X connect 9 0 15 1;
#X connect 9 0 25 0;
#X connect 10 0 17 0;
#X connect 11 0 23 0;
#X connect 11 0 98 0;
#X connect 11 0 112 0;
#X connect 11 0 116 2;
#X connect 11 0 77 0;
#X connect 12 0 22 0;
#X connect 13 0 30 0;
#X connect 13 0 77 0;
#X connect 13 0 98 0;
#X connect 13 0 116 2;
#X connect 13 0 112 0;
#X connect 15 0 24 0;
#X connect 16 0 15 0;
#X connect 17 0 18 0;
#X connect 18 0 19 0;
#X connect 19 0 76 2;
#X connect 19 0 75 0;
#X connect 19 0 116 0;
#X connect 20 0 32 0;
#X connect 20 0 71 0;
#X connect 21 0 8 0;
#X connect 21 0 76 2;
#X connect 21 0 90 2;
#X connect 22 0 16 0;
#X connect 23 0 16 0;
#X connect 24 0 8 0;
#X connect 25 0 13 0;
#X connect 25 1 12 0;
#X connect 25 2 11 0;
#X connect 26 0 27 0;
#X connect 27 0 4 0;
#X connect 27 1 6 0;
#X connect 29 0 26 0;
#X connect 29 1 26 1;
#X connect 30 0 22 0;
#X connect 30 1 21 0;
#X connect 30 1 8 2;
#X connect 30 1 17 2;
#X connect 32 0 35 0;
#X connect 33 0 0 0;
#X connect 33 0 34 0;
#X connect 36 0 7 0;
#X connect 36 0 2 0;
#X connect 37 0 48 0;
#X connect 38 0 39 0;
#X connect 38 1 37 1;
#X connect 39 0 37 0;
#X connect 40 0 41 0;
#X connect 41 0 43 0;
#X connect 42 0 72 1;
#X connect 42 0 72 0;
#X connect 43 0 42 0;
#X connect 44 0 46 0;
#X connect 45 0 48 1;
#X connect 46 0 48 1;
#X connect 47 0 46 0;
#X connect 48 0 114 0;
#X connect 49 0 44 0;
#X connect 49 1 45 0;
#X connect 49 1 47 0;
#X connect 50 0 51 0;
#X connect 50 0 53 0;
#X connect 50 0 67 0;
#X connect 53 0 52 0;
#X connect 54 0 56 0;
#X connect 55 0 50 0;
#X connect 56 0 55 0;
#X connect 57 0 58 0;
#X connect 58 0 56 1;
#X connect 59 0 57 0;
#X connect 60 0 62 0;
#X connect 61 0 63 0;
#X connect 62 0 61 0;
#X connect 62 0 65 0;
#X connect 63 0 64 0;
#X connect 63 0 69 0;
#X connect 64 0 59 0;
#X connect 65 0 66 0;
#X connect 65 0 69 1;
#X connect 66 0 54 0;
#X connect 69 0 68 0;
#X connect 71 0 14 0;
#X connect 72 0 38 0;
#X connect 73 0 123 0;
#X connect 74 0 132 0;
#X connect 75 0 76 1;
#X connect 77 0 73 1;
#X connect 78 0 77 1;
#X connect 78 0 73 0;
#X connect 79 0 76 0;
#X connect 80 0 2 0;
#X connect 82 0 33 0;
#X connect 83 0 60 0;
#X connect 87 0 122 0;
#X connect 87 0 135 1;
#X connect 88 0 121 0;
#X connect 89 0 90 1;
#X connect 91 0 90 0;
#X connect 92 0 105 0;
#X connect 93 0 92 0;
#X connect 93 1 92 1;
#X connect 94 0 95 0;
#X connect 95 0 89 0;
#X connect 95 0 102 0;
#X connect 96 0 97 0;
#X connect 97 0 133 0;
#X connect 98 0 96 0;
#X connect 99 0 100 0;
#X connect 99 0 117 0;
#X connect 100 0 116 4;
#X connect 102 0 104 0;
#X connect 105 0 96 0;
#X connect 106 1 107 1;
#X connect 107 0 109 0;
#X connect 108 0 107 0;
#X connect 109 0 111 0;
#X connect 109 1 110 0;
#X connect 110 0 108 0;
#X connect 111 0 98 0;
#X connect 112 0 108 0;
#X connect 113 0 112 0;
#X connect 114 0 36 0;
#X connect 116 0 93 0;
#X connect 116 0 106 0;
#X connect 116 0 118 0;
#X connect 116 0 134 0;
#X connect 116 2 119 0;
#X connect 117 0 118 1;
#X connect 118 0 87 0;
#X connect 119 0 120 0;
#X connect 120 0 135 0;
#X connect 120 0 141 0;
#X connect 121 0 137 0;
#X connect 121 1 138 0;
#X connect 121 2 139 0;
#X connect 122 0 88 0;
#X connect 123 0 74 0;
#X connect 124 0 123 0;
#X connect 125 0 129 0;
#X connect 126 0 128 0;
#X connect 126 0 130 0;
#X connect 127 0 126 0;
#X connect 128 0 124 0;
#X connect 128 0 131 0;
#X connect 129 0 126 0;
#X connect 130 0 6 0;
#X connect 131 0 127 0;
#X connect 132 0 133 1;
#X connect 133 0 94 1;
#X connect 134 0 98 0;
#X connect 135 0 94 0;
#X connect 137 0 140 0;
#X connect 138 0 140 0;
#X connect 139 0 140 0;
#X connect 140 0 85 0;
#X connect 141 0 104 0;
#X connect 144 0 143 0;
#X connect 145 0 143 0;
#X connect 146 0 143 0;
#X connect 147 0 149 0;
#X connect 147 1 159 0;
#X connect 148 0 147 0;
#X connect 149 0 152 0;
#X connect 149 1 150 0;
#X connect 150 0 149 0;
#X connect 151 0 148 0;
#X connect 152 0 153 0;
#X connect 152 0 161 0;
#X connect 153 0 154 0;
#X connect 153 1 155 0;
#X connect 153 2 156 0;
#X connect 153 3 157 0;
#X connect 153 4 158 0;
#X connect 159 0 160 0;
