#N canvas 1944 28 483 286 12;
#X msg 209 79 \; pd dsp 1;
#X obj 209 39 loadbang;
#X obj 303 120 dac~;
#X obj 302 54 bng 20 250 50 0 empty empty empty 0 -10 0 12 #fcfcfc #000000 #000000;
#X obj 304 86 clickz 300;
#X obj 302 29 r t.4n;
#X obj 27 166 em.set.bpm;
#X obj 26 108 em.set.load;
#X obj 24 75 em.set;
#X obj 25 45 em.ctl;
#X obj 25 15 em.transport;
#X obj 27 136 em.set.tin;
#X obj 477 75 em.set.midiseq;
#X obj 360 54 tgl 20 0 empty empty test\ click 25 10 0 12 #fcfcfc #000000 #000000 0 1;
#X obj 363 29 loadmess 0;
#X obj 477 43 experiments/sampler;
#X text 477 13 experiments;
#X obj 29 227 em.set.duration;
#X obj 27 198 em.set.ui2;
#X obj 29 260 serv/em.midisetup;
#X connect 1 0 0 0;
#X connect 3 0 4 0;
#X connect 4 0 2 0;
#X connect 4 0 2 1;
#X connect 5 0 3 0;
#X connect 13 0 4 1;
#X connect 14 0 13 0;
