#N canvas 1860 1156 928 555 12;
#X msg 78 328 \; pd dsp 1;
#X obj 78 288 loadbang;
#X obj 175 366 dac~;
#X obj 171 303 bng 20 250 50 0 empty empty empty 0 -10 0 12 #fcfcfc #000000 #000000;
#X obj 173 335 clickz 300;
#X obj 171 278 r t.4n;
#X text 202 304 test click;
#X obj 335 207 em.set.bpm;
#X obj 334 149 em.set.load;
#X obj 332 116 em.set;
#X obj 249 115 em.ctl;
#X obj 138 114 em.transport;
#X text 361 354 TODO:;
#X obj 335 177 em.set.tin;
#X obj 337 236 em.set.ui;
#X text 361 394 if happy \, proceed to arrange material for new set \, and worry about new features if time is available by the time the structure is down, f 45;
#X text 505 313 monomachine conditional trigs;
#X text 504 336 poly stuff;
#X connect 1 0 0 0;
#X connect 3 0 4 0;
#X connect 4 0 2 0;
#X connect 4 0 2 1;
#X connect 5 0 3 0;
