#N canvas 2246 928 1114 976 12;
#X obj 61 185 midiout 3;
#X msg 60 149 240 0 32 107 127 66 2 2 64 106 33 247;
#X obj 60 113 loadbang;
#X text 129 111 required for init ml3_text;
#X obj 175 296 midirealtimein;
#X obj 291 547 counter 0 0 15;
#X msg 350 149 \; pd dsp 1;
#X obj 350 109 loadbang;
#X obj 446 101 loadbang;
#X obj 452 220 ml3/text;
#X obj 449 156 del 50;
#X obj 447 124 bng 20 250 50 0 empty empty empty 0 -10 0 12 #fcfcfc #000000 #000000;
#X msg 530 190 emsys;
#X msg 478 187 alpha;
#X obj 601 199 ml3/clr;
#X obj 597 103 loadbang;
#X msg 605 163 clear;
#X obj 598 134 bng 20 250 50 0 empty empty empty 0 -10 0 12 #fcfcfc #000000 #000000;
#X obj 570 298 ctlin 106 33;
#X obj 469 298 ctlin 107 33;
#X obj 570 328 sel 127;
#X obj 470 331 sel 127;
#X obj 572 360 bng 20 250 50 0 empty empty empty 0 -10 0 12 #fcfcfc #000000 #000000;
#X obj 469 363 bng 20 250 50 0 empty empty empty 0 -10 0 12 #fcfcfc #000000 #000000;
#X text 577 269 stop;
#X text 66 34 caution: if ml3 gets unplugged after this occurs \, text input wont work thereafter until this is triggered again, f 31;
#X obj 571 393 s t.stop;
#X obj 273 610 s t.count;
#X obj 431 589 sel 13;
#X obj 429 624 s t.load;
#X obj 502 583 sel 1;
#X obj 504 620 s t.downbeat;
#X obj 361 588 sel 0 1;
#X obj 347 623 s t.beat1;
#X obj 366 652 s t.beat2;
#X obj 442 448 r t.length;
#X floatatom 442 477 5 6 64 0 - - - 0;
#X obj 442 514 - 1;
#X obj 139 372 sel 248;
#X obj 140 411 counter 0 0 5;
#X obj 140 441 sel 0;
#X obj 140 561 sel 0;
#X obj 140 471 counter 0 0 1;
#X obj 140 501 sel 0;
#X obj 140 531 counter 0 0 1;
#X obj 482 511 - 3;
#X obj 80 597 s t.4n;
#X obj 286 489 r t.4n;
#X obj 139 334 gate 0;
#X obj 76 477 s t.16n;
#X obj 76 537 s t.8n;
#X obj 467 394 s t.cont;
#X text 474 269 cont;
#X obj 669 362 bng 20 250 50 0 empty empty empty 0 -10 0 12 #fcfcfc #000000 #000000;
#X obj 672 300 ctlin 105 33;
#X obj 671 333 sel 127;
#X obj 665 389 s t.prime;
#X obj 287 328 r t.prime;
#X obj 287 360 t;
#X msg 93 297 1;
#X msg 131 299 0;
#X obj 95 260 r t.cont;
#X obj 169 259 r t.stop;
#X text 670 271 prime (midi: 250);
#X obj 693 203 ml3/clr;
#X obj 736 177 loadmess red;
#X obj 724 153 loadmess 0;
#X obj 751 118 bng 20 250 50 0 empty empty empty 0 -10 0 12 #fcfcfc #000000 #000000;
#X obj 693 151 tgl 20 0 empty empty empty 0 -10 0 12 #fcfcfc #000000 #000000 0 1;
#X obj 623 553 r t.8n;
#X obj 622 594 counter 0 0 31;
#X obj 750 534 r t.16n;
#X obj 751 572 counter 0 0 63;
#X obj 679 505 * 2;
#X obj 829 485 * 4;
#X obj 682 547 - 1;
#X obj 828 522 - 1;
#X obj 679 629 sel 1;
#X obj 679 665 s t.interrupt;
#X obj 593 661 s t.count8;
#X obj 756 636 s t.count16;
#X msg 240 742 250;
#X msg 165 743 252;
#X msg 89 743 251;
#X msg 91 782 \$1;
#X obj 606 522 r t.prime;
#X obj 752 502 r t.prime;
#X obj 335 517 r t.prime;
#X obj 237 706 r t.prime;
#X obj 164 705 r t.stop;
#X obj 86 705 r t.cont;
#X obj 88 814 midiout 2;
#X obj 232 328 bng 20 250 50 0 empty empty empty 0 -10 0 12 #fcfcfc #000000 #000000;
#X floatatom 274 579 5 0 0 0 - - - 0;
#X floatatom 607 629 5 0 0 0 - - - 0;
#X floatatom 759 604 5 0 0 0 - - - 0;
#X obj 419 845 dac~;
#X obj 415 782 bng 20 250 50 0 empty empty empty 0 -10 0 12 #fcfcfc #000000 #000000;
#X obj 417 814 clickz 300;
#X obj 403 733 r t.4n;
#X floatatom 859 271 5 30 300 2 tempo - - 0;
#X obj 885 310 loadbang;
#X msg 885 350 1;
#X obj 851 393 ctlout;
#X msg 909 350 1;
#X obj 859 310 scale 30 300 0 127;
#X obj 859 231 loadmess 120;
#X obj 954 231 ctlin 14 33;
#X obj 954 271 scale 0 127 30 300;
#X text 918 190 leftmost knob of ml3;
#X obj 690 104 r t.8n;
#X connect 1 0 0 0;
#X connect 2 0 1 0;
#X connect 4 0 48 1;
#X connect 4 0 92 0;
#X connect 5 0 28 0;
#X connect 5 0 32 0;
#X connect 5 0 93 0;
#X connect 5 2 30 0;
#X connect 7 0 6 0;
#X connect 8 0 11 0;
#X connect 10 0 9 0;
#X connect 11 0 12 0;
#X connect 11 0 13 0;
#X connect 11 0 10 0;
#X connect 12 0 9 2;
#X connect 13 0 9 1;
#X connect 15 0 17 0;
#X connect 16 0 14 0;
#X connect 17 0 16 0;
#X connect 18 0 20 0;
#X connect 19 0 21 0;
#X connect 20 0 22 0;
#X connect 21 0 23 0;
#X connect 22 0 26 0;
#X connect 23 0 51 0;
#X connect 28 0 29 0;
#X connect 30 0 31 0;
#X connect 32 0 33 0;
#X connect 32 1 34 0;
#X connect 35 0 36 0;
#X connect 36 0 37 0;
#X connect 36 0 45 0;
#X connect 36 0 73 0;
#X connect 36 0 74 0;
#X connect 37 0 5 4;
#X connect 38 0 39 0;
#X connect 39 0 40 0;
#X connect 40 0 42 0;
#X connect 40 0 49 0;
#X connect 41 0 46 0;
#X connect 42 0 43 0;
#X connect 43 0 44 0;
#X connect 43 0 50 0;
#X connect 44 0 41 0;
#X connect 45 0 28 1;
#X connect 47 0 5 0;
#X connect 48 0 38 0;
#X connect 53 0 56 0;
#X connect 54 0 55 0;
#X connect 55 0 53 0;
#X connect 57 0 58 0;
#X connect 58 0 59 0;
#X connect 58 1 39 2;
#X connect 58 1 42 2;
#X connect 58 1 44 2;
#X connect 59 0 48 0;
#X connect 60 0 48 0;
#X connect 61 0 59 0;
#X connect 62 0 60 0;
#X connect 65 0 64 2;
#X connect 66 0 64 1;
#X connect 67 0 65 0;
#X connect 67 0 66 0;
#X connect 68 0 64 0;
#X connect 69 0 70 0;
#X connect 70 0 94 0;
#X connect 70 2 77 0;
#X connect 71 0 72 0;
#X connect 72 0 95 0;
#X connect 73 0 75 0;
#X connect 74 0 76 0;
#X connect 75 0 70 4;
#X connect 76 0 72 4;
#X connect 77 0 78 0;
#X connect 81 0 84 0;
#X connect 82 0 84 0;
#X connect 83 0 84 0;
#X connect 84 0 91 0;
#X connect 85 0 70 2;
#X connect 86 0 72 2;
#X connect 87 0 5 2;
#X connect 88 0 81 0;
#X connect 89 0 82 0;
#X connect 90 0 83 0;
#X connect 93 0 27 0;
#X connect 94 0 79 0;
#X connect 95 0 80 0;
#X connect 97 0 98 0;
#X connect 98 0 96 0;
#X connect 98 0 96 1;
#X connect 99 0 97 0;
#X connect 100 0 105 0;
#X connect 101 0 102 0;
#X connect 101 0 104 0;
#X connect 102 0 103 1;
#X connect 104 0 103 2;
#X connect 105 0 103 0;
#X connect 106 0 100 0;
#X connect 107 0 108 0;
#X connect 108 0 100 0;
#X connect 110 0 68 0;
