#N canvas 2387 1268 928 555 12;
#X msg 78 328 \; pd dsp 1;
#X obj 78 288 loadbang;
#X obj 175 366 dac~;
#X obj 171 303 bng 20 250 50 0 empty empty empty 0 -10 0 12 #fcfcfc #000000 #000000;
#X obj 173 335 clickz 300;
#X obj 171 278 r t.4n;
#X text 202 304 test click;
#X obj 335 207 em.set.bpm;
#X obj 334 149 em.set.load;
#X obj 332 116 em.set;
#X obj 249 115 em.ctl;
#X obj 138 114 em.transport;
#X text 369 336 thoroughly test;
#X text 370 300 TODO:;
#X obj 335 177 em.set.tin;
#X obj 337 236 em.set.ui;
#X text 368 392 implement bpm ramps;
#X text 392 358 make sure poly works;
#X text 391 375 check things stay in sync well enough;
#X text 368 412 port over march set and use it to test;
#X text 365 441 if happy \, proceed to arrange material for new set \, and worry about new features if time is available by the time the structure is down, f 45;
#X text 481 206 maybe: make it so that instead of holding onto a tin through MD pgm changes until a slot opens up \, automatically add a rep so that it can perform the tin as soon as possible rather than waiting;
#X connect 1 0 0 0;
#X connect 3 0 4 0;
#X connect 4 0 2 0;
#X connect 4 0 2 1;
#X connect 5 0 3 0;
