#N canvas 827 239 527 327 12;
#X obj 890 129 print;
#X obj 890 52 loadbang;
#X obj 148 834 midiout;
#X obj 363 669 bng 65 250 50 0 empty empty A01 17 7 0 10 #191919 #e1e1e1 #e1e1e1;
#X obj 376 834 pgmout;
#X obj 457 668 bng 65 250 50 0 empty empty A04 17 7 0 10 #191919 #e1e1e1 #e1e1e1;
#X msg 469 797 4;
#X msg 376 797 1;
#X obj 363 750 t;
#X obj 457 749 t;
#X obj 211 562 stripnote;
#X obj 197 668 bng 25 250 50 0 empty empty play 17 7 0 10 #191919 #e1e1e1 #e1e1e1;
#X obj 211 601 sel 41 40;
#X obj 232 668 bng 25 250 50 0 empty empty stop 17 7 0 10 #191919 #e1e1e1 #e1e1e1;
#X text 376 624 pattern interrupt test;
#X obj 80 691 s md;
#X obj 897 183 r md;
#X obj 897 214 print MD;
#X msg 80 656 play;
#X msg 128 656 stop;
#X msg 890 91 emsys 0.01;
#X obj 979 214 print MIDI;
#X obj 1002 79 notein;
#X msg 1002 170 note: \$1 \, vel: \$2 \, ch: \$3;
#X obj 1002 131 pack f f f;
#X obj 64 137 midiout;
#X msg 64 87 250;
#X obj 491 87 knob 50 30 300 0 0 empty empty #191919 #696969 #E1E1E1 1 0 0 0 1 270 0 0 30;
#X msg 173 87 252;
#X msg 115 87 251;
#X obj 64 52 bng 25 250 50 0 empty empty start> 17 7 0 10 #191919 #e1e1e1 #e1e1e1;
#X text 173 506 from minilab (play/stop pads);
#X obj 117 52 bng 25 250 50 0 empty empty cont> 17 7 0 10 #191919 #e1e1e1 #e1e1e1;
#X obj 173 52 bng 25 250 50 0 empty empty stop> 17 7 0 10 #191919 #e1e1e1 #e1e1e1;
#X floatatom 491 148 11 0 0 0 tempo - - 16;
#X msg 211 785 250;
#X msg 277 785 252;
#X obj 262 118 select 248 250 251 252;
#X obj 199 157 counter 0 0 5;
#X obj 324 39 midirealtimein;
#X obj 199 192 sel 0;
#X obj 199 225 bng 25 250 50 0 empty empty >tick 17 7 0 10 #191919 #e1e1e1 #e1e1e1;
#X obj 358 157 bng 25 250 50 0 empty empty >stop 17 7 0 10 #191919 #e1e1e1 #e1e1e1;
#X obj 326 157 bng 25 250 50 0 empty empty >cont 17 7 0 10 #191919 #e1e1e1 #e1e1e1;
#X obj 294 157 bng 25 250 50 0 empty empty >start 17 7 0 10 #191919 #e1e1e1 #e1e1e1;
#X obj 491 365 midiout;
#X obj 491 230 expr round($f1 * 24);
#X obj 262 78 gate 0, f 12;
#X obj 262 39 tgl 25 0 empty empty clock\ in 17 7 0 10 #191919 #e1e1e1 #e1e1e1 0 1;
#X obj 491 264 expr ($f1 >> 7) & 0x7F;
#X obj 644 264 expr $f1 & 0x7F;
#X text 555 353 sysex IN to MD requires MCL: USB FWD: 1, f 22;
#X obj 96 225 counter 0 0 3;
#X obj 96 254 sel 0;
#X obj 96 283 bng 52 50 25 0 empty empty 1/4\ note\ pulse 17 7 0 10 #191919 #e1e1e1 #e1e1e1;
#X obj 211 532 notein;
#X text 72 531 MINILAB stuff, f 8;
#N canvas 733 172 450 300 midi_throttle 0;
#X obj 91 128 change;
#X obj 91 352 f, f 11;
#X obj 91 396 change;
#X obj 91 299 onebang, f 25;
#X obj 189 223 counter 0 0 1;
#X obj 189 255 sel 1;
#X obj 91 160 t b f;
#X obj 167 122 loadbang;
#X msg 167 151 1;
#X obj 163 180 metro 100;
#X obj 91 51 inlet;
#X obj 91 434 outlet;
#X connect 0 0 6 0;
#X connect 1 0 2 0;
#X connect 2 0 11 0;
#X connect 3 0 1 0;
#X connect 4 0 5 0;
#X connect 5 0 3 1;
#X connect 6 0 3 0;
#X connect 6 1 1 1;
#X connect 7 0 8 0;
#X connect 8 0 9 0;
#X connect 9 0 1 0;
#X connect 9 0 4 0;
#X connect 10 0 0 0;
#X restore 491 191 pd midi_throttle;
#X msg 491 331 240 0 32 60 2 0 97 \$1 \$2 247;
#X obj 492 300 pack f f;
#X connect 1 0 20 0;
#X connect 3 0 8 0;
#X connect 5 0 9 0;
#X connect 6 0 4 0;
#X connect 7 0 4 0;
#X connect 8 0 35 0;
#X connect 8 1 7 0;
#X connect 9 0 35 0;
#X connect 9 1 6 0;
#X connect 10 0 12 0;
#X connect 11 0 35 0;
#X connect 12 0 11 0;
#X connect 12 0 18 0;
#X connect 12 1 13 0;
#X connect 12 1 19 0;
#X connect 13 0 36 0;
#X connect 16 0 17 0;
#X connect 18 0 15 0;
#X connect 19 0 15 0;
#X connect 20 0 0 0;
#X connect 22 0 24 0;
#X connect 22 1 24 1;
#X connect 22 2 24 2;
#X connect 23 0 21 0;
#X connect 24 0 23 0;
#X connect 26 0 25 0;
#X connect 27 0 34 0;
#X connect 28 0 25 0;
#X connect 29 0 25 0;
#X connect 30 0 26 0;
#X connect 32 0 29 0;
#X connect 33 0 28 0;
#X connect 34 0 57 0;
#X connect 35 0 2 0;
#X connect 36 0 2 0;
#X connect 37 0 38 0;
#X connect 37 1 44 0;
#X connect 37 2 43 0;
#X connect 37 3 42 0;
#X connect 38 0 40 0;
#X connect 39 0 47 1;
#X connect 40 0 41 0;
#X connect 40 0 52 0;
#X connect 46 0 49 0;
#X connect 46 0 50 0;
#X connect 47 0 37 0;
#X connect 48 0 47 0;
#X connect 49 0 59 0;
#X connect 50 0 59 1;
#X connect 52 0 53 0;
#X connect 53 0 54 0;
#X connect 55 0 10 0;
#X connect 55 1 10 1;
#X connect 57 0 46 0;
#X connect 58 0 45 0;
#X connect 59 0 58 0;
