#N canvas 1944 28 483 286 12;
#X msg 25 194 \; pd dsp 1;
#X obj 25 154 loadbang;
#X obj 190 185 em.set.bpm;
#X obj 26 118 em.set.load;
#X obj 185 95 em.set;
#X obj 186 123 em.ctl;
#X obj 186 65 em.transport;
#X obj 188 154 em.set.tin;
#X obj 510 57 experiments/sampler;
#X text 510 27 experiments;
#X obj 188 248 em.set.duration;
#X obj 28 88 serv/em.midisetup;
#X obj 353 151 ml3/global_settings;
#X obj 355 117 ml3/mset_manager;
#X obj 353 58 ml3/seg_manager;
#X obj 355 88 ml3/mtrack_manager;
#X text 357 31 screens;
#X obj 190 216 em.set.ui;
#X obj 28 312 s emsys.version;
#X msg 27 283 0.4b;
#X obj 27 250 loadbang;
#X text 187 33 core;
#X text 30 27 setup;
#X obj 28 60 serv/em.bootparams;
#X connect 1 0 0 0;
#X connect 19 0 18 0;
#X connect 20 0 19 0;
