#N canvas 1944 28 483 286 12;
#X msg 209 79 \; pd dsp 1;
#X obj 209 39 loadbang;
#X obj 303 120 dac~;
#X obj 302 54 bng 20 250 50 0 empty empty empty 0 -10 0 12 #fcfcfc #000000 #000000;
#X obj 304 86 clickz 300;
#X obj 302 29 r t.4n;
#X obj 28 177 em.set.bpm;
#X obj 27 116 em.set.load;
#X obj 25 86 em.set;
#X obj 25 45 em.ctl;
#X obj 25 15 em.transport;
#X obj 28 147 em.set.tin;
#X obj 360 54 tgl 20 0 empty empty test\ click 25 10 0 12 #fcfcfc #000000 #000000 0 1;
#X obj 363 29 loadmess 0;
#X obj 477 43 experiments/sampler;
#X text 477 13 experiments;
#X obj 31 241 em.set.duration;
#X obj 29 298 serv/em.midisetup;
#X text 273 312 bug: insert segment option seems to show a random temp_param screen for MD Bank if you let go of the shift button before the temp_simple screen is up;
#X text 268 250 todo: em.ctl needs an overhaul to make implementation of per-screen ctl and the various modifiers that exist (shift \, sustain shift \, and tap) easier to manage and assign ctl to;
#X text 691 254 - custom ctlin etc objects which have automatically assigned midich's inbuilt;
#X obj 31 471 ml3/global_settings;
#X obj 33 437 ml3/mset_manager;
#X obj 31 378 ml3/seg_manager;
#X obj 33 408 ml3/mtrack_manager;
#X text 35 351 screens;
#X obj 28 209 em.set.ui;
#X connect 1 0 0 0;
#X connect 3 0 4 0;
#X connect 4 0 2 0;
#X connect 4 0 2 1;
#X connect 5 0 3 0;
#X connect 12 0 4 1;
#X connect 13 0 12 0;
