#N canvas 1944 28 483 286 12;
#X msg 209 79 \; pd dsp 1;
#X obj 209 39 loadbang;
#X obj 303 120 dac~;
#X obj 302 54 bng 20 250 50 0 empty empty empty 0 -10 0 12 #fcfcfc #000000 #000000;
#X obj 304 86 clickz 300;
#X obj 302 29 r t.4n;
#X obj 27 166 em.set.bpm;
#X obj 26 108 em.set.load;
#X obj 24 75 em.set;
#X obj 25 45 em.ctl;
#X obj 25 15 em.transport;
#X obj 27 136 em.set.tin;
#X obj 477 75 em.set.midiseq;
#X obj 360 54 tgl 20 0 empty empty test\ click 25 10 0 12 #fcfcfc #000000 #000000 0 1;
#X obj 363 29 loadmess 0;
#X obj 477 43 experiments/sampler;
#X text 477 13 experiments;
#X obj 29 227 em.set.duration;
#X obj 27 198 em.set.ui2;
#X obj 29 260 serv/em.midisetup;
#X text 271 377 todo: make it so that tempos from seg data that are set to 0 use tempo from most recent previous segment (not in terms of what was last loaded \, but what is actually in the seg data [text] in order);
#X text 269 334 todo: verify that current state of patch works in live environment (pisound);
#X text 269 436 bug: insert segment option seems to show a random temp_param screen for MD Bank if you let go of the shift button before the temp_simple screen is up;
#X text 268 307 todo: add ctl for em.midisetup - in particular \, midich learning;
#X text 268 250 todo: em.ctl needs an overhaul to make implementation of per-screen ctl and the various modifiers that exist (shift \, sustain shift \, and tap) easier to manage and assign ctl to;
#X text 691 254 - custom ctlin etc objects which have automatically assigned midich's inbuilt;
#X text 270 496 bug: position on global settings menu after a setting is selected / performed resets to first position \, but the cursor doesn't move on the scroll text screen;
#X connect 1 0 0 0;
#X connect 3 0 4 0;
#X connect 4 0 2 0;
#X connect 4 0 2 1;
#X connect 5 0 3 0;
#X connect 13 0 4 1;
#X connect 14 0 13 0;
