#N canvas 827 239 527 327 12;
#X obj 250 125 print;
#X obj 250 53 loadbang;
#X msg 250 87 emsys;
#X obj 134 87 midiin;
#X obj 134 130 print MIDI;
#X connect 1 0 2 0;
#X connect 2 0 0 0;
#X connect 3 0 4 0;
#X connect 3 1 4 0;
