#N canvas 1944 28 483 286 12;
#X msg 532 536 \; pd dsp 1;
#X obj 532 496 loadbang;
#X obj 222 612 em.set.bpm;
#X obj 347 546 em.set.load;
#X obj 217 522 em.set;
#X obj 218 550 em.ctl;
#X obj 218 492 em.transport;
#X obj 220 581 em.set.tin;
#X obj 220 675 em.set.duration;
#X obj 353 519 serv/em.midisetup;
#X obj 46 590 ml3/global_settings;
#X obj 48 556 ml3/mset_manager;
#X obj 46 497 ml3/seg_manager;
#X obj 48 527 ml3/mtrack_manager;
#X text 50 470 screens;
#X obj 222 643 em.set.ui;
#X obj 621 559 s emsys.version;
#X obj 620 497 loadbang;
#X text 219 460 core;
#X text 369 467 setup;
#X obj 362 492 serv/em.bootparams;
#X obj 627 672 midiout 3;
#X msg 626 636 240 0 32 107 127 66 2 2 64 106 33 247;
#X obj 626 600 loadbang;
#X text 695 594 required for init ml3_text;
#X text 726 467 <---;
#X msg 620 530 0.5a;
#X symbolatom 36 50 22 0 0 0 - ui.top_line - 36;
#X symbolatom 36 95 22 0 0 0 - ui.bottom_line - 36;
#X obj 27 201 knob 50 0 1000 0 500 empty empty #111d14 #5D513E #111d14 1 0 0 0 0 0 0 0 0 empty 2 0 18 -15 0 1 0 0 0;
#X obj 90 156 knob 50 0 127 0 0 pdctl.k1 pdctl.k1_ #211D14 #5D513E #E1BF96 0 0 0 0 1 270 0 0 0 empty 2 0 6 -15 0 1 0 0 0;
#X obj 212 156 knob 50 0 127 0 0 pdctl.k3 pdctl.k3_ #211D14 #5D513E #E1BF96 0 0 0 0 1 270 0 0 0 empty 2 0 6 -15 0 1 0 0 0;
#X obj 151 156 knob 50 0 127 0 0 pdctl.k2 pdctl.k2_ #211D14 #5D513E #E1BF96 0 0 0 0 1 270 0 0 0 empty 2 0 6 -15 0 1 0 0 0;
#X obj 272 156 knob 50 0 127 0 0 pdctl.k4 pdctl.k4_ #211D14 #5D513E #E1BF96 0 0 0 0 1 270 0 0 0 empty 2 0 6 -15 0 1 0 0 0;
#X obj 90 220 knob 50 0 127 0 0 pdctl.k5 pdctl.k5_ #211D14 #5D513E #E1BF96 0 0 0 0 1 270 0 0 0 empty 2 0 6 -15 0 1 0 0 0;
#X obj 212 220 knob 50 0 127 0 0 pdctl.k7 pdctl.k7_ #211D14 #5D513E #E1BF96 0 0 0 0 1 270 0 0 0 empty 2 0 6 -15 0 1 0 0 0;
#X obj 151 220 knob 50 0 127 0 0 pdctl.k6 pdctl.k6_ #211D14 #5D513E #E1BF96 0 0 0 0 1 270 0 0 0 empty 2 0 6 -15 0 1 0 0 0;
#X obj 272 220 knob 50 0 127 0 0 pdctl.k8 pdctl.k8_ #211D14 #5D513E #E1BF96 0 0 0 0 1 270 0 0 0 empty 2 0 6 -15 0 1 0 0 0;
#X obj 336 158 vsl 41 109 0 127 0 0 pdctl.s1 pdctl.s1_ empty 0 -9 0 10 #211d14 #e1bf96 #e1ce9c 0 1;
#X obj 386 158 vsl 41 109 0 127 0 0 pdctl.s2 pdctl.s2_ empty 0 -9 0 10 #211d14 #e1bf96 #e1ce9c 0 1;
#X obj 435 158 vsl 41 109 0 127 0 0 pdctl.s3 pdctl.s3_ empty 0 -9 0 10 #211d14 #e1bf96 #e1ce9c 0 1;
#X obj 485 158 vsl 41 109 0 127 0 0 pdctl.s4 pdctl.s4_ empty 0 -9 0 10 #211d14 #e1bf96 #e1ce9c 0 1;
#X text 476 17 emsys;
#X text 592 467 inits;
#X obj 50 291 button 50 50 0 0 0 225 191 150 0;
#X obj 27 156 button 50 35 0 0 0 225 191 150 0;
#X obj 50 364 tgl 25 0 pdctl.arp pdctl.arp_ empty 17 7 0 10 #211d14 #e1bf96 #e1ce9c 0 1;
#X obj 106 291 button 50 50 0 0 0 225 191 150 0;
#X obj 106 364 tgl 25 0 pdctl.pad pdctl.pad_ empty 17 7 0 10 #211d14 #e1bf96 #e1ce9c 0 1;
#X obj 164 291 button 50 50 0 0 0 225 191 150 0;
#X obj 164 364 tgl 25 0 pdctl.prog pdctl.prog_ empty 17 7 0 10 #211d14 #e1bf96 #e1ce9c 0 1;
#X obj 220 291 button 50 50 0 0 0 225 191 150 0;
#X obj 220 364 tgl 25 0 pdctl.loop pdctl.loop_ empty 17 7 0 10 #211d14 #e1bf96 #e1ce9c 0 1;
#X obj 278 291 button 50 50 255 255 255 225 191 150 0;
#X obj 278 364 tgl 25 0 pdctl.stop pdctl.stop_ empty 17 7 0 10 #211d14 #e1bf96 #e1ce9c 0 1;
#X obj 334 291 button 50 50 0 0 0 225 191 150 0;
#X obj 334 364 tgl 25 0 pdctl.play pdctl.play_ empty 17 7 0 10 #211d14 #e1bf96 #e1ce9c 0 1;
#X obj 392 291 button 50 50 0 0 0 225 191 150 0;
#X obj 392 364 tgl 25 0 pdctl.record pdctl.record_ empty 17 7 0 10 #211d14 #e1bf96 #e1ce9c 0 1;
#X obj 448 291 button 50 50 0 0 0 225 191 150 0;
#X obj 95 396 keyboard 18 50 3 3 0 0 pdctl.keys pdctl.keys_;
#X obj -138 156 s pdctl.shift.enc;
#X obj 4 156 tgl 25 0 pdctl.shift pdctl.shift_ empty 17 7 0 10 #211d14 #e1bf96 #e1ce9c 0 1;
#X obj 448 364 tgl 25 0 pdctl.tap pdctl.tap_ empty 17 7 0 10 #211d14 #e1bf96 #e1ce9c 0 1;
#X text 61 273 <--;
#X text 117 273 -->;
#X text 171 273 Prog;
#X text 235 273 ⟲;
#X text 293 273 □;
#X text 349 273 ⏵;
#X text 407 273 ⏺;
#X text 458 271 Tap;
#X text 35 139 Shift;
#X obj -171 117 s pdctl.noshift.enc;
#X obj -171 39 r pdctl.enc;
#X obj -171 87 router 2;
#X obj -85 39 r ctl.shift;
#N canvas 733 172 450 300 ascdesc 0;
#X obj 131 45 i;
#X obj 131 230 < 0;
#X obj 131 191 -;
#X obj 131 123 change;
#X obj 185 230 outlet;
#X obj 131 13 inlet;
#X obj 131 364 outlet;
#X obj 130 265 sel 0 1;
#X msg 130 309 67;
#X msg 168 309 62;
#X obj 131 77 t b f;
#X obj 131 155 t f f;
#X msg 185 191 set 500;
#X connect 0 0 10 0;
#X connect 1 0 7 0;
#X connect 2 0 1 0;
#X connect 3 0 11 0;
#X connect 5 0 0 0;
#X connect 7 0 8 0;
#X connect 7 1 9 0;
#X connect 8 0 6 0;
#X connect 9 0 6 0;
#X connect 10 0 12 0;
#X connect 10 1 3 0;
#X connect 11 0 2 1;
#X connect 11 1 2 0;
#X connect 12 0 4 0;
#X restore -56 201 pd ascdesc;
#X floatatom -15 227 5 0 0 0 - - pdctl.enc 12;
#X obj 485 410 hradio 21 1 0 2 pdctl.notesch pdctl.notesch_ ch 0 -6 0 12 #fcfcfc #000000 #ffffff 0;
#X obj 31 398 vsl 25 44 0 16383 0 0 pdctl.bend pdctl.bend_ empty 0 -9 0 10 #211d14 #e1bf96 #e1ce9c 0 1;
#X obj -112 436 s pdctl.bend_;
#X obj 62 398 vsl 25 44 0 127 0 0 pdctl.mod pdctl.mod_ empty 0 -9 0 10 #211d14 #e1bf96 #e1ce9c 0 1;
#X obj 4 396 bng 25 250 50 0 empty empty empty 17 7 0 10 #211d14 #e1bf96 #e1ce9c;
#X obj -112 410 loadmess 8192;
#X obj 50 345 change;
#X obj 108 344 change;
#X obj 163 345 change;
#X obj 220 349 change;
#X obj 275 348 change;
#X obj 334 347 change;
#X obj 392 349 change;
#X obj 446 350 change;
#X obj 633 209 r pdctl.tap__;
#X obj 633 226 r pdctl.record__;
#X obj 640 245 r pdctl.play__;
#X obj 640 265 r pdctl.stop__;
#X obj -209 193 r pdctl.arp__;
#X obj -209 210 r pdctl.pad__;
#X obj -202 229 r pdctl.prog__;
#X obj -202 249 r pdctl.loop__;
#X obj -282 117 r pdctl.shift__;
#X connect 1 0 0 0;
#X connect 17 0 26 0;
#X connect 22 0 21 0;
#X connect 23 0 22 0;
#X connect 26 0 16 0;
#X connect 29 0 77 0;
#X connect 44 0 85 0;
#X connect 45 0 62 0;
#X connect 46 0 44 0;
#X connect 47 0 86 0;
#X connect 48 0 47 0;
#X connect 49 0 87 0;
#X connect 50 0 49 0;
#X connect 51 0 88 0;
#X connect 52 0 51 0;
#X connect 53 0 89 0;
#X connect 54 0 53 0;
#X connect 55 0 90 0;
#X connect 56 0 55 0;
#X connect 57 0 91 0;
#X connect 58 0 57 0;
#X connect 59 0 92 0;
#X connect 62 0 45 0;
#X connect 63 0 59 0;
#X connect 74 0 75 0;
#X connect 75 0 73 0;
#X connect 75 1 61 0;
#X connect 76 0 75 1;
#X connect 77 0 78 0;
#X connect 77 1 29 0;
#X connect 83 0 84 0;
#X connect 84 0 81 0;
#X connect 85 0 46 0;
#X connect 86 0 48 0;
#X connect 87 0 50 0;
#X connect 88 0 52 0;
#X connect 89 0 54 0;
#X connect 90 0 56 0;
#X connect 91 0 58 0;
#X connect 92 0 63 0;
#X connect 93 0 59 0;
#X connect 94 0 57 0;
#X connect 95 0 55 0;
#X connect 96 0 53 0;
#X connect 97 0 44 0;
#X connect 98 0 47 0;
#X connect 99 0 49 0;
#X connect 100 0 51 0;
#X connect 101 0 45 0;
