#N canvas 827 239 527 327 12;
#X obj 598 107 print;
#X obj 598 30 loadbang;
#X obj 154 433 midiout;
#X msg 217 384 250 \, 2;
#X msg 283 384 252 \, 2;
#X obj 369 268 bng 65 250 50 0 empty empty A01 17 7 0 10 #191919 #e1e1e1 #e1e1e1;
#X obj 382 433 pgmout;
#X obj 463 267 bng 65 250 50 0 empty empty A04 17 7 0 10 #191919 #e1e1e1 #e1e1e1;
#X msg 475 396 4;
#X msg 382 396 1;
#X obj 369 349 t;
#X obj 463 348 t;
#X obj 217 161 stripnote;
#X obj 217 114 notein 10;
#X obj 203 267 bng 25 250 50 0 empty empty play 17 7 0 10 #191919 #e1e1e1 #e1e1e1;
#X obj 217 200 sel 41 40;
#X obj 238 267 bng 25 250 50 0 empty empty stop 17 7 0 10 #191919 #e1e1e1 #e1e1e1;
#X text 382 223 pattern interrupt test;
#X obj 86 290 s md;
#X obj 605 161 r md;
#X obj 605 192 print MD;
#X msg 86 255 play;
#X msg 134 255 stop;
#X msg 598 69 emsys 0.01;
#X connect 1 0 23 0;
#X connect 3 0 2 0;
#X connect 4 0 2 0;
#X connect 5 0 10 0;
#X connect 7 0 11 0;
#X connect 8 0 6 0;
#X connect 9 0 6 0;
#X connect 10 0 3 0;
#X connect 10 1 9 0;
#X connect 11 0 3 0;
#X connect 11 1 8 0;
#X connect 12 0 15 0;
#X connect 13 0 12 0;
#X connect 13 1 12 1;
#X connect 14 0 3 0;
#X connect 15 0 14 0;
#X connect 15 0 21 0;
#X connect 15 1 16 0;
#X connect 15 1 22 0;
#X connect 16 0 4 0;
#X connect 19 0 20 0;
#X connect 21 0 18 0;
#X connect 22 0 18 0;
#X connect 23 0 0 0;
