#N canvas 1944 28 483 286 12;
#X msg 532 536 \; pd dsp 1;
#X obj 532 496 loadbang;
#X obj 222 612 em.set.bpm;
#X obj 347 546 em.set.load;
#X obj 217 522 em.set;
#X obj 218 550 em.ctl;
#X obj 218 492 em.transport;
#X obj 220 581 em.set.tin;
#X obj 220 675 em.set.duration;
#X obj 353 519 serv/em.midisetup;
#X obj 46 590 ml3/global_settings;
#X obj 48 556 ml3/mset_manager;
#X obj 46 497 ml3/seg_manager;
#X obj 48 527 ml3/mtrack_manager;
#X text 50 470 screens;
#X obj 222 643 em.set.ui;
#X obj 621 559 s emsys.version;
#X obj 620 497 loadbang;
#X text 219 460 core;
#X text 369 467 setup;
#X obj 362 492 serv/em.bootparams;
#X obj 627 672 midiout 3;
#X msg 626 636 240 0 32 107 127 66 2 2 64 106 33 247;
#X obj 626 600 loadbang;
#X text 695 594 required for init ml3_text;
#X text 726 467 <---;
#X msg 620 530 0.5a;
#X symbolatom 36 50 22 0 0 0 - ui.top_line - 36;
#X symbolatom 36 95 22 0 0 0 - ui.bottom_line - 36;
#X obj 27 201 knob 50 0 127 0 0 pdctl.enc pdctl.enc_ #111d14 #5D513E #E1BF96 1 0 0 0 1 270 0 0 0 empty 2 0 18 -15 0 1 0 0 0;
#X obj 90 156 knob 50 0 127 0 0 pdctl.k1 pdctl.k1_ #211D14 #5D513E #E1BF96 1 0 0 0 1 270 0 0 0 empty 2 0 6 -15 0 1 0 0 0;
#X obj 212 156 knob 50 0 127 0 0 pdctl.k3 pdctl.k3_ #211D14 #5D513E #E1BF96 1 0 0 0 1 270 0 0 0 empty 2 0 6 -15 0 1 0 0 0;
#X obj 151 156 knob 50 0 127 0 0 pdctl.k2 pdctl.k2_ #211D14 #5D513E #E1BF96 1 0 0 0 1 270 0 0 0 empty 2 0 6 -15 0 1 0 0 0;
#X obj 272 156 knob 50 0 127 0 0 pdctl.k4 pdctl.k4_ #211D14 #5D513E #E1BF96 1 0 0 0 1 270 0 0 0 empty 2 0 6 -15 0 1 0 0 0;
#X obj 90 220 knob 50 0 127 0 0 pdctl.k5 pdctl.k5_ #211D14 #5D513E #E1BF96 1 0 0 0 1 270 0 0 0 empty 2 0 6 -15 0 1 0 0 0;
#X obj 212 220 knob 50 0 127 0 0 pdctl.k7 pdctl.k7_ #211D14 #5D513E #E1BF96 1 0 0 0 1 270 0 0 0 empty 2 0 6 -15 0 1 0 0 0;
#X obj 151 220 knob 50 0 127 0 0 pdctl.k6 pdctl.k6_ #211D14 #5D513E #E1BF96 1 0 0 0 1 270 0 0 0 empty 2 0 6 -15 0 1 0 0 0;
#X obj 272 220 knob 50 0 127 0 0 pdctl.k8 pdctl.k8_ #211D14 #5D513E #E1BF96 1 0 0 0 1 270 0 0 0 empty 2 0 6 -15 0 1 0 0 0;
#X obj 336 158 vsl 41 109 0 127 0 0 pdctl.s1 pdctl.s1_ empty 0 -9 0 10 #211d14 #e1bf96 #e1ce9c 0 1;
#X obj 386 158 vsl 41 109 0 127 0 0 pdctl.s2 pdctl.s2_ empty 0 -9 0 10 #211d14 #e1bf96 #e1ce9c 0 1;
#X obj 435 158 vsl 41 109 0 127 0 0 pdctl.s3 pdctl.s3_ empty 0 -9 0 10 #211d14 #e1bf96 #e1ce9c 0 1;
#X obj 485 158 vsl 41 109 0 127 0 0 pdctl.s4 pdctl.s4_ empty 0 -9 0 10 #211d14 #e1bf96 #e1ce9c 0 1;
#X text 476 17 emsys;
#X text 592 467 inits;
#X obj 50 291 button 50 50 33 29 20 225 191 150 0;
#X obj 27 156 button 50 35 33 29 20 225 191 150 0;
#X obj 50 345 tgl 25 0 pdctl.arp pdctl.arp_ empty 17 7 0 10 #211d14 #e1bf96 #e1ce9c 0 1;
#X obj 106 291 button 50 50 33 29 20 225 191 150 0;
#X obj 106 345 tgl 25 0 pdctl.pad pdctl.pad_ empty 17 7 0 10 #211d14 #e1bf96 #e1ce9c 0 1;
#X obj 164 291 button 50 50 33 29 20 225 191 150 0;
#X obj 164 345 tgl 25 0 pdctl.prog pdctl.prog_ empty 17 7 0 10 #211d14 #e1bf96 #e1ce9c 0 1;
#X obj 220 291 button 50 50 33 29 20 225 191 150 0;
#X obj 220 345 tgl 25 0 pdctl.loop pdctl.loop_ empty 17 7 0 10 #211d14 #e1bf96 #e1ce9c 0 1;
#X obj 278 291 button 50 50 33 29 20 225 191 150 0;
#X obj 278 345 tgl 25 0 pdctl.stop pdctl.stop_ empty 17 7 0 10 #211d14 #e1bf96 #e1ce9c 0 1;
#X obj 334 291 button 50 50 33 29 20 225 191 150 0;
#X obj 334 345 tgl 25 0 pdctl.play pdctl.play_ empty 17 7 0 10 #211d14 #e1bf96 #e1ce9c 0 1;
#X obj 392 291 button 50 50 33 29 20 225 191 150 0;
#X obj 392 345 tgl 25 0 pdctl.record pdctl.record_ empty 17 7 0 10 #211d14 #e1bf96 #e1ce9c 0 1;
#X obj 448 291 button 50 50 33 29 20 225 191 150 0;
#X obj 29 383 keyboard 18 50 4 2 0 0 pdctl.keys pdctl.keys_;
#X obj 619 203 s pdctl.shift.enc;
#X obj 4 156 tgl 25 0 pdctl.shift pdctl.shift_ empty 17 7 0 10 #211d14 #e1bf96 #e1ce9c 0 1;
#X obj 448 345 tgl 25 0 pdctl.tap pdctl.tap_ empty 17 7 0 10 #211d14 #e1bf96 #e1ce9c 0 1;
#X text 61 273 <--;
#X text 117 273 -->;
#X text 171 273 Prog;
#X text 235 273 ⟲;
#X text 293 273 □;
#X text 349 273 ⏵;
#X text 407 273 ⏺;
#X text 458 273 Tap;
#X text 35 139 Shift;
#X obj 586 164 s pdctl.noshift.enc;
#X obj 586 86 r pdctl.enc;
#X obj 586 134 router 2;
#X obj 752 86 r ctl.shift;
#X obj 666 134 router 2;
#X obj 666 86 r pdctl.arp;
#X connect 1 0 0 0;
#X connect 17 0 26 0;
#X connect 22 0 21 0;
#X connect 23 0 22 0;
#X connect 26 0 16 0;
#X connect 44 0 46 0;
#X connect 45 0 62 0;
#X connect 46 0 44 0;
#X connect 47 0 48 0;
#X connect 48 0 47 0;
#X connect 49 0 50 0;
#X connect 50 0 49 0;
#X connect 51 0 52 0;
#X connect 52 0 51 0;
#X connect 53 0 54 0;
#X connect 54 0 53 0;
#X connect 55 0 56 0;
#X connect 56 0 55 0;
#X connect 57 0 58 0;
#X connect 58 0 57 0;
#X connect 59 0 63 0;
#X connect 62 0 45 0;
#X connect 63 0 59 0;
#X connect 74 0 75 0;
#X connect 75 0 73 0;
#X connect 75 1 61 0;
#X connect 76 0 75 1;
#X connect 76 0 77 1;
