#N canvas 234 143 390 422 10;
#X obj 34 59 inlet;
#X obj 91 103 t a b;
#X obj 136 137 f 1;
#X obj 91 201 t a b;
#X obj 91 244 outlet;
#X obj 207 56 inlet;
#X text 8 6 once;
#X text 64 7 only the first message passes through;
#X text 29 37 message in;
#X text 29 289 message out (only once);
#X text 203 36 anything to init once;
#X obj 34 80 route bang;
#X obj 34 110 t b b;
#X obj 34 202 t b b;
#X text 96 375 IEM KUG;
#X text 80 363 musil;
#X text 110 363 @;
#X text 116 363 iem.at;
#X text 79 385 Graz \, Austria;
#X text 102 336 @;
#X text 108 336 iem.at;
#X text 30 336 (c) zmoelnig;
#X obj 207 79 t b;
#X msg 207 102 1;
#X msg 151 235 0;
#X obj 91 174 spigot 1;
#X obj 34 170 spigot 1;
#X text 31 352 (c) Thomas Musil 2000 - 2018;
#X connect 0 0 11 0;
#X connect 1 0 25 0;
#X connect 1 1 2 0;
#X connect 2 0 25 1;
#X connect 2 0 26 1;
#X connect 3 0 4 0;
#X connect 3 1 24 0;
#X connect 5 0 22 0;
#X connect 11 0 12 0;
#X connect 11 1 1 0;
#X connect 12 0 26 0;
#X connect 12 1 2 0;
#X connect 13 0 4 0;
#X connect 13 1 24 0;
#X connect 22 0 23 0;
#X connect 23 0 2 1;
#X connect 24 0 2 1;
#X connect 25 0 3 0;
#X connect 26 0 13 0;
