#N canvas 28 138 725 757 12;
#X msg 25 462 16 7 127;
#X msg 98 459 0 0 0;
#X obj 34 392 sel 1;
#X obj 35 359 tgl 23 0 empty empty empty 17 7 0 10 #191919 #e1e1e1 #e1e1e1 0 1;
#X obj 70 426 b;
#X msg 29 504 240 0 32 107 127 66 2 2 22 4 \$1 \$2 \$3 247;
#X obj 455 151 print midi;
#X obj 491 63 notein;
#X obj 474 113 stripnote;
#X obj 480 190 mtof;
#X obj 497 272 osc~ 200;
#X obj 474 233 t b f;
#X obj 468 392 dac~;
#X obj 466 355 *~ 0;
#X obj 504 318 line;
#X msg 407 275 1 \, 0 500;
#X text 30 140 test minilab3 midiout;
#X obj 32 534 midiout 2;
#X msg 234 142 \; pd dsp 1;
#X obj 237 102 loadbang;
#X obj 61 203 bng 20 250 50 0 empty empty empty 0 -10 0 12 #fcfcfc #000000 #000000;
#X obj 72 243 print midirt;
#X obj 69 166 midirealtimein;
#X msg 219 209 250;
#X msg 259 210 252;
#X obj 98 206 change;
#X text 364 28 test midiin from minilab3 & dsp out;
#X floatatom 335 166 5 0 0 0 - - - 0;
#X obj 47 285 counter 0 0 15;
#X obj 31 325 sel 0;
#X obj 336 390 print;
#X obj 209 285 midiout 3;
#X obj 328 287 t b f;
#X obj 220 400 midiout 3;
#X obj 290 345 pack 176 22 64;
#X connect 0 0 5 0;
#X connect 1 0 5 0;
#X connect 2 0 0 0;
#X connect 2 1 4 0;
#X connect 3 0 2 0;
#X connect 4 0 1 0;
#X connect 5 0 17 0;
#X connect 7 0 8 0;
#X connect 7 1 8 1;
#X connect 8 0 6 0;
#X connect 8 0 9 0;
#X connect 9 0 11 0;
#X connect 10 0 13 0;
#X connect 11 0 15 0;
#X connect 11 1 10 0;
#X connect 13 0 12 0;
#X connect 14 0 13 1;
#X connect 15 0 14 0;
#X connect 19 0 18 0;
#X connect 20 0 28 0;
#X connect 22 0 20 0;
#X connect 22 0 25 0;
#X connect 23 0 31 0;
#X connect 24 0 31 0;
#X connect 25 0 21 0;
#X connect 27 0 32 0;
#X connect 28 0 29 0;
#X connect 29 0 3 0;
#X connect 32 0 34 0;
#X connect 32 1 34 2;
#X connect 34 0 30 0;
#X connect 34 0 33 0;
