#N canvas 827 239 527 327 12;
#X msg 216 609 \$1;
#X obj 211 643 pgmout 15;
#X obj 292 639 s to-mcl;
#X msg 291 610 pgm \$1;
#X obj 185 503 hradio 24 1 0 16 empty empty Pattern 0 -10 0 12 #202020 #dfdfdf #dfdfdf 0;
#X floatatom 229 570 5 0 0 0 PGM - - 0;
#X obj 230 539 + 1;
#X obj 250 442 * 16;
#X obj 252 471 + 1;
#X obj 246 408 hradio 24 1 0 8 empty empty Bank 0 -10 0 12 #202020 #dfdfdf #dfdfdf 0;
#X floatatom 266 236 5 1 128 0 PGM - - 0;
#X obj 291 302 / 16;
#X obj 266 265 - 1;
#X obj 292 332 int;
#X msg 288 361 set \$1;
#X obj 224 331 % 16;
#X msg 223 358 set \$1;
#X obj 182 643 bng 20 250 50 0 empty empty empty 0 -10 0 12 #fcfcfc #000000 #000000;
#X symbolatom 465 437 8 0 0 0 current - - 24;
#N canvas 2720 940 370 480 banknpat 0;
#X obj 47 164 + 1;
#X obj 89 62 + 1;
#X obj 46 190 sel 1 2 3 4 5 6 7 8;
#X obj 89 93 split 9;
#X obj 86 159 tosymbol;
#X msg 130 315 set \$1;
#X msg 88 125 0\$1;
#X msg 47 235 A;
#X msg 80 232 B;
#X msg 113 233 C;
#X msg 149 235 D;
#X msg 186 234 E;
#X msg 222 234 F;
#X msg 256 233 G;
#X msg 288 235 H;
#X obj 126 406 makefilename not-set-yet;
#X obj 127 283 makefilename %%s%s;
#X obj 57 284 tosymbol;
#X obj 45 28 inlet;
#X obj 90 30 inlet;
#X obj 128 443 outlet;
#X obj 129 358 buddy;
#X connect 0 0 2 0;
#X connect 1 0 3 0;
#X connect 2 0 7 0;
#X connect 2 1 8 0;
#X connect 2 2 9 0;
#X connect 2 3 10 0;
#X connect 2 4 11 0;
#X connect 2 5 12 0;
#X connect 2 6 13 0;
#X connect 2 7 14 0;
#X connect 3 0 6 0;
#X connect 3 1 4 0;
#X connect 4 0 16 0;
#X connect 5 0 21 1;
#X connect 6 0 4 0;
#X connect 7 0 17 0;
#X connect 8 0 17 0;
#X connect 9 0 17 0;
#X connect 10 0 17 0;
#X connect 11 0 17 0;
#X connect 12 0 17 0;
#X connect 13 0 17 0;
#X connect 14 0 17 0;
#X connect 15 0 20 0;
#X connect 16 0 5 0;
#X connect 17 0 21 0;
#X connect 18 0 0 0;
#X connect 19 0 1 0;
#X connect 21 0 15 0;
#X connect 21 1 15 0;
#X restore 460 402 pd banknpat;
#X text 339 194 for some reason Pd vanilla wants this to be set to 48 \, even though it is actually receiving on ch16 from MCL, f 18;
#X obj 265 206 pgmin 16;
#X obj 250 176 pgmin 48;
#X obj 890 333 knob 75 30 300 0 120 empty empty #191919 #696969 #e1e1e1 1 0 0 0 1 270 0 0 30;
#X floatatom 890 440 11 0 0 0 tempo - - 16;
#X obj 890 549 midiout;
#N canvas 2929 1407 460 501 midi_throttle 0;
#X obj 91 128 change;
#X obj 91 352 f, f 11;
#X obj 91 396 change;
#X obj 91 299 onebang, f 25;
#X obj 189 223 counter 0 0 1;
#X obj 189 255 sel 1;
#X obj 91 160 t b f;
#X obj 167 122 loadbang;
#X msg 167 151 1;
#X obj 163 180 metro 100;
#X obj 91 51 inlet;
#X obj 91 434 outlet;
#X text 336 232 prevents overwhelming hardware with MIDI messages, f 15;
#X connect 0 0 6 0;
#X connect 1 0 2 0;
#X connect 2 0 11 0;
#X connect 3 0 1 0;
#X connect 4 0 5 0;
#X connect 5 0 3 1;
#X connect 6 0 3 0;
#X connect 6 1 1 1;
#X connect 7 0 8 0;
#X connect 8 0 9 0;
#X connect 9 0 1 0;
#X connect 9 0 4 0;
#X connect 10 0 0 0;
#X restore 889 481 pd midi_throttle;
#X msg 807 517 tempo \$1;
#X obj 812 549 s to-mcl;
#X msg 730 609 set \$1;
#X obj 744 503 /;
#X obj 745 440 t b f;
#X msg 723 472 60000;
#X obj 749 265 midirealtimein;
#X obj 749 299 sel 248;
#X obj 749 363 sel 0;
#X obj 749 333 counter 0 0 23;
#X msg 1011 465 1;
#X msg 1097 467 0;
#X obj 1009 500 pipe 500;
#X msg 1045 466 clear;
#X obj 730 540 spigot;
#X obj 1012 431 t;
#N canvas 2504 1527 425 312 tempo2sysex 0;
#X obj 65 111 expr round($f1 * 24);
#X obj 65 145 expr ($f1 >> 7) & 0x7F;
#X obj 241 147 expr $f1 & 0x7F;
#X text 129 234 sysex IN to MD requires MCL: USB FWD: 1, f 22;
#X msg 65 212 240 0 32 60 2 0 97 \$1 \$2 247;
#X obj 66 181 pack f f;
#X obj 62 72 inlet;
#X obj 67 245 outlet;
#X text 272 80 stores bpm in 14 bit MIDI value, f 12;
#X connect 0 0 1 0;
#X connect 0 0 2 0;
#X connect 1 0 5 0;
#X connect 2 0 5 1;
#X connect 4 0 7 0;
#X connect 5 0 4 0;
#X connect 6 0 0 0;
#X restore 891 516 pd tempo2sysex;
#X obj 750 403 realtime;
#X obj 893 302 loadbang;
#X obj 730 574 int;
#X connect 0 0 1 0;
#X connect 0 0 3 0;
#X connect 0 0 17 0;
#X connect 3 0 2 0;
#X connect 4 0 6 0;
#X connect 5 0 0 0;
#X connect 6 0 5 0;
#X connect 7 0 8 0;
#X connect 8 0 6 1;
#X connect 9 0 7 0;
#X connect 10 0 12 0;
#X connect 11 0 13 0;
#X connect 12 0 11 0;
#X connect 12 0 15 0;
#X connect 13 0 14 0;
#X connect 13 0 19 0;
#X connect 14 0 9 0;
#X connect 15 0 16 0;
#X connect 15 0 19 1;
#X connect 16 0 4 0;
#X connect 19 0 18 0;
#X connect 21 0 10 0;
#X connect 23 0 42 0;
#X connect 23 0 24 0;
#X connect 24 0 26 0;
#X connect 26 0 27 0;
#X connect 26 0 43 0;
#X connect 27 0 28 0;
#X connect 29 0 24 0;
#X connect 29 0 23 0;
#X connect 30 0 41 0;
#X connect 31 0 32 0;
#X connect 31 1 30 1;
#X connect 32 0 30 0;
#X connect 33 0 34 0;
#X connect 34 0 36 0;
#X connect 35 0 44 1;
#X connect 35 0 44 0;
#X connect 36 0 35 0;
#X connect 37 0 39 0;
#X connect 38 0 41 1;
#X connect 39 0 41 1;
#X connect 40 0 39 0;
#X connect 41 0 46 0;
#X connect 42 0 37 0;
#X connect 42 1 38 0;
#X connect 42 1 40 0;
#X connect 43 0 25 0;
#X connect 44 0 31 0;
#X connect 45 0 23 0;
#X connect 46 0 29 0;
