#N canvas 827 239 527 327 12;
#X obj 330 221 knob 75 30 300 0 120 empty empty #191919 #696969 #e1e1e1 1 0 0 0 1 270 0 0 30;
#X floatatom 330 328 11 0 0 0 tempo - - 16;
#X obj 330 437 midiout;
#N canvas 2929 1407 460 501 midi_throttle 0;
#X obj 91 128 change;
#X obj 91 352 f, f 11;
#X obj 91 396 change;
#X obj 91 299 onebang, f 25;
#X obj 189 223 counter 0 0 1;
#X obj 189 255 sel 1;
#X obj 91 160 t b f;
#X obj 167 122 loadbang;
#X msg 167 151 1;
#X obj 163 180 metro 100;
#X obj 91 51 inlet;
#X obj 91 434 outlet;
#X text 336 232 prevents overwhelming hardware with MIDI messages, f 15;
#X connect 0 0 6 0;
#X connect 1 0 2 0;
#X connect 2 0 11 0;
#X connect 3 0 1 0;
#X connect 4 0 5 0;
#X connect 5 0 3 1;
#X connect 6 0 3 0;
#X connect 6 1 1 1;
#X connect 7 0 8 0;
#X connect 8 0 9 0;
#X connect 9 0 1 0;
#X connect 9 0 4 0;
#X connect 10 0 0 0;
#X restore 329 369 pd midi_throttle;
#X msg 247 405 tempo \$1;
#X obj 252 437 s to-mcl;
#X msg 170 497 set \$1;
#X obj 184 391 /;
#X obj 185 328 t b f;
#X msg 163 360 60000;
#X obj 189 153 midirealtimein;
#X obj 189 187 sel 248;
#X obj 189 251 sel 0;
#X obj 189 221 counter 0 0 23;
#X msg 451 353 1;
#X msg 537 355 0;
#X obj 449 388 pipe 500;
#X msg 485 354 clear;
#X obj 170 428 spigot;
#X obj 452 319 t;
#N canvas 2504 1527 425 312 tempo2sysex 0;
#X obj 65 111 expr round($f1 * 24);
#X obj 65 145 expr ($f1 >> 7) & 0x7F;
#X obj 241 147 expr $f1 & 0x7F;
#X text 129 234 sysex IN to MD requires MCL: USB FWD: 1, f 22;
#X msg 65 212 240 0 32 60 2 0 97 \$1 \$2 247;
#X obj 66 181 pack f f;
#X obj 62 72 inlet;
#X obj 67 245 outlet;
#X text 272 80 stores bpm in 14 bit MIDI value, f 12;
#X connect 0 0 1 0;
#X connect 0 0 2 0;
#X connect 1 0 5 0;
#X connect 2 0 5 1;
#X connect 4 0 7 0;
#X connect 5 0 4 0;
#X connect 6 0 0 0;
#X restore 331 404 pd tempo2sysex;
#X obj 190 291 realtime;
#X obj 333 190 loadbang;
#X obj 170 462 int;
#X connect 0 0 19 0;
#X connect 0 0 1 0;
#X connect 1 0 3 0;
#X connect 3 0 4 0;
#X connect 3 0 20 0;
#X connect 4 0 5 0;
#X connect 6 0 1 0;
#X connect 6 0 0 0;
#X connect 7 0 18 0;
#X connect 8 0 9 0;
#X connect 8 1 7 1;
#X connect 9 0 7 0;
#X connect 10 0 11 0;
#X connect 11 0 13 0;
#X connect 12 0 21 1;
#X connect 12 0 21 0;
#X connect 13 0 12 0;
#X connect 14 0 16 0;
#X connect 15 0 18 1;
#X connect 16 0 18 1;
#X connect 17 0 16 0;
#X connect 18 0 23 0;
#X connect 19 0 14 0;
#X connect 19 1 15 0;
#X connect 19 1 17 0;
#X connect 20 0 2 0;
#X connect 21 0 8 0;
#X connect 22 0 0 0;
#X connect 23 0 6 0;
