#N canvas 1675 1046 1282 793 12;
#X obj 225 52 inlet;
#X msg 229 127 set \$1;
#X floatatom 229 92 5 0 11 1 button\ id - - 0;
#X obj 365 210 sel 1;
#X obj 387 238 b;
#X msg 369 417 240 0 32 107 127 66 2 2 22 \$1 \$2 \$3 \$4 247;
#X msg 386 304 0 0 0;
#X obj 365 381 prepend 4;
#X text 765 52 set button colours (rgb);
#X obj 358 341 list-apply / 2;
#X obj 82 94 tosymbol;
#X obj 84 126 sel clear;
#X obj 81 61 inlet;
#X msg 58 392 0 \, 1 \, 2 \, 3 \, 4 \, 5 \, 6 \, 7 \, 8 \, 9 \, 10 \, 11;
#X msg 59 427 240 0 32 107 127 66 2 2 22 \$1 0 0 0 247;
#X obj 350 170 fromsymbol;
#X obj 452 78 inlet;
#X msg 450 184 255 0 0;
#X msg 517 186 255 128 0;
#X msg 597 186 255 255 0;
#X msg 678 184 0 255 0;
#X msg 748 183 0 255 255;
#X msg 824 182 0 0 255;
#X obj 450 108 tosymbol;
#X msg 975 181 255 255 255;
#X obj 367 274 list;
#X msg 889 181 128 0 225;
#X obj 453 141 sel red orange yellow green cyan blue purple white;
#X text 450 47 colour (word);
#X text 206 32 btn (0-11);
#X text 26 40 on/off (0/1) or 'clear';
#X obj 152 552 prepend 4;
#X msg 154 519 set \$1;
#X msg 99 516 0 0 0;
#X obj 150 472 t b f, f 6;
#X obj 835 78 inlet;
#X obj 831 114 list-apply * 2;
#X obj 369 453 midiout 3;
#X obj 59 464 midiout 3;
#X obj 125 348 r midich_ctl;
#X obj 366 565 == 0;
#X obj 288 615 spigot 1;
#X obj 289 653 s ctl.ml3_colour_store_\$1;
#X obj 366 538 loadmess \$2;
#X text 391 589 2nd arg = 1 means colours will not be stored;
#X connect 0 0 2 0;
#X connect 1 0 7 0;
#X connect 2 0 1 0;
#X connect 3 0 25 0;
#X connect 3 1 4 0;
#X connect 4 0 6 0;
#X connect 5 0 37 0;
#X connect 6 0 7 0;
#X connect 7 0 5 0;
#X connect 7 0 41 0;
#X connect 9 0 7 0;
#X connect 10 0 11 0;
#X connect 11 0 13 0;
#X connect 11 1 15 0;
#X connect 12 0 10 0;
#X connect 13 0 14 0;
#X connect 13 0 34 0;
#X connect 14 0 38 0;
#X connect 15 0 3 0;
#X connect 16 0 23 0;
#X connect 17 0 25 1;
#X connect 18 0 25 1;
#X connect 19 0 25 1;
#X connect 20 0 25 1;
#X connect 21 0 25 1;
#X connect 22 0 25 1;
#X connect 23 0 27 0;
#X connect 24 0 25 1;
#X connect 25 0 9 0;
#X connect 26 0 25 1;
#X connect 27 0 17 0;
#X connect 27 1 18 0;
#X connect 27 2 19 0;
#X connect 27 3 20 0;
#X connect 27 4 21 0;
#X connect 27 5 22 0;
#X connect 27 6 26 0;
#X connect 27 7 24 0;
#X connect 31 0 41 0;
#X connect 32 0 31 0;
#X connect 33 0 31 0;
#X connect 34 0 33 0;
#X connect 34 1 32 0;
#X connect 35 0 36 0;
#X connect 36 0 25 1;
#X connect 39 0 38 1;
#X connect 39 0 37 1;
#X connect 40 0 41 1;
#X connect 41 0 42 0;
#X connect 43 0 40 0;
