#N canvas 1675 1046 1282 793 12;
#X obj 225 52 inlet;
#X floatatom 229 92 5 0 11 1 button\ id - - 0;
#X obj 365 210 sel 1;
#X obj 387 238 b;
#X msg 369 417 240 0 32 107 127 66 2 2 22 \$1 \$2 \$3 \$4 247;
#X msg 386 304 0 0 0;
#X obj 365 381 prepend 4;
#X obj 82 94 tosymbol;
#X obj 81 61 inlet;
#X msg 58 392 0 \, 1 \, 2 \, 3 \, 4 \, 5 \, 6 \, 7 \, 8 \, 9 \, 10 \, 11;
#X msg 59 427 240 0 32 107 127 66 2 2 22 \$1 0 0 0 247;
#X obj 350 170 fromsymbol;
#X obj 452 78 inlet;
#X msg 450 184 255 0 0;
#X msg 517 186 255 128 0;
#X msg 597 186 255 255 0;
#X msg 678 184 0 255 0;
#X msg 748 183 0 255 255;
#X msg 824 182 0 0 255;
#X obj 450 108 tosymbol;
#X msg 975 181 255 255 255;
#X obj 367 274 list;
#X msg 889 181 128 0 225;
#X obj 453 141 sel red orange yellow green cyan blue purple white;
#X text 450 47 colour (word);
#X text 206 32 btn (0-11);
#X text 26 40 on/off (0/1) or 'clear';
#X obj 152 552 prepend 4;
#X msg 99 516 0 0 0;
#X obj 150 472 t b f, f 6;
#X obj 125 348 r midich_ctl;
#X obj 366 565 == 0;
#X obj 288 615 spigot 1;
#X obj 289 653 s ctl.ml3_colour_store_\$1;
#X obj 366 538 loadmess \$2;
#X text 391 589 2nd arg = 1 means colours will not be stored;
#X obj 831 65 inlet;
#X obj 367 341 rgb2midi;
#X obj 831 108 midi2rgb;
#X msg 229 126 set \$1;
#X msg 160 516 set \$1;
#X obj 775 505 router 12;
#X obj 785 437 prepend bgcolor;
#X obj 856 560 s pdctl.arp__;
#X obj 757 560 s pdctl.shift__;
#X obj 856 589 s pdctl.pad__;
#X obj 945 560 s pdctl.prog__;
#X obj 945 589 s pdctl.loop__;
#X obj 1048 560 s pdctl.stop__;
#X obj 1048 589 s pdctl.play__;
#X obj 1152 560 s pdctl.record__;
#X obj 1152 589 s pdctl.tap__;
#X obj 706 409 routetype bang;
#X obj 84 126 sel clear clear_local;
#X msg 92 313 0 \, 1 \, 2 \, 3 \, 6 \, 7 \, 8 \, 9 \, 10 \, 11;
#X obj 59 464 midiout 33;
#X obj 369 453 midiout 33;
#X connect 0 0 1 0;
#X connect 1 0 39 0;
#X connect 1 0 41 1;
#X connect 2 0 21 0;
#X connect 2 1 3 0;
#X connect 3 0 5 0;
#X connect 4 0 56 0;
#X connect 5 0 6 0;
#X connect 5 0 52 0;
#X connect 6 0 4 0;
#X connect 6 0 32 0;
#X connect 7 0 53 0;
#X connect 8 0 7 0;
#X connect 9 0 10 0;
#X connect 9 0 29 0;
#X connect 10 0 55 0;
#X connect 11 0 2 0;
#X connect 12 0 19 0;
#X connect 13 0 21 1;
#X connect 14 0 21 1;
#X connect 15 0 21 1;
#X connect 16 0 21 1;
#X connect 17 0 21 1;
#X connect 18 0 21 1;
#X connect 19 0 23 0;
#X connect 20 0 21 1;
#X connect 21 0 37 0;
#X connect 21 0 52 0;
#X connect 22 0 21 1;
#X connect 23 0 13 0;
#X connect 23 1 14 0;
#X connect 23 2 15 0;
#X connect 23 3 16 0;
#X connect 23 4 17 0;
#X connect 23 5 18 0;
#X connect 23 6 22 0;
#X connect 23 7 20 0;
#X connect 27 0 32 0;
#X connect 28 0 27 0;
#X connect 28 0 52 0;
#X connect 29 0 28 0;
#X connect 29 1 40 0;
#X connect 29 1 41 1;
#X connect 30 0 55 1;
#X connect 30 0 56 1;
#X connect 31 0 32 1;
#X connect 32 0 33 0;
#X connect 34 0 31 0;
#X connect 36 0 38 0;
#X connect 37 0 6 0;
#X connect 38 0 21 1;
#X connect 39 0 6 0;
#X connect 40 0 27 0;
#X connect 41 0 44 0;
#X connect 41 4 43 0;
#X connect 41 5 45 0;
#X connect 41 6 46 0;
#X connect 41 7 47 0;
#X connect 41 8 48 0;
#X connect 41 9 49 0;
#X connect 41 10 50 0;
#X connect 41 11 51 0;
#X connect 42 0 41 0;
#X connect 52 1 42 0;
#X connect 53 0 9 0;
#X connect 53 1 54 0;
#X connect 53 2 11 0;
#X connect 54 0 10 0;
#X connect 54 0 29 0;
