#N canvas 1926 1151 1063 538 12;
#X obj 173 185 route 0 1 2 3 4 5 6 7 8 9 10 11;
#X obj 420 206 bng 20 250 50 0 empty empty empty 0 -10 0 12 #fcfcfc #000000 #000000;
#X obj 165 250 list;
#X obj 214 248 list;
#X obj 259 248 list;
#X obj 303 245 list;
#X obj 243 287 list;
#X obj 287 287 list;
#X obj 331 289 list;
#X obj 374 291 list;
#X msg 130 462 1;
#X obj 169 460 f;
#X msg 222 408 4;
#X obj 135 411 t b b l, f 8;
#X obj 184 365 t l b;
#X obj 240 365 t l b;
#X obj 299 364 t l b;
#X obj 355 364 t l b;
#X obj 414 362 t l b;
#X obj 470 362 t l b;
#X obj 529 361 t l b;
#X obj 585 361 t l b;
#X msg 278 408 5;
#X msg 337 407 6;
#X msg 393 407 7;
#X msg 452 405 8;
#X msg 508 405 9;
#X msg 567 404 10;
#X msg 623 404 11;
#X text 268 117 preserve pad colour states through shift presses, f 22;
#X obj 473 200 sel 127;
#X obj 473 273 tgl 20 0 empty empty empty 0 -10 0 12 #fcfcfc #000000 #000000 0 1;
#X msg 468 231 1;
#X text 489 136 shift;
#X obj 519 238 b;
#X obj 475 166 ctl.in 27 33;
#X obj 552 138 r midich_ml3;
#X obj 179 87 r ctl.ml3_colour_store_\$1;
#X obj 448 109 r ctl.load_clrstore_\$1;
#X obj 552 204 s ctl.load_clrstore_\$1;
#X obj 133 498 clr \$1, f 12;
#X connect 0 4 2 1;
#X connect 0 5 3 1;
#X connect 0 6 4 1;
#X connect 0 7 5 1;
#X connect 0 8 6 1;
#X connect 0 9 7 1;
#X connect 0 10 8 1;
#X connect 0 11 9 1;
#X connect 1 0 3 0;
#X connect 1 0 4 0;
#X connect 1 0 5 0;
#X connect 1 0 6 0;
#X connect 1 0 7 0;
#X connect 1 0 8 0;
#X connect 1 0 9 0;
#X connect 1 0 2 0;
#X connect 2 0 14 0;
#X connect 3 0 15 0;
#X connect 4 0 16 0;
#X connect 5 0 17 0;
#X connect 6 0 18 0;
#X connect 7 0 19 0;
#X connect 8 0 20 0;
#X connect 9 0 21 0;
#X connect 10 0 40 0;
#X connect 11 0 40 1;
#X connect 12 0 11 1;
#X connect 13 0 10 0;
#X connect 13 1 11 0;
#X connect 13 2 40 3;
#X connect 14 0 13 0;
#X connect 14 1 12 0;
#X connect 15 0 13 0;
#X connect 15 1 22 0;
#X connect 16 0 13 0;
#X connect 16 1 23 0;
#X connect 17 0 13 0;
#X connect 17 1 24 0;
#X connect 18 0 13 0;
#X connect 18 1 25 0;
#X connect 19 0 13 0;
#X connect 19 1 26 0;
#X connect 20 0 13 0;
#X connect 20 1 27 0;
#X connect 21 0 13 0;
#X connect 21 1 28 0;
#X connect 22 0 11 1;
#X connect 23 0 11 1;
#X connect 24 0 11 1;
#X connect 25 0 11 1;
#X connect 26 0 11 1;
#X connect 27 0 11 1;
#X connect 28 0 11 1;
#X connect 30 0 32 0;
#X connect 30 1 31 0;
#X connect 30 1 34 0;
#X connect 32 0 31 0;
#X connect 35 0 30 0;
#X connect 35 0 39 0;
#X connect 36 0 35 2;
#X connect 37 0 0 0;
#X connect 38 0 1 0;
