#N canvas 1926 1151 1063 538 12;
#X obj 173 185 route 0 1 2 3 4 5 6 7 8 9 10 11;
#X obj 420 206 bng 20 250 50 0 empty empty empty 0 -10 0 12 #fcfcfc #000000 #000000;
#X obj 259 248 list;
#X obj 303 245 list;
#X obj 243 287 list;
#X obj 287 287 list;
#X obj 331 289 list;
#X obj 374 291 list;
#X msg 130 462 1;
#X obj 169 460 f;
#X obj 135 411 t b b l, f 8;
#X obj 299 364 t l b;
#X obj 355 364 t l b;
#X obj 414 362 t l b;
#X obj 470 362 t l b;
#X obj 529 361 t l b;
#X obj 585 361 t l b;
#X msg 337 407 6;
#X msg 393 407 7;
#X msg 452 405 8;
#X msg 508 405 9;
#X msg 567 404 10;
#X msg 623 404 11;
#X text 268 117 preserve pad colour states through shift presses, f 22;
#X obj 179 87 r ctl.ml3_colour_store_\$1;
#X obj 448 109 r ctl.load_clrstore_\$1;
#X obj 127 532 clr \$1, f 12;
#X obj 214 481 route bang;
#X connect 0 6 2 1;
#X connect 0 7 3 1;
#X connect 0 8 4 1;
#X connect 0 9 5 1;
#X connect 0 10 6 1;
#X connect 0 11 7 1;
#X connect 1 0 2 0;
#X connect 1 0 3 0;
#X connect 1 0 4 0;
#X connect 1 0 5 0;
#X connect 1 0 6 0;
#X connect 1 0 7 0;
#X connect 2 0 11 0;
#X connect 3 0 12 0;
#X connect 4 0 13 0;
#X connect 5 0 14 0;
#X connect 6 0 15 0;
#X connect 7 0 16 0;
#X connect 8 0 26 0;
#X connect 9 0 26 1;
#X connect 10 0 8 0;
#X connect 10 1 9 0;
#X connect 10 2 27 0;
#X connect 11 0 10 0;
#X connect 11 1 17 0;
#X connect 12 0 10 0;
#X connect 12 1 18 0;
#X connect 13 0 10 0;
#X connect 13 1 19 0;
#X connect 14 0 10 0;
#X connect 14 1 20 0;
#X connect 15 0 10 0;
#X connect 15 1 21 0;
#X connect 16 0 10 0;
#X connect 16 1 22 0;
#X connect 17 0 9 1;
#X connect 18 0 9 1;
#X connect 19 0 9 1;
#X connect 20 0 9 1;
#X connect 21 0 9 1;
#X connect 22 0 9 1;
#X connect 24 0 0 0;
#X connect 25 0 1 0;
#X connect 27 1 26 3;
