#N canvas 827 239 734 565 12;
#X obj 208 174 r midich_mnm_notes;
#X obj 208 206 - 8;
#X obj 245 206 - 7;
#X obj 282 206 - 6;
#X obj 320 206 - 5;
#X obj 357 206 - 4;
#X obj 395 206 - 3;
#X obj 105 132 i;
#X obj 105 70 inlet;
#X obj 137 277 ctlout \$1;
#X obj 137 309 ctlout \$1;
#X obj 137 343 ctlout \$1;
#X obj 214 343 ctlout \$1;
#X obj 214 277 ctlout \$1;
#X obj 214 309 ctlout \$1;
#X connect 0 0 1 0;
#X connect 0 0 2 0;
#X connect 0 0 3 0;
#X connect 0 0 4 0;
#X connect 0 0 5 0;
#X connect 0 0 6 0;
#X connect 1 0 9 2;
#X connect 2 0 10 2;
#X connect 3 0 11 2;
#X connect 4 0 13 2;
#X connect 5 0 14 2;
#X connect 6 0 12 2;
#X connect 7 0 9 0;
#X connect 7 0 10 0;
#X connect 7 0 11 0;
#X connect 7 0 12 0;
#X connect 7 0 13 0;
#X connect 7 0 14 0;
#X connect 8 0 7 0;
