#N canvas 733 172 450 300 flash_a_lot 1;
#X obj 809 455 del 50;
#X obj 808 493 del 50;
#X obj 805 529 del 50;
#X obj 866 458 del 50;
#X obj 865 496 del 50;
#X obj 862 532 del 50;
#X msg 770 483 0;
#X obj 830 578 tgl 25 0 empty empty empty 17 7 0 10 #191919 #e1e1e1 #e1e1e1 0 1;
#X obj 810 418 inlet;
#X obj 787 621 outlet;
#X connect 0 0 3 0;
#X connect 0 0 6 0;
#X connect 1 0 4 0;
#X connect 1 0 7 0;
#X connect 2 0 5 0;
#X connect 2 0 7 0;
#X connect 3 0 1 0;
#X connect 3 0 7 0;
#X connect 4 0 2 0;
#X connect 4 0 7 0;
#X connect 5 0 7 0;
#X connect 6 0 7 0;
#X connect 7 0 9 0;
#X connect 8 0 0 0;
