#N canvas 827 239 527 327 12;
#X obj 944 690 r scmgr.NumberOfGlobalSettings;
#X obj 826 864 s scmgr.GlobalSettingsSelection;
#X obj 568 178 r scmgr.GlobalSettingsSelectionName;
#X obj 566 387 s midich_ctl_learn;
#X obj 576 270 symbol;
#X obj 567 209 tosymbol;
#X obj 503 258 spigot 0;
#X obj 459 385 tosymbol;
#X obj 459 451 s scmgr.temp;
#X obj 459 420 prepend temp_simple;
#X obj 609 431 r midich_ml3;
#X obj 608 469 once;
#X msg 458 355 press ML3 > Shift;
#X obj 764 466 once;
#X obj 697 385 s midich_ctlpads_learn;
#X msg 727 353 press ML3 pad;
#X obj 763 422 r midich_ml3_pads;
#X msg 520 502 ml3 ctl: ch\$1;
#X msg 765 501 ml3 pads: ch\$1;
#X text 648 102 probably badly implemented for now idk it works;
#X obj 680 228 r scmgr.GlobalSettingsDo;
#X obj 663 264 tosymbol;
#X obj 1326 550 tosymbol;
#X obj 1326 616 s scmgr.temp;
#X msg 1325 520 set MNM midi ch;
#X obj 827 786 spigot 0;
#X msg 1259 448 0;
#X obj 1326 585 prepend temp_param;
#X obj 1312 848 s midich_mnm_set;
#X obj 1302 758 spigot 0;
#X msg 1287 446 1;
#X msg 1465 771 0;
#X obj 1460 726 bng 25 250 50 0 empty empty empty 17 7 0 10 #191919 #e1e1e1 #e1e1e1;
#X obj 1461 692 r scmgr.current_screen;
#X obj 1267 874 s scmgr.temp_param.val;
#X obj 774 695 in 28, f 13;
#X obj 1293 657 in 28, f 13;
#X obj 828 737 incrementer 0 10;
#X obj 1728 556 tosymbol;
#X obj 1728 622 s scmgr.temp;
#X obj 1728 591 prepend temp_param;
#X obj 1704 764 spigot 0;
#X msg 1867 777 0;
#X obj 1862 732 bng 25 250 50 0 empty empty empty 17 7 0 10 #191919 #e1e1e1 #e1e1e1;
#X obj 1863 698 r scmgr.current_screen;
#X obj 1666 880 s scmgr.temp_param.val;
#X obj 1654 668 in 28, f 13;
#X msg 1727 526 set MD midi ch;
#X obj 1696 850 s midich_md_set;
#X msg 1661 444 0;
#X msg 1691 452 1;
#X obj 1445 819 r midich_mnm_pgm;
#X obj 1758 808 r midich_md_pgm;
#X obj 1301 805 i;
#X obj 1694 811 i;
#X obj 1646 404 t b b b b;
#X obj 1244 408 t b b b b;
#X obj 2524 566 tosymbol;
#X obj 2524 632 s scmgr.temp;
#X obj 2524 601 prepend temp_param;
#X obj 2500 774 spigot 0;
#X msg 2663 787 0;
#X obj 2658 742 bng 25 250 50 0 empty empty empty 17 7 0 10 #191919 #e1e1e1 #e1e1e1;
#X obj 2659 708 r scmgr.current_screen;
#X obj 2462 890 s scmgr.temp_param.val;
#X obj 2450 678 in 28, f 13;
#X obj 2490 821 i;
#X msg 2523 536 set MD midi note ch;
#X obj 2554 818 r midich_md_notes;
#X obj 2106 560 tosymbol;
#X obj 2106 626 s scmgr.temp;
#X obj 2106 595 prepend temp_param;
#X obj 2082 768 spigot 0;
#X msg 2245 781 0;
#X obj 2240 736 bng 25 250 50 0 empty empty empty 17 7 0 10 #191919 #e1e1e1 #e1e1e1;
#X obj 2241 702 r scmgr.current_screen;
#X obj 2047 884 s scmgr.temp_param.val;
#X obj 2073 667 in 28, f 13;
#X obj 2081 815 i;
#X msg 2105 530 set MNM midi notes ch;
#X obj 2159 820 r midich_mnm_notes;
#X obj 2074 854 s midich_mnm_notes_set;
#X obj 2492 860 s midich_md_notes_set;
#X obj 2094 709 incrementer 0 128;
#X obj 1716 705 incrementer 0 128;
#X obj 1314 699 incrementer 0 128;
#X obj 2512 715 incrementer 0 128;
#X msg 2063 475 0;
#X msg 2092 477 1;
#X obj 2033 434 t b b b b;
#X msg 2496 478 0;
#X msg 2526 486 1;
#X obj 2481 438 t b b b b;
#X text 1787 342 i can probably make this its own object but cba for now;
#X obj 826 823 i;
#X obj 769 751 sel 1;
#X obj 367 302 r scmgr.ML3ShiftNotif;
#X obj 369 333 bng 25 250 50 0 empty empty empty 17 7 0 10 #191919 #e1e1e1 #e1e1e1;
#X obj 973 358 tgl 25 0 empty empty empty 17 7 0 10 #191919 #e1e1e1 #e1e1e1 0 1;
#X obj 974 327 bng 25 250 50 0 empty empty empty 17 7 0 10 #191919 #e1e1e1 #e1e1e1;
#X obj 971 390 sel 0 1;
#X obj 923 513 tosymbol;
#X obj 923 579 s scmgr.temp;
#X obj 923 548 prepend temp_simple;
#X msg 922 483 defaults=PROD;
#X msg 1087 480 defaults=DEV;
#X obj 465 207 r ctl.yes;
#X obj 68 54 r scmgr.current_screen;
#X obj 67 86 == 4;
#X obj 68 121 s global_settings.focus;
#X obj 713 656 r global_settings.focus;
#X obj 511 148 r global_settings.focus;
#X obj 223 105 sel 1;
#X obj 226 74 change;
#X obj 297 64 clrstore 4;
#X obj 226 153 s ctl.load_clrstore_4;
#X msg 405 102 clear;
#X obj 233 129 t;
#X obj 402 137 clr 4 1;
#X obj 95 254 ctl.in 27 33;
#X obj 172 226 r midich_ml3;
#X text 70 225 shift reloads clr;
#X obj 93 299 spigot 0, f 12;
#X obj 183 262 r global_settings.focus;
#X obj 86 346 s ctl.load_clrstore_4;
#X obj 135 423 loadbang;
#X msg 135 448 clear;
#X obj 132 483 clr 4;
#X obj 892 433 s env_prod_defaults_set;
#X obj 1070 432 s env_dev_defaults_set;
#X obj 1040 372 s mset_manager.RepopAndReload;
#X obj 572 299 sel ml3.midich ml3.midich.pads env.defaults.tog mnm.midich.pgm md.midich.pgm mnm.midich.notes md.midich.notes cc.tempo.tog, f 372;
#X obj 2828 379 tgl 25 0 empty empty empty 17 7 0 10 #191919 #e1e1e1 #e1e1e1 0 1;
#X obj 2829 348 bng 25 250 50 0 empty empty empty 17 7 0 10 #191919 #e1e1e1 #e1e1e1;
#X obj 2684 454 tosymbol;
#X obj 2684 520 s scmgr.temp;
#X obj 2684 489 prepend temp_simple;
#X obj 2794 455 s cc_tempo_tog;
#X connect 0 0 37 2;
#X connect 2 0 5 0;
#X connect 4 0 131 0;
#X connect 5 0 4 1;
#X connect 6 0 4 0;
#X connect 7 0 9 0;
#X connect 9 0 8 0;
#X connect 10 0 11 0;
#X connect 11 0 17 0;
#X connect 12 0 7 0;
#X connect 13 0 18 0;
#X connect 15 0 7 0;
#X connect 16 0 13 0;
#X connect 17 0 7 0;
#X connect 18 0 7 0;
#X connect 20 0 21 0;
#X connect 21 0 131 0;
#X connect 22 0 27 0;
#X connect 24 0 22 0;
#X connect 25 0 94 0;
#X connect 26 0 25 1;
#X connect 27 0 23 0;
#X connect 29 0 53 0;
#X connect 30 0 29 1;
#X connect 31 0 29 1;
#X connect 32 0 31 0;
#X connect 33 0 32 0;
#X connect 35 3 37 0;
#X connect 36 2 85 0;
#X connect 37 0 25 0;
#X connect 38 0 40 0;
#X connect 40 0 39 0;
#X connect 41 0 54 0;
#X connect 42 0 41 1;
#X connect 43 0 42 0;
#X connect 44 0 43 0;
#X connect 46 2 84 0;
#X connect 47 0 38 0;
#X connect 49 0 25 1;
#X connect 50 0 41 1;
#X connect 51 0 53 1;
#X connect 52 0 54 1;
#X connect 53 0 28 0;
#X connect 53 0 34 0;
#X connect 54 0 48 0;
#X connect 54 0 45 0;
#X connect 55 0 54 0;
#X connect 55 1 47 0;
#X connect 55 2 49 0;
#X connect 55 3 50 0;
#X connect 56 0 53 0;
#X connect 56 1 24 0;
#X connect 56 2 30 0;
#X connect 56 3 26 0;
#X connect 57 0 59 0;
#X connect 59 0 58 0;
#X connect 60 0 66 0;
#X connect 61 0 60 1;
#X connect 62 0 61 0;
#X connect 63 0 62 0;
#X connect 65 2 86 0;
#X connect 66 0 64 0;
#X connect 66 0 82 0;
#X connect 67 0 57 0;
#X connect 68 0 66 1;
#X connect 69 0 71 0;
#X connect 71 0 70 0;
#X connect 72 0 78 0;
#X connect 73 0 72 1;
#X connect 74 0 73 0;
#X connect 75 0 74 0;
#X connect 77 2 83 0;
#X connect 78 0 76 0;
#X connect 78 0 81 0;
#X connect 79 0 69 0;
#X connect 80 0 78 1;
#X connect 83 0 72 0;
#X connect 84 0 41 0;
#X connect 85 0 29 0;
#X connect 86 0 60 0;
#X connect 87 0 25 1;
#X connect 88 0 72 1;
#X connect 89 0 78 0;
#X connect 89 1 79 0;
#X connect 89 2 87 0;
#X connect 89 3 88 0;
#X connect 90 0 25 1;
#X connect 91 0 60 1;
#X connect 92 0 66 0;
#X connect 92 1 67 0;
#X connect 92 2 90 0;
#X connect 92 3 91 0;
#X connect 94 0 1 0;
#X connect 95 0 94 0;
#X connect 96 0 97 0;
#X connect 97 0 12 0;
#X connect 98 0 100 0;
#X connect 99 0 98 0;
#X connect 99 0 130 0;
#X connect 100 0 104 0;
#X connect 100 0 128 0;
#X connect 100 1 105 0;
#X connect 100 1 129 0;
#X connect 101 0 103 0;
#X connect 103 0 102 0;
#X connect 104 0 101 0;
#X connect 105 0 101 0;
#X connect 106 0 6 0;
#X connect 107 0 108 0;
#X connect 108 0 109 0;
#X connect 108 0 113 0;
#X connect 110 0 95 0;
#X connect 110 0 25 1;
#X connect 111 0 6 1;
#X connect 112 0 117 0;
#X connect 113 0 112 0;
#X connect 116 0 118 0;
#X connect 117 0 115 0;
#X connect 117 1 116 0;
#X connect 119 0 122 0;
#X connect 120 0 119 2;
#X connect 122 0 124 0;
#X connect 123 0 122 1;
#X connect 125 0 126 0;
#X connect 126 0 127 0;
#X connect 131 0 3 0;
#X connect 131 0 12 0;
#X connect 131 0 11 1;
#X connect 131 1 14 0;
#X connect 131 1 13 1;
#X connect 131 1 15 0;
#X connect 131 2 99 0;
#X connect 131 3 56 0;
#X connect 131 4 55 0;
#X connect 131 5 89 0;
#X connect 131 6 92 0;
#X connect 131 7 133 0;
#X connect 132 0 134 0;
#X connect 132 0 137 0;
#X connect 133 0 132 0;
#X connect 134 0 136 0;
#X connect 136 0 135 0;
