#N canvas 827 239 527 327 12;
#X obj 1028 720 r scmgr.NumberOfGlobalSettings;
#X obj 910 894 s scmgr.GlobalSettingsSelection;
#X obj 568 178 r scmgr.GlobalSettingsSelectionName;
#X obj 576 270 symbol;
#X obj 567 209 tosymbol;
#X obj 503 258 spigot 0;
#X text 648 101 probably badly implemented for now idk it works;
#X obj 680 228 r scmgr.GlobalSettingsDo;
#X obj 663 264 tosymbol;
#X obj 1326 550 tosymbol;
#X obj 1326 616 s scmgr.temp;
#X msg 1325 520 set MNM midi ch;
#X obj 911 816 spigot 0;
#X msg 1259 448 0;
#X obj 1326 585 prepend temp_param;
#X obj 1312 848 s midich_mnm_set;
#X obj 1302 758 spigot 0;
#X msg 1287 446 1;
#X msg 1465 771 0;
#X obj 1460 726 bng 25 250 50 0 empty empty empty 17 7 0 10 #191919 #e1e1e1 #e1e1e1;
#X obj 1461 692 r scmgr.current_screen;
#X obj 1267 874 s scmgr.temp_param.val;
#X obj 858 725 in 28, f 13;
#X obj 1293 657 in 28, f 13;
#X obj 912 767 incrementer 0 10;
#X obj 1728 556 tosymbol;
#X obj 1728 622 s scmgr.temp;
#X obj 1728 591 prepend temp_param;
#X obj 1704 764 spigot 0;
#X msg 1867 777 0;
#X obj 1862 732 bng 25 250 50 0 empty empty empty 17 7 0 10 #191919 #e1e1e1 #e1e1e1;
#X obj 1863 698 r scmgr.current_screen;
#X obj 1666 880 s scmgr.temp_param.val;
#X obj 1654 668 in 28, f 13;
#X msg 1727 526 set MD midi ch;
#X obj 1696 850 s midich_md_set;
#X msg 1661 444 0;
#X msg 1691 452 1;
#X obj 1445 819 r midich_mnm_pgm;
#X obj 1758 808 r midich_md_pgm;
#X obj 1301 805 i;
#X obj 1694 811 i;
#X obj 1646 404 t b b b b;
#X obj 1244 408 t b b b b;
#X obj 2524 566 tosymbol;
#X obj 2524 632 s scmgr.temp;
#X obj 2524 601 prepend temp_param;
#X obj 2500 774 spigot 0;
#X msg 2663 787 0;
#X obj 2658 742 bng 25 250 50 0 empty empty empty 17 7 0 10 #191919 #e1e1e1 #e1e1e1;
#X obj 2659 708 r scmgr.current_screen;
#X obj 2462 890 s scmgr.temp_param.val;
#X obj 2450 678 in 28, f 13;
#X obj 2490 821 i;
#X msg 2523 536 set MD midi note ch;
#X obj 2554 818 r midich_md_notes;
#X obj 2106 560 tosymbol;
#X obj 2106 626 s scmgr.temp;
#X obj 2106 595 prepend temp_param;
#X obj 2082 768 spigot 0;
#X msg 2245 781 0;
#X obj 2240 736 bng 25 250 50 0 empty empty empty 17 7 0 10 #191919 #e1e1e1 #e1e1e1;
#X obj 2241 702 r scmgr.current_screen;
#X obj 2047 884 s scmgr.temp_param.val;
#X obj 2073 667 in 28, f 13;
#X obj 2081 815 i;
#X msg 2105 530 set MNM midi notes ch;
#X obj 2159 820 r midich_mnm_notes;
#X obj 2074 854 s midich_mnm_notes_set;
#X obj 2492 860 s midich_md_notes_set;
#X obj 2094 709 incrementer 0 128;
#X obj 1716 705 incrementer 0 128;
#X obj 1314 699 incrementer 0 128;
#X obj 2512 715 incrementer 0 128;
#X msg 2063 475 0;
#X msg 2092 477 1;
#X obj 2033 434 t b b b b;
#X msg 2496 478 0;
#X msg 2526 486 1;
#X obj 2481 438 t b b b b;
#X text 1787 341 i can probably make this its own object but cba for now;
#X obj 910 853 i;
#X obj 853 781 sel 1;
#X obj 896 365 tgl 25 0 empty empty empty 17 7 0 10 #191919 #e1e1e1 #e1e1e1 0 1;
#X obj 897 334 bng 25 250 50 0 empty empty empty 17 7 0 10 #191919 #e1e1e1 #e1e1e1;
#X obj 894 397 sel 0 1;
#X obj 846 520 tosymbol;
#X obj 846 586 s scmgr.temp;
#X obj 846 555 prepend temp_simple;
#X msg 845 490 defaults=PROD;
#X msg 1010 487 defaults=DEV;
#X obj 465 207 r ctl.yes;
#X obj 68 54 r scmgr.current_screen;
#X obj 67 86 == 4;
#X obj 68 121 s global_settings.focus;
#X obj 797 686 r global_settings.focus;
#X obj 511 148 r global_settings.focus;
#X obj 223 105 sel 1;
#X obj 226 74 change;
#X obj 297 64 clrstore 4;
#X obj 226 153 s ctl.load_clrstore_4;
#X msg 405 102 clear;
#X obj 233 129 t;
#X obj 402 137 clr 4 1;
#X obj 95 254 ctl.in 27 33;
#X obj 172 226 r midich_ml3;
#X text 70 224 shift reloads clr;
#X obj 93 299 spigot 0, f 12;
#X obj 183 262 r global_settings.focus;
#X obj 86 346 s ctl.load_clrstore_4;
#X obj 135 423 loadbang;
#X msg 135 448 clear;
#X obj 132 483 clr 4;
#X obj 815 440 s env_prod_defaults_set;
#X obj 993 439 s env_dev_defaults_set;
#X obj 963 379 s mset_manager.RepopAndReload;
#X obj 2900 500 tgl 25 0 empty empty empty 17 7 0 10 #191919 #e1e1e1 #e1e1e1 0 1;
#X obj 2901 469 bng 25 250 50 0 empty empty empty 17 7 0 10 #191919 #e1e1e1 #e1e1e1;
#X obj 2756 575 tosymbol;
#X obj 2756 641 s scmgr.temp;
#X obj 2756 610 prepend temp_simple;
#X obj 2866 576 s cc_tempo_tog;
#X obj 3086 565 tosymbol;
#X obj 3086 631 s scmgr.temp;
#X msg 3019 463 0;
#X obj 3086 600 prepend temp_param;
#X obj 3062 773 spigot 0;
#X msg 3047 461 1;
#X msg 3225 786 0;
#X obj 3220 741 bng 25 250 50 0 empty empty empty 17 7 0 10 #191919 #e1e1e1 #e1e1e1;
#X obj 3221 707 r scmgr.current_screen;
#X obj 3027 889 s scmgr.temp_param.val;
#X obj 3053 672 in 28, f 13;
#X obj 3061 820 i;
#X obj 3004 423 t b b b b;
#X obj 3074 714 incrementer 0 128;
#X msg 3085 535 set CC midi ch;
#X obj 3216 828 r midich_thru;
#X obj 3082 858 s midich_thru_set;
#X obj 311 897 s midich_ml3;
#X obj 335 1243 s midich_ml3_pads;
#X obj 383 944 bng 25 250 50 0 empty empty learn 17 7 0 10 #191919 #e1e1e1 #e1e1e1;
#X floatatom 292 635 5 0 0 0 - - - 12;
#X floatatom 335 632 5 0 0 0 - - - 12;
#X obj 292 670 sel 27;
#X obj 375 750 i;
#X obj 433 585 bng 25 250 50 0 empty empty learn 17 7 0 10 #191919 #e1e1e1 #e1e1e1;
#X floatatom 376 782 5 0 0 0 - - - 12;
#X obj 291 601 ctl.in;
#X floatatom 332 1023 5 0 0 0 - - - 12;
#X obj 329 1133 i;
#X floatatom 331 1174 5 0 0 0 - - - 12;
#X obj 278 990 note.in, f 10;
#X obj 276 1023 nbx 4 18 -1e+37 1e+37 0 0 empty empty empty 0 -8 0 10 #191919 #e1e1e1 #e1e1e1 0 256;
#X obj 294 696 onebang 0;
#X obj 302 1089 onebang 0;
#X obj 277 1054 bng 25 250 50 0 empty empty empty 17 7 0 10 #191919 #e1e1e1 #e1e1e1;
#X obj 104 879 tosymbol;
#X obj 100 1020 s scmgr.static;
#X obj 101 918 prepend b;
#X obj 106 948 t a b;
#X msg 130 990 a -;
#X obj 362 819 t b f;
#X msg 197 842 press Tap;
#X msg 105 840 press Shift;
#X obj 476 1062 s scmgr.PreventShiftFromEscapingUI;
#X msg 505 1026 1;
#X msg 478 1027 0;
#X obj 334 1201 t b f;
#X obj 717 1062 s scmgr.PreventScreenSwitching;
#X obj 387 989 t;
#X obj 451 671 t;
#X obj 572 299 sel ml3.midich env.defaults.tog mnm.midich.pgm md.midich.pgm mnm.midich.notes md.midich.notes cc.tempo.tog cc.midich, f 399;
#X connect 0 0 24 2;
#X connect 2 0 4 0;
#X connect 3 0 172 0;
#X connect 4 0 3 1;
#X connect 5 0 3 0;
#X connect 7 0 8 0;
#X connect 8 0 172 0;
#X connect 9 0 14 0;
#X connect 11 0 9 0;
#X connect 12 0 81 0;
#X connect 13 0 12 1;
#X connect 14 0 10 0;
#X connect 16 0 40 0;
#X connect 17 0 16 1;
#X connect 18 0 16 1;
#X connect 19 0 18 0;
#X connect 20 0 19 0;
#X connect 22 3 24 0;
#X connect 23 2 72 0;
#X connect 24 0 12 0;
#X connect 25 0 27 0;
#X connect 27 0 26 0;
#X connect 28 0 41 0;
#X connect 29 0 28 1;
#X connect 30 0 29 0;
#X connect 31 0 30 0;
#X connect 33 2 71 0;
#X connect 34 0 25 0;
#X connect 36 0 12 1;
#X connect 37 0 28 1;
#X connect 38 0 40 1;
#X connect 39 0 41 1;
#X connect 40 0 15 0;
#X connect 40 0 21 0;
#X connect 41 0 35 0;
#X connect 41 0 32 0;
#X connect 42 0 41 0;
#X connect 42 1 34 0;
#X connect 42 2 36 0;
#X connect 42 3 37 0;
#X connect 43 0 40 0;
#X connect 43 1 11 0;
#X connect 43 2 17 0;
#X connect 43 3 13 0;
#X connect 44 0 46 0;
#X connect 46 0 45 0;
#X connect 47 0 53 0;
#X connect 48 0 47 1;
#X connect 49 0 48 0;
#X connect 50 0 49 0;
#X connect 52 2 73 0;
#X connect 53 0 51 0;
#X connect 53 0 69 0;
#X connect 54 0 44 0;
#X connect 55 0 53 1;
#X connect 56 0 58 0;
#X connect 58 0 57 0;
#X connect 59 0 65 0;
#X connect 60 0 59 1;
#X connect 61 0 60 0;
#X connect 62 0 61 0;
#X connect 64 2 70 0;
#X connect 65 0 63 0;
#X connect 65 0 68 0;
#X connect 66 0 56 0;
#X connect 67 0 65 1;
#X connect 70 0 59 0;
#X connect 71 0 28 0;
#X connect 72 0 16 0;
#X connect 73 0 47 0;
#X connect 74 0 12 1;
#X connect 75 0 59 1;
#X connect 76 0 65 0;
#X connect 76 1 66 0;
#X connect 76 2 74 0;
#X connect 76 3 75 0;
#X connect 77 0 12 1;
#X connect 78 0 47 1;
#X connect 79 0 53 0;
#X connect 79 1 54 0;
#X connect 79 2 77 0;
#X connect 79 3 78 0;
#X connect 81 0 1 0;
#X connect 82 0 81 0;
#X connect 83 0 85 0;
#X connect 84 0 83 0;
#X connect 84 0 115 0;
#X connect 85 0 89 0;
#X connect 85 0 113 0;
#X connect 85 1 90 0;
#X connect 85 1 114 0;
#X connect 86 0 88 0;
#X connect 88 0 87 0;
#X connect 89 0 86 0;
#X connect 90 0 86 0;
#X connect 91 0 5 0;
#X connect 92 0 93 0;
#X connect 93 0 94 0;
#X connect 93 0 98 0;
#X connect 95 0 82 0;
#X connect 95 0 12 1;
#X connect 96 0 5 1;
#X connect 97 0 102 0;
#X connect 98 0 97 0;
#X connect 101 0 103 0;
#X connect 102 0 100 0;
#X connect 102 1 101 0;
#X connect 104 0 107 0;
#X connect 105 0 104 2;
#X connect 107 0 109 0;
#X connect 108 0 107 1;
#X connect 110 0 111 0;
#X connect 111 0 112 0;
#X connect 116 0 118 0;
#X connect 116 0 121 0;
#X connect 117 0 116 0;
#X connect 118 0 120 0;
#X connect 120 0 119 0;
#X connect 122 0 125 0;
#X connect 124 0 12 1;
#X connect 125 0 123 0;
#X connect 126 0 133 0;
#X connect 127 0 126 1;
#X connect 128 0 126 1;
#X connect 129 0 128 0;
#X connect 130 0 129 0;
#X connect 132 2 135 0;
#X connect 133 0 131 0;
#X connect 133 0 138 0;
#X connect 134 0 133 0;
#X connect 134 1 136 0;
#X connect 134 2 127 0;
#X connect 134 3 124 0;
#X connect 135 0 126 0;
#X connect 136 0 122 0;
#X connect 137 0 133 1;
#X connect 141 0 170 0;
#X connect 142 0 144 0;
#X connect 143 0 145 1;
#X connect 144 0 154 0;
#X connect 145 0 147 0;
#X connect 146 0 154 1;
#X connect 146 0 171 0;
#X connect 147 0 162 0;
#X connect 148 1 142 0;
#X connect 148 2 143 0;
#X connect 149 0 150 1;
#X connect 150 0 151 0;
#X connect 151 0 168 0;
#X connect 152 0 153 0;
#X connect 152 1 149 0;
#X connect 153 0 156 0;
#X connect 154 0 145 0;
#X connect 155 0 150 0;
#X connect 156 0 155 0;
#X connect 157 0 159 0;
#X connect 159 0 160 0;
#X connect 160 0 158 0;
#X connect 160 1 161 0;
#X connect 161 0 158 0;
#X connect 162 0 167 0;
#X connect 162 0 141 0;
#X connect 162 1 139 0;
#X connect 163 0 157 0;
#X connect 164 0 157 0;
#X connect 166 0 165 0;
#X connect 166 0 169 0;
#X connect 167 0 165 0;
#X connect 167 0 169 0;
#X connect 168 0 167 0;
#X connect 168 1 140 0;
#X connect 170 0 155 1;
#X connect 170 0 163 0;
#X connect 170 1 166 0;
#X connect 171 0 154 1;
#X connect 171 0 164 0;
#X connect 171 1 166 0;
#X connect 172 0 146 0;
#X connect 172 1 84 0;
#X connect 172 2 43 0;
#X connect 172 3 42 0;
#X connect 172 4 76 0;
#X connect 172 5 79 0;
#X connect 172 6 117 0;
#X connect 172 7 134 0;
