#N canvas 733 172 450 300 12;
#X obj 1397 443 tosymbol;
#X obj 1326 616 s scmgr.temp;
#X msg 1259 448 0;
#X obj 1326 585 prepend temp_param;
#X obj 1302 758 spigot 0;
#X msg 1287 446 1;
#X msg 1465 771 0;
#X obj 1460 726 bng 25 250 50 0 empty empty empty 17 7 0 10 #191919 #e1e1e1 #e1e1e1;
#X obj 1461 692 r scmgr.current_screen;
#X obj 1267 874 s scmgr.temp_param.val;
#X obj 1293 657 in 28, f 13;
#X obj 1301 805 i;
#X obj 1244 408 t b b b b;
#X obj 1314 699 incrementer 0 128;
#X obj 1242 813 i;
#X obj 1214 873 i;
#X obj 1359 473 s global_settings.AllowSeek;
#X obj 1340 543 symbol;
#X obj 1041 621 r global_settings.SetMidiChVal_NoUI;
#X obj 1044 645 bng 25 250 50 0 empty empty empty 17 7 0 10 #191919 #e1e1e1 #e1e1e1;
#X obj 1265 336 inlet;
#X obj 1285 371 inlet;
#X obj 1201 951 outlet;
#X obj 1510 779 receiver midich_mnm_pgm;
#X obj 1661 699 loadmess \$1;
#X obj 1312 848 sender midich_mnm_set;
#X obj 1539 825 loadmess \$2;
#X obj 1541 856 tosymbol;
#X obj 1661 730 tosymbol;
#X connect 0 0 17 1;
#X connect 2 0 16 0;
#X connect 3 0 1 0;
#X connect 4 0 11 0;
#X connect 5 0 4 1;
#X connect 6 0 4 1;
#X connect 7 0 6 0;
#X connect 8 0 7 0;
#X connect 10 3 13 0;
#X connect 11 0 9 0;
#X connect 11 0 15 0;
#X connect 11 0 25 0;
#X connect 12 0 11 0;
#X connect 12 1 17 0;
#X connect 12 2 5 0;
#X connect 12 3 2 0;
#X connect 13 0 4 0;
#X connect 14 0 15 0;
#X connect 14 0 25 0;
#X connect 15 0 22 0;
#X connect 17 0 3 0;
#X connect 18 0 19 0;
#X connect 19 0 14 0;
#X connect 20 0 12 0;
#X connect 21 0 0 0;
#X connect 23 0 11 1;
#X connect 23 0 14 1;
#X connect 24 0 28 0;
#X connect 26 0 27 0;
#X connect 27 0 25 1;
#X connect 28 0 23 0;
