#N canvas 827 239 527 327 12;
#X obj 260 623 r scmgr.NumberOfGlobalSettings;
#X obj 142 797 s scmgr.GlobalSettingsSelection;
#X obj 570 184 r scmgr.GlobalSettingsSelectionName;
#X obj 578 276 symbol;
#X obj 569 215 tosymbol;
#X obj 505 264 spigot 0;
#X obj 682 234 r scmgr.GlobalSettingsDo;
#X obj 665 270 tosymbol;
#X msg 1323 425 set MNM midi ch;
#X obj 143 719 spigot 0;
#X obj 90 628 in 28, f 13;
#X obj 144 670 incrementer 0 10;
#X msg 1772 475 set MD midi ch;
#X msg 2607 467 set MD midi note ch;
#X msg 2174 462 set MNM midi notes ch;
#X obj 142 756 i;
#X obj 85 684 sel 1;
#X obj 895 427 tgl 25 0 empty empty empty 17 7 0 10 #191919 #e1e1e1 #e1e1e1 0 1;
#X obj 898 378 bng 25 250 50 0 empty empty empty 17 7 0 10 #191919 #e1e1e1 #e1e1e1;
#X obj 827 493 tosymbol;
#X obj 827 559 s scmgr.temp;
#X obj 827 528 prepend temp_simple;
#X obj 467 213 r ctl.yes;
#X obj 67 99 r scmgr.current_screen;
#X obj 66 131 == 4;
#X obj 67 166 s global_settings.focus;
#X obj 29 589 r global_settings.focus;
#X obj 513 154 r global_settings.focus;
#X obj 222 150 sel 1;
#X obj 225 119 change;
#X obj 296 109 clrstore 4;
#X obj 225 198 s ctl.load_clrstore_4;
#X msg 404 147 clear;
#X obj 232 174 t;
#X obj 401 182 clr 4 1;
#X obj 94 299 ctl.in 27 33;
#X obj 171 271 r midich_ml3;
#X text 69 265 shift reloads clr;
#X obj 92 344 spigot 0, f 12;
#X obj 182 307 r global_settings.focus;
#X obj 85 391 s ctl.load_clrstore_4;
#X obj 134 468 loadbang;
#X msg 134 493 clear;
#X obj 131 528 clr 4;
#X obj 1012 410 s mset_manager.RepopAndReload;
#X obj 2969 539 tgl 25 0 empty empty empty 17 7 0 10 #191919 #e1e1e1 #e1e1e1 0 1;
#X obj 2970 508 bng 25 250 50 0 empty empty empty 17 7 0 10 #191919 #e1e1e1 #e1e1e1;
#X obj 2825 614 tosymbol;
#X obj 2825 680 s scmgr.temp;
#X obj 2825 649 prepend temp_simple;
#X obj 2935 615 s cc_tempo_tog;
#X msg 3282 422 set CC midi ch;
#X obj 475 966 s midich_ml3;
#X obj 499 1312 s midich_ml3_pads;
#X obj 547 1013 bng 25 250 50 0 empty empty learn 17 7 0 10 #191919 #e1e1e1 #e1e1e1;
#X floatatom 456 704 5 0 0 0 - - - 12;
#X floatatom 499 701 5 0 0 0 - - - 12;
#X obj 456 739 sel 27;
#X obj 539 819 i;
#X obj 595 676 bng 25 250 50 0 empty empty learn 17 7 0 10 #191919 #e1e1e1 #e1e1e1;
#X floatatom 540 851 5 0 0 0 - - - 12;
#X obj 455 670 ctl.in;
#X floatatom 496 1092 5 0 0 0 - - - 12;
#X obj 493 1202 i;
#X floatatom 495 1243 5 0 0 0 - - - 12;
#X obj 442 1059 note.in, f 10;
#X obj 440 1092 nbx 4 18 -1e+37 1e+37 0 0 empty empty empty 0 -8 0 10 #191919 #e1e1e1 #e1e1e1 0 256;
#X obj 458 765 onebang 0;
#X obj 466 1158 onebang 0;
#X obj 441 1123 bng 25 250 50 0 empty empty empty 17 7 0 10 #191919 #e1e1e1 #e1e1e1;
#X obj 268 948 tosymbol;
#X obj 264 1089 s scmgr.static;
#X obj 265 987 prepend b;
#X obj 270 1017 t a b;
#X msg 294 1059 a -;
#X obj 526 888 t b f;
#X obj 640 1131 s scmgr.PreventShiftFromEscapingUI;
#X msg 669 1095 1;
#X msg 642 1096 0;
#X obj 498 1270 t b f;
#X obj 881 1131 s scmgr.PreventScreenSwitching;
#X obj 551 1058 t;
#X obj 615 740 t;
#X obj 574 335 sel ml3.midich env.defaults.dev mnm.midich.pgm md.midich.pgm mnm.midich.notes md.midich.notes cc.tempo.tog cc.midich, f 431;
#X msg 664 487 env.defaults.dev \$1;
#X msg 719 947 ml3.midich \$1;
#X obj 1518 1125 s boot.SetParam;
#X msg 650 1288 ml3.midich.pads \$1;
#X msg 1271 515 mnm.midich.pgm \$1;
#X msg 2002 555 mnm.midich.notes \$1;
#X msg 1636 548 md.midich.pgm \$1;
#X msg 2408 549 md.midich.notes \$1;
#X msg 3121 734 cc.midich \$1;
#X msg 2947 702 cc.tempo.tog \$1;
#X msg 727 420 set \$1;
#X obj 974 531 s env_defaults_dev;
#X obj 711 379 r env_defaults_dev;
#X obj 2815 474 r cc_tempo_tog;
#X msg 2839 516 set \$1;
#X obj 940 432 del 50;
#X obj 214 737 r global_settings.AllowSeek;
#X obj 1264 381 t;
#X obj 1001 470 s global_settings.SetMidiChVal_NoUI;
#X obj 1266 482 global_settings.midich midich_mnm_pgm midich_mnm_set;
#X obj 1635 515 global_settings.midich midich_md_pgm midich_md_set;
#X obj 1645 406 t;
#X obj 2022 434 t;
#X obj 1999 521 global_settings.midich midich_mnm_notes midich_mnm_notes_set;
#X obj 2431 427 t;
#X obj 2408 514 global_settings.midich midich_md_notes midich_md_notes_set;
#X obj 3071 394 t;
#X obj 3074 473 global_settings.midich midich_thru midich_thru_set;
#X msg 361 911 -> Pad;
#X msg 269 909 -> Shift;
#X connect 0 0 11 2;
#X connect 2 0 4 0;
#X connect 3 0 83 0;
#X connect 4 0 3 1;
#X connect 5 0 3 0;
#X connect 6 0 7 0;
#X connect 7 0 83 0;
#X connect 8 0 103 1;
#X connect 9 0 15 0;
#X connect 10 3 11 0;
#X connect 11 0 9 0;
#X connect 12 0 104 1;
#X connect 13 0 109 1;
#X connect 14 0 107 1;
#X connect 15 0 1 0;
#X connect 16 0 15 0;
#X connect 17 0 84 0;
#X connect 17 0 95 0;
#X connect 17 0 19 0;
#X connect 18 0 17 0;
#X connect 18 0 44 0;
#X connect 18 0 99 0;
#X connect 19 0 21 0;
#X connect 21 0 20 0;
#X connect 22 0 5 0;
#X connect 23 0 24 0;
#X connect 24 0 25 0;
#X connect 24 0 29 0;
#X connect 26 0 16 0;
#X connect 26 0 9 1;
#X connect 27 0 5 1;
#X connect 28 0 33 0;
#X connect 29 0 28 0;
#X connect 32 0 34 0;
#X connect 33 0 31 0;
#X connect 33 1 32 0;
#X connect 35 0 38 0;
#X connect 36 0 35 2;
#X connect 38 0 40 0;
#X connect 39 0 38 1;
#X connect 41 0 42 0;
#X connect 42 0 43 0;
#X connect 45 0 47 0;
#X connect 45 0 50 0;
#X connect 45 0 93 0;
#X connect 46 0 45 0;
#X connect 47 0 49 0;
#X connect 49 0 48 0;
#X connect 51 0 111 1;
#X connect 54 0 81 0;
#X connect 55 0 57 0;
#X connect 56 0 58 1;
#X connect 57 0 67 0;
#X connect 58 0 60 0;
#X connect 59 0 67 1;
#X connect 59 0 82 0;
#X connect 60 0 75 0;
#X connect 61 1 55 0;
#X connect 61 2 56 0;
#X connect 62 0 63 1;
#X connect 63 0 64 0;
#X connect 64 0 79 0;
#X connect 65 0 66 0;
#X connect 65 1 62 0;
#X connect 66 0 69 0;
#X connect 67 0 58 0;
#X connect 68 0 63 0;
#X connect 69 0 68 0;
#X connect 70 0 72 0;
#X connect 72 0 73 0;
#X connect 73 0 71 0;
#X connect 73 1 74 0;
#X connect 74 0 71 0;
#X connect 75 0 78 0;
#X connect 75 0 54 0;
#X connect 75 1 52 0;
#X connect 75 1 85 0;
#X connect 77 0 76 0;
#X connect 77 0 80 0;
#X connect 78 0 76 0;
#X connect 78 0 80 0;
#X connect 79 0 78 0;
#X connect 79 1 53 0;
#X connect 79 1 87 0;
#X connect 81 0 68 1;
#X connect 81 0 112 0;
#X connect 81 1 77 0;
#X connect 82 0 67 1;
#X connect 82 0 113 0;
#X connect 82 1 77 0;
#X connect 83 0 59 0;
#X connect 83 1 18 0;
#X connect 83 2 101 0;
#X connect 83 3 105 0;
#X connect 83 4 106 0;
#X connect 83 5 108 0;
#X connect 83 6 46 0;
#X connect 83 7 110 0;
#X connect 84 0 86 0;
#X connect 85 0 86 0;
#X connect 87 0 86 0;
#X connect 88 0 86 0;
#X connect 89 0 86 0;
#X connect 90 0 86 0;
#X connect 91 0 86 0;
#X connect 92 0 86 0;
#X connect 93 0 86 0;
#X connect 94 0 17 0;
#X connect 96 0 94 0;
#X connect 97 0 98 0;
#X connect 98 0 45 0;
#X connect 99 0 102 0;
#X connect 100 0 9 1;
#X connect 101 0 103 0;
#X connect 101 1 8 0;
#X connect 103 0 88 0;
#X connect 104 0 90 0;
#X connect 105 0 104 0;
#X connect 105 1 12 0;
#X connect 106 0 107 0;
#X connect 106 1 14 0;
#X connect 107 0 89 0;
#X connect 108 0 109 0;
#X connect 108 1 13 0;
#X connect 109 0 91 0;
#X connect 110 0 111 0;
#X connect 110 1 51 0;
#X connect 111 0 92 0;
#X connect 112 0 70 0;
#X connect 113 0 70 0;
