#N canvas 733 172 450 300 12;
#X obj 305 494 router 4;
#X obj 360 422 r scmgr.current_screen;
#X obj 355 457 - 1;
#X obj 309 357 r midich_ml3;
#X obj 258 568 outlet;
#X obj 312 570 outlet;
#X obj 363 567 outlet;
#X obj 415 567 outlet;
#X obj 259 414 ctl.in \$1 33;
#X obj 309 386 i;
#X obj 199 352 loadmess bang;
#X obj 199 317 bng 25 250 50 0 empty empty empty 17 7 0 10 #191919 #e1e1e1 #e1e1e1;
#X connect 0 0 4 0;
#X connect 0 1 5 0;
#X connect 0 2 6 0;
#X connect 0 3 7 0;
#X connect 1 0 2 0;
#X connect 2 0 0 1;
#X connect 3 0 9 0;
#X connect 8 0 0 0;
#X connect 9 0 8 2;
#X connect 10 0 9 0;
#X connect 11 0 10 0;
