#N canvas 733 172 450 300 12;
#X obj 593 179 > 64;
#X obj 605 218 sel 0 1;
#X obj 570 227 bng 20 250 50 0 empty empty empty 0 -10 0 12 #fcfcfc #000000 #000000;
#X obj 671 227 bng 20 250 50 0 empty empty empty 0 -10 0 12 #fcfcfc #000000 #000000;
#X obj 548 357 - 1;
#X obj 593 356 + 1;
#X obj 566 406 min \$2;
#X obj 570 439 max \$1;
#X obj 551 318 i;
#X obj 596 321 i;
#X obj 569 475 i;
#X obj 552 510 outlet;
#X obj 592 150 inlet;
#X obj 664 346 inlet;
#X obj 713 349 inlet;
#X obj 775 355 inlet;
#X connect 0 0 1 0;
#X connect 1 0 2 0;
#X connect 1 0 8 0;
#X connect 1 1 3 0;
#X connect 1 1 9 0;
#X connect 4 0 6 0;
#X connect 5 0 6 0;
#X connect 6 0 7 0;
#X connect 7 0 10 0;
#X connect 8 0 4 0;
#X connect 9 0 5 0;
#X connect 10 0 8 1;
#X connect 10 0 9 1;
#X connect 10 0 11 0;
#X connect 12 0 0 0;
#X connect 13 0 7 1;
#X connect 14 0 6 1;
#X connect 15 0 10 0;
