#N canvas 733 172 450 300 12;
#X obj 160 1816 outlet;
#X obj 336 138 inlet;
#X obj 808 388 zl rev;
#X obj 808 420 unpack s f;
#X obj 808 357 listfunnel 0;
#X obj 808 503 text set ml3_line\$1;
#X obj 521 147 text define -k ml3_line\$1;
#A set emsys\ 0.2 \;;
#X obj 1097 295 inlet;
#X obj 808 454 pack s 0;
#X obj 336 268 text tolist ml3_line\$1;
#X obj 336 234 bng 25 250 50 0 empty empty empty 17 7 0 10 #191919 #e1e1e1 #e1e1e1;
#X obj 336 342 zl group 2;
#X obj 337 1018 list tosymbol;
#X obj 283 1127 zl group;
#X obj 106 234 text size ml3_line\$1;
#X msg 521 119 click;
#X obj 1059 334 text set ml3_line\$1 0 1;
#X obj 1523 1663 inlet;
#X text 1523 1622 clear entire line;
#X obj 1523 1693 bng 25 250 50 0 empty empty empty 17 7 0 10 #191919 #e1e1e1 #e1e1e1;
#X msg 1523 1731 32;
#X obj 1523 1767 list tosymbol;
#X obj 1655 1767 inlet;
#X text 1088 225 if not init \, then set val, f 14;
#X text 1145 275 select param to set val, f 9;
#X text 1643 1725 pass through;
#X obj 513 342 iterate;
#X obj 513 371 tosymbol;
#X obj 909 411 zl rev;
#X obj 909 445 unpack s f;
#X obj 909 357 listfunnel 0;
#X obj 588 357 i;
#X text 808 187 init_params = param-val pairs \; init_simple = simple labels \, no vals;
#X obj 760 245 route init_params init_simple, f 46;
#X obj 647 357 text delete ml3_line\$1;
#X msg 648 318 -1;
#X obj 336 191 t b b anything b, f 36;
#X obj 118 195 bng 25 250 50 0 empty empty empty 17 7 0 10 #191919 #e1e1e1 #e1e1e1;
#X obj 760 279 t anything b;
#X obj 909 279 t anything b;
#X msg 34 234 zlclear;
#X msg 249 23 init_simple test hello bye;
#X obj 336 308 zl filter \\\;;
#X msg 1389 652 \$1;
#X obj 1389 717 bng 25 250 50 0 empty empty empty 17 7 0 10 #191919 #e1e1e1 #e1e1e1;
#X obj 1418 717 bng 25 250 50 0 empty empty empty 17 7 0 10 #191919 #e1e1e1 #e1e1e1;
#X obj 1447 717 bng 26 250 50 0 empty empty empty 17 7 0 10 #191919 #e1e1e1 #e1e1e1;
#X obj 534 751 i;
#X obj 534 785 list;
#X msg 591 318 0;
#X msg 614 318 1;
#X obj 337 1078 selector 2, f 42;
#X obj 337 615 t l l;
#X msg 1392 754 1;
#X msg 1509 754 0;
#X obj 1507 717 bng 25 250 50 0 empty empty empty 17 7 0 10 #191919 #e1e1e1 #e1e1e1;
#X obj 1389 783 i;
#X obj 534 688 zl rev;
#X obj 534 721 zl nth 1;
#X text 530 22 todo: create more scripty symbols for different display patterns for param data. e.g. formats such as 0/0 0:0;
#X msg 1420 754 2;
#X msg 1447 754 3;
#X text 1432 620 check first character for special function, f 16;
#X obj 1581 688 list fromsymbol;
#X obj 1581 663 tosymbol;
#X msg 1581 715 set \$1;
#X msg 1581 740 126;
#X obj 748 878 prepend 58;
#X msg 249 66 init_params test ?hello bye;
#X msg 1581 640 ~;
#X obj 1389 683 sel 63 58 47 126, f 20;
#X obj 1476 717 bng 26 250 50 0 empty empty empty 17 7 0 10 #191919 #e1e1e1 #e1e1e1;
#X msg 1476 754 4;
#X obj 337 932 selector 5, f 151;
#X obj 337 980 zl filter 32;
#X obj 1167 828 zl rev;
#X msg 336 476 \$1;
#X obj 337 576 list, f 18;
#X obj 336 521 t b l;
#X obj 336 436 t l l, f 20;
#X text 412 976 remove spaces, f 8;
#X text 486 1052 init_simple;
#X text 355 1052 init_params;
#X obj 336 396 list fromsymbol;
#X obj 336 372 tosymbol;
#X obj 1167 763 list tosymbol;
#X obj 1167 793 fromsymbol;
#X obj 1167 896 list fromsymbol;
#X obj 951 878 prepend 47;
#X msg 249 44 init_params test hello ~bye;
#X obj 1167 857 tosymbol;
#X obj 1167 723 zl nth 1;
#X text 564 909 ? - hide label;
#X text 776 906 : - divider + hide label;
#X text 970 903 / - divider + hide label;
#X text 1273 861 ~ - flip param+val display order, f 11;
#X obj 283 1255 list fromsymbol;
#X obj 283 1222 tosymbol;
#X obj 209 1420 sel 58 47;
#X obj 209 1500 sel 32;
#X obj 448 1576 zl len;
#X obj 406 1623 i;
#X obj 406 1660 nbx 4 18 -1e+37 1e+37 0 0 empty empty empty 0 -8 0 10 #191919 #e1e1e1 #e1e1e1 0 256;
#X msg 405 1583 0;
#X obj 333 1570 bng 25 250 50 0 empty empty empty 17 7 0 10 #191919 #e1e1e1 #e1e1e1;
#X obj 403 1549 bng 25 250 50 0 empty empty empty 17 7 0 10 #191919 #e1e1e1 #e1e1e1;
#X obj 448 1623 - 1;
#X obj 160 1692 zl group, f 39;
#X obj 287 1157 list;
#X obj 283 1185 t l b, f 20;
#X obj 265 1347 iterate;
#X obj 265 1643 i;
#X obj 282 1284 t l l, f 27;
#X obj 160 1767 list tosymbol;
#X obj 265 1604 spigot 1;
#X obj 295 1570 tgl 25 0 empty empty empty 17 7 0 10 #191919 #e1e1e1 #e1e1e1 0 1;
#X msg 211 1535 0;
#X obj 265 1375 t f f b;
#X msg 297 1420 1;
#X obj 282 1315 zl rev;
#X obj 160 1727 zl rev;
#X obj 209 1462 once;
#X msg 249 88 init_params ?test :hello ?example /goodbye /sayounara :cool ~bpm;
#X obj 909 318 tosymbol;
#X connect 1 0 36 0;
#X connect 2 0 3 0;
#X connect 3 0 8 0;
#X connect 3 1 5 1;
#X connect 4 0 2 0;
#X connect 7 0 16 1;
#X connect 8 0 5 0;
#X connect 9 0 42 0;
#X connect 10 0 9 0;
#X connect 11 0 84 0;
#X connect 12 0 51 0;
#X connect 13 0 108 0;
#X connect 14 0 13 1;
#X connect 15 0 6 0;
#X connect 17 0 19 0;
#X connect 19 0 20 0;
#X connect 20 0 21 0;
#X connect 21 0 0 0;
#X connect 22 0 0 0;
#X connect 26 0 27 0;
#X connect 27 0 51 1;
#X connect 28 0 29 0;
#X connect 29 0 5 0;
#X connect 29 1 5 1;
#X connect 30 0 28 0;
#X connect 31 0 51 2;
#X connect 33 0 38 0;
#X connect 33 1 39 0;
#X connect 33 2 16 0;
#X connect 35 0 34 0;
#X connect 36 0 10 0;
#X connect 36 1 14 0;
#X connect 36 2 33 0;
#X connect 36 3 40 0;
#X connect 37 0 14 0;
#X connect 38 0 4 0;
#X connect 38 1 35 0;
#X connect 38 1 49 0;
#X connect 39 0 123 0;
#X connect 39 1 35 0;
#X connect 39 1 50 0;
#X connect 40 0 11 0;
#X connect 40 0 13 0;
#X connect 40 0 107 0;
#X connect 41 0 36 0;
#X connect 42 0 11 0;
#X connect 42 0 26 0;
#X connect 43 0 70 0;
#X connect 44 0 53 0;
#X connect 45 0 60 0;
#X connect 46 0 61 0;
#X connect 47 0 48 0;
#X connect 48 0 73 1;
#X connect 48 0 67 0;
#X connect 48 0 88 0;
#X connect 49 0 31 0;
#X connect 50 0 31 0;
#X connect 51 0 13 0;
#X connect 52 0 57 0;
#X connect 52 0 73 0;
#X connect 52 0 91 0;
#X connect 53 0 56 0;
#X connect 54 0 56 0;
#X connect 55 0 54 0;
#X connect 56 0 73 5;
#X connect 57 0 58 0;
#X connect 58 0 47 0;
#X connect 60 0 56 0;
#X connect 61 0 56 0;
#X connect 63 0 65 0;
#X connect 64 0 63 0;
#X connect 65 0 66 0;
#X connect 67 0 73 2;
#X connect 68 0 36 0;
#X connect 69 0 64 0;
#X connect 70 0 44 0;
#X connect 70 1 45 0;
#X connect 70 2 46 0;
#X connect 70 3 71 0;
#X connect 70 4 55 0;
#X connect 71 0 72 0;
#X connect 72 0 56 0;
#X connect 73 0 74 0;
#X connect 74 0 12 0;
#X connect 75 0 90 0;
#X connect 76 0 78 0;
#X connect 77 0 52 0;
#X connect 78 0 77 0;
#X connect 78 1 43 0;
#X connect 79 0 76 0;
#X connect 79 1 77 1;
#X connect 83 0 79 0;
#X connect 84 0 83 0;
#X connect 85 0 86 0;
#X connect 86 0 75 0;
#X connect 87 0 73 4;
#X connect 88 0 73 3;
#X connect 89 0 36 0;
#X connect 90 0 87 0;
#X connect 91 1 85 0;
#X connect 96 0 112 0;
#X connect 97 0 96 0;
#X connect 98 0 121 1;
#X connect 98 1 121 1;
#X connect 98 2 121 0;
#X connect 99 0 104 0;
#X connect 99 0 116 0;
#X connect 100 0 101 0;
#X connect 101 0 102 0;
#X connect 101 0 106 0;
#X connect 102 0 107 1;
#X connect 103 0 101 0;
#X connect 104 0 101 0;
#X connect 105 0 103 0;
#X connect 106 0 101 1;
#X connect 107 0 120 0;
#X connect 108 0 109 0;
#X connect 109 0 97 0;
#X connect 109 1 105 0;
#X connect 110 0 117 0;
#X connect 111 0 107 0;
#X connect 112 0 119 0;
#X connect 112 1 100 0;
#X connect 113 0 0 0;
#X connect 114 0 111 0;
#X connect 115 0 114 1;
#X connect 116 0 115 0;
#X connect 117 0 114 0;
#X connect 117 1 98 0;
#X connect 117 2 118 0;
#X connect 118 0 115 0;
#X connect 119 0 110 0;
#X connect 120 0 113 0;
#X connect 121 0 99 0;
#X connect 122 0 36 0;
#X connect 123 0 30 0;
