#N canvas 733 172 450 300 12;
#X obj 109 882 outlet;
#X obj 112 128 inlet;
#X obj 675 378 zl rev;
#X obj 675 410 unpack s f;
#X obj 675 347 listfunnel 0;
#X obj 675 493 text set ml3_line\$1;
#X obj 297 137 text define -k ml3_line\$1;
#A set test 0 \; .hello 0 \; bye 0 \;;
#X obj 964 294 inlet;
#X obj 675 444 pack s 0;
#X obj 112 258 text tolist ml3_line\$1;
#X obj 112 224 bng 25 250 50 0 empty empty empty 17 7 0 10 #191919 #e1e1e1 #e1e1e1;
#X obj 112 332 zl group 2;
#X obj 112 370 tosymbol;
#X obj 112 403 list fromsymbol;
#X obj 112 434 zl filter 32;
#X obj 124 723 list tosymbol;
#X obj 109 831 zl group;
#X obj 429 575 text size ml3_line\$1;
#X msg 297 109 click;
#X obj 926 333 text set ml3_line\$1 0 1;
#X obj 1137 332 inlet;
#X text 1137 294 clear entire line;
#X obj 1137 362 bng 25 250 50 0 empty empty empty 17 7 0 10 #191919 #e1e1e1 #e1e1e1;
#X obj 69 876 bng 25 250 50 0 empty empty empty 17 7 0 10 #191919 #e1e1e1 #e1e1e1;
#X msg 1137 400 32;
#X obj 1137 436 list tosymbol;
#X obj 1269 436 inlet;
#X text 955 227 if not init \, then set val, f 14;
#X text 1012 277 select param to set val, f 9;
#X text 1257 397 pass through;
#X obj 262 347 iterate;
#X obj 262 385 tosymbol;
#X obj 799 416 zl rev;
#X obj 799 450 unpack s f;
#X obj 799 385 listfunnel 0;
#X obj 441 378 i;
#X text 618 80 init_params = param-val pairs \; init_simple = simple labels \, no vals;
#X obj 627 244 route init_params init_simple, f 46;
#X obj 496 378 text delete ml3_line\$1;
#X msg 497 339 -1;
#X obj 112 181 t b b anything b, f 77;
#X msg 259 83 init_params test hello bye;
#X obj 441 536 bng 25 250 50 0 empty empty empty 17 7 0 10 #191919 #e1e1e1 #e1e1e1;
#X obj 675 298 t anything b;
#X obj 799 298 t anything b;
#X msg 22 224 zlclear;
#X msg 259 55 init_simple test hello bye;
#X obj 112 298 zl filter \\\;;
#X obj 394 270 list fromsymbol;
#X obj 394 298 print;
#X obj 397 249 tosymbol;
#X msg 244 534 \$1;
#X obj 244 599 bng 25 250 50 0 empty empty empty 17 7 0 10 #191919 #e1e1e1 #e1e1e1;
#X obj 244 566 sel 46 58 47, f 16;
#X text 301 542 . : /;
#X obj 273 599 bng 25 250 50 0 empty empty empty 17 7 0 10 #191919 #e1e1e1 #e1e1e1;
#X obj 302 599 bng 26 250 50 0 empty empty empty 17 7 0 10 #191919 #e1e1e1 #e1e1e1;
#X obj 137 582 i;
#X obj 137 638 list;
#X obj 107 686 selector 2;
#X msg 444 339 0;
#X msg 467 339 1;
#X obj 107 767 selector 2;
#X obj 112 463 t l l;
#X msg 264 638 1;
#X msg 289 638 0;
#X obj 332 599 bng 25 250 50 0 empty empty empty 17 7 0 10 #191919 #e1e1e1 #e1e1e1;
#X obj 261 665 i;
#X msg 397 224 \\\\;
#X msg 429 55 init_params test .hello bye;
#X obj 137 519 zl rev;
#X obj 137 552 zl nth 1;
#X text 429 10 todo: create more scripty symbols for different display patterns for param data. e.g. formats such as 0/0 0:0;
#X connect 1 0 40 0;
#X connect 2 0 3 0;
#X connect 3 0 8 0;
#X connect 3 1 5 1;
#X connect 4 0 2 0;
#X connect 7 0 19 1;
#X connect 8 0 5 0;
#X connect 9 0 47 0;
#X connect 10 0 9 0;
#X connect 11 0 12 0;
#X connect 12 0 13 0;
#X connect 13 0 14 0;
#X connect 14 0 63 0;
#X connect 15 0 62 0;
#X connect 16 0 0 0;
#X connect 16 0 23 0;
#X connect 17 0 16 1;
#X connect 18 0 6 0;
#X connect 20 0 22 0;
#X connect 22 0 24 0;
#X connect 24 0 25 0;
#X connect 25 0 0 0;
#X connect 26 0 0 0;
#X connect 30 0 31 0;
#X connect 31 0 62 1;
#X connect 32 0 33 0;
#X connect 33 0 5 0;
#X connect 33 1 5 1;
#X connect 34 0 32 0;
#X connect 35 0 62 2;
#X connect 37 0 43 0;
#X connect 37 1 44 0;
#X connect 37 2 19 0;
#X connect 39 0 38 0;
#X connect 40 0 10 0;
#X connect 40 1 17 0;
#X connect 40 2 37 0;
#X connect 40 3 45 0;
#X connect 41 0 40 0;
#X connect 42 0 17 0;
#X connect 43 0 4 0;
#X connect 43 1 39 0;
#X connect 43 1 60 0;
#X connect 44 0 34 0;
#X connect 44 1 39 0;
#X connect 44 1 61 0;
#X connect 45 0 11 0;
#X connect 45 0 16 0;
#X connect 46 0 40 0;
#X connect 47 0 11 0;
#X connect 47 0 30 0;
#X connect 48 0 49 0;
#X connect 50 0 48 0;
#X connect 51 0 53 0;
#X connect 52 0 64 0;
#X connect 53 0 52 0;
#X connect 53 1 55 0;
#X connect 53 2 56 0;
#X connect 53 3 66 0;
#X connect 57 0 58 0;
#X connect 58 0 59 1;
#X connect 59 0 15 0;
#X connect 60 0 35 0;
#X connect 61 0 35 0;
#X connect 62 0 16 0;
#X connect 63 0 59 0;
#X connect 63 0 70 0;
#X connect 63 1 51 0;
#X connect 64 0 67 0;
#X connect 65 0 67 0;
#X connect 66 0 65 0;
#X connect 67 0 59 2;
#X connect 68 0 50 0;
#X connect 69 0 40 0;
#X connect 70 0 71 0;
#X connect 71 0 57 0;
