#N canvas 733 172 450 300 12;
#X obj 160 1816 outlet;
#X obj 336 138 inlet;
#X obj 808 388 zl rev;
#X obj 808 420 unpack s f;
#X obj 808 357 listfunnel 0;
#X obj 808 503 text set ml3_line\$1;
#X obj 583 144 text define -k ml3_line\$1;
#A set ?seg 10 \; :?rep 0 \; :?beat 0 \; /?len 0 \;;
#X obj 1097 295 inlet;
#X obj 808 454 pack s 0;
#X obj 336 268 text tolist ml3_line\$1;
#X obj 336 234 bng 25 250 50 0 empty empty empty 17 7 0 10 #191919 #e1e1e1 #e1e1e1;
#X obj 336 342 zl group 2;
#X obj 337 1018 list tosymbol;
#X obj 283 1127 zl group;
#X obj 106 234 text size ml3_line\$1;
#X msg 583 116 click;
#X obj 1059 334 text set ml3_line\$1 0 1, f 20;
#X obj 1523 1663 inlet;
#X text 1523 1615 clear entire line;
#X obj 1523 1693 bng 25 250 50 0 empty empty empty 17 7 0 10 #191919 #e1e1e1 #e1e1e1;
#X msg 1523 1731 32;
#X obj 1523 1767 list tosymbol;
#X text 1088 218 if not init \, then set val, f 14;
#X text 1145 268 select param to set val, f 9;
#X obj 513 342 iterate;
#X obj 513 371 tosymbol;
#X obj 909 394 zl rev;
#X obj 909 445 unpack s f;
#X obj 909 357 listfunnel 0;
#X obj 588 357 i;
#X text 817 197 init_params = param-val pairs \; init_simple = simple labels \, no vals;
#X obj 647 357 text delete ml3_line\$1;
#X msg 648 318 -1;
#X obj 336 191 t b b anything b, f 36;
#X obj 118 195 bng 25 250 50 0 empty empty empty 17 7 0 10 #191919 #e1e1e1 #e1e1e1;
#X obj 760 279 t anything b;
#X obj 909 279 t anything b;
#X msg 34 234 zlclear;
#X msg 249 66 init_simple test hello bye;
#X obj 336 308 zl filter \\\;;
#X msg 1593 654 \$1;
#X obj 1593 719 bng 25 250 50 0 empty empty empty 17 7 0 10 #191919 #e1e1e1 #e1e1e1;
#X obj 1622 719 bng 25 250 50 0 empty empty empty 17 7 0 10 #191919 #e1e1e1 #e1e1e1;
#X obj 1651 719 bng 26 250 50 0 empty empty empty 17 7 0 10 #191919 #e1e1e1 #e1e1e1;
#X obj 534 776 list;
#X msg 591 318 0;
#X msg 614 318 1;
#X obj 337 1078 selector 2, f 42;
#X msg 1596 756 1;
#X msg 1745 756 0;
#X obj 1743 719 bng 25 250 50 0 empty empty empty 17 7 0 10 #191919 #e1e1e1 #e1e1e1;
#X obj 1593 785 i;
#X obj 534 660 zl rev;
#X msg 1624 756 2;
#X msg 1651 756 3;
#X text 1636 615 check first character for special function, f 16;
#X obj 1785 722 list fromsymbol;
#X obj 1785 697 tosymbol;
#X obj 743 860 prepend 58;
#X obj 1680 719 bng 26 250 50 0 empty empty empty 17 7 0 10 #191919 #e1e1e1 #e1e1e1;
#X msg 1680 756 4;
#X obj 337 980 zl filter 32;
#X obj 1174 741 zl rev;
#X obj 336 586 list, f 20;
#X obj 336 530 t b l;
#X obj 336 472 t l l, f 20;
#X text 412 969 remove spaces, f 8;
#X text 486 1045 init_simple;
#X text 355 1045 init_params;
#X obj 336 444 list fromsymbol;
#X obj 336 420 tosymbol;
#X obj 1174 687 list tosymbol;
#X obj 1174 713 fromsymbol;
#X obj 1174 793 list fromsymbol;
#X obj 938 850 prepend 47;
#X obj 1174 766 tosymbol;
#X obj 1147 662 zl nth 1;
#X text 564 902 ? - hide label;
#X text 1257 719 ~ - flip param+val display order, f 11;
#X obj 283 1255 list fromsymbol;
#X obj 283 1222 tosymbol;
#X obj 209 1420 sel 58 47;
#X obj 209 1500 sel 32;
#X obj 448 1576 zl len;
#X obj 406 1623 i;
#X obj 406 1660 nbx 4 18 -1e+37 1e+37 0 0 empty empty empty 0 -8 0 10 #191919 #e1e1e1 #e1e1e1 0 256;
#X msg 405 1583 0;
#X obj 333 1570 bng 25 250 50 0 empty empty empty 17 7 0 10 #191919 #e1e1e1 #e1e1e1;
#X obj 403 1549 bng 25 250 50 0 empty empty empty 17 7 0 10 #191919 #e1e1e1 #e1e1e1;
#X obj 448 1623 - 1;
#X obj 160 1692 zl group, f 39;
#X obj 283 1157 list;
#X obj 283 1185 t l b, f 20;
#X obj 265 1347 iterate;
#X obj 265 1643 i;
#X obj 282 1284 t l l, f 27;
#X obj 160 1767 list tosymbol;
#X obj 265 1604 spigot 1;
#X obj 295 1570 tgl 25 0 empty empty empty 17 7 0 10 #191919 #e1e1e1 #e1e1e1 0 1;
#X msg 211 1535 0;
#X obj 265 1375 t f f b;
#X msg 297 1420 1;
#X obj 282 1315 zl rev;
#X obj 160 1727 zl rev;
#X obj 209 1462 once;
#X obj 909 318 tosymbol;
#X obj 1785 751 print;
#X obj 659 437 zl nth 2;
#X obj 659 484 list fromsymbol;
#X obj 659 509 zl len;
#X obj 534 703 zl slice, f 18;
#X obj 659 461 tosymbol;
#X obj 336 380 t a a;
#X obj 534 743 zl rev;
#X text 1410 889 + - hide val (simple text), f 11;
#X obj 337 932 selector 6, f 183;
#X obj 1593 685 sel 63 58 47 126 43, f 25;
#X obj 1713 719 bng 25 250 50 0 empty empty empty 17 7 0 10 #191919 #e1e1e1 #e1e1e1;
#X msg 1712 758 5;
#X obj 638 743 zl rev;
#X obj 638 776 list;
#X obj 1356 870 zl nth 1;
#X msg 1452 668 \$2;
#X obj 1452 725 bng 25 250 50 0 empty empty empty 17 7 0 10 #191919 #e1e1e1 #e1e1e1;
#X obj 1545 725 bng 25 250 50 0 empty empty empty 17 7 0 10 #191919 #e1e1e1 #e1e1e1;
#X obj 1455 793 i;
#X msg 1547 757 0;
#X msg 1455 757 1;
#X text 553 807 val chars;
#X text 632 807 param chars;
#X obj 818 727 zl rev;
#X obj 818 681 list tosymbol;
#X obj 818 705 fromsymbol;
#X obj 818 778 list fromsymbol;
#X obj 818 752 tosymbol;
#X obj 1484 725 bng 25 250 50 0 empty empty empty 17 7 0 10 #191919 #e1e1e1 #e1e1e1;
#X msg 1486 757 2;
#X obj 774 654 zl slice 2;
#X obj 1019 850 prepend 47;
#X obj 820 860 prepend 58;
#X obj 971 906 selector 4, f 14;
#X obj 760 905 selector 4, f 13;
#X msg 1787 670 +;
#X obj 1452 697 sel 63 126 43, f 16;
#X obj 1514 724 bng 25 250 50 0 empty empty empty 17 7 0 10 #191919 #e1e1e1 #e1e1e1;
#X msg 1514 758 3;
#X obj 995 766 zl nth 2;
#X text 856 888 : - divider \, with other funcs, f 15;
#X text 1073 889 / - divider \, with other funcs, f 15;
#X msg 249 88 init_params p ~p ?p +p :p ?p, f 26;
#X msg 249 109 init_params ?h :?h +and ?h /~flip +and ?h :+hi;
#X obj 1059 295 list;
#X obj 760 245 route init_params init_simple bang, f 46;
#X obj 1208 212 loadmess 0;
#X connect 1 0 33 0;
#X connect 2 0 3 0;
#X connect 3 0 8 0;
#X connect 3 1 5 1;
#X connect 4 0 2 0;
#X connect 7 0 16 1;
#X connect 8 0 5 0;
#X connect 9 0 39 0;
#X connect 10 0 9 0;
#X connect 11 0 112 0;
#X connect 12 0 47 0;
#X connect 13 0 91 0;
#X connect 14 0 13 1;
#X connect 15 0 6 0;
#X connect 17 0 19 0;
#X connect 19 0 20 0;
#X connect 20 0 21 0;
#X connect 21 0 0 0;
#X connect 24 0 25 0;
#X connect 25 0 47 1;
#X connect 26 0 27 0;
#X connect 27 0 5 0;
#X connect 27 1 5 1;
#X connect 28 0 26 0;
#X connect 29 0 47 2;
#X connect 32 0 31 0;
#X connect 33 0 10 0;
#X connect 33 1 14 0;
#X connect 33 2 152 0;
#X connect 33 3 37 0;
#X connect 34 0 14 0;
#X connect 35 0 4 0;
#X connect 35 1 32 0;
#X connect 35 1 45 0;
#X connect 36 0 105 0;
#X connect 36 1 32 0;
#X connect 36 1 46 0;
#X connect 37 0 11 0;
#X connect 37 0 13 0;
#X connect 37 0 90 0;
#X connect 38 0 33 0;
#X connect 39 0 11 0;
#X connect 39 0 24 0;
#X connect 40 0 116 0;
#X connect 41 0 48 0;
#X connect 42 0 53 0;
#X connect 43 0 54 0;
#X connect 44 0 58 0;
#X connect 44 0 115 1;
#X connect 44 0 74 0;
#X connect 45 0 29 0;
#X connect 46 0 29 0;
#X connect 47 0 13 0;
#X connect 48 0 51 0;
#X connect 49 0 51 0;
#X connect 50 0 49 0;
#X connect 51 0 115 6;
#X connect 52 0 110 0;
#X connect 53 0 51 0;
#X connect 54 0 51 0;
#X connect 56 0 106 0;
#X connect 57 0 56 0;
#X connect 58 0 141 1;
#X connect 59 0 60 0;
#X connect 60 0 51 0;
#X connect 61 0 12 0;
#X connect 62 0 75 0;
#X connect 63 0 52 0;
#X connect 63 0 115 0;
#X connect 63 0 76 0;
#X connect 63 0 137 0;
#X connect 63 0 140 0;
#X connect 63 0 141 0;
#X connect 64 0 63 0;
#X connect 64 1 40 0;
#X connect 64 1 122 0;
#X connect 65 0 64 0;
#X connect 65 1 63 1;
#X connect 69 0 65 0;
#X connect 70 0 69 0;
#X connect 71 0 72 0;
#X connect 72 0 62 0;
#X connect 73 0 115 4;
#X connect 74 0 140 1;
#X connect 75 0 73 0;
#X connect 76 1 71 0;
#X connect 79 0 95 0;
#X connect 80 0 79 0;
#X connect 81 0 104 1;
#X connect 81 1 104 1;
#X connect 81 2 104 0;
#X connect 82 0 87 0;
#X connect 82 0 99 0;
#X connect 83 0 84 0;
#X connect 84 0 85 0;
#X connect 84 0 89 0;
#X connect 85 0 90 1;
#X connect 86 0 84 0;
#X connect 87 0 84 0;
#X connect 88 0 86 0;
#X connect 89 0 84 1;
#X connect 90 0 103 0;
#X connect 91 0 92 0;
#X connect 92 0 80 0;
#X connect 92 1 88 0;
#X connect 93 0 100 0;
#X connect 94 0 90 0;
#X connect 95 0 102 0;
#X connect 95 1 83 0;
#X connect 96 0 0 0;
#X connect 97 0 94 0;
#X connect 98 0 97 1;
#X connect 99 0 98 0;
#X connect 100 0 97 0;
#X connect 100 1 81 0;
#X connect 100 2 101 0;
#X connect 101 0 98 0;
#X connect 102 0 93 0;
#X connect 103 0 96 0;
#X connect 104 0 82 0;
#X connect 105 0 28 0;
#X connect 107 0 111 0;
#X connect 108 0 109 0;
#X connect 109 0 110 1;
#X connect 110 0 113 0;
#X connect 110 1 119 0;
#X connect 111 0 108 0;
#X connect 112 0 70 0;
#X connect 112 1 107 0;
#X connect 113 0 44 0;
#X connect 115 0 61 0;
#X connect 116 0 41 0;
#X connect 116 1 42 0;
#X connect 116 2 43 0;
#X connect 116 3 59 0;
#X connect 116 4 117 0;
#X connect 116 5 50 0;
#X connect 117 0 118 0;
#X connect 118 0 51 0;
#X connect 119 0 120 0;
#X connect 120 0 121 0;
#X connect 120 0 146 0;
#X connect 121 1 115 5;
#X connect 122 0 143 0;
#X connect 123 0 127 0;
#X connect 124 0 126 0;
#X connect 125 0 140 4;
#X connect 125 0 141 4;
#X connect 126 0 125 0;
#X connect 127 0 125 0;
#X connect 130 0 134 0;
#X connect 131 0 132 0;
#X connect 132 0 130 0;
#X connect 133 0 138 0;
#X connect 133 0 139 0;
#X connect 134 0 133 0;
#X connect 135 0 136 0;
#X connect 136 0 125 0;
#X connect 137 1 131 0;
#X connect 138 0 140 2;
#X connect 139 0 141 2;
#X connect 140 0 115 3;
#X connect 141 0 115 2;
#X connect 142 0 57 0;
#X connect 143 0 123 0;
#X connect 143 1 135 0;
#X connect 143 2 144 0;
#X connect 143 3 124 0;
#X connect 144 0 145 0;
#X connect 145 0 125 0;
#X connect 146 1 140 3;
#X connect 146 1 141 3;
#X connect 149 0 33 0;
#X connect 150 0 33 0;
#X connect 151 0 16 0;
#X connect 152 0 35 0;
#X connect 152 1 36 0;
#X connect 152 3 151 0;
#X connect 153 0 16 1;
