#N canvas 733 172 450 300 12;
#X obj 190 483 outlet;
#X obj 256 61 inlet;
#X obj 340 212 zl rev;
#X obj 340 246 unpack s f;
#X obj 340 181 listfunnel 0;
#X obj 340 327 text set ml3_line\$1;
#X obj 396 61 text define -k ml3_line\$1;
#A set test 0 \; prim 0 \; blob 0 \; avg 0 \; t 0 \;;
#X obj 514 278 inlet;
#X obj 340 278 pack s 0;
#X obj 476 327 text set ml3_line\$1 0 1;
#X obj 190 175 text tolist ml3_line\$1;
#X obj 190 133 bng 25 250 50 0 empty empty empty 17 7 0 10 #191919 #e1e1e1 #e1e1e1;
#X obj 190 208 zl filter \\\;;
#X obj 190 241 zl group 2;
#X obj 190 279 tosymbol;
#X obj 190 314 list fromsymbol;
#X obj 190 353 zl filter 32;
#X obj 190 387 list tosymbol;
#X obj 190 432 zl group;
#X obj 314 397 text size ml3_line\$1;
#X obj 314 364 loadbang;
#X obj 256 92 t b anything;
#X obj 340 142 route init;
#X connect 1 0 21 0;
#X connect 2 0 3 0;
#X connect 3 0 8 0;
#X connect 3 1 5 1;
#X connect 4 0 2 0;
#X connect 7 0 9 1;
#X connect 8 0 5 0;
#X connect 10 0 12 0;
#X connect 11 0 10 0;
#X connect 12 0 13 0;
#X connect 13 0 14 0;
#X connect 14 0 15 0;
#X connect 15 0 16 0;
#X connect 16 0 17 0;
#X connect 17 0 18 0;
#X connect 18 0 0 0;
#X connect 19 0 18 1;
#X connect 20 0 19 0;
#X connect 21 0 11 0;
#X connect 21 1 22 0;
#X connect 22 0 4 0;
#X connect 22 1 9 0;
