#N canvas 733 172 450 300 12;
#X obj 114 650 outlet;
#X obj 112 128 inlet;
#X obj 675 378 zl rev;
#X obj 675 410 unpack s f;
#X obj 675 347 listfunnel 0;
#X obj 675 493 text set ml3_line\$1;
#X obj 297 137 text define -k ml3_line\$1;
#A set test \; hello \; bye \;;
#X obj 964 294 inlet;
#X obj 675 444 pack s 0;
#X obj 112 258 text tolist ml3_line\$1;
#X obj 112 224 bng 25 250 50 0 empty empty empty 17 7 0 10 #191919 #e1e1e1 #e1e1e1;
#X obj 112 298 zl filter \\\;;
#X obj 112 332 zl group 2;
#X obj 112 370 tosymbol;
#X obj 112 408 list fromsymbol;
#X obj 112 444 zl filter 32;
#X obj 112 478 list tosymbol;
#X obj 114 599 zl group;
#X obj 365 522 text size ml3_line\$1;
#X msg 297 109 click;
#X obj 926 333 text set ml3_line\$1 0 1;
#X obj 1137 332 inlet;
#X text 1137 296 clear entire line;
#X obj 1137 362 bng 25 250 50 0 empty empty empty 17 7 0 10 #191919 #e1e1e1 #e1e1e1;
#X obj 74 644 bng 25 250 50 0 empty empty empty 17 7 0 10 #191919 #e1e1e1 #e1e1e1;
#X msg 1137 400 32;
#X obj 1137 436 list tosymbol;
#X obj 1269 436 inlet;
#X text 955 229 if not init \, then set val, f 14;
#X text 1012 279 select param to set val, f 9;
#X text 1257 399 pass through;
#X obj 221 332 iterate;
#X obj 221 370 tosymbol;
#X obj 799 416 zl rev;
#X obj 799 450 unpack s f;
#X obj 799 385 listfunnel 0;
#X obj 441 378 i;
#X text 618 82 init_params = param-val pairs \; init_simple = simple labels \, no vals;
#X obj 627 244 route init_params init_simple, f 46;
#X obj 497 378 text delete ml3_line\$1;
#X msg 498 344 -1;
#X obj 112 181 t b b anything b, f 77;
#X msg 259 83 init_params test hello bye;
#X obj 387 482 bng 25 250 50 0 empty empty empty 17 7 0 10 #191919 #e1e1e1 #e1e1e1;
#X obj 675 298 t anything b;
#X obj 799 298 t anything b;
#X obj 112 535 selector 3;
#X msg 444 339 1;
#X msg 468 340 2;
#X msg 47 224 zlclear;
#X msg 259 55 init_simple test hello bye;
#X connect 1 0 41 0;
#X connect 2 0 3 0;
#X connect 3 0 8 0;
#X connect 3 1 5 1;
#X connect 4 0 2 0;
#X connect 7 0 20 1;
#X connect 8 0 5 0;
#X connect 9 0 11 0;
#X connect 10 0 9 0;
#X connect 11 0 12 0;
#X connect 11 0 31 0;
#X connect 12 0 13 0;
#X connect 13 0 14 0;
#X connect 14 0 15 0;
#X connect 15 0 16 0;
#X connect 16 0 46 1;
#X connect 17 0 0 0;
#X connect 17 0 24 0;
#X connect 18 0 17 1;
#X connect 19 0 6 0;
#X connect 21 0 23 0;
#X connect 23 0 25 0;
#X connect 25 0 26 0;
#X connect 26 0 0 0;
#X connect 27 0 0 0;
#X connect 31 0 32 0;
#X connect 32 0 46 2;
#X connect 33 0 34 0;
#X connect 34 0 5 0;
#X connect 34 1 5 1;
#X connect 35 0 33 0;
#X connect 36 0 46 3;
#X connect 38 0 44 0;
#X connect 38 1 45 0;
#X connect 38 2 20 0;
#X connect 40 0 39 0;
#X connect 41 0 10 0;
#X connect 41 1 18 0;
#X connect 41 2 38 0;
#X connect 41 3 49 0;
#X connect 42 0 41 0;
#X connect 43 0 18 0;
#X connect 44 0 4 0;
#X connect 44 1 40 0;
#X connect 44 1 47 0;
#X connect 45 0 35 0;
#X connect 45 1 40 0;
#X connect 45 1 48 0;
#X connect 46 0 17 0;
#X connect 47 0 36 0;
#X connect 48 0 36 0;
#X connect 49 0 12 0;
#X connect 49 0 17 0;
#X connect 50 0 41 0;
