#N canvas 733 172 450 300 12;
#X obj 882 506 pack f f f;
#X obj 879 255 inlet;
#X obj 882 565 outlet;
#X obj 879 380 unpack f f f;
#X obj 882 446 * 2;
#X obj 922 446 * 2;
#X obj 960 446 * 2;
#X obj 878 311 route list;
#X connect 0 0 2 0;
#X connect 1 0 7 0;
#X connect 3 0 4 0;
#X connect 3 1 5 0;
#X connect 3 2 6 0;
#X connect 4 0 0 0;
#X connect 5 0 0 1;
#X connect 6 0 0 2;
#X connect 7 0 3 0;
