#N canvas 827 239 527 327 12;
#X obj 429 471 del 50;
#X obj 657 469 bng 20 250 50 0 empty empty empty 0 -10 0 12 #fcfcfc #000000 #000000;
#X floatatom 670 419 5 0 0 0 - - - 0;
#X msg 649 502 0;
#X obj 663 558 text get mset_list;
#X obj 661 611 zl nth 1;
#X obj 661 737 file splitname;
#X obj 662 648 tosymbol;
#X msg 664 768 \$2;
#X obj 662 691 file splitext;
#X obj 692 454 t b f;
#X obj 537 825 text set boot;
#X obj 359 522 s s.write_boot.set;
#X obj 558 718 file splitname;
#X msg 556 752 \$2;
#X obj 552 777 tosymbol;
#X obj 656 825 s ctl.desired_mset;
#X obj 486 471 del 100;
#X obj 483 521 s em.set.fullreload;
#X obj 496 431 t b f;
#X obj 369 257 spigot 0;
#X obj 103 504 spigot 0;
#X obj 51 385 in 28, f 13;
#X obj 105 429 incrementer 0 10, f 18;
#X obj 102 541 i;
#X obj 472 257 r scmgr.msetLoad;
#X obj 210 400 r scmgr.NumberOfMsets;
#X obj 99 580 s scmgr.MsetSelection;
#X obj 459 217 r scmgr.MsetSelection;
#X obj 410 290 bng 25 250 50 0 empty empty empty 17 7 0 10 #191919 #e1e1e1 #e1e1e1;
#X floatatom 434 357 5 0 0 0 - - - 12;
#X obj 897 233 text get mset_list;
#X obj 894 535 zl nth 1, f 18;
#X obj 898 631 file splitname;
#X obj 895 566 tosymbol;
#X msg 898 666 \$2;
#X obj 895 599 file splitext;
#X msg 893 195 0;
#X obj 977 271 zl len;
#X floatatom 977 298 5 0 0 0 - - - 12;
#X obj 980 365 uzi 10;
#X obj 1036 406 + 1;
#X obj 980 404 i 1;
#X msg 1040 364 1;
#X obj 981 332 t b f b;
#X floatatom 981 437 5 0 0 0 - - - 12;
#X obj 898 702 zl group 10, f 23;
#X obj 977 469 t b f;
#X obj 894 506 list, f 6;
#X obj 890 155 bng 25 250 50 0 empty empty empty 17 7 0 10 #191919 #e1e1e1 #e1e1e1;
#X obj 890 126 r scmgr.GetMsetList;
#X obj 900 744 s scmgr.MsetList;
#X obj 441 295 + 1;
#X obj 432 326 i 1;
#X obj 90 323 s ctl.update_text;
#X obj 92 296 del 50;
#X obj 93 173 r ctl.shift_state;
#X obj 99 262 sel 0;
#X obj 517 553 del 500;
#X obj 488 628 s scmgr.select;
#X msg 484 593 1;
#X obj 341 198 r ctl.yes;
#X obj 441 42 r ctl.no;
#X obj 92 36 r scmgr.current_screen;
#X obj 91 68 == 3;
#X obj 86 108 s mset_manager.focus;
#X obj 417 192 r mset_manager.focus;
#X obj 139 462 r mset_manager.focus;
#X obj 248 80 sel 1;
#X obj 259 48 change;
#X obj 242 129 s ctl.load_clrstore_3;
#X obj 339 41 clrstore 3;
#X msg 429 91 clear;
#X obj 246 106 t;
#X obj 1569 294 > 0;
#X obj 1159 437 spigot;
#X obj 1554 356 tgl 20 0 empty empty empty 0 -10 0 12 #fcfcfc #000000 #000000 0 1;
#X obj 1435 339 sel 127;
#X obj 1140 342 sel 127;
#X obj 1343 344 sel 127;
#X msg 1248 382 delete;
#X obj 1541 403 s ctl.tap_func_status;
#X obj 1701 248 r ctl.shift_state;
#X obj 1679 285 sel 1;
#X obj 1745 302 tgl 20 0 empty empty empty 0 -10 0 12 #fcfcfc #000000 #000000 0 1;
#X obj 1248 245 sel 127, f 8;
#X obj 1353 119 ctlin;
#X obj 1406 245 b;
#X obj 1360 185 spigot 1;
#X obj 1248 350 bng 20 250 50 0 empty empty empty 0 -10 0 12 #fcfcfc #000000 #000000;
#X obj 1364 212 sel 106;
#X obj 1394 512 bng 20 250 50 0 empty empty empty 0 -10 0 12 #fcfcfc #000000 #000000;
#X obj 1447 512 bng 20 250 50 0 empty empty empty 0 -10 0 12 #fcfcfc #000000 #000000;
#X obj 1500 514 bng 20 250 50 0 empty empty empty 0 -10 0 12 #fcfcfc #000000 #000000;
#X obj 1388 453 tosymbol;
#X msg 1260 660 yellow;
#X msg 1231 662 1;
#X obj 1326 613 bng 20 250 50 0 empty empty empty 0 -10 0 12 #fcfcfc #000000 #000000;
#X obj 1138 705 bng 20 250 50 0 empty empty empty 0 -10 0 12 #fcfcfc #000000 #000000;
#X msg 1139 754 0;
#X obj 1140 732 del 250;
#X msg 1506 611 9;
#X msg 1478 611 8;
#X msg 1450 611 7;
#X obj 1231 467 sel 0;
#X obj 1231 435 spigot;
#X obj 1397 696 s s.save;
#X obj 1321 696 s s.reload;
#X obj 1396 661 del 25;
#X obj 1323 662 del 50;
#X obj 1244 288 counter 0 0 1;
#X obj 1245 317 sel 1;
#X obj 1256 184 ctl.in 106 33;
#X obj 1341 284 ctl.in 107 33;
#X obj 1138 273 ctl.in 105 33;
#X obj 1438 277 ctl.in 108 33;
#X obj 1599 245 ctl.in 109 33;
#X obj 1561 89 r midich_ml3;
#X obj 1357 881 tosymbol;
#X obj 1357 947 s scmgr.temp;
#X obj 1357 916 prepend temp_simple;
#X obj 1094 138 ctl.in 119 33;
#X obj 1101 190 sel 127;
#X msg 1102 220 get_mset_duration;
#X obj 1466 567 t;
#X obj 1414 570 t;
#X obj 1360 570 t;
#X obj 1558 557 s s.get_duration;
#X obj 1131 310 spigot 0, f 14;
#X obj 1250 216 spigot 0, f 14;
#X obj 1362 158 spigot 0, f 14;
#X obj 1099 164 spigot 0, f 14;
#X obj 1436 307 spigot 0, f 14;
#X obj 1345 313 spigot 0, f 11;
#X obj 1577 270 spigot 0, f 11;
#X obj 1202 775 spigot 0, f 11;
#X obj 1653 86 r mset_manager.focus;
#X obj 1261 735 r mset_manager.focus;
#X obj 426 126 clr 3 1;
#X obj 1108 584 s ctl.load_clrstore_3;
#X obj 1207 806 clr 3, f 20;
#X obj 1359 845 list append mset, f 18;
#X obj 604 65 ctl.in 27 33;
#X obj 681 37 r midich_ml3;
#X text 579 34 shift reloads clr;
#X obj 602 110 spigot 0, f 12;
#X obj 692 73 r mset_manager.focus;
#X obj 595 157 s ctl.load_clrstore_3;
#X obj 99 220 spigot 0, f 12;
#X obj 203 174 r mset_manager.focus;
#X obj 245 243 loadbang;
#X msg 245 268 clear;
#X obj 242 303 clr 3;
#X msg 1140 379 create;
#X obj 1136 549 b;
#X obj 1562 530 b;
#X obj 809 1591 shell;
#X msg 808 1558 rm -rf \$1;
#X text 885 1559 scary!;
#X obj 958 1030 text get mset_list;
#X obj 967 903 r scmgr.MsetSelection;
#X floatatom 971 938 5 0 0 0 - - - 12;
#X obj 970 962 t b f;
#X msg 955 1001 0;
#X obj 871 1325 tosymbol;
#X obj 868 1387 s scmgr.temp;
#X obj 871 1352 prepend temp_simple;
#X obj 1059 1069 r scmgr.MsetSelection;
#X obj 1035 1145 r scmgr.MsetList;
#X obj 1002 1185 list;
#X obj 1015 1222 zl nth 1;
#X obj 809 1503 symbol;
#X obj 841 1140 t s b, f 25;
#X obj 893 1451 onebang;
#X obj 757 1314 r ctl.yes;
#X msg 816 1221 0;
#X msg 762 1384 1;
#X obj 961 1058 tosymbol;
#X obj 916 1194 t b a;
#X obj 877 1263 list append;
#X obj 765 1345 t;
#X obj 333 229 spigot 1;
#X obj 738 1420 pipe 50;
#X obj 1059 1103 + 1;
#X obj 844 1096 symbol, f 19;
#X obj 847 1059 bng 25 250 50 0 empty empty delete\ mset 17 7 0 10 #191919 #e1e1e1 #e1e1e1;
#X obj 178 503 sel 1;
#X obj 870 1292 list append ?!;
#X msg 868 1225 DEL;
#X msg 1435 778 deleting;
#X obj 679 1556 del 100;
#X obj 676 1606 s em.set.fullreload;
#X obj 756 1538 bng 25 250 50 0 empty empty empty 17 7 0 10 #191919 #e1e1e1 #e1e1e1;
#X msg 1348 380 iterate;
#X msg 1512 773 iterating;
#X obj 1390 482 sel create delete iterate get_mset_duration;
#X msg 1453 368 spare;
#X obj 1734 664 id_gen 4;
#X msg 1708 812 touch \$1;
#X obj 1705 748 append_chars .mset;
#X obj 1707 781 prepend_chars sets/;
#X obj 1503 658 i;
#X obj 376 165 r mset_manager.AllowSelection;
#X obj 563 1465 s mset_manager.AllowSelection;
#X obj 1441 815 r mset_manager.msetNameForUI;
#X obj 1851 781 s mset_manager.msetNameForUI;
#X obj 983 1266 s mset_manager.msetNameForUI;
#X text 866 948 delete mset;
#X text 1857 626 create mset;
#X obj 2124 753 r scmgr.MsetList;
#X obj 2111 792 list;
#X obj 2113 861 zl compare;
#X obj 1811 661 s scmgr.GetMsetList;
#X obj 1734 628 t, f 13;
#X obj 1737 698 t s b s, f 64;
#X obj 1923 936 spigot 0;
#X obj 2111 904 sel 0;
#X obj 2111 828 zl filter, f 11;
#X text 2154 892 regenerate if name already exists, f 13;
#X msg 1359 780 creating;
#X obj 1971 1002 shell;
#X obj 1925 968 t b a;
#X obj 1869 1043 s scmgr.GetMsetList;
#X obj 1868 1006 del 100;
#X text 1784 811 todo: this isn't creating the file, f 15;
#X text 2028 967 todo: we need to make sure the mset file has a valid row of data already inside it after it's created, f 18;
#X connect 0 0 12 0;
#X connect 1 0 3 0;
#X connect 2 0 10 0;
#X connect 3 0 4 0;
#X connect 4 0 5 0;
#X connect 5 0 7 0;
#X connect 6 0 8 0;
#X connect 7 0 9 0;
#X connect 7 0 13 0;
#X connect 8 0 16 0;
#X connect 9 0 6 0;
#X connect 10 0 1 0;
#X connect 10 1 5 1;
#X connect 13 0 14 0;
#X connect 14 0 15 0;
#X connect 15 0 11 0;
#X connect 17 0 18 0;
#X connect 17 0 58 0;
#X connect 19 0 17 0;
#X connect 19 0 0 0;
#X connect 19 1 2 0;
#X connect 20 0 29 0;
#X connect 21 0 24 0;
#X connect 22 2 23 0;
#X connect 23 0 21 0;
#X connect 24 0 27 0;
#X connect 25 0 29 0;
#X connect 26 0 23 2;
#X connect 28 0 52 0;
#X connect 29 0 53 0;
#X connect 30 0 19 0;
#X connect 31 0 38 0;
#X connect 31 0 48 1;
#X connect 32 0 34 0;
#X connect 33 0 35 0;
#X connect 34 0 36 0;
#X connect 35 0 46 0;
#X connect 36 0 33 0;
#X connect 37 0 31 0;
#X connect 38 0 39 0;
#X connect 39 0 44 0;
#X connect 40 0 42 0;
#X connect 41 0 42 1;
#X connect 42 0 41 0;
#X connect 42 0 45 0;
#X connect 43 0 42 1;
#X connect 44 0 40 0;
#X connect 44 1 40 1;
#X connect 44 1 46 1;
#X connect 44 2 43 0;
#X connect 45 0 47 0;
#X connect 46 0 51 0;
#X connect 47 0 48 0;
#X connect 47 1 32 1;
#X connect 48 0 32 0;
#X connect 49 0 37 0;
#X connect 50 0 49 0;
#X connect 52 0 53 1;
#X connect 53 0 30 0;
#X connect 55 0 54 0;
#X connect 56 0 148 0;
#X connect 57 0 55 0;
#X connect 58 0 60 0;
#X connect 60 0 59 0;
#X connect 61 0 181 0;
#X connect 63 0 64 0;
#X connect 64 0 65 0;
#X connect 64 0 69 0;
#X connect 66 0 20 1;
#X connect 67 0 21 1;
#X connect 67 0 186 0;
#X connect 68 0 73 0;
#X connect 69 0 68 0;
#X connect 72 0 138 0;
#X connect 73 0 70 0;
#X connect 73 1 72 0;
#X connect 74 0 76 0;
#X connect 75 0 94 0;
#X connect 76 0 75 1;
#X connect 76 0 81 0;
#X connect 76 0 105 1;
#X connect 77 0 196 0;
#X connect 77 1 105 0;
#X connect 78 0 153 0;
#X connect 78 1 105 0;
#X connect 79 0 193 0;
#X connect 79 1 105 0;
#X connect 80 0 75 0;
#X connect 82 0 83 0;
#X connect 82 0 84 0;
#X connect 83 1 76 0;
#X connect 85 0 110 0;
#X connect 85 1 105 0;
#X connect 86 1 130 0;
#X connect 87 0 110 2;
#X connect 88 0 90 0;
#X connect 89 0 80 0;
#X connect 90 1 87 0;
#X connect 91 0 139 0;
#X connect 91 0 126 0;
#X connect 92 0 125 0;
#X connect 92 0 154 0;
#X connect 93 0 154 0;
#X connect 93 0 124 0;
#X connect 94 0 195 0;
#X connect 95 0 140 2;
#X connect 96 0 98 0;
#X connect 96 0 135 0;
#X connect 97 0 96 0;
#X connect 97 0 95 0;
#X connect 97 0 108 0;
#X connect 97 0 109 0;
#X connect 98 0 100 0;
#X connect 99 0 135 0;
#X connect 100 0 99 0;
#X connect 101 0 201 0;
#X connect 102 0 201 0;
#X connect 103 0 201 0;
#X connect 104 0 139 0;
#X connect 105 0 104 0;
#X connect 108 0 106 0;
#X connect 109 0 107 0;
#X connect 110 0 111 0;
#X connect 111 0 89 0;
#X connect 112 0 129 0;
#X connect 113 0 133 0;
#X connect 114 0 128 0;
#X connect 115 0 132 0;
#X connect 116 0 134 0;
#X connect 117 0 112 2;
#X connect 117 0 113 2;
#X connect 117 0 114 2;
#X connect 117 0 115 2;
#X connect 117 0 116 2;
#X connect 117 0 121 2;
#X connect 118 0 120 0;
#X connect 120 0 119 0;
#X connect 121 0 131 0;
#X connect 122 0 123 0;
#X connect 123 0 75 0;
#X connect 124 0 97 0;
#X connect 124 0 194 0;
#X connect 124 1 101 0;
#X connect 125 0 97 0;
#X connect 125 0 189 0;
#X connect 125 1 102 0;
#X connect 125 1 185 0;
#X connect 126 0 97 0;
#X connect 126 0 219 0;
#X connect 126 1 103 0;
#X connect 126 1 213 0;
#X connect 128 0 78 0;
#X connect 129 0 85 0;
#X connect 130 0 88 0;
#X connect 131 0 122 0;
#X connect 132 0 77 0;
#X connect 133 0 79 0;
#X connect 134 0 74 0;
#X connect 135 0 140 0;
#X connect 136 0 128 1;
#X connect 136 0 129 1;
#X connect 136 0 130 1;
#X connect 136 0 131 1;
#X connect 136 0 132 1;
#X connect 136 0 133 1;
#X connect 136 0 134 1;
#X connect 137 0 135 1;
#X connect 141 0 118 0;
#X connect 142 0 145 0;
#X connect 143 0 142 2;
#X connect 145 0 147 0;
#X connect 146 0 145 1;
#X connect 148 0 57 0;
#X connect 149 0 148 1;
#X connect 150 0 151 0;
#X connect 151 0 152 0;
#X connect 153 0 75 0;
#X connect 154 0 139 0;
#X connect 155 0 127 0;
#X connect 157 0 156 0;
#X connect 159 0 177 0;
#X connect 160 0 161 0;
#X connect 161 0 162 0;
#X connect 162 0 163 0;
#X connect 162 1 159 1;
#X connect 163 0 159 0;
#X connect 164 0 166 0;
#X connect 166 0 173 1;
#X connect 166 0 165 0;
#X connect 167 0 183 0;
#X connect 168 0 169 1;
#X connect 169 0 170 0;
#X connect 170 0 178 0;
#X connect 171 0 157 0;
#X connect 171 0 192 0;
#X connect 172 0 171 1;
#X connect 172 1 169 0;
#X connect 173 0 171 0;
#X connect 174 0 180 0;
#X connect 175 0 203 0;
#X connect 176 0 182 0;
#X connect 177 0 184 1;
#X connect 178 0 175 0;
#X connect 178 0 188 0;
#X connect 178 1 179 1;
#X connect 178 1 206 0;
#X connect 179 0 187 0;
#X connect 180 0 176 0;
#X connect 180 1 173 0;
#X connect 181 0 20 0;
#X connect 182 0 203 0;
#X connect 183 0 170 1;
#X connect 184 0 172 0;
#X connect 185 0 184 0;
#X connect 186 0 24 0;
#X connect 187 0 164 0;
#X connect 188 0 179 0;
#X connect 189 0 141 0;
#X connect 190 0 191 0;
#X connect 192 0 190 0;
#X connect 193 0 75 0;
#X connect 194 0 141 0;
#X connect 195 0 91 0;
#X connect 195 1 92 0;
#X connect 195 2 93 0;
#X connect 195 3 155 0;
#X connect 197 0 214 0;
#X connect 198 0 215 0;
#X connect 199 0 200 0;
#X connect 199 0 205 0;
#X connect 200 0 198 0;
#X connect 201 0 140 1;
#X connect 202 0 181 1;
#X connect 204 0 141 1;
#X connect 209 0 210 1;
#X connect 210 0 211 1;
#X connect 210 0 217 0;
#X connect 211 0 215 1;
#X connect 211 0 216 0;
#X connect 213 0 197 0;
#X connect 213 1 212 0;
#X connect 214 0 199 0;
#X connect 214 1 210 0;
#X connect 214 2 217 1;
#X connect 215 0 221 0;
#X connect 216 0 213 0;
#X connect 217 0 211 0;
#X connect 219 0 141 0;
#X connect 221 0 223 0;
#X connect 221 1 220 0;
#X connect 223 0 222 0;
