#N canvas 827 239 527 327 12;
#X obj 429 471 del 50;
#X obj 657 469 bng 20 250 50 0 empty empty empty 0 -10 0 12 #fcfcfc #000000 #000000;
#X floatatom 670 419 5 0 0 0 - - - 0;
#X msg 649 502 0;
#X obj 663 558 text get mset_list;
#X obj 661 611 zl nth 1;
#X obj 661 737 file splitname;
#X obj 662 648 tosymbol;
#X msg 664 768 \$2;
#X obj 662 691 file splitext;
#X obj 692 454 t b f;
#X obj 552 816 text set boot;
#X obj 359 522 s s.write_boot.set;
#X obj 558 718 file splitname;
#X msg 556 752 \$2;
#X obj 552 777 tosymbol;
#X obj 668 804 s ctl.desired_mset;
#X obj 486 471 del 100;
#X obj 483 521 s em.set.fullreload;
#X obj 496 431 t b f;
#X obj 369 257 spigot 0;
#X obj 103 504 spigot 0;
#X obj 51 385 in 28, f 13;
#X obj 105 429 incrementer 0 10, f 18;
#X obj 102 541 i;
#X obj 472 257 r scmgr.msetLoad;
#X obj 210 400 r scmgr.NumberOfMsets;
#X obj 99 580 s scmgr.MsetSelection;
#X obj 443 225 r scmgr.MsetSelection;
#X obj 410 290 bng 25 250 50 0 empty empty empty 17 7 0 10 #191919 #e1e1e1 #e1e1e1;
#X floatatom 434 357 5 0 0 0 - - - 12;
#X obj 897 233 text get mset_list;
#X obj 894 535 zl nth 1, f 18;
#X obj 902 627 file splitname;
#X obj 895 566 tosymbol;
#X msg 902 662 \$2;
#X obj 899 595 file splitext;
#X msg 893 195 0;
#X obj 977 271 zl len;
#X floatatom 977 298 5 0 0 0 - - - 12;
#X obj 980 365 uzi 10;
#X obj 1036 406 + 1;
#X obj 980 404 i 1;
#X msg 1040 364 1;
#X obj 981 332 t b f b;
#X floatatom 981 437 5 0 0 0 - - - 12;
#X obj 902 698 zl group 10, f 23;
#X obj 977 469 t b f;
#X obj 894 506 list, f 6;
#X obj 890 155 bng 25 250 50 0 empty empty empty 17 7 0 10 #191919 #e1e1e1 #e1e1e1;
#X obj 890 126 r scmgr.GetMsetList;
#X obj 904 740 s scmgr.MsetList;
#X obj 441 295 + 1;
#X obj 432 326 i 1;
#X obj 87 265 s ctl.update_text;
#X obj 89 238 del 50;
#X obj 93 173 r ctl.shift_state;
#X obj 96 204 sel 0;
#X obj 517 553 del 500;
#X obj 488 628 s scmgr.select;
#X msg 484 593 1;
#X obj 341 198 r ctl.yes;
#X obj 715 202 r ctl.no;
#X obj 92 36 r scmgr.current_screen;
#X obj 91 68 == 3;
#X obj 86 108 s mset_manager.focus;
#X obj 424 183 r mset_manager.focus;
#X obj 139 462 r mset_manager.focus;
#X obj 248 80 sel 1;
#X obj 259 48 change;
#X obj 242 129 s ctl.load_clrstore_3;
#X obj 339 41 clrstore 3;
#X obj 426 126 clr 1 1;
#X msg 429 91 clear;
#X obj 246 106 t;
#X connect 0 0 12 0;
#X connect 1 0 3 0;
#X connect 2 0 10 0;
#X connect 3 0 4 0;
#X connect 4 0 5 0;
#X connect 5 0 7 0;
#X connect 6 0 8 0;
#X connect 7 0 9 0;
#X connect 7 0 13 0;
#X connect 8 0 16 0;
#X connect 9 0 6 0;
#X connect 10 0 1 0;
#X connect 10 1 5 1;
#X connect 13 0 14 0;
#X connect 14 0 15 0;
#X connect 15 0 11 0;
#X connect 17 0 18 0;
#X connect 17 0 58 0;
#X connect 19 0 17 0;
#X connect 19 0 0 0;
#X connect 19 1 2 0;
#X connect 20 0 29 0;
#X connect 21 0 24 0;
#X connect 22 2 23 0;
#X connect 23 0 21 0;
#X connect 24 0 27 0;
#X connect 25 0 29 0;
#X connect 26 0 23 2;
#X connect 28 0 52 0;
#X connect 29 0 53 0;
#X connect 30 0 19 0;
#X connect 31 0 38 0;
#X connect 31 0 48 1;
#X connect 32 0 34 0;
#X connect 33 0 35 0;
#X connect 34 0 36 0;
#X connect 35 0 46 0;
#X connect 36 0 33 0;
#X connect 37 0 31 0;
#X connect 38 0 39 0;
#X connect 39 0 44 0;
#X connect 40 0 42 0;
#X connect 41 0 42 1;
#X connect 42 0 41 0;
#X connect 42 0 45 0;
#X connect 43 0 42 1;
#X connect 44 0 40 0;
#X connect 44 1 40 1;
#X connect 44 1 46 1;
#X connect 44 2 43 0;
#X connect 45 0 47 0;
#X connect 46 0 51 0;
#X connect 47 0 48 0;
#X connect 47 1 32 1;
#X connect 48 0 32 0;
#X connect 49 0 37 0;
#X connect 50 0 49 0;
#X connect 52 0 53 1;
#X connect 53 0 30 0;
#X connect 55 0 54 0;
#X connect 56 0 57 0;
#X connect 57 0 55 0;
#X connect 58 0 60 0;
#X connect 60 0 59 0;
#X connect 61 0 20 0;
#X connect 63 0 64 0;
#X connect 64 0 65 0;
#X connect 64 0 69 0;
#X connect 66 0 20 1;
#X connect 67 0 21 1;
#X connect 68 0 74 0;
#X connect 69 0 68 0;
#X connect 73 0 72 0;
#X connect 74 0 70 0;
#X connect 74 1 73 0;
