#N canvas 827 239 527 327 12;
#X obj 429 471 del 50;
#X obj 657 469 bng 20 250 50 0 empty empty empty 0 -10 0 12 #fcfcfc #000000 #000000;
#X floatatom 670 419 5 0 0 0 - - - 0;
#X msg 649 502 0;
#X obj 663 558 text get mset_list;
#X obj 661 611 zl nth 1;
#X obj 661 737 file splitname;
#X obj 662 648 tosymbol;
#X msg 664 768 \$2;
#X obj 662 691 file splitext;
#X obj 692 454 t b f;
#X obj 552 816 text set boot;
#X obj 359 522 s s.write_boot.set;
#X obj 558 718 file splitname;
#X msg 556 752 \$2;
#X obj 552 777 tosymbol;
#X obj 668 804 s ctl.desired_mset;
#X obj 486 471 del 100;
#X obj 483 521 s em.set.fullreload;
#X obj 496 431 t b f;
#X obj 369 257 spigot 0;
#X obj 103 504 spigot 0;
#X obj 51 385 in 28, f 13;
#X obj 105 429 incrementer 0 10, f 18;
#X obj 102 541 i;
#X obj 472 257 r scmgr.msetLoad;
#X obj 210 400 r scmgr.NumberOfMsets;
#X obj 99 580 s scmgr.MsetSelection;
#X obj 459 217 r scmgr.MsetSelection;
#X obj 410 290 bng 25 250 50 0 empty empty empty 17 7 0 10 #191919 #e1e1e1 #e1e1e1;
#X floatatom 434 357 5 0 0 0 - - - 12;
#X obj 897 233 text get mset_list;
#X obj 894 535 zl nth 1, f 18;
#X obj 902 627 file splitname;
#X obj 895 566 tosymbol;
#X msg 902 662 \$2;
#X obj 899 595 file splitext;
#X msg 893 195 0;
#X obj 977 271 zl len;
#X floatatom 977 298 5 0 0 0 - - - 12;
#X obj 980 365 uzi 10;
#X obj 1036 406 + 1;
#X obj 980 404 i 1;
#X msg 1040 364 1;
#X obj 981 332 t b f b;
#X floatatom 981 437 5 0 0 0 - - - 12;
#X obj 902 698 zl group 10, f 23;
#X obj 977 469 t b f;
#X obj 894 506 list, f 6;
#X obj 890 155 bng 25 250 50 0 empty empty empty 17 7 0 10 #191919 #e1e1e1 #e1e1e1;
#X obj 890 126 r scmgr.GetMsetList;
#X obj 904 740 s scmgr.MsetList;
#X obj 441 295 + 1;
#X obj 432 326 i 1;
#X obj 90 323 s ctl.update_text;
#X obj 92 296 del 50;
#X obj 93 173 r ctl.shift_state;
#X obj 99 262 sel 0;
#X obj 517 553 del 500;
#X obj 488 628 s scmgr.select;
#X msg 484 593 1;
#X obj 341 198 r ctl.yes;
#X obj 441 42 r ctl.no;
#X obj 92 36 r scmgr.current_screen;
#X obj 91 68 == 3;
#X obj 86 108 s mset_manager.focus;
#X obj 417 192 r mset_manager.focus;
#X obj 139 462 r mset_manager.focus;
#X obj 248 80 sel 1;
#X obj 259 48 change;
#X obj 242 129 s ctl.load_clrstore_3;
#X obj 339 41 clrstore 3;
#X msg 429 91 clear;
#X obj 246 106 t;
#X obj 1569 294 > 0;
#X obj 1159 437 spigot;
#X obj 1554 356 tgl 20 0 empty empty empty 0 -10 0 12 #fcfcfc #000000 #000000 0 1;
#X msg 1421 369 copy;
#X obj 1435 339 sel 127;
#X obj 1140 342 sel 127;
#X obj 1343 344 sel 127;
#X msg 1348 380 paste;
#X msg 1248 382 delete;
#X obj 1592 377 s ctl.tap_func_status;
#X obj 1701 248 r ctl.shift_state;
#X obj 1679 285 sel 1;
#X obj 1745 302 tgl 20 0 empty empty empty 0 -10 0 12 #fcfcfc #000000 #000000 0 1;
#X obj 1248 245 sel 127, f 8;
#X obj 1353 119 ctlin;
#X obj 1406 245 b;
#X obj 1360 185 spigot 1;
#X obj 1248 350 bng 20 250 50 0 empty empty empty 0 -10 0 12 #fcfcfc #000000 #000000;
#X obj 1364 212 sel 106;
#X obj 1392 577 bng 20 250 50 0 empty empty empty 0 -10 0 12 #fcfcfc #000000 #000000;
#X obj 1414 497 bng 20 250 50 0 empty empty empty 0 -10 0 12 #fcfcfc #000000 #000000;
#X obj 1474 498 bng 20 250 50 0 empty empty empty 0 -10 0 12 #fcfcfc #000000 #000000;
#X obj 1523 497 bng 20 250 50 0 empty empty empty 0 -10 0 12 #fcfcfc #000000 #000000;
#X obj 1360 434 tosymbol;
#X msg 1202 905 yellow;
#X msg 1153 909 1;
#X msg 1268 856 10;
#X obj 1339 849 bng 20 250 50 0 empty empty empty 0 -10 0 12 #fcfcfc #000000 #000000;
#X obj 1115 937 bng 20 250 50 0 empty empty empty 0 -10 0 12 #fcfcfc #000000 #000000;
#X msg 1127 999 0;
#X obj 1117 964 del 250;
#X msg 1229 858 9;
#X msg 1194 858 8;
#X msg 1159 860 7;
#X obj 1231 467 sel 0;
#X obj 1231 435 spigot;
#X obj 2011 716 text get set;
#X obj 2012 670 i;
#X obj 2014 858 text insert set;
#X obj 2231 760 i;
#X obj 2226 792 + 1;
#X msg 2012 786 0;
#X obj 1344 956 s s.save;
#X obj 1263 956 s s.reload;
#X obj 1338 921 del 25;
#X obj 1265 922 del 50;
#X obj 2240 979 s s.seek_seg;
#X obj 2247 946 i;
#X obj 2102 978 s ctl.update_text;
#X obj 2173 933 bng 20 250 50 0 empty empty empty 0 -10 0 12 #fcfcfc #000000 #000000;
#X obj 2243 897 + 1;
#X obj 2215 858 del 75;
#X obj 2174 907 del 25;
#X obj 1244 288 counter 0 0 1;
#X obj 1245 317 sel 1;
#X obj 1973 621 t b b b;
#X obj 2719 842 text get set;
#X obj 2485 1174 zl filter;
#X obj 2616 1174 zl filter;
#X msg 2484 1006 A01 A02 A03 A04 A05 A06 A07 A08 A09 A10 A11 A12 A13 A14 A15 A16 B01 B02 B03 B04 B05 B06 B07 B08 B09 B10 B11 B12 B13 B14 B15 B16 C01 C02 C03 C04 C05 C06 C07 C08 C09 C10 C11 C12 C13 C14 C15 C16 D01 D02 D03 D04 D05 D06 D07 D08 D09 D10 D11 D12 D13 D14 D15 D16 E01 E02 E03 E04 E05 E06 E07 E08 E09 E10 E11 E12 E13 E14 E15 E16 F01 F02 F03 F04 F05 F06 F07 F08 F09 F10 F11 F12 F13 F14 F15 F16 G01 G02 G03 G04 G05 G06 G07 G08 G09 G10 G11 G12 G13 G14 G15 G16 H01 H02 H03 H04 H05 H06 H07 H08 H09 H10 H11 H12 H13 H14 H15 H16, f 72;
#X obj 2565 879 bng 20 250 50 0 empty empty empty 0 -10 0 12 #fcfcfc #000000 #000000;
#X obj 2610 971 list;
#X obj 2656 977 list;
#X obj 2731 569 text size set;
#X obj 2696 663 uzi;
#X floatatom 2728 601 5 0 0 0 - - - 0;
#X obj 2704 699 counter 0 0;
#X obj 2757 660 - 1;
#X obj 2715 631 t f f;
#X floatatom 2699 733 5 0 0 0 - - - 0;
#X obj 2709 769 t f b;
#X msg 2736 804 1;
#X obj 2725 880 zl nth 1;
#X obj 2733 923 zl group;
#X obj 2843 845 text get set;
#X floatatom 2823 736 5 0 0 0 - - - 0;
#X obj 2833 772 t f b, f 7;
#X obj 2849 883 zl nth 1;
#X obj 2857 926 zl group;
#X msg 2859 806 3;
#X msg 2918 888 zlclear;
#X obj 2723 534 bng 20 250 50 0 empty empty empty 0 -10 0 12 #fcfcfc #000000 #000000;
#X obj 2488 1210 zl nth 1;
#X obj 2613 1208 zl nth 1;
#X obj 2452 1333 symbol;
#X obj 2564 907 t b b b b;
#X obj 2414 1222 t b b;
#X obj 2449 1461 s s.write_seg_data;
#X obj 2560 847 del 500;
#X msg 2554 1368 mnm \$1;
#X msg 2455 1381 md \$1;
#X obj 2591 1416 print;
#X obj 2553 1326 symbol;
#X obj 2593 1266 tosymbol;
#X obj 2509 1261 tosymbol;
#X obj 1898 491 i;
#X obj 2470 574 s t.clock_toggle;
#X obj 2563 391 r ctl.shift_state;
#X msg 2560 492 1;
#X obj 2544 529 pipe 500;
#X text 2456 342 stop clock for a bit while loading pgm... fixes 'sysex error' on mcl loads for now, f 29;
#X obj 2460 463 r s.seek_seg;
#X msg 2471 537 0;
#X obj 2469 504 bng 20 250 50 0 empty empty empty 0 -10 0 12 #fcfcfc #000000 #000000;
#X msg 2637 492 clear;
#X obj 2562 419 t f b;
#X obj 2561 453 sel 0;
#X obj 1256 184 ctl.in 106 33;
#X obj 1341 284 ctl.in 107 33;
#X obj 1138 273 ctl.in 105 33;
#X obj 1438 277 ctl.in 108 33;
#X obj 1599 245 ctl.in 109 33;
#X obj 1307 34 r midich_ml3;
#X obj 828 979 tosymbol;
#X obj 828 1045 s scmgr.temp;
#X obj 828 1014 prepend temp_simple;
#X msg 901 912 pasted;
#X msg 963 912 copied;
#X obj 1071 90 ctl.in 119 33;
#X obj 1078 142 sel 127;
#X msg 1079 172 get_mset_duration;
#X obj 1283 804 t;
#X obj 1236 808 t;
#X obj 1192 808 t;
#X obj 1143 815 t;
#X obj 1579 522 s s.get_duration;
#X obj 2365 863 counter 0 0 1;
#X obj 2364 892 sel 0 1;
#X obj 2397 827 bng 25 250 50 0 empty empty empty 17 7 0 10 #191919 #e1e1e1 #e1e1e1;
#X obj 2366 826 bng 25 250 50 0 empty empty empty 17 7 0 10 #191919 #e1e1e1 #e1e1e1;
#X obj 2377 663 ctlin;
#X obj 2455 753 sel 105;
#X obj 2451 726 spigot 1;
#X obj 2464 663 r ctl.tap_func_status;
#X obj 2499 694 == 0;
#X obj 2429 1129 bng 25 250 50 0 empty empty commit 17 7 0 10 #191919 #e1e1e1 #e1e1e1;
#X obj 2779 1384 s scmgr.temp;
#X obj 2711 1396 print;
#X obj 2741 1227 t b s;
#X obj 2730 1284 join;
#X msg 2722 1343 temp_simple MD: \$1 MNM: \$2;
#X obj 2388 1016 spigot 0;
#X obj 2362 942 t;
#X obj 2405 939 t;
#X msg 2379 972 0;
#X msg 2421 972 1;
#X text 2148 1019 you now have to double press insert in order to commit the insert. pressing it only once will now preview where the next available slot is, f 31;
#X obj 1131 310 spigot 0, f 14;
#X obj 1250 216 spigot 0, f 14;
#X obj 1362 158 spigot 0, f 14;
#X obj 1076 116 spigot 0, f 14;
#X obj 1436 307 spigot 0, f 14;
#X obj 1345 313 spigot 0, f 11;
#X obj 1577 270 spigot 0, f 11;
#X obj 1173 993 spigot 0, f 11;
#X obj 2370 695 spigot 0, f 11;
#X obj 1477 54 r mset_manager.focus;
#X obj 2438 633 r mset_manager.focus;
#X obj 1278 1005 r mset_manager.focus;
#X obj 426 126 clr 3 1;
#X obj 1194 618 s ctl.load_clrstore_3;
#X obj 1178 1024 clr 3;
#X obj 2031 375 text define mset_data_buffer;
#X obj 828 945 list append mset;
#X obj 2013 823 text get mset_data_buffer;
#X obj 2011 744 text set mset_data_buffer;
#X text 2012 682 todo: this needs to be 'all' segs in order to copy msets, f 28;
#X msg 828 909 created;
#X obj 604 65 ctl.in 27 33;
#X obj 681 37 r midich_ml3;
#X text 579 35 shift reloads clr;
#X obj 602 110 spigot 0, f 12;
#X obj 692 73 r mset_manager.focus;
#X obj 595 157 s ctl.load_clrstore_3;
#X obj 99 220 spigot 0, f 12;
#X obj 203 174 r mset_manager.focus;
#X obj 245 243 loadbang;
#X msg 245 268 clear;
#X obj 242 303 clr 3;
#X msg 1140 379 create;
#X obj 1364 466 sel create delete paste copy get_mset_duration;
#X obj 1337 536 b;
#X obj 1583 495 b;
#X obj 1402 1475 shell;
#X msg 1384 1437 rm -rf \$1;
#X text 1461 1439 scary!;
#X obj 1539 923 text get mset_list;
#X obj 1548 796 r scmgr.MsetSelection;
#X obj 1389 1517 print;
#X floatatom 1552 831 5 0 0 0 - - - 12;
#X obj 1551 855 t b f;
#X msg 1536 894 0;
#X obj 1493 1169 tosymbol;
#X obj 1490 1231 s scmgr.temp;
#X obj 1493 1196 prepend temp_simple;
#X obj 1788 988 r scmgr.MsetSelection;
#X obj 1657 989 r scmgr.MsetList;
#X obj 1624 1029 list;
#X obj 1637 1066 zl nth 1;
#X obj 1385 1382 symbol;
#X obj 1463 984 t s b, f 25;
#X obj 1515 1295 onebang;
#X obj 1353 1150 r ctl.yes;
#X msg 1438 1065 0;
#X msg 1358 1220 1;
#X obj 1542 951 tosymbol;
#X obj 1538 1038 t b a;
#X obj 1499 1107 list append;
#X obj 1361 1181 t;
#X obj 333 229 spigot 1;
#X obj 1334 1256 pipe 50;
#X obj 1776 1033 + 1;
#X obj 1466 940 symbol;
#X obj 1469 903 bng 25 250 50 0 empty empty delete\ mset 17 7 0 10 #191919 #e1e1e1 #e1e1e1;
#X obj 178 503 sel 1;
#X obj 1492 1136 list append ?!;
#X msg 1490 1069 DEL;
#X obj 1530 1481 tosymbol;
#X obj 1530 1547 s scmgr.temp;
#X obj 1530 1516 prepend temp_simple;
#X obj 1530 1447 list append mset;
#X msg 1530 1411 deleting;
#X obj 1255 1435 del 100;
#X obj 1252 1485 s em.set.fullreload;
#X text 1024 1444 todo: potential issue where boot.set points to a set that no longer exists, f 33;
#X obj 1332 1417 bng 25 250 50 0 empty empty empty 17 7 0 10 #191919 #e1e1e1 #e1e1e1;
#X connect 0 0 12 0;
#X connect 1 0 3 0;
#X connect 2 0 10 0;
#X connect 3 0 4 0;
#X connect 4 0 5 0;
#X connect 5 0 7 0;
#X connect 6 0 8 0;
#X connect 7 0 9 0;
#X connect 7 0 13 0;
#X connect 8 0 16 0;
#X connect 9 0 6 0;
#X connect 10 0 1 0;
#X connect 10 1 5 1;
#X connect 13 0 14 0;
#X connect 14 0 15 0;
#X connect 15 0 11 0;
#X connect 17 0 18 0;
#X connect 17 0 58 0;
#X connect 19 0 17 0;
#X connect 19 0 0 0;
#X connect 19 1 2 0;
#X connect 20 0 29 0;
#X connect 21 0 24 0;
#X connect 22 2 23 0;
#X connect 23 0 21 0;
#X connect 24 0 27 0;
#X connect 25 0 29 0;
#X connect 26 0 23 2;
#X connect 28 0 52 0;
#X connect 29 0 53 0;
#X connect 30 0 19 0;
#X connect 31 0 38 0;
#X connect 31 0 48 1;
#X connect 32 0 34 0;
#X connect 33 0 35 0;
#X connect 34 0 36 0;
#X connect 35 0 46 0;
#X connect 36 0 33 0;
#X connect 37 0 31 0;
#X connect 38 0 39 0;
#X connect 39 0 44 0;
#X connect 40 0 42 0;
#X connect 41 0 42 1;
#X connect 42 0 41 0;
#X connect 42 0 45 0;
#X connect 43 0 42 1;
#X connect 44 0 40 0;
#X connect 44 1 40 1;
#X connect 44 1 46 1;
#X connect 44 2 43 0;
#X connect 45 0 47 0;
#X connect 46 0 51 0;
#X connect 47 0 48 0;
#X connect 47 1 32 1;
#X connect 48 0 32 0;
#X connect 49 0 37 0;
#X connect 50 0 49 0;
#X connect 52 0 53 1;
#X connect 53 0 30 0;
#X connect 55 0 54 0;
#X connect 56 0 248 0;
#X connect 57 0 55 0;
#X connect 58 0 60 0;
#X connect 60 0 59 0;
#X connect 61 0 283 0;
#X connect 63 0 64 0;
#X connect 64 0 65 0;
#X connect 64 0 69 0;
#X connect 66 0 20 1;
#X connect 67 0 21 1;
#X connect 67 0 288 0;
#X connect 68 0 73 0;
#X connect 69 0 68 0;
#X connect 72 0 233 0;
#X connect 73 0 70 0;
#X connect 73 1 72 0;
#X connect 74 0 76 0;
#X connect 75 0 97 0;
#X connect 76 0 75 1;
#X connect 76 0 83 0;
#X connect 76 0 109 1;
#X connect 77 0 75 0;
#X connect 78 0 77 0;
#X connect 78 1 109 0;
#X connect 79 0 253 0;
#X connect 79 1 109 0;
#X connect 80 0 81 0;
#X connect 80 1 109 0;
#X connect 81 0 75 0;
#X connect 82 0 75 0;
#X connect 84 0 85 0;
#X connect 84 0 86 0;
#X connect 85 1 76 0;
#X connect 87 0 127 0;
#X connect 87 1 109 0;
#X connect 88 1 223 0;
#X connect 89 0 127 2;
#X connect 90 0 92 0;
#X connect 91 0 82 0;
#X connect 92 1 89 0;
#X connect 93 0 125 0;
#X connect 93 0 129 0;
#X connect 93 0 198 0;
#X connect 93 0 234 0;
#X connect 94 0 197 0;
#X connect 94 0 255 0;
#X connect 94 0 287 0;
#X connect 95 0 115 0;
#X connect 95 0 125 0;
#X connect 95 0 196 0;
#X connect 95 0 255 0;
#X connect 96 0 111 0;
#X connect 96 0 195 0;
#X connect 96 0 255 0;
#X connect 97 0 254 0;
#X connect 98 0 235 2;
#X connect 99 0 102 0;
#X connect 99 0 228 0;
#X connect 100 0 235 1;
#X connect 101 0 99 0;
#X connect 101 0 98 0;
#X connect 101 0 118 0;
#X connect 101 0 119 0;
#X connect 102 0 104 0;
#X connect 103 0 228 0;
#X connect 104 0 103 0;
#X connect 105 0 235 1;
#X connect 106 0 235 1;
#X connect 107 0 235 1;
#X connect 108 0 234 0;
#X connect 109 0 108 0;
#X connect 110 0 239 0;
#X connect 111 0 110 0;
#X connect 113 0 114 0;
#X connect 114 0 112 1;
#X connect 114 0 124 0;
#X connect 115 0 238 0;
#X connect 118 0 116 0;
#X connect 119 0 117 0;
#X connect 121 0 120 0;
#X connect 123 0 122 0;
#X connect 124 0 121 1;
#X connect 125 0 121 0;
#X connect 125 0 126 0;
#X connect 126 0 123 0;
#X connect 127 0 128 0;
#X connect 128 0 91 0;
#X connect 129 0 162 0;
#X connect 129 1 115 0;
#X connect 129 2 111 0;
#X connect 130 0 146 0;
#X connect 131 0 156 0;
#X connect 132 0 157 0;
#X connect 133 0 131 0;
#X connect 133 0 132 0;
#X connect 134 0 159 0;
#X connect 135 0 131 1;
#X connect 136 0 132 1;
#X connect 137 0 139 0;
#X connect 138 0 140 0;
#X connect 139 0 142 0;
#X connect 140 0 143 0;
#X connect 140 0 149 0;
#X connect 141 0 140 4;
#X connect 142 0 138 0;
#X connect 142 1 141 0;
#X connect 142 1 147 1;
#X connect 142 1 152 1;
#X connect 143 0 144 0;
#X connect 144 0 130 0;
#X connect 144 1 145 0;
#X connect 145 0 130 1;
#X connect 146 0 147 0;
#X connect 147 0 135 1;
#X connect 148 0 151 0;
#X connect 149 0 150 0;
#X connect 150 0 148 0;
#X connect 150 1 153 0;
#X connect 151 0 152 0;
#X connect 152 0 136 1;
#X connect 153 0 148 1;
#X connect 154 0 152 0;
#X connect 154 0 147 0;
#X connect 155 0 137 0;
#X connect 156 0 168 0;
#X connect 157 0 167 0;
#X connect 158 0 164 0;
#X connect 159 0 215 0;
#X connect 159 1 133 0;
#X connect 159 2 136 0;
#X connect 159 2 135 0;
#X connect 159 3 155 0;
#X connect 160 0 158 0;
#X connect 160 1 166 0;
#X connect 162 0 134 0;
#X connect 163 0 161 0;
#X connect 163 0 165 0;
#X connect 164 0 161 0;
#X connect 164 0 165 0;
#X connect 166 0 163 0;
#X connect 167 0 166 1;
#X connect 167 0 212 0;
#X connect 168 0 158 1;
#X connect 168 0 213 0;
#X connect 169 0 113 0;
#X connect 169 0 111 1;
#X connect 171 0 179 0;
#X connect 172 0 173 0;
#X connect 173 0 170 0;
#X connect 175 0 177 0;
#X connect 176 0 170 0;
#X connect 177 0 176 0;
#X connect 178 0 173 0;
#X connect 179 0 180 0;
#X connect 179 1 178 0;
#X connect 180 0 172 0;
#X connect 181 0 222 0;
#X connect 182 0 226 0;
#X connect 183 0 221 0;
#X connect 184 0 225 0;
#X connect 185 0 227 0;
#X connect 186 0 181 2;
#X connect 186 0 182 2;
#X connect 186 0 183 2;
#X connect 186 0 184 2;
#X connect 186 0 185 2;
#X connect 186 0 192 2;
#X connect 187 0 189 0;
#X connect 189 0 188 0;
#X connect 190 0 237 0;
#X connect 191 0 237 0;
#X connect 192 0 224 0;
#X connect 193 0 194 0;
#X connect 194 0 75 0;
#X connect 195 0 101 0;
#X connect 195 0 191 0;
#X connect 195 1 100 0;
#X connect 196 0 101 0;
#X connect 196 0 190 0;
#X connect 196 1 105 0;
#X connect 197 0 101 0;
#X connect 197 1 106 0;
#X connect 198 0 101 0;
#X connect 198 0 241 0;
#X connect 198 1 107 0;
#X connect 200 0 201 0;
#X connect 201 0 216 0;
#X connect 201 1 217 0;
#X connect 202 0 200 2;
#X connect 203 0 200 0;
#X connect 204 1 229 0;
#X connect 205 1 202 0;
#X connect 206 0 205 0;
#X connect 207 0 208 0;
#X connect 208 0 206 1;
#X connect 209 0 160 0;
#X connect 212 0 213 0;
#X connect 212 1 213 1;
#X connect 213 0 214 0;
#X connect 214 0 211 0;
#X connect 214 0 210 0;
#X connect 215 0 209 0;
#X connect 216 0 134 0;
#X connect 216 1 218 0;
#X connect 217 0 93 0;
#X connect 217 1 219 0;
#X connect 218 0 215 1;
#X connect 219 0 215 1;
#X connect 221 0 79 0;
#X connect 222 0 87 0;
#X connect 223 0 90 0;
#X connect 224 0 193 0;
#X connect 225 0 78 0;
#X connect 226 0 80 0;
#X connect 227 0 74 0;
#X connect 228 0 235 0;
#X connect 229 0 206 0;
#X connect 230 0 221 1;
#X connect 230 0 222 1;
#X connect 230 0 223 1;
#X connect 230 0 224 1;
#X connect 230 0 225 1;
#X connect 230 0 226 1;
#X connect 230 0 227 1;
#X connect 231 0 229 1;
#X connect 232 0 228 1;
#X connect 237 0 187 0;
#X connect 238 0 112 0;
#X connect 241 0 237 0;
#X connect 242 0 245 0;
#X connect 243 0 242 2;
#X connect 245 0 247 0;
#X connect 246 0 245 1;
#X connect 248 0 57 0;
#X connect 249 0 248 1;
#X connect 250 0 251 0;
#X connect 251 0 252 0;
#X connect 253 0 75 0;
#X connect 254 0 203 0;
#X connect 254 1 94 0;
#X connect 254 2 95 0;
#X connect 254 3 96 0;
#X connect 254 4 256 0;
#X connect 255 0 234 0;
#X connect 256 0 199 0;
#X connect 258 0 257 0;
#X connect 260 0 279 0;
#X connect 261 0 263 0;
#X connect 263 0 264 0;
#X connect 264 0 265 0;
#X connect 264 1 260 1;
#X connect 265 0 260 0;
#X connect 266 0 268 0;
#X connect 268 0 275 1;
#X connect 268 0 267 0;
#X connect 269 0 285 0;
#X connect 270 0 271 1;
#X connect 271 0 272 0;
#X connect 272 0 280 0;
#X connect 273 0 258 0;
#X connect 273 0 299 0;
#X connect 274 0 273 1;
#X connect 274 1 271 0;
#X connect 275 0 273 0;
#X connect 275 0 295 0;
#X connect 276 0 282 0;
#X connect 277 0 283 1;
#X connect 278 0 284 0;
#X connect 279 0 286 1;
#X connect 280 0 277 0;
#X connect 280 0 290 0;
#X connect 280 1 281 1;
#X connect 280 1 294 1;
#X connect 281 0 289 0;
#X connect 282 0 278 0;
#X connect 282 1 275 0;
#X connect 283 0 20 0;
#X connect 284 0 283 1;
#X connect 285 0 272 1;
#X connect 286 0 274 0;
#X connect 287 0 286 0;
#X connect 288 0 24 0;
#X connect 289 0 266 0;
#X connect 290 0 281 0;
#X connect 291 0 293 0;
#X connect 293 0 292 0;
#X connect 294 0 291 0;
#X connect 295 0 294 0;
#X connect 296 0 297 0;
#X connect 299 0 296 0;
