#N canvas 1500 1053 1679 846 12;
#X obj 429 471 del 50;
#X floatatom 670 419 5 0 0 0 - - - 0;
#X obj 646 756 tosymbol;
#X obj 578 850 text set boot;
#X obj 359 522 s s.write_boot.set;
#X obj 729 813 s ctl.desired_mset;
#X obj 486 471 del 100;
#X obj 484 522 s em.set.fullreload;
#X obj 496 431 t b f;
#X obj 369 257 spigot 0;
#X obj 103 504 spigot 0;
#X obj 51 385 in 28, f 13;
#X obj 105 429 incrementer 0 10, f 18;
#X obj 102 541 i;
#X obj 479 245 r scmgr.msetLoad;
#X obj 160 386 r scmgr.NumberOfMsets;
#X obj 459 217 r scmgr.MsetSelection;
#X obj 410 290 bng 25 250 50 0 empty empty empty 17 7 0 10 #191919 #e1e1e1 #e1e1e1;
#X floatatom 434 357 5 0 0 0 - - - 12;
#X obj 897 233 text get mset_list;
#X obj 894 535 zl nth 1, f 18;
#X obj 898 631 file splitname;
#X obj 895 566 tosymbol;
#X msg 898 666 \$2;
#X obj 895 599 file splitext;
#X msg 893 195 0;
#X obj 977 271 zl len;
#X floatatom 977 298 5 0 0 0 - - - 12;
#X obj 980 365 uzi 10;
#X obj 1036 406 + 1;
#X obj 980 404 i 1;
#X msg 1040 364 1;
#X obj 981 332 t b f b;
#X floatatom 981 437 5 0 0 0 - - - 12;
#X obj 898 702 zl group 10, f 23;
#X obj 977 469 t b f;
#X obj 894 506 list, f 6;
#X obj 890 155 bng 25 250 50 0 empty empty empty 17 7 0 10 #191919 #e1e1e1 #e1e1e1;
#X obj 890 126 r scmgr.GetMsetList;
#X obj 900 744 s scmgr.MsetList;
#X obj 441 295 + 1;
#X obj 432 326 i 1;
#X obj 90 323 s ctl.update_text;
#X obj 92 296 del 50;
#X obj 93 173 r ctl.shift_state;
#X obj 99 262 sel 0;
#X obj 202 733 s scmgr.select;
#X msg 207 702 1;
#X obj 341 198 r ctl.yes;
#X obj 441 42 r ctl.no;
#X obj 92 36 r scmgr.current_screen;
#X obj 91 68 == 3;
#X obj 86 108 s mset_manager.focus;
#X obj 417 192 r mset_manager.focus;
#X obj 139 462 r mset_manager.focus;
#X obj 248 80 sel 1;
#X obj 259 48 change;
#X obj 242 129 s ctl.load_clrstore_3;
#X obj 339 41 clrstore 3;
#X msg 429 91 clear;
#X obj 246 106 t;
#X obj 1569 294 > 0;
#X obj 1159 437 spigot;
#X obj 1554 356 tgl 20 0 empty empty empty 0 -10 0 12 #fcfcfc #000000 #000000 0 1;
#X obj 1435 339 sel 127;
#X obj 1140 342 sel 127;
#X obj 1343 344 sel 127;
#X msg 1248 382 delete;
#X obj 1541 403 s ctl.tap_func_status;
#X obj 1701 248 r ctl.shift_state;
#X obj 1679 285 sel 1;
#X obj 1745 302 tgl 20 0 empty empty empty 0 -10 0 12 #fcfcfc #000000 #000000 0 1;
#X obj 1248 245 sel 127, f 8;
#X obj 1353 119 ctlin;
#X obj 1406 245 b;
#X obj 1360 185 spigot 1;
#X obj 1248 350 bng 20 250 50 0 empty empty empty 0 -10 0 12 #fcfcfc #000000 #000000;
#X obj 1364 212 sel 106;
#X obj 1394 512 bng 20 250 50 0 empty empty empty 0 -10 0 12 #fcfcfc #000000 #000000;
#X obj 1447 512 bng 20 250 50 0 empty empty empty 0 -10 0 12 #fcfcfc #000000 #000000;
#X obj 1500 514 bng 20 250 50 0 empty empty empty 0 -10 0 12 #fcfcfc #000000 #000000;
#X obj 1388 453 tosymbol;
#X msg 1260 660 yellow;
#X msg 1231 662 1;
#X obj 1326 613 bng 20 250 50 0 empty empty empty 0 -10 0 12 #fcfcfc #000000 #000000;
#X obj 1138 705 bng 20 250 50 0 empty empty empty 0 -10 0 12 #fcfcfc #000000 #000000;
#X msg 1139 754 0;
#X obj 1140 732 del 250;
#X msg 1506 611 9;
#X msg 1478 611 8;
#X msg 1450 611 7;
#X obj 1231 467 sel 0;
#X obj 1231 435 spigot;
#X obj 1397 696 s s.save;
#X obj 1321 696 s s.reload;
#X obj 1396 661 del 25;
#X obj 1323 662 del 50;
#X obj 1244 288 counter 0 0 1;
#X obj 1245 317 sel 1;
#X obj 1256 184 ctl.in 106 33;
#X obj 1341 284 ctl.in 107 33;
#X obj 1138 273 ctl.in 105 33;
#X obj 1438 277 ctl.in 108 33;
#X obj 1599 245 ctl.in 109 33;
#X obj 1561 89 r midich_ml3;
#X obj 1357 881 tosymbol;
#X obj 1357 947 s scmgr.temp;
#X obj 1357 916 prepend temp_simple;
#X obj 1094 138 ctl.in 119 33;
#X obj 1101 190 sel 127;
#X msg 1102 220 get_mset_duration;
#X obj 1437 552 t;
#X obj 1558 557 s s.get_duration;
#X obj 1131 310 spigot 0, f 14;
#X obj 1250 216 spigot 0, f 14;
#X obj 1362 158 spigot 0, f 14;
#X obj 1099 164 spigot 0, f 14;
#X obj 1436 307 spigot 0, f 14;
#X obj 1345 313 spigot 0, f 11;
#X obj 1577 270 spigot 0, f 11;
#X obj 1202 775 spigot 0, f 11;
#X obj 1653 86 r mset_manager.focus;
#X obj 1261 735 r mset_manager.focus;
#X obj 426 126 clr 3 1;
#X obj 1108 584 s ctl.load_clrstore_3;
#X obj 1207 806 clr 3, f 20;
#X obj 1359 845 list append mset, f 18;
#X obj 604 65 ctl.in 27 33;
#X obj 681 37 r midich_ml3;
#X text 579 21 shift reloads clr;
#X obj 602 110 spigot 0, f 12;
#X obj 692 73 r mset_manager.focus;
#X obj 595 157 s ctl.load_clrstore_3;
#X obj 99 220 spigot 0, f 12;
#X obj 203 174 r mset_manager.focus;
#X obj 245 243 loadbang;
#X msg 245 268 clear;
#X obj 242 303 clr 3;
#X msg 1140 379 create;
#X obj 1136 549 b;
#X obj 1562 530 b;
#X obj 852 1719 shell;
#X msg 862 1664 rm -rf \$1;
#X text 912 1714 scary!;
#X obj 918 1382 tosymbol;
#X obj 915 1444 s scmgr.temp;
#X obj 918 1409 prepend temp_simple;
#X obj 1107 1009 r scmgr.MsetSelection;
#X obj 1048 1238 list;
#X obj 1061 1275 zl nth 1;
#X obj 856 1560 symbol;
#X obj 887 1193 t s b, f 25;
#X obj 940 1508 onebang;
#X obj 804 1371 r ctl.yes;
#X msg 863 1278 0;
#X msg 809 1441 1;
#X obj 963 1251 t b a;
#X obj 924 1320 list append;
#X obj 812 1402 t;
#X obj 333 229 spigot 1;
#X obj 785 1477 pipe 50;
#X obj 1115 1044 + 1;
#X obj 890 1149 symbol, f 19;
#X obj 893 1112 bng 25 250 50 0 empty empty delete\ mset 17 7 0 10 #191919 #e1e1e1 #e1e1e1;
#X obj 178 503 sel 1;
#X obj 917 1349 list append ?!;
#X msg 915 1282 DEL;
#X obj 803 1595 bng 25 250 50 0 empty empty empty 17 7 0 10 #191919 #e1e1e1 #e1e1e1;
#X msg 1348 380 iterate;
#X msg 1434 780 iterating;
#X obj 1390 482 sel create delete iterate get_mset_duration;
#X msg 1453 368 spare;
#X obj 1705 748 append_chars .mset;
#X obj 1503 658 i;
#X obj 376 165 r mset_manager.AllowSelection;
#X obj 610 1522 s mset_manager.AllowSelection;
#X obj 1467 813 r mset_manager.msetNameForUI;
#X obj 1846 747 s mset_manager.msetNameForUI;
#X obj 1030 1323 s mset_manager.msetNameForUI;
#X text 1014 1090 delete mset;
#X text 1858 611 create mset;
#X obj 2124 753 r scmgr.MsetList;
#X obj 2111 792 list;
#X obj 2115 863 zl compare;
#X obj 1811 661 s scmgr.GetMsetList;
#X obj 1735 626 t, f 13;
#X obj 1737 698 t s b s, f 64;
#X obj 1507 1377 spigot 0, f 64;
#X obj 2147 900 sel 0;
#X obj 2111 828 zl filter, f 11;
#X text 2196 1019 regenerate if name already exists, f 14;
#X msg 1359 780 creating;
#X text 1863 760 todo: make dynamic? with prod-dev toggle, f 20;
#X msg 1702 836 write \$1;
#X obj 2269 698 text insert mset_temp;
#X msg 2269 622 list md A01 mnm A01 rep 1 len 32 tin 0 bpm 150 bpmr 0 poly 0 seq 0 seqto 1, f 20;
#X msg 2298 593 -1;
#X obj 2271 561 t;
#X obj 1638 1499 symbol;
#X obj 1669 1454 tosymbol;
#X obj 1656 1575 shell;
#X obj 1650 1538 fromsymbol;
#X obj 1745 1448 s em.set.mset_temp;
#X obj 2296 731 text delete mset_temp;
#X obj 1509 1409 t b b a, f 36;
#X obj 1615 1453 del 50;
#X msg 1646 1326 mv \$1 \$2;
#X obj 1646 1289 pack s s;
#X obj 1650 1194 t s s, f 7;
#X obj 1703 786 t s s, f 10;
#X msg 1036 1481 temp_simple deleting...;
#X obj 240 662 del 500;
#X obj 345 716 t b a;
#X obj 430 425 b;
#X text 1330 1460 load new mset after creation;
#X obj 1405 1503 del 1000;
#X floatatom 1114 1077 5 0 0 0 - - - 12;
#X obj 1071 952 r scmgr.MsetList;
#X obj 987 969 list;
#X obj 963 1012 zl nth;
#X obj 967 1052 tosymbol;
#X obj 898 912 t, f 13;
#X obj 742 503 r scmgr.MsetList;
#X obj 685 552 list;
#X obj 669 596 zl nth, f 13;
#X obj 740 483 s scmgr.GetMsetList;
#X obj 646 467 t b f b, f 10;
#X obj 857 1596 t b s;
#X obj 581 812 append_chars .mset;
#X obj 597 1772 s scmgr.RepopulateMsetListUI;
#X msg 567 1765 0;
#X obj 216 351 r mset_manager.MsetSelection;
#X obj 569 1807 s mset_manager.MsetSelection;
#X obj 98 580 s scmgr.MsetSelection;
#N canvas 2193 1179 1027 635 get_mset_path_from_name 0;
#X obj 111 251 t s b;
#X obj 110 515 append_chars .mset;
#X obj 294 414 append_chars /;
#X obj 107 217 symbol;
#X obj 150 184 tosymbol;
#X obj 76 45 inlet;
#X obj 156 50 inlet;
#X obj 113 559 outlet;
#X msg 461 120 1;
#X msg 498 121 2;
#X obj 494 156 f;
#X obj 447 232 gate 2 1;
#X obj 329 76 r env_prod_defaults_set;
#X obj 497 75 r env_dev_defaults_set;
#X obj 171 315 symbol;
#X obj 181 374 fromsymbol;
#X msg 256 268 symbol /home/patch/repos/emsys/sets;
#X msg 539 269 symbol ~/repos/emsys_dev/sets;
#X obj 109 468 prepend_chars /home/patch/repos/emsys/sets/;
#X obj 92 116 t;
#X connect 0 0 18 0;
#X connect 0 1 14 0;
#X connect 1 0 7 0;
#X connect 2 0 18 1;
#X connect 3 0 0 0;
#X connect 4 0 3 1;
#X connect 5 0 19 0;
#X connect 6 0 4 0;
#X connect 8 0 10 0;
#X connect 9 0 10 0;
#X connect 10 0 11 0;
#X connect 11 0 16 0;
#X connect 11 1 17 0;
#X connect 12 0 8 0;
#X connect 13 0 9 0;
#X connect 14 0 15 0;
#X connect 15 0 2 0;
#X connect 16 0 14 1;
#X connect 17 0 14 1;
#X connect 18 0 1 0;
#X connect 19 0 3 0;
#X connect 19 1 11 1;
#X restore 860 1633 pd get_mset_path_from_name;
#X obj 1406 1562 symbol;
#X obj 1413 1604 s mset_manager.InjectMsetToBoot;
#X obj 335 680 r mset_manager.InjectMsetToBoot;
#X msg 429 570 0;
#X obj 431 612 s mset_manager.MsetSelection;
#X msg 1063 630 zlclear;
#X obj 644 1729 s em.set.repopulate_mset_list;
#X obj 590 1680 del 25;
#X obj 589 1706 t;
#X obj 746 1651 del 500;
#X text 488 1596 this procedure definitively reloads the mset list and refreshes the UI to reflect the change to the list, f 32;
#X obj 2736 605 text tolist set;
#X obj 2716 640 text fromlist mset_temp;
#X text 2266 524 for creation;
#X text 2716 523 for iteration (duplication);
#X obj 1732 662 symbol;
#X obj 2196 607 id_gen 4;
#X msg 2799 582 -1;
#X obj 2748 669 text delete mset_temp;
#X obj 2605 978 append_chars, f 52;
#X obj 2141 946 gate 2, f 11;
#X obj 2155 991 t;
#X obj 2196 987 t;
#X obj 2162 1029 bng 25 250 50 0 empty empty empty 17 7 0 10 #191919 #e1e1e1 #e1e1e1;
#X obj 2889 760 + 1;
#X obj 2859 717 i 0, f 14;
#X msg 2937 469 0;
#X obj 2599 555 t b b, f 36;
#X obj 1466 567 t b b b b;
#X obj 2660 693 r scmgr.CurrentlyLoadedMsetName_NoExt;
#X obj 2579 911 symbol;
#X obj 2625 784 list fromsymbol;
#X obj 2625 830 list tosymbol;
#X obj 2625 809 zl slice 4;
#X obj 2625 756 tosymbol;
#X text 2720 752 keep only essence of mset name (rm iter numbers), f 10;
#X msg 1587 673 1;
#X msg 1613 675 2;
#X obj 1589 713 f;
#X obj 1360 570 t b b b b;
#X obj 2163 1076 del 10;
#X msg 1749 1010 1;
#X msg 1786 1011 2;
#X obj 1743 1046 f;
#X obj 1739 1077 gate 2 1, f 31;
#X obj 1745 973 r env_prod_defaults_set;
#X obj 1924 973 r env_dev_defaults_set;
#X obj 553 1556 r mset_manager.RepopAndReload;
#X msg 1979 1110 symbol ~/repos/emsys_dev/;
#X msg 2046 1138 symbol ~/repos/emsys_dev/sets/;
#X msg 1742 1110 symbol /home/patch/repos/emsys/;
#X msg 1769 1140 symbol /home/patch/repos/emsys/sets/;
#X obj 1647 1227 prepend_chars /home/patch/repos/emsys/;
#X obj 1676 1256 prepend_chars /home/patch/repos/emsys/sets/;
#X obj 401 388 print;
#X obj 991 1717 print SHELL;
#X obj 1742 1582 print SHELL;
#X connect 0 0 4 0;
#X connect 1 0 226 0;
#X connect 2 0 228 0;
#X connect 2 0 5 0;
#X connect 6 0 7 0;
#X connect 6 0 238 0;
#X connect 8 0 6 0;
#X connect 8 0 0 0;
#X connect 8 1 1 0;
#X connect 9 0 17 0;
#X connect 10 0 13 0;
#X connect 11 2 12 0;
#X connect 12 0 10 0;
#X connect 13 0 233 0;
#X connect 14 0 17 0;
#X connect 15 0 12 2;
#X connect 16 0 40 0;
#X connect 17 0 41 0;
#X connect 18 0 8 0;
#X connect 19 0 26 0;
#X connect 19 0 36 1;
#X connect 20 0 22 0;
#X connect 21 0 23 0;
#X connect 22 0 24 0;
#X connect 23 0 34 0;
#X connect 24 0 21 0;
#X connect 25 0 19 0;
#X connect 26 0 27 0;
#X connect 27 0 32 0;
#X connect 28 0 30 0;
#X connect 29 0 30 1;
#X connect 30 0 29 0;
#X connect 30 0 33 0;
#X connect 31 0 30 1;
#X connect 32 0 28 0;
#X connect 32 1 28 1;
#X connect 32 1 34 1;
#X connect 32 2 31 0;
#X connect 32 2 240 0;
#X connect 33 0 35 0;
#X connect 34 0 39 0;
#X connect 35 0 36 0;
#X connect 35 1 20 1;
#X connect 36 0 20 0;
#X connect 37 0 25 0;
#X connect 38 0 37 0;
#X connect 40 0 41 1;
#X connect 41 0 18 0;
#X connect 43 0 42 0;
#X connect 44 0 133 0;
#X connect 45 0 43 0;
#X connect 47 0 46 0;
#X connect 48 0 159 0;
#X connect 50 0 51 0;
#X connect 51 0 52 0;
#X connect 51 0 56 0;
#X connect 53 0 9 1;
#X connect 54 0 10 1;
#X connect 54 0 164 0;
#X connect 55 0 60 0;
#X connect 56 0 55 0;
#X connect 59 0 123 0;
#X connect 60 0 57 0;
#X connect 60 1 59 0;
#X connect 61 0 63 0;
#X connect 62 0 81 0;
#X connect 63 0 62 1;
#X connect 63 0 68 0;
#X connect 63 0 92 1;
#X connect 64 0 171 0;
#X connect 64 1 92 0;
#X connect 65 0 138 0;
#X connect 65 1 92 0;
#X connect 66 0 168 0;
#X connect 66 1 92 0;
#X connect 67 0 62 0;
#X connect 69 0 70 0;
#X connect 69 0 71 0;
#X connect 70 1 63 0;
#X connect 72 0 97 0;
#X connect 72 1 92 0;
#X connect 73 1 115 0;
#X connect 74 0 97 2;
#X connect 75 0 77 0;
#X connect 76 0 67 0;
#X connect 77 1 74 0;
#X connect 78 0 124 0;
#X connect 78 0 274 0;
#X connect 79 0 111 0;
#X connect 79 0 139 0;
#X connect 80 0 139 0;
#X connect 80 0 263 0;
#X connect 81 0 170 0;
#X connect 82 0 125 2;
#X connect 83 0 85 0;
#X connect 83 0 120 0;
#X connect 84 0 83 0;
#X connect 84 0 82 0;
#X connect 84 0 95 0;
#X connect 84 0 96 0;
#X connect 85 0 87 0;
#X connect 86 0 120 0;
#X connect 87 0 86 0;
#X connect 88 0 173 0;
#X connect 89 0 173 0;
#X connect 90 0 173 0;
#X connect 91 0 124 0;
#X connect 92 0 91 0;
#X connect 95 0 93 0;
#X connect 96 0 94 0;
#X connect 97 0 98 0;
#X connect 98 0 76 0;
#X connect 99 0 114 0;
#X connect 100 0 118 0;
#X connect 101 0 113 0;
#X connect 102 0 117 0;
#X connect 103 0 119 0;
#X connect 104 0 99 2;
#X connect 104 0 100 2;
#X connect 104 0 101 2;
#X connect 104 0 102 2;
#X connect 104 0 103 2;
#X connect 104 0 108 2;
#X connect 105 0 107 0;
#X connect 107 0 106 0;
#X connect 108 0 116 0;
#X connect 109 0 110 0;
#X connect 110 0 62 0;
#X connect 111 0 84 0;
#X connect 111 1 89 0;
#X connect 111 1 221 0;
#X connect 113 0 65 0;
#X connect 114 0 72 0;
#X connect 115 0 75 0;
#X connect 116 0 109 0;
#X connect 117 0 64 0;
#X connect 118 0 66 0;
#X connect 119 0 61 0;
#X connect 120 0 125 0;
#X connect 121 0 113 1;
#X connect 121 0 114 1;
#X connect 121 0 115 1;
#X connect 121 0 116 1;
#X connect 121 0 117 1;
#X connect 121 0 118 1;
#X connect 121 0 119 1;
#X connect 122 0 120 1;
#X connect 126 0 105 0;
#X connect 127 0 130 0;
#X connect 128 0 127 2;
#X connect 130 0 132 0;
#X connect 131 0 130 1;
#X connect 133 0 45 0;
#X connect 134 0 133 1;
#X connect 135 0 136 0;
#X connect 136 0 137 0;
#X connect 138 0 62 0;
#X connect 139 0 124 0;
#X connect 140 0 112 0;
#X connect 142 0 141 0;
#X connect 142 0 290 0;
#X connect 144 0 146 0;
#X connect 146 0 152 1;
#X connect 146 0 145 0;
#X connect 147 0 161 0;
#X connect 148 0 149 0;
#X connect 149 0 156 0;
#X connect 150 0 167 0;
#X connect 150 0 227 0;
#X connect 151 0 150 1;
#X connect 151 1 148 0;
#X connect 152 0 150 0;
#X connect 152 0 210 0;
#X connect 153 0 158 0;
#X connect 154 0 175 0;
#X connect 155 0 160 0;
#X connect 156 0 154 0;
#X connect 156 0 166 0;
#X connect 156 1 157 1;
#X connect 156 1 178 0;
#X connect 157 0 165 0;
#X connect 158 0 155 0;
#X connect 158 1 152 0;
#X connect 159 0 9 0;
#X connect 160 0 175 0;
#X connect 161 0 216 0;
#X connect 162 0 151 0;
#X connect 163 0 162 0;
#X connect 164 0 13 0;
#X connect 165 0 144 0;
#X connect 166 0 157 0;
#X connect 167 0 244 0;
#X connect 168 0 62 0;
#X connect 169 0 126 0;
#X connect 170 0 78 0;
#X connect 170 1 79 0;
#X connect 170 2 80 0;
#X connect 170 3 140 0;
#X connect 172 0 209 0;
#X connect 173 0 125 1;
#X connect 174 0 159 1;
#X connect 176 0 126 1;
#X connect 181 0 182 1;
#X connect 182 0 183 1;
#X connect 182 0 189 0;
#X connect 183 0 187 1;
#X connect 183 0 188 0;
#X connect 185 0 250 0;
#X connect 185 1 184 0;
#X connect 186 0 172 0;
#X connect 186 0 177 0;
#X connect 186 0 235 1;
#X connect 186 1 182 0;
#X connect 186 2 189 1;
#X connect 187 0 204 0;
#X connect 188 0 255 1;
#X connect 189 0 183 0;
#X connect 191 0 126 0;
#X connect 193 0 187 0;
#X connect 195 0 194 0;
#X connect 196 0 203 0;
#X connect 197 0 195 0;
#X connect 197 0 251 0;
#X connect 197 1 196 0;
#X connect 198 0 201 0;
#X connect 199 0 198 1;
#X connect 201 0 200 0;
#X connect 201 0 291 0;
#X connect 204 0 215 0;
#X connect 204 1 205 0;
#X connect 204 2 202 0;
#X connect 205 0 198 0;
#X connect 206 0 199 0;
#X connect 207 0 206 0;
#X connect 208 0 287 0;
#X connect 208 1 288 0;
#X connect 209 0 193 0;
#X connect 209 1 208 0;
#X connect 210 0 145 0;
#X connect 211 0 47 0;
#X connect 212 0 213 0;
#X connect 212 1 2 0;
#X connect 213 0 0 0;
#X connect 213 0 6 0;
#X connect 215 0 235 0;
#X connect 216 0 149 1;
#X connect 216 0 219 1;
#X connect 217 0 218 1;
#X connect 217 0 148 1;
#X connect 218 0 219 0;
#X connect 219 0 220 0;
#X connect 220 0 162 1;
#X connect 221 0 163 0;
#X connect 221 1 218 0;
#X connect 222 0 223 1;
#X connect 223 0 224 0;
#X connect 224 0 2 0;
#X connect 226 0 223 0;
#X connect 226 1 224 1;
#X connect 226 2 225 0;
#X connect 227 0 167 0;
#X connect 227 0 234 0;
#X connect 227 1 234 1;
#X connect 228 0 3 0;
#X connect 230 0 232 0;
#X connect 231 0 12 3;
#X connect 234 0 142 0;
#X connect 235 0 236 0;
#X connect 237 0 212 0;
#X connect 238 0 239 0;
#X connect 240 0 34 0;
#X connect 242 0 243 0;
#X connect 243 0 230 0;
#X connect 243 1 229 0;
#X connect 244 0 241 0;
#X connect 244 0 242 0;
#X connect 246 0 247 0;
#X connect 250 0 186 0;
#X connect 251 0 250 1;
#X connect 252 0 253 0;
#X connect 254 0 250 1;
#X connect 255 0 256 0;
#X connect 255 1 257 0;
#X connect 256 0 258 0;
#X connect 256 1 197 0;
#X connect 257 0 258 0;
#X connect 257 1 262 0;
#X connect 258 0 275 0;
#X connect 259 0 260 1;
#X connect 259 0 254 1;
#X connect 260 0 259 0;
#X connect 261 0 260 1;
#X connect 262 0 246 0;
#X connect 262 0 265 0;
#X connect 262 1 252 0;
#X connect 262 1 260 0;
#X connect 263 0 84 0;
#X connect 263 0 169 0;
#X connect 263 1 88 0;
#X connect 263 1 185 0;
#X connect 263 2 262 0;
#X connect 263 3 261 0;
#X connect 263 3 272 0;
#X connect 264 0 269 0;
#X connect 265 0 254 0;
#X connect 266 0 268 0;
#X connect 267 0 265 1;
#X connect 268 0 267 0;
#X connect 269 0 266 0;
#X connect 271 0 273 0;
#X connect 272 0 273 0;
#X connect 273 0 255 0;
#X connect 274 0 84 0;
#X connect 274 0 191 0;
#X connect 274 1 90 0;
#X connect 274 1 185 0;
#X connect 274 2 197 0;
#X connect 274 3 271 0;
#X connect 275 0 185 0;
#X connect 276 0 278 0;
#X connect 277 0 278 0;
#X connect 278 0 279 0;
#X connect 279 0 286 0;
#X connect 279 0 285 0;
#X connect 279 1 283 0;
#X connect 279 1 284 0;
#X connect 280 0 276 0;
#X connect 281 0 277 0;
#X connect 282 0 167 0;
#X connect 283 0 287 1;
#X connect 284 0 288 1;
#X connect 285 0 287 1;
#X connect 286 0 288 1;
#X connect 287 0 207 0;
#X connect 288 0 207 1;
