#N canvas 827 239 527 327 12;
#X obj 93 71 r scmgr.current_screen;
#X obj 92 103 == 2;
#X obj 93 138 s mtrack_manager.focus;
#X obj 269 119 sel 1;
#X obj 267 87 change;
#X obj 256 203 s ctl.load_clrstore_2;
#X obj 305 54 clrstore 2;
#X obj 450 179 clr 1 1;
#X msg 453 144 clear;
#X obj 266 159 t;
#X connect 0 0 1 0;
#X connect 1 0 2 0;
#X connect 1 0 4 0;
#X connect 3 0 9 0;
#X connect 4 0 3 0;
#X connect 8 0 7 0;
#X connect 9 0 5 0;
#X connect 9 1 8 0;
