#N canvas 827 239 527 327 12;
#X obj 93 71 r scmgr.current_screen;
#X obj 92 103 == 2;
#X obj 93 138 s mtrack_manager.focus;
#X obj 269 119 sel 1;
#X obj 267 87 change;
#X obj 256 203 s ctl.load_clrstore_2;
#X obj 305 54 clrstore 2;
#X msg 453 144 clear;
#X obj 266 159 t;
#X obj 450 179 clr 2 1;
#X obj 115 290 ctl.in 27 33;
#X obj 192 262 r midich_ml3;
#X text 90 261 shift reloads clr;
#X obj 113 335 spigot 0, f 12;
#X obj 203 298 r mtrack_manager.focus;
#X obj 106 382 s ctl.load_clrstore_2;
#X obj 392 34 loadbang;
#X msg 392 59 clear;
#X obj 389 94 clr 2;
#X connect 0 0 1 0;
#X connect 1 0 2 0;
#X connect 1 0 4 0;
#X connect 3 0 8 0;
#X connect 4 0 3 0;
#X connect 7 0 9 0;
#X connect 8 0 5 0;
#X connect 8 1 7 0;
#X connect 10 0 13 0;
#X connect 11 0 10 2;
#X connect 13 0 15 0;
#X connect 14 0 13 1;
#X connect 16 0 17 0;
#X connect 17 0 18 0;
