#N canvas 827 239 527 327 12;
#X obj 378 896 nbx 4 18 -1e+37 1e+37 0 0 empty empty empty 0 -8 0 10 #191919 #e1e1e1 #e1e1e1 0 256;
#X obj 454 896 nbx 4 18 -1e+37 1e+37 0 0 empty empty empty 0 -8 0 10 #191919 #e1e1e1 #e1e1e1 0 256;
#X obj 670 896 nbx 4 18 -1e+37 1e+37 0 0 empty empty empty 0 -8 0 10 #191919 #e1e1e1 #e1e1e1 0 256;
#X obj 743 896 nbx 4 18 -1e+37 1e+37 0 0 empty empty empty 0 -8 0 10 #191919 #e1e1e1 #e1e1e1 0 256;
#X obj 378 992 outlet;
#X obj 630 992 outlet;
#X obj 304 71 inlet;
#X obj 718 853 inlet;
#X obj 799 853 inlet;
#X obj 838 853 inlet;
#X obj 756 853 inlet;
#X obj 307 836 store_in_symbol;
#X obj 583 836 store_in_symbol;
#X msg 378 37 init;
#X msg 378 60 default;
#X obj 712 449 t b a b;
#X obj 378 932 line_manager 2;
#X obj 630 932 line_manager 1;
#X text 718 823 val;
#X text 756 823 param;
#X text 808 823 val;
#X text 838 823 param;
#X text 731 799 inlets to set param vals;
#X text 635 348 clear lines \, send temp msg \, recall lines, f 10;
#X obj 712 420 prepend init_simple;
#X msg 427 339 init_params bpm r tn b ln rp;
#X msg 469 364 init_params sg sgs;
#X obj 785 946 bng 25 250 50 0 empty empty empty 17 7 0 10 #191919 #e1e1e1 #e1e1e1;
#X msg 852 339 init_params \$1;
#X obj 304 110 route init default temp_simple temp_param tap dtap hold thold tholdmod, f 36;
#X obj 772 545 del;
#X text 968 535 loading bar;
#X obj 1001 712 list append |;
#X obj 943 758 spigot 0;
#X obj 968 669 tgl 25 0 empty empty empty 17 7 0 10 #191919 #e1e1e1 #e1e1e1 0 1;
#X obj 943 726 list;
#X obj 1098 683 b;
#X obj 1095 712 del;
#X obj 1131 638 / 17;
#X obj 1131 675 i;
#X obj 1131 575 i;
#X obj 943 792 prepend init_simple;
#X obj 979 583 - 50;
#X msg 970 638 0;
#X obj 968 610 del;
#X msg 943 638 1;
#X obj 1087 528 t b b b f;
#X obj 716 377 list append;
#X msg 781 506 1250;
#X text 641 799 TOP;
#X text 378 799 BOTTOM;
#X msg 98 253 init_simple emsys 0.2;
#X obj 46 247 bng 25 250 50 0 empty empty empty 17 7 0 10 #191919 #e1e1e1 #e1e1e1;
#X obj 98 302 del 50;
#X msg 143 349 init_simple ( =_=);
#X obj 46 302 del 150;
#X msg 24 349 init_simple ( v_v);
#X obj 196 302 del 100;
#X obj 143 302 del 350;
#X msg 262 349 init_simple ( -_-);
#X msg 458 60 temp_param param;
#X msg 458 39 temp_simple message;
#X obj 716 339 list prepend;
#X connect 0 0 16 0;
#X connect 1 0 16 1;
#X connect 2 0 17 0;
#X connect 3 0 17 1;
#X connect 6 0 29 0;
#X connect 7 0 0 0;
#X connect 8 0 2 0;
#X connect 9 0 3 0;
#X connect 10 0 1 0;
#X connect 11 0 16 0;
#X connect 12 0 17 0;
#X connect 13 0 29 0;
#X connect 14 0 29 0;
#X connect 15 0 30 0;
#X connect 15 1 16 0;
#X connect 15 2 17 2;
#X connect 15 2 48 0;
#X connect 15 2 16 2;
#X connect 16 0 4 0;
#X connect 17 0 5 0;
#X connect 24 0 15 0;
#X connect 25 0 11 1;
#X connect 26 0 12 1;
#X connect 27 0 17 2;
#X connect 27 0 16 2;
#X connect 29 0 51 0;
#X connect 29 0 52 0;
#X connect 29 1 25 0;
#X connect 29 1 26 0;
#X connect 29 2 62 0;
#X connect 29 3 28 0;
#X connect 30 0 11 0;
#X connect 30 0 12 0;
#X connect 32 0 35 1;
#X connect 32 0 36 0;
#X connect 33 0 32 0;
#X connect 33 0 41 0;
#X connect 34 0 33 1;
#X connect 35 0 33 0;
#X connect 36 0 37 0;
#X connect 37 0 35 0;
#X connect 38 0 39 0;
#X connect 39 0 37 1;
#X connect 40 0 38 0;
#X connect 40 0 42 0;
#X connect 41 0 17 0;
#X connect 42 0 44 1;
#X connect 43 0 34 0;
#X connect 44 0 43 0;
#X connect 45 0 34 0;
#X connect 46 0 32 0;
#X connect 46 1 44 0;
#X connect 46 2 45 0;
#X connect 46 3 40 0;
#X connect 47 0 24 0;
#X connect 48 0 30 1;
#X connect 48 0 46 0;
#X connect 51 0 12 1;
#X connect 52 0 55 0;
#X connect 52 0 59 0;
#X connect 53 0 56 0;
#X connect 53 0 58 0;
#X connect 54 0 11 1;
#X connect 55 0 53 0;
#X connect 55 0 54 0;
#X connect 56 0 11 1;
#X connect 57 0 56 0;
#X connect 58 0 54 0;
#X connect 58 0 57 0;
#X connect 59 0 11 1;
#X connect 60 0 29 0;
#X connect 61 0 29 0;
#X connect 62 0 47 0;
