#N canvas 827 239 527 327 12;
#X obj 129 332 nbx 4 18 -1e+37 1e+37 0 0 empty empty empty 0 -8 0 10 #191919 #e1e1e1 #e1e1e1 0 256;
#X obj 205 332 nbx 4 18 -1e+37 1e+37 0 0 empty empty empty 0 -8 0 10 #191919 #e1e1e1 #e1e1e1 0 256;
#X obj 421 332 nbx 4 18 -1e+37 1e+37 0 0 empty empty empty 0 -8 0 10 #191919 #e1e1e1 #e1e1e1 0 256;
#X obj 494 332 nbx 4 18 -1e+37 1e+37 0 0 empty empty empty 0 -8 0 10 #191919 #e1e1e1 #e1e1e1 0 256;
#X obj 129 368 line_manager 2;
#X obj 381 368 line_manager 1, f 14;
#X obj 129 433 outlet;
#X obj 381 433 outlet, f 6;
#X obj 80 59 inlet;
#X obj 80 98 route init default temp tap dtap hold thold tholdmod;
#X msg 80 157 init emsys;
#X msg 188 182 init sg sgs;
#X msg 163 157 init bpm r tn b ln rp;
#X msg 306 157 init \$1;
#X obj 306 191 t b l, f 13;
#X obj 306 223 del 1000;
#X obj 653 289 inlet;
#X obj 734 289 inlet;
#X obj 773 289 inlet;
#X obj 691 289 inlet;
#X obj 11 289 store_in_symbol;
#X obj 262 289 store_in_symbol;
#X connect 0 0 4 0;
#X connect 1 0 4 1;
#X connect 2 0 5 0;
#X connect 3 0 5 1;
#X connect 4 0 6 0;
#X connect 5 0 7 0;
#X connect 8 0 9 0;
#X connect 9 0 10 0;
#X connect 9 1 12 0;
#X connect 9 1 11 0;
#X connect 9 2 13 0;
#X connect 10 0 20 1;
#X connect 10 0 21 1;
#X connect 11 0 21 1;
#X connect 12 0 20 1;
#X connect 13 0 14 0;
#X connect 14 0 15 0;
#X connect 14 1 5 0;
#X connect 15 0 20 0;
#X connect 15 0 21 0;
#X connect 16 0 0 0;
#X connect 17 0 2 0;
#X connect 18 0 3 0;
#X connect 19 0 1 0;
#X connect 20 0 4 0;
#X connect 21 0 5 0;
