#N canvas 827 239 527 327 12;
#X obj 1393 971 nbx 4 18 -1e+37 1e+37 0 0 empty empty empty 0 -8 0 10 #191919 #e1e1e1 #e1e1e1 0 256;
#X obj 1514 970 nbx 4 18 -1e+37 1e+37 0 0 empty empty empty 0 -8 0 10 #191919 #e1e1e1 #e1e1e1 0 256;
#X obj 368 1157 outlet;
#X obj 620 1157 outlet;
#X obj 306 108 inlet;
#X obj 1338 943 inlet;
#X obj 1464 942 inlet;
#X obj 1514 942 inlet;
#X obj 1393 943 inlet;
#X obj 309 873 store_in_symbol;
#X obj 585 873 store_in_symbol;
#X msg 372 76 default;
#X obj 714 486 t b a b;
#X obj 368 1097 line_manager 2;
#X obj 620 1097 line_manager 1;
#X text 1345 923 val;
#X text 1383 923 param;
#X text 1467 922 val;
#X text 1508 922 param;
#X text 1367 881 inlets to set param vals;
#X text 632 462 clear lines \, send temp msg \, recall lines, f 10;
#X obj 714 457 prepend init_simple;
#X obj 306 147 route init default temp_simple temp_param tap dtap hold thold tholdmod, f 71;
#X obj 774 582 del;
#X text 986 681 loading bar;
#X obj 961 905 spigot 0;
#X obj 986 816 tgl 25 0 empty empty empty 17 7 0 10 #191919 #e1e1e1 #e1e1e1 0 1;
#X obj 961 873 list;
#X obj 1116 830 b;
#X obj 1113 859 del;
#X obj 1149 822 i;
#X obj 1149 722 i;
#X obj 961 939 prepend init_simple;
#X obj 997 730 - 50;
#X msg 988 785 0;
#X obj 986 757 del;
#X msg 961 785 1;
#X obj 1105 675 t b b b f;
#X msg 783 543 1250;
#X text 643 835 TOP;
#X text 380 835 BOTTOM;
#X msg 100 290 init_simple emsys 0.2;
#X obj 48 284 bng 25 250 50 0 empty empty empty 17 7 0 10 #191919 #e1e1e1 #e1e1e1;
#X obj 100 339 del 50;
#X msg 145 386 init_simple ( =_=);
#X obj 48 339 del 150;
#X msg 26 386 init_simple ( v_v);
#X obj 198 339 del 100;
#X obj 145 339 del 350;
#X msg 264 386 init_simple ( -_-);
#X msg 460 97 temp_param param;
#X msg 460 76 temp_simple message;
#X obj 259 274 random 300;
#X obj 259 301 + 250;
#X obj 347 301 + 100;
#X obj 347 274 random 150;
#X obj 862 491 t b a b;
#X obj 742 748 bng 25 250 50 0 empty empty clear\ screens 17 7 0 10 #191919 #e1e1e1 #e1e1e1;
#X obj 651 748 bng 25 250 50 0 empty empty recall\ screens 17 7 0 10 #191919 #e1e1e1 #e1e1e1;
#X obj 26 449 list;
#X obj 894 564 del;
#X msg 906 527 1250;
#X obj 862 451 prepend init_simple;
#X msg 959 527 init_params ?param;
#X obj 1149 785 / 15;
#X obj 1019 859 list append -;
#X msg 1104 560 stop;
#X obj 1093 538 t;
#X obj 1093 507 bng 25 250 50 0 empty empty postpone 17 7 0 10 #191919 #e1e1e1 #e1e1e1;
#X text 1357 904 bottom;
#X text 1487 904 top;
#X text 814 273 todo: need to recall vals \, not just param labels, f 14;
#X obj 1298 1021 store_in_symbol;
#X obj 1410 1021 store_in_symbol;
#X msg 442 396 init_params ~bpm /~s t;
#X msg 400 429 init_params ?seg :?rep :?beat /?len;
#X obj 1326 971 nbx 4 18 -1e+37 1e+37 0 0 empty empty empty 0 -8 0 10 #191919 #e1e1e1 #e1e1e1 0 256;
#X obj 1450 971 nbx 4 18 -1e+37 1e+37 0 0 empty empty empty 0 -8 0 10 #191919 #e1e1e1 #e1e1e1 0 256;
#X msg 1575 970 test;
#X obj 1093 469 gate 0;
#X obj 1093 429 tgl 25 0 empty empty empty 17 7 0 10 #191919 #e1e1e1 #e1e1e1 0 1;
#X msg 997 477 1;
#X msg 896 629 0;
#X connect 0 0 13 1;
#X connect 1 0 14 1;
#X connect 4 0 22 0;
#X connect 5 0 72 1;
#X connect 6 0 73 1;
#X connect 7 0 1 0;
#X connect 8 0 0 0;
#X connect 9 0 13 0;
#X connect 10 0 14 0;
#X connect 11 0 22 0;
#X connect 12 0 23 0;
#X connect 12 1 13 0;
#X connect 12 2 38 0;
#X connect 12 2 57 0;
#X connect 13 0 2 0;
#X connect 14 0 3 0;
#X connect 21 0 12 0;
#X connect 22 0 41 0;
#X connect 22 0 42 0;
#X connect 22 1 75 0;
#X connect 22 1 74 0;
#X connect 22 2 21 0;
#X connect 22 3 62 0;
#X connect 23 0 58 0;
#X connect 25 0 32 0;
#X connect 25 0 65 0;
#X connect 26 0 25 1;
#X connect 27 0 25 0;
#X connect 28 0 29 0;
#X connect 29 0 27 0;
#X connect 30 0 29 1;
#X connect 31 0 33 0;
#X connect 31 0 64 0;
#X connect 32 0 14 0;
#X connect 33 0 35 1;
#X connect 34 0 26 0;
#X connect 35 0 34 0;
#X connect 36 0 26 0;
#X connect 37 0 65 0;
#X connect 37 1 35 0;
#X connect 37 2 36 0;
#X connect 37 3 31 0;
#X connect 38 0 23 1;
#X connect 38 0 37 0;
#X connect 41 0 10 1;
#X connect 42 0 45 0;
#X connect 42 0 49 0;
#X connect 42 0 52 0;
#X connect 42 0 55 0;
#X connect 43 0 46 0;
#X connect 43 0 48 0;
#X connect 44 0 59 0;
#X connect 45 0 43 0;
#X connect 45 0 44 0;
#X connect 46 0 59 0;
#X connect 47 0 46 0;
#X connect 48 0 44 0;
#X connect 48 0 47 0;
#X connect 49 0 59 0;
#X connect 50 0 22 0;
#X connect 51 0 22 0;
#X connect 52 0 53 0;
#X connect 53 0 48 1;
#X connect 54 0 47 1;
#X connect 55 0 54 0;
#X connect 56 0 60 0;
#X connect 56 1 14 0;
#X connect 56 2 57 0;
#X connect 56 2 61 0;
#X connect 56 2 63 0;
#X connect 56 2 81 0;
#X connect 57 0 13 2;
#X connect 57 0 14 2;
#X connect 58 0 10 0;
#X connect 58 0 9 0;
#X connect 59 0 9 1;
#X connect 60 0 58 0;
#X connect 60 0 82 0;
#X connect 61 0 60 1;
#X connect 62 0 56 0;
#X connect 63 0 13 0;
#X connect 64 0 30 0;
#X connect 65 0 27 1;
#X connect 65 0 28 0;
#X connect 66 0 60 0;
#X connect 67 0 60 0;
#X connect 67 1 66 0;
#X connect 68 0 67 0;
#X connect 72 0 13 0;
#X connect 72 0 79 1;
#X connect 73 0 14 0;
#X connect 74 0 10 1;
#X connect 75 0 9 1;
#X connect 76 0 72 1;
#X connect 77 0 73 1;
#X connect 78 0 73 1;
#X connect 79 0 68 0;
#X connect 80 0 79 0;
#X connect 81 0 80 0;
#X connect 82 0 80 0;
