#N canvas 827 239 527 327 12;
#X obj 1136 910 outlet;
#X obj 1293 908 outlet;
#X msg 1046 620 init_simple emsys 0.2;
#X obj 985 495 del 50;
#X obj 933 495 del 150;
#X obj 1083 495 del 100;
#X obj 1030 495 del 350;
#X obj 1144 430 random 300;
#X obj 1144 457 + 250;
#X obj 1232 457 + 100;
#X obj 1232 430 random 150;
#X obj 65 48 inlet;
#X text 1388 44 select screen;
#X obj 1351 104 i;
#X obj 1448 442 bng 31 250 50 0 empty empty screen\ 1 17 7 0 10 #191919 #e1e1e1 #e1e1e1;
#X obj 1693 620 bng 27 250 50 0 empty empty screen\ 2 17 7 0 10 #191919 #e1e1e1 #e1e1e1;
#X obj 2036 603 bng 27 250 50 0 empty empty screen\ 3 17 7 0 10 #191919 #e1e1e1 #e1e1e1;
#X msg 2113 672 init_simple screen 3;
#X obj 1046 653 line_manager 0a;
#X obj 1388 620 line_manager 1b;
#X obj 1519 620 line_manager 1a;
#X obj 1693 722 line_manager 2b;
#X obj 1828 722 line_manager 2a;
#X obj 1978 721 line_manager 3b;
#X obj 2113 721 line_manager 3a;
#X msg 1828 672 init_simple screen 2;
#X obj 2281 618 bng 27 250 50 0 empty empty screen\ 4 17 7 0 10 #191919 #e1e1e1 #e1e1e1;
#X obj 2229 722 line_manager 4b;
#X msg 2364 672 init_simple screen 4;
#X obj 2364 722 line_manager 4a;
#X obj 1531 108 print -n;
#X obj 1351 165 t f f;
#X obj 911 653 line_manager 0b;
#X obj 911 620 prepend init_simple;
#X msg 911 542 ( v_v);
#X msg 1030 542 ( =_=);
#X msg 1149 542 ( -_-);
#X obj 911 589 tosymbol;
#X msg 1611 176 invalid screen selection;
#X msg 329 626 0;
#X obj 247 558 t b a b, f 14;
#X obj 208 743 bng 25 250 50 0 empty empty empty 17 7 0 10 #191919 #e1e1e1 #e1e1e1;
#X obj 1397 74 nbx 4 18 -1e+37 1e+37 0 0 empty empty empty 0 -8 0 10 #191919 #e1e1e1 #e1e1e1 0 256;
#X msg 326 443 temp_param param;
#X msg 326 422 temp_simple message;
#X obj 276 481 route temp_simple temp_param, f 27;
#X text 507 441 temp screens;
#X obj 276 516 prepend init_simple;
#X obj 434 516 prepend init_simple;
#X floatatom 1455 580 5 0 0 0 - - - 12;
#X text 1017 368 startup screen;
#X text 1511 487 default screen;
#X obj 1136 874 selector 7, f 20;
#X obj 1293 874 selector 7, f 20;
#X obj 154 48 inlet;
#X obj 285 682 line_manager temp1_b;
#X obj 352 825 line_manager temp1_a;
#X obj 491 584 t b a b, f 14;
#X obj 698 659 line_manager temp2_b;
#X obj 530 682 line_manager temp2_a;
#X msg 361 584 stop;
#X msg 607 584 stop;
#X msg 574 626 1;
#X obj 1435 191 sel 2 3 4 5 6;
#X obj 1351 135 + 2;
#X obj 1828 645 loadbang;
#X obj 2113 626 loadbang;
#X obj 2364 626 loadbang;
#X obj 1617 494 loadbang;
#X msg 698 626 init_params ?param;
#X obj 352 792 prepend init_simple;
#X msg 352 626 1250;
#X obj 247 639 del;
#X msg 598 626 1250;
#X obj 491 639 del;
#X obj 574 516 t;
#X obj 574 485 bng 25 250 50 0 empty empty postpone 17 7 0 10 #191919 #e1e1e1 #e1e1e1;
#X obj 504 736 bng 25 250 50 0 empty empty empty 17 7 0 10 #191919 #e1e1e1 #e1e1e1;
#X obj 352 749 text_loading_bar - 32;
#X obj 726 481 nbx 4 18 -1e+37 1e+37 0 0 empty empty empty 0 -8 0 10 #191919 #e1e1e1 #e1e1e1 0 256;
#X obj 726 576 spigot 0;
#X msg 776 516 1;
#X obj 760 541 tgl 25 0 empty empty empty 17 7 0 10 #191919 #e1e1e1 #e1e1e1 0 1;
#X msg 752 516 0;
#X text 40 21 select screen;
#X text 141 21 temp screen;
#X obj 1523 918 outlet;
#X text 1523 978 0 none \; 1 heart \; 2 play \; 3 rec \; 4 armed \; 5 shift;
#X obj 2499 918 outlet;
#X text 2150 970 1 knob \; 2 fader \; 3 pad;
#X obj 2150 922 outlet;
#X obj 1939 925 outlet;
#X text 1939 975 0 or 1;
#X obj 1730 927 outlet;
#X text 1736 972 0-127 ?;
#X obj 2344 925 outlet;
#X text 2350 970 0-127 ?;
#X text 1939 943 ml3 param/scroll mode 'autohide';
#X text 2500 943 ml3/text display modes;
#X text 2499 971 0 left aligned \; 1 centred \; 2 param \; 3 scroll;
#X text 2150 947 ml3 param mode param type;
#X text 1730 951 ml3 param/scroll mode value;
#X text 1523 951 ml3 centred mode emotes (0 0);
#X text 1136 937 top line;
#X text 1293 937 bottom line;
#X text 2344 949 ml3 scroll mode length;
#X obj 933 381 t;
#X obj 933 341 bng 25 250 50 0 empty empty screen\ 0 17 7 0 10 #191919 #e1e1e1 #e1e1e1;
#X msg 883 405 1;
#X obj 1448 488 t;
#X msg 1514 416 0;
#X obj 1693 664 t;
#X msg 1817 589 1;
#X obj 2016 664 t;
#X msg 2066 534 1;
#X msg 2339 544 1;
#X obj 2281 672 t;
#X msg 27 447 0;
#X msg 628 411 1;
#X obj 2512 872 r scmgr.ml3_display_mode;
#X obj 2336 582 s scmgr.ml3_display_mode;
#X obj 2063 572 s scmgr.ml3_display_mode;
#X obj 1778 620 s scmgr.ml3_display_mode;
#X obj 1511 454 s scmgr.ml3_display_mode;
#X obj 880 443 s scmgr.ml3_display_mode;
#X obj 628 442 s scmgr.ml3_display_mode;
#X obj 24 485 s scmgr.ml3_display_mode, f 32;
#X obj 1265 55 r scmgr.select;
#X obj 208 782 s scmgr.select;
#X obj 504 775 s scmgr.select;
#X obj 1611 214 s scmgr.debug;
#X obj 1531 47 r scmgr.debug;
#X obj 1531 77 prepend scmgr:;
#X obj 1939 872 r scmgr.ml3_autohide;
#X obj 1730 872 r scmgr.ml3_value;
#X obj 1525 874 r scmgr.ml3_emote;
#X obj 2102 872 r scmgr.ml3_param_type;
#X obj 2302 872 r scmgr.ml3_scroll_length;
#X msg 1519 580 init_params ?mdbank /?mnmbank ?bpm /~s t;
#X msg 1388 542 init_params ?seg /?segs ?rep /?reps ?beat /?len;
#X connect 2 0 18 0;
#X connect 3 0 34 0;
#X connect 3 0 6 0;
#X connect 4 0 3 0;
#X connect 4 0 35 0;
#X connect 5 0 34 0;
#X connect 6 0 35 0;
#X connect 6 0 5 0;
#X connect 7 0 8 0;
#X connect 8 0 6 1;
#X connect 9 0 5 1;
#X connect 10 0 9 0;
#X connect 11 0 13 0;
#X connect 13 0 64 0;
#X connect 14 0 109 0;
#X connect 15 0 111 0;
#X connect 16 0 113 0;
#X connect 17 0 23 0;
#X connect 17 0 24 0;
#X connect 18 0 53 2;
#X connect 19 0 52 3;
#X connect 20 0 53 3;
#X connect 21 0 52 4;
#X connect 22 0 53 4;
#X connect 23 0 52 5;
#X connect 24 0 53 5;
#X connect 25 0 21 0;
#X connect 25 0 22 0;
#X connect 26 0 116 0;
#X connect 27 0 52 6;
#X connect 28 0 27 0;
#X connect 28 0 29 0;
#X connect 29 0 53 6;
#X connect 31 0 63 0;
#X connect 31 1 53 7;
#X connect 31 1 52 7;
#X connect 32 0 52 2;
#X connect 33 0 32 0;
#X connect 34 0 37 0;
#X connect 35 0 37 0;
#X connect 36 0 37 0;
#X connect 37 0 33 0;
#X connect 38 0 130 0;
#X connect 39 0 53 7;
#X connect 39 0 52 7;
#X connect 40 0 72 0;
#X connect 40 1 55 0;
#X connect 40 2 39 0;
#X connect 40 2 61 0;
#X connect 40 2 71 0;
#X connect 40 2 117 0;
#X connect 41 0 128 0;
#X connect 42 0 13 0;
#X connect 43 0 45 0;
#X connect 44 0 45 0;
#X connect 45 0 47 0;
#X connect 45 1 48 0;
#X connect 47 0 40 0;
#X connect 48 0 57 0;
#X connect 49 0 20 0;
#X connect 49 0 19 0;
#X connect 52 0 0 0;
#X connect 53 0 1 0;
#X connect 54 0 45 0;
#X connect 55 0 52 0;
#X connect 56 0 53 0;
#X connect 57 0 74 0;
#X connect 57 1 59 0;
#X connect 57 2 60 0;
#X connect 57 2 62 0;
#X connect 57 2 69 0;
#X connect 57 2 73 0;
#X connect 57 2 81 0;
#X connect 57 2 118 0;
#X connect 58 0 52 1;
#X connect 59 0 53 1;
#X connect 60 0 72 0;
#X connect 61 0 74 0;
#X connect 62 0 53 7;
#X connect 62 0 52 7;
#X connect 63 0 107 0;
#X connect 63 1 14 0;
#X connect 63 2 15 0;
#X connect 63 3 16 0;
#X connect 63 4 26 0;
#X connect 63 5 38 0;
#X connect 64 0 31 0;
#X connect 65 0 25 0;
#X connect 66 0 17 0;
#X connect 67 0 28 0;
#X connect 68 0 138 0;
#X connect 68 0 139 0;
#X connect 69 0 58 0;
#X connect 70 0 56 0;
#X connect 71 0 72 1;
#X connect 71 0 78 0;
#X connect 72 0 41 0;
#X connect 73 0 74 1;
#X connect 74 0 77 0;
#X connect 74 0 83 0;
#X connect 75 0 74 0;
#X connect 75 1 61 0;
#X connect 76 0 75 0;
#X connect 77 0 129 0;
#X connect 78 0 70 0;
#X connect 79 0 80 0;
#X connect 80 0 76 0;
#X connect 80 0 58 0;
#X connect 81 0 82 0;
#X connect 82 0 80 1;
#X connect 83 0 82 0;
#X connect 106 0 36 0;
#X connect 106 0 4 0;
#X connect 106 0 7 0;
#X connect 106 0 10 0;
#X connect 106 0 2 0;
#X connect 106 1 108 0;
#X connect 107 0 106 0;
#X connect 108 0 124 0;
#X connect 109 0 20 0;
#X connect 109 0 19 0;
#X connect 109 1 110 0;
#X connect 110 0 123 0;
#X connect 111 0 21 0;
#X connect 111 0 22 0;
#X connect 111 1 112 0;
#X connect 112 0 122 0;
#X connect 113 0 24 0;
#X connect 113 0 23 0;
#X connect 113 1 114 0;
#X connect 114 0 121 0;
#X connect 115 0 120 0;
#X connect 116 0 27 0;
#X connect 116 0 29 0;
#X connect 116 1 115 0;
#X connect 117 0 126 0;
#X connect 118 0 125 0;
#X connect 119 0 88 0;
#X connect 127 0 13 0;
#X connect 131 0 132 0;
#X connect 132 0 30 0;
#X connect 133 0 91 0;
#X connect 134 0 93 0;
#X connect 135 0 86 0;
#X connect 136 0 90 0;
#X connect 137 0 95 0;
#X connect 138 0 20 0;
#X connect 139 0 19 0;
