#N canvas 827 239 527 327 12;
#X obj 129 332 nbx 4 18 -1e+37 1e+37 0 0 empty empty empty 0 -8 0 10 #191919 #e1e1e1 #e1e1e1 0 256;
#X obj 205 332 nbx 4 18 -1e+37 1e+37 0 0 empty empty empty 0 -8 0 10 #191919 #e1e1e1 #e1e1e1 0 256;
#X obj 421 332 nbx 4 18 -1e+37 1e+37 0 0 empty empty empty 0 -8 0 10 #191919 #e1e1e1 #e1e1e1 0 256;
#X obj 494 332 nbx 4 18 -1e+37 1e+37 0 0 empty empty empty 0 -8 0 10 #191919 #e1e1e1 #e1e1e1 0 256;
#X obj 129 428 outlet;
#X obj 381 428 outlet;
#X obj 80 59 inlet;
#X obj 80 98 route init default temp tap dtap hold thold tholdmod;
#X obj 469 289 inlet;
#X obj 550 289 inlet;
#X obj 589 289 inlet;
#X obj 507 289 inlet;
#X obj 11 289 store_in_symbol;
#X obj 262 289 store_in_symbol;
#X msg 163 48 temp test;
#X msg 238 48 init;
#X msg 278 48 default;
#X obj 354 172 t b a b;
#X obj 129 368 line_manager 2;
#X obj 381 368 line_manager 1;
#X obj 354 242 del 1000;
#X text 469 265 val;
#X text 507 265 param;
#X text 559 265 val;
#X text 589 265 param;
#X text 482 241 inlets to set param vals;
#X text 490 142 clear lines \, send temp msg \, recall lines, f 10;
#X text 570 142 - may be better to recall a backup of the actual [text] objects within [line_manager]s \, since vals are stored in [text] too \, and not just the param label symbols, f 39;
#X obj 354 143 prepend init_simple;
#X msg 40 157 init_simple emsys;
#X msg 163 157 init_params bpm r tn b ln rp;
#X msg 205 182 init_params sg sgs;
#X obj 536 382 bng 25 250 50 0 empty empty empty 17 7 0 10 #191919 #e1e1e1 #e1e1e1;
#X connect 0 0 18 0;
#X connect 1 0 18 1;
#X connect 2 0 19 0;
#X connect 3 0 19 1;
#X connect 6 0 7 0;
#X connect 7 0 29 0;
#X connect 7 1 30 0;
#X connect 7 1 31 0;
#X connect 7 2 28 0;
#X connect 8 0 0 0;
#X connect 9 0 2 0;
#X connect 10 0 3 0;
#X connect 11 0 1 0;
#X connect 12 0 18 0;
#X connect 13 0 19 0;
#X connect 14 0 7 0;
#X connect 15 0 7 0;
#X connect 16 0 7 0;
#X connect 17 0 20 0;
#X connect 17 1 18 0;
#X connect 17 2 19 2;
#X connect 17 2 18 2;
#X connect 18 0 4 0;
#X connect 19 0 5 0;
#X connect 20 0 12 0;
#X connect 20 0 13 0;
#X connect 28 0 17 0;
#X connect 29 0 12 1;
#X connect 29 0 13 1;
#X connect 30 0 12 1;
#X connect 31 0 13 1;
#X connect 32 0 19 2;
#X connect 32 0 18 2;
