#N canvas 827 239 527 327 12;
#X obj 129 332 nbx 4 18 -1e+37 1e+37 0 0 empty empty empty 0 -8 0 10 #191919 #e1e1e1 #e1e1e1 0 256;
#X obj 205 332 nbx 4 18 -1e+37 1e+37 0 0 empty empty empty 0 -8 0 10 #191919 #e1e1e1 #e1e1e1 0 256;
#X obj 421 332 nbx 4 18 -1e+37 1e+37 0 0 empty empty empty 0 -8 0 10 #191919 #e1e1e1 #e1e1e1 0 256;
#X obj 494 332 nbx 4 18 -1e+37 1e+37 0 0 empty empty empty 0 -8 0 10 #191919 #e1e1e1 #e1e1e1 0 256;
#X obj 129 428 outlet;
#X obj 381 428 outlet;
#X obj 80 59 inlet;
#X obj 80 98 route init default temp tap dtap hold thold tholdmod;
#X msg 80 157 init emsys;
#X msg 205 182 init sg sgs;
#X msg 163 157 init bpm r tn b ln rp;
#X obj 469 289 inlet;
#X obj 550 289 inlet;
#X obj 589 289 inlet;
#X obj 507 289 inlet;
#X obj 11 289 store_in_symbol;
#X obj 262 289 store_in_symbol;
#X obj 296 143 prepend init;
#X msg 163 48 temp test;
#X msg 238 48 init;
#X msg 278 48 default;
#X obj 296 172 t b a b;
#X obj 246 385 bng 25 250 50 0 empty empty empty 17 7 0 10 #191919 #e1e1e1 #e1e1e1;
#X obj 334 399 bng 25 250 50 0 empty empty empty 17 7 0 10 #191919 #e1e1e1 #e1e1e1;
#X obj 129 368 line_manager 2;
#X obj 381 368 line_manager 1;
#X obj 306 223 del 1000;
#X connect 0 0 24 0;
#X connect 1 0 24 1;
#X connect 2 0 25 0;
#X connect 3 0 25 1;
#X connect 6 0 7 0;
#X connect 7 0 8 0;
#X connect 7 1 10 0;
#X connect 7 1 9 0;
#X connect 7 2 17 0;
#X connect 8 0 15 1;
#X connect 8 0 16 1;
#X connect 9 0 16 1;
#X connect 10 0 15 1;
#X connect 11 0 0 0;
#X connect 12 0 2 0;
#X connect 13 0 3 0;
#X connect 14 0 1 0;
#X connect 15 0 24 0;
#X connect 16 0 25 0;
#X connect 17 0 21 0;
#X connect 18 0 7 0;
#X connect 19 0 7 0;
#X connect 20 0 7 0;
#X connect 21 0 26 0;
#X connect 21 1 24 0;
#X connect 21 2 25 2;
#X connect 21 2 24 2;
#X connect 22 0 24 2;
#X connect 23 0 25 2;
#X connect 24 0 4 0;
#X connect 25 0 5 0;
#X connect 26 0 15 0;
#X connect 26 0 16 0;
