#N canvas 1440 924 1920 980 12;
#X obj 1112 951 outlet;
#X obj 1293 950 outlet;
#X obj 985 495 del 50;
#X obj 933 495 del 150;
#X obj 1083 495 del 100;
#X obj 1030 495 del 350;
#X obj 1144 430 random 300;
#X obj 1144 457 + 250;
#X obj 1232 457 + 100;
#X obj 1232 430 random 150;
#X obj 65 48 inlet;
#X text 1388 36 select screen;
#X obj 1351 104 i;
#X obj 1632 402 bng 31 250 50 0 empty empty screen\ 1 17 7 0 10 #191919 #e1e1e1 #e1e1e1;
#X obj 2225 395 bng 27 250 50 0 empty empty screen\ 2 17 7 0 10 #191919 #e1e1e1 #e1e1e1;
#X obj 3127 697 bng 27 250 50 0 empty empty empty 17 7 0 10 #191919 #e1e1e1 #e1e1e1;
#X obj 1054 708 line_manager 0a;
#X obj 1572 580 line_manager 1b;
#X obj 1703 580 line_manager 1a;
#X obj 2212 525 line_manager 2b;
#X obj 2322 594 line_manager 2a;
#X obj 3069 815 line_manager 3b;
#X obj 3204 815 line_manager 3a;
#X obj 1531 108 print -n;
#X obj 1351 238 t f f;
#X obj 911 653 line_manager 0b;
#X obj 911 620 prepend init_simple;
#X msg 911 542 ( v_v);
#X msg 1030 542 ( =_=);
#X msg 1149 542 ( -_-);
#X obj 911 589 tosymbol;
#X msg 1589 206 invalid screen selection;
#X msg 329 625 0;
#X obj 247 558 t b a b, f 14;
#X obj 208 743 bng 25 250 50 0 empty empty empty 17 7 0 10 #191919 #e1e1e1 #e1e1e1;
#X obj 1397 74 nbx 4 18 -1e+37 1e+37 0 0 empty empty empty 0 -8 0 10 #191919 #e1e1e1 #e1e1e1 0 256;
#X msg 326 443 temp_param param;
#X msg 326 422 temp_simple message;
#X obj 276 481 route temp_simple temp_param, f 27;
#X text 507 433 temp screens;
#X obj 276 516 prepend init_simple;
#X obj 434 516 prepend init_simple;
#X text 1017 360 startup screen;
#X text 1695 439 default screen;
#X obj 154 48 inlet;
#X obj 285 682 line_manager temp1_b;
#X obj 352 825 line_manager temp1_a;
#X obj 491 584 t b a b, f 14;
#X obj 699 665 line_manager temp2_b;
#X obj 530 682 line_manager temp2_a;
#X msg 574 626 1;
#X msg 669 614 init_params ?param;
#X obj 352 792 prepend init_simple;
#X obj 574 516 t;
#X obj 574 485 bng 25 250 50 0 empty empty postpone 17 7 0 10 #191919 #e1e1e1 #e1e1e1;
#X obj 504 736 bng 25 250 50 0 empty empty empty 17 7 0 10 #191919 #e1e1e1 #e1e1e1;
#X obj 352 749 text_loading_bar - 32;
#X obj 726 576 spigot 0;
#X msg 776 516 1;
#X obj 760 541 tgl 25 0 empty empty empty 17 7 0 10 #191919 #e1e1e1 #e1e1e1 0 1;
#X msg 752 516 0;
#X text 40 13 select screen;
#X text 141 13 temp screen;
#X obj 1523 918 outlet;
#X text 1523 970 0 none \; 1 heart \; 2 play \; 3 rec \; 4 armed \; 5 shift;
#X obj 2499 918 outlet;
#X text 2150 962 1 knob \; 2 fader \; 3 pad;
#X obj 2150 922 outlet;
#X obj 1939 925 outlet;
#X text 1939 967 0 or 1;
#X obj 1730 927 outlet;
#X text 1736 964 0-127 ?;
#X obj 2344 925 outlet;
#X text 2350 962 0-127 ?;
#X text 1939 935 ml3 param/scroll mode 'autohide';
#X text 2500 935 ml3/text display modes;
#X text 2499 963 0 left aligned \; 1 centred \; 2 param \; 3 scroll;
#X text 2150 939 ml3 param mode param type;
#X text 1730 943 ml3 param/scroll mode value;
#X text 1523 943 ml3 centred mode emotes (0 0);
#X text 1112 970 top line;
#X text 1293 971 bottom line;
#X text 2344 941 ml3 scroll mode length;
#X obj 933 381 t;
#X obj 933 341 bng 25 250 50 0 empty empty screen\ 0 17 7 0 10 #191919 #e1e1e1 #e1e1e1;
#X msg 883 405 1;
#X obj 1632 448 t;
#X msg 1698 376 0;
#X obj 2225 439 t;
#X obj 3107 758 t;
#X msg 27 447 0;
#X msg 628 411 1;
#X obj 2512 872 r scmgr.ml3_display_mode;
#X obj 2343 397 s scmgr.ml3_display_mode;
#X obj 1695 414 s scmgr.ml3_display_mode;
#X obj 880 443 s scmgr.ml3_display_mode;
#X obj 628 442 s scmgr.ml3_display_mode;
#X obj 24 485 s scmgr.ml3_display_mode, f 32;
#X obj 1265 55 r scmgr.select;
#X obj 208 782 s scmgr.select;
#X obj 504 775 s scmgr.select;
#X obj 1589 244 s scmgr.debug;
#X obj 1531 47 r scmgr.debug;
#X obj 1531 77 prepend scmgr:;
#X obj 1939 872 r scmgr.ml3_autohide;
#X obj 1730 872 r scmgr.ml3_value;
#X obj 1525 874 r scmgr.ml3_emote;
#X obj 2102 872 r scmgr.ml3_param_type;
#X obj 2302 872 r scmgr.ml3_scroll_length;
#X msg 1703 540 init_params ?mdbank /?mnmbank ?bpm /~s t;
#X obj 687 405 r scmgr.temp_param.val;
#X obj 293 381 r scmgr.temp;
#X obj 1884 441 bng 25 250 50 0 empty empty empty 17 7 0 10 #191919 #e1e1e1 #e1e1e1;
#X obj 1884 476 loadmess bang;
#X obj 2393 422 loadmess bang;
#X obj 3204 720 loadmess bang;
#X obj 1884 402 r scmgr.store_screens;
#X msg 643 331 167;
#X obj 643 274 t;
#X obj 661 213 bng 25 250 50 0 empty empty empty 17 7 0 10 #191919 #e1e1e1 #e1e1e1;
#X msg 607 584 clear;
#X obj 491 639 pipe;
#X msg 361 584 clear;
#X obj 247 639 pipe;
#X obj 442 283 bng 25 250 50 0 empty empty empty 17 7 0 10 #191919 #e1e1e1 #e1e1e1;
#X msg 442 319 flush;
#X obj 442 255 r scmgr.goawaytemp_param;
#X obj 1418 217 s scmgr.current_screen;
#X obj 1165 508 s scmgr.startup-100ms;
#X msg 2382 366 3;
#X obj 2423 372 s scmgr.ml3_autohide;
#X msg 2410 342 0;
#X obj 2757 583 s scmgr.ml3_scroll_length;
#X obj 2436 270 s scmgr.ml3_value;
#X obj 2426 237 t b f;
#X obj 2613 471 list;
#X obj 2703 468 zl len;
#X msg 2347 496 init_simple global settings;
#X obj 2587 525 zl lookup;
#X floatatom 2574 473 5 0 0 0 - - - 12;
#X obj 2567 495 i;
#X obj 2601 431 t b l;
#X floatatom 2382 172 5 0 0 0 - - - 12;
#X obj 2588 553 prepend init_simple;
#X obj 2783 544 s scmgr.NumberOfGlobalSettings;
#X obj 2424 205 spigot 0;
#X obj 2384 137 r scmgr.GlobalSettingsSelection;
#X obj 1361 15 bng 25 250 50 0 empty empty empty 17 7 0 10 #191919 #e1e1e1 #e1e1e1;
#X obj 2706 492 - 1;
#X text 2141 813 todo: having a selector for each of these outlets for each screen would be good \, instead of having to set conditionals as & when needed to route controls;
#X obj 2481 600 s scmgr.GlobalSettingsSelectionName;
#X floatatom 1403 315 5 0 0 0 - - - 12;
#X msg 3204 766 init_simple seg grouping tools;
#X msg 2999 753 init_simple -;
#X obj 3248 939 s scmgr.ml3_display_mode;
#X msg 3250 872 3;
#X obj 3172 907 s scmgr.ml3_autohide;
#X msg 3152 851 0;
#X msg 1572 502 init_params ?seg /?segs +abcd ?rep /?reps ?beat /?len;
#X obj 4016 410 bng 27 250 50 0 empty empty empty 17 7 0 10 #191919 #e1e1e1 #e1e1e1;
#X obj 3839 679 s scmgr.ml3_display_mode;
#X obj 4147 1039 loadmess bang;
#X msg 3839 651 3;
#X obj 3835 617 s scmgr.ml3_autohide;
#X msg 3841 586 0;
#X obj 4503 1041 s scmgr.ml3_scroll_length;
#X obj 4220 819 s scmgr.ml3_value;
#X obj 4210 786 t b f;
#X obj 4381 923 list;
#X obj 4464 938 zl len;
#X obj 4355 977 zl lookup;
#X floatatom 4342 925 5 0 0 0 - - - 12;
#X obj 4335 947 i;
#X obj 4369 883 t b l;
#X floatatom 4166 721 5 0 0 0 - - - 12;
#X obj 4356 1005 prepend init_simple;
#X obj 4208 754 spigot 0;
#X obj 4467 962 - 1;
#X obj 4168 627 r scmgr.MsetSelection;
#X obj 4009 1046 line_manager 4b;
#X obj 4122 1208 line_manager 4a;
#X obj 4439 1092 s scmgr.MsetSelectionName;
#X obj 4561 1009 s scmgr.NumberOfMsets;
#X obj 4372 854 list;
#X obj 4016 530 t b b b;
#X obj 4081 492 s scmgr.GetMsetList;
#X obj 4390 805 r scmgr.MsetList;
#X obj 4197 1068 r scmgr.CurrentlyLoadedMsetName;
#X obj 4187 1109 symbol;
#X msg 4147 1147 init_simple mset: \$1;
#X obj 2449 166 r global_settings.focus;
#X obj 4261 698 r mset_manager.focus;
#X obj 4050 359 r scmgr.RepopulateMsetListUI;
#X obj 4023 487 del 50;
#X obj 4022 453 t;
#X obj 2419 459 gate 2 1;
#X msg 2620 206 1;
#X msg 2657 207 2;
#X obj 2614 242 f;
#X obj 2616 169 r env_prod_defaults_set;
#X obj 2777 168 r env_dev_defaults_set;
#X msg 2372 524 init_simple global settings DEV;
#X obj 2610 270 t b f;
#X obj 1062 638 list append;
#X obj 1055 665 route list;
#X msg 1061 582 init_simple emsys;
#X obj 1098 608 r emsys.version;
#X msg 600 626 1500;
#X msg 352 626 1000;
#X msg 2607 386 list ml3.midich ml3.midich.pads env.defaults.tog md.midich.pgm md.midich.notes mnm.midich.pgm mnm.midich.notes cc.tempo.tog cc.midich, f 69;
#X obj 452 906 s scmgr.TempSimpleDuration;
#X obj 482 939 s scmgr.TempParamDuration;
#X obj 902 1127 line_manager static1_a;
#X obj 743 1129 line_manager static1_b;
#X obj 901 1089 prepend init_simple;
#X obj 743 1088 prepend init_simple;
#X obj 1090 914 selector 8, f 23;
#X obj 1293 874 selector 8, f 20;
#X obj 748 1040 route b a, f 15;
#X obj 788 961 r scmgr.static;
#X msg 894 956 1;
#X obj 894 987 s scmgr.ml3_display_mode;
#X obj 1435 256 sel 2 3 4 5 6;
#X msg 867 1027 7;
#X obj 478 1136 bng 25 250 50 0 empty empty empty 17 7 0 10 #191919 #e1e1e1 #e1e1e1;
#X obj 435 1243 s scmgr.select;
#X obj 481 1035 r ctl.shift_state;
#X obj 482 1071 sel 0;
#X obj 1351 208 + 2;
#X obj 791 991 t a b;
#X obj 450 1203 gate 1 1, f 7;
#X obj 415 1106 tgl 25 0 empty empty empty 17 7 0 10 #191919 #e1e1e1 #e1e1e1 0 1;
#X obj 248 1061 r scmgr.PreventShiftFromEscapingUI;
#X obj 248 1098 == 0;
#X obj 393 1181 sel 1;
#X text 295 1001 logic for Shift button escaping temp or static UI states, f 20;
#X obj 1098 129 r scmgr.PreventScreenSwitching;
#X obj 1100 192 tgl 25 0 empty empty empty 17 7 0 10 #191919 #e1e1e1 #e1e1e1 0 1;
#X obj 1100 162 == 0;
#X obj 1350 180 i;
#X obj 1348 142 spigot 1;
#X obj 1227 213 sel 1;
#X connect 2 0 27 0;
#X connect 2 0 5 0;
#X connect 3 0 2 0;
#X connect 3 0 28 0;
#X connect 4 0 27 0;
#X connect 4 0 128 0;
#X connect 5 0 28 0;
#X connect 5 0 4 0;
#X connect 6 0 7 0;
#X connect 7 0 5 1;
#X connect 8 0 4 1;
#X connect 9 0 8 0;
#X connect 10 0 12 0;
#X connect 12 0 240 0;
#X connect 13 0 86 0;
#X connect 14 0 88 0;
#X connect 15 0 89 0;
#X connect 16 0 217 2;
#X connect 17 0 216 3;
#X connect 18 0 217 3;
#X connect 19 0 216 6;
#X connect 20 0 217 6;
#X connect 21 0 216 4;
#X connect 22 0 217 4;
#X connect 24 0 151 0;
#X connect 24 0 222 0;
#X connect 24 1 216 8;
#X connect 24 1 217 8;
#X connect 25 0 216 2;
#X connect 26 0 25 0;
#X connect 27 0 30 0;
#X connect 28 0 30 0;
#X connect 29 0 30 0;
#X connect 30 0 26 0;
#X connect 31 0 101 0;
#X connect 32 0 216 8;
#X connect 32 0 217 8;
#X connect 33 0 123 0;
#X connect 33 1 45 0;
#X connect 33 2 32 0;
#X connect 33 2 120 0;
#X connect 33 2 208 0;
#X connect 33 2 90 0;
#X connect 34 0 99 0;
#X connect 35 0 12 0;
#X connect 36 0 38 0;
#X connect 37 0 38 0;
#X connect 38 0 40 0;
#X connect 38 1 41 0;
#X connect 40 0 33 0;
#X connect 41 0 47 0;
#X connect 44 0 38 0;
#X connect 45 0 216 0;
#X connect 46 0 217 0;
#X connect 47 0 121 0;
#X connect 47 1 49 0;
#X connect 47 2 122 0;
#X connect 47 2 50 0;
#X connect 47 2 51 0;
#X connect 47 2 58 0;
#X connect 47 2 91 0;
#X connect 47 2 207 0;
#X connect 48 0 216 1;
#X connect 49 0 217 1;
#X connect 50 0 216 8;
#X connect 50 0 217 8;
#X connect 51 0 48 0;
#X connect 52 0 46 0;
#X connect 53 0 121 0;
#X connect 53 1 120 0;
#X connect 54 0 53 0;
#X connect 55 0 100 0;
#X connect 56 0 52 0;
#X connect 57 0 54 0;
#X connect 57 0 48 0;
#X connect 58 0 59 0;
#X connect 59 0 57 1;
#X connect 60 0 59 0;
#X connect 83 0 29 0;
#X connect 83 0 3 0;
#X connect 83 0 6 0;
#X connect 83 0 9 0;
#X connect 83 0 205 0;
#X connect 83 1 85 0;
#X connect 84 0 83 0;
#X connect 85 0 95 0;
#X connect 86 0 18 0;
#X connect 86 0 17 0;
#X connect 86 1 87 0;
#X connect 87 0 94 0;
#X connect 88 0 19 0;
#X connect 88 0 20 0;
#X connect 88 1 129 0;
#X connect 88 1 131 0;
#X connect 88 1 209 0;
#X connect 89 0 22 0;
#X connect 89 0 21 0;
#X connect 89 1 155 0;
#X connect 89 1 157 0;
#X connect 90 0 97 0;
#X connect 91 0 96 0;
#X connect 92 0 65 0;
#X connect 98 0 12 0;
#X connect 102 0 103 0;
#X connect 103 0 23 0;
#X connect 104 0 68 0;
#X connect 105 0 70 0;
#X connect 106 0 63 0;
#X connect 107 0 67 0;
#X connect 108 0 72 0;
#X connect 109 0 18 0;
#X connect 110 0 57 0;
#X connect 111 0 38 0;
#X connect 112 0 113 0;
#X connect 112 0 114 0;
#X connect 112 0 115 0;
#X connect 113 0 158 0;
#X connect 113 0 109 0;
#X connect 114 0 209 0;
#X connect 114 0 195 1;
#X connect 115 0 152 0;
#X connect 115 0 153 0;
#X connect 116 0 112 0;
#X connect 117 0 57 0;
#X connect 118 0 117 0;
#X connect 118 1 36 0;
#X connect 119 0 118 0;
#X connect 120 0 121 0;
#X connect 121 0 55 0;
#X connect 121 0 60 0;
#X connect 122 0 123 0;
#X connect 123 0 34 0;
#X connect 124 0 125 0;
#X connect 125 0 121 0;
#X connect 126 0 124 0;
#X connect 129 0 93 0;
#X connect 131 0 130 0;
#X connect 134 0 19 0;
#X connect 134 1 133 0;
#X connect 135 0 136 0;
#X connect 135 0 138 1;
#X connect 136 0 148 0;
#X connect 137 0 20 0;
#X connect 138 0 143 0;
#X connect 138 0 150 0;
#X connect 139 0 140 0;
#X connect 140 0 138 0;
#X connect 141 0 139 0;
#X connect 141 1 135 0;
#X connect 142 0 138 0;
#X connect 142 0 145 0;
#X connect 143 0 19 0;
#X connect 145 0 134 0;
#X connect 146 0 142 0;
#X connect 147 0 12 0;
#X connect 148 0 144 0;
#X connect 148 0 132 0;
#X connect 152 0 22 0;
#X connect 153 0 21 0;
#X connect 155 0 154 0;
#X connect 157 0 156 0;
#X connect 158 0 17 0;
#X connect 159 0 194 0;
#X connect 161 0 183 0;
#X connect 161 0 188 0;
#X connect 162 0 160 0;
#X connect 164 0 163 0;
#X connect 167 0 179 0;
#X connect 167 1 166 0;
#X connect 168 0 169 0;
#X connect 168 0 170 1;
#X connect 169 0 177 0;
#X connect 170 0 175 0;
#X connect 170 0 181 0;
#X connect 171 0 172 0;
#X connect 172 0 170 0;
#X connect 173 0 171 0;
#X connect 173 1 168 0;
#X connect 174 0 170 0;
#X connect 174 0 176 0;
#X connect 175 0 179 0;
#X connect 176 0 167 0;
#X connect 177 0 165 0;
#X connect 177 0 182 0;
#X connect 178 0 174 0;
#X connect 179 0 216 5;
#X connect 180 0 217 5;
#X connect 183 0 173 0;
#X connect 184 0 179 0;
#X connect 184 0 180 0;
#X connect 184 1 162 0;
#X connect 184 1 164 0;
#X connect 184 2 183 0;
#X connect 186 0 183 1;
#X connect 187 0 188 0;
#X connect 188 0 189 0;
#X connect 189 0 180 0;
#X connect 190 0 145 1;
#X connect 191 0 176 1;
#X connect 192 0 159 0;
#X connect 193 0 184 0;
#X connect 194 0 193 0;
#X connect 194 1 185 0;
#X connect 195 0 137 0;
#X connect 195 1 201 0;
#X connect 196 0 198 0;
#X connect 197 0 198 0;
#X connect 198 0 202 0;
#X connect 199 0 196 0;
#X connect 200 0 197 0;
#X connect 201 0 20 0;
#X connect 202 0 114 0;
#X connect 202 1 195 0;
#X connect 203 0 204 0;
#X connect 204 0 16 0;
#X connect 205 0 203 0;
#X connect 206 0 203 1;
#X connect 207 0 121 1;
#X connect 207 0 211 0;
#X connect 208 0 56 0;
#X connect 208 0 123 1;
#X connect 208 0 210 0;
#X connect 209 0 141 0;
#X connect 212 0 217 7;
#X connect 213 0 216 7;
#X connect 214 0 212 0;
#X connect 215 0 213 0;
#X connect 216 0 0 0;
#X connect 217 0 1 0;
#X connect 218 0 215 0;
#X connect 218 1 214 0;
#X connect 219 0 229 0;
#X connect 220 0 221 0;
#X connect 222 0 84 0;
#X connect 222 1 13 0;
#X connect 222 2 15 0;
#X connect 222 3 159 0;
#X connect 222 4 14 0;
#X connect 222 5 31 0;
#X connect 223 0 216 8;
#X connect 223 0 217 8;
#X connect 224 0 230 1;
#X connect 226 0 227 0;
#X connect 227 0 224 0;
#X connect 228 0 24 0;
#X connect 229 0 218 0;
#X connect 229 1 223 0;
#X connect 229 1 220 0;
#X connect 230 0 225 0;
#X connect 231 0 230 0;
#X connect 231 0 234 0;
#X connect 232 0 233 0;
#X connect 233 0 231 0;
#X connect 234 0 225 0;
#X connect 236 0 238 0;
#X connect 237 0 240 1;
#X connect 237 0 241 0;
#X connect 238 0 237 0;
#X connect 239 0 228 0;
#X connect 239 0 127 0;
#X connect 240 0 239 0;
#X connect 241 0 12 0;
