#N canvas 827 239 734 565 12;
#X obj 273 51 r scmgr.current_screen;
#X obj 275 167 sel 1;
#X obj 273 135 change;
#X obj 272 207 t;
#X text 530 50 shift reloads clr;
#X obj 553 124 spigot 0, f 12;
#X obj 543 81 r ctl.shift;
#X obj 57 241 clrstore \$1;
#X obj 315 325 clr \$1 1;
#X obj 262 251 s ctl.load_clrstore_\$1;
#X obj 272 83 == \$1;
#X obj 549 289 s ctl.load_clrstore_\$1;
#X obj 179 135 s \$2.focus;
#X obj 643 87 r \$2.focus;
#X msg 318 290 clear_local;
#X msg 629 223 clear;
#X obj 549 169 sel 0 1;
#X obj 629 257 clr \$1 1;
#X msg 519 289 4;
#X msg 494 289 5;
#X obj 486 368 clr \$1 1;
#X msg 534 334 cyan;
#X obj 594 334 loadmess bang;
#X msg 468 289 0;
#X obj 549 223 t b b b;
#X obj 49 61 loadmess bang;
#X obj 49 142 clr \$1;
#X msg 49 101 clear;
#X connect 0 0 10 0;
#X connect 1 0 3 0;
#X connect 2 0 1 0;
#X connect 3 0 9 0;
#X connect 3 1 14 0;
#X connect 5 0 16 0;
#X connect 6 0 5 0;
#X connect 10 0 2 0;
#X connect 10 0 12 0;
#X connect 13 0 5 1;
#X connect 14 0 8 0;
#X connect 15 0 17 0;
#X connect 16 0 24 0;
#X connect 16 1 15 0;
#X connect 18 0 20 1;
#X connect 19 0 20 1;
#X connect 21 0 20 2;
#X connect 22 0 21 0;
#X connect 23 0 20 0;
#X connect 24 0 19 0;
#X connect 24 0 23 0;
#X connect 24 1 18 0;
#X connect 24 1 23 0;
#X connect 24 2 11 0;
#X connect 25 0 27 0;
#X connect 27 0 26 0;
