#N canvas 1440 924 1920 980 12;
#X obj 848 235 sel 127, f 8;
#X obj 560 248 sel 127;
#X text 855 125 stop;
#X obj 853 278 s t.stop;
#X obj 615 328 s t.cont;
#X text 565 138 cont;
#X obj 705 244 s t.prime;
#X obj 521 406 r t.transport_status;
#X obj 965 237 sel 127;
#X obj 1159 306 s t.stop;
#X obj 1104 370 s ctl.reload_mset;
#X obj 1130 266 t;
#X obj 484 582 onebang;
#X obj 522 472 sel 1;
#X obj 545 510 b;
#X msg 543 542 stop;
#X obj 523 438 pipe 50;
#X obj 482 658 s tin.toggle;
#X msg 395 582 set \$1;
#X obj 390 544 r tin.toggle;
#X text 547 573 toggle tin - press cont btn when already playing, f 14;
#X obj 1130 336 s s.reset;
#X obj 1471 282 sel 127;
#X obj 1412 400 s s.hold;
#X obj 1274 520 r t.transport_status;
#X msg 1162 732 9;
#X msg 1189 732 green;
#X obj 1274 549 change;
#X obj 1230 643 == 0;
#X msg 1306 734 white;
#X msg 1281 735 8;
#X obj 1600 230 r s.hold;
#X msg 1682 436 10;
#X msg 1713 436 blue;
#X obj 1643 367 change;
#X obj 702 529 change;
#X obj 690 639 sel 0;
#X obj 702 499 r tin.toggle;
#X obj 734 562 gate 0;
#X obj 531 825 r tin.tinning;
#X msg 592 905 yellow;
#X msg 562 905 8;
#X msg 526 903 1;
#X obj 617 867 onebang;
#X obj 620 825 r t.4n;
#X msg 1323 345 red;
#X obj 790 515 r t.16n;
#X msg 1287 345 7;
#X msg 1219 349 1;
#X msg 1250 346 0;
#X obj 1249 313 del 1000;
#X obj 545 325 onebang;
#X obj 615 280 r s.reset;
#X floatatom 149 828 5 0 0 0 - - - 0;
#X obj 148 858 > 64;
#X obj 189 2052 s s.seek_seg;
#X obj 146 1630 f;
#X obj 214 1578 r s.current_seg_id;
#X obj 150 1687 - 1;
#X obj 189 1690 + 1;
#X obj 187 1631 f;
#X obj 153 1545 sel 0 1, f 11;
#X obj 162 1970 f;
#X floatatom 188 2020 5 0 0 0 - - - 0;
#X msg 238 1834 \$1;
#X obj 127 2097 s ctl.update_text;
#X obj 127 2059 del 50;
#X floatatom 240 1685 5 0 127 0 - - - 0;
#X obj 246 1652 r s.num_of_segs;
#X obj 164 1734 min;
#X obj 151 1765 max 1;
#X floatatom 191 1794 5 0 0 0 - - - 0;
#X obj 154 896 sel 0 1, f 13;
#X obj 65 927 r t.tempo;
#X obj 132 998 f;
#X obj 177 1001 f;
#X obj 129 1037 - 1;
#X obj 174 1036 + 1;
#X floatatom 156 1153 5 0 0 0 - - - 0;
#X obj 274 1197 s t.tempo;
#X obj 151 1119 max 30;
#X obj 147 1086 min 300;
#X obj 89 1199 s ctl.manual_tempo_change;
#X obj 3141 864 tgl 20 0 empty empty empty 0 -10 0 12 #fcfcfc #000000 #000000 0 1;
#X obj 2188 888 spigot;
#X floatatom 2174 843 5 0 0 0 - - - 0;
#X obj 2170 1113 i;
#X floatatom 2182 1152 5 0 0 0 - - - 0;
#X obj 2149 1289 s t.tempo;
#X obj 2140 1260 s ctl.manual_tempo_change;
#X obj 2209 1225 s s.write_seg_data;
#X msg 2215 1194 bpm \$1;
#X obj 2355 897 spigot;
#X floatatom 2341 852 5 0 0 0 - - - 0;
#X obj 2345 974 i;
#X floatatom 2346 1014 5 0 0 0 - - - 0;
#X obj 2345 1096 s s.write_seg_data;
#X msg 2345 1051 bpmr \$1;
#X obj 2350 941 scale 0 127 0 127;
#X obj 1827 886 spigot;
#X floatatom 1813 841 5 0 0 0 - - - 0;
#X obj 1817 963 i;
#X floatatom 1814 996 5 0 0 0 - - - 0;
#X obj 1783 1144 s s.write_seg_data;
#X obj 1994 895 spigot;
#X floatatom 1980 850 5 0 0 0 - - - 0;
#X obj 1984 972 i;
#X floatatom 1982 1000 5 0 0 0 - - - 0;
#X obj 1970 1145 s s.write_seg_data;
#X msg 1789 1113 md \$1;
#X msg 1970 1100 mnm \$1;
#X obj 1807 1069 pgm2bank;
#X obj 1822 930 scale 0 127 1 128;
#X obj 1970 1068 pgm2bank;
#X obj 1811 1031 t b f;
#X obj 1975 1031 t b f;
#X obj 1989 939 scale 0 127 1 128;
#X obj 2539 899 spigot;
#X floatatom 2525 854 5 0 0 0 - - - 0;
#X obj 2533 1105 s s.write_seg_data;
#X obj 2714 899 spigot;
#X floatatom 2700 854 5 0 0 0 - - - 0;
#X obj 2704 1098 s s.write_seg_data;
#X obj 2538 1015 tgl 20 0 empty empty empty 0 -10 0 12 #fcfcfc #000000 #000000 0 1;
#X msg 2533 1061 tin \$1;
#X obj 2702 1018 tgl 20 0 empty empty empty 0 -10 0 12 #fcfcfc #000000 #000000 0 1;
#X msg 2704 1053 poly \$1;
#X obj 2536 949 > 63;
#X obj 2711 948 > 63;
#X obj 2879 900 spigot;
#X floatatom 2865 855 5 0 0 0 - - - 0;
#X obj 2873 1106 s s.write_seg_data;
#X obj 3054 900 spigot;
#X floatatom 3040 855 5 0 0 0 - - - 0;
#X obj 3044 1099 s s.write_seg_data;
#X msg 2873 1062 rep \$1;
#X msg 3044 1054 len \$1;
#X obj 2863 972 i;
#X floatatom 2864 1012 5 0 0 0 - - - 0;
#X obj 3030 981 i;
#X floatatom 3031 1021 5 0 0 0 - - - 0;
#X obj 2868 939 scale 0 127 1 16;
#X obj 2962 1286 s t.stop;
#X obj 2978 1148 b;
#X obj 3035 948 scale 0 127 6 64;
#X obj 2970 1240 del 100;
#X obj 3036 1242 onebang;
#X obj 2886 1194 t b b;
#X msg 2977 1201 stop;
#X obj 2774 1052 s s.poly;
#X msg 1499 1570 copy;
#X obj 1499 1533 sel 127;
#X obj 1204 1536 sel 127;
#X obj 1407 1538 sel 127;
#X msg 1412 1574 paste;
#X msg 1312 1576 delete;
#X obj 1312 1439 sel 127, f 8;
#X obj 1214 1298 ctlin;
#X obj 1226 1354 spigot 1;
#X obj 1312 1544 bng 20 250 50 0 empty empty empty 0 -10 0 12 #fcfcfc #000000 #000000;
#X obj 1230 1381 sel 106;
#X obj 1526 1722 bng 20 250 50 0 empty empty empty 0 -10 0 12 #fcfcfc #000000 #000000;
#X obj 1601 1738 bng 20 250 50 0 empty empty empty 0 -10 0 12 #fcfcfc #000000 #000000;
#X obj 1646 1740 bng 20 250 50 0 empty empty empty 0 -10 0 12 #fcfcfc #000000 #000000;
#X obj 1687 1740 bng 20 250 50 0 empty empty empty 0 -10 0 12 #fcfcfc #000000 #000000;
#X obj 1517 1629 tosymbol;
#X msg 1289 1911 yellow;
#X msg 1297 1974 1;
#X msg 1499 1907 10;
#X obj 1570 1900 bng 20 250 50 0 empty empty empty 0 -10 0 12 #fcfcfc #000000 #000000;
#X obj 1269 2003 bng 20 250 50 0 empty empty empty 0 -10 0 12 #fcfcfc #000000 #000000;
#X msg 1271 2064 0;
#X obj 1264 2034 del 250;
#X msg 1460 1909 9;
#X msg 1425 1909 8;
#X msg 1390 1911 7;
#X obj 1372 1664 sel 0;
#X obj 1921 1659 text set seg_data_buffer;
#X obj 1841 1485 text define seg_data_buffer;
#X obj 1854 1775 text get seg_data_buffer;
#X obj 1921 1621 text get set;
#X obj 2070 1358 r s.current_seg_id;
#X floatatom 2071 1418 5 0 0 0 - - - 0;
#X obj 1922 1585 i;
#X obj 1870 1830 text insert set;
#X obj 2141 1675 i;
#X obj 2136 1707 + 1;
#X msg 1853 1738 0;
#X obj 1564 2031 s s.save;
#X obj 1483 2031 s s.reload;
#X obj 1558 1996 del 25;
#X obj 2069 1390 - 1;
#X obj 1485 1997 del 50;
#X obj 2150 1894 s s.seek_seg;
#X obj 2157 1861 i;
#X obj 2012 1893 s ctl.update_text;
#X obj 2083 1848 bng 20 250 50 0 empty empty empty 0 -10 0 12 #fcfcfc #000000 #000000;
#X obj 2153 1812 + 1;
#X obj 2125 1773 del 75;
#X obj 2084 1822 del 25;
#X obj 1854 1952 text delete set;
#X obj 1875 1896 i;
#X obj 1308 1482 counter 0 0 1;
#X obj 1309 1511 sel 1;
#X msg 1204 1573 insert;
#X obj 1883 1536 t b b b;
#X obj 2780 1755 text get set;
#X obj 2395 2089 zl filter;
#X obj 2526 2089 zl filter;
#X msg 2394 1921 A01 A02 A03 A04 A05 A06 A07 A08 A09 A10 A11 A12 A13 A14 A15 A16 B01 B02 B03 B04 B05 B06 B07 B08 B09 B10 B11 B12 B13 B14 B15 B16 C01 C02 C03 C04 C05 C06 C07 C08 C09 C10 C11 C12 C13 C14 C15 C16 D01 D02 D03 D04 D05 D06 D07 D08 D09 D10 D11 D12 D13 D14 D15 D16 E01 E02 E03 E04 E05 E06 E07 E08 E09 E10 E11 E12 E13 E14 E15 E16 F01 F02 F03 F04 F05 F06 F07 F08 F09 F10 F11 F12 F13 F14 F15 F16 G01 G02 G03 G04 G05 G06 G07 G08 G09 G10 G11 G12 G13 G14 G15 G16 H01 H02 H03 H04 H05 H06 H07 H08 H09 H10 H11 H12 H13 H14 H15 H16, f 72;
#X obj 2475 1794 bng 20 250 50 0 empty empty empty 0 -10 0 12 #fcfcfc #000000 #000000;
#X obj 2520 1886 list;
#X obj 2566 1892 list;
#X obj 2792 1482 text size set;
#X obj 2757 1576 uzi;
#X floatatom 2789 1514 5 0 0 0 - - - 0;
#X obj 2765 1612 counter 0 0;
#X obj 2818 1573 - 1;
#X obj 2776 1544 t f f;
#X floatatom 2760 1646 5 0 0 0 - - - 0;
#X obj 2770 1682 t f b;
#X msg 2797 1717 1;
#X obj 2786 1793 zl nth 1;
#X obj 2794 1836 zl group;
#X obj 2904 1758 text get set;
#X floatatom 2884 1649 5 0 0 0 - - - 0;
#X obj 2894 1685 t f b, f 7;
#X obj 2910 1796 zl nth 1;
#X obj 2918 1839 zl group;
#X msg 2920 1719 3;
#X msg 2979 1801 zlclear;
#X obj 2784 1447 bng 20 250 50 0 empty empty empty 0 -10 0 12 #fcfcfc #000000 #000000;
#X obj 2398 2125 zl nth 1;
#X obj 2523 2123 zl nth 1;
#X obj 2362 2248 symbol;
#X obj 2474 1822 t b b b b;
#X obj 2324 2137 t b b;
#X obj 2367 2343 s s.write_seg_data;
#X obj 2470 1762 del 500;
#X msg 2464 2283 mnm \$1;
#X msg 2365 2296 md \$1;
#X obj 2463 2241 symbol;
#X obj 2503 2181 tosymbol;
#X obj 2419 2176 tosymbol;
#X obj 1103 432 s s.reload;
#X obj 1104 401 del 200;
#X obj 2209 1369 r s.num_of_segs;
#X floatatom 2209 1404 5 0 0 0 - - - 0;
#X obj 2179 1447 <;
#X obj 2180 1474 tgl 20 0 empty empty empty 0 -10 0 12 #fcfcfc #000000 #000000 0 1;
#X obj 2099 1553 i;
#X obj 2179 1509 sel 1 0;
#X obj 2192 1549 - 1;
#X obj 2173 1581 i;
#X floatatom 2124 1604 5 0 0 0 - - - 0;
#X obj 2142 1550 i;
#X obj 2101 1473 t b f f;
#X obj 2380 1489 s t.clock_toggle;
#X msg 2470 1407 1;
#X obj 2454 1444 pipe 500;
#X text 2366 1250 stop clock for a bit while loading pgm... fixes 'sysex error' on mcl loads for now, f 29;
#X obj 2370 1378 r s.seek_seg;
#X msg 2381 1452 0;
#X obj 2379 1419 bng 20 250 50 0 empty empty empty 0 -10 0 12 #fcfcfc #000000 #000000;
#X msg 2547 1407 clear;
#X obj 2472 1334 t f b;
#X obj 2471 1368 sel 0;
#X obj 2183 932 scale 1 127 30 300;
#X obj 2173 1012 < 30;
#X obj 2157 1045 sel 0 1;
#X msg 2178 1077 0;
#X obj 2181 970 t f f;
#X obj 1788 779 ctl.in 86 33;
#X obj 1956 778 ctl.in 87 33;
#X obj 2149 781 ctl.in 14 33;
#X obj 2316 790 ctl.in 15 33;
#X obj 2500 792 ctl.in 89 33;
#X obj 2675 792 ctl.in 90 33;
#X obj 2840 793 ctl.in 30 33;
#X obj 3015 793 ctl.in 31 33;
#X obj 1837 738 r midich_ml3;
#X obj 242 1866 s ctl.desired_seek_seg;
#X obj 107 1244 t f b, f 8;
#X obj 107 1323 s scmgr.temp_param.val;
#X obj 138 1354 s scmgr.temp;
#X obj 384 673 t f b, f 8;
#X obj 384 735 s scmgr.temp_param.val;
#X obj 415 766 s scmgr.temp;
#X msg 415 709 temp_param manual tin;
#X obj 1009 1982 tosymbol;
#X obj 1009 2048 s scmgr.temp;
#X obj 1009 2017 prepend temp_simple;
#X obj 1009 1948 list append segment;
#X msg 1009 1912 inserted;
#X msg 1081 1912 deleted;
#X msg 1149 1912 pasted;
#X msg 1211 1912 copied;
#X obj 1485 387 t f b, f 8;
#X obj 1485 449 s scmgr.temp_param.val;
#X obj 1516 480 s scmgr.temp;
#X msg 1516 423 temp_param hold;
#X obj 1224 445 s scmgr.temp;
#X msg 1224 420 temp_simple reset set;
#X obj 1514 1855 t;
#X obj 1467 1859 t;
#X obj 1418 1864 t;
#X obj 1374 1866 t;
#X obj 2275 1778 counter 0 0 1;
#X obj 2274 1807 sel 0 1;
#X obj 2307 1742 bng 25 250 50 0 empty empty empty 17 7 0 10 #191919 #e1e1e1 #e1e1e1;
#X obj 2276 1741 bng 25 250 50 0 empty empty empty 17 7 0 10 #191919 #e1e1e1 #e1e1e1;
#X obj 2342 1565 ctlin;
#X obj 2328 2047 bng 25 250 50 0 empty empty commit 17 7 0 10 #191919 #e1e1e1 #e1e1e1;
#X obj 2624 2231 t b s;
#X obj 2625 2265 join;
#X obj 2298 1931 spigot 0;
#X obj 2272 1857 t;
#X obj 2315 1854 t;
#X msg 2289 1887 0;
#X msg 2331 1887 1;
#X text 2058 1926 you now have to double press insert in order to commit the insert. pressing it only once will now preview where the next available slot is, f 31;
#X obj 105 177 r scmgr.current_screen;
#X obj 104 209 == 1;
#X obj 105 244 s seg_manager.focus;
#X obj 1478 202 spigot 0, f 12;
#X obj 958 30 r seg_manager.focus;
#X obj 556 213 spigot 0, f 12;
#X obj 847 200 spigot 0, f 12;
#X obj 965 190 spigot 0, f 12;
#X obj 209 752 r seg_manager.focus;
#X obj 134 792 spigot 0, f 14;
#X obj 1195 1504 spigot 0, f 14;
#X obj 1562 1302 r seg_manager.focus;
#X obj 1314 1410 spigot 0, f 14;
#X obj 1228 1327 spigot 0, f 14;
#X obj 1500 1501 spigot 0, f 14;
#X obj 1409 1507 spigot 0, f 11;
#X obj 2367 1635 spigot 0, f 11;
#X obj 2435 1573 r seg_manager.focus;
#X obj 1800 813 spigot 0, f 11;
#X obj 1639 779 r seg_manager.focus;
#X obj 1962 815 spigot 0, f 11;
#X obj 2157 808 spigot 0, f 11;
#X obj 2326 820 spigot 0, f 11;
#X obj 2507 822 spigot 0, f 11;
#X obj 2683 821 spigot 0, f 11;
#X obj 2848 827 spigot 0, f 11;
#X obj 3024 827 spigot 0, f 11;
#X obj 257 247 sel 1;
#X floatatom 144 294 5 0 0 0 - - - 12;
#X obj 256 217 change;
#X obj 304 175 clrstore 1;
#X obj 169 358 s ctl.load_clrstore_1;
#X obj 1309 1758 s ctl.load_clrstore_1;
#X obj 219 133 s ctl.load_clrstore_1;
#X obj 1373 2020 clr 1;
#X obj 1250 790 clr 1;
#X obj 529 951 clr 1;
#X obj 1264 387 clr 1;
#X obj 1655 479 clr 1;
#X obj 293 315 clr 1 1;
#X msg 296 280 clear;
#X obj 254 275 t;
#X obj 105 445 ctl.in 27 33;
#X obj 182 417 r midich_ml3;
#X text 80 407 shift reloads clr;
#X obj 96 537 s ctl.load_clrstore_1;
#X obj 193 453 r seg_manager.focus;
#X obj 103 490 spigot 0, f 12;
#X obj 121 586 loadbang;
#X msg 121 611 clear;
#X obj 118 646 clr 1;
#X obj 1509 1665 sel insert delete paste copy;
#X text 972 120 reload;
#X obj 966 284 s s.reload;
#X obj 963 157 r ctl.loop;
#X obj 1479 161 r ctl.rec;
#X obj 556 173 r ctl.play;
#X obj 845 161 r ctl.stop;
#X obj 132 756 r ctl.enc;
#X obj 157 1411 r ctl.shift.enc;
#X floatatom 161 1477 5 0 0 0 - - - 12;
#X obj 156 1445 spigot 0, f 14;
#X obj 258 1415 r seg_manager.focus;
#X obj 161 1511 > 64;
#X obj 183 1577 bng 25 250 50 0 empty empty empty 17 7 0 10 #191919 #e1e1e1 #e1e1e1;
#X obj 152 1577 bng 25 250 50 0 empty empty empty 17 7 0 10 #191919 #e1e1e1 #e1e1e1;
#X obj 147 2013 bng 25 250 50 0 empty empty empty 17 7 0 10 #191919 #e1e1e1 #e1e1e1;
#X obj 187 923 bng 25 250 50 0 empty empty empty 17 7 0 10 #191919 #e1e1e1 #e1e1e1;
#X obj 148 925 bng 25 250 50 0 empty empty empty 17 7 0 10 #191919 #e1e1e1 #e1e1e1;
#X obj 2473 1306 r ctl.shift;
#X obj 3141 834 r ctl.shift;
#X obj 708 161 r ctl.stop.play;
#X obj 711 202 spigot 0, f 12;
#X obj 484 332 bng 25 250 50 0 empty empty empty 17 7 0 10 #191919 #e1e1e1 #e1e1e1;
#X text 748 130 prime;
#X obj 545 361 s t.prime;
#X text 610 351 if we reset before \, prime, f 12;
#X obj 1150 155 r ctl.stop.loop;
#X obj 1149 198 spigot 0, f 12;
#X text 1159 127 reset;
#X obj 220 98 bng 25 250 50 0 empty empty empty 17 7 0 10 #191919 #e1e1e1 #e1e1e1;
#X msg 727 415 9;
#X msg 752 414 green;
#X obj 706 459 clr 1;
#X obj 716 343 flash_tog;
#X msg 731 745 9;
#X obj 695 779 clr 1;
#X msg 756 748 yellow;
#X msg 717 673 1;
#X obj 1504 317 bng 25 250 50 0 empty empty empty 17 7 0 10 #191919 #e1e1e1 #e1e1e1;
#X obj 1471 320 tgl 25 0 empty empty empty 17 7 0 10 #191919 #e1e1e1 #e1e1e1 0 1;
#X msg 1538 284 set \$1;
#X text 1501 125 hold;
#X obj 745 594 tgl 25 0 empty empty empty 17 7 0 10 #191919 #e1e1e1 #e1e1e1 0 1;
#X obj 482 619 tgl 25 0 empty empty empty 17 7 0 10 #191919 #e1e1e1 #e1e1e1 0 1;
#X obj 83 1816 r ctl.shift;
#X obj 86 1847 sel 0;
#X obj 104 1891 onebang;
#X obj 166 1832 t b f;
#X obj 1336 549 r seg_manager.transport_colour;
#X obj 659 936 s seg_manager.transport_colour;
#X msg 661 905 1;
#X obj 779 666 s seg_manager.transport_colour;
#X obj 1156 792 clr 1;
#X obj 775 632 bng 25 250 50 0 empty empty empty 17 7 0 10 #191919 #e1e1e1 #e1e1e1;
#X obj 1279 676 t f;
#X obj 1234 677 t f;
#X obj 1316 701 loadmess bang;
#X obj 1274 588 f;
#X obj 909 479 r s.reload;
#X obj 940 605 clr 1;
#X msg 996 549 orange;
#X msg 971 550 7;
#X obj 910 505 bng 25 250 50 0 empty empty empty 17 7 0 10 #191919 #e1e1e1 #e1e1e1;
#X obj 973 517 loadmess bang;
#X msg 891 573 0;
#X msg 914 573 1;
#X obj 1327 311 loadmess bang;
#X obj 1231 263 bng 25 250 50 0 empty empty empty 17 7 0 10 #191919 #e1e1e1 #e1e1e1;
#X obj 423 855 loadmess bang;
#X obj 750 707 loadmess bang;
#X obj 745 378 loadmess bang;
#X obj 1686 402 loadmess bang;
#X obj 888 548 del 75;
#X obj 722 308 r t.prime;
#X msg 138 1280 temp_param manual bpm;
#X obj 92 1279 i;
#X obj 1192 1465 r ctl.shift.loop;
#X obj 1311 1370 r ctl.shift.stop;
#X obj 1256 1410 bng 25 250 50 0 empty empty empty 17 7 0 10 #191919 #e1e1e1 #e1e1e1;
#X obj 1402 1465 r ctl.shift.play;
#X obj 1526 1462 r ctl.shift.rec;
#X obj 2617 2366 tosymbol;
#X obj 2613 2507 s scmgr.static;
#X obj 2614 2405 prepend b;
#X obj 2619 2435 t a b;
#X msg 2617 2324 md: \$1 mnm: \$2;
#X msg 2640 2471 a insert here?;
#X obj 2749 2471 s scmgr.PreventNextShiftFromEscapingUI;
#X msg 1348 1912 red;
#X obj 2259 1602 r ctl.any_pad;
#X obj 2405 1701 s scmgr.select;
#X obj 2388 1664 bng 25 250 50 0 empty empty empty 17 7 0 10 #191919 #e1e1e1 #e1e1e1;
#X obj 2513 1701 s scmgr.PreventShiftFromEscapingUI;
#X msg 2514 1670 0;
#X obj 2358 1598 sel 105 27;
#X connect 0 0 3 0;
#X connect 1 0 394 0;
#X connect 1 0 51 0;
#X connect 1 0 4 0;
#X connect 7 0 16 0;
#X connect 8 0 374 0;
#X connect 11 0 10 0;
#X connect 11 0 245 0;
#X connect 11 1 9 0;
#X connect 11 1 21 0;
#X connect 12 0 415 0;
#X connect 13 0 12 1;
#X connect 13 1 14 0;
#X connect 14 0 15 0;
#X connect 15 0 12 0;
#X connect 16 0 13 0;
#X connect 18 0 415 0;
#X connect 19 0 18 0;
#X connect 22 0 411 0;
#X connect 22 1 410 0;
#X connect 24 0 27 0;
#X connect 25 0 424 1;
#X connect 26 0 424 2;
#X connect 27 0 429 0;
#X connect 28 0 427 0;
#X connect 29 0 356 2;
#X connect 30 0 356 1;
#X connect 31 0 34 0;
#X connect 31 0 412 0;
#X connect 32 0 359 1;
#X connect 33 0 359 2;
#X connect 34 0 359 0;
#X connect 35 0 38 0;
#X connect 36 0 409 0;
#X connect 36 1 425 0;
#X connect 37 0 35 0;
#X connect 38 0 414 0;
#X connect 39 0 43 1;
#X connect 39 0 42 0;
#X connect 40 0 357 2;
#X connect 41 0 357 1;
#X connect 42 0 357 0;
#X connect 43 0 422 0;
#X connect 44 0 43 0;
#X connect 45 0 358 2;
#X connect 46 0 38 1;
#X connect 47 0 358 1;
#X connect 48 0 358 0;
#X connect 49 0 358 0;
#X connect 50 0 49 0;
#X connect 51 0 396 0;
#X connect 52 0 51 1;
#X connect 53 0 54 0;
#X connect 54 0 72 0;
#X connect 56 0 58 0;
#X connect 57 0 56 1;
#X connect 57 0 60 1;
#X connect 58 0 69 0;
#X connect 59 0 69 0;
#X connect 60 0 59 0;
#X connect 61 0 386 0;
#X connect 61 1 385 0;
#X connect 62 0 63 0;
#X connect 62 0 387 0;
#X connect 63 0 55 0;
#X connect 64 0 281 0;
#X connect 66 0 65 0;
#X connect 67 0 69 1;
#X connect 68 0 67 0;
#X connect 69 0 70 0;
#X connect 70 0 71 0;
#X connect 71 0 60 1;
#X connect 71 0 56 1;
#X connect 71 0 64 0;
#X connect 71 0 419 0;
#X connect 72 0 389 0;
#X connect 72 1 388 0;
#X connect 73 0 74 1;
#X connect 73 0 75 1;
#X connect 74 0 76 0;
#X connect 75 0 77 0;
#X connect 76 0 81 0;
#X connect 77 0 81 0;
#X connect 78 0 79 0;
#X connect 78 0 82 0;
#X connect 78 0 282 0;
#X connect 80 0 78 0;
#X connect 81 0 80 0;
#X connect 83 0 84 1;
#X connect 83 0 92 1;
#X connect 83 0 104 1;
#X connect 83 0 99 1;
#X connect 83 0 117 1;
#X connect 83 0 120 1;
#X connect 83 0 129 1;
#X connect 83 0 132 1;
#X connect 84 0 267 0;
#X connect 85 0 84 0;
#X connect 86 0 87 0;
#X connect 87 0 88 0;
#X connect 87 0 89 0;
#X connect 87 0 91 0;
#X connect 91 0 90 0;
#X connect 92 0 98 0;
#X connect 93 0 92 0;
#X connect 94 0 95 0;
#X connect 95 0 97 0;
#X connect 97 0 96 0;
#X connect 98 0 94 0;
#X connect 99 0 112 0;
#X connect 100 0 99 0;
#X connect 101 0 102 0;
#X connect 102 0 114 0;
#X connect 104 0 116 0;
#X connect 105 0 104 0;
#X connect 106 0 107 0;
#X connect 107 0 115 0;
#X connect 109 0 103 0;
#X connect 110 0 108 0;
#X connect 111 0 109 0;
#X connect 112 0 101 0;
#X connect 113 0 110 0;
#X connect 114 0 111 0;
#X connect 114 1 111 1;
#X connect 115 0 113 0;
#X connect 115 1 113 1;
#X connect 116 0 106 0;
#X connect 117 0 127 0;
#X connect 118 0 117 0;
#X connect 120 0 128 0;
#X connect 121 0 120 0;
#X connect 123 0 124 0;
#X connect 124 0 119 0;
#X connect 125 0 126 0;
#X connect 125 0 149 0;
#X connect 126 0 122 0;
#X connect 127 0 123 0;
#X connect 128 0 125 0;
#X connect 129 0 141 0;
#X connect 130 0 129 0;
#X connect 132 0 144 0;
#X connect 133 0 132 0;
#X connect 135 0 131 0;
#X connect 135 0 143 0;
#X connect 136 0 134 0;
#X connect 136 0 143 0;
#X connect 137 0 138 0;
#X connect 138 0 135 0;
#X connect 139 0 140 0;
#X connect 140 0 136 0;
#X connect 141 0 137 0;
#X connect 143 0 146 0;
#X connect 143 0 147 0;
#X connect 144 0 139 0;
#X connect 145 0 142 0;
#X connect 145 0 146 1;
#X connect 146 0 142 0;
#X connect 147 0 145 0;
#X connect 147 1 148 0;
#X connect 148 0 145 0;
#X connect 150 0 165 0;
#X connect 151 0 150 0;
#X connect 151 1 176 0;
#X connect 152 0 204 0;
#X connect 152 1 176 0;
#X connect 153 0 154 0;
#X connect 153 1 176 0;
#X connect 154 0 165 0;
#X connect 155 0 165 0;
#X connect 156 0 202 0;
#X connect 156 1 176 0;
#X connect 157 1 334 0;
#X connect 158 0 160 0;
#X connect 159 0 155 0;
#X connect 160 1 450 0;
#X connect 161 0 198 0;
#X connect 161 0 306 0;
#X connect 161 0 353 0;
#X connect 161 0 205 0;
#X connect 162 0 201 0;
#X connect 162 0 305 0;
#X connect 162 0 353 0;
#X connect 163 0 187 0;
#X connect 163 0 198 0;
#X connect 163 0 304 0;
#X connect 163 0 353 0;
#X connect 164 0 183 0;
#X connect 164 0 303 0;
#X connect 164 0 353 0;
#X connect 165 0 372 0;
#X connect 166 0 355 2;
#X connect 167 0 170 0;
#X connect 167 0 355 0;
#X connect 168 0 355 1;
#X connect 169 0 167 0;
#X connect 169 0 190 0;
#X connect 169 0 192 0;
#X connect 170 0 172 0;
#X connect 171 0 355 0;
#X connect 172 0 171 0;
#X connect 173 0 355 1;
#X connect 174 0 355 1;
#X connect 175 0 355 1;
#X connect 176 0 353 0;
#X connect 179 0 184 0;
#X connect 180 0 177 0;
#X connect 181 0 191 0;
#X connect 182 0 256 0;
#X connect 183 0 180 0;
#X connect 185 0 186 0;
#X connect 186 0 184 1;
#X connect 186 0 197 0;
#X connect 187 0 179 0;
#X connect 190 0 188 0;
#X connect 191 0 182 0;
#X connect 192 0 189 0;
#X connect 194 0 193 0;
#X connect 196 0 195 0;
#X connect 197 0 194 1;
#X connect 198 0 194 0;
#X connect 198 0 199 0;
#X connect 199 0 196 0;
#X connect 201 0 200 0;
#X connect 202 0 203 0;
#X connect 203 0 159 0;
#X connect 204 0 165 0;
#X connect 205 0 238 0;
#X connect 205 1 187 0;
#X connect 205 2 183 0;
#X connect 206 0 222 0;
#X connect 207 0 232 0;
#X connect 208 0 233 0;
#X connect 209 0 207 0;
#X connect 209 0 208 0;
#X connect 210 0 235 0;
#X connect 211 0 207 1;
#X connect 212 0 208 1;
#X connect 213 0 215 0;
#X connect 214 0 216 0;
#X connect 215 0 218 0;
#X connect 216 0 219 0;
#X connect 216 0 225 0;
#X connect 217 0 216 4;
#X connect 218 0 214 0;
#X connect 218 1 217 0;
#X connect 218 1 223 1;
#X connect 218 1 228 1;
#X connect 219 0 220 0;
#X connect 220 0 206 0;
#X connect 220 1 221 0;
#X connect 221 0 206 1;
#X connect 222 0 223 0;
#X connect 223 0 211 1;
#X connect 224 0 227 0;
#X connect 225 0 226 0;
#X connect 226 0 224 0;
#X connect 226 1 229 0;
#X connect 227 0 228 0;
#X connect 228 0 212 1;
#X connect 229 0 224 1;
#X connect 230 0 228 0;
#X connect 230 0 223 0;
#X connect 231 0 213 0;
#X connect 232 0 243 0;
#X connect 233 0 242 0;
#X connect 234 0 240 0;
#X connect 235 0 315 0;
#X connect 235 1 209 0;
#X connect 235 2 212 0;
#X connect 235 2 211 0;
#X connect 235 3 231 0;
#X connect 236 0 234 0;
#X connect 236 1 241 0;
#X connect 238 0 210 0;
#X connect 239 0 237 0;
#X connect 240 0 237 0;
#X connect 241 0 239 0;
#X connect 242 0 241 1;
#X connect 242 0 313 0;
#X connect 243 0 234 1;
#X connect 243 0 314 0;
#X connect 245 0 244 0;
#X connect 246 0 247 0;
#X connect 247 0 248 1;
#X connect 248 0 249 0;
#X connect 249 0 251 0;
#X connect 250 0 185 0;
#X connect 250 0 201 1;
#X connect 250 0 183 1;
#X connect 250 0 254 0;
#X connect 251 0 255 0;
#X connect 251 1 253 0;
#X connect 252 0 253 1;
#X connect 253 0 250 1;
#X connect 255 0 250 1;
#X connect 256 0 250 0;
#X connect 256 1 248 0;
#X connect 256 2 252 0;
#X connect 256 2 255 1;
#X connect 258 0 259 0;
#X connect 259 0 257 0;
#X connect 261 0 263 0;
#X connect 262 0 257 0;
#X connect 263 0 262 0;
#X connect 264 0 259 0;
#X connect 265 0 266 0;
#X connect 265 1 264 0;
#X connect 266 0 258 0;
#X connect 267 0 271 0;
#X connect 268 0 269 0;
#X connect 269 0 86 0;
#X connect 269 1 270 0;
#X connect 270 0 86 0;
#X connect 271 0 268 0;
#X connect 271 1 86 1;
#X connect 272 0 339 0;
#X connect 273 0 341 0;
#X connect 274 0 342 0;
#X connect 275 0 343 0;
#X connect 276 0 344 0;
#X connect 277 0 345 0;
#X connect 278 0 346 0;
#X connect 279 0 347 0;
#X connect 280 0 279 2;
#X connect 280 0 277 2;
#X connect 280 0 278 2;
#X connect 280 0 276 2;
#X connect 280 0 275 2;
#X connect 280 0 274 2;
#X connect 280 0 273 2;
#X connect 280 0 272 2;
#X connect 282 0 447 0;
#X connect 282 1 446 0;
#X connect 285 0 286 0;
#X connect 285 1 288 0;
#X connect 288 0 287 0;
#X connect 289 0 291 0;
#X connect 291 0 290 0;
#X connect 292 0 289 0;
#X connect 293 0 292 0;
#X connect 294 0 292 0;
#X connect 295 0 292 0;
#X connect 296 0 292 0;
#X connect 297 0 298 0;
#X connect 297 1 300 0;
#X connect 300 0 299 0;
#X connect 302 0 301 0;
#X connect 303 0 169 0;
#X connect 303 0 296 0;
#X connect 303 1 168 0;
#X connect 303 1 166 0;
#X connect 304 0 169 0;
#X connect 304 0 295 0;
#X connect 304 1 173 0;
#X connect 304 1 166 0;
#X connect 305 0 169 0;
#X connect 305 0 294 0;
#X connect 305 1 174 0;
#X connect 305 1 460 0;
#X connect 306 0 169 0;
#X connect 306 0 293 0;
#X connect 306 1 175 0;
#X connect 306 1 166 0;
#X connect 307 0 308 0;
#X connect 308 0 316 0;
#X connect 308 1 317 0;
#X connect 309 0 307 2;
#X connect 310 0 307 0;
#X connect 311 1 466 0;
#X connect 312 0 236 0;
#X connect 313 0 314 0;
#X connect 313 1 314 1;
#X connect 314 0 457 0;
#X connect 315 0 312 0;
#X connect 316 0 210 0;
#X connect 316 1 318 0;
#X connect 317 0 161 0;
#X connect 317 1 319 0;
#X connect 318 0 315 1;
#X connect 319 0 315 1;
#X connect 321 0 322 0;
#X connect 322 0 323 0;
#X connect 322 0 349 0;
#X connect 322 0 350 0;
#X connect 324 0 22 0;
#X connect 325 0 326 1;
#X connect 325 0 327 1;
#X connect 325 0 393 1;
#X connect 325 0 328 1;
#X connect 325 0 399 1;
#X connect 325 0 324 1;
#X connect 326 0 1 0;
#X connect 327 0 0 0;
#X connect 328 0 8 0;
#X connect 329 0 330 1;
#X connect 330 0 53 0;
#X connect 331 0 152 0;
#X connect 332 0 331 1;
#X connect 332 0 333 1;
#X connect 332 0 334 1;
#X connect 332 0 335 1;
#X connect 332 0 336 1;
#X connect 333 0 156 0;
#X connect 334 0 158 0;
#X connect 335 0 151 0;
#X connect 336 0 153 0;
#X connect 337 0 309 0;
#X connect 337 0 463 0;
#X connect 338 0 337 1;
#X connect 339 0 100 0;
#X connect 340 0 339 1;
#X connect 340 0 341 1;
#X connect 340 0 342 1;
#X connect 340 0 343 1;
#X connect 340 0 344 1;
#X connect 340 0 345 1;
#X connect 340 0 346 1;
#X connect 340 0 347 1;
#X connect 341 0 105 0;
#X connect 342 0 85 0;
#X connect 343 0 93 0;
#X connect 344 0 118 0;
#X connect 345 0 121 0;
#X connect 346 0 130 0;
#X connect 347 0 133 0;
#X connect 348 0 362 0;
#X connect 350 0 348 0;
#X connect 361 0 360 0;
#X connect 362 0 352 0;
#X connect 362 1 361 0;
#X connect 363 0 368 0;
#X connect 364 0 363 2;
#X connect 367 0 368 1;
#X connect 368 0 366 0;
#X connect 369 0 370 0;
#X connect 370 0 371 0;
#X connect 372 0 310 0;
#X connect 372 1 162 0;
#X connect 372 2 163 0;
#X connect 372 3 164 0;
#X connect 375 0 328 0;
#X connect 376 0 324 0;
#X connect 377 0 326 0;
#X connect 378 0 327 0;
#X connect 379 0 330 0;
#X connect 380 0 382 0;
#X connect 381 0 384 0;
#X connect 382 0 381 0;
#X connect 383 0 382 1;
#X connect 384 0 61 0;
#X connect 385 0 60 0;
#X connect 386 0 56 0;
#X connect 387 0 66 0;
#X connect 388 0 75 0;
#X connect 389 0 74 0;
#X connect 390 0 265 0;
#X connect 391 0 83 0;
#X connect 392 0 393 0;
#X connect 393 0 6 0;
#X connect 394 0 12 0;
#X connect 398 0 399 0;
#X connect 399 0 11 0;
#X connect 399 0 439 0;
#X connect 401 0 354 0;
#X connect 402 0 404 1;
#X connect 403 0 404 2;
#X connect 405 0 404 0;
#X connect 406 0 407 1;
#X connect 408 0 407 2;
#X connect 409 0 407 0;
#X connect 410 0 34 0;
#X connect 411 0 23 0;
#X connect 411 0 297 0;
#X connect 412 0 411 0;
#X connect 414 0 36 0;
#X connect 415 0 17 0;
#X connect 415 0 285 0;
#X connect 416 0 417 0;
#X connect 417 0 418 0;
#X connect 418 0 62 0;
#X connect 419 0 418 1;
#X connect 419 1 62 1;
#X connect 420 0 429 0;
#X connect 422 0 421 0;
#X connect 425 0 423 0;
#X connect 426 0 424 0;
#X connect 427 0 356 0;
#X connect 428 0 29 0;
#X connect 428 0 30 0;
#X connect 428 0 26 0;
#X connect 428 0 25 0;
#X connect 429 0 28 0;
#X connect 429 0 426 0;
#X connect 430 0 434 0;
#X connect 432 0 431 2;
#X connect 433 0 431 1;
#X connect 434 0 437 0;
#X connect 434 0 444 0;
#X connect 435 0 432 0;
#X connect 435 0 433 0;
#X connect 436 0 431 0;
#X connect 437 0 431 0;
#X connect 438 0 45 0;
#X connect 438 0 47 0;
#X connect 439 0 302 0;
#X connect 439 0 48 0;
#X connect 439 0 50 0;
#X connect 440 0 40 0;
#X connect 440 0 41 0;
#X connect 441 0 408 0;
#X connect 441 0 406 0;
#X connect 442 0 403 0;
#X connect 442 0 402 0;
#X connect 443 0 32 0;
#X connect 443 0 33 0;
#X connect 444 0 436 0;
#X connect 445 0 405 0;
#X connect 446 0 284 0;
#X connect 447 0 283 0;
#X connect 448 0 331 0;
#X connect 449 0 333 0;
#X connect 450 0 202 2;
#X connect 451 0 336 0;
#X connect 452 0 335 0;
#X connect 453 0 455 0;
#X connect 455 0 456 0;
#X connect 456 0 454 0;
#X connect 456 1 458 0;
#X connect 456 1 459 0;
#X connect 457 0 453 0;
#X connect 458 0 454 0;
#X connect 460 0 355 2;
#X connect 461 0 337 0;
#X connect 463 0 462 0;
#X connect 463 0 465 0;
#X connect 465 0 464 0;
#X connect 466 2 337 0;
