#N canvas 1440 924 1920 980 12;
#X obj 772 223 sel 127, f 8;
#X obj 667 226 sel 127;
#X obj 769 255 bng 20 250 50 0 empty empty empty 0 -10 0 12 #fcfcfc #000000 #000000;
#X obj 660 261 bng 20 250 50 0 empty empty empty 0 -10 0 12 #fcfcfc #000000 #000000;
#X text 779 87 stop;
#X obj 776 291 s t.stop;
#X obj 691 504 s t.cont;
#X text 669 79 cont;
#X obj 835 541 bng 20 250 50 0 empty empty empty 0 -10 0 12 #fcfcfc #000000 #000000;
#X obj 820 573 s t.prime;
#X text 862 535 prime (midi: 250);
#X obj 521 330 r t.transport_status;
#X obj 826 515 onebang;
#X msg 875 447 stop;
#X obj 842 259 b;
#X obj 1270 430 sel 127;
#X obj 1408 627 s t.stop;
#X obj 1240 551 s ctl.reload_mset;
#X obj 1379 587 t;
#X obj 1378 551 bng 20 250 50 0 empty empty empty 0 -10 0 12 #fcfcfc #000000 #000000;
#X obj 655 652 onebang;
#X obj 693 542 sel 1;
#X obj 716 580 b;
#X msg 714 612 stop;
#X floatatom 573 504 5 0 0 0 - - - 0;
#X obj 583 455 pipe 50;
#X obj 653 728 s tin.toggle;
#X obj 650 692 tgl 20 0 empty empty empty 0 -10 0 12 #fcfcfc #000000 #000000 0 1;
#X msg 566 652 set \$1;
#X obj 561 614 r tin.toggle;
#X text 718 651 toggle tin - press cont btn when already playing, f 14;
#X text 1406 550 reset;
#X obj 1379 657 s s.reset;
#X obj 1912 413 sel 127;
#X text 1919 249 hold toggle (red btn), f 13;
#X obj 1915 454 tgl 20 0 empty empty empty 0 -10 0 12 #fcfcfc #000000 #000000 0 1;
#X msg 1836 438 set \$1;
#X obj 1830 400 r s.hold;
#X obj 1850 501 s s.hold;
#X obj 945 888 r t.transport_status;
#X msg 970 994 9;
#X obj 948 953 t f b;
#X msg 1007 995 green;
#X obj 943 921 change;
#X obj 846 962 == 0;
#X obj 843 998 t f b;
#X msg 905 1031 white;
#X msg 876 1037 8;
#X msg 830 872 0;
#X obj 830 839 onebang;
#X obj 734 252 b;
#X obj 758 848 onebang;
#X msg 759 878 0;
#X obj 703 361 onebang;
#X msg 703 336 stop;
#X obj 1034 524 del 50;
#X obj 1033 562 del 50;
#X obj 1030 598 del 50;
#X obj 1091 527 del 50;
#X obj 1090 565 del 50;
#X obj 1087 601 del 50;
#X obj 1036 495 b;
#X obj 1042 636 tgl 20 0 empty empty empty 0 -10 0 12 #fcfcfc #000000 #000000 0 1;
#X msg 995 552 0;
#X text 942 578 rapid flash to show prime action, f 12;
#X obj 2023 361 r s.hold;
#X msg 2084 464 10;
#X msg 2115 464 blue;
#X obj 2037 424 t f b;
#X obj 2028 391 change;
#X obj 1961 445 b;
#X obj 968 748 t f b;
#X obj 932 682 change;
#X msg 985 785 9;
#X msg 1023 787 yellow;
#X obj 1085 723 tgl 20 0 empty empty empty 0 -10 0 12 #fcfcfc #000000 #000000 0 1;
#X obj 1083 750 sel 0;
#X obj 927 652 r tin.toggle;
#X obj 1075 696 gate 0;
#X msg 1090 789 1;
#X obj 917 780 sel 0;
#X obj 1166 709 r tin.tinning;
#X msg 1233 789 yellow;
#X msg 1197 789 8;
#X msg 1161 787 1;
#X obj 1220 754 onebang;
#X obj 1197 677 r t.4n;
#X obj 1183 752 t;
#X msg 1543 582 red;
#X obj 1112 662 r t.16n;
#X msg 1507 582 7;
#X msg 1439 586 1;
#X msg 1470 583 0;
#X obj 1522 538 t;
#X obj 1456 543 del 1000;
#X obj 1302 461 b;
#X obj 942 443 onebang;
#X obj 980 406 r s.reset;
#X floatatom 683 1300 5 0 0 0 - - - 0;
#X floatatom 568 1342 5 0 0 0 - - - 0;
#X obj 567 1372 > 64;
#X obj 553 2026 s s.seek_seg;
#X obj 682 1338 sel 127;
#X msg 681 1370 1;
#X obj 687 1411 tgl 20 0 empty empty empty 0 -10 0 12 #fcfcfc #000000 #000000 0 1;
#X obj 563 1679 f;
#X obj 544 1634 r s.current_seg_id;
#X obj 560 1732 - 1;
#X obj 599 1735 + 1;
#X obj 601 1682 f;
#X obj 572 1593 sel 0 1;
#X obj 537 1602 bng 20 250 50 0 empty empty empty 0 -10 0 12 #fcfcfc #000000 #000000;
#X obj 638 1602 bng 20 250 50 0 empty empty empty 0 -10 0 12 #fcfcfc #000000 #000000;
#X obj 731 1390 sel 0;
#X obj 572 1871 f;
#X floatatom 558 1955 5 0 0 0 - - - 0;
#X msg 684 1913 \$1;
#X obj 644 1881 t b b f;
#X obj 411 2040 s ctl.update_text;
#X obj 521 1958 b;
#X obj 460 1995 del 50;
#X floatatom 653 1754 5 0 127 0 - - - 0;
#X obj 659 1721 r s.num_of_segs;
#X obj 574 1779 min;
#X obj 561 1810 max 1;
#X floatatom 625 1828 5 0 0 0 - - - 0;
#X text 679 1658 seek seg with leftmost knob (held down), f 15;
#X obj 754 1441 s ctl.seek_knob_state;
#X obj 567 1412 gate 2;
#X obj 686 1443 + 1;
#X obj 442 1465 sel 0 1;
#X obj 407 1474 bng 20 250 50 0 empty empty empty 0 -10 0 12 #fcfcfc #000000 #000000;
#X obj 508 1474 bng 20 250 50 0 empty empty empty 0 -10 0 12 #fcfcfc #000000 #000000;
#X obj 380 1519 r t.tempo;
#X obj 388 1565 f;
#X obj 433 1568 f;
#X obj 385 1604 - 1;
#X obj 430 1603 + 1;
#X floatatom 412 1720 5 0 0 0 - - - 0;
#X obj 393 1756 s t.tempo;
#X obj 407 1686 max 30;
#X obj 403 1653 min 300;
#X obj 618 1494 r ctl.shift_state;
#X obj 583 1538 spigot;
#X obj 692 1557 spigot;
#X floatatom 767 1534 5 0 0 0 - - - 0;
#X floatatom 515 1567 5 0 0 0 - - - 0;
#X floatatom 551 1509 5 0 0 0 - - - 0;
#X obj 808 1323 spigot;
#X obj 811 1354 sel 0;
#X msg 815 1382 0;
#X obj 820 1212 loadmess 0;
#X obj 208 1758 s ctl.manual_tempo_change;
#X obj 3145 732 r ctl.shift_state;
#X obj 3145 762 tgl 20 0 empty empty empty 0 -10 0 12 #fcfcfc #000000 #000000 0 1;
#X obj 2192 786 spigot;
#X floatatom 2178 741 5 0 0 0 - - - 0;
#X obj 2174 1011 i;
#X floatatom 2186 1050 5 0 0 0 - - - 0;
#X obj 2153 1187 s t.tempo;
#X obj 2144 1158 s ctl.manual_tempo_change;
#X obj 2213 1123 s s.write_seg_data;
#X msg 2219 1092 bpm \$1;
#X obj 2359 795 spigot;
#X floatatom 2345 750 5 0 0 0 - - - 0;
#X obj 2349 872 i;
#X floatatom 2350 912 5 0 0 0 - - - 0;
#X obj 2349 994 s s.write_seg_data;
#X msg 2349 949 bpmr \$1;
#X obj 2354 839 scale 0 127 0 127;
#X obj 1831 784 spigot;
#X floatatom 1817 739 5 0 0 0 - - - 0;
#X obj 1821 861 i;
#X floatatom 1818 894 5 0 0 0 - - - 0;
#X obj 1787 1042 s s.write_seg_data;
#X obj 1998 793 spigot;
#X floatatom 1984 748 5 0 0 0 - - - 0;
#X obj 1988 870 i;
#X floatatom 1986 898 5 0 0 0 - - - 0;
#X obj 1974 1043 s s.write_seg_data;
#X msg 1793 1011 md \$1;
#X msg 1974 998 mnm \$1;
#X obj 1811 967 pgm2bank;
#X obj 1826 828 scale 0 127 1 128;
#X obj 1974 966 pgm2bank;
#X obj 1815 929 t b f;
#X obj 1979 929 t b f;
#X obj 1993 837 scale 0 127 1 128;
#X obj 2543 797 spigot;
#X floatatom 2529 752 5 0 0 0 - - - 0;
#X obj 2537 1003 s s.write_seg_data;
#X obj 2718 797 spigot;
#X floatatom 2704 752 5 0 0 0 - - - 0;
#X obj 2708 996 s s.write_seg_data;
#X obj 2542 913 tgl 20 0 empty empty empty 0 -10 0 12 #fcfcfc #000000 #000000 0 1;
#X msg 2537 959 tin \$1;
#X obj 2706 916 tgl 20 0 empty empty empty 0 -10 0 12 #fcfcfc #000000 #000000 0 1;
#X msg 2708 951 poly \$1;
#X obj 2540 847 > 63;
#X obj 2715 846 > 63;
#X obj 2883 798 spigot;
#X floatatom 2869 753 5 0 0 0 - - - 0;
#X obj 2877 1004 s s.write_seg_data;
#X obj 3058 798 spigot;
#X floatatom 3044 753 5 0 0 0 - - - 0;
#X obj 3048 997 s s.write_seg_data;
#X msg 2877 960 rep \$1;
#X msg 3048 952 len \$1;
#X obj 2867 870 i;
#X floatatom 2868 910 5 0 0 0 - - - 0;
#X obj 3034 879 i;
#X floatatom 3035 919 5 0 0 0 - - - 0;
#X obj 2872 837 scale 0 127 1 16;
#X obj 2966 1184 s t.stop;
#X obj 2982 1046 b;
#X obj 3039 846 scale 0 127 6 64;
#X obj 2974 1138 del 100;
#X obj 3040 1140 onebang;
#X obj 2890 1092 t b b;
#X msg 2981 1099 stop;
#X obj 2778 950 s s.poly;
#X obj 1592 1458 > 0;
#X obj 1552 1527 spigot;
#X obj 1586 1491 tgl 20 0 empty empty empty 0 -10 0 12 #fcfcfc #000000 #000000 0 1;
#X msg 1503 1468 copy;
#X obj 1503 1431 sel 127;
#X obj 1208 1434 sel 127;
#X obj 1411 1436 sel 127;
#X msg 1416 1472 paste;
#X msg 1316 1474 delete;
#X obj 1637 1519 s ctl.tap_func_status;
#X obj 940 196 r ctl.tap_func_status;
#X obj 940 232 == 0;
#X obj 774 190 spigot 1;
#X obj 670 196 spigot 1;
#X obj 1270 399 spigot 1;
#X obj 1773 309 r ctl.tap_func_status;
#X obj 1808 340 == 0;
#X obj 1916 377 spigot 1;
#X obj 1722 1419 r ctl.shift_state;
#X obj 1700 1456 sel 1;
#X obj 1766 1473 tgl 20 0 empty empty empty 0 -10 0 12 #fcfcfc #000000 #000000 0 1;
#X obj 1316 1337 sel 127, f 8;
#X obj 1421 1211 ctlin;
#X obj 1474 1337 b;
#X obj 1428 1277 spigot 1;
#X obj 1316 1442 bng 20 250 50 0 empty empty empty 0 -10 0 12 #fcfcfc #000000 #000000;
#X obj 1432 1304 sel 106;
#X obj 1554 1630 bng 20 250 50 0 empty empty empty 0 -10 0 12 #fcfcfc #000000 #000000;
#X obj 1605 1636 bng 20 250 50 0 empty empty empty 0 -10 0 12 #fcfcfc #000000 #000000;
#X obj 1650 1638 bng 20 250 50 0 empty empty empty 0 -10 0 12 #fcfcfc #000000 #000000;
#X obj 1691 1638 bng 20 250 50 0 empty empty empty 0 -10 0 12 #fcfcfc #000000 #000000;
#X obj 1549 1561 tosymbol;
#X msg 1606 1780 yellow;
#X msg 1557 1784 1;
#X msg 1672 1731 10;
#X obj 1743 1724 bng 20 250 50 0 empty empty empty 0 -10 0 12 #fcfcfc #000000 #000000;
#X obj 1519 1812 bng 20 250 50 0 empty empty empty 0 -10 0 12 #fcfcfc #000000 #000000;
#X msg 1531 1874 0;
#X obj 1521 1839 del 250;
#X msg 1633 1733 9;
#X msg 1598 1733 8;
#X msg 1563 1735 7;
#X obj 1448 1585 sel 0;
#X obj 1475 1543 spigot;
#X obj 1925 1557 text set seg_data_buffer;
#X obj 1845 1383 text define seg_data_buffer;
#X obj 1858 1673 text get seg_data_buffer;
#X obj 1925 1519 text get set;
#X obj 2074 1256 r s.current_seg_id;
#X floatatom 2075 1316 5 0 0 0 - - - 0;
#X obj 1926 1483 i;
#X obj 1874 1728 text insert set;
#X obj 2145 1573 i;
#X obj 2140 1605 + 1;
#X msg 1857 1636 0;
#X obj 1748 1831 s s.save;
#X obj 1667 1831 s s.reload;
#X obj 1742 1796 del 25;
#X obj 2073 1288 - 1;
#X obj 1669 1797 del 50;
#X obj 2154 1792 s s.seek_seg;
#X obj 2161 1759 i;
#X obj 2016 1791 s ctl.update_text;
#X obj 2087 1746 bng 20 250 50 0 empty empty empty 0 -10 0 12 #fcfcfc #000000 #000000;
#X obj 2157 1710 + 1;
#X obj 2129 1671 del 75;
#X obj 2088 1720 del 25;
#X obj 1858 1850 text delete set;
#X obj 1879 1794 i;
#X obj 1312 1380 counter 0 0 1;
#X obj 1313 1409 sel 1;
#X obj 687 1258 spigot 1;
#X obj 570 1310 spigot 1;
#X obj 745 1153 == 0;
#X obj 804 1617 spigot 1;
#X obj 737 1121 r ctl.tap_func_status;
#X msg 1208 1471 insert;
#X obj 1887 1434 t b b b;
#X obj 2633 1655 text get set;
#X obj 2399 1987 zl filter;
#X obj 2530 1987 zl filter;
#X msg 2398 1819 A01 A02 A03 A04 A05 A06 A07 A08 A09 A10 A11 A12 A13 A14 A15 A16 B01 B02 B03 B04 B05 B06 B07 B08 B09 B10 B11 B12 B13 B14 B15 B16 C01 C02 C03 C04 C05 C06 C07 C08 C09 C10 C11 C12 C13 C14 C15 C16 D01 D02 D03 D04 D05 D06 D07 D08 D09 D10 D11 D12 D13 D14 D15 D16 E01 E02 E03 E04 E05 E06 E07 E08 E09 E10 E11 E12 E13 E14 E15 E16 F01 F02 F03 F04 F05 F06 F07 F08 F09 F10 F11 F12 F13 F14 F15 F16 G01 G02 G03 G04 G05 G06 G07 G08 G09 G10 G11 G12 G13 G14 G15 G16 H01 H02 H03 H04 H05 H06 H07 H08 H09 H10 H11 H12 H13 H14 H15 H16, f 72;
#X obj 2479 1692 bng 20 250 50 0 empty empty empty 0 -10 0 12 #fcfcfc #000000 #000000;
#X obj 2524 1784 list;
#X obj 2570 1790 list;
#X obj 2645 1382 text size set;
#X obj 2610 1476 uzi;
#X floatatom 2642 1414 5 0 0 0 - - - 0;
#X obj 2618 1512 counter 0 0;
#X obj 2671 1473 - 1;
#X obj 2629 1444 t f f;
#X floatatom 2613 1546 5 0 0 0 - - - 0;
#X obj 2623 1582 t f b;
#X msg 2650 1617 1;
#X obj 2639 1693 zl nth 1;
#X obj 2647 1736 zl group;
#X obj 2757 1658 text get set;
#X floatatom 2737 1549 5 0 0 0 - - - 0;
#X obj 2747 1585 t f b, f 7;
#X obj 2763 1696 zl nth 1;
#X obj 2771 1739 zl group;
#X msg 2773 1619 3;
#X msg 2832 1701 zlclear;
#X obj 2637 1347 bng 20 250 50 0 empty empty empty 0 -10 0 12 #fcfcfc #000000 #000000;
#X obj 2402 2023 zl nth 1;
#X obj 2527 2021 zl nth 1;
#X obj 2366 2146 symbol;
#X obj 2478 1720 t b b b b;
#X obj 2328 2035 t b b;
#X obj 2363 2274 s s.write_seg_data;
#X obj 2474 1660 del 500;
#X msg 2468 2181 mnm \$1;
#X msg 2369 2194 md \$1;
#X obj 2505 2229 print;
#X obj 2467 2139 symbol;
#X obj 2507 2079 tosymbol;
#X obj 2423 2074 tosymbol;
#X obj 991 1524 r ctl.shift_state;
#X floatatom 938 1534 5 0 0 0 - - - 12;
#X obj 938 1564 spigot, f 8;
#X obj 930 1732 t f b;
#X msg 959 1757 clear;
#X obj 928 1785 pipe 100;
#X obj 1253 623 s s.reload;
#X obj 1262 585 del 200;
#X obj 717 1620 bng 20 250 50 0 empty empty empty 0 -10 0 12 #fcfcfc #000000 #000000;
#X obj 586 1918 bng 20 250 50 0 empty empty empty 0 -10 0 12 #fcfcfc #000000 #000000;
#X obj 520 1842 bng 20 250 50 0 empty empty empty 0 -10 0 12 #fcfcfc #000000 #000000;
#X obj 2213 1267 r s.num_of_segs;
#X floatatom 2213 1302 5 0 0 0 - - - 0;
#X obj 2183 1345 <;
#X obj 2184 1372 tgl 20 0 empty empty empty 0 -10 0 12 #fcfcfc #000000 #000000 0 1;
#X obj 2103 1451 i;
#X obj 2183 1407 sel 1 0;
#X obj 2196 1447 - 1;
#X obj 2177 1479 i;
#X floatatom 2128 1502 5 0 0 0 - - - 0;
#X obj 2146 1448 i;
#X obj 2105 1371 t b f f;
#X obj 2384 1387 s t.clock_toggle;
#X obj 2477 1204 r ctl.shift_state;
#X msg 2474 1305 1;
#X obj 2458 1342 pipe 500;
#X text 2370 1156 stop clock for a bit while loading pgm... fixes 'sysex error' on mcl loads for now, f 29;
#X obj 2374 1276 r s.seek_seg;
#X msg 2385 1350 0;
#X obj 2383 1317 bng 20 250 50 0 empty empty empty 0 -10 0 12 #fcfcfc #000000 #000000;
#X msg 2551 1305 clear;
#X obj 2476 1232 t f b;
#X obj 2475 1266 sel 0;
#X obj 2187 830 scale 1 127 30 300;
#X obj 2177 910 < 30;
#X obj 2161 943 sel 0 1;
#X msg 2182 975 0;
#X obj 2185 868 t f f;
#X obj 668 111 r ctl.do_cont;
#X obj 775 114 r ctl.do_stop;
#X obj 1059 421 r ctl.do_prime;
#X obj 1272 305 r ctl.do_reset;
#X obj 1914 293 r ctl.do_hold;
#X obj 711 1827 r ctl.do_seg;
#X obj 1324 1276 ctl.in 106 33;
#X obj 1409 1376 ctl.in 107 33;
#X obj 1206 1365 ctl.in 105 33;
#X obj 1506 1369 ctl.in 108 33;
#X obj 1622 1409 ctl.in 109 33;
#X obj 1792 677 ctl.in 86 33;
#X obj 1960 676 ctl.in 87 33;
#X obj 2153 679 ctl.in 14 33;
#X obj 2320 688 ctl.in 15 33;
#X obj 2504 690 ctl.in 89 33;
#X obj 2679 690 ctl.in 90 33;
#X obj 2844 691 ctl.in 30 33;
#X obj 3019 691 ctl.in 31 33;
#X obj 839 1271 ctl.in 118 33;
#X obj 537 1254 ctl.in 29 33;
#X obj 630 1182 ctl.in 119 33;
#X obj 1037 1388 r midich_ml3;
#X obj 1841 636 r midich_ml3;
#X obj 1375 1126 r midich_ml3;
#X obj 680 1954 s ctl.desired_seek_seg;
#X obj 256 1836 t f b, f 8;
#X obj 256 1915 s scmgr.temp_param.val;
#X obj 287 1946 s scmgr.temp;
#X obj 512 763 t f b, f 8;
#X obj 512 825 s scmgr.temp_param.val;
#X obj 543 856 s scmgr.temp;
#X msg 287 1872 temp_param manual bpm chg;
#X msg 543 799 temp_param manual tin;
#X obj 1232 1854 tosymbol;
#X obj 1232 1920 s scmgr.temp;
#X obj 1232 1889 prepend temp_simple;
#X obj 1232 1820 list append segment;
#X msg 1232 1784 inserted;
#X msg 1304 1784 deleted;
#X msg 1372 1784 pasted;
#X msg 1434 1784 copied;
#X obj 1920 501 t f b, f 8;
#X obj 1920 563 s scmgr.temp_param.val;
#X obj 1951 594 s scmgr.temp;
#X msg 1951 537 temp_param hold;
#X obj 1272 710 s scmgr.temp;
#X msg 1272 685 temp_simple reset set;
#X obj 1687 1679 t;
#X obj 1640 1683 t;
#X obj 1591 1688 t;
#X obj 1547 1690 t;
#X obj 2279 1676 counter 0 0 1;
#X obj 2278 1705 sel 0 1;
#X obj 2311 1640 bng 25 250 50 0 empty empty empty 17 7 0 10 #191919 #e1e1e1 #e1e1e1;
#X obj 2280 1639 bng 25 250 50 0 empty empty empty 17 7 0 10 #191919 #e1e1e1 #e1e1e1;
#X obj 2291 1476 ctlin;
#X obj 2369 1566 sel 105;
#X obj 2365 1539 spigot 1;
#X obj 2378 1476 r ctl.tap_func_status;
#X obj 2413 1507 == 0;
#X obj 2343 1942 bng 25 250 50 0 empty empty commit 17 7 0 10 #191919 #e1e1e1 #e1e1e1;
#X obj 2693 2197 s scmgr.temp;
#X obj 2625 2209 print;
#X obj 2655 2040 t b s;
#X obj 2644 2097 join;
#X msg 2636 2156 temp_simple MD: \$1 MNM: \$2;
#X obj 2302 1829 spigot 0;
#X obj 2276 1755 t;
#X obj 2319 1752 t;
#X msg 2293 1785 0;
#X msg 2335 1785 1;
#X text 2062 1832 you now have to double press insert in order to commit the insert. pressing it only once will now preview where the next available slot is, f 31;
#X obj 246 109 r scmgr.current_screen;
#X obj 245 141 == 1;
#X obj 246 176 s seg_manager.focus;
#X obj 2006 295 r seg_manager.focus;
#X obj 1919 333 spigot 0, f 12;
#X obj 751 53 r seg_manager.focus;
#X obj 669 154 spigot 0, f 12;
#X obj 771 154 spigot 0, f 12;
#X obj 1275 334 spigot 0, f 12;
#X obj 1378 302 r seg_manager.focus;
#X obj 1290 799 r seg_manager.focus;
#X obj 1169 835 spigot 0, f 12;
#X obj 944 812 spigot 0, f 9;
#X obj 1480 625 spigot 0, f 12;
#X obj 1594 584 r seg_manager.focus;
#X obj 880 1086 spigot 0, f 21;
#X obj 1024 1051 r seg_manager.focus;
#X obj 2055 490 spigot 0, f 16;
#X obj 938 1497 spigot 0, f 16;
#X obj 1049 1463 r seg_manager.focus;
#X obj 636 1218 spigot 0, f 14;
#X obj 581 1097 r seg_manager.focus;
#X obj 531 1281 spigot 0, f 14;
#X obj 845 1294 spigot 0, f 14;
#X obj 889 1154 r seg_manager.focus;
#X obj 1199 1402 spigot 0, f 14;
#X obj 1545 1146 r seg_manager.focus;
#X obj 1318 1308 spigot 0, f 14;
#X obj 1430 1250 spigot 0, f 14;
#X obj 1504 1399 spigot 0, f 14;
#X obj 1413 1405 spigot 0, f 11;
#X obj 1600 1434 spigot 0, f 11;
#X obj 1577 1868 spigot 0, f 11;
#X obj 1682 1880 r seg_manager.focus;
#X obj 2284 1508 spigot 0, f 11;
#X obj 2352 1446 r seg_manager.focus;
#X obj 1804 711 spigot 0, f 11;
#X obj 1643 677 r seg_manager.focus;
#X obj 1966 713 spigot 0, f 11;
#X obj 2161 706 spigot 0, f 11;
#X obj 2330 718 spigot 0, f 11;
#X obj 2511 720 spigot 0, f 11;
#X obj 2687 719 spigot 0, f 11;
#X obj 2852 725 spigot 0, f 11;
#X obj 3028 725 spigot 0, f 11;
#X obj 398 179 sel 1;
#X floatatom 285 226 5 0 0 0 - - - 12;
#X obj 397 149 change;
#X obj 445 107 clrstore 1;
#X obj 310 290 s ctl.load_clrstore_1;
#X obj 1399 1686 s ctl.load_clrstore_1;
#X obj 1298 490 s ctl.load_clrstore_1;
#X obj 1582 1899 clr 1;
#X obj 929 1118 clr 1;
#X obj 967 837 clr 1;
#X obj 1180 871 clr 1;
#X obj 1492 658 clr 1;
#X obj 2058 517 clr 1;
#X obj 434 247 clr 1 1;
#X msg 437 212 clear;
#X obj 395 207 t;
#X obj 246 377 ctl.in 27 33;
#X obj 323 349 r midich_ml3;
#X text 221 347 shift reloads clr;
#X obj 237 469 s ctl.load_clrstore_1;
#X obj 334 385 r seg_manager.focus;
#X obj 244 422 spigot 0, f 12;
#X obj 262 518 loadbang;
#X msg 262 543 clear;
#X obj 259 578 clr 1;
#X obj 1552 1594 sel insert delete paste copy;
#X obj 984 1464 + 129;
#X obj 928 1421 ctl.in 116 33;
#X obj 1040 1428 ctl.in 117 33;
#X obj 941 1461 + 1;
#X obj 934 1643 min;
#X obj 925 1680 max 1;
#X obj 1173 520 bng 20 250 50 0 empty empty empty 0 -10 0 12 #fcfcfc #000000 #000000;
#X obj 1164 494 onebang;
#X msg 875 901 0;
#X obj 875 868 onebang;
#X text 1135 448 stop+reload = reset;
#X text 1282 272 reload;
#X obj 1457 502 s s.reload;
#X obj 1553 505 s scmgr.temp;
#X obj 1488 460 bng 25 250 50 0 empty empty empty 17 7 0 10 #191919 #e1e1e1 #e1e1e1;
#X msg 1553 480 temp_simple reload seg;
#X obj 1472 415 spigot 1;
#X msg 933 319 0;
#X obj 1497 379 tgl 25 0 empty empty empty 17 7 0 10 #191919 #e1e1e1 #e1e1e1 0 1;
#X obj 929 350 i;
#X msg 957 321 1;
#X connect 0 0 2 0;
#X connect 0 0 12 1;
#X connect 0 0 53 0;
#X connect 0 0 527 1;
#X connect 0 1 14 0;
#X connect 1 0 3 0;
#X connect 1 0 12 0;
#X connect 1 0 53 1;
#X connect 1 1 50 0;
#X connect 2 0 5 0;
#X connect 2 0 537 0;
#X connect 3 0 6 0;
#X connect 3 0 20 0;
#X connect 3 0 96 0;
#X connect 8 0 9 0;
#X connect 8 0 49 1;
#X connect 8 0 61 0;
#X connect 11 0 25 0;
#X connect 12 0 8 0;
#X connect 13 0 12 0;
#X connect 13 0 527 0;
#X connect 14 0 13 0;
#X connect 14 0 49 0;
#X connect 14 0 529 0;
#X connect 14 0 540 0;
#X connect 15 0 527 0;
#X connect 15 0 536 0;
#X connect 15 1 95 0;
#X connect 18 0 17 0;
#X connect 18 0 345 0;
#X connect 18 0 423 0;
#X connect 18 1 16 0;
#X connect 18 1 32 0;
#X connect 19 0 18 0;
#X connect 19 0 93 0;
#X connect 20 0 27 0;
#X connect 21 0 20 1;
#X connect 21 1 22 0;
#X connect 22 0 23 0;
#X connect 23 0 20 0;
#X connect 25 0 24 0;
#X connect 25 0 21 0;
#X connect 27 0 26 0;
#X connect 27 0 405 0;
#X connect 28 0 27 0;
#X connect 29 0 28 0;
#X connect 33 0 35 0;
#X connect 33 1 70 0;
#X connect 35 0 38 0;
#X connect 35 0 418 0;
#X connect 36 0 35 0;
#X connect 37 0 36 0;
#X connect 39 0 43 0;
#X connect 40 0 502 1;
#X connect 41 0 464 0;
#X connect 41 1 40 0;
#X connect 41 1 42 0;
#X connect 42 0 502 2;
#X connect 43 0 41 0;
#X connect 43 0 44 0;
#X connect 44 0 45 0;
#X connect 45 0 464 0;
#X connect 45 1 47 0;
#X connect 45 1 46 0;
#X connect 46 0 502 2;
#X connect 47 0 502 1;
#X connect 48 0 45 0;
#X connect 49 0 48 0;
#X connect 50 0 54 0;
#X connect 50 0 51 0;
#X connect 51 0 52 0;
#X connect 52 0 41 0;
#X connect 53 0 51 1;
#X connect 54 0 53 0;
#X connect 55 0 58 0;
#X connect 55 0 63 0;
#X connect 56 0 59 0;
#X connect 56 0 62 0;
#X connect 57 0 60 0;
#X connect 57 0 62 0;
#X connect 58 0 56 0;
#X connect 58 0 62 0;
#X connect 59 0 57 0;
#X connect 59 0 62 0;
#X connect 60 0 62 0;
#X connect 61 0 55 0;
#X connect 62 0 41 0;
#X connect 63 0 62 0;
#X connect 65 0 69 0;
#X connect 66 0 506 1;
#X connect 67 0 506 2;
#X connect 68 0 466 0;
#X connect 68 1 67 0;
#X connect 68 1 66 0;
#X connect 69 0 68 0;
#X connect 70 0 69 0;
#X connect 71 0 80 0;
#X connect 71 1 74 0;
#X connect 71 1 73 0;
#X connect 72 0 71 0;
#X connect 72 0 78 0;
#X connect 73 0 503 1;
#X connect 74 0 503 2;
#X connect 75 0 76 0;
#X connect 76 0 79 0;
#X connect 76 1 41 0;
#X connect 77 0 72 0;
#X connect 78 0 75 0;
#X connect 79 0 71 0;
#X connect 80 0 43 0;
#X connect 80 1 461 0;
#X connect 81 0 85 1;
#X connect 81 0 87 0;
#X connect 82 0 504 2;
#X connect 83 0 504 1;
#X connect 84 0 460 0;
#X connect 85 0 43 0;
#X connect 86 0 85 0;
#X connect 87 0 84 0;
#X connect 87 1 83 0;
#X connect 87 1 82 0;
#X connect 88 0 505 2;
#X connect 89 0 78 1;
#X connect 90 0 505 1;
#X connect 91 0 462 0;
#X connect 92 0 462 0;
#X connect 93 0 91 0;
#X connect 93 0 94 0;
#X connect 93 1 90 0;
#X connect 93 1 88 0;
#X connect 94 0 92 0;
#X connect 95 0 500 0;
#X connect 96 0 8 0;
#X connect 97 0 96 1;
#X connect 98 0 102 0;
#X connect 99 0 100 0;
#X connect 100 0 128 1;
#X connect 102 0 103 0;
#X connect 102 1 104 0;
#X connect 102 1 113 0;
#X connect 103 0 104 0;
#X connect 104 0 127 0;
#X connect 104 0 129 0;
#X connect 104 0 148 1;
#X connect 105 0 107 0;
#X connect 106 0 105 1;
#X connect 106 0 109 1;
#X connect 107 0 123 0;
#X connect 108 0 123 0;
#X connect 109 0 108 0;
#X connect 110 0 105 0;
#X connect 110 0 111 0;
#X connect 110 1 109 0;
#X connect 110 1 112 0;
#X connect 113 0 144 0;
#X connect 114 0 119 0;
#X connect 114 0 115 0;
#X connect 114 0 347 0;
#X connect 115 0 101 0;
#X connect 116 0 401 0;
#X connect 117 2 116 0;
#X connect 119 0 120 0;
#X connect 120 0 118 0;
#X connect 121 0 123 1;
#X connect 121 0 524 1;
#X connect 122 0 121 0;
#X connect 123 0 124 0;
#X connect 124 0 125 0;
#X connect 125 0 117 0;
#X connect 125 0 114 1;
#X connect 125 0 109 1;
#X connect 125 0 105 1;
#X connect 128 0 130 0;
#X connect 128 1 143 0;
#X connect 128 1 147 0;
#X connect 129 0 128 0;
#X connect 130 0 131 0;
#X connect 130 0 134 0;
#X connect 130 1 132 0;
#X connect 130 1 135 0;
#X connect 133 0 134 1;
#X connect 133 0 135 1;
#X connect 134 0 136 0;
#X connect 135 0 137 0;
#X connect 136 0 141 0;
#X connect 137 0 141 0;
#X connect 138 0 139 0;
#X connect 138 0 152 0;
#X connect 138 0 402 0;
#X connect 140 0 138 0;
#X connect 141 0 140 0;
#X connect 142 0 143 1;
#X connect 142 0 144 1;
#X connect 142 0 145 0;
#X connect 143 0 110 0;
#X connect 143 0 146 0;
#X connect 144 0 114 0;
#X connect 144 0 295 0;
#X connect 144 0 346 0;
#X connect 148 0 149 0;
#X connect 149 0 150 0;
#X connect 149 0 114 0;
#X connect 149 0 295 0;
#X connect 150 0 98 0;
#X connect 151 0 98 0;
#X connect 151 0 149 0;
#X connect 153 0 154 0;
#X connect 154 0 155 1;
#X connect 154 0 163 1;
#X connect 154 0 175 1;
#X connect 154 0 170 1;
#X connect 154 0 188 1;
#X connect 154 0 191 1;
#X connect 154 0 200 1;
#X connect 154 0 203 1;
#X connect 155 0 371 0;
#X connect 156 0 155 0;
#X connect 157 0 158 0;
#X connect 158 0 159 0;
#X connect 158 0 160 0;
#X connect 158 0 162 0;
#X connect 162 0 161 0;
#X connect 163 0 169 0;
#X connect 164 0 163 0;
#X connect 165 0 166 0;
#X connect 166 0 168 0;
#X connect 168 0 167 0;
#X connect 169 0 165 0;
#X connect 170 0 183 0;
#X connect 171 0 170 0;
#X connect 172 0 173 0;
#X connect 173 0 185 0;
#X connect 175 0 187 0;
#X connect 176 0 175 0;
#X connect 177 0 178 0;
#X connect 178 0 186 0;
#X connect 180 0 174 0;
#X connect 181 0 179 0;
#X connect 182 0 180 0;
#X connect 183 0 172 0;
#X connect 184 0 181 0;
#X connect 185 0 182 0;
#X connect 185 1 182 1;
#X connect 186 0 184 0;
#X connect 186 1 184 1;
#X connect 187 0 177 0;
#X connect 188 0 198 0;
#X connect 189 0 188 0;
#X connect 191 0 199 0;
#X connect 192 0 191 0;
#X connect 194 0 195 0;
#X connect 195 0 190 0;
#X connect 196 0 197 0;
#X connect 196 0 220 0;
#X connect 197 0 193 0;
#X connect 198 0 194 0;
#X connect 199 0 196 0;
#X connect 200 0 212 0;
#X connect 201 0 200 0;
#X connect 203 0 215 0;
#X connect 204 0 203 0;
#X connect 206 0 202 0;
#X connect 206 0 214 0;
#X connect 207 0 205 0;
#X connect 207 0 214 0;
#X connect 208 0 209 0;
#X connect 209 0 206 0;
#X connect 210 0 211 0;
#X connect 211 0 207 0;
#X connect 212 0 208 0;
#X connect 214 0 217 0;
#X connect 214 0 218 0;
#X connect 215 0 210 0;
#X connect 216 0 213 0;
#X connect 216 0 217 1;
#X connect 217 0 213 0;
#X connect 218 0 216 0;
#X connect 218 1 219 0;
#X connect 219 0 216 0;
#X connect 221 0 223 0;
#X connect 222 0 252 0;
#X connect 223 0 222 1;
#X connect 223 0 230 0;
#X connect 223 0 264 1;
#X connect 224 0 222 0;
#X connect 225 0 224 0;
#X connect 225 1 264 0;
#X connect 226 0 297 0;
#X connect 226 1 264 0;
#X connect 227 0 228 0;
#X connect 227 1 264 0;
#X connect 228 0 222 0;
#X connect 229 0 222 0;
#X connect 231 0 232 0;
#X connect 232 0 233 1;
#X connect 232 0 234 1;
#X connect 232 0 235 1;
#X connect 233 0 0 0;
#X connect 234 0 1 0;
#X connect 235 0 15 0;
#X connect 236 0 237 0;
#X connect 237 0 238 1;
#X connect 238 0 33 0;
#X connect 239 0 240 0;
#X connect 239 0 241 0;
#X connect 240 1 223 0;
#X connect 242 0 290 0;
#X connect 242 1 264 0;
#X connect 243 1 477 0;
#X connect 244 0 290 2;
#X connect 245 0 247 0;
#X connect 246 0 229 0;
#X connect 247 1 244 0;
#X connect 248 0 286 0;
#X connect 248 0 298 0;
#X connect 248 0 427 0;
#X connect 248 0 499 0;
#X connect 249 0 289 0;
#X connect 249 0 426 0;
#X connect 249 0 499 0;
#X connect 250 0 275 0;
#X connect 250 0 286 0;
#X connect 250 0 425 0;
#X connect 250 0 499 0;
#X connect 251 0 271 0;
#X connect 251 0 424 0;
#X connect 251 0 499 0;
#X connect 252 0 519 0;
#X connect 253 0 501 2;
#X connect 254 0 257 0;
#X connect 254 0 481 0;
#X connect 255 0 501 1;
#X connect 256 0 254 0;
#X connect 256 0 253 0;
#X connect 256 0 278 0;
#X connect 256 0 280 0;
#X connect 257 0 259 0;
#X connect 258 0 481 0;
#X connect 259 0 258 0;
#X connect 260 0 501 1;
#X connect 261 0 501 1;
#X connect 262 0 501 1;
#X connect 263 0 499 0;
#X connect 264 0 263 0;
#X connect 267 0 272 0;
#X connect 268 0 265 0;
#X connect 269 0 279 0;
#X connect 270 0 359 0;
#X connect 271 0 268 0;
#X connect 273 0 274 0;
#X connect 274 0 272 1;
#X connect 274 0 285 0;
#X connect 275 0 267 0;
#X connect 278 0 276 0;
#X connect 279 0 270 0;
#X connect 280 0 277 0;
#X connect 282 0 281 0;
#X connect 284 0 283 0;
#X connect 285 0 282 1;
#X connect 286 0 282 0;
#X connect 286 0 287 0;
#X connect 287 0 284 0;
#X connect 289 0 288 0;
#X connect 290 0 291 0;
#X connect 291 0 246 0;
#X connect 292 0 98 0;
#X connect 293 0 99 0;
#X connect 294 0 292 1;
#X connect 294 0 293 1;
#X connect 294 0 295 1;
#X connect 295 0 114 0;
#X connect 296 0 294 0;
#X connect 297 0 222 0;
#X connect 298 0 331 0;
#X connect 298 1 275 0;
#X connect 298 2 271 0;
#X connect 299 0 315 0;
#X connect 300 0 325 0;
#X connect 301 0 326 0;
#X connect 302 0 300 0;
#X connect 302 0 301 0;
#X connect 303 0 328 0;
#X connect 304 0 300 1;
#X connect 305 0 301 1;
#X connect 306 0 308 0;
#X connect 307 0 309 0;
#X connect 308 0 311 0;
#X connect 309 0 312 0;
#X connect 309 0 318 0;
#X connect 310 0 309 4;
#X connect 311 0 307 0;
#X connect 311 1 310 0;
#X connect 311 1 316 1;
#X connect 311 1 321 1;
#X connect 312 0 313 0;
#X connect 313 0 299 0;
#X connect 313 1 314 0;
#X connect 314 0 299 1;
#X connect 315 0 316 0;
#X connect 316 0 304 1;
#X connect 317 0 320 0;
#X connect 318 0 319 0;
#X connect 319 0 317 0;
#X connect 319 1 322 0;
#X connect 320 0 321 0;
#X connect 321 0 305 1;
#X connect 322 0 317 1;
#X connect 323 0 321 0;
#X connect 323 0 316 0;
#X connect 324 0 306 0;
#X connect 325 0 337 0;
#X connect 326 0 336 0;
#X connect 327 0 333 0;
#X connect 328 0 443 0;
#X connect 328 1 302 0;
#X connect 328 2 305 0;
#X connect 328 2 304 0;
#X connect 328 3 324 0;
#X connect 329 0 327 0;
#X connect 329 1 335 0;
#X connect 331 0 303 0;
#X connect 332 0 330 0;
#X connect 332 0 334 0;
#X connect 333 0 330 0;
#X connect 333 0 334 0;
#X connect 335 0 332 0;
#X connect 336 0 335 1;
#X connect 336 0 440 0;
#X connect 337 0 327 1;
#X connect 337 0 441 0;
#X connect 338 0 340 1;
#X connect 339 0 340 0;
#X connect 340 0 524 0;
#X connect 341 0 343 0;
#X connect 341 0 117 0;
#X connect 341 1 342 0;
#X connect 342 0 343 0;
#X connect 343 0 114 0;
#X connect 345 0 344 0;
#X connect 348 0 114 0;
#X connect 349 0 350 0;
#X connect 350 0 351 1;
#X connect 351 0 352 0;
#X connect 352 0 354 0;
#X connect 353 0 273 0;
#X connect 353 0 289 1;
#X connect 353 0 271 1;
#X connect 353 0 357 0;
#X connect 354 0 358 0;
#X connect 354 1 356 0;
#X connect 355 0 356 1;
#X connect 356 0 353 1;
#X connect 358 0 353 1;
#X connect 359 0 353 0;
#X connect 359 1 351 0;
#X connect 359 2 355 0;
#X connect 359 2 358 1;
#X connect 361 0 369 0;
#X connect 362 0 363 0;
#X connect 363 0 360 0;
#X connect 365 0 367 0;
#X connect 366 0 360 0;
#X connect 367 0 366 0;
#X connect 368 0 363 0;
#X connect 369 0 370 0;
#X connect 369 1 368 0;
#X connect 370 0 362 0;
#X connect 371 0 375 0;
#X connect 372 0 373 0;
#X connect 373 0 157 0;
#X connect 373 1 374 0;
#X connect 374 0 157 0;
#X connect 375 0 372 0;
#X connect 375 1 157 1;
#X connect 376 0 455 0;
#X connect 377 0 456 0;
#X connect 378 0 8 0;
#X connect 379 0 457 0;
#X connect 380 0 453 0;
#X connect 381 0 114 0;
#X connect 382 0 476 0;
#X connect 383 0 479 0;
#X connect 384 0 474 0;
#X connect 385 0 478 0;
#X connect 386 0 480 0;
#X connect 387 0 485 0;
#X connect 388 0 487 0;
#X connect 389 0 488 0;
#X connect 390 0 489 0;
#X connect 391 0 490 0;
#X connect 392 0 491 0;
#X connect 393 0 492 0;
#X connect 394 0 493 0;
#X connect 395 0 472 0;
#X connect 396 0 471 0;
#X connect 397 0 469 0;
#X connect 398 0 521 2;
#X connect 398 0 522 2;
#X connect 399 0 394 2;
#X connect 399 0 392 2;
#X connect 399 0 393 2;
#X connect 399 0 391 2;
#X connect 399 0 390 2;
#X connect 399 0 389 2;
#X connect 399 0 388 2;
#X connect 399 0 387 2;
#X connect 400 0 382 2;
#X connect 400 0 383 2;
#X connect 400 0 384 2;
#X connect 400 0 385 2;
#X connect 400 0 386 2;
#X connect 400 0 395 2;
#X connect 400 0 396 2;
#X connect 400 0 397 2;
#X connect 402 0 403 0;
#X connect 402 1 408 0;
#X connect 405 0 406 0;
#X connect 405 1 409 0;
#X connect 408 0 404 0;
#X connect 409 0 407 0;
#X connect 410 0 412 0;
#X connect 412 0 411 0;
#X connect 413 0 410 0;
#X connect 414 0 413 0;
#X connect 415 0 413 0;
#X connect 416 0 413 0;
#X connect 417 0 413 0;
#X connect 418 0 419 0;
#X connect 418 1 421 0;
#X connect 421 0 420 0;
#X connect 423 0 422 0;
#X connect 424 0 256 0;
#X connect 424 0 417 0;
#X connect 424 1 255 0;
#X connect 425 0 256 0;
#X connect 425 0 416 0;
#X connect 425 1 260 0;
#X connect 426 0 256 0;
#X connect 426 0 415 0;
#X connect 426 1 261 0;
#X connect 427 0 256 0;
#X connect 427 0 414 0;
#X connect 427 1 262 0;
#X connect 428 0 429 0;
#X connect 429 0 444 0;
#X connect 429 1 445 0;
#X connect 430 0 428 2;
#X connect 431 0 428 0;
#X connect 432 1 483 0;
#X connect 433 1 430 0;
#X connect 434 0 433 0;
#X connect 435 0 436 0;
#X connect 436 0 434 1;
#X connect 437 0 329 0;
#X connect 440 0 441 0;
#X connect 440 1 441 1;
#X connect 441 0 442 0;
#X connect 442 0 439 0;
#X connect 442 0 438 0;
#X connect 443 0 437 0;
#X connect 444 0 303 0;
#X connect 444 1 446 0;
#X connect 445 0 248 0;
#X connect 445 1 447 0;
#X connect 446 0 443 1;
#X connect 447 0 443 1;
#X connect 449 0 450 0;
#X connect 450 0 451 0;
#X connect 450 0 495 0;
#X connect 450 0 496 0;
#X connect 452 0 453 1;
#X connect 452 0 466 1;
#X connect 453 0 238 0;
#X connect 454 0 455 1;
#X connect 454 0 456 1;
#X connect 455 0 234 0;
#X connect 456 0 233 0;
#X connect 457 0 235 0;
#X connect 458 0 457 1;
#X connect 459 0 460 1;
#X connect 459 0 461 1;
#X connect 460 0 504 0;
#X connect 461 0 503 0;
#X connect 462 0 505 0;
#X connect 463 0 462 1;
#X connect 464 0 502 0;
#X connect 465 0 464 1;
#X connect 466 0 506 0;
#X connect 467 0 339 0;
#X connect 468 0 467 1;
#X connect 469 0 292 0;
#X connect 470 0 469 1;
#X connect 470 0 471 1;
#X connect 471 0 293 0;
#X connect 472 0 148 0;
#X connect 473 0 472 1;
#X connect 474 0 226 0;
#X connect 475 0 474 1;
#X connect 475 0 476 1;
#X connect 475 0 477 1;
#X connect 475 0 478 1;
#X connect 475 0 479 1;
#X connect 475 0 480 1;
#X connect 476 0 242 0;
#X connect 477 0 245 0;
#X connect 478 0 225 0;
#X connect 479 0 227 0;
#X connect 480 0 221 0;
#X connect 481 0 501 0;
#X connect 482 0 481 1;
#X connect 483 0 434 0;
#X connect 484 0 483 1;
#X connect 485 0 171 0;
#X connect 486 0 485 1;
#X connect 486 0 487 1;
#X connect 486 0 488 1;
#X connect 486 0 489 1;
#X connect 486 0 490 1;
#X connect 486 0 491 1;
#X connect 486 0 492 1;
#X connect 486 0 493 1;
#X connect 487 0 176 0;
#X connect 488 0 156 0;
#X connect 489 0 164 0;
#X connect 490 0 189 0;
#X connect 491 0 192 0;
#X connect 492 0 201 0;
#X connect 493 0 204 0;
#X connect 494 0 509 0;
#X connect 496 0 494 0;
#X connect 508 0 507 0;
#X connect 509 0 498 0;
#X connect 509 1 508 0;
#X connect 510 0 515 0;
#X connect 511 0 510 2;
#X connect 514 0 515 1;
#X connect 515 0 513 0;
#X connect 516 0 517 0;
#X connect 517 0 518 0;
#X connect 519 0 431 0;
#X connect 519 1 249 0;
#X connect 519 2 250 0;
#X connect 519 3 251 0;
#X connect 520 0 467 0;
#X connect 521 0 523 0;
#X connect 522 0 520 0;
#X connect 523 0 467 0;
#X connect 524 0 525 0;
#X connect 525 0 341 0;
#X connect 526 0 529 1;
#X connect 526 0 19 0;
#X connect 527 0 526 0;
#X connect 528 0 45 0;
#X connect 529 0 528 0;
#X connect 534 0 532 0;
#X connect 534 0 535 0;
#X connect 535 0 533 0;
#X connect 536 0 534 0;
#X connect 537 0 539 0;
#X connect 538 0 536 1;
#X connect 539 0 538 0;
#X connect 540 0 539 0;
