#N canvas 1440 924 1920 980 12;
#X obj 848 235 sel 127, f 8;
#X obj 560 248 sel 127;
#X text 855 125 stop;
#X obj 853 278 s t.stop;
#X obj 615 328 s t.cont;
#X text 570 148 cont;
#X obj 705 244 s t.prime;
#X obj 965 237 sel 127;
#X obj 1159 306 s t.stop;
#X obj 1104 370 s ctl.reload_mset;
#X obj 1130 266 t;
#X obj 598 623 s tin.toggle;
#X msg 519 563 set \$1;
#X obj 519 513 r tin.toggle;
#X obj 1130 336 s s.reset;
#X obj 1471 282 sel 127;
#X obj 1412 400 s s.hold;
#X obj 1274 520 r t.transport_status;
#X msg 1162 732 9;
#X msg 1189 732 green;
#X obj 1274 549 change;
#X obj 1230 643 == 0;
#X msg 1281 735 8;
#X obj 1600 230 r s.hold;
#X msg 1682 436 10;
#X msg 1713 436 blue;
#X obj 1643 367 change;
#X msg 1323 345 red;
#X msg 1287 345 7;
#X msg 1219 349 1;
#X msg 1250 346 0;
#X obj 545 325 onebang;
#X obj 615 280 r s.reset;
#X floatatom 149 828 5 0 0 0 - - - 0;
#X obj 148 858 > 64;
#X obj 189 2052 s s.seek_seg;
#X obj 146 1630 f;
#X obj 214 1578 r s.current_seg_id;
#X obj 150 1687 - 1;
#X obj 189 1690 + 1;
#X obj 187 1631 f;
#X obj 153 1545 sel 0 1, f 11;
#X obj 162 1970 f;
#X floatatom 188 2020 5 0 0 0 - - - 0;
#X msg 238 1834 \$1;
#X obj 126 2097 s ctl.update_text;
#X obj 127 2059 del 50;
#X floatatom 240 1685 5 0 127 0 - - - 0;
#X obj 246 1652 r s.num_of_segs;
#X obj 164 1734 min;
#X obj 151 1765 max 1;
#X floatatom 191 1794 5 0 0 0 - - - 0;
#X obj 154 896 sel 0 1, f 13;
#X obj 65 927 r t.tempo;
#X obj 132 998 f;
#X obj 177 1001 f;
#X obj 129 1037 - 1;
#X obj 174 1036 + 1;
#X floatatom 156 1153 5 0 0 0 - - - 0;
#X obj 274 1197 s t.tempo;
#X obj 151 1119 max 30;
#X obj 147 1086 min 300;
#X obj 89 1199 s ctl.manual_tempo_change;
#X floatatom 2330 152 5 0 0 0 - - - 0;
#X obj 2316 365 i;
#X floatatom 2328 404 5 0 0 0 - - - 0;
#X obj 2295 541 s t.tempo;
#X obj 2286 512 s ctl.manual_tempo_change;
#X obj 2355 477 s s.write_seg_data;
#X msg 2361 446 bpm \$1;
#X floatatom 2497 161 5 0 0 0 - - - 0;
#X obj 2491 226 i;
#X floatatom 2492 266 5 0 0 0 - - - 0;
#X obj 2492 341 s s.write_seg_data;
#X msg 2491 303 bpmr \$1;
#X floatatom 1969 150 5 0 0 0 - - - 0;
#X obj 1963 215 i;
#X floatatom 1960 248 5 0 0 0 - - - 0;
#X obj 1929 396 s s.write_seg_data;
#X floatatom 2136 159 5 0 0 0 - - - 0;
#X obj 2130 224 i;
#X floatatom 2128 252 5 0 0 0 - - - 0;
#X obj 2116 397 s s.write_seg_data;
#X msg 1935 365 md \$1;
#X msg 2116 352 mnm \$1;
#X obj 1953 321 pgm2bank;
#X obj 2116 320 pgm2bank;
#X obj 1957 283 t b f;
#X obj 2121 283 t b f;
#X floatatom 2681 163 5 0 0 0 - - - 0;
#X obj 2680 297 s s.write_seg_data;
#X obj 2685 232 tgl 20 0 empty empty empty 0 -10 0 12 #fcfcfc #000000 #000000 0 1;
#X msg 2680 266 tin \$1;
#X floatatom 2862 160 5 0 0 0 - - - 0;
#X obj 2860 354 s s.write_seg_data;
#X floatatom 3037 160 5 0 0 0 - - - 0;
#X obj 3031 347 s s.write_seg_data;
#X msg 2860 310 rep \$1;
#X msg 3031 302 len \$1;
#X obj 2850 220 i;
#X floatatom 2851 260 5 0 0 0 - - - 0;
#X obj 3017 229 i;
#X floatatom 3018 269 5 0 0 0 - - - 0;
#X obj 2957 573 s t.stop;
#X obj 2957 488 del 100;
#X obj 3023 490 onebang;
#X obj 2873 442 t b b;
#X msg 2964 449 stop;
#X msg 980 1390 copy;
#X obj 980 1353 sel 127;
#X obj 685 1356 sel 127;
#X obj 888 1358 sel 127;
#X msg 893 1394 paste;
#X msg 793 1396 delete;
#X obj 793 1259 sel 127, f 8;
#X obj 695 1118 ctlin;
#X obj 707 1174 spigot 1;
#X obj 793 1364 bng 20 250 50 0 empty empty empty 0 -10 0 12 #fcfcfc #000000 #000000;
#X obj 711 1201 sel 106;
#X obj 1007 1542 bng 20 250 50 0 empty empty empty 0 -10 0 12 #fcfcfc #000000 #000000;
#X obj 1082 1558 bng 20 250 50 0 empty empty empty 0 -10 0 12 #fcfcfc #000000 #000000;
#X obj 1127 1560 bng 20 250 50 0 empty empty empty 0 -10 0 12 #fcfcfc #000000 #000000;
#X obj 1168 1560 bng 20 250 50 0 empty empty empty 0 -10 0 12 #fcfcfc #000000 #000000;
#X obj 998 1449 tosymbol;
#X msg 770 1731 yellow;
#X msg 778 1794 1;
#X msg 980 1727 10;
#X obj 1051 1720 bng 20 250 50 0 empty empty empty 0 -10 0 12 #fcfcfc #000000 #000000;
#X obj 750 1823 bng 20 250 50 0 empty empty empty 0 -10 0 12 #fcfcfc #000000 #000000;
#X msg 752 1884 0;
#X obj 745 1854 del 250;
#X msg 941 1729 9;
#X msg 906 1729 8;
#X msg 871 1731 7;
#X obj 853 1484 sel 0;
#X obj 1402 1479 text set seg_data_buffer;
#X obj 1322 1305 text define seg_data_buffer;
#X obj 1335 1595 text get seg_data_buffer;
#X obj 1402 1441 text get set;
#X obj 1551 1178 r s.current_seg_id;
#X floatatom 1552 1238 5 0 0 0 - - - 0;
#X obj 1403 1405 i;
#X obj 1351 1650 text insert set;
#X obj 1622 1495 i;
#X obj 1617 1527 + 1;
#X msg 1334 1558 0;
#X obj 1045 1851 s s.save;
#X obj 964 1851 s s.reload;
#X obj 1039 1816 del 25;
#X obj 1550 1210 - 1;
#X obj 966 1817 del 50;
#X obj 1631 1714 s s.seek_seg;
#X obj 1638 1681 i;
#X obj 1493 1713 s ctl.update_text;
#X obj 1564 1668 bng 20 250 50 0 empty empty empty 0 -10 0 12 #fcfcfc #000000 #000000;
#X obj 1634 1632 + 1;
#X obj 1606 1593 del 75;
#X obj 1565 1642 del 25;
#X obj 1335 1772 text delete set;
#X obj 1356 1716 i;
#X obj 789 1302 counter 0 0 1;
#X obj 790 1331 sel 1;
#X msg 685 1393 insert;
#X obj 1364 1356 t b b b;
#X obj 2261 1575 text get set;
#X obj 1876 1909 zl filter;
#X obj 2007 1909 zl filter;
#X msg 1875 1741 A01 A02 A03 A04 A05 A06 A07 A08 A09 A10 A11 A12 A13 A14 A15 A16 B01 B02 B03 B04 B05 B06 B07 B08 B09 B10 B11 B12 B13 B14 B15 B16 C01 C02 C03 C04 C05 C06 C07 C08 C09 C10 C11 C12 C13 C14 C15 C16 D01 D02 D03 D04 D05 D06 D07 D08 D09 D10 D11 D12 D13 D14 D15 D16 E01 E02 E03 E04 E05 E06 E07 E08 E09 E10 E11 E12 E13 E14 E15 E16 F01 F02 F03 F04 F05 F06 F07 F08 F09 F10 F11 F12 F13 F14 F15 F16 G01 G02 G03 G04 G05 G06 G07 G08 G09 G10 G11 G12 G13 G14 G15 G16 H01 H02 H03 H04 H05 H06 H07 H08 H09 H10 H11 H12 H13 H14 H15 H16, f 72;
#X obj 1956 1614 bng 20 250 50 0 empty empty empty 0 -10 0 12 #fcfcfc #000000 #000000;
#X obj 2001 1706 list;
#X obj 2047 1712 list;
#X obj 2273 1302 text size set;
#X obj 2238 1396 uzi;
#X floatatom 2270 1334 5 0 0 0 - - - 0;
#X obj 2246 1432 counter 0 0;
#X obj 2299 1393 - 1;
#X obj 2257 1364 t f f;
#X floatatom 2241 1466 5 0 0 0 - - - 0;
#X obj 2251 1502 t f b;
#X msg 2278 1537 1;
#X obj 2267 1613 zl nth 1;
#X obj 2275 1656 zl group;
#X obj 2385 1578 text get set;
#X floatatom 2365 1469 5 0 0 0 - - - 0;
#X obj 2375 1505 t f b, f 7;
#X obj 2391 1616 zl nth 1;
#X obj 2399 1659 zl group;
#X msg 2401 1539 3;
#X msg 2460 1621 zlclear;
#X obj 2265 1267 bng 20 250 50 0 empty empty empty 0 -10 0 12 #fcfcfc #000000 #000000;
#X obj 1879 1945 zl nth 1;
#X obj 2004 1943 zl nth 1;
#X obj 1843 2068 symbol;
#X obj 1955 1642 t b b b b;
#X obj 1805 1957 t b b;
#X obj 1848 2163 s s.write_seg_data;
#X obj 1951 1582 del 500;
#X msg 1945 2103 mnm \$1;
#X msg 1846 2116 md \$1;
#X obj 1944 2061 symbol;
#X obj 1984 2001 tosymbol;
#X obj 1900 1996 tosymbol;
#X obj 1103 432 s s.reload;
#X obj 1104 401 del 200;
#X obj 1690 1189 r s.num_of_segs;
#X floatatom 1690 1224 5 0 0 0 - - - 0;
#X obj 1660 1267 <;
#X obj 1661 1294 tgl 20 0 empty empty empty 0 -10 0 12 #fcfcfc #000000 #000000 0 1;
#X obj 1580 1373 i;
#X obj 1660 1329 sel 1 0;
#X obj 1673 1369 - 1;
#X obj 1654 1401 i;
#X floatatom 1605 1424 5 0 0 0 - - - 0;
#X obj 1623 1370 i;
#X obj 1582 1293 t b f f;
#X obj 2319 264 < 30;
#X obj 2303 297 sel 0 1;
#X msg 2324 329 0;
#X obj 2327 222 t f f;
#X obj 242 1866 s ctl.desired_seek_seg;
#X obj 107 1244 t f b, f 8;
#X obj 107 1323 s scmgr.temp_param.val;
#X obj 138 1354 s scmgr.temp;
#X obj 500 638 t f b, f 8;
#X obj 500 700 s scmgr.temp_param.val;
#X obj 531 731 s scmgr.temp;
#X msg 531 674 temp_param manual tin;
#X obj 490 1802 tosymbol;
#X obj 490 1868 s scmgr.temp;
#X obj 490 1837 prepend temp_simple;
#X obj 490 1768 list append segment;
#X msg 490 1732 inserted;
#X msg 562 1732 deleted;
#X msg 630 1732 pasted;
#X msg 692 1732 copied;
#X obj 1485 387 t f b, f 8;
#X obj 1485 449 s scmgr.temp_param.val;
#X obj 1516 480 s scmgr.temp;
#X msg 1516 423 temp_param hold;
#X obj 1224 445 s scmgr.temp;
#X msg 1224 420 temp_simple reset set;
#X obj 995 1675 t;
#X obj 948 1679 t;
#X obj 899 1684 t;
#X obj 855 1686 t;
#X obj 1756 1598 counter 0 0 1;
#X obj 1755 1627 sel 0 1;
#X obj 1788 1562 bng 25 250 50 0 empty empty empty 17 7 0 10 #191919 #e1e1e1 #e1e1e1;
#X obj 1757 1561 bng 25 250 50 0 empty empty empty 17 7 0 10 #191919 #e1e1e1 #e1e1e1;
#X obj 1823 1385 ctlin;
#X obj 1809 1867 bng 25 250 50 0 empty empty commit 17 7 0 10 #191919 #e1e1e1 #e1e1e1;
#X obj 2105 2051 t b s;
#X obj 2106 2085 join;
#X obj 1779 1751 spigot 0;
#X obj 1753 1677 t;
#X obj 1796 1674 t;
#X msg 1770 1707 0;
#X msg 1812 1707 1;
#X text 1539 1746 you now have to double press insert in order to commit the insert. pressing it only once will now preview where the next available slot is, f 31;
#X obj 1478 202 spigot 0, f 12;
#X obj 958 30 r seg_manager.focus;
#X obj 556 213 spigot 0, f 12;
#X obj 847 200 spigot 0, f 12;
#X obj 965 190 spigot 0, f 12;
#X obj 209 752 r seg_manager.focus;
#X obj 134 792 spigot 0, f 14;
#X obj 676 1324 spigot 0, f 14;
#X obj 989 1153 r seg_manager.focus;
#X obj 795 1230 spigot 0, f 14;
#X obj 709 1147 spigot 0, f 14;
#X obj 981 1321 spigot 0, f 14;
#X obj 890 1327 spigot 0, f 11;
#X obj 1848 1455 spigot 0, f 11;
#X obj 1905 1418 r seg_manager.focus;
#X obj 1956 122 spigot 0, f 11;
#X obj 1773 87 r seg_manager.focus;
#X obj 2118 124 spigot 0, f 11;
#X obj 2313 117 spigot 0, f 11;
#X obj 2481 122 spigot 0, f 11;
#X obj 2663 117 spigot 0, f 11;
#X obj 2845 118 spigot 0, f 11;
#X obj 3021 118 spigot 0, f 11;
#X obj 790 1578 s ctl.load_clrstore_1;
#X obj 854 1840 clr 1;
#X obj 1250 790 clr 1;
#X obj 1264 387 clr 1;
#X obj 1655 479 clr 1;
#X obj 990 1485 sel insert delete paste copy;
#X text 972 120 reload;
#X obj 909 336 s s.reload;
#X obj 963 157 r ctl.loop;
#X obj 1479 161 r ctl.rec;
#X obj 556 173 r ctl.play;
#X obj 845 161 r ctl.stop;
#X obj 132 756 r ctl.enc;
#X obj 157 1411 r ctl.shift.enc;
#X floatatom 161 1477 5 0 0 0 - - - 12;
#X obj 156 1445 spigot 0, f 14;
#X obj 258 1415 r seg_manager.focus;
#X obj 161 1511 > 64;
#X obj 183 1577 bng 25 250 50 0 empty empty empty 17 7 0 10 #191919 #e1e1e1 #e1e1e1;
#X obj 152 1577 bng 25 250 50 0 empty empty empty 17 7 0 10 #191919 #e1e1e1 #e1e1e1;
#X obj 147 2013 bng 25 250 50 0 empty empty empty 17 7 0 10 #191919 #e1e1e1 #e1e1e1;
#X obj 187 923 bng 25 250 50 0 empty empty empty 17 7 0 10 #191919 #e1e1e1 #e1e1e1;
#X obj 148 925 bng 25 250 50 0 empty empty empty 17 7 0 10 #191919 #e1e1e1 #e1e1e1;
#X obj 708 161 r ctl.stop.play;
#X obj 711 202 spigot 0, f 12;
#X obj 484 332 bng 25 250 50 0 empty empty empty 17 7 0 10 #191919 #e1e1e1 #e1e1e1;
#X text 748 130 prime;
#X obj 545 361 s t.prime;
#X text 610 351 if we reset before \, prime, f 12;
#X obj 1150 155 r ctl.stop.loop;
#X obj 1149 198 spigot 0, f 12;
#X text 1159 127 reset;
#X msg 764 477 9;
#X msg 789 476 green;
#X obj 743 521 clr 1;
#X obj 753 405 flash_tog;
#X msg 819 769 9;
#X obj 778 804 clr 1, f 17;
#X msg 844 772 yellow;
#X msg 781 697 1;
#X obj 1504 317 bng 25 250 50 0 empty empty empty 17 7 0 10 #191919 #e1e1e1 #e1e1e1;
#X obj 1471 320 tgl 25 0 empty empty empty 17 7 0 10 #191919 #e1e1e1 #e1e1e1 0 1;
#X msg 1538 284 set \$1;
#X text 1501 125 hold;
#X obj 598 584 tgl 25 0 empty empty empty 17 7 0 10 #191919 #e1e1e1 #e1e1e1 0 1;
#X obj 83 1816 r ctl.shift;
#X obj 86 1847 sel 0;
#X obj 104 1891 onebang;
#X obj 166 1832 t b f;
#X obj 1336 549 r seg_manager.transport_colour;
#X obj 819 697 s seg_manager.transport_colour;
#X obj 1156 792 clr 1;
#X obj 1279 676 t f;
#X obj 1234 677 t f;
#X obj 1316 701 loadmess bang;
#X obj 1274 588 f;
#X obj 909 479 r s.reload;
#X obj 932 643 clr 1;
#X msg 996 549 orange;
#X msg 971 550 7;
#X obj 910 505 bng 25 250 50 0 empty empty empty 17 7 0 10 #191919 #e1e1e1 #e1e1e1;
#X obj 973 517 loadmess bang;
#X msg 891 573 0;
#X msg 914 573 1;
#X obj 1327 311 loadmess bang;
#X obj 1231 263 bng 25 250 50 0 empty empty empty 17 7 0 10 #191919 #e1e1e1 #e1e1e1;
#X obj 838 731 loadmess bang;
#X obj 782 440 loadmess bang;
#X obj 1686 402 loadmess bang;
#X obj 888 548 del 75;
#X obj 759 370 r t.prime;
#X msg 138 1280 temp_param manual bpm;
#X obj 92 1279 i;
#X obj 673 1285 r ctl.shift.loop;
#X obj 792 1190 r ctl.shift.stop;
#X obj 737 1230 bng 25 250 50 0 empty empty empty 17 7 0 10 #191919 #e1e1e1 #e1e1e1;
#X obj 883 1285 r ctl.shift.play;
#X obj 1007 1282 r ctl.shift.rec;
#X obj 2098 2186 tosymbol;
#X obj 2094 2327 s scmgr.static;
#X obj 2095 2225 prepend b;
#X obj 2100 2255 t a b;
#X msg 2098 2144 md: \$1 mnm: \$2;
#X msg 2121 2291 a insert here?;
#X msg 829 1732 red;
#X obj 1740 1422 r ctl.any_pad;
#X obj 1950 76 r ctl.shift.k1;
#X obj 2116 81 r ctl.shift.k2;
#X obj 2316 76 r ctl.shift.k3;
#X obj 2523 72 r ctl.shift.k4;
#X obj 2666 72 r ctl.shift.k5;
#X obj 2845 79 r ctl.shift.k6;
#X obj 3019 84 r ctl.shift.k7;
#X obj 2959 389 bng 25 250 50 0 empty empty empty 17 7 0 10 #191919 #e1e1e1 #e1e1e1;
#X obj 1839 1418 sel 105;
#X obj 896 365 s s.reload;
#X obj 252 2095 s s.reload;
#X obj 934 1879 s s.reload;
#X obj 243 2125 s s.reload;
#X obj 1070 464 s s.reload;
#X obj 976 366 s s.allowPGMChange;
#X obj 965 263 t;
#X obj 369 1484 r ctl.prog;
#X obj 369 1521 spigot 0;
#X obj 369 1551 sel 127;
#X obj 369 1582 bng 25 250 50 0 empty empty empty 17 7 0 10 #211d14 #e1bf96 #e1ce9c;
#X obj 395 1582 bng 25 250 50 0 empty empty empty 17 7 0 10 #211d14 #e1bf96 #e1ce9c;
#X obj 450 1484 r ctl.stop.prog;
#X obj 450 1582 bng 25 250 50 0 empty empty empty 17 7 0 10 #211d14 #e1bf96 #e1ce9c;
#X obj 450 1620 del 50;
#X obj 932 401 s s.do_pgm_out;
#X obj 922 306 del 25;
#X obj 526 1586 s s.do_pgm_out;
#X obj 562 1552 s s.allowPGMChange;
#X obj 530 1607 s scmgr.goawaytemp_param;
#X obj 533 1552 b;
#X obj 562 1525 b;
#X obj 1674 329 s scmgr.goawaytemp_param;
#X obj 438 120 s scmgr.goawaytemp_param;
#X obj 438 81 bng 25 250 50 0 empty empty empty 17 7 0 10 #211d14 #e1bf96 #e1ce9c;
#X obj 600 440 r ctl.tap.play;
#X obj 600 480 spigot 0, f 12;
#X obj 601 515 bng 25 250 50 0 empty empty empty 17 7 0 10 #211d14 #e1bf96 #e1ce9c;
#X obj 432 513 loadmess 0;
#X text 545 461 tin;
#X obj 776 623 sel 1 0;
#X obj 776 588 r tin.toggle;
#X obj 1865 730 r midich_mnm_notes;
#X obj 2163 872 bendout 57;
#X obj 2247 872 ctlout 57, f 11;
#X obj 2265 767 t f b;
#X msg 2290 808 1;
#X obj 2163 690 r ctl.bend;
#X obj 2537 665 spigot 0, f 12;
#X obj 2002 634 r seg_manager.focus;
#X obj 2163 730 spigot 0, f 12;
#X obj 2268 730 spigot 0, f 12;
#X floatatom 2537 699 5 0 0 0 - - - 12;
#X obj 2264 690 r ctl.mod;
#X floatatom 2247 808 5 0 0 0 - - - 12;
#X floatatom 2163 801 5 0 0 0 - - - 12;
#X obj 1865 831 i;
#X obj 1912 785 - 8;
#X obj 1951 785 - 7;
#X obj 1985 785 - 6;
#X obj 2024 785 - 5;
#X obj 2062 785 - 4;
#X obj 2101 785 - 3;
#X obj 1912 831 i;
#X obj 1951 831 i;
#X obj 1985 831 i;
#X obj 2024 831 i;
#X obj 2062 831 i;
#X obj 2101 831 i;
#X obj 2511 792 t f b;
#X obj 2425 665 spigot 0, f 12;
#X floatatom 2425 699 5 0 0 0 - - - 12;
#X obj 2399 785 t f b;
#X obj 3366 107 r ctl.k1;
#X obj 2399 999 scale 0 127 -8192 8191;
#X obj 2755 665 spigot 0, f 12;
#X floatatom 2755 699 5 0 0 0 - - - 12;
#X obj 2729 792 t f b;
#X obj 2643 665 spigot 0, f 12;
#X floatatom 2643 699 5 0 0 0 - - - 12;
#X obj 2617 792 t f b;
#X obj 2976 665 spigot 0, f 12;
#X floatatom 2976 699 5 0 0 0 - - - 12;
#X obj 2950 792 t f b;
#X obj 2864 665 spigot 0, f 12;
#X floatatom 2864 699 5 0 0 0 - - - 12;
#X obj 2838 792 t f b;
#X floatatom 1912 873 5 0 0 0 - - - 12;
#X obj 3202 665 spigot 0, f 12;
#X floatatom 3202 699 5 0 0 0 - - - 12;
#X obj 3176 792 t f b;
#X obj 3090 665 spigot 0, f 12;
#X floatatom 3090 699 5 0 0 0 - - - 12;
#X obj 3064 792 t f b;
#X obj 3420 665 spigot 0, f 12;
#X floatatom 3420 699 5 0 0 0 - - - 12;
#X obj 3410 761 t f b;
#X obj 3308 665 spigot 0, f 12;
#X floatatom 3308 699 5 0 0 0 - - - 12;
#X obj 3282 792 t f b;
#X obj 3243 40 r ctl.s1;
#X obj 3310 40 r ctl.s2;
#X obj 3632 665 spigot 0, f 12;
#X floatatom 3632 699 5 0 0 0 - - - 12;
#X obj 3606 792 t f b;
#X obj 3520 665 spigot 0, f 12;
#X floatatom 3520 699 5 0 0 0 - - - 12;
#X obj 3520 761 t f b;
#X obj 3378 40 r ctl.s3;
#X obj 3445 40 r ctl.s4;
#X obj 1963 184 endless 1 128;
#X msg 1908 150 set \$1;
#X obj 2103 40 r s.seg_mnm_pgm_lookahead;
#X obj 1921 40 r s.seg_md_pgm_lookahead;
#X obj 2130 193 endless 1 128;
#X msg 2074 150 set \$1;
#X obj 2330 184 endless 30 300;
#X obj 2303 40 r s.seg_bpm_target_lookahead;
#X msg 2275 152 set \$1;
#X obj 2491 193 endless 0 127;
#X msg 2443 161 set \$1;
#X obj 2504 40 r s.seg_bpm_rtime_lookahead;
#X obj 2701 40 r s.seg_tin_lookahead;
#X msg 2617 163 set \$1;
#X obj 2681 196 endless 0 1;
#X obj 2850 193 endless 1 16;
#X msg 2804 160 set \$1;
#X obj 2845 40 r s.seg_reps_lookahead;
#X obj 3019 40 r s.loop_len_lookahead;
#X obj 3017 193 endless 6 64;
#X msg 2970 160 set \$1;
#X obj 2421 732 endless 0 127;
#X obj 2531 734 endless 0 127;
#X obj 2638 738 endless 0 127;
#X obj 2747 740 endless 0 127;
#X obj 2854 740 endless 0 127;
#X obj 2972 741 endless 0 127;
#X obj 3084 742 endless 0 127;
#X obj 3191 746 endless 0 127;
#X msg 2374 699 set 0;
#X obj 2374 590 r seg_manager.reset_endless_vals;
#X obj 2374 622 bng 25 250 50 0 empty empty empty 17 7 0 10 #211d14 #e1bf96 #e1ce9c;
#X obj 2603 590 r s.first_rep;
#X obj 2603 622 s seg_manager.reset_endless_vals;
#X obj 309 1808 clr 1, f 17;
#X obj 384 1744 loadmess bang;
#X msg 350 1773 6;
#X obj 384 1714 bng 25 250 50 0 empty empty empty 17 7 0 10 #211d14 #e1bf96 #e1ce9c;
#X msg 331 1724 1;
#X obj 330 1752 tgl 25 0 empty empty empty 17 7 0 10 #211d14 #e1bf96 #e1ce9c 0 1;
#X msg 350 1724 0;
#X obj 82 67 screen_clr_loader 1 seg_manager;
#X msg 375 1776 purple;
#X msg 1306 734 red;
#X obj 896 608 spigot 1;
#X obj 1152 511 == 0;
#X obj 1249 313 del 1000;
#X obj 2355 1037 s scmgr.temp_param.val;
#X obj 2954 920 s scmgr.temp;
#X obj 2399 953 i;
#X obj 2211 916 s scmgr.temp_param.val;
#X msg 2421 831 temp_param MnM T1 JoyX;
#X msg 2522 855 temp_param MnM T1 JoyY;
#X msg 2608 831 temp_param MnM T2 JoyX;
#X msg 2712 855 temp_param MnM T2 JoyY;
#X msg 2830 831 temp_param MnM T3 JoyX;
#X msg 2914 855 temp_param MnM T3 JoyY;
#X msg 3039 831 temp_param MnM T4 JoyX;
#X msg 3159 862 temp_param MnM T4 JoyY;
#X msg 3273 831 temp_param MnM T5 JoyX;
#X msg 3383 862 temp_param MnM T5 JoyY;
#X msg 3485 831 temp_param MnM T6 JoyX;
#X msg 3565 862 temp_param MnM T6 JoyY;
#X obj 2561 988 s pdctl.k1_;
#X obj 2641 988 s pdctl.k2_;
#X obj 2724 988 s pdctl.k3_;
#X obj 2804 988 s pdctl.k4_;
#X obj 2896 988 s pdctl.k5_;
#X obj 2976 988 s pdctl.k6_;
#X obj 3059 988 s pdctl.k7_;
#X obj 3139 988 s pdctl.k8_;
#X obj 3230 988 s pdctl.s1_;
#X obj 3310 988 s pdctl.s2_;
#X obj 3393 988 s pdctl.s3_;
#X obj 3473 988 s pdctl.s4_;
#X msg 2546 959 set \$1;
#X msg 2630 958 set \$1;
#X msg 2712 955 set \$1;
#X msg 2799 956 set \$1;
#X msg 2892 959 set \$1;
#X msg 2976 958 set \$1;
#X msg 3058 955 set \$1;
#X msg 3145 956 set \$1;
#X msg 3242 956 set \$1;
#X msg 3326 955 set \$1;
#X msg 3408 952 set \$1;
#X msg 3495 953 set \$1;
#X obj 4234 146 r seg_manager.focus;
#X obj 3366 189 spigot 0, f 12;
#X obj 3362 256 endless 0 127;
#X obj 4104 364 ctlal_array 48;
#X msg 3390 225 set 64;
#X floatatom 3362 290 5 0 0 0 - - - 12;
#X obj 3479 189 spigot 0, f 12;
#X obj 3475 256 endless 0 127;
#X msg 3506 222 set 64;
#X floatatom 3475 290 5 0 0 0 - - - 12;
#X obj 3479 107 r ctl.k2;
#X obj 3583 189 spigot 0, f 12;
#X obj 3579 256 endless 0 127;
#X msg 3607 225 set 64;
#X floatatom 3579 290 5 0 0 0 - - - 12;
#X obj 3696 189 spigot 0, f 12;
#X obj 3692 256 endless 0 127;
#X msg 3723 222 set 64;
#X floatatom 3692 290 5 0 0 0 - - - 12;
#X obj 4200 364 ctlal_array 49;
#X obj 4296 364 ctlal_array 50;
#X obj 4391 364 ctlal_array 51;
#X obj 3583 107 r ctl.k3;
#X obj 3696 107 r ctl.k4;
#X obj 3809 189 spigot 0, f 12;
#X obj 3805 256 endless 0 127;
#X msg 3833 225 set 64;
#X floatatom 3805 290 5 0 0 0 - - - 12;
#X obj 3922 189 spigot 0, f 12;
#X obj 3918 256 endless 0 127;
#X msg 3949 222 set 64;
#X floatatom 3918 290 5 0 0 0 - - - 12;
#X obj 4026 189 spigot 0, f 12;
#X obj 4022 256 endless 0 127;
#X msg 4050 225 set 64;
#X floatatom 4022 290 5 0 0 0 - - - 12;
#X obj 3809 107 r ctl.k5;
#X obj 3922 107 r ctl.k6;
#X obj 4026 107 r ctl.k7;
#X obj 4482 364 ctlal_array 52;
#X obj 4581 364 ctlal_array 53;
#X obj 4675 364 ctlal_array 54;
#X obj 3322 189 bng 25 250 50 0 empty empty empty 17 7 0 10 #211d14 #e1bf96 #e1ce9c;
#X obj 3247 146 loadmess bang;
#X obj 3341 600 s scmgr.temp;
#X obj 3168 413 s scmgr.temp_param.val;
#X obj 3278 326 i;
#X obj 4134 189 spigot 0, f 12;
#X obj 4130 256 endless 0 127;
#X msg 4158 225 set 64;
#X floatatom 4130 290 5 0 0 0 - - - 12;
#X obj 4134 107 r ctl.k8;
#X obj 4772 364 ctlal_array 55;
#X obj 3939 382 r ctl.tap;
#X obj 3939 415 sel 0;
#X obj 3341 495 selector 5, f 85;
#X floatatom 3936 495 5 0 0 0 - - - 12;
#X obj 3338 456 prepend_chars S;
#X msg 3341 382 1;
#X msg 3371 382 2;
#X msg 3398 382 3;
#X msg 3419 382 4;
#X msg 3443 382 5;
#X msg 3467 382 6;
#X msg 3495 382 7;
#X msg 3522 382 8;
#X obj 3451 456 prepend_chars A;
#X obj 3569 456 prepend_chars F;
#X obj 3682 456 prepend_chars E;
#X obj 3338 413 i;
#X obj 3939 450 counter 0 0 4;
#X obj 3795 456 prepend_chars Lb;
#X obj 3795 400 mod 3;
#X obj 3795 374 - 1;
#X obj 3795 425 + 1;
#X obj 3341 567 route list;
#X floatatom 3256 384 5 0 0 0 - - - 12;
#X obj 3341 534 list prepend temp_param MnM CTL AL;
#X obj 2957 528 bng 25 250 50 0 empty empty empty 17 7 0 10 #211d14 #e1bf96 #e1ce9c;
#X obj 2760 1169 r s.md_pgm_change;
#X obj 2630 1132 r t.transport_status;
#X obj 2630 1244 gate 1 0, f 22;
#X obj 2630 1373 bng 25 250 50 0 empty empty empty 17 7 0 10 #211d14 #e1bf96 #e1ce9c;
#X obj 2630 1204 == 0;
#X obj 2630 1520 s t.clock_toggle;
#X msg 2632 1415 0;
#X obj 2630 1279 t, f 11;
#X msg 2686 1316 stop;
#X obj 2760 1204 bng 25 250 50 0 empty empty empty 17 7 0 10 #211d14 #e1bf96 #e1ce9c;
#X msg 2689 1415 1;
#X obj 2630 1469 tgl 25 0 empty empty empty 17 7 0 10 #211d14 #e1bf96 #e1ce9c 0 1;
#X obj 2630 1169 tgl 25 0 empty empty empty 17 7 0 10 #211d14 #e1bf96 #e1ce9c 0 1;
#X obj 2848 1302 print s.md_pgm_change;
#X obj 2466 1229 print r.transport_status;
#X obj 2769 1520 print t.clock_toggle;
#X obj 2769 1466 r t.clock_toggle;
#X text 2829 1203 stop clock briefly while transport off & loading MD. this fixes 'sysex error' on mcl loads for now, f 29;
#X text 2829 1358 we should also create an action to manually toggle the clock on/off directly, f 21;
#X obj 2686 1373 del 500;
#X connect 0 0 3 0;
#X connect 1 0 307 0;
#X connect 1 0 31 0;
#X connect 1 0 4 0;
#X connect 1 1 401 0;
#X connect 7 0 383 0;
#X connect 10 0 9 0;
#X connect 10 0 203 0;
#X connect 10 1 8 0;
#X connect 10 1 14 0;
#X connect 12 0 326 0;
#X connect 13 0 12 0;
#X connect 15 0 323 0;
#X connect 15 1 322 0;
#X connect 17 0 20 0;
#X connect 18 0 333 1;
#X connect 19 0 333 2;
#X connect 20 0 337 0;
#X connect 21 0 335 0;
#X connect 22 0 284 1;
#X connect 23 0 26 0;
#X connect 23 0 324 0;
#X connect 24 0 286 1;
#X connect 25 0 286 2;
#X connect 26 0 286 0;
#X connect 27 0 285 2;
#X connect 28 0 285 1;
#X connect 29 0 285 0;
#X connect 29 0 522 0;
#X connect 30 0 285 0;
#X connect 30 0 522 0;
#X connect 31 0 309 0;
#X connect 32 0 31 1;
#X connect 33 0 34 0;
#X connect 34 0 52 0;
#X connect 36 0 38 0;
#X connect 37 0 36 1;
#X connect 37 0 40 1;
#X connect 38 0 49 0;
#X connect 39 0 49 0;
#X connect 40 0 39 0;
#X connect 41 0 301 0;
#X connect 41 1 300 0;
#X connect 42 0 43 0;
#X connect 42 0 302 0;
#X connect 43 0 35 0;
#X connect 44 0 219 0;
#X connect 46 0 45 0;
#X connect 46 0 378 0;
#X connect 46 0 380 0;
#X connect 47 0 49 1;
#X connect 48 0 47 0;
#X connect 49 0 50 0;
#X connect 50 0 51 0;
#X connect 51 0 40 1;
#X connect 51 0 36 1;
#X connect 51 0 44 0;
#X connect 51 0 330 0;
#X connect 52 0 304 0;
#X connect 52 1 303 0;
#X connect 53 0 54 1;
#X connect 53 0 55 1;
#X connect 54 0 56 0;
#X connect 55 0 57 0;
#X connect 56 0 61 0;
#X connect 57 0 61 0;
#X connect 58 0 59 0;
#X connect 58 0 62 0;
#X connect 58 0 220 0;
#X connect 60 0 58 0;
#X connect 61 0 60 0;
#X connect 63 0 483 0;
#X connect 64 0 65 0;
#X connect 65 0 66 0;
#X connect 65 0 67 0;
#X connect 65 0 69 0;
#X connect 69 0 68 0;
#X connect 70 0 486 0;
#X connect 71 0 72 0;
#X connect 72 0 74 0;
#X connect 74 0 73 0;
#X connect 75 0 477 0;
#X connect 76 0 77 0;
#X connect 77 0 87 0;
#X connect 79 0 481 0;
#X connect 80 0 81 0;
#X connect 81 0 88 0;
#X connect 83 0 78 0;
#X connect 84 0 82 0;
#X connect 85 0 83 0;
#X connect 86 0 84 0;
#X connect 87 0 85 0;
#X connect 87 1 85 1;
#X connect 88 0 86 0;
#X connect 88 1 86 1;
#X connect 89 0 491 0;
#X connect 91 0 92 0;
#X connect 92 0 90 0;
#X connect 93 0 492 0;
#X connect 95 0 496 0;
#X connect 97 0 94 0;
#X connect 97 0 375 0;
#X connect 98 0 96 0;
#X connect 98 0 375 0;
#X connect 99 0 100 0;
#X connect 100 0 97 0;
#X connect 101 0 102 0;
#X connect 102 0 98 0;
#X connect 104 0 105 1;
#X connect 104 0 642 0;
#X connect 105 0 642 0;
#X connect 106 0 104 0;
#X connect 106 1 107 0;
#X connect 107 0 104 0;
#X connect 108 0 123 0;
#X connect 109 0 108 0;
#X connect 109 1 134 0;
#X connect 110 0 162 0;
#X connect 110 1 134 0;
#X connect 111 0 112 0;
#X connect 111 1 134 0;
#X connect 112 0 123 0;
#X connect 113 0 123 0;
#X connect 114 0 160 0;
#X connect 114 1 134 0;
#X connect 115 1 269 0;
#X connect 116 0 118 0;
#X connect 117 0 113 0;
#X connect 118 1 357 0;
#X connect 119 0 156 0;
#X connect 119 0 244 0;
#X connect 119 0 282 0;
#X connect 119 0 163 0;
#X connect 120 0 159 0;
#X connect 120 0 243 0;
#X connect 120 0 282 0;
#X connect 121 0 145 0;
#X connect 121 0 156 0;
#X connect 121 0 242 0;
#X connect 121 0 282 0;
#X connect 122 0 141 0;
#X connect 122 0 241 0;
#X connect 122 0 282 0;
#X connect 123 0 287 0;
#X connect 124 0 283 2;
#X connect 125 0 128 0;
#X connect 125 0 283 0;
#X connect 126 0 283 1;
#X connect 127 0 125 0;
#X connect 127 0 148 0;
#X connect 127 0 150 0;
#X connect 128 0 130 0;
#X connect 129 0 283 0;
#X connect 130 0 129 0;
#X connect 131 0 283 1;
#X connect 132 0 283 1;
#X connect 133 0 283 1;
#X connect 134 0 282 0;
#X connect 137 0 142 0;
#X connect 138 0 135 0;
#X connect 139 0 149 0;
#X connect 140 0 214 0;
#X connect 141 0 138 0;
#X connect 143 0 144 0;
#X connect 144 0 142 1;
#X connect 144 0 155 0;
#X connect 145 0 137 0;
#X connect 148 0 146 0;
#X connect 149 0 140 0;
#X connect 150 0 147 0;
#X connect 150 0 379 0;
#X connect 152 0 151 0;
#X connect 154 0 153 0;
#X connect 155 0 152 1;
#X connect 156 0 152 0;
#X connect 156 0 157 0;
#X connect 157 0 154 0;
#X connect 159 0 158 0;
#X connect 160 0 161 0;
#X connect 161 0 117 0;
#X connect 162 0 123 0;
#X connect 163 0 196 0;
#X connect 163 1 145 0;
#X connect 163 2 141 0;
#X connect 164 0 180 0;
#X connect 165 0 190 0;
#X connect 166 0 191 0;
#X connect 167 0 165 0;
#X connect 167 0 166 0;
#X connect 168 0 193 0;
#X connect 169 0 165 1;
#X connect 170 0 166 1;
#X connect 171 0 173 0;
#X connect 172 0 174 0;
#X connect 173 0 176 0;
#X connect 174 0 177 0;
#X connect 174 0 183 0;
#X connect 175 0 174 4;
#X connect 176 0 172 0;
#X connect 176 1 175 0;
#X connect 176 1 181 1;
#X connect 176 1 186 1;
#X connect 177 0 178 0;
#X connect 178 0 164 0;
#X connect 178 1 179 0;
#X connect 179 0 164 1;
#X connect 180 0 181 0;
#X connect 181 0 169 1;
#X connect 182 0 185 0;
#X connect 183 0 184 0;
#X connect 184 0 182 0;
#X connect 184 1 187 0;
#X connect 185 0 186 0;
#X connect 186 0 170 1;
#X connect 187 0 182 1;
#X connect 188 0 186 0;
#X connect 188 0 181 0;
#X connect 189 0 171 0;
#X connect 190 0 201 0;
#X connect 191 0 200 0;
#X connect 192 0 198 0;
#X connect 193 0 253 0;
#X connect 193 1 167 0;
#X connect 193 2 170 0;
#X connect 193 2 169 0;
#X connect 193 3 189 0;
#X connect 194 0 192 0;
#X connect 194 1 199 0;
#X connect 196 0 168 0;
#X connect 197 0 195 0;
#X connect 198 0 195 0;
#X connect 199 0 197 0;
#X connect 200 0 199 1;
#X connect 200 0 251 0;
#X connect 201 0 192 1;
#X connect 201 0 252 0;
#X connect 203 0 202 0;
#X connect 203 0 381 0;
#X connect 204 0 205 0;
#X connect 205 0 206 1;
#X connect 206 0 207 0;
#X connect 207 0 209 0;
#X connect 208 0 143 0;
#X connect 208 0 159 1;
#X connect 208 0 141 1;
#X connect 208 0 212 0;
#X connect 209 0 213 0;
#X connect 209 1 211 0;
#X connect 210 0 211 1;
#X connect 211 0 208 1;
#X connect 213 0 208 1;
#X connect 214 0 208 0;
#X connect 214 1 206 0;
#X connect 214 2 210 0;
#X connect 214 2 213 1;
#X connect 215 0 216 0;
#X connect 216 0 64 0;
#X connect 216 1 217 0;
#X connect 217 0 64 0;
#X connect 218 0 215 0;
#X connect 218 1 64 1;
#X connect 220 0 354 0;
#X connect 220 1 353 0;
#X connect 223 0 224 0;
#X connect 223 1 226 0;
#X connect 226 0 225 0;
#X connect 227 0 229 0;
#X connect 229 0 228 0;
#X connect 230 0 227 0;
#X connect 231 0 230 0;
#X connect 232 0 230 0;
#X connect 233 0 230 0;
#X connect 234 0 230 0;
#X connect 235 0 236 0;
#X connect 235 1 238 0;
#X connect 238 0 237 0;
#X connect 240 0 239 0;
#X connect 241 0 127 0;
#X connect 241 0 234 0;
#X connect 241 1 126 0;
#X connect 241 1 124 0;
#X connect 242 0 127 0;
#X connect 242 0 233 0;
#X connect 242 1 131 0;
#X connect 242 1 124 0;
#X connect 243 0 127 0;
#X connect 243 0 232 0;
#X connect 243 1 132 0;
#X connect 243 1 366 0;
#X connect 244 0 127 0;
#X connect 244 0 231 0;
#X connect 244 1 133 0;
#X connect 244 1 124 0;
#X connect 245 0 246 0;
#X connect 246 0 254 0;
#X connect 246 1 255 0;
#X connect 247 0 245 2;
#X connect 248 0 245 0;
#X connect 249 1 376 0;
#X connect 250 0 194 0;
#X connect 251 0 252 0;
#X connect 251 1 252 1;
#X connect 252 0 364 0;
#X connect 253 0 250 0;
#X connect 254 0 168 0;
#X connect 254 1 256 0;
#X connect 255 0 119 0;
#X connect 255 1 257 0;
#X connect 256 0 253 1;
#X connect 257 0 253 1;
#X connect 259 0 15 0;
#X connect 260 0 261 1;
#X connect 260 0 262 1;
#X connect 260 0 306 1;
#X connect 260 0 263 1;
#X connect 260 0 312 1;
#X connect 260 0 259 1;
#X connect 260 0 403 1;
#X connect 261 0 1 0;
#X connect 262 0 0 0;
#X connect 263 0 7 0;
#X connect 264 0 265 1;
#X connect 265 0 33 0;
#X connect 266 0 110 0;
#X connect 267 0 266 1;
#X connect 267 0 268 1;
#X connect 267 0 269 1;
#X connect 267 0 270 1;
#X connect 267 0 271 1;
#X connect 268 0 114 0;
#X connect 269 0 116 0;
#X connect 270 0 109 0;
#X connect 271 0 111 0;
#X connect 272 0 247 0;
#X connect 273 0 272 1;
#X connect 274 0 75 0;
#X connect 275 0 274 1;
#X connect 275 0 276 1;
#X connect 275 0 277 1;
#X connect 275 0 278 1;
#X connect 275 0 279 1;
#X connect 275 0 280 1;
#X connect 275 0 281 1;
#X connect 276 0 79 0;
#X connect 277 0 63 0;
#X connect 278 0 70 0;
#X connect 279 0 89 0;
#X connect 280 0 93 0;
#X connect 281 0 95 0;
#X connect 287 0 248 0;
#X connect 287 1 120 0;
#X connect 287 2 121 0;
#X connect 287 3 122 0;
#X connect 290 0 263 0;
#X connect 291 0 259 0;
#X connect 292 0 261 0;
#X connect 293 0 262 0;
#X connect 294 0 265 0;
#X connect 295 0 297 0;
#X connect 296 0 299 0;
#X connect 297 0 296 0;
#X connect 298 0 297 1;
#X connect 298 0 385 1;
#X connect 299 0 41 0;
#X connect 300 0 40 0;
#X connect 301 0 36 0;
#X connect 302 0 46 0;
#X connect 303 0 55 0;
#X connect 304 0 54 0;
#X connect 305 0 306 0;
#X connect 306 0 6 0;
#X connect 311 0 312 0;
#X connect 312 0 10 0;
#X connect 312 0 347 0;
#X connect 314 0 316 1;
#X connect 315 0 316 2;
#X connect 317 0 316 0;
#X connect 318 0 319 1;
#X connect 320 0 319 2;
#X connect 321 0 319 0;
#X connect 322 0 26 0;
#X connect 322 0 399 0;
#X connect 323 0 16 0;
#X connect 323 0 235 0;
#X connect 324 0 323 0;
#X connect 326 0 11 0;
#X connect 326 0 223 0;
#X connect 327 0 328 0;
#X connect 328 0 329 0;
#X connect 329 0 42 0;
#X connect 330 0 329 1;
#X connect 330 1 42 1;
#X connect 331 0 337 0;
#X connect 334 0 333 0;
#X connect 335 0 284 0;
#X connect 336 0 520 0;
#X connect 336 0 22 0;
#X connect 336 0 19 0;
#X connect 336 0 18 0;
#X connect 337 0 21 0;
#X connect 337 0 334 0;
#X connect 338 0 342 0;
#X connect 340 0 339 2;
#X connect 341 0 339 1;
#X connect 342 0 345 0;
#X connect 342 0 351 0;
#X connect 343 0 340 0;
#X connect 343 0 341 0;
#X connect 344 0 521 0;
#X connect 345 0 521 0;
#X connect 346 0 27 0;
#X connect 346 0 28 0;
#X connect 347 0 240 0;
#X connect 347 0 29 0;
#X connect 347 0 523 0;
#X connect 348 0 320 0;
#X connect 348 0 318 0;
#X connect 349 0 315 0;
#X connect 349 0 314 0;
#X connect 350 0 24 0;
#X connect 350 0 25 0;
#X connect 351 0 344 0;
#X connect 352 0 317 0;
#X connect 353 0 222 0;
#X connect 354 0 221 0;
#X connect 355 0 266 0;
#X connect 356 0 268 0;
#X connect 357 0 160 2;
#X connect 358 0 271 0;
#X connect 359 0 270 0;
#X connect 360 0 362 0;
#X connect 362 0 363 0;
#X connect 363 0 361 0;
#X connect 363 1 365 0;
#X connect 364 0 360 0;
#X connect 365 0 361 0;
#X connect 366 0 283 2;
#X connect 367 0 272 0;
#X connect 368 0 274 0;
#X connect 369 0 276 0;
#X connect 370 0 277 0;
#X connect 371 0 278 0;
#X connect 372 0 279 0;
#X connect 373 0 280 0;
#X connect 374 0 281 0;
#X connect 375 0 106 0;
#X connect 375 0 105 0;
#X connect 376 1 272 0;
#X connect 383 0 392 0;
#X connect 383 0 393 0;
#X connect 383 1 382 0;
#X connect 384 0 385 0;
#X connect 385 0 386 0;
#X connect 386 0 387 0;
#X connect 386 1 388 0;
#X connect 387 0 40 0;
#X connect 387 0 398 0;
#X connect 387 0 515 0;
#X connect 388 0 329 0;
#X connect 388 0 397 0;
#X connect 388 0 517 0;
#X connect 389 0 390 0;
#X connect 390 0 398 0;
#X connect 390 0 36 0;
#X connect 390 0 391 0;
#X connect 390 0 515 0;
#X connect 391 0 397 0;
#X connect 391 0 388 0;
#X connect 393 0 289 0;
#X connect 393 0 377 0;
#X connect 397 0 394 0;
#X connect 397 0 396 0;
#X connect 398 0 395 0;
#X connect 401 0 400 0;
#X connect 402 0 403 0;
#X connect 403 0 404 0;
#X connect 404 0 326 0;
#X connect 405 0 12 0;
#X connect 407 0 321 0;
#X connect 407 1 332 0;
#X connect 408 0 407 0;
#X connect 409 0 424 0;
#X connect 409 0 425 0;
#X connect 409 0 423 0;
#X connect 409 0 426 0;
#X connect 409 0 427 0;
#X connect 409 0 428 0;
#X connect 409 0 429 0;
#X connect 412 0 421 0;
#X connect 412 1 413 0;
#X connect 413 0 411 1;
#X connect 414 0 417 0;
#X connect 415 0 419 0;
#X connect 416 0 415 1;
#X connect 416 0 418 1;
#X connect 416 0 417 1;
#X connect 416 0 445 1;
#X connect 416 0 442 1;
#X connect 416 0 451 1;
#X connect 416 0 448 1;
#X connect 416 0 437 1;
#X connect 416 0 458 1;
#X connect 416 0 455 1;
#X connect 416 0 464 1;
#X connect 416 0 461 1;
#X connect 416 0 472 1;
#X connect 416 0 469 1;
#X connect 417 0 422 0;
#X connect 418 0 412 0;
#X connect 419 0 499 0;
#X connect 420 0 418 0;
#X connect 421 0 411 0;
#X connect 421 0 527 0;
#X connect 422 0 410 0;
#X connect 423 0 411 2;
#X connect 423 0 410 1;
#X connect 423 0 454 0;
#X connect 424 0 430 1;
#X connect 425 0 431 1;
#X connect 426 0 432 1;
#X connect 427 0 433 1;
#X connect 428 0 434 1;
#X connect 429 0 435 1;
#X connect 430 0 410 1;
#X connect 430 0 411 2;
#X connect 430 0 454 0;
#X connect 431 0 410 1;
#X connect 431 0 411 2;
#X connect 431 0 454 0;
#X connect 432 0 410 1;
#X connect 432 0 411 2;
#X connect 432 0 454 0;
#X connect 433 0 410 1;
#X connect 433 0 411 2;
#X connect 433 0 454 0;
#X connect 434 0 410 1;
#X connect 434 0 411 2;
#X connect 434 0 454 0;
#X connect 435 0 410 1;
#X connect 435 0 411 2;
#X connect 435 0 454 0;
#X connect 436 0 412 0;
#X connect 436 1 430 0;
#X connect 436 1 529 0;
#X connect 437 0 438 0;
#X connect 438 0 498 0;
#X connect 439 0 526 0;
#X connect 439 1 430 0;
#X connect 439 1 528 0;
#X connect 441 0 422 0;
#X connect 442 0 443 0;
#X connect 443 0 501 0;
#X connect 444 0 412 0;
#X connect 444 1 431 0;
#X connect 444 1 531 0;
#X connect 445 0 446 0;
#X connect 446 0 500 0;
#X connect 447 0 526 0;
#X connect 447 1 431 0;
#X connect 447 1 530 0;
#X connect 448 0 449 0;
#X connect 449 0 503 0;
#X connect 450 0 412 0;
#X connect 450 1 432 0;
#X connect 450 1 533 0;
#X connect 451 0 452 0;
#X connect 452 0 502 0;
#X connect 453 0 526 0;
#X connect 453 1 432 0;
#X connect 453 1 532 0;
#X connect 455 0 456 0;
#X connect 456 0 505 0;
#X connect 457 0 412 0;
#X connect 457 1 433 0;
#X connect 457 1 535 0;
#X connect 458 0 459 0;
#X connect 459 0 504 0;
#X connect 460 0 526 0;
#X connect 460 1 433 0;
#X connect 460 1 534 0;
#X connect 461 0 462 0;
#X connect 462 0 561 0;
#X connect 462 0 463 0;
#X connect 463 0 412 0;
#X connect 463 1 434 0;
#X connect 463 1 537 0;
#X connect 464 0 465 0;
#X connect 465 0 466 0;
#X connect 465 0 560 0;
#X connect 466 0 526 0;
#X connect 466 1 434 0;
#X connect 466 1 536 0;
#X connect 469 0 470 0;
#X connect 470 0 471 0;
#X connect 470 0 563 0;
#X connect 471 0 412 0;
#X connect 471 1 435 0;
#X connect 471 1 539 0;
#X connect 472 0 473 0;
#X connect 473 0 562 0;
#X connect 473 0 474 0;
#X connect 474 0 526 0;
#X connect 474 1 435 0;
#X connect 474 1 538 0;
#X connect 477 0 76 0;
#X connect 478 0 477 0;
#X connect 479 0 482 0;
#X connect 480 0 478 0;
#X connect 481 0 80 0;
#X connect 482 0 481 0;
#X connect 483 0 218 0;
#X connect 484 0 485 0;
#X connect 485 0 483 0;
#X connect 486 0 71 0;
#X connect 487 0 486 0;
#X connect 488 0 487 0;
#X connect 489 0 490 0;
#X connect 490 0 491 0;
#X connect 491 0 91 0;
#X connect 492 0 99 0;
#X connect 493 0 492 0;
#X connect 494 0 493 0;
#X connect 495 0 497 0;
#X connect 496 0 101 0;
#X connect 497 0 496 0;
#X connect 498 0 439 0;
#X connect 498 0 552 0;
#X connect 499 0 436 0;
#X connect 499 0 553 0;
#X connect 500 0 447 0;
#X connect 500 0 554 0;
#X connect 501 0 444 0;
#X connect 501 0 555 0;
#X connect 502 0 453 0;
#X connect 502 0 556 0;
#X connect 503 0 450 0;
#X connect 503 0 557 0;
#X connect 504 0 460 0;
#X connect 504 0 558 0;
#X connect 505 0 457 0;
#X connect 505 0 559 0;
#X connect 506 0 498 0;
#X connect 506 0 499 0;
#X connect 506 0 500 0;
#X connect 506 0 501 0;
#X connect 506 0 502 0;
#X connect 506 0 503 0;
#X connect 506 0 504 0;
#X connect 506 0 505 0;
#X connect 507 0 508 0;
#X connect 508 0 506 0;
#X connect 509 0 510 0;
#X connect 512 0 519 0;
#X connect 512 0 513 0;
#X connect 513 0 511 1;
#X connect 514 0 512 0;
#X connect 515 0 516 0;
#X connect 516 0 511 0;
#X connect 517 0 516 0;
#X connect 519 0 511 2;
#X connect 520 0 284 2;
#X connect 521 0 339 0;
#X connect 522 0 521 1;
#X connect 523 0 30 0;
#X connect 526 0 441 0;
#X connect 526 0 524 0;
#X connect 528 0 525 0;
#X connect 529 0 525 0;
#X connect 530 0 525 0;
#X connect 531 0 525 0;
#X connect 532 0 525 0;
#X connect 533 0 525 0;
#X connect 534 0 525 0;
#X connect 535 0 525 0;
#X connect 536 0 525 0;
#X connect 537 0 525 0;
#X connect 538 0 525 0;
#X connect 539 0 525 0;
#X connect 552 0 540 0;
#X connect 553 0 541 0;
#X connect 554 0 542 0;
#X connect 555 0 543 0;
#X connect 556 0 544 0;
#X connect 557 0 545 0;
#X connect 558 0 546 0;
#X connect 559 0 547 0;
#X connect 560 0 548 0;
#X connect 561 0 549 0;
#X connect 562 0 550 0;
#X connect 563 0 551 0;
#X connect 564 0 565 1;
#X connect 564 0 570 1;
#X connect 564 0 575 1;
#X connect 564 0 579 1;
#X connect 564 0 588 1;
#X connect 564 0 592 1;
#X connect 564 0 596 1;
#X connect 564 0 611 1;
#X connect 565 0 566 0;
#X connect 566 0 569 0;
#X connect 568 0 566 0;
#X connect 569 0 622 0;
#X connect 569 0 567 0;
#X connect 569 0 610 0;
#X connect 570 0 571 0;
#X connect 571 0 573 0;
#X connect 572 0 571 0;
#X connect 573 0 623 0;
#X connect 573 0 583 0;
#X connect 573 0 610 0;
#X connect 575 0 576 0;
#X connect 576 0 578 0;
#X connect 577 0 576 0;
#X connect 578 0 624 0;
#X connect 578 0 584 0;
#X connect 578 0 610 0;
#X connect 579 0 580 0;
#X connect 580 0 582 0;
#X connect 581 0 580 0;
#X connect 582 0 625 0;
#X connect 582 0 585 0;
#X connect 582 0 610 0;
#X connect 588 0 589 0;
#X connect 589 0 591 0;
#X connect 590 0 589 0;
#X connect 591 0 626 0;
#X connect 591 0 603 0;
#X connect 591 0 610 0;
#X connect 592 0 593 0;
#X connect 593 0 595 0;
#X connect 594 0 593 0;
#X connect 595 0 627 0;
#X connect 595 0 604 0;
#X connect 595 0 610 0;
#X connect 596 0 597 0;
#X connect 597 0 599 0;
#X connect 598 0 597 0;
#X connect 599 0 628 0;
#X connect 599 0 605 0;
#X connect 599 0 610 0;
#X connect 606 0 568 0;
#X connect 606 0 572 0;
#X connect 606 0 577 0;
#X connect 606 0 581 0;
#X connect 606 0 590 0;
#X connect 606 0 598 0;
#X connect 606 0 594 0;
#X connect 606 0 613 0;
#X connect 607 0 606 0;
#X connect 610 0 640 0;
#X connect 611 0 612 0;
#X connect 612 0 614 0;
#X connect 613 0 612 0;
#X connect 614 0 629 0;
#X connect 614 0 616 0;
#X connect 614 0 610 0;
#X connect 617 0 618 0;
#X connect 618 0 634 0;
#X connect 619 0 641 0;
#X connect 620 0 619 5;
#X connect 621 0 619 0;
#X connect 622 0 633 0;
#X connect 623 0 633 0;
#X connect 624 0 633 0;
#X connect 625 0 633 0;
#X connect 626 0 633 0;
#X connect 627 0 633 0;
#X connect 628 0 633 0;
#X connect 629 0 633 0;
#X connect 630 0 619 1;
#X connect 631 0 619 2;
#X connect 632 0 619 3;
#X connect 633 0 621 0;
#X connect 633 0 630 0;
#X connect 633 0 631 0;
#X connect 633 0 632 0;
#X connect 633 0 637 0;
#X connect 634 0 620 0;
#X connect 635 0 619 4;
#X connect 636 0 638 0;
#X connect 637 0 636 0;
#X connect 638 0 635 0;
#X connect 639 0 608 0;
#X connect 640 0 609 0;
#X connect 641 0 639 0;
#X connect 643 0 652 0;
#X connect 644 0 655 0;
#X connect 645 0 650 0;
#X connect 646 0 649 0;
#X connect 647 0 645 0;
#X connect 649 0 654 0;
#X connect 650 0 646 0;
#X connect 650 0 662 0;
#X connect 650 1 651 0;
#X connect 651 0 662 0;
#X connect 652 0 645 1;
#X connect 653 0 654 0;
#X connect 654 0 648 0;
#X connect 655 0 647 0;
#X connect 662 0 653 0;
