#N canvas 2086 1142 995 612 12;
#X obj 42 37 inlet;
#X msg 130 438 240 0 32 107 127 66 4 2 96 1;
#X obj 308 213 list fromsymbol;
#X obj 130 477 list append;
#X obj 130 549 list append;
#X obj 184 213 list fromsymbol;
#X obj 184 150 tosymbol;
#X obj 166 37 inlet;
#X obj 308 150 tosymbol;
#X obj 42 78 t b anything;
#X obj 166 78 t b anything;
#X obj 179 838 r midich_ctl;
#X obj 184 243 zl filter 92;
#X obj 308 243 zl filter 92;
#X obj 430 162 outlet;
#X obj 522 162 outlet;
#X obj 430 129 list tosymbol;
#X obj 522 129 list tosymbol;
#X msg 1328 148 240 0 32 107 127 66 2 2 64 106 33 247;
#X obj 1328 112 loadbang;
#X text 1408 118 init the screen;
#X text 1256 320 240 0 32 107 127 66 4 2 96 31 7 1 pict1 pict2 1 0 1 str1 0 2 str2 0 247;
#X text 1256 365 240 0 32 107 127 66 4 2 96 31 control_byte autohide_byte value 0 0 1 str1 0 2 str2 0 247, f 75;
#X text 1258 410 240 0 32 107 127 66 4 2 96 31 6 autohide_byte pos 0 length 0 0 1 str1 0 2 str2 0 247, f 73;
#X text 1256 277 240 0 32 107 127 66 4 2 96 1 str1 0 2 str2 247;
#X text 1256 255 left_text;
#X text 1254 346 param_info;
#X text 1256 393 scroll_text;
#X obj 130 727 selector 4, f 155;
#X obj 1186 111 inlet;
#X obj 1235 112 nbx 4 18 -1e+37 1e+37 0 0 empty empty empty 0 -8 0 10 #191919 #e1e1e1 #e1e1e1 0 256;
#X obj 1186 150 i;
#X obj 1186 184 nbx 4 18 -1e+37 1e+37 0 0 empty empty empty 0 -8 0 10 #191919 #e1e1e1 #e1e1e1 0 256;
#X obj 1205 670 loadmess 0;
#X obj 398 559 list append;
#X obj 398 605 list append;
#X obj 130 513 list append 0 2;
#X obj 130 585 list append 247;
#X obj 398 582 list append 0 2;
#X obj 398 628 list append 0 247;
#X obj 454 311 inlet;
#X msg 398 435 240 0 32 107 127 66 4 2 96 31 7 1;
#X obj 398 465 list append 0;
#X obj 398 499 list append 0;
#X obj 454 396 unpack f f;
#X text 493 267 emotes;
#X text 493 284 0 none \; 1 heart \; 2 play \; 3 rec \; 4 armed \; 5 shift;
#X obj 398 533 list append 1 0 1;
#X obj 130 391 bng 25 250 50 0 empty empty empty 17 7 0 10 #191919 #e1e1e1 #e1e1e1;
#X obj 398 390 bng 25 250 50 0 empty empty empty 17 7 0 10 #191919 #e1e1e1 #e1e1e1;
#X obj 1422 184 r midich_ctl;
#X obj 1205 617 bng 29 250 50 0 empty empty empty 17 7 0 10 #191919 #e1e1e1 #e1e1e1;
#X msg 660 434 240 0 32 107 127 66 4 2 96 31;
#X text 1256 299 centred text;
#X obj 660 482 list append 2;
#X obj 751 305 tgl 25 0 empty empty autohide 17 7 0 10 #191919 #e1e1e1 #e1e1e1 0 1;
#X obj 751 342 sel 1;
#X msg 753 368 2;
#X text 707 292 value;
#X obj 804 391 + 3;
#X floatatom 804 356 5 0 0 2 control\ type - - 12;
#X floatatom 751 397 5 0 0 0 - - - 12;
#X text 847 353 1 knob \; 2 fader \; 3 pad;
#X obj 804 268 inlet;
#X obj 751 268 inlet;
#X obj 660 458 list append 3;
#X obj 660 562 list append;
#X obj 660 586 list append 0 2;
#X obj 660 539 list append 0 0 1;
#X text 743 562 str1;
#X obj 660 611 list append;
#X text 733 603 str2;
#X obj 660 633 list append 0 247;
#X obj 660 510 list append 0;
#X obj 660 393 bng 25 250 50 0 empty empty empty 17 7 0 10 #191919 #e1e1e1 #e1e1e1;
#X obj 695 268 inlet;
#X obj 695 393 i;
#X floatatom 648 268 5 0 0 0 - - - 12;
#X msg 906 434 240 0 32 107 127 66 4 2 96 31 6;
#X obj 906 391 bng 25 250 50 0 empty empty empty 17 7 0 10 #191919 #e1e1e1 #e1e1e1;
#X obj 42 349 bng 25 250 50 0 empty empty empty 17 7 0 10 #191919 #e1e1e1 #e1e1e1;
#X obj 308 285 s ml3.text.line.a;
#X obj 184 285 s ml3.text.line.b;
#X obj 244 513 r ml3.text.line.b;
#X obj 244 477 r ml3.text.line.a;
#X obj 526 575 r ml3.text.line.b;
#X obj 526 611 r ml3.text.line.a;
#X obj 784 610 r ml3.text.line.b;
#X obj 784 563 r ml3.text.line.a;
#X text 398 753 centred text;
#X text 155 753 left text;
#X text 659 753 param info;
#X text 921 753 scroll text;
#X obj 906 458 list append 2;
#X obj 906 483 list append 0;
#X obj 906 506 list append 0;
#X obj 906 532 list append 0;
#X obj 957 268 inlet;
#X obj 957 391 i;
#X text 978 290 length;
#X obj 906 556 list append 0 0 1;
#X obj 906 579 list append;
#X obj 906 603 list append 0 2;
#X obj 906 626 list append;
#X obj 906 653 list append 0 247;
#X obj 1030 626 r ml3.text.line.b;
#X obj 1030 579 r ml3.text.line.a;
#X obj 454 342 list;
#X obj 184 177 symbol;
#X obj 308 184 symbol;
#X obj 1329 184 midiout 33;
#X obj 130 874 midiout 33;
#X connect 0 0 9 0;
#X connect 1 0 3 0;
#X connect 2 0 13 0;
#X connect 3 0 36 0;
#X connect 4 0 37 0;
#X connect 5 0 12 0;
#X connect 6 0 108 0;
#X connect 7 0 10 0;
#X connect 8 0 109 0;
#X connect 9 0 80 0;
#X connect 9 1 6 0;
#X connect 10 0 80 0;
#X connect 10 1 8 0;
#X connect 11 0 111 1;
#X connect 12 0 16 0;
#X connect 12 0 82 0;
#X connect 13 0 17 0;
#X connect 13 0 81 0;
#X connect 16 0 14 0;
#X connect 17 0 15 0;
#X connect 18 0 110 0;
#X connect 19 0 18 0;
#X connect 28 0 111 0;
#X connect 29 0 31 0;
#X connect 30 0 31 1;
#X connect 31 0 32 0;
#X connect 32 0 28 4;
#X connect 33 0 28 4;
#X connect 34 0 38 0;
#X connect 35 0 39 0;
#X connect 36 0 4 0;
#X connect 37 0 28 0;
#X connect 38 0 35 0;
#X connect 39 0 28 1;
#X connect 40 0 107 0;
#X connect 41 0 42 0;
#X connect 42 0 43 0;
#X connect 43 0 47 0;
#X connect 44 0 42 1;
#X connect 44 1 43 1;
#X connect 47 0 34 0;
#X connect 48 0 1 0;
#X connect 49 0 41 0;
#X connect 50 0 110 1;
#X connect 51 0 33 0;
#X connect 52 0 65 0;
#X connect 54 0 73 0;
#X connect 55 0 56 0;
#X connect 56 0 57 0;
#X connect 56 1 61 0;
#X connect 57 0 61 0;
#X connect 59 0 65 1;
#X connect 60 0 59 0;
#X connect 61 0 54 1;
#X connect 61 0 93 1;
#X connect 63 0 60 0;
#X connect 64 0 55 0;
#X connect 65 0 54 0;
#X connect 66 0 67 0;
#X connect 67 0 70 0;
#X connect 68 0 66 0;
#X connect 70 0 72 0;
#X connect 72 0 28 2;
#X connect 73 0 68 0;
#X connect 74 0 52 0;
#X connect 75 0 76 0;
#X connect 76 0 73 1;
#X connect 76 0 94 1;
#X connect 77 0 76 0;
#X connect 78 0 93 0;
#X connect 79 0 78 0;
#X connect 80 0 48 0;
#X connect 80 0 49 0;
#X connect 80 0 74 0;
#X connect 80 0 79 0;
#X connect 83 0 4 1;
#X connect 84 0 3 1;
#X connect 85 0 34 1;
#X connect 86 0 35 1;
#X connect 87 0 70 1;
#X connect 88 0 66 1;
#X connect 93 0 94 0;
#X connect 94 0 95 0;
#X connect 95 0 96 0;
#X connect 96 0 100 0;
#X connect 97 0 98 0;
#X connect 98 0 96 1;
#X connect 100 0 101 0;
#X connect 101 0 102 0;
#X connect 102 0 103 0;
#X connect 103 0 104 0;
#X connect 104 0 28 3;
#X connect 105 0 103 1;
#X connect 106 0 101 1;
#X connect 107 0 44 0;
#X connect 108 0 5 0;
#X connect 109 0 2 0;
