#N canvas 2086 1142 995 612 12;
#X obj 492 141 inlet;
#X msg 84 251 240 0 32 107 127 66 4 2 96 1;
#X msg 306 251 0 2;
#X obj 430 339 list fromsymbol;
#X obj 113 411 list append;
#X obj 113 447 list append;
#X obj 113 483 list append;
#X obj 565 359 list fromsymbol;
#X obj 113 555 midiout 3;
#X obj 355 143 t b b;
#X obj 113 519 list append;
#X msg 350 251 247;
#X msg 44 69 240 0 32 107 127 66 2 2 64 106 33 247;
#X obj 44 33 loadbang;
#X obj 430 303 symbol;
#X obj 485 184 tosymbol;
#X obj 569 141 inlet;
#X obj 565 323 symbol;
#X obj 562 184 tosymbol;
#X obj 45 110 midiout 3;
#X text 113 12 required for init ml3_text put it somewhere in your master patch;
#X obj 353 108 inlet;
#X connect 0 0 15 0;
#X connect 1 0 4 0;
#X connect 2 0 5 1;
#X connect 3 0 4 1;
#X connect 4 0 5 0;
#X connect 5 0 6 0;
#X connect 6 0 10 0;
#X connect 7 0 6 1;
#X connect 9 0 1 0;
#X connect 9 1 2 0;
#X connect 9 1 11 0;
#X connect 9 1 14 0;
#X connect 9 1 17 0;
#X connect 10 0 8 0;
#X connect 11 0 10 1;
#X connect 13 0 12 0;
#X connect 14 0 3 0;
#X connect 15 0 14 0;
#X connect 16 0 18 0;
#X connect 17 0 7 0;
#X connect 18 0 17 0;
#X connect 21 0 9 0;
