#N canvas 2086 1142 995 612 12;
#X obj 423 63 inlet;
#X msg 88 251 240 0 32 107 127 66 4 2 96 1;
#X msg 306 251 0 2;
#X obj 572 355 list fromsymbol;
#X obj 113 411 list append;
#X obj 113 447 list append;
#X obj 113 483 list append;
#X obj 448 355 list fromsymbol;
#X obj 355 143 t b b;
#X obj 113 519 list append;
#X msg 350 251 247;
#X obj 572 319 symbol;
#X obj 479 184 tosymbol;
#X obj 513 63 inlet;
#X obj 448 319 symbol;
#X obj 565 184 tosymbol;
#X obj 423 104 t b anything;
#X obj 513 104 t b anything;
#X obj 210 519 r midich_ctl;
#X obj 113 555 midiout 3;
#X connect 0 0 16 0;
#X connect 1 0 4 0;
#X connect 2 0 5 1;
#X connect 3 0 4 1;
#X connect 4 0 5 0;
#X connect 5 0 6 0;
#X connect 6 0 9 0;
#X connect 7 0 6 1;
#X connect 8 0 1 0;
#X connect 8 1 2 0;
#X connect 8 1 10 0;
#X connect 9 0 19 0;
#X connect 10 0 9 1;
#X connect 11 0 3 0;
#X connect 12 0 14 0;
#X connect 13 0 17 0;
#X connect 14 0 7 0;
#X connect 15 0 11 0;
#X connect 16 0 8 0;
#X connect 16 1 12 0;
#X connect 17 0 8 0;
#X connect 17 1 15 0;
#X connect 18 0 19 1;
