#N canvas 827 239 275 250 12;
#X obj -2 -3 cnv 15 296 261 empty empty empty 20 12 0 14 #130f19 #e1ce9c 0;
#X obj 170 406 ctlin 42;
#X obj 228 406 ctlin 43;
#X obj 285 406 ctlin 44;
#X text 183 374 cc 42-44 is 1-300 bpm;
#X obj 228 447 + 128;
#X obj 285 447 + 256;
#X obj 228 505 i;
#X obj 228 546 + 1;
#X floatatom 228 580 5 0 0 0 incoming\ tempo\ cc - - 12;
#X msg 402 621 create;
#X obj 297 546 loadbang;
#X obj 299 668 param tempo_cc 120;
#X msg 297 621 range 20 666;
#X text 76 620 Currently this min/max tempo range is optimised for Bitwig. It may need to be adjusted for other DAWs., f 29;
#X obj 564 373 ctlin 45;
#X obj 1291 365 ctlin 47;
#X obj 988 356 ctlin 46;
#X text 727 400 seg ID \, MD & MnM bank IDs;
#X obj 988 401 + 1;
#X obj 1291 410 + 1;
#N canvas 733 172 450 300 pgm2bank 0;
#X obj 436 305 zl lookup A01 A02 A03 A04 A05 A06 A07 A08 A09 A10 A11 A12 A13 A14 A15 A16 B01 B02 B03 B04 B05 B06 B07 B08 B09 B10 B11 B12 B13 B14 B15 B16 C01 C02 C03 C04 C05 C06 C07 C08 C09 C10 C11 C12 C13 C14 C15 C16 D01 D02 D03 D04 D05 D06 D07 D08 D09 D10 D11 D12 D13 D14 D15 D16 E01 E02 E03 E04 E05 E06 E07 E08 E09 E10 E11 E12 E13 E14 E15 E16 F01 F02 F03 F04 F05 F06 F07 F08 F09 F10 F11 F12 F13 F14 F15 F16 G01 G02 G03 G04 G05 G06 G07 G08 G09 G10 G11 G12 G13 G14 G15 G16 H01 H02 H03 H04 H05 H06 H07 H08 H09 H10 H11 H12 H13 H14 H15 H16;
#X obj 436 273 inlet;
#X obj 436 469 outlet;
#X connect 0 0 2 0;
#X connect 1 0 0 0;
#X restore 1291 524 pd pgm2bank;
#X obj 564 418 + 1;
#X floatatom 564 454 4 0 0 0 seg_id - - 16;
#X obj 988 487 - 1;
#X floatatom 988 449 5 0 0 0 md - - 12;
#X obj 1291 487 - 1;
#X floatatom 1291 449 5 0 0 0 mm - - 12;
#X symbolatom 137 69 12 0 0 0 - mm_bank_label - 16;
#X obj 1291 605 tosymbol;
#X obj 1291 568 list prepend MM;
#N canvas 733 172 450 300 pgm2bank 0;
#X obj 436 305 zl lookup A01 A02 A03 A04 A05 A06 A07 A08 A09 A10 A11 A12 A13 A14 A15 A16 B01 B02 B03 B04 B05 B06 B07 B08 B09 B10 B11 B12 B13 B14 B15 B16 C01 C02 C03 C04 C05 C06 C07 C08 C09 C10 C11 C12 C13 C14 C15 C16 D01 D02 D03 D04 D05 D06 D07 D08 D09 D10 D11 D12 D13 D14 D15 D16 E01 E02 E03 E04 E05 E06 E07 E08 E09 E10 E11 E12 E13 E14 E15 E16 F01 F02 F03 F04 F05 F06 F07 F08 F09 F10 F11 F12 F13 F14 F15 F16 G01 G02 G03 G04 G05 G06 G07 G08 G09 G10 G11 G12 G13 G14 G15 G16 H01 H02 H03 H04 H05 H06 H07 H08 H09 H10 H11 H12 H13 H14 H15 H16;
#X obj 436 273 inlet;
#X obj 436 469 outlet;
#X connect 0 0 2 0;
#X connect 1 0 0 0;
#X restore 988 524 pd pgm2bank;
#X symbolatom 12 69 12 0 0 0 - md_bank_label - 16;
#X obj 988 605 tosymbol;
#X obj 988 568 list prepend MD;
#X obj 496 601 param seg_id_cc;
#X obj 833 580 param md_pgm_cc;
#X msg 555 540 create;
#X msg 472 540 range 1 128;
#X obj 472 479 loadbang;
#X msg 916 524 create;
#X msg 833 524 range 1 128;
#X obj 833 464 loadbang;
#X msg 1209 508 create;
#X msg 1126 508 range 1 128;
#X obj 1126 436 loadbang;
#X obj 988 640 s md_bank_label;
#X obj 1291 640 s mm_bank_label;
#X symbolatom 137 43 12 0 0 0 - seg_id_label - 16;
#X obj 657 586 s seg_id_label;
#X obj 657 552 tosymbol;
#X obj 657 518 list prepend #;
#X obj 107 744 tosymbol;
#X obj 107 710 list append bpm;
#X obj 107 778 s tempo_label;
#X symbolatom 12 43 12 0 0 0 - tempo_label - 16;
#X text 12 8 emsys helper, f 12;
#X text 6 103 Place this patch on an empty MIDI track in your chosen DAW \, arm it \, and set incoming MIDI to Ch 13, f 37;
#X text 6 164 Automation data will be written as the "tempo_cc" parameter \, which can be copied to the Tempo automation lane on the Master track., f 37;
#X obj 1126 568 param mm_pgm_cc;
#X obj 297 594 del 25;
#X obj 472 518 del 25;
#X obj 833 498 del 25;
#X obj 1126 479 del 25;
#X connect 1 0 7 0;
#X connect 2 0 5 0;
#X connect 3 0 6 0;
#X connect 5 0 7 0;
#X connect 6 0 7 0;
#X connect 7 0 8 0;
#X connect 8 0 9 0;
#X connect 9 0 12 0;
#X connect 9 0 53 0;
#X connect 10 0 12 0;
#X connect 11 0 10 0;
#X connect 11 0 60 0;
#X connect 13 0 12 0;
#X connect 15 0 22 0;
#X connect 16 0 20 0;
#X connect 17 0 19 0;
#X connect 19 0 25 0;
#X connect 20 0 27 0;
#X connect 21 0 30 0;
#X connect 22 0 23 0;
#X connect 23 0 35 0;
#X connect 23 0 51 0;
#X connect 24 0 31 0;
#X connect 25 0 24 0;
#X connect 25 0 36 0;
#X connect 26 0 21 0;
#X connect 27 0 26 0;
#X connect 27 0 59 0;
#X connect 29 0 47 0;
#X connect 30 0 29 0;
#X connect 31 0 34 0;
#X connect 33 0 46 0;
#X connect 34 0 33 0;
#X connect 37 0 35 0;
#X connect 38 0 35 0;
#X connect 39 0 37 0;
#X connect 39 0 61 0;
#X connect 40 0 36 0;
#X connect 41 0 36 0;
#X connect 42 0 40 0;
#X connect 42 0 62 0;
#X connect 43 0 59 0;
#X connect 44 0 59 0;
#X connect 45 0 63 0;
#X connect 45 0 43 0;
#X connect 50 0 49 0;
#X connect 51 0 50 0;
#X connect 52 0 54 0;
#X connect 53 0 52 0;
#X connect 60 0 13 0;
#X connect 61 0 38 0;
#X connect 62 0 41 0;
#X connect 63 0 44 0;
