#N canvas 827 239 734 565 12;
#X obj 122 78 ctlin 42;
#X obj 180 78 ctlin 43;
#X obj 237 78 ctlin 44;
#X text 135 47 cc 42-44 is 1-300 bpm;
#X obj 180 119 + 128;
#X obj 237 119 + 256;
#X obj 180 177 i;
#X obj 180 218 + 1;
#X floatatom 180 252 5 0 0 0 incoming\ tempo\ cc - - 12;
#X msg 354 293 create;
#X obj 311 218 loadbang;
#X obj 251 340 param tempo_cc 120;
#X msg 249 293 range 20 666;
#X text 322 71 Place this patch on an empty MIDI track in your chosen DAW \, arm it \, and set incoming MIDI to Ch 13 Automation data will be written as the "tempo_cc" parameter \, which can be copied to the Tempo automation lane on the Master track., f 50;
#X text 28 292 Currently this min/max tempo range is optimised for Bitwig. It may need to be adjusted for other DAWs., f 29;
#X obj 485 224 ctlin 45;
#X obj 619 224 ctlin 47;
#X obj 551 224 ctlin 46;
#X text 501 194 seg ID \, MD & MnM bank IDs;
#X connect 0 0 6 0;
#X connect 1 0 4 0;
#X connect 2 0 5 0;
#X connect 4 0 6 0;
#X connect 5 0 6 0;
#X connect 6 0 7 0;
#X connect 7 0 8 0;
#X connect 8 0 11 0;
#X connect 9 0 11 0;
#X connect 10 0 12 0;
#X connect 10 0 9 0;
#X connect 12 0 11 0;
