#N canvas 827 239 527 327 12;
#X obj 77 155 bng 25 250 50 0 empty empty empty 17 7 0 10 #191919 #e1e1e1 #e1e1e1;
#X obj 78 313 fromsymbol;
#X obj 78 221 rm_char 92;
#X obj 77 261 rm_char 59;
#X obj 88 386 list trim;
#X obj 85 353 list split 2;
#X obj 160 354 list;
#X obj 746 71 r scmgr.startup-100ms;
#X obj 686 67 bng 25 250 50 0 empty empty empty 17 7 0 10 #191919 #e1e1e1 #e1e1e1;
#X obj 560 70 bng 25 250 50 0 empty empty empty 17 7 0 10 #191919 #e1e1e1 #e1e1e1;
#X obj 685 38 r boot.write_conf;
#X obj 665 327 bng 25 250 50 0 empty empty empty 17 7 0 10 #191919 #e1e1e1 #e1e1e1;
#X obj 230 289 tosymbol;
#X obj 231 326 t b s;
#X symbolatom 224 376 21 0 0 0 - - - 12;
#X obj 93 431 route symbol;
#X symbolatom 665 525 32 0 0 0 - - - 16;
#X obj 734 443 tosymbol;
#X obj 79 70 loadmess bang;
#X obj 80 33 bng 25 250 50 0 empty empty empty 17 7 0 10 #191919 #e1e1e1 #e1e1e1;
#X obj 91 486 s _boot.GetParam;
#X obj 730 394 return boot.GetParam mset;
#X obj 235 252 r boot.GetParamFromConf;
#X obj 419 256 r boot.GetParam;
#X obj 420 302 tosymbol;
#X obj 419 338 t b s;
#X symbolatom 412 388 21 0 0 0 - - - 12;
#X symbolatom 1014 519 31 0 0 0 - - - 16;
#X obj 218 483 s _boot.GetParamFromConf;
#X obj 561 235 text define bootparams;
#X obj 77 190 text tolist bootparams;
#X obj 190 154 s boot.read_conf;
#X obj 561 36 r boot.read_conf;
#X msg 711 119 write boot.conf;
#X msg 561 118 read boot.conf;
#X msg 931 183 read boot.conf.example;
#X obj 907 41 r boot.reset_conf;
#X obj 908 105 t, f 8;
#X obj 905 148 s boot.write_conf;
#X obj 909 74 bng 25 250 50 0 empty empty empty 17 7 0 10 #191919 #e1e1e1 #e1e1e1;
#X obj 87 648 bng 25 250 50 0 empty empty empty 17 7 0 10 #191919 #e1e1e1 #e1e1e1;
#X obj 87 828 fromsymbol;
#X obj 87 765 rm_char 92;
#X obj 86 795 rm_char 59;
#X obj 97 901 list trim;
#X obj 94 868 list split 2;
#X obj 169 869 list;
#X obj 97 962 route symbol;
#X symbolatom 447 902 8 0 0 0 - - - 16;
#X obj 87 683 text tolist bootparams;
#X obj 397 604 r boot.SetParam;
#X obj 79 100 t, f 19;
#X obj 544 837 zl nth 2;
#X obj 95 1069 list prepend symbol;
#X obj 445 864 tosymbol;
#X obj 446 838 zl nth 1;
#X obj 543 866 tosymbol;
#X symbolatom 544 901 8 0 0 0 - - - 16;
#X obj 98 1035 symbol;
#X obj 97 990 bng 21 250 50 0 empty empty empty 17 7 0 10 #191919 #e1e1e1 #e1e1e1;
#X obj 804 346 s boot.SetParam;
#X obj 396 634 prepend list;
#X msg 803 303 mset test1.mset;
#X obj 152 1124 zl group 2, f 22;
#X obj 181 791 text delete bootparams;
#X msg 184 762 -1;
#X msg 512 176 click;
#X msg 337 1079 zlclear;
#X obj 397 671 t b b l l, f 22;
#X obj 152 1350 prepend list;
#X obj 156 1447 s boot.write_conf;
#X obj 233 759 text size bootparams;
#X obj 160 1300 zl group;
#X obj 85 718 t l b b, f 25;
#X floatatom 233 841 5 0 0 0 - - - 12;
#X obj 192 1419 text fromlist bootparams;
#X obj 118 1220 list append \\\;;
#X obj 116 1190 prepend list;
#X obj 226 897 * 3;
#X obj 155 1385 t b l, f 8;
#X text 401 990 kind of ridiculous but it works based on param labels rather than where it appears in the list, f 23;
#X obj 732 420 route mset;
#X obj 709 478 symbol;
#X obj 674 372 t;
#X obj 981 317 bng 25 250 50 0 empty empty empty 17 7 0 10 #191919 #e1e1e1 #e1e1e1;
#X obj 1050 433 tosymbol;
#X obj 1025 468 symbol;
#X obj 990 362 t;
#X obj 1046 384 return boot.GetParamFromConf path;
#X obj 1048 410 route path;
#X obj 745 595 bng 25 250 50 0 empty empty empty 17 7 0 10 #191919 #e1e1e1 #e1e1e1;
#X obj 754 640 t;
#X obj 810 670 return boot.GetParamFromConf env.defaults.dev;
#X obj 765 862 f;
#X obj 765 895 tgl 25 0 empty empty empty 17 7 0 10 #191919 #e1e1e1 #e1e1e1 0 1;
#X obj 813 706 route env.defaults.dev;
#X obj 813 732 tosymbol;
#X obj 815 762 fromsymbol;
#X obj 1161 716 s boot.SetParam;
#X msg 1160 673 env.defaults.dev \$1;
#X obj 1154 598 tgl 25 0 empty empty empty 17 7 0 10 #191919 #e1e1e1 #e1e1e1 0 1;
#X obj 1146 637 t b f;
#X obj 799 813 routetype float;
#X connect 0 0 30 0;
#X connect 1 0 5 0;
#X connect 2 0 3 0;
#X connect 3 0 1 0;
#X connect 4 0 15 0;
#X connect 5 0 4 0;
#X connect 5 1 6 0;
#X connect 6 0 5 0;
#X connect 7 0 34 0;
#X connect 8 0 33 0;
#X connect 9 0 34 0;
#X connect 10 0 8 0;
#X connect 11 0 83 0;
#X connect 12 0 13 0;
#X connect 13 0 51 0;
#X connect 13 1 14 0;
#X connect 14 0 15 1;
#X connect 15 0 20 0;
#X connect 15 0 28 0;
#X connect 17 0 82 1;
#X connect 18 0 51 0;
#X connect 19 0 18 0;
#X connect 21 0 81 0;
#X connect 22 0 12 0;
#X connect 23 0 24 0;
#X connect 24 0 25 0;
#X connect 25 0 0 0;
#X connect 25 1 26 0;
#X connect 26 0 15 1;
#X connect 30 0 2 0;
#X connect 32 0 9 0;
#X connect 33 0 29 0;
#X connect 34 0 29 0;
#X connect 35 0 29 0;
#X connect 36 0 39 0;
#X connect 37 0 38 0;
#X connect 37 1 35 0;
#X connect 39 0 37 0;
#X connect 40 0 49 0;
#X connect 41 0 45 0;
#X connect 42 0 43 0;
#X connect 43 0 41 0;
#X connect 44 0 47 0;
#X connect 45 0 44 0;
#X connect 45 1 46 0;
#X connect 46 0 45 0;
#X connect 47 0 59 0;
#X connect 47 1 63 0;
#X connect 48 0 47 1;
#X connect 48 0 53 1;
#X connect 49 0 73 0;
#X connect 50 0 61 0;
#X connect 51 0 0 0;
#X connect 51 1 31 0;
#X connect 52 0 56 0;
#X connect 53 0 63 0;
#X connect 54 0 48 0;
#X connect 55 0 54 0;
#X connect 56 0 57 0;
#X connect 57 0 58 1;
#X connect 58 0 53 0;
#X connect 59 0 58 0;
#X connect 61 0 68 0;
#X connect 62 0 60 0;
#X connect 63 0 77 0;
#X connect 65 0 64 0;
#X connect 66 0 29 0;
#X connect 67 0 63 0;
#X connect 67 0 72 0;
#X connect 68 0 40 0;
#X connect 68 1 67 0;
#X connect 68 2 55 0;
#X connect 68 3 52 0;
#X connect 69 0 79 0;
#X connect 71 0 74 0;
#X connect 72 0 69 0;
#X connect 73 0 42 0;
#X connect 73 1 65 0;
#X connect 73 2 71 0;
#X connect 74 0 78 0;
#X connect 76 0 72 0;
#X connect 77 0 76 0;
#X connect 78 0 72 1;
#X connect 79 0 70 0;
#X connect 79 1 75 0;
#X connect 81 0 17 0;
#X connect 82 0 16 0;
#X connect 83 0 82 0;
#X connect 83 1 21 0;
#X connect 84 0 87 0;
#X connect 85 0 86 1;
#X connect 86 0 27 0;
#X connect 87 0 86 0;
#X connect 87 1 88 0;
#X connect 88 0 89 0;
#X connect 89 0 85 0;
#X connect 90 0 91 0;
#X connect 91 0 93 0;
#X connect 91 1 92 0;
#X connect 92 0 95 0;
#X connect 93 0 94 0;
#X connect 95 0 96 0;
#X connect 96 0 97 0;
#X connect 97 0 102 0;
#X connect 99 0 98 0;
#X connect 100 0 101 0;
#X connect 101 0 90 0;
#X connect 101 1 99 0;
#X connect 102 0 93 1;
