#N canvas 827 239 527 327 12;
#X obj 653 46 bng 25 250 50 0 empty empty empty 17 7 0 10 #191919 #e1e1e1 #e1e1e1;
#X obj 653 17 loadbang;
#X obj 222 693 s midich_mnm_notes;
#X obj 362 693 s midich_md_notes;
#X obj 384 112 route 248;
#X obj 450 201 i;
#X obj 384 140 bng 25 250 50 0 empty empty empty 17 7 0 10 #191919 #e1e1e1 #e1e1e1;
#X obj 428 140 bng 25 250 50 0 empty empty empty 17 7 0 10 #191919 #e1e1e1 #e1e1e1;
#X obj 450 239 change;
#X obj 450 313 s midich_clock;
#X obj 521 130 r midich_clock_learn;
#X msg 500 201 set -1;
#X obj 521 164 bng 25 250 50 0 empty empty empty 17 7 0 10 #191919 #e1e1e1 #e1e1e1;
#X obj 450 274 nbx 4 20 -1e+37 1e+37 0 0 empty empty empty 0 -8 0 10 #191919 #e1e1e1 #e1e1e1 0 256;
#X obj 384 74 midirealtimein, f 17;
#X obj 702 317 s midich_ml3;
#X obj 763 69 r midich_ctl_learn;
#X text 521 57 dynamically assign clock midi ch, f 12;
#X obj 366 490 nbx 4 18 -1e+37 1e+37 0 0 empty empty empty 0 -8 0 10 #191919 #e1e1e1 #e1e1e1 0 256;
#X obj 366 416 / 16;
#X obj 366 454 i;
#X obj 366 562 * 16;
#X obj 326 602 +;
#X msg 325 562 11;
#X obj 326 643 nbx 4 18 -1e+37 1e+37 0 0 empty empty empty 0 -8 0 10 #191919 #e1e1e1 #e1e1e1 0 256;
#X obj 211 353 t b f, f 8;
#X obj 276 602 +;
#X obj 264 643 nbx 4 18 -1e+37 1e+37 0 0 empty empty empty 0 -8 0 10 #191919 #e1e1e1 #e1e1e1 0 256;
#X msg 276 562 9;
#X obj 366 524 + 1;
#X obj 186 60 r midich_elek_learn;
#X msg 204 562 15;
#X obj 211 602 +;
#X obj 199 643 nbx 4 18 -1e+37 1e+37 0 0 empty empty empty 0 -8 0 10 #191919 #e1e1e1 #e1e1e1 0 256;
#X obj 151 602 +;
#X obj 139 643 nbx 4 18 -1e+37 1e+37 0 0 empty empty empty 0 -8 0 10 #191919 #e1e1e1 #e1e1e1 0 256;
#X msg 144 562 16;
#X obj 60 693 s midich_mnm_pgm;
#X obj 185 724 s midich_md_pgm;
#X obj 419 562 * 16;
#X obj 36 735 s midich_mnm_sysex;
#X obj 222 759 s midich_md_sysex;
#X text 84 42 get elektron midich from MD trig input, f 13;
#X obj 903 358 s midich_ml3_pads;
#X obj 950 111 bng 25 250 50 0 empty empty learn 17 7 0 10 #191919 #e1e1e1 #e1e1e1;
#X obj 949 77 r midich_ctlpads_learn;
#X floatatom 682 165 5 0 0 0 - - - 12;
#X floatatom 725 162 5 0 0 0 - - - 12;
#X obj 682 200 sel 27;
#X obj 716 254 i;
#X obj 767 126 bng 25 250 50 0 empty empty learn 17 7 0 10 #191919 #e1e1e1 #e1e1e1;
#X floatatom 717 286 5 0 0 0 - - - 12;
#X obj 681 131 ctl.in;
#X floatatom 906 175 5 0 0 0 - - - 12;
#X obj 903 285 i;
#X floatatom 905 326 5 0 0 0 - - - 12;
#X obj 852 142 note.in, f 10;
#X obj 850 175 nbx 4 18 -1e+37 1e+37 0 0 empty empty empty 0 -8 0 10 #191919 #e1e1e1 #e1e1e1 0 256;
#X obj 815 453 s scmgr.GlobalSettingsDo;
#X msg 815 419 learn.ml3padmidi;
#X obj 813 375 bng 25 250 50 0 empty empty empty 17 7 0 10 #191919 #e1e1e1 #e1e1e1;
#X floatatom 154 149 5 0 0 0 - - - 12;
#X floatatom 197 146 5 0 0 0 - - - 12;
#X obj 187 272 i;
#X obj 239 110 bng 25 250 50 0 empty empty learn 17 7 0 10 #191919 #e1e1e1 #e1e1e1;
#X floatatom 188 298 5 0 0 0 - - - 12;
#X obj 153 115 ctl.in;
#X obj 169 231 onebang 0;
#X obj 684 226 onebang 0;
#X obj 876 241 onebang 0;
#X obj 851 206 bng 25 250 50 0 empty empty empty 17 7 0 10 #191919 #e1e1e1 #e1e1e1;
#X obj 810 346 pipe 1000;
#X obj 798 306 onebang 0;
#X text 393 640 bug: playing in notes is broken on Pi currently;
#X text 22 619 bug: mnm pgm is in fact ch64 on pi, f 14;
#X connect 0 0 12 0;
#X connect 0 0 50 0;
#X connect 0 0 72 1;
#X connect 1 0 0 0;
#X connect 4 0 6 0;
#X connect 4 1 7 0;
#X connect 5 0 8 0;
#X connect 6 0 5 0;
#X connect 8 0 13 0;
#X connect 10 0 12 0;
#X connect 11 0 8 0;
#X connect 12 0 11 0;
#X connect 13 0 9 0;
#X connect 14 0 4 0;
#X connect 14 1 5 1;
#X connect 16 0 50 0;
#X connect 18 0 29 0;
#X connect 18 0 39 0;
#X connect 19 0 20 0;
#X connect 20 0 18 0;
#X connect 21 0 22 1;
#X connect 21 0 26 1;
#X connect 21 0 32 1;
#X connect 22 0 24 0;
#X connect 23 0 22 0;
#X connect 24 0 3 0;
#X connect 25 0 28 0;
#X connect 25 0 23 0;
#X connect 25 0 31 0;
#X connect 25 0 36 0;
#X connect 25 1 19 0;
#X connect 26 0 27 0;
#X connect 27 0 2 0;
#X connect 28 0 26 0;
#X connect 29 0 21 0;
#X connect 30 0 64 0;
#X connect 31 0 32 0;
#X connect 32 0 33 0;
#X connect 33 0 38 0;
#X connect 33 0 41 0;
#X connect 34 0 35 0;
#X connect 35 0 37 0;
#X connect 35 0 40 0;
#X connect 36 0 34 0;
#X connect 39 0 34 1;
#X connect 44 0 69 1;
#X connect 45 0 44 0;
#X connect 46 0 48 0;
#X connect 47 0 49 1;
#X connect 48 0 68 0;
#X connect 49 0 51 0;
#X connect 50 0 68 1;
#X connect 51 0 15 0;
#X connect 51 0 72 0;
#X connect 52 1 46 0;
#X connect 52 2 47 0;
#X connect 53 0 54 1;
#X connect 54 0 55 0;
#X connect 55 0 43 0;
#X connect 56 0 57 0;
#X connect 56 1 53 0;
#X connect 57 0 70 0;
#X connect 59 0 58 0;
#X connect 60 0 59 0;
#X connect 61 0 67 0;
#X connect 62 0 63 1;
#X connect 63 0 65 0;
#X connect 64 0 67 1;
#X connect 65 0 25 0;
#X connect 66 1 61 0;
#X connect 66 2 62 0;
#X connect 67 0 63 0;
#X connect 68 0 49 0;
#X connect 69 0 54 0;
#X connect 70 0 69 0;
#X connect 71 0 60 0;
#X connect 72 0 71 0;
