#N canvas 733 172 450 300 get_pair 1;
#X obj 761 310 return boot.GetParam env.defaults.dev;
#X obj 763 336 route env.defaults.dev;
#X obj 710 466 f;
#X obj 770 371 tosymbol;
#X obj 772 401 fromsymbol;
#X obj 773 432 routetype float;
#X obj 711 213 t b b s;
#X obj 710 161 tosymbol;
#X obj 711 506 list prepend;
#X obj 711 542 route list;
#X obj 708 105 inlet;
#X obj 706 583 outlet;
#X connect 0 0 1 0;
#X connect 1 0 3 0;
#X connect 2 0 8 0;
#X connect 3 0 4 0;
#X connect 4 0 5 0;
#X connect 5 0 2 1;
#X connect 6 0 2 0;
#X connect 6 1 0 0;
#X connect 6 2 8 1;
#X connect 6 2 0 1;
#X connect 6 2 1 1;
#X connect 7 0 6 0;
#X connect 8 0 9 0;
#X connect 9 0 11 0;
#X connect 10 0 7 0;
