#N canvas 827 239 527 327 12;
#X obj 653 46 bng 25 250 50 0 empty empty empty 17 7 0 10 #191919 #e1e1e1 #e1e1e1;
#X obj 653 17 loadbang;
#X obj 222 693 s midich_mnm_notes;
#X obj 362 693 s midich_md_notes;
#X obj 384 112 route 248;
#X obj 450 201 i;
#X obj 384 140 bng 25 250 50 0 empty empty empty 17 7 0 10 #191919 #e1e1e1 #e1e1e1;
#X obj 428 140 bng 25 250 50 0 empty empty empty 17 7 0 10 #191919 #e1e1e1 #e1e1e1;
#X obj 450 239 change;
#X obj 450 313 s midich_clock;
#X obj 521 130 r midich_clock_learn;
#X msg 500 201 set -1;
#X obj 521 164 bng 25 250 50 0 empty empty empty 17 7 0 10 #191919 #e1e1e1 #e1e1e1;
#X obj 450 274 nbx 4 20 -1e+37 1e+37 0 0 empty empty empty 0 -8 0 10 #191919 #e1e1e1 #e1e1e1 0 256;
#X obj 384 74 midirealtimein, f 17;
#X obj 755 216 nbx 4 18 -1e+37 1e+37 0 0 empty empty empty 0 -8 0 10 #191919 #e1e1e1 #e1e1e1 0 256;
#X obj 711 121 bng 25 250 50 0 empty empty empty 17 7 0 10 #191919 #e1e1e1 #e1e1e1;
#X msg 755 184 \$2;
#X obj 810 216 bng 25 250 50 0 empty empty empty 17 7 0 10 #191919 #e1e1e1 #e1e1e1;
#X obj 711 155 midi.learn;
#A saved notein 26;
#X obj 755 245 s midich_ml3;
#X obj 711 89 r midich_ctl_learn;
#X text 521 58 dynamically assign clock midi ch, f 12;
#X obj 167 257 midi.learn;
#A saved notein 26;
#X obj 167 215 bng 25 250 50 0 empty empty empty 17 7 0 10 #191919 #e1e1e1 #e1e1e1;
#X obj 211 323 nbx 4 18 -1e+37 1e+37 0 0 empty empty empty 0 -8 0 10 #191919 #e1e1e1 #e1e1e1 0 256;
#X msg 211 292 \$1;
#X obj 366 490 nbx 4 18 -1e+37 1e+37 0 0 empty empty empty 0 -8 0 10 #191919 #e1e1e1 #e1e1e1 0 256;
#X obj 366 416 / 16;
#X obj 366 454 i;
#X obj 366 562 * 16;
#X obj 326 602 +;
#X msg 325 562 11;
#X obj 326 643 nbx 4 18 -1e+37 1e+37 0 0 empty empty empty 0 -8 0 10 #191919 #e1e1e1 #e1e1e1 0 256;
#X obj 211 353 t b f, f 8;
#X obj 276 602 +;
#X obj 264 643 nbx 4 18 -1e+37 1e+37 0 0 empty empty empty 0 -8 0 10 #191919 #e1e1e1 #e1e1e1 0 256;
#X msg 276 562 9;
#X obj 366 524 + 1;
#X obj 167 183 r midich_elek_learn;
#X msg 204 562 15;
#X obj 211 602 +;
#X obj 199 643 nbx 4 18 -1e+37 1e+37 0 0 empty empty empty 0 -8 0 10 #191919 #e1e1e1 #e1e1e1 0 256;
#X obj 151 602 +;
#X obj 139 643 nbx 4 18 -1e+37 1e+37 0 0 empty empty empty 0 -8 0 10 #191919 #e1e1e1 #e1e1e1 0 256;
#X msg 144 562 16;
#X obj 60 693 s midich_mnm_pgm;
#X obj 185 724 s midich_md_pgm;
#X obj 419 562 * 16;
#X obj 36 735 s midich_mnm_sysex;
#X obj 222 759 s midich_md_sysex;
#X text 182 31 todo: the em_midisetup.py script needs to be reconfigured to try and match the default plugdata config as best as possible, f 24;
#X text 794 109 dynamically assign correct ml3 midi channel on boot. default was usually 33 (port 3 ch1), f 17;
#X text 211 203 get elektron midich from MD trig input, f 13;
#X text 33 31 todo: these need ways to be triggered externally \, probably with ml3. UI feedback would be good too, f 20;
#X connect 0 0 16 0;
#X connect 0 0 12 0;
#X connect 1 0 0 0;
#X connect 4 0 6 0;
#X connect 4 1 7 0;
#X connect 5 0 8 0;
#X connect 6 0 5 0;
#X connect 8 0 13 0;
#X connect 10 0 12 0;
#X connect 11 0 8 0;
#X connect 12 0 11 0;
#X connect 13 0 9 0;
#X connect 14 0 4 0;
#X connect 14 1 5 1;
#X connect 15 0 20 0;
#X connect 16 0 19 0;
#X connect 17 0 15 0;
#X connect 17 0 18 0;
#X connect 19 1 17 0;
#X connect 21 0 16 0;
#X connect 23 1 26 0;
#X connect 24 0 23 0;
#X connect 25 0 34 0;
#X connect 26 0 25 0;
#X connect 27 0 38 0;
#X connect 27 0 48 0;
#X connect 28 0 29 0;
#X connect 29 0 27 0;
#X connect 30 0 31 1;
#X connect 30 0 35 1;
#X connect 30 0 41 1;
#X connect 31 0 33 0;
#X connect 32 0 31 0;
#X connect 33 0 3 0;
#X connect 34 0 37 0;
#X connect 34 0 32 0;
#X connect 34 0 40 0;
#X connect 34 0 45 0;
#X connect 34 1 28 0;
#X connect 35 0 36 0;
#X connect 36 0 2 0;
#X connect 37 0 35 0;
#X connect 38 0 30 0;
#X connect 39 0 24 0;
#X connect 40 0 41 0;
#X connect 41 0 42 0;
#X connect 42 0 47 0;
#X connect 42 0 50 0;
#X connect 43 0 44 0;
#X connect 44 0 46 0;
#X connect 44 0 49 0;
#X connect 45 0 43 0;
#X connect 48 0 43 1;
