#N canvas 733 172 450 300 12;
#X obj 710 466 f;
#X obj 770 371 tosymbol;
#X obj 772 401 fromsymbol;
#X obj 773 432 routetype float;
#X obj 711 213 t b b s;
#X obj 710 161 tosymbol;
#X obj 711 506 list prepend;
#X obj 711 542 route list;
#X obj 708 105 inlet;
#X obj 706 583 outlet;
#X obj 761 310 return boot.GetParam example;
#X obj 763 336 route example;
#X connect 0 0 6 0;
#X connect 1 0 2 0;
#X connect 2 0 3 0;
#X connect 3 0 0 1;
#X connect 4 0 0 0;
#X connect 4 1 10 0;
#X connect 4 2 6 1;
#X connect 4 2 10 1;
#X connect 4 2 11 1;
#X connect 5 0 4 0;
#X connect 6 0 7 0;
#X connect 7 0 9 0;
#X connect 8 0 5 0;
#X connect 10 0 11 0;
#X connect 11 0 1 0;
