#N canvas 1548 1067 1151 649 12;
#X obj 358 192 tosymbol;
#X obj 358 223 list fromsymbol;
#X obj 358 315 list tosymbol;
#X obj 395 350 list tosymbol;
#X obj 395 486 i;
#X obj 395 381 fromsymbol;
#X obj 358 486 i;
#X obj 358 528 +, f 8;
#X msg 361 445 0;
#X msg 417 445 16;
#X msg 483 445 32;
#X msg 547 445 48;
#X msg 608 445 64;
#X msg 673 445 80;
#X msg 734 445 96;
#X msg 799 445 112;
#X obj 358 572 outlet;
#X obj 358 152 inlet;
#X obj 358 416 sel A a B b C c D d E e F f G g H h, f 75;
#X obj 208 402 print error;
#X msg 208 373 invalid_pgm_value;
#X obj 211 344 b;
#X obj 194 313 sel 3;
#X obj 358 280 zl slice 1, f 12;
#X obj 194 280 zl len;
#X connect 0 0 1 0;
#X connect 1 0 23 0;
#X connect 1 0 24 0;
#X connect 2 0 18 0;
#X connect 3 0 5 0;
#X connect 4 0 7 1;
#X connect 5 0 4 0;
#X connect 6 0 7 0;
#X connect 7 0 16 0;
#X connect 8 0 6 0;
#X connect 9 0 6 0;
#X connect 10 0 6 0;
#X connect 11 0 6 0;
#X connect 12 0 6 0;
#X connect 13 0 6 0;
#X connect 14 0 6 0;
#X connect 15 0 6 0;
#X connect 17 0 0 0;
#X connect 18 0 8 0;
#X connect 18 1 8 0;
#X connect 18 2 9 0;
#X connect 18 3 9 0;
#X connect 18 4 10 0;
#X connect 18 5 10 0;
#X connect 18 6 11 0;
#X connect 18 7 11 0;
#X connect 18 8 12 0;
#X connect 18 9 12 0;
#X connect 18 10 13 0;
#X connect 18 11 13 0;
#X connect 18 12 14 0;
#X connect 18 13 14 0;
#X connect 18 14 15 0;
#X connect 18 15 15 0;
#X connect 20 0 19 0;
#X connect 21 0 20 0;
#X connect 22 1 21 0;
#X connect 23 0 2 0;
#X connect 23 1 3 0;
#X connect 24 0 22 0;
