#N canvas 2014 1208 450 300 12;
#X obj 51 147 *~ 0;
#X obj 81 113 line;
#X obj 118 53 bng 20 250 50 0 empty empty empty 0 -10 0 12 #fcfcfc #000000 #000000;
#X obj 50 83 saw~ \$1;
#X obj 49 200 outlet~;
#X obj 118 18 inlet;
#X msg 115 81 1 \, 0 100;
#X connect 0 0 4 0;
#X connect 1 0 0 1;
#X connect 2 0 6 0;
#X connect 3 0 0 0;
#X connect 5 0 2 0;
#X connect 6 0 1 0;
