#N canvas 827 239 527 327 12;
#X obj 188 223 list fromsymbol;
#X obj 188 324 list tosymbol;
#X obj 188 199 tosymbol;
#X obj 188 168 inlet;
#X obj 187 354 outlet;
#X obj 190 287 list append \$2;
#X obj 191 253 list prepend \$1;
#X connect 0 0 6 0;
#X connect 1 0 4 0;
#X connect 2 0 0 0;
#X connect 3 0 2 0;
#X connect 5 0 1 0;
#X connect 6 0 5 0;
