#N canvas 1861 1262 450 300 12;
#X obj 105 199 print \$1;
#X obj 84 81 inlet;
#X obj 86 113 tosymbol;
#X obj 180 83 inlet;
#X obj 67 159 gate 0;
#X connect 1 0 2 0;
#X connect 2 0 4 1;
#X connect 3 0 4 0;
#X connect 4 0 0 0;
