#N canvas 733 172 450 300 12;
#X obj 128 144 i;
#X obj 176 233 expr if($f1>=126 \, 126 \, if($f1 <-1 \, 1 \, $f1));
#X obj 141 181 t f f, f 9;
#X obj 202 337 t;
#X obj 239 337 t;
#X msg 253 371 1;
#X msg 214 371 -1;
#X obj 214 412 accum;
#X msg 285 371 0;
#X obj 139 454 +;
#X floatatom 184 266 5 0 0 0 - - - 12;
#X obj 214 299 route 0 126;
#X obj 139 693 < 0;
#X obj 139 654 -;
#X obj 139 517 change;
#X obj 139 618 t f f;
#X floatatom 142 579 5 0 0 0 - - - 12;
#X obj 27 88 inlet;
#X obj 117 844 f;
#X obj 162 847 f;
#X obj 172 902 - 1;
#X obj 217 901 + 1;
#X obj 172 769 bng 25 250 50 0 empty empty empty 17 7 0 10 #191919 #e1e1e1 #e1e1e1;
#X obj 133 771 bng 25 250 50 0 empty empty empty 17 7 0 10 #191919 #e1e1e1 #e1e1e1;
#X obj 139 742 sel 1 0, f 13;
#X obj 190 951 min \$2;
#X obj 190 984 max \$1;
#X obj 108 1099 outlet;
#X floatatom 108 1007 5 0 0 0 - - - 12;
#X text 209 79 set = set value \; bang = bang current value \; float = convert to endless;
#X obj 17 790 route set bang;
#X obj 47 902 i;
#X connect 0 0 2 0;
#X connect 1 0 10 0;
#X connect 2 0 9 0;
#X connect 2 1 1 0;
#X connect 3 0 7 0;
#X connect 3 1 6 0;
#X connect 4 0 7 0;
#X connect 4 1 5 0;
#X connect 5 0 7 1;
#X connect 6 0 7 1;
#X connect 7 0 9 1;
#X connect 8 0 7 2;
#X connect 9 0 14 0;
#X connect 10 0 11 0;
#X connect 11 0 3 0;
#X connect 11 1 4 0;
#X connect 12 0 24 0;
#X connect 13 0 12 0;
#X connect 14 0 16 0;
#X connect 15 0 13 1;
#X connect 15 1 13 0;
#X connect 16 0 15 0;
#X connect 17 0 30 0;
#X connect 18 0 20 0;
#X connect 19 0 21 0;
#X connect 20 0 25 0;
#X connect 21 0 25 0;
#X connect 22 0 19 0;
#X connect 23 0 18 0;
#X connect 24 0 23 0;
#X connect 24 1 22 0;
#X connect 25 0 26 0;
#X connect 26 0 28 0;
#X connect 28 0 19 1;
#X connect 28 0 18 1;
#X connect 28 0 27 0;
#X connect 28 0 31 1;
#X connect 30 0 18 1;
#X connect 30 0 19 1;
#X connect 30 0 31 1;
#X connect 30 1 31 0;
#X connect 30 2 0 0;
#X connect 31 0 28 0;
