#N canvas 827 239 527 327 12;
#X obj 164 135 inlet;
#X obj 189 512 outlet;
#X obj 168 250 random 25;
#X obj 167 281 + 97;
#X floatatom 167 318 5 0 0 0 - - - 12;
#X obj 167 174 bng 25 250 50 0 empty empty empty 17 7 0 10 #191919 #e1e1e1 #e1e1e1;
#X obj 165 389 list tosymbol;
#X obj 169 354 list;
#X obj 169 214 uzi 4, f 11;
#X obj 167 418 zl group 4, f 21;
#X obj 169 454 rm_char 32;
#X obj 255 102 loadmess \$1;
#X obj 255 141 i;
#X text 295 136 number of chars;
#X connect 0 0 5 0;
#X connect 2 0 3 0;
#X connect 3 0 4 0;
#X connect 4 0 7 0;
#X connect 5 0 8 0;
#X connect 6 0 9 0;
#X connect 7 0 6 0;
#X connect 8 0 2 0;
#X connect 9 0 10 0;
#X connect 10 0 1 0;
#X connect 11 0 12 0;
#X connect 12 0 8 1;
#X connect 12 0 9 1;
