#N canvas 0 0 876 713 10;
#X obj 264 218 until;
#X obj 264 241 f, f 7;
#X obj 324 242 + 1;
#X obj 264 264 t f f, f 20;
#X msg 264 287 get \$1 1;
#X obj 264 310 list store, f 16;
#X obj 303 218 0;
#X obj 264 333 route list float;
#X obj 125 148 route bang list;
#X obj 393 116 inlet;
#X obj 264 436 outlet;
#X obj 125 116 inlet;
#N canvas 0 0 876 713 \$0math 0;
#X obj 10 10 r 1009s;
#X obj 10 200 s 1009r;
#X obj 10 100 expr if($f1 == 3\\\, $f1 * 5\\\, $f1 * 3);
#X connect 0 0 2 0;
#X connect 2 0 1 0;
#X restore 453 196 pd \$0math;
#X obj 312 390 r \$0r;
#X obj 453 240 loadbang;
#X msg 453 263 args 0;
#X obj 453 286 pdcontrol;
#X msg 634 347 clear;
#X obj 500 441 list prepend obj 10 100;
#X obj 500 464 list trim;
#X msg 567 417 obj 10 200 s \$1r;
#X msg 594 394 obj 10 10 r \$1s;
#X obj 312 356 s \$0s;
#X obj 567 347 \$0;
#X obj 567 370 t f f;
#X obj 433 324 t b a b b, f 34;
#X obj 567 556 s pd-\$0math;
#X msg 433 488 connect 0 0 2 0 \, connect 2 0 1 0;
#X obj 393 171 route list set;
#X obj 264 194 t b b, f 7;
#X obj 168 171 t b b a, f 32;
#X obj 125 176 t b b;
#X obj 312 413 list prepend;
#X msg 312 436 set \$1 \$2;
#X connect 0 0 1 0;
#X connect 1 0 2 0;
#X connect 1 0 3 0;
#X connect 2 0 1 1;
#X connect 3 0 4 0;
#X connect 3 1 32 1;
#X connect 4 0 5 0;
#X connect 5 0 7 0;
#X connect 5 1 0 1;
#X connect 6 0 1 1;
#X connect 7 0 10 0;
#X connect 7 1 22 0;
#X connect 7 2 32 0;
#X connect 8 0 31 0;
#X connect 8 1 30 0;
#X connect 9 0 28 0;
#X connect 11 0 8 0;
#X connect 13 0 32 0;
#X connect 14 0 15 0;
#X connect 15 0 16 0;
#X connect 16 0 25 0;
#X connect 17 0 26 0;
#X connect 18 0 19 0;
#X connect 19 0 26 0;
#X connect 20 0 26 0;
#X connect 21 0 26 0;
#X connect 23 0 24 0;
#X connect 24 0 20 0;
#X connect 24 1 21 0;
#X connect 25 0 27 0;
#X connect 25 1 18 0;
#X connect 25 2 23 0;
#X connect 25 3 17 0;
#X connect 27 0 26 0;
#X connect 28 0 5 1;
#X connect 28 1 25 0;
#X connect 29 0 0 0;
#X connect 29 1 6 0;
#X connect 30 0 5 0;
#X connect 30 1 29 0;
#X connect 30 2 5 1;
#X connect 31 0 5 0;
#X connect 31 1 29 0;
#X connect 32 0 33 0;
#X connect 33 0 5 0;
