#N canvas 827 239 527 327 12;
#X obj 168 118 change;
#X obj 144 408 tgl 25 0 empty empty empty 17 7 0 10 #191919 #e1e1e1 #e1e1e1 0 1;
#X obj 148 497 bng 25 250 50 0 empty empty empty 17 7 0 10 #191919 #e1e1e1 #e1e1e1;
#X obj 137 570 f, f 23;
#X obj 137 611 change;
#X msg 145 196 1;
#X obj 130 152 t;
#X msg 122 198 0;
#X obj 121 232 t f b;
#X msg 145 265 clear;
#X obj 142 347 i;
#X obj 121 308 pipe 1000;
#X obj 145 382 change;
#X obj 144 65 inlet;
#X obj 137 658 outlet;
#X obj 144 464 metro \$1;
#X obj 265 63 inlet;
#X connect 0 0 6 0;
#X connect 0 0 3 1;
#X connect 1 0 15 0;
#X connect 2 0 3 0;
#X connect 3 0 4 0;
#X connect 4 0 14 0;
#X connect 5 0 10 0;
#X connect 6 0 7 0;
#X connect 6 1 5 0;
#X connect 7 0 8 0;
#X connect 8 0 11 0;
#X connect 8 1 9 0;
#X connect 9 0 11 0;
#X connect 10 0 12 0;
#X connect 11 0 10 0;
#X connect 12 0 1 0;
#X connect 13 0 0 0;
#X connect 15 0 2 0;
#X connect 16 0 15 1;
