#N canvas 733 172 450 300 12;
#X obj 105 93 list fromsymbol;
#X obj 111 248 list tosymbol;
#X obj 105 69 tosymbol;
#X obj 105 38 inlet;
#X obj 111 293 outlet;
#X obj 271 41 loadmess \$1;
#X obj 226 75 tosymbol;
#X obj 227 103 list fromsymbol;
#X obj 227 39 inlet;
#X obj 116 182 list prepend;
#X connect 0 0 9 0;
#X connect 1 0 4 0;
#X connect 2 0 0 0;
#X connect 3 0 2 0;
#X connect 5 0 6 0;
#X connect 6 0 7 0;
#X connect 7 0 9 1;
#X connect 8 0 6 0;
#X connect 9 0 1 0;
