#N canvas 827 239 527 327 12;
#X obj 151 187 s \$1;
#X obj 227 177 outlet;
#X obj 54 44 inlet;
#X obj 46 122 loadmess \$2;
#X obj 227 136 receiver;
#X obj 227 58 loadmess \$1;
#X obj 226 90 prepend_chars _;
#X text 45 244 first arg: send & receive name \; second arg: msg to send;
#X obj 151 44 inlet;
#X obj 48 82 bng 25 250 50 0 empty empty empty 17 7 0 10 #191919 #e1e1e1 #e1e1e1;
#X text 43 304 first inlet (anything): send msg in arg \$2 again \; second inlet (anything): send a different msg to send/receive;
#X text 42 360 in order to work \, it expects a send object and receive object pair where the receive's name is prepended with an underscore \; \; e.g. [s example] and [r _example];
#X connect 2 0 9 0;
#X connect 3 0 0 0;
#X connect 4 0 1 0;
#X connect 5 0 6 0;
#X connect 6 0 4 0;
#X connect 8 0 0 0;
#X connect 9 0 3 0;
