#N canvas 733 172 450 300 12;
#X obj 105 93 list fromsymbol;
#X obj 105 139 list tosymbol;
#X obj 105 69 tosymbol;
#X obj 105 38 inlet;
#X obj 105 118 zl filter \$1;
#X obj 105 184 outlet;
#X connect 0 0 4 0;
#X connect 1 0 5 0;
#X connect 2 0 0 0;
#X connect 3 0 2 0;
#X connect 4 0 1 0;
