#N canvas 733 172 450 300 (subpatch) 1;
#X obj 618 476 fromsymbol;
#X obj 618 433 symbol;
#X obj 667 393 tosymbol;
#X obj 618 393 inlet;
#X obj 667 362 inlet;
#X obj 747 393 inlet;
#X obj 618 517 outlet;
#X connect 0 0 6 0;
#X connect 1 0 0 0;
#X connect 2 0 1 0;
#X connect 3 0 1 0;
#X connect 4 0 2 0;
#X connect 5 0 1 1;
