#N canvas 733 172 450 300 12;
#X obj 618 476 fromsymbol;
#X obj 618 433 symbol;
#X obj 667 393 tosymbol;
#X obj 618 393 inlet;
#X obj 667 362 inlet;
#X obj 747 393 inlet;
#X obj 618 573 outlet;
#X obj 747 424 tosymbol;
#X obj 618 531 selector 2 \$1;
#X connect 0 0 8 0;
#X connect 1 0 0 0;
#X connect 1 0 8 1;
#X connect 2 0 1 0;
#X connect 3 0 1 0;
#X connect 4 0 2 0;
#X connect 5 0 7 0;
#X connect 7 0 1 1;
#X connect 8 0 6 0;
