#N canvas 733 172 450 300 12;
#X obj 97 328 spigot 0;
#X obj 122 239 tgl 25 0 empty empty empty 17 7 0 10 #191919 #e1e1e1 #e1e1e1 0 1;
#X obj 97 296 list;
#X obj 252 253 b;
#X obj 249 282 del;
#X obj 285 245 i;
#X obj 285 145 i;
#X obj 133 153 - 50;
#X msg 124 208 0;
#X obj 122 180 del;
#X msg 97 208 1;
#X obj 241 98 t b b b f;
#X obj 241 44 inlet;
#X obj 97 401 outlet;
#X obj 97 364 rm_char 32;
#X obj 285 208 / \$2;
#X obj 155 282 list append \$1;
#X connect 0 0 14 0;
#X connect 0 0 16 0;
#X connect 1 0 0 1;
#X connect 2 0 0 0;
#X connect 3 0 4 0;
#X connect 4 0 2 0;
#X connect 5 0 4 1;
#X connect 6 0 7 0;
#X connect 6 0 15 0;
#X connect 7 0 9 1;
#X connect 8 0 1 0;
#X connect 9 0 8 0;
#X connect 10 0 1 0;
#X connect 11 0 16 0;
#X connect 11 1 9 0;
#X connect 11 2 10 0;
#X connect 11 3 6 0;
#X connect 12 0 11 0;
#X connect 14 0 13 0;
#X connect 15 0 5 0;
#X connect 16 0 2 1;
#X connect 16 0 3 0;
