#N canvas 733 172 450 300 12;
#X obj 625 281 > 0;
#X obj 626 307 sel 1;
#X msg 619 332 127;
#X obj 620 362 i;
#X obj 624 237 inlet;
#X obj 621 441 outlet;
#X connect 0 0 1 0;
#X connect 1 0 2 0;
#X connect 1 1 3 0;
#X connect 2 0 3 0;
#X connect 3 0 5 0;
#X connect 4 0 0 0;
