#N canvas 1440 0 1600 836 12;
#X obj 239 194 loadbang;
#X obj 239 254 print sys;
#X msg 239 224 welcome;
#X obj 239 374 dac~, f 15;
#X obj 239 299 adc~ 3 4, f 15;
#X obj 376 224 tgl 31 0 debug_audio_ui_out debug_audio_ui 音 3 16 0 25 #191919 #00c5ff #d35cbf 0 1;
#X obj 329 344 xgate~ 1 250;
#X obj 239 344 xgate~ 1 250;
#X obj 434 344 loadmess 0;
#X obj 434 374 s debug_audio_ui;
#X obj 359 299 r debug_audio_ui_out;
#X obj 412 224 tgl 31 0 internal_clock_toggle empty 内 3 16 0 25 #ffffff #42ffe7 #000000 0 1;
#X obj 599 374 em.remote;
#X obj 455 224 bng 31 250 50 0 remote.reboot empty reboot 0 -6 0 10 #191919 #e1e1e1 #e1e1e1;
#X obj 599 314 r remote.reboot;
#X msg 599 344 reboot;
#X obj 543 224 bng 31 250 50 0 remote.reopen empty reopen 0 -6 0 10 #191919 #e1e1e1 #e1e1e1;
#X obj 704 314 r remote.reopen;
#X msg 704 344 reopen, f 9;
#X obj 499 224 bng 31 250 50 0 remote.shutdown empty shutdown -7 -6 0 10 #191919 #e1e1e1 #e1e1e1;
#X obj 824 314 r remote.shutdown;
#X msg 824 344 shutdown, f 11;
#X msg 599 449 dir;
#X obj 599 479 pdcontrol;
#X obj 599 539 shell;
#X msg 599 509 code \$1;
#X obj 584 224 bng 31 250 50 0 dev.code empty vscode 0 -6 0 10 #007acc #ffffff #e1e1e1;
#X obj 599 419 r dev.code;
#X connect 0 0 2 0;
#X connect 2 0 1 0;
#X connect 4 0 7 0;
#X connect 4 1 6 0;
#X connect 6 0 3 1;
#X connect 7 0 3 0;
#X connect 8 0 9 0;
#X connect 10 0 7 0;
#X connect 10 0 6 0;
#X connect 14 0 15 0;
#X connect 15 0 12 0;
#X connect 17 0 18 0;
#X connect 18 0 12 0;
#X connect 20 0 21 0;
#X connect 21 0 12 0;
#X connect 22 0 23 0;
#X connect 23 0 25 0;
#X connect 25 0 24 0;
#X connect 27 0 22 0;
#X coords 0 0 1 1 309 56 1 373 207;
