#N canvas 827 239 734 565 12;
#X obj 500 369 pdcontrol;
#X msg 500 324 dir;
#X obj 471 435 symbol;
#X obj 476 263 t;
#X symbolatom 471 479 43 0 0 0 - - - 16;
#X obj 476 207 loadmess bang, f 14;
#X obj 476 162 bng 25 250 50 0 empty empty empty 17 7 0 10 #211d14 #e1bf96 #e1ce9c;
#X connect 0 0 2 1;
#X connect 1 0 0 0;
#X connect 2 0 4 0;
#X connect 3 0 2 0;
#X connect 3 1 1 0;
#X connect 5 0 3 0;
#X connect 6 0 5 0;
