#N canvas -392 -1088 1922 994 10;
#X obj 18 236 bng 15 250 50 0 empty empty Save 17 7 0 10 #fcfcfc #000000
#000000;
#X msg 82 350 clear;
#X obj 82 370 s \$0-buffer;
#X msg 37 371 2;
#X obj 37 392 until;
#X obj 37 414 f;
#X obj 37 458 t b l;
#X obj 37 495 array get;
#X obj 37 513 text set \$0-buffer 1e+06;
#X obj 18 556 text define \$0-buffer;
#X obj 346 319 s \$0-buffer;
#X obj 225 296 text size \$0-buffer;
#X obj 225 321 until;
#X obj 225 346 f;
#X obj 225 371 t f f;
#X obj 225 429 text get \$0-buffer;
#X obj 225 449 array set;
#X msg 264 322 0;
#X obj 266 346 + 1;
#X msg 75 393 0;
#X obj 76 413 + 1;
#X msg 94 478 symbol \$2-array\$1;
#X msg 276 408 symbol \$2-array\$1;
#X msg 18 536 write arrays\$1.txt;
#X obj 225 271 t b b f;
#X msg 346 294 read arrays\$1.txt;
#X floatatom 225 247 5 0 0 1 Load - -, f 5;
#X obj 18 287 f;
#X msg 33 261 0;
#X obj 45 288 + 1;
#X obj 18 309 t f b b;
#N canvas 0 0 450 300 (subpatch) 0;
#X array \$0-array1 19 float 20 black #ff0000;
#X coords 0 2 18 0 500 100 1;
#X restore 14 108 graph;
#N canvas 0 0 450 300 (subpatch) 0;
#X array \$0-array0 44 float 22 #ffa2ff #ff00ff;
#X coords 0 1 44 0 500 100 1;
#X restore 14 8 graph;
#X obj 37 437 list \$0;
#X obj 276 388 list \$0;
#X connect 0 0 27 0;
#X connect 1 0 2 0;
#X connect 3 0 4 0;
#X connect 4 0 5 0;
#X connect 5 0 20 0;
#X connect 5 0 33 0;
#X connect 6 0 7 0;
#X connect 6 1 21 0;
#X connect 7 0 8 0;
#X connect 11 0 12 0;
#X connect 12 0 13 0;
#X connect 13 0 14 0;
#X connect 13 0 18 0;
#X connect 14 0 15 0;
#X connect 14 1 34 0;
#X connect 15 0 16 0;
#X connect 17 0 13 1;
#X connect 18 0 13 1;
#X connect 19 0 5 1;
#X connect 20 0 5 1;
#X connect 21 0 7 2;
#X connect 22 0 16 2;
#X connect 23 0 9 0;
#X connect 24 0 11 0;
#X connect 24 1 17 0;
#X connect 24 2 25 0;
#X connect 25 0 10 0;
#X connect 26 0 24 0;
#X connect 27 0 29 0;
#X connect 27 0 30 0;
#X connect 28 0 27 1;
#X connect 29 0 27 1;
#X connect 30 0 23 0;
#X connect 30 1 3 0;
#X connect 30 2 1 0;
#X connect 30 2 19 0;
#X connect 33 0 6 0;
#X connect 34 0 22 0;
