#N canvas 827 239 527 327 12;
#X obj 184 360 print;
#X obj 175 293 pgm2bank;
#X obj 178 227 + 1;
#X obj 185 98 bng 20 250 50 0 empty empty empty 0 -10 0 12 #fcfcfc #000000 #000000;
#X obj 122 238 print;
#X obj 196 261 t b f;
#X obj 207 157 bng 20 250 50 0 empty empty empty 0 -10 0 12 #fcfcfc #000000 #000000;
#X obj 177 128 uzi 128;
#X obj 172 194 counter 0 0 127;
#X obj 183 328 zl group 128;
#X text 234 50 print bank labels;
#X obj 182 51 inlet;
#X obj 123 368 outlet;
#X connect 1 0 9 0;
#X connect 2 0 5 0;
#X connect 3 0 7 0;
#X connect 5 0 1 0;
#X connect 5 1 1 1;
#X connect 6 0 8 2;
#X connect 7 0 8 0;
#X connect 8 0 2 0;
#X connect 8 0 4 0;
#X connect 9 0 0 0;
#X connect 9 0 12 0;
#X connect 11 0 3 0;
