#N canvas 827 239 527 327 12;
#X obj 56 108 s ctl.do_cont;
#X obj 157 99 s ctl.do_stop;
#X obj 250 72 s ctl.do_prime;
#X obj 362 120 s ctl.do_reset;
#X obj 250 23 bng 25 250 50 0 empty empty ctl\ prime 17 7 0 10 #e3dfd9 #5a5a5a #5a5a5a;
#X msg 57 62 127;
#X obj 56 27 bng 25 250 50 0 empty empty ctl\ cont 17 7 0 10 #e3dfd9 #5a5a5a #5a5a5a;
#X msg 157 62 127;
#X obj 156 27 bng 25 250 50 0 empty empty ctl\ stop 17 7 0 10 #e3dfd9 #5a5a5a #5a5a5a;
#X obj 362 57 t b b;
#X msg 362 85 127 \, 0;
#X obj 362 25 bng 25 250 50 0 empty empty ctl\ reset 17 7 0 10 #e3dfd9 #5a5a5a #5a5a5a;
#X obj 470 99 s ctl.do_hold;
#X msg 471 65 127;
#X obj 470 30 bng 25 250 50 0 empty empty hold 17 7 0 10 #e3dfd9 #5a5a5a #5a5a5a;
#X obj 575 72 s ctl.do_seg;
#X obj 575 37 nbx 4 18 -1e+37 1e+37 0 0 empty empty ctl\ seek\ seg 0 -8 0 10 #191919 #e1e1e1 #e1e1e1 0 256;
#X obj 696 43 r t.count;
#X obj 72 195 phasor~ 1;
#X obj 72 234 >~ 0.8;
#X floatatom 183 344 5 0 0 0 - - - 12;
#X floatatom 183 264 5 0 0 0 - - - 12;
#X obj 183 225 snapshot~;
#X obj 183 305 snapshot~;
#X obj 275 195 metro 100;
#X obj 275 153 tgl 25 0 empty empty empty 17 7 0 10 #191919 #e1e1e1 #e1e1e1 0 1;
#X obj 72 286 edge~;
#X obj 72 320 bng 25 250 50 0 empty empty empty 17 7 0 10 #191919 #e1e1e1 #e1e1e1;
#X obj 189 477 array;
#X connect 4 0 2 0;
#X connect 5 0 0 0;
#X connect 6 0 5 0;
#X connect 7 0 1 0;
#X connect 8 0 7 0;
#X connect 9 0 10 0;
#X connect 9 1 10 0;
#X connect 10 0 3 0;
#X connect 11 0 9 0;
#X connect 13 0 12 0;
#X connect 14 0 13 0;
#X connect 16 0 15 0;
#X connect 18 0 19 0;
#X connect 18 0 22 0;
#X connect 19 0 23 0;
#X connect 19 0 26 0;
#X connect 22 0 21 0;
#X connect 23 0 20 0;
#X connect 24 0 22 0;
#X connect 24 0 23 0;
#X connect 25 0 24 0;
#X connect 26 0 27 0;
