#N canvas 827 239 527 327 12;
#X obj 238 249 edge~;
#X obj 238 283 bng 25 250 50 0 empty empty empty 17 7 0 10 #191919 #e1e1e1 #e1e1e1;
#X obj 193 124 soundfiler;
#N canvas 0 0 450 250 (subpatch) 0;
#X array snd1 155944 float 2;
#X coords 0 1 155944 -1 246 146 1;
#X restore 322 180 graph;
#X msg 193 95 read -resize ../samples/bell.aiff snd1;
#X obj 92 249 tabread~ snd1;
#X obj 92 285 *~ 0.5;
#X obj 87 326 dac~;
#X obj 238 218 >~ 0.99;
#X floatatom 193 156 8 0 0 0 - - - 12;
#X obj 92 218 scale~ 0 1 0 1;
#X obj 193 60 bng 25 250 50 0 empty empty empty 17 7 0 10 #191919 #e1e1e1 #e1e1e1;
#X obj 92 180 phasor~ 1;
#X obj 55 142 hsl 128 17 0.05 5 1 0 empty empty empty -2 -8 0 10 #191919 #e1e1e1 #e1e1e1 0 1;
#X connect 0 0 1 0;
#X connect 2 0 9 0;
#X connect 4 0 2 0;
#X connect 5 0 6 0;
#X connect 6 0 7 0;
#X connect 6 0 7 1;
#X connect 8 0 0 0;
#X connect 9 0 10 4;
#X connect 10 0 5 0;
#X connect 11 0 4 0;
#X connect 12 0 8 0;
#X connect 12 0 10 0;
#X connect 13 0 12 0;
