#N canvas 1440 928 1920 976 12;
#N canvas 0 50 450 250 (subpatch) 0;
#X array mnm_seq 64 float 3;
#A 0 54 0 0 0 44 0 0 0 52 0 0 0 49 0 0 0 38 0 0 0 56 0 0 0 36 0 0 0 0 0 0 0 48 0 0 0 0 0 0 0 44 0 0 0 0 0 0 0 53 0 0 0 51 0 0 0 52 0 0 0 57 0 0 0;
#X coords 0 128 64 0 1471 165 1 0 0;
#X restore 68 857 graph;
#X floatatom 219 148 5 0 0 0 - - - 0;
#X obj 223 302 array get mnm_seq;
#X obj 212 126 r t.count16;
#X floatatom 225 238 5 0 63 0 - - - 0;
#X obj 1489 472 uzi 64;
#X obj 1488 524 t f b;
#X obj 1488 447 bng 20 250 50 0 empty empty empty 0 -10 0 12 #fcfcfc #000000 #000000;
#X obj 1490 588 array set mnm_seq;
#X msg 1519 557 -1;
#X obj 224 336 i;
#X floatatom 220 416 5 0 0 0 - - - 0;
#X msg 241 605 127;
#X obj 34 80 metro 100;
#X obj 35 122 counter 255;
#X floatatom 257 93 5 0 0 0 - - - 0;
#X obj 39 43 tgl 20 0 empty empty empty 0 -10 0 12 #fcfcfc #000000 #000000 0 1;
#X obj 220 737 noteout;
#X msg 400 583 49;
#X msg 436 585 50;
#X msg 471 588 51;
#X text 592 1341 comment;
#X obj 1321 230 array get mnm_seq;
#X obj 1317 387 array set mnm_seq;
#X obj 1325 107 tgl 20 0 empty empty empty 0 -10 0 12 #fcfcfc #000000 #000000 0 1;
#X obj 1322 193 bng 20 250 50 0 empty empty empty 0 -10 0 12 #fcfcfc #000000 #000000;
#X obj 1315 256 iter;
#X obj 1318 328 i;
#X obj 1324 294 + 0.5;
#X msg 507 588 52;
#X msg 541 590 53;
#X msg 580 593 54;
#X msg 404 622 57;
#X msg 443 621 27;
#X obj 1318 151 metro 100;
#X obj 1372 105 loadmess 1;
#X obj 223 481 spigot;
#X obj 245 449 > 0;
#X obj 67 1030 hradio 23 1 0 64 empty empty empty 0 -10 0 12 #fcfcfc #000000 #000000 0;
#X obj 1319 355 zl group 64;
#X obj 226 212 mod 64;
#X obj 220 178 + 1;
#X text 165 1062 !;
#X text 258 1060 !;
#X text 345 1061 !;
#X text 441 1058 !;
#X text 533 1061 !;
#X text 621 1061 !;
#X text 717 1058 !;
#X text 810 1056 !;
#X text 897 1057 !;
#X text 993 1054 !;
#X text 1085 1057 !;
#X text 1176 1061 !;
#X text 1263 1062 !;
#X text 1359 1059 !;
#X text 1451 1062 !;
#X text 168 837 !;
#X text 261 835 !;
#X text 348 836 !;
#X text 444 833 !;
#X text 536 836 !;
#X text 624 836 !;
#X text 720 833 !;
#X text 813 831 !;
#X text 900 832 !;
#X text 996 829 !;
#X text 1088 832 !;
#X text 1179 836 !;
#X text 1266 837 !;
#X text 1362 834 !;
#X text 1454 837 !;
#N canvas 0 50 450 250 (subpatch) 0;
#X array mnm_chance 64 float 3;
#A 0 74 74 74 76 77 77 76 76 76 75 74 74 74 73 72 72 72 72 72 72 72 72 72 72 72 72 72 72 71 70 69 68 68 68 68 70 70 70 70 70 70 70 72 72 73 73 73 72 72 72 72 72 72 72 72 72 70 70 69 69 68 69 69 69.697;
#X coords 0 100 64 0 1471 165 1 0 0;
#X restore 67 1084 graph;
#X obj 65 1254 hradio 23 1 0 64 empty empty empty 0 -10 0 12 #fcfcfc #000000 #000000 0;
#X text 163 1286 !;
#X text 256 1284 !;
#X text 343 1285 !;
#X text 439 1282 !;
#X text 531 1285 !;
#X text 619 1285 !;
#X text 715 1282 !;
#X text 808 1280 !;
#X text 895 1281 !;
#X text 991 1278 !;
#X text 1083 1281 !;
#X text 1174 1285 !;
#X text 1261 1286 !;
#X text 1357 1283 !;
#X text 1449 1286 !;
#X obj 380 452 random 100;
#X obj 285 639 spigot;
#X obj 384 300 array get mnm_chance;
#X obj 1325 472 uzi 64;
#X obj 1324 524 t f b;
#X obj 1324 447 bng 20 250 50 0 empty empty empty 0 -10 0 12 #fcfcfc #000000 #000000;
#X obj 1326 588 array set mnm_chance;
#X msg 1355 557 100;
#X obj 1325 496 counter 0 0 64;
#X obj 1489 497 counter 0 0 64;
#X text 1349 446 reset chance;
#X text 1512 446 reset notes;
#X text 1366 184 snap to int in array ui, f 12;
#X text 63 45 test;
#X obj 397 484 <;
#X floatatom 386 335 5 0 0 0 - - - 0;
#X obj 1460 253 iter;
#X obj 1463 325 i;
#X obj 1469 291 + 0.5;
#X obj 1464 352 zl group 64;
#X obj 1462 384 array set mnm_chance;
#X obj 1466 227 array get mnm_chance;
#X obj 287 686 bng 20 250 50 0 empty empty empty 0 -10 0 12 #fcfcfc #000000 #000000;
#X floatatom 267 344 5 0 0 0 - - - 0;
#X obj 223 378 sel 0;
#X obj 216 671 f;
#X obj 245 692 f;
#X obj 332 213 mod 64;
#X obj 385 418 t b f;
#X obj 347 577 i;
#X obj 322 179 + 2;
#X obj 360 251 pipe 10;
#X msg 269 605 0;
#X obj 221 538 t b b b b f b;
#X floatatom 116 49 5 0 0 0 - - - 0;
#X floatatom 873 68 5 0 0 0 - - - 0;
#X text 866 48 loop length;
#X obj 581 182 array size mnm_seq;
#X obj 584 215 array size mnm_chance;
#X obj 700 301 bng 15 250 50 0 empty empty Save 17 7 0 10 #fcfcfc #000000 #000000;
#X msg 774 378 clear;
#X obj 787 411 s \$0-buffer;
#X obj 704 477 text set \$0-buffer 1e+06;
#X obj 685 552 text define \$0-buffer;
#X obj 986 429 s \$0-buffer;
#X obj 887 349 text size \$0-buffer;
#X obj 883 391 until;
#X obj 891 432 f;
#X obj 909 502 text get \$0-buffer;
#X msg 954 392 0;
#X obj 942 435 + 1;
#X obj 910 310 t b b f;
#X floatatom 921 244 5 0 0 1 Load - - 0;
#X obj 702 330 f;
#X obj 701 362 t f b b;
#X msg 996 390 read sets/seqs/seq\$1.txt;
#X msg 685 517 write sets/seqs/seq\$1.txt;
#X obj 705 450 array get mnm_seq;
#X obj 908 533 array set mnm_seq;
#X floatatom 746 298 5 0 0 0 - - - 0;
#X obj 911 279 f;
#X obj 895 245 bng 20 250 50 0 empty empty empty 0 -10 0 12 #fcfcfc #000000 #000000;
#X connect 1 0 41 0;
#X connect 2 0 10 0;
#X connect 3 0 1 0;
#X connect 4 0 38 0;
#X connect 4 0 73 0;
#X connect 4 0 2 0;
#X connect 5 0 98 0;
#X connect 6 0 8 1;
#X connect 6 1 9 0;
#X connect 7 0 5 0;
#X connect 9 0 8 0;
#X connect 10 0 112 0;
#X connect 10 0 113 0;
#X connect 11 0 36 0;
#X connect 11 0 37 0;
#X connect 12 0 115 0;
#X connect 13 0 14 0;
#X connect 14 0 15 0;
#X connect 15 0 41 0;
#X connect 15 0 119 0;
#X connect 16 0 13 0;
#X connect 18 0 17 2;
#X connect 19 0 17 2;
#X connect 20 0 17 2;
#X connect 22 0 26 0;
#X connect 24 0 34 0;
#X connect 25 0 22 0;
#X connect 25 0 110 0;
#X connect 26 0 28 0;
#X connect 27 0 39 0;
#X connect 28 0 27 0;
#X connect 29 0 17 2;
#X connect 30 0 17 2;
#X connect 31 0 17 2;
#X connect 32 0 17 2;
#X connect 33 0 17 2;
#X connect 34 0 25 0;
#X connect 35 0 24 0;
#X connect 36 0 122 0;
#X connect 37 0 36 1;
#X connect 39 0 23 0;
#X connect 40 0 4 0;
#X connect 41 0 40 0;
#X connect 89 0 103 0;
#X connect 90 0 111 0;
#X connect 90 0 114 1;
#X connect 91 0 104 0;
#X connect 92 0 97 0;
#X connect 93 0 95 1;
#X connect 93 1 96 0;
#X connect 94 0 92 0;
#X connect 96 0 95 0;
#X connect 97 0 93 0;
#X connect 98 0 6 0;
#X connect 103 0 118 1;
#X connect 104 0 117 0;
#X connect 105 0 107 0;
#X connect 106 0 108 0;
#X connect 107 0 106 0;
#X connect 108 0 109 0;
#X connect 110 0 105 0;
#X connect 113 1 11 0;
#X connect 114 0 17 0;
#X connect 115 0 17 1;
#X connect 116 0 120 0;
#X connect 117 0 89 0;
#X connect 117 1 103 1;
#X connect 118 0 90 1;
#X connect 119 0 116 0;
#X connect 120 0 91 0;
#X connect 121 0 115 0;
#X connect 122 0 114 0;
#X connect 122 1 12 0;
#X connect 122 2 114 0;
#X connect 122 3 121 0;
#X connect 122 4 90 0;
#X connect 122 5 118 0;
#X connect 123 0 13 1;
#X connect 124 0 116 1;
#X connect 124 0 40 1;
#X connect 124 0 39 1;
#X connect 124 0 108 1;
#X connect 124 0 97 4;
#X connect 124 0 98 4;
#X connect 124 0 92 1;
#X connect 124 0 5 1;
#X connect 124 0 126 0;
#X connect 124 0 127 0;
#X connect 128 0 142 0;
#X connect 129 0 130 0;
#X connect 134 0 135 0;
#X connect 135 0 136 0;
#X connect 136 0 139 0;
#X connect 136 0 137 0;
#X connect 137 0 147 0;
#X connect 138 0 136 1;
#X connect 139 0 136 1;
#X connect 140 0 134 0;
#X connect 140 1 138 0;
#X connect 140 2 144 0;
#X connect 141 0 149 1;
#X connect 142 0 143 0;
#X connect 143 0 145 0;
#X connect 143 1 146 0;
#X connect 143 2 129 0;
#X connect 144 0 133 0;
#X connect 145 0 132 0;
#X connect 146 0 131 0;
#X connect 148 0 142 1;
#X connect 149 0 140 0;
#X connect 150 0 149 0;
