#N canvas 827 239 527 327 12;
#X obj 130 89 adc~ 3 4;
#X obj 123 144 writesf~ 2;
#X obj 236 144 tabwrite~ audioin;
#N canvas 0 0 450 250 (subpatch) 0;
#X array audioin 100 float 2;
#X coords 0 1 100 -1 200 140 1;
#X restore 399 102 graph;
#X obj 251 83 metro 50;
#X obj 262 41 tgl 25 0 empty empty empty 17 7 0 10 #191919 #e1e1e1 #e1e1e1 0 1;
#X msg 60 41 open /tmp/pd.wav;
#X msg 65 123 start;
#X msg 67 165 stop;
#X connect 0 0 1 0;
#X connect 0 0 2 0;
#X connect 0 1 1 1;
#X connect 4 0 2 0;
#X connect 5 0 4 0;
#X connect 6 0 1 0;
#X connect 7 0 1 0;
#X connect 8 0 1 0;
