#N canvas 2569 1006 665 670 12;
#X msg 34 448 16 7 127;
#X msg 107 445 0 0 0;
#X obj 43 378 sel 1;
#X obj 44 345 tgl 23 0 empty empty empty 17 7 0 10 #191919 #e1e1e1 #e1e1e1 0 1;
#X obj 79 412 b;
#X msg 38 490 240 0 32 107 127 66 2 2 22 4 \$1 \$2 \$3 247;
#X obj 491 176 print midi;
#X obj 527 88 notein;
#X obj 510 138 stripnote;
#X obj 516 215 mtof;
#X obj 533 297 osc~ 200;
#X obj 510 258 t b f;
#X obj 504 417 dac~;
#X obj 502 380 *~ 0;
#X obj 540 343 line;
#X msg 443 300 1 \, 0 500;
#X text 39 126 test minilab3 midiout;
#X msg 243 128 \; pd dsp 1;
#X obj 246 88 loadbang;
#X obj 70 189 bng 20 250 50 0 empty empty empty 0 -10 0 12 #fcfcfc #000000 #000000;
#X obj 81 229 print midirt;
#X obj 78 152 midirealtimein;
#X obj 107 192 change;
#X text 400 53 test midiin from minilab3 & dsp out;
#X floatatom 223 259 5 30 300 2 tempo - - 0;
#X obj 56 271 counter 0 0 15;
#X obj 40 311 sel 0;
#X msg 359 523 240 0 32 107 127 66 2 2 22 \$1 0 0 0 247;
#X msg 360 491 0 \, 1 \, 2 \, 3 \, 4 \, 5 \, 6 \, 7 \, 8 \, 9 \, 10 \, 11;
#X obj 362 457 bng 25 250 50 0 empty empty set\ all\ colours\ to\ 0 17 7 0 10 #191919 #e1e1e1 #e1e1e1;
#X obj 353 429 loadbang;
#X obj 263 316 loadbang;
#X msg 249 346 1;
#X obj 229 374 ctlout;
#X msg 287 344 1;
#X obj 147 619 midiout 3;
#X obj 224 288 scale 30 300 0 127;
#X obj 237 216 loadmess 120;
#X obj 142 579 gate 1;
#X obj 195 545 tgl 20 0 empty empty bpm\ indicator 0 -10 0 12 #fcfcfc #000000 #000000 0 1;
#X obj 187 453 loadmess 1;
#X obj 332 212 ctlin 14 33;
#X obj 335 247 scale 0 127 30 300;
#X text 296 188 leftmost knob of ml3;
#X connect 0 0 5 0;
#X connect 1 0 5 0;
#X connect 2 0 0 0;
#X connect 2 1 4 0;
#X connect 3 0 2 0;
#X connect 4 0 1 0;
#X connect 5 0 38 1;
#X connect 7 0 8 0;
#X connect 7 1 8 1;
#X connect 8 0 6 0;
#X connect 8 0 9 0;
#X connect 9 0 11 0;
#X connect 10 0 13 0;
#X connect 11 0 15 0;
#X connect 11 1 10 0;
#X connect 13 0 12 0;
#X connect 14 0 13 1;
#X connect 15 0 14 0;
#X connect 18 0 17 0;
#X connect 19 0 25 0;
#X connect 21 0 19 0;
#X connect 21 0 22 0;
#X connect 22 0 20 0;
#X connect 24 0 36 0;
#X connect 25 0 26 0;
#X connect 26 0 3 0;
#X connect 27 0 35 0;
#X connect 28 0 27 0;
#X connect 29 0 28 0;
#X connect 30 0 29 0;
#X connect 31 0 32 0;
#X connect 31 0 34 0;
#X connect 32 0 33 1;
#X connect 34 0 33 2;
#X connect 36 0 33 0;
#X connect 37 0 24 0;
#X connect 38 0 35 0;
#X connect 39 0 38 0;
#X connect 40 0 39 0;
#X connect 41 0 42 0;
#X connect 42 0 24 0;
