#N canvas 2062 1256 450 300 12;
#X obj 123 110 notein;
#X obj 110 228 noteout 9;
#X obj 202 99 hradio 21 1 0 7 empty empty mnm\ track 19 -11 0 12 #232323 #dcdcdc #84aaff 0;
#X obj 203 128 + 1;
#X obj 199 156 sel 7;
#X msg 200 184 9;
#X obj 196 59 loadmess 9;
#X obj 113 147 stripnote;
#X obj 45 179 selector 2;
#X obj 118 179 selector 2;
#X obj 79 116 tgl 25 0 empty empty stripnote -8 -9 0 10 #191919 #e1e1e1 #e1e1e1 0 1;
#X text 48 66 send notes to mnm;
#X connect 0 0 7 0;
#X connect 0 0 8 0;
#X connect 0 1 7 1;
#X connect 0 1 9 0;
#X connect 2 0 3 0;
#X connect 3 0 4 0;
#X connect 4 0 5 0;
#X connect 4 1 1 2;
#X connect 5 0 1 2;
#X connect 6 0 2 0;
#X connect 7 0 8 1;
#X connect 7 1 9 1;
#X connect 8 0 1 0;
#X connect 9 0 1 1;
#X connect 10 0 9 2;
#X connect 10 0 8 2;
