#N canvas 1862 992 1330 792 12;
#X msg 48 119 240 0 32 107 127 66 2 2 22 \$1 0 0 0 247;
#X msg 49 87 0 \, 1 \, 2 \, 3 \, 4 \, 5 \, 6 \, 7 \, 8 \, 9 \, 10 \, 11;
#X obj 51 53 bng 25 250 50 0 empty empty set\ all\ colours\ to\ 0 17 7 0 10 #191919 #e1e1e1 #e1e1e1;
#X obj 288 22 loadbang;
#X obj 35 155 midiout 3;
#X obj 140 307 ctlin 14 33;
#X obj 231 308 ctlin 15 33;
#X floatatom 143 336 5 0 0 0 - - - 0;
#X floatatom 233 336 5 0 0 0 - - - 0;
#X floatatom 321 339 5 0 0 0 - - - 0;
#X floatatom 415 341 5 0 0 0 - - - 0;
#X obj 322 307 ctlin 30 33;
#X obj 414 307 ctlin 31 33;
#X text 162 275 sliders;
#X obj 309 418 ctlin 86 33;
#X floatatom 311 454 5 0 0 0 - - - 0;
#X obj 409 418 ctlin 87 33;
#X floatatom 408 452 5 0 0 0 - - - 0;
#X obj 517 422 ctlin 89 33;
#X obj 609 425 ctlin 90 33;
#X floatatom 518 453 5 0 0 0 - - - 0;
#X floatatom 607 459 5 0 0 0 - - - 0;
#X obj 310 500 ctlin 110 33;
#X floatatom 308 534 5 0 0 0 - - - 0;
#X floatatom 405 534 5 0 0 0 - - - 0;
#X floatatom 505 535 5 0 0 0 - - - 0;
#X floatatom 604 535 5 0 0 0 - - - 0;
#X obj 407 500 ctlin 111 33;
#X obj 507 501 ctlin 116 33;
#X obj 606 501 ctlin 117 33;
#X obj 205 497 ctlin 28 33;
#X floatatom 205 532 5 0 0 0 - - - 0;
#X text 313 384 knobs;
#X obj 104 500 ctlin 1 33;
#X floatatom 104 530 5 0 0 0 - - - 0;
#X obj 42 499 bendin;
#X floatatom 43 536 5 0 0 0 - - - 0;
#X text 65 466 bend & mod;
#X obj 38 626 ctlin 105 33;
#X floatatom 38 662 5 0 0 0 - - - 0;
#X text 38 592 transport buttons;
#X floatatom 142 660 5 0 0 0 - - - 0;
#X floatatom 246 663 5 0 0 0 - - - 0;
#X floatatom 345 663 5 0 0 0 - - - 0;
#X floatatom 443 658 5 0 0 0 - - - 0;
#X obj 142 624 ctlin 106 33;
#X obj 247 627 ctlin 107 33;
#X obj 345 627 ctlin 108 33;
#X obj 443 622 ctlin 109 33;
#X obj 393 63 sel 1;
#X obj 394 30 tgl 23 0 empty empty empty 17 7 0 10 #191919 #e1e1e1 #e1e1e1 0 1;
#X obj 444 62 b;
#X obj 382 240 midiout 3;
#X text 116 22 reset button colours;
#X msg 382 206 240 0 32 107 127 66 2 2 22 \$1 \$2 \$3 \$4 247;
#X msg 463 98 0 0 0;
#X obj 379 139 list-apply / 2;
#X msg 378 103 0 0 255;
#X obj 374 168 prepend 4;
#X msg 533 143 set \$1;
#X floatatom 533 110 5 0 11 1 button\ id - - 0;
#X text 492 70 set button colours (rgb);
#X text 510 14 https://gist.github.com/Janiczek/04a87c2534b9d1435a1d8159c742d260;
#X msg 769 166 240 0 32 107 127 66 4 2 96 1;
#X msg 991 167 0 2;
#X obj 1070 226 list fromsymbol;
#X obj 1070 197 tosymbol;
#X obj 784 237 list append;
#X obj 784 269 list append;
#X obj 783 298 list append;
#X obj 1187 230 list fromsymbol;
#X obj 1182 199 tosymbol;
#X obj 781 367 midiout 3;
#X obj 810 122 t b b;
#X obj 814 79 bng 20 250 50 0 empty empty empty 0 -10 0 12 #fcfcfc #000000 #000000;
#X obj 781 328 list append;
#X msg 1035 167 247;
#X msg 911 333 240 0 32 107 127 66 2 2 64 106 33 247;
#X obj 913 305 loadbang;
#X text 918 98 set text;
#X text 982 307 required for init;
#X msg 1063 100 This is lots of text :);
#X msg 1183 163 This is more text.;
#X obj 732 58 loadbang;
#X obj 739 88 del 50;
#X obj 283 57 del 50;
#X connect 0 0 4 0;
#X connect 1 0 0 0;
#X connect 2 0 1 0;
#X connect 3 0 85 0;
#X connect 5 0 7 0;
#X connect 6 0 8 0;
#X connect 11 0 9 0;
#X connect 12 0 10 0;
#X connect 14 0 15 0;
#X connect 16 0 17 0;
#X connect 18 0 20 0;
#X connect 19 0 21 0;
#X connect 22 0 23 0;
#X connect 27 0 24 0;
#X connect 28 0 25 0;
#X connect 29 0 26 0;
#X connect 30 0 31 0;
#X connect 33 0 34 0;
#X connect 35 0 36 0;
#X connect 38 0 39 0;
#X connect 45 0 41 0;
#X connect 46 0 42 0;
#X connect 47 0 43 0;
#X connect 48 0 44 0;
#X connect 49 0 57 0;
#X connect 49 1 51 0;
#X connect 50 0 49 0;
#X connect 51 0 55 0;
#X connect 54 0 52 0;
#X connect 55 0 58 0;
#X connect 56 0 58 0;
#X connect 57 0 56 0;
#X connect 58 0 54 0;
#X connect 59 0 58 0;
#X connect 60 0 59 0;
#X connect 63 0 67 0;
#X connect 64 0 68 1;
#X connect 65 0 67 1;
#X connect 66 0 65 0;
#X connect 67 0 68 0;
#X connect 68 0 69 0;
#X connect 69 0 75 0;
#X connect 70 0 69 1;
#X connect 71 0 70 0;
#X connect 73 0 63 0;
#X connect 73 1 64 0;
#X connect 73 1 82 0;
#X connect 73 1 81 0;
#X connect 73 1 76 0;
#X connect 74 0 73 0;
#X connect 75 0 72 0;
#X connect 76 0 75 1;
#X connect 77 0 72 0;
#X connect 78 0 77 0;
#X connect 81 0 66 0;
#X connect 82 0 71 0;
#X connect 83 0 84 0;
#X connect 84 0 73 0;
#X connect 85 0 1 0;
