#N canvas 1440 928 1920 976 12;
#N canvas 0 50 450 250 (subpatch) 0;
#X array mnm_seq 32 float 3;
#A 0 5 6 6 5 4 4 3 2 2 12 3 4 4 5 5 5 6 6 6 6 0 0 0 0 0 0 0 0 0 0 0 0;
#X coords 0 16 32 -1 334 135 1 0 0;
#X restore 25 32 graph;
#X floatatom 411 55 5 0 0 0 - - - 0;
#X obj 407 160 array get mnm_seq;
#X obj 409 30 r t.count16;
#X obj 409 82 mod 64;
#X floatatom 408 121 5 0 63 0 - - - 0;
#X obj 544 44 uzi 64;
#X obj 543 96 t f b;
#X obj 543 19 bng 20 250 50 0 empty empty empty 0 -10 0 12 #fcfcfc #000000 #000000;
#X obj 545 160 array set mnm_seq;
#X msg 574 129 -1;
#X obj 544 69 counter 0 0 63;
#X text 568 18 reset array;
#X obj 409 198 i;
#X obj 408 223 sel -1;
#X floatatom 406 251 5 0 0 0 - - - 0;
#X obj 408 315 t f b;
#X msg 437 343 127;
#X msg 482 325 2;
#X obj 253 246 metro 100;
#X obj 254 288 counter 255;
#X floatatom 249 316 5 0 0 0 - - - 0;
#X obj 258 209 tgl 20 0 empty empty empty 0 -10 0 12 #fcfcfc #000000 #000000 0 1;
#X obj 410 284 + 32;
#X obj 410 371 noteout;
#X msg 523 325 49;
#X msg 559 327 50;
#X msg 594 330 51;
#X text 593 1281 comment;
#X obj 701 168 array get mnm_seq;
#X obj 694 347 array set mnm_seq;
#X obj 705 45 tgl 20 0 empty empty empty 0 -10 0 12 #fcfcfc #000000 #000000 0 1;
#X obj 472 201 bng 20 250 50 0 empty empty empty 0 -10 0 12 #fcfcfc #000000 #000000;
#X obj 702 131 bng 20 250 50 0 empty empty empty 0 -10 0 12 #fcfcfc #000000 #000000;
#X obj 695 194 iter;
#X obj 698 266 i;
#X obj 704 232 + 0.5;
#X obj 698 89 metro 25;
#X obj 699 293 zl group 32;
#X connect 1 0 4 0;
#X connect 2 0 13 0;
#X connect 2 0 32 0;
#X connect 3 0 1 0;
#X connect 4 0 5 0;
#X connect 5 0 2 0;
#X connect 6 0 11 0;
#X connect 7 0 9 1;
#X connect 7 1 10 0;
#X connect 8 0 6 0;
#X connect 10 0 9 0;
#X connect 11 0 7 0;
#X connect 13 0 14 0;
#X connect 14 1 15 0;
#X connect 15 0 23 0;
#X connect 16 0 24 0;
#X connect 16 1 17 0;
#X connect 17 0 24 1;
#X connect 18 0 24 2;
#X connect 19 0 20 0;
#X connect 20 0 21 0;
#X connect 21 0 4 0;
#X connect 22 0 19 0;
#X connect 23 0 16 0;
#X connect 25 0 24 2;
#X connect 26 0 24 2;
#X connect 27 0 24 2;
#X connect 29 0 34 0;
#X connect 31 0 37 0;
#X connect 33 0 29 0;
#X connect 34 0 36 0;
#X connect 35 0 38 0;
#X connect 36 0 35 0;
#X connect 37 0 33 0;
#X connect 38 0 30 0;
