#N canvas 1526 1019 969 792 12;
#X obj 59 65 loadbang;
#X obj 305 310 ctlin 14 33;
#X obj 396 310 ctlin 15 33;
#X floatatom 305 346 5 0 0 0 - - - 0;
#X floatatom 396 346 5 0 0 0 - - - 0;
#X floatatom 487 346 5 0 0 0 - - - 0;
#X floatatom 579 346 5 0 0 0 - - - 0;
#X obj 487 310 ctlin 30 33;
#X obj 579 310 ctlin 31 33;
#X text 327 278 sliders;
#X obj 487 414 ctlin 86 33;
#X floatatom 476 470 5 0 0 0 - - - 0;
#X obj 574 414 ctlin 87 33;
#X floatatom 574 470 5 0 0 0 - - - 0;
#X obj 682 414 ctlin 89 33;
#X obj 774 414 ctlin 90 33;
#X floatatom 682 470 5 0 0 0 - - - 0;
#X floatatom 774 470 5 0 0 0 - - - 0;
#X obj 476 505 ctlin 110 33;
#X floatatom 476 541 5 0 0 0 - - - 0;
#X floatatom 574 541 5 0 0 0 - - - 0;
#X floatatom 682 541 5 0 0 0 - - - 0;
#X floatatom 774 541 5 0 0 0 - - - 0;
#X obj 574 505 ctlin 111 33;
#X obj 682 505 ctlin 116 33;
#X obj 774 505 ctlin 117 33;
#X obj 370 502 ctlin 28 33;
#X floatatom 370 538 5 0 0 0 - - - 0;
#X text 487 380 knobs;
#X obj 269 502 ctlin 1 33;
#X floatatom 269 538 5 0 0 0 - - - 0;
#X obj 207 502 bendin;
#X floatatom 207 538 5 0 0 0 - - - 0;
#X text 230 469 bend & mod;
#X obj 203 629 ctlin 105 33;
#X floatatom 203 665 5 0 0 0 - - - 0;
#X text 203 595 transport buttons;
#X floatatom 307 665 5 0 0 0 - - - 0;
#X floatatom 412 665 5 0 0 0 - - - 0;
#X floatatom 510 665 5 0 0 0 - - - 0;
#X floatatom 608 665 5 0 0 0 - - - 0;
#X obj 307 629 ctlin 106 33;
#X obj 412 629 ctlin 107 33;
#X obj 510 629 ctlin 108 33;
#X obj 608 629 ctlin 109 33;
#X text 48 29 reset button colours;
#X obj 688 110 midiout 3;
#X msg 685 75 240 0 32 107 127 66 2 2 64 106 33 247;
#X obj 684 40 loadbang;
#X obj 464 61 loadbang;
#X obj 464 97 del 50;
#X obj 59 101 del 50;
#X msg 479 144 This is lots of text :);
#X msg 479 169 This is more text.;
#X text 753 36 required for init ml3_text;
#X text 459 34 set text;
#X obj 448 144 bng 20 250 50 0 empty empty empty 0 -10 0 12 #fcfcfc #000000 #000000;
#X obj 458 205 ml3/text;
#X obj 52 225 ml3/clr;
#X msg 54 141 clear;
#X obj 135 129 tgl 20 0 empty empty empty 0 -10 0 12 #fcfcfc #000000 #000000 0 1;
#X floatatom 174 121 5 0 11 1 button\ id - - 0;
#X msg 169 157 red;
#X msg 208 155 green;
#X msg 260 159 orange;
#X msg 316 159 yellow;
#X msg 374 159 cyan;
#X msg 225 198 blue;
#X msg 267 197 purple;
#X msg 329 197 white;
#X text 663 186 there is more that can be done here. you can send knob/slider information to the screen which would be good for displaying what parameters you are controlling;
#X connect 0 0 51 0;
#X connect 1 0 3 0;
#X connect 2 0 4 0;
#X connect 7 0 5 0;
#X connect 8 0 6 0;
#X connect 10 0 11 0;
#X connect 12 0 13 0;
#X connect 14 0 16 0;
#X connect 15 0 17 0;
#X connect 18 0 19 0;
#X connect 23 0 20 0;
#X connect 24 0 21 0;
#X connect 25 0 22 0;
#X connect 26 0 27 0;
#X connect 29 0 30 0;
#X connect 31 0 32 0;
#X connect 34 0 35 0;
#X connect 41 0 37 0;
#X connect 42 0 38 0;
#X connect 43 0 39 0;
#X connect 44 0 40 0;
#X connect 47 0 46 0;
#X connect 48 0 47 0;
#X connect 49 0 50 0;
#X connect 50 0 52 0;
#X connect 50 0 53 0;
#X connect 50 0 56 0;
#X connect 51 0 59 0;
#X connect 52 0 57 1;
#X connect 53 0 57 2;
#X connect 56 0 57 0;
#X connect 59 0 58 0;
#X connect 60 0 58 0;
#X connect 61 0 58 1;
#X connect 62 0 58 2;
#X connect 63 0 58 2;
#X connect 64 0 58 2;
#X connect 65 0 58 2;
#X connect 66 0 58 2;
#X connect 67 0 58 2;
#X connect 68 0 58 2;
#X connect 69 0 58 2;
