#N canvas 2720 940 370 480 8;
#X obj 72 387 + 1;
#X obj 114 285 + 1;
#X obj 71 413 sel 1 2 3 4 5 6 7 8;
#X obj 114 316 split 9;
#X obj 111 382 tosymbol;
#X msg 155 538 set \$1;
#X msg 113 348 0\$1;
#X msg 72 458 A;
#X msg 105 455 B;
#X msg 138 456 C;
#X msg 174 458 D;
#X msg 211 457 E;
#X msg 247 457 F;
#X msg 281 456 G;
#X msg 313 458 H;
#X obj 151 629 makefilename not-set-yet;
#X obj 152 506 makefilename %%s%s;
#X obj 82 507 tosymbol;
#X obj 139 38 inlet;
#X obj 153 666 outlet;
#X obj 154 581 buddy;
#X obj 97 161 / 16;
#X obj 126 113 - 1;
#X obj 98 191 int;
#X obj 154 191 % 16;
#X obj 128 83 f;
#X obj 58 38 inlet;
#X obj 72 76 t;
#X connect 0 0 2 0;
#X connect 1 0 3 0;
#X connect 2 0 7 0;
#X connect 2 1 8 0;
#X connect 2 2 9 0;
#X connect 2 3 10 0;
#X connect 2 4 11 0;
#X connect 2 5 12 0;
#X connect 2 6 13 0;
#X connect 2 7 14 0;
#X connect 3 0 6 0;
#X connect 3 1 4 0;
#X connect 4 0 16 0;
#X connect 5 0 20 1;
#X connect 6 0 4 0;
#X connect 7 0 17 0;
#X connect 8 0 17 0;
#X connect 9 0 17 0;
#X connect 10 0 17 0;
#X connect 11 0 17 0;
#X connect 12 0 17 0;
#X connect 13 0 17 0;
#X connect 14 0 17 0;
#X connect 15 0 19 0;
#X connect 16 0 5 0;
#X connect 17 0 20 0;
#X connect 18 0 25 1;
#X connect 20 0 15 0;
#X connect 20 1 15 0;
#X connect 21 0 23 0;
#X connect 22 0 21 0;
#X connect 22 0 24 0;
#X connect 23 0 0 0;
#X connect 24 0 1 0;
#X connect 25 0 22 0;
#X connect 26 0 27 0;
#X connect 27 0 25 0;
#X connect 27 1 25 0;
